<?xml version="1.0" encoding="UTF-8"?>
<svg id="Layer_1" data-name="Layer 1" xmlns="http://www.w3.org/2000/svg" viewBox="0 0 318.95 82.4">
  <defs>
    <style>
      .cls-1 {
        fill: #30ba78;
      }

      .cls-2 {
        fill: #f2f2f2;
      }
    </style>
  </defs>
  <g id="Layer_1-2" data-name="Layer 1">
    <path class="cls-1" d="M66.24,16.12c-.44-.46-1.17-.46-1.61,0-.5.5-.44,1.37.18,1.78.38.25.88.25,1.25,0,.61-.41.67-1.28.18-1.78M64.77,12.2c-3.04-.72-5.77,2.04-5.06,5.12.36,1.57,1.59,2.81,3.14,3.18,3.04.72,5.77-2.05,5.06-5.12-.36-1.57-1.59-2.81-3.14-3.18M44.7,29.54c-1.98-.74-2.75-.59-5.28-.56-1.76.02-1.82-.04-3.82-.04-.62,0-.85,3,1.39,3.63.98.27,2.04.45,2.78,1.21.33.34.51.85-.24.85h-5.56c-.97,0-1.89.02-2.64-.61-1.12-.96-1.65-2.28-2.21-3.6-.58-1.36-1.21-2.71-1.95-3.99-1.47-2.56-3.41-4.87-6.02-6.28-3.25-1.77-8.77-2.64-13.14.76-4.61,3.58-3.62,10.29.41,13.57,1.59,1.3,3.66,1.84,5.7,1.72,3.98-.24,6.92-3.21,6.19-6.87-.24-1.23-.95-2.38-2.01-3.02-.76-.45-1.65-.61-2.53-.61-.94,0-1.94.2-2.62.86-.8.78-.93,2.17-.29,3.1.35.51.93.94.83,1.61-.07.45-.43.79-.87.89-.75.17-1.43-.26-1.93-.79-1.3-1.35-1.7-3.5-.99-5.24.93-2.28,3.52-3.53,5.96-3.45,3.14.11,6.09,2.2,7.38,5.1,1.29,2.9.9,6.46-.87,9.08-3.94,5.83-13.66,5.14-18.18.22C1.35,33.99-.2,31,.02,25.43c.15-3.94,2.4-7.82,5.26-10.55,4.66-4.45,10.8-7.49,17.04-8.8,3.79-.79,7.71-.98,11.56-.59,3.4.34,6.77.97,10.03,2,1.62.51,3.21,1.12,4.75,1.83,1.36.63,3.14,1.32,4.2,2.41,0-1.98-.08-4.15-.08-5.66,0-.58.6-.97,1.11-.72,2.21,1.04,7.44,3.54,10.93,5.16,4.68,2.16,5.01,7.27,5.17,11.79,0,.1,0,.21-.04.29-.15.31-.94.23-1.23.23-.56,0-1.4,0-1.96.03-1.12.05-2.2.03-3.32-.03-2.06-.1-4.06-1.03-5.4-2.17-.13-.11-.56-.24-.77-.02-.21.22-.14.57-.02.68.77.78,1.6,1.29,2.56,1.8,1.23.64,2.57.8,3.92.88,1.45.09,2.92.07,4.37-.09,1.21-.12,1.52-.21.33.69-1.05.79-2.27,1.36-3.5,1.78-1.77.61-3.64.91-5.51.96-1.13.03-2.26-.03-3.39-.18-.58-.07-1.16-.18-1.74-.24-.47-.05-.96-.14-1.44-.04-.43.09-.82.33-1.09.68-.37.49-.5,1.83-.28,2.41.41,1.13,1.32,1.78,2.28,2.36,1.04.62,2.4.84,2.67,2.03.06.25-2.15.26-2.4.25h-2.93s-1.6.04-2.22-.19c-.02,0-.04-.02-.06-.02-.34-.18-.49-.64-.6-.99-.16-.49-.45-.98-.8-1.48-.66-.96-1.68-2-2.74-2.4M66.91,16.35c0,1.74-1.39,3.15-3.11,3.15s-3.11-1.41-3.11-3.15,1.39-3.15,3.11-3.15,3.11,1.41,3.11,3.15"/>
  </g>
  <g>
    <path class="cls-2" d="M88.15,34.56c-2.08,0-3.89-.39-5.44-1.16-1.55-.77-2.87-1.8-3.96-3.08l3.04-3.04c1.09,1.12,2.16,1.92,3.2,2.4,1.04.48,2.15.72,3.32.72,1.57,0,2.81-.37,3.7-1.1s1.34-1.69,1.34-2.86c0-.91-.25-1.65-.76-2.22-.51-.57-1.17-1.04-2-1.4-.83-.36-1.74-.68-2.74-.96-1-.28-1.99-.59-2.98-.94-.99-.35-1.89-.8-2.72-1.36-.83-.56-1.49-1.29-2-2.2-.51-.91-.76-2.04-.76-3.4,0-1.76.4-3.27,1.2-4.54s1.94-2.25,3.42-2.94c1.48-.69,3.19-1.04,5.14-1.04,1.81,0,3.45.32,4.9.96,1.45.64,2.65,1.49,3.58,2.56l-3.12,3.12c-.8-.83-1.63-1.45-2.48-1.86-.85-.41-1.83-.62-2.92-.62-1.47,0-2.64.35-3.52,1.06-.88.71-1.32,1.65-1.32,2.82,0,.85.25,1.55.76,2.08.51.53,1.18.95,2.02,1.26.84.31,1.76.59,2.76.84,1,.25,2.01.55,3.02.9,1.01.35,1.93.8,2.76,1.36.83.56,1.49,1.31,2,2.24s.76,2.12.76,3.56c0,1.79-.43,3.34-1.28,4.66-.85,1.32-2.05,2.35-3.58,3.08-1.53.73-3.31,1.1-5.34,1.1Z"/>
    <path class="cls-2" d="M113.51,34.56c-3.28,0-5.91-.85-7.88-2.54-1.97-1.69-2.96-4.26-2.96-7.7V6h4.92v17.92c0,2.03.53,3.55,1.6,4.56,1.07,1.01,2.51,1.52,4.32,1.52s3.26-.51,4.34-1.52c1.08-1.01,1.62-2.53,1.62-4.56V6h4.92v18.32c0,2.27-.45,4.16-1.36,5.68-.91,1.52-2.17,2.66-3.8,3.42-1.63.76-3.53,1.14-5.72,1.14Z"/>
    <path class="cls-2" d="M137.91,34.56c-2.08,0-3.89-.39-5.44-1.16-1.55-.77-2.87-1.8-3.96-3.08l3.04-3.04c1.09,1.12,2.16,1.92,3.2,2.4,1.04.48,2.15.72,3.32.72,1.57,0,2.81-.37,3.7-1.1s1.34-1.69,1.34-2.86c0-.91-.25-1.65-.76-2.22-.51-.57-1.17-1.04-2-1.4-.83-.36-1.74-.68-2.74-.96-1-.28-1.99-.59-2.98-.94-.99-.35-1.89-.8-2.72-1.36-.83-.56-1.49-1.29-2-2.2-.51-.91-.76-2.04-.76-3.4,0-1.76.4-3.27,1.2-4.54s1.94-2.25,3.42-2.94c1.48-.69,3.19-1.04,5.14-1.04,1.81,0,3.45.32,4.9.96,1.45.64,2.65,1.49,3.58,2.56l-3.12,3.12c-.8-.83-1.63-1.45-2.48-1.86-.85-.41-1.83-.62-2.92-.62-1.47,0-2.64.35-3.52,1.06-.88.71-1.32,1.65-1.32,2.82,0,.85.25,1.55.76,2.08.51.53,1.18.95,2.02,1.26.84.31,1.76.59,2.76.84,1,.25,2.01.55,3.02.9,1.01.35,1.93.8,2.76,1.36.83.56,1.49,1.31,2,2.24s.76,2.12.76,3.56c0,1.79-.43,3.34-1.28,4.66-.85,1.32-2.05,2.35-3.58,3.08-1.53.73-3.31,1.1-5.34,1.1Z"/>
    <path class="cls-2" d="M157.07,34c-1.36,0-2.47-.44-3.34-1.32-.87-.88-1.3-2-1.3-3.36V10.68c0-1.36.43-2.48,1.3-3.36.87-.88,1.98-1.32,3.34-1.32h13.64v4.48h-12c-.4,0-.74.14-1.02.42-.28.28-.42.62-.42,1.02v16.16c0,.4.14.74.42,1.02s.62.42,1.02.42h12v4.48h-13.64ZM154.79,22.08v-4.28h15.08v4.28h-15.08Z"/>
    <path class="cls-2" d="M185.03,34V10.44c0-1.28.42-2.34,1.26-3.18.84-.84,1.9-1.26,3.18-1.26h12.68v3.12h-11.6c-.59,0-1.09.21-1.5.62-.41.41-.62.91-.62,1.5v22.76h-3.4ZM186.79,22.4v-3.12h14.48v3.12h-14.48Z"/>
    <path class="cls-2" d="M212.03,34c-1.55,0-2.8-.45-3.76-1.34-.96-.89-1.44-2.09-1.44-3.58V6.12l1.44,1.44h-4.96v-2.76h6.76v24.32c0,.61.2,1.12.6,1.52.4.4.91.6,1.52.6h1.84v2.76h-2Z"/>
    <path class="cls-2" d="M225.67,34.4c-1.89,0-3.57-.42-5.02-1.26s-2.59-2.01-3.4-3.5c-.81-1.49-1.22-3.21-1.22-5.16v-.4c0-1.87.37-3.53,1.12-4.98.75-1.45,1.8-2.61,3.16-3.46,1.36-.85,2.93-1.28,4.72-1.28s3.41.45,4.72,1.36c1.31.91,2.27,2.19,2.9,3.84.63,1.65.81,3.59.54,5.8h-14.84v-2.64h13.12l-1.44,1.4c.19-1.47.09-2.71-.3-3.74s-.98-1.82-1.78-2.38c-.8-.56-1.76-.84-2.88-.84-1.23,0-2.27.29-3.14.88-.87.59-1.53,1.39-2,2.42-.47,1.03-.7,2.23-.7,3.62v.4c0,1.33.27,2.53.8,3.58.53,1.05,1.29,1.88,2.28,2.48.99.6,2.16.9,3.52.9,1.01,0,1.91-.13,2.68-.38.77-.25,1.45-.63,2.04-1.14l1.84,2c-.75.8-1.7,1.41-2.86,1.84s-2.45.64-3.86.64Z"/>
    <path class="cls-2" d="M235.03,34l6.84-9.6-6.64-9.64h3.8l5,7.6,5-7.6h3.72l-6.64,9.64,6.76,9.6h-3.84l-5.12-7.48-5.08,7.48h-3.8Z"/>
    <path class="cls-2" d="M258.07,34v-17.88l1.44,1.44h-5.16v-2.8h6.96v19.24h-3.24ZM257.95,10.52v-4.64h3.52v4.64h-3.52Z"/>
    <path class="cls-2" d="M277.23,34.4c-1.71,0-3.22-.44-4.54-1.32s-2.33-2.08-3.02-3.6l.6-.68v5.2h-2.96V4.8h3.24v14.92l-.64-.76c.69-1.41,1.68-2.53,2.96-3.36,1.28-.83,2.73-1.24,4.36-1.24,1.73,0,3.28.41,4.64,1.24,1.36.83,2.43,1.97,3.22,3.44.79,1.47,1.18,3.16,1.18,5.08v.36c0,1.97-.39,3.7-1.16,5.18-.77,1.48-1.84,2.64-3.2,3.48-1.36.84-2.92,1.26-4.68,1.26ZM276.75,31.52c1.2,0,2.27-.29,3.22-.88.95-.59,1.69-1.41,2.24-2.46.55-1.05.82-2.29.82-3.7v-.36c0-1.39-.27-2.59-.82-3.62-.55-1.03-1.29-1.83-2.24-2.4-.95-.57-2.02-.86-3.22-.86s-2.29.3-3.26.9c-.97.6-1.74,1.43-2.3,2.5-.56,1.07-.84,2.32-.84,3.76s.28,2.66.84,3.74c.56,1.08,1.33,1.91,2.3,2.5.97.59,2.06.88,3.26.88Z"/>
    <path class="cls-2" d="M296.15,34c-1.55,0-2.8-.45-3.76-1.34s-1.44-2.09-1.44-3.58V6.12l1.44,1.44h-4.96v-2.76h6.76v24.32c0,.61.2,1.12.6,1.52s.91.6,1.52.6h1.84v2.76h-2Z"/>
    <path class="cls-2" d="M309.79,34.4c-1.89,0-3.57-.42-5.02-1.26s-2.59-2.01-3.4-3.5c-.81-1.49-1.22-3.21-1.22-5.16v-.4c0-1.87.37-3.53,1.12-4.98.75-1.45,1.8-2.61,3.16-3.46,1.36-.85,2.93-1.28,4.72-1.28s3.41.45,4.72,1.36c1.31.91,2.27,2.19,2.9,3.84.63,1.65.81,3.59.54,5.8h-14.84v-2.64h13.12l-1.44,1.4c.19-1.47.09-2.71-.3-3.74s-.98-1.82-1.78-2.38c-.8-.56-1.76-.84-2.88-.84-1.23,0-2.27.29-3.14.88-.87.59-1.53,1.39-2,2.42-.47,1.03-.7,2.23-.7,3.62v.4c0,1.33.27,2.53.8,3.58.53,1.05,1.29,1.88,2.28,2.48.99.6,2.16.9,3.52.9,1.01,0,1.91-.13,2.68-.38.77-.25,1.45-.63,2.04-1.14l1.84,2c-.75.8-1.7,1.41-2.86,1.84s-2.45.64-3.86.64Z"/>
    <path class="cls-2" d="M87.95,74.48c-1.97,0-3.7-.35-5.18-1.06-1.48-.71-2.73-1.67-3.74-2.9l2.16-2.16c.99,1.09,2.05,1.9,3.18,2.42,1.13.52,2.37.78,3.7.78,1.87,0,3.34-.47,4.42-1.4s1.62-2.15,1.62-3.64c0-1.07-.26-1.93-.78-2.58-.52-.65-1.21-1.18-2.08-1.58-.87-.4-1.81-.74-2.84-1.02-1.03-.28-2.05-.59-3.08-.92-1.03-.33-1.97-.77-2.84-1.3-.87-.53-1.56-1.23-2.08-2.1-.52-.87-.78-1.99-.78-3.38,0-1.65.39-3.09,1.16-4.3.77-1.21,1.86-2.15,3.26-2.82,1.4-.67,3.03-1,4.9-1,1.68,0,3.19.27,4.52.82,1.33.55,2.44,1.31,3.32,2.3l-2.2,2.2c-.77-.8-1.62-1.4-2.54-1.8-.92-.4-1.95-.6-3.1-.6-1.79,0-3.22.45-4.3,1.34-1.08.89-1.62,2.07-1.62,3.54,0,1.01.27,1.82.8,2.42.53.6,1.23,1.08,2.08,1.44.85.36,1.8.67,2.84.94s2.08.57,3.12.9c1.04.33,1.99.77,2.86,1.3.87.53,1.57,1.25,2.1,2.16.53.91.8,2.09.8,3.56,0,1.71-.41,3.19-1.22,4.46-.81,1.27-1.95,2.25-3.4,2.94-1.45.69-3.14,1.04-5.06,1.04Z"/>
    <path class="cls-2" d="M110.51,74.4c-1.89,0-3.57-.42-5.02-1.26-1.45-.84-2.59-2.01-3.4-3.5-.81-1.49-1.22-3.21-1.22-5.16v-.4c0-1.87.37-3.53,1.12-4.98.75-1.45,1.8-2.61,3.16-3.46,1.36-.85,2.93-1.28,4.72-1.28s3.41.45,4.72,1.36c1.31.91,2.27,2.19,2.9,3.84.63,1.65.81,3.59.54,5.8h-14.84v-2.64h13.12l-1.44,1.4c.19-1.47.09-2.71-.3-3.74-.39-1.03-.98-1.82-1.78-2.38-.8-.56-1.76-.84-2.88-.84-1.23,0-2.27.29-3.14.88-.87.59-1.53,1.39-2,2.42-.47,1.03-.7,2.23-.7,3.62v.4c0,1.33.27,2.53.8,3.58.53,1.05,1.29,1.88,2.28,2.48.99.6,2.16.9,3.52.9,1.01,0,1.91-.13,2.68-.38.77-.25,1.45-.63,2.04-1.14l1.84,2c-.75.8-1.7,1.41-2.86,1.84s-2.45.64-3.86.64Z"/>
    <path class="cls-2" d="M122.67,74v-19.24h3.12v4.92l-.44-.04c.19-1.31.55-2.32,1.1-3.04.55-.72,1.22-1.22,2.02-1.5.8-.28,1.68-.42,2.64-.42h1.64v3.2h-1.88c-1.55,0-2.76.38-3.64,1.14s-1.32,1.95-1.32,3.58v11.4h-3.24Z"/>
    <path class="cls-2" d="M141.71,74l-7.64-19.24h3.36l6.6,17.08h-1.24l6.6-17.08h3.36l-7.64,19.24h-3.4Z"/>
    <path class="cls-2" d="M157.75,74v-17.88l1.44,1.44h-5.16v-2.8h6.96v19.24h-3.24ZM157.63,50.52v-4.64h3.52v4.64h-3.52Z"/>
    <path class="cls-2" d="M175.55,74.4c-1.89,0-3.58-.41-5.06-1.24-1.48-.83-2.65-1.98-3.5-3.46-.85-1.48-1.28-3.18-1.28-5.1v-.48c0-1.92.43-3.61,1.28-5.08.85-1.47,2.02-2.61,3.5-3.44,1.48-.83,3.17-1.24,5.06-1.24,1.41,0,2.7.25,3.86.76s2.14,1.24,2.94,2.2l-2,2c-.61-.64-1.32-1.13-2.12-1.46-.8-.33-1.69-.5-2.68-.5-1.25,0-2.39.28-3.4.84-1.01.56-1.81,1.35-2.38,2.36-.57,1.01-.86,2.2-.86,3.56v.48c0,1.36.29,2.55.88,3.56.59,1.01,1.38,1.81,2.38,2.38s2.14.86,3.42.86c.96,0,1.85-.15,2.66-.46.81-.31,1.54-.79,2.18-1.46l1.96,1.96c-.77.93-1.75,1.66-2.94,2.18-1.19.52-2.49.78-3.9.78Z"/>
    <path class="cls-2" d="M194.35,74.4c-1.89,0-3.57-.42-5.02-1.26-1.45-.84-2.59-2.01-3.4-3.5-.81-1.49-1.22-3.21-1.22-5.16v-.4c0-1.87.37-3.53,1.12-4.98.75-1.45,1.8-2.61,3.16-3.46,1.36-.85,2.93-1.28,4.72-1.28s3.41.45,4.72,1.36c1.31.91,2.27,2.19,2.9,3.84.63,1.65.81,3.59.54,5.8h-14.84v-2.64h13.12l-1.44,1.4c.19-1.47.09-2.71-.3-3.74-.39-1.03-.98-1.82-1.78-2.38-.8-.56-1.76-.84-2.88-.84-1.23,0-2.27.29-3.14.88-.87.59-1.53,1.39-2,2.42-.47,1.03-.7,2.23-.7,3.62v.4c0,1.33.27,2.53.8,3.58.53,1.05,1.29,1.88,2.28,2.48.99.6,2.16.9,3.52.9,1.01,0,1.91-.13,2.68-.38.77-.25,1.45-.63,2.04-1.14l1.84,2c-.75.8-1.7,1.41-2.86,1.84s-2.45.64-3.86.64Z"/>
    <path class="cls-2" d="M211.83,74.36c-1.41,0-2.74-.22-3.98-.66-1.24-.44-2.25-1.01-3.02-1.7l1.44-2.24c.72.61,1.58,1.11,2.58,1.48,1,.37,1.99.56,2.98.56,1.2,0,2.17-.27,2.92-.82.75-.55,1.12-1.26,1.12-2.14,0-.77-.25-1.36-.76-1.76-.51-.4-1.15-.71-1.94-.94s-1.61-.45-2.48-.68c-.87-.23-1.69-.53-2.48-.9-.79-.37-1.43-.91-1.92-1.6s-.74-1.64-.74-2.84c0-1.71.63-3.09,1.9-4.16,1.27-1.07,2.96-1.6,5.1-1.6,1.2,0,2.34.18,3.42.54,1.08.36,2.02.83,2.82,1.42l-1.44,2.24c-.69-.51-1.45-.91-2.26-1.2-.81-.29-1.67-.44-2.58-.44-1.15,0-2.08.27-2.8.82-.72.55-1.08,1.26-1.08,2.14,0,.75.25,1.32.76,1.72.51.4,1.15.72,1.94.96s1.63.47,2.52.7c.89.23,1.74.53,2.54.92.8.39,1.45.93,1.94,1.64.49.71.74,1.66.74,2.86,0,1.12-.31,2.11-.92,2.96-.61.85-1.47,1.52-2.56,2-1.09.48-2.35.72-3.76.72Z"/>
  </g>
</svg>