<?xml version="1.0" encoding="UTF-8"?>
<svg id="Layer_1" data-name="Layer 1" xmlns="http://www.w3.org/2000/svg" viewBox="0 0 320 127.01">
  <defs>
    <style>
      .cls-1 {
        fill: #30ba78;
      }

      .cls-2 {
        fill: #efefef;
      }
    </style>
  </defs>
  <g>
    <path class="cls-2" d="M10.6,87.17c-2.08,0-3.89-.39-5.44-1.16-1.55-.77-2.87-1.8-3.96-3.08l3.04-3.04c1.09,1.12,2.16,1.92,3.2,2.4,1.04.48,2.15.72,3.32.72,1.57,0,2.81-.37,3.7-1.1.89-.73,1.34-1.69,1.34-2.86,0-.91-.25-1.65-.76-2.22-.51-.57-1.17-1.04-2-1.4-.83-.36-1.74-.68-2.74-.96s-1.99-.59-2.98-.94c-.99-.35-1.89-.8-2.72-1.36-.83-.56-1.49-1.29-2-2.2-.51-.91-.76-2.04-.76-3.4,0-1.76.4-3.27,1.2-4.54.8-1.27,1.94-2.25,3.42-2.94s3.19-1.04,5.14-1.04c1.81,0,3.45.32,4.9.96,1.45.64,2.65,1.49,3.58,2.56l-3.12,3.12c-.8-.83-1.63-1.45-2.48-1.86-.85-.41-1.83-.62-2.92-.62-1.47,0-2.64.35-3.52,1.06-.88.71-1.32,1.65-1.32,2.82,0,.85.25,1.55.76,2.08.51.53,1.18.95,2.02,1.26s1.76.59,2.76.84c1,.25,2.01.55,3.02.9,1.01.35,1.93.8,2.76,1.36.83.56,1.49,1.31,2,2.24.51.93.76,2.12.76,3.56,0,1.79-.43,3.34-1.28,4.66-.85,1.32-2.05,2.35-3.58,3.08-1.53.73-3.31,1.1-5.34,1.1Z"/>
    <path class="cls-2" d="M35.96,87.17c-3.28,0-5.91-.85-7.88-2.54-1.97-1.69-2.96-4.26-2.96-7.7v-18.32h4.92v17.92c0,2.03.53,3.55,1.6,4.56,1.07,1.01,2.51,1.52,4.32,1.52s3.26-.51,4.34-1.52,1.62-2.53,1.62-4.56v-17.92h4.92v18.32c0,2.27-.45,4.16-1.36,5.68-.91,1.52-2.17,2.66-3.8,3.42-1.63.76-3.53,1.14-5.72,1.14Z"/>
    <path class="cls-2" d="M60.36,87.17c-2.08,0-3.89-.39-5.44-1.16-1.55-.77-2.87-1.8-3.96-3.08l3.04-3.04c1.09,1.12,2.16,1.92,3.2,2.4,1.04.48,2.15.72,3.32.72,1.57,0,2.81-.37,3.7-1.1.89-.73,1.34-1.69,1.34-2.86,0-.91-.25-1.65-.76-2.22-.51-.57-1.17-1.04-2-1.4-.83-.36-1.74-.68-2.74-.96s-1.99-.59-2.98-.94c-.99-.35-1.89-.8-2.72-1.36-.83-.56-1.49-1.29-2-2.2-.51-.91-.76-2.04-.76-3.4,0-1.76.4-3.27,1.2-4.54.8-1.27,1.94-2.25,3.42-2.94s3.19-1.04,5.14-1.04c1.81,0,3.45.32,4.9.96,1.45.64,2.65,1.49,3.58,2.56l-3.12,3.12c-.8-.83-1.63-1.45-2.48-1.86-.85-.41-1.83-.62-2.92-.62-1.47,0-2.64.35-3.52,1.06-.88.71-1.32,1.65-1.32,2.82,0,.85.25,1.55.76,2.08.51.53,1.18.95,2.02,1.26s1.76.59,2.76.84c1,.25,2.01.55,3.02.9,1.01.35,1.93.8,2.76,1.36.83.56,1.49,1.31,2,2.24.51.93.76,2.12.76,3.56,0,1.79-.43,3.34-1.28,4.66-.85,1.32-2.05,2.35-3.58,3.08-1.53.73-3.31,1.1-5.34,1.1Z"/>
    <path class="cls-2" d="M79.52,86.6c-1.36,0-2.47-.44-3.34-1.32-.87-.88-1.3-2-1.3-3.36v-18.64c0-1.36.43-2.48,1.3-3.36.87-.88,1.98-1.32,3.34-1.32h13.64v4.48h-12c-.4,0-.74.14-1.02.42-.28.28-.42.62-.42,1.02v16.16c0,.4.14.74.42,1.02.28.28.62.42,1.02.42h12v4.48h-13.64ZM77.24,74.68v-4.28h15.08v4.28h-15.08Z"/>
    <path class="cls-2" d="M114.4,87.05c-1.89,0-3.57-.34-5.02-1.02-1.45-.68-2.66-1.61-3.62-2.78l1.68-1.72c.93,1.07,1.99,1.87,3.18,2.42,1.19.55,2.49.82,3.9.82,2.03,0,3.63-.52,4.8-1.56,1.17-1.04,1.76-2.39,1.76-4.04,0-1.15-.27-2.07-.8-2.76-.53-.69-1.24-1.25-2.12-1.66s-1.84-.77-2.88-1.06c-1.04-.29-2.09-.6-3.14-.92-1.05-.32-2.02-.74-2.9-1.26-.88-.52-1.59-1.21-2.12-2.06-.53-.85-.8-1.97-.8-3.36,0-1.6.38-2.99,1.14-4.18.76-1.19,1.82-2.11,3.18-2.76,1.36-.65,2.96-.98,4.8-.98,1.6,0,3.04.25,4.32.76,1.28.51,2.33,1.23,3.16,2.16l-1.72,1.76c-.77-.8-1.63-1.4-2.58-1.8-.95-.4-2.01-.6-3.18-.6-1.95,0-3.51.5-4.7,1.5-1.19,1-1.78,2.3-1.78,3.9,0,1.09.27,1.96.82,2.6.55.64,1.25,1.15,2.12,1.52.87.37,1.83.7,2.9.98,1.07.28,2.13.58,3.18.9,1.05.32,2.02.75,2.9,1.28.88.53,1.59,1.25,2.14,2.14.55.89.82,2.07.82,3.54,0,1.68-.4,3.14-1.2,4.38-.8,1.24-1.91,2.19-3.32,2.86-1.41.67-3.05,1-4.92,1Z"/>
    <path class="cls-2" d="M136.68,87.01c-1.81,0-3.43-.42-4.84-1.26-1.41-.84-2.52-2-3.32-3.48-.8-1.48-1.2-3.19-1.2-5.14v-.36c0-1.89.4-3.57,1.2-5.02s1.91-2.59,3.32-3.42c1.41-.83,3.03-1.24,4.84-1.24s3.39.41,4.8,1.22c1.41.81,2.52,1.95,3.32,3.4.8,1.45,1.2,3.11,1.2,4.98v.44c0,1.95-.4,3.66-1.2,5.14-.8,1.48-1.91,2.64-3.32,3.48-1.41.84-3.01,1.26-4.8,1.26ZM136.68,84.72c1.33,0,2.51-.33,3.54-.98,1.03-.65,1.83-1.55,2.4-2.68.57-1.13.86-2.45.86-3.94v-.44c0-1.44-.29-2.71-.86-3.8-.57-1.09-1.37-1.95-2.4-2.58-1.03-.63-2.21-.94-3.54-.94s-2.51.32-3.54.96c-1.03.64-1.83,1.51-2.42,2.62-.59,1.11-.88,2.38-.88,3.82v.36c0,1.49.29,2.81.88,3.94.59,1.13,1.39,2.03,2.42,2.68,1.03.65,2.21.98,3.54.98Z"/>
    <path class="cls-2" d="M159.4,87.01c-1.89,0-3.57-.41-5.02-1.24-1.45-.83-2.6-1.97-3.44-3.44-.84-1.47-1.26-3.15-1.26-5.04v-.52c0-1.89.42-3.57,1.26-5.02.84-1.45,1.99-2.59,3.44-3.42,1.45-.83,3.13-1.24,5.02-1.24,1.39,0,2.64.24,3.76.72,1.12.48,2.08,1.17,2.88,2.08l-1.6,1.6c-.64-.64-1.38-1.14-2.22-1.5-.84-.36-1.79-.54-2.86-.54-1.36,0-2.59.31-3.68.92-1.09.61-1.95,1.47-2.56,2.58-.61,1.11-.92,2.38-.92,3.82v.52c0,1.47.31,2.75.94,3.84s1.48,1.95,2.56,2.58,2.31.94,3.7.94c1.04,0,1.99-.17,2.84-.5.85-.33,1.61-.85,2.28-1.54l1.56,1.6c-.8.88-1.77,1.57-2.9,2.06-1.13.49-2.39.74-3.78.74Z"/>
    <path class="cls-2" d="M171.92,86.6v-18l1.16,1.12h-4.96v-2.24h6.36v19.12h-2.56ZM171.84,63.09v-4.32h2.72v4.32h-2.72Z"/>
    <path class="cls-2" d="M186.64,87.01c-2.24,0-4.02-.51-5.34-1.54-1.32-1.03-1.98-2.38-1.98-4.06,0-1.09.29-2.07.88-2.94.59-.87,1.45-1.55,2.6-2.06,1.15-.51,2.52-.76,4.12-.76,2.21,0,3.93.49,5.14,1.48,1.21.99,1.82,2.29,1.82,3.92h-.48c0,1.87-.56,3.33-1.68,4.38-1.12,1.05-2.81,1.58-5.08,1.58ZM192.52,86.6l-.04-6.96-.28-.76v-4.68c0-1.65-.41-2.87-1.24-3.64-.83-.77-2.03-1.16-3.6-1.16-1.04,0-2.11.2-3.22.6-1.11.4-2.07,1.01-2.9,1.84l-1.24-1.8c.91-.99,2.02-1.73,3.34-2.22,1.32-.49,2.69-.74,4.1-.74s2.71.26,3.8.78c1.09.52,1.95,1.3,2.56,2.34.61,1.04.92,2.36.92,3.96v6.08c0,1.07,0,2.13.02,3.18.01,1.05.05,2.11.1,3.18h-2.32ZM187.12,85.05c1.6,0,2.85-.34,3.74-1.02.89-.68,1.34-1.57,1.34-2.66s-.45-2.01-1.34-2.66c-.89-.65-2.15-.98-3.78-.98s-2.87.33-3.8.98c-.93.65-1.4,1.54-1.4,2.66s.47,1.98,1.4,2.66c.93.68,2.21,1.02,3.84,1.02Z"/>
    <path class="cls-2" d="M205.68,86.6c-1.44,0-2.61-.43-3.52-1.28-.91-.85-1.36-1.99-1.36-3.4v-23.44l1.12,1.12h-4.8v-2.2h6.24v24.56c0,.69.23,1.27.68,1.74.45.47,1.04.7,1.76.7h1.72v2.2h-1.84Z"/>
    <path class="cls-2" d="M220.84,86.6v-28h3.56l9.28,18.68h-1.2l9.24-18.68h3.56v28h-2.6v-26.24h.84l-9.36,19.2h-2.2l-9.32-19.2h.84v26.24h-2.64Z"/>
    <path class="cls-2" d="M259.88,87.01c-1.87,0-3.52-.42-4.96-1.26-1.44-.84-2.56-2-3.36-3.48-.8-1.48-1.2-3.19-1.2-5.14v-.4c0-1.87.37-3.52,1.1-4.96.73-1.44,1.77-2.58,3.12-3.42,1.35-.84,2.89-1.26,4.62-1.26s3.32.44,4.6,1.32c1.28.88,2.23,2.12,2.84,3.72.61,1.6.79,3.47.52,5.6h-14.96v-2.12h13.6l-1.12,1.12c.19-1.52.07-2.83-.36-3.94-.43-1.11-1.08-1.96-1.96-2.56-.88-.6-1.92-.9-3.12-.9-1.31,0-2.43.31-3.38.94-.95.63-1.68,1.49-2.2,2.6-.52,1.11-.78,2.39-.78,3.86v.4c0,1.47.29,2.77.88,3.9.59,1.13,1.41,2.02,2.48,2.66,1.07.64,2.32.96,3.76.96,1.01,0,1.94-.13,2.78-.4.84-.27,1.55-.65,2.14-1.16l1.44,1.64c-.72.72-1.64,1.28-2.76,1.68-1.12.4-2.36.6-3.72.6Z"/>
    <path class="cls-2" d="M279.72,87.01c-1.73,0-3.28-.42-4.64-1.26-1.36-.84-2.42-2-3.18-3.48-.76-1.48-1.14-3.19-1.14-5.14v-.36c0-1.89.39-3.57,1.16-5.02.77-1.45,1.83-2.59,3.18-3.42,1.35-.83,2.89-1.24,4.62-1.24s3.25.45,4.56,1.36c1.31.91,2.29,2.12,2.96,3.64l-.48.6v-15.28h2.56v29.2h-2.32v-5.36l.44.52c-.69,1.63-1.71,2.91-3.04,3.84-1.33.93-2.89,1.4-4.68,1.4ZM280.04,84.72c1.33,0,2.52-.32,3.56-.96,1.04-.64,1.85-1.54,2.44-2.7.59-1.16.88-2.5.88-4.02s-.29-2.85-.88-4c-.59-1.15-1.4-2.05-2.44-2.7-1.04-.65-2.23-.98-3.56-.98s-2.47.31-3.5.94c-1.03.63-1.82,1.49-2.38,2.6-.56,1.11-.84,2.39-.84,3.86v.36c0,1.52.28,2.85.84,3.98.56,1.13,1.35,2.02,2.38,2.66,1.03.64,2.19.96,3.5.96Z"/>
    <path class="cls-2" d="M297.08,86.6v-18l1.16,1.12h-4.96v-2.24h6.36v19.12h-2.56ZM297,63.09v-4.32h2.72v4.32h-2.72Z"/>
    <path class="cls-2" d="M311.8,87.01c-2.24,0-4.02-.51-5.34-1.54s-1.98-2.38-1.98-4.06c0-1.09.29-2.07.88-2.94.59-.87,1.45-1.55,2.6-2.06,1.15-.51,2.52-.76,4.12-.76,2.21,0,3.93.49,5.14,1.48,1.21.99,1.82,2.29,1.82,3.92h-.48c0,1.87-.56,3.33-1.68,4.38-1.12,1.05-2.81,1.58-5.08,1.58ZM317.68,86.6l-.04-6.96-.28-.76v-4.68c0-1.65-.41-2.87-1.24-3.64-.83-.77-2.03-1.16-3.6-1.16-1.04,0-2.11.2-3.22.6-1.11.4-2.07,1.01-2.9,1.84l-1.24-1.8c.91-.99,2.02-1.73,3.34-2.22,1.32-.49,2.69-.74,4.1-.74s2.71.26,3.8.78c1.09.52,1.95,1.3,2.56,2.34.61,1.04.92,2.36.92,3.96v6.08c0,1.07,0,2.13.02,3.18.01,1.05.05,2.11.1,3.18h-2.32ZM312.28,85.05c1.6,0,2.85-.34,3.74-1.02.89-.68,1.34-1.57,1.34-2.66s-.45-2.01-1.34-2.66-2.15-.98-3.78-.98-2.87.33-3.8.98-1.4,1.54-1.4,2.66.47,1.98,1.4,2.66c.93.68,2.21,1.02,3.84,1.02Z"/>
    <path class="cls-2" d="M.52,101.05v-2.44h20.04v2.44H.52ZM9.2,126.6v-26.84h2.68v26.84h-2.68Z"/>
    <path class="cls-2" d="M28.72,127.01c-1.87,0-3.52-.42-4.96-1.26-1.44-.84-2.56-2-3.36-3.48-.8-1.48-1.2-3.19-1.2-5.14v-.4c0-1.87.37-3.52,1.1-4.96.73-1.44,1.77-2.58,3.12-3.42,1.35-.84,2.89-1.26,4.62-1.26s3.32.44,4.6,1.32c1.28.88,2.23,2.12,2.84,3.72.61,1.6.79,3.47.52,5.6h-14.96v-2.12h13.6l-1.12,1.12c.19-1.52.07-2.83-.36-3.94-.43-1.11-1.08-1.96-1.96-2.56-.88-.6-1.92-.9-3.12-.9-1.31,0-2.43.31-3.38.94-.95.63-1.68,1.49-2.2,2.6-.52,1.11-.78,2.39-.78,3.86v.4c0,1.47.29,2.77.88,3.9.59,1.13,1.41,2.02,2.48,2.66,1.07.64,2.32.96,3.76.96,1.01,0,1.94-.13,2.78-.4.84-.27,1.55-.65,2.14-1.16l1.44,1.64c-.72.72-1.64,1.28-2.76,1.68-1.12.4-2.36.6-3.72.6Z"/>
    <path class="cls-2" d="M46.72,127.01c-2.24,0-4.02-.51-5.34-1.54-1.32-1.03-1.98-2.38-1.98-4.06,0-1.09.29-2.07.88-2.94.59-.87,1.45-1.55,2.6-2.06,1.15-.51,2.52-.76,4.12-.76,2.21,0,3.93.49,5.14,1.48,1.21.99,1.82,2.29,1.82,3.92h-.48c0,1.87-.56,3.33-1.68,4.38s-2.81,1.58-5.08,1.58ZM52.6,126.6l-.04-6.96-.28-.76v-4.68c0-1.65-.41-2.87-1.24-3.64s-2.03-1.16-3.6-1.16c-1.04,0-2.11.2-3.22.6-1.11.4-2.07,1.01-2.9,1.84l-1.24-1.8c.91-.99,2.02-1.73,3.34-2.22,1.32-.49,2.69-.74,4.1-.74s2.71.26,3.8.78c1.09.52,1.95,1.3,2.56,2.34.61,1.04.92,2.36.92,3.96v6.08c0,1.07,0,2.13.02,3.18.01,1.05.05,2.11.1,3.18h-2.32ZM47.2,125.05c1.6,0,2.85-.34,3.74-1.02.89-.68,1.34-1.57,1.34-2.66s-.45-2.01-1.34-2.66c-.89-.65-2.15-.98-3.78-.98s-2.87.33-3.8.98c-.93.65-1.4,1.54-1.4,2.66s.47,1.98,1.4,2.66c.93.68,2.21,1.02,3.84,1.02Z"/>
    <path class="cls-2" d="M60.92,126.6v-19.12h2.44v4.92l-.6-.04c.4-1.33.97-2.38,1.72-3.14.75-.76,1.58-1.31,2.5-1.64.92-.33,1.82-.5,2.7-.5,1.68,0,3.1.44,4.26,1.32,1.16.88,1.94,2.24,2.34,4.08h-.92c.45-1.39,1.09-2.47,1.9-3.26.81-.79,1.7-1.34,2.66-1.66s1.87-.48,2.72-.48c2.11,0,3.8.67,5.08,2.02,1.28,1.35,1.92,3.43,1.92,6.26v11.24h-2.48v-10.96c0-2.21-.47-3.8-1.4-4.76-.93-.96-2.16-1.44-3.68-1.44s-2.85.53-3.92,1.58c-1.07,1.05-1.6,2.58-1.6,4.58v11h-2.52v-10.96c0-2.21-.46-3.8-1.38-4.76s-2.14-1.44-3.66-1.44-2.89.53-3.96,1.58c-1.07,1.05-1.6,2.58-1.6,4.58v11h-2.52Z"/>
  </g>
  <g id="Layer_1-2" data-name="Layer 1">
    <path class="cls-1" d="M87.59,14.16c-.58-.6-1.54-.6-2.13,0-.66.65-.58,1.78.24,2.32.5.33,1.16.33,1.66,0,.81-.54.89-1.67.24-2.32M85.64,9.04c-4.02-.94-7.63,2.67-6.69,6.69.48,2.05,2.1,3.67,4.15,4.15,4.02.95,7.63-2.67,6.69-6.69-.48-2.05-2.11-3.67-4.15-4.15M59.1,31.68c-2.62-.97-3.63-.78-6.98-.73-2.32.03-2.41-.05-5.06-.05-.82,0-1.12,3.92,1.84,4.74,1.3.36,2.7.58,3.67,1.58.43.44.68,1.1-.32,1.1h-7.35c-1.29,0-2.5.03-3.49-.8-1.49-1.25-2.18-2.98-2.92-4.69-.77-1.78-1.6-3.53-2.58-5.21-1.94-3.34-4.51-6.36-7.95-8.2-4.3-2.31-11.6-3.45-17.38.99-6.09,4.68-4.78,13.44.54,17.72,2.1,1.69,4.85,2.4,7.54,2.24,5.27-.31,9.15-4.19,8.19-8.97-.32-1.6-1.25-3.11-2.66-3.94-1-.58-2.18-.79-3.34-.8-1.24,0-2.57.25-3.46,1.12-1.06,1.02-1.23,2.83-.38,4.04.47.67,1.23,1.23,1.1,2.1-.09.59-.57,1.03-1.16,1.16-.99.22-1.89-.34-2.56-1.03-1.71-1.76-2.25-4.57-1.31-6.84,1.23-2.97,4.66-4.61,7.88-4.5,4.15.14,8.06,2.87,9.75,6.66,1.7,3.79,1.19,8.43-1.15,11.86-5.21,7.61-18.07,6.71-24.04.29C1.78,37.49-.26,33.59.03,26.31c.2-5.14,3.17-10.21,6.95-13.77C13.14,6.73,21.25,2.76,29.51,1.05,34.53.02,39.7-.23,44.79.28c4.49.45,8.95,1.27,13.27,2.61,2.14.67,4.25,1.46,6.29,2.39,1.8.83,4.15,1.73,5.55,3.15,0-2.58-.1-5.42-.1-7.39,0-.75.79-1.26,1.47-.94,2.92,1.36,9.84,4.62,14.45,6.73,6.18,2.82,6.62,9.49,6.84,15.4,0,.13.01.27-.05.38-.2.41-1.24.3-1.62.3-.74,0-1.86,0-2.59.03-1.48.07-2.91.04-4.39-.03-2.73-.13-5.37-1.35-7.14-2.83-.17-.15-.75-.31-1.01-.03-.28.29-.18.74-.03.89,1.01,1.02,2.11,1.68,3.39,2.34,1.62.83,3.39,1.04,5.19,1.15,1.92.11,3.86.09,5.78-.11,1.6-.16,2.01-.27.43.9-1.39,1.03-3,1.77-4.63,2.32-2.34.8-4.82,1.19-7.29,1.26-1.5.04-2.99-.04-4.48-.23-.77-.1-1.53-.24-2.3-.31-.63-.06-1.27-.18-1.9-.05-.57.12-1.09.43-1.45.89-.49.64-.66,2.39-.37,3.15.55,1.47,1.74,2.33,3.01,3.08,1.37.82,3.18,1.09,3.53,2.65.07.32-2.84.33-3.17.33h-3.88s-2.11.05-2.93-.25c-.03,0-.05-.02-.07-.03-.45-.24-.64-.84-.79-1.29-.22-.64-.6-1.28-1.06-1.94-.88-1.25-2.22-2.62-3.62-3.14M88.48,14.46c0,2.27-1.84,4.12-4.11,4.12s-4.11-1.84-4.11-4.12,1.84-4.11,4.11-4.11,4.11,1.84,4.11,4.11"/>
  </g>
</svg>