<?xml version="1.0" encoding="UTF-8"?>
<svg id="Layer_2" data-name="Layer 2" xmlns="http://www.w3.org/2000/svg" viewBox="0 0 291.87 167.03">
  <defs>
    <style>
      .cls-1 {
        fill: #30ba78;
      }

      .cls-1, .cls-2 {
        stroke-width: 0px;
      }

      .cls-2 {
        fill: #efefef;
      }
    </style>
  </defs>
  <g id="Layer_1-2" data-name="Layer 1">
    <g>
      <g>
        <path class="cls-2" d="m10.11,81.99c-2.08,0-3.89-.39-5.44-1.16-1.55-.77-2.87-1.8-3.96-3.08l3.04-3.04c1.09,1.12,2.16,1.92,3.2,2.4,1.04.48,2.15.72,3.32.72,1.57,0,2.81-.37,3.7-1.1s1.34-1.69,1.34-2.86c0-.91-.25-1.65-.76-2.22-.51-.57-1.17-1.04-2-1.4-.83-.36-1.74-.68-2.74-.96-1-.28-1.99-.59-2.98-.94-.99-.35-1.89-.8-2.72-1.36-.83-.56-1.49-1.29-2-2.2-.51-.91-.76-2.04-.76-3.4,0-1.76.4-3.27,1.2-4.54s1.94-2.25,3.42-2.94c1.48-.69,3.19-1.04,5.14-1.04,1.81,0,3.45.32,4.9.96,1.45.64,2.65,1.49,3.58,2.56l-3.12,3.12c-.8-.83-1.63-1.45-2.48-1.86-.85-.41-1.83-.62-2.92-.62-1.47,0-2.64.35-3.52,1.06-.88.71-1.32,1.65-1.32,2.82,0,.85.25,1.55.76,2.08.51.53,1.18.95,2.02,1.26.84.31,1.76.59,2.76.84,1,.25,2.01.55,3.02.9,1.01.35,1.93.8,2.76,1.36.83.56,1.49,1.31,2,2.24.51.93.76,2.12.76,3.56,0,1.79-.43,3.34-1.28,4.66s-2.05,2.35-3.58,3.08c-1.53.73-3.31,1.1-5.34,1.1Z"/>
        <path class="cls-2" d="m35.47,81.99c-3.28,0-5.91-.85-7.88-2.54-1.97-1.69-2.96-4.26-2.96-7.7v-18.32h4.92v17.92c0,2.03.53,3.55,1.6,4.56,1.07,1.01,2.51,1.52,4.32,1.52s3.26-.51,4.34-1.52c1.08-1.01,1.62-2.53,1.62-4.56v-17.92h4.92v18.32c0,2.27-.45,4.16-1.36,5.68-.91,1.52-2.17,2.66-3.8,3.42-1.63.76-3.53,1.14-5.72,1.14Z"/>
        <path class="cls-2" d="m59.87,81.99c-2.08,0-3.89-.39-5.44-1.16-1.55-.77-2.87-1.8-3.96-3.08l3.04-3.04c1.09,1.12,2.16,1.92,3.2,2.4,1.04.48,2.15.72,3.32.72,1.57,0,2.81-.37,3.7-1.1s1.34-1.69,1.34-2.86c0-.91-.25-1.65-.76-2.22-.51-.57-1.17-1.04-2-1.4-.83-.36-1.74-.68-2.74-.96-1-.28-1.99-.59-2.98-.94-.99-.35-1.89-.8-2.72-1.36-.83-.56-1.49-1.29-2-2.2-.51-.91-.76-2.04-.76-3.4,0-1.76.4-3.27,1.2-4.54s1.94-2.25,3.42-2.94c1.48-.69,3.19-1.04,5.14-1.04,1.81,0,3.45.32,4.9.96,1.45.64,2.65,1.49,3.58,2.56l-3.12,3.12c-.8-.83-1.63-1.45-2.48-1.86-.85-.41-1.83-.62-2.92-.62-1.47,0-2.64.35-3.52,1.06-.88.71-1.32,1.65-1.32,2.82,0,.85.25,1.55.76,2.08.51.53,1.18.95,2.02,1.26.84.31,1.76.59,2.76.84,1,.25,2.01.55,3.02.9,1.01.35,1.93.8,2.76,1.36.83.56,1.49,1.31,2,2.24.51.93.76,2.12.76,3.56,0,1.79-.43,3.34-1.28,4.66s-2.05,2.35-3.58,3.08c-1.53.73-3.31,1.1-5.34,1.1Z"/>
        <path class="cls-2" d="m79.03,81.43c-1.36,0-2.47-.44-3.34-1.32s-1.3-2-1.3-3.36v-18.64c0-1.36.43-2.48,1.3-3.36.87-.88,1.98-1.32,3.34-1.32h13.64v4.48h-12c-.4,0-.74.14-1.02.42-.28.28-.42.62-.42,1.02v16.16c0,.4.14.74.42,1.02.28.28.62.42,1.02.42h12v4.48h-13.64Zm-2.28-11.92v-4.28h15.08v4.28h-15.08Z"/>
        <path class="cls-2" d="m111.47,81.43c-1.25,0-2.29-.41-3.1-1.24-.81-.83-1.22-1.85-1.22-3.08v-23.68h2.64v23c0,.72.24,1.31.72,1.76.48.45,1.07.68,1.76.68h11.12v2.56h-11.92Z"/>
        <path class="cls-2" d="m127.59,81.43v-18l1.16,1.12h-4.96v-2.24h6.36v19.12h-2.56Zm-.08-23.52v-4.32h2.72v4.32h-2.72Z"/>
        <path class="cls-2" d="m136.47,81.43v-19.12h2.44v5.12h-.68c.29-1.07.71-1.95,1.26-2.66.55-.71,1.17-1.27,1.86-1.7.69-.43,1.4-.73,2.12-.9.72-.17,1.4-.26,2.04-.26,2.16,0,3.92.69,5.28,2.06,1.36,1.37,2.04,3.47,2.04,6.3v11.16h-2.56v-10.84c0-2.24-.51-3.85-1.52-4.84-1.01-.99-2.29-1.48-3.84-1.48-1.07,0-2.04.24-2.92.72-.88.48-1.59,1.19-2.14,2.12-.55.93-.82,2.11-.82,3.52v10.8h-2.56Z"/>
        <path class="cls-2" d="m165.99,81.83c-1.41,0-2.68-.27-3.8-.82-1.12-.55-2-1.4-2.64-2.56-.64-1.16-.96-2.69-.96-4.58v-11.56h2.52v11.16c0,1.49.23,2.68.7,3.56s1.1,1.51,1.9,1.88c.8.37,1.71.56,2.72.56s2-.23,2.88-.7c.88-.47,1.59-1.17,2.14-2.1.55-.93.82-2.09.82-3.48v-10.88h2.48v19.12h-2.24v-5.12h.72c-.29,1.04-.71,1.91-1.24,2.62-.53.71-1.15,1.27-1.84,1.7-.69.43-1.4.73-2.12.92-.72.19-1.4.28-2.04.28Z"/>
        <path class="cls-2" d="m178.63,81.43l6.92-9.52-6.72-9.6h3l5.4,8,5.44-8h2.92l-6.72,9.6,6.88,9.52h-3.04l-5.56-7.88-5.52,7.88h-3Z"/>
        <path class="cls-2" d="m7.23,121.43c-1.25,0-2.29-.41-3.12-1.24-.83-.83-1.24-1.85-1.24-3.08v-19.36c0-1.23.41-2.25,1.24-3.08.83-.83,1.87-1.24,3.12-1.24h12.52v2.44H7.99c-.72,0-1.31.24-1.78.72-.47.48-.7,1.07-.7,1.76v18.16c0,.69.23,1.28.7,1.76.47.48,1.06.72,1.78.72h11.76v2.44H7.23Zm-2.96-12.84v-2.36h14.64v2.36H4.27Z"/>
        <path class="cls-2" d="m24.71,121.43v-19.12h2.44v5.12h-.68c.29-1.07.71-1.95,1.26-2.66.55-.71,1.17-1.27,1.86-1.7.69-.43,1.4-.73,2.12-.9.72-.17,1.4-.26,2.04-.26,2.16,0,3.92.69,5.28,2.06,1.36,1.37,2.04,3.47,2.04,6.3v11.16h-2.56v-10.84c0-2.24-.51-3.85-1.52-4.84-1.01-.99-2.29-1.48-3.84-1.48-1.07,0-2.04.24-2.92.72-.88.48-1.59,1.19-2.14,2.12-.55.93-.82,2.11-.82,3.52v10.8h-2.56Z"/>
        <path class="cls-2" d="m44.27,104.55v-2.24h11.4v2.24h-11.4Zm8.56,16.88c-.64,0-1.26-.09-1.86-.28s-1.13-.48-1.6-.88c-.47-.4-.83-.9-1.1-1.5s-.4-1.33-.4-2.18v-19.04h2.52v19.2c0,.72.24,1.31.72,1.78.48.47,1.05.7,1.72.7h2.84v2.2h-2.84Z"/>
        <path class="cls-2" d="m67.63,121.83c-1.87,0-3.52-.42-4.96-1.26-1.44-.84-2.56-2-3.36-3.48-.8-1.48-1.2-3.19-1.2-5.14v-.4c0-1.87.37-3.52,1.1-4.96.73-1.44,1.77-2.58,3.12-3.42,1.35-.84,2.89-1.26,4.62-1.26s3.32.44,4.6,1.32c1.28.88,2.23,2.12,2.84,3.72.61,1.6.79,3.47.52,5.6h-14.96v-2.12h13.6l-1.12,1.12c.19-1.52.07-2.83-.36-3.94-.43-1.11-1.08-1.96-1.96-2.56-.88-.6-1.92-.9-3.12-.9-1.31,0-2.43.31-3.38.94s-1.68,1.49-2.2,2.6c-.52,1.11-.78,2.39-.78,3.86v.4c0,1.47.29,2.77.88,3.9.59,1.13,1.41,2.02,2.48,2.66,1.07.64,2.32.96,3.76.96,1.01,0,1.94-.13,2.78-.4s1.55-.65,2.14-1.16l1.44,1.64c-.72.72-1.64,1.28-2.76,1.68s-2.36.6-3.72.6Z"/>
        <path class="cls-2" d="m79.83,121.43v-19.12h2.48v4.56l-.4-.04c.24-1.23.63-2.17,1.18-2.82.55-.65,1.21-1.11,2-1.36.79-.25,1.65-.38,2.58-.38h1.64v2.52h-1.84c-1.57,0-2.81.4-3.72,1.2-.91.8-1.36,2.08-1.36,3.84v11.6h-2.56Z"/>
        <path class="cls-2" d="m93.35,129.43v-27.12h2.4v5.28l-.44-.52c.67-1.57,1.67-2.83,3.02-3.76s2.89-1.4,4.62-1.4,3.27.41,4.62,1.24c1.35.83,2.41,1.97,3.18,3.42.77,1.45,1.16,3.13,1.16,5.02v.36c0,1.95-.38,3.66-1.14,5.14-.76,1.48-1.81,2.64-3.16,3.48s-2.9,1.26-4.66,1.26-3.22-.45-4.54-1.36c-1.32-.91-2.31-2.12-2.98-3.64l.48-.56v13.16h-2.56Zm9.28-9.88c1.31,0,2.47-.32,3.48-.96,1.01-.64,1.81-1.53,2.38-2.66s.86-2.46.86-3.98v-.36c0-1.47-.29-2.75-.86-3.86s-1.37-1.97-2.38-2.6c-1.01-.63-2.17-.94-3.48-.94s-2.48.33-3.52.98-1.86,1.55-2.46,2.7c-.6,1.15-.9,2.48-.9,4s.3,2.86.9,4.02,1.42,2.06,2.46,2.7c1.04.64,2.21.96,3.52.96Z"/>
        <path class="cls-2" d="m116.91,121.43v-19.12h2.48v4.56l-.4-.04c.24-1.23.63-2.17,1.18-2.82.55-.65,1.21-1.11,2-1.36.79-.25,1.65-.38,2.58-.38h1.64v2.52h-1.84c-1.57,0-2.81.4-3.72,1.2-.91.8-1.36,2.08-1.36,3.84v11.6h-2.56Z"/>
        <path class="cls-2" d="m131.87,121.43v-18l1.16,1.12h-4.96v-2.24h6.36v19.12h-2.56Zm-.08-23.52v-4.32h2.72v4.32h-2.72Z"/>
        <path class="cls-2" d="m145.83,121.79c-1.36,0-2.65-.21-3.86-.64-1.21-.43-2.19-1-2.94-1.72l1.16-1.76c.69.61,1.55,1.11,2.58,1.5s2.05.58,3.06.58c1.31,0,2.37-.31,3.2-.92.83-.61,1.24-1.43,1.24-2.44,0-.83-.26-1.47-.78-1.92-.52-.45-1.18-.8-1.98-1.04s-1.65-.47-2.54-.7-1.74-.52-2.54-.88c-.8-.36-1.45-.88-1.96-1.56-.51-.68-.76-1.61-.76-2.78,0-1.65.61-3,1.84-4.04s2.87-1.56,4.92-1.56c1.17,0,2.28.18,3.32.54,1.04.36,1.93.83,2.68,1.42l-1.16,1.8c-.67-.51-1.41-.91-2.24-1.22-.83-.31-1.71-.46-2.64-.46-1.25,0-2.28.31-3.08.92-.8.61-1.2,1.41-1.2,2.4,0,.83.25,1.46.76,1.9.51.44,1.17.79,1.98,1.04.81.25,1.67.49,2.58.72.91.23,1.77.53,2.58.9.81.37,1.47.91,1.98,1.6.51.69.76,1.64.76,2.84,0,1.07-.29,2.01-.88,2.84-.59.83-1.41,1.47-2.46,1.94-1.05.47-2.26.7-3.62.7Z"/>
        <path class="cls-2" d="m165.83,121.83c-1.87,0-3.52-.42-4.96-1.26-1.44-.84-2.56-2-3.36-3.48-.8-1.48-1.2-3.19-1.2-5.14v-.4c0-1.87.37-3.52,1.1-4.96.73-1.44,1.77-2.58,3.12-3.42,1.35-.84,2.89-1.26,4.62-1.26s3.32.44,4.6,1.32c1.28.88,2.23,2.12,2.84,3.72.61,1.6.79,3.47.52,5.6h-14.96v-2.12h13.6l-1.12,1.12c.19-1.52.07-2.83-.36-3.94-.43-1.11-1.08-1.96-1.96-2.56-.88-.6-1.92-.9-3.12-.9-1.31,0-2.43.31-3.38.94s-1.68,1.49-2.2,2.6c-.52,1.11-.78,2.39-.78,3.86v.4c0,1.47.29,2.77.88,3.9.59,1.13,1.41,2.02,2.48,2.66,1.07.64,2.32.96,3.76.96,1.01,0,1.94-.13,2.78-.4s1.55-.65,2.14-1.16l1.44,1.64c-.72.72-1.64,1.28-2.76,1.68s-2.36.6-3.72.6Z"/>
        <path class="cls-2" d="m194.71,121.87c-1.89,0-3.57-.34-5.02-1.02s-2.66-1.61-3.62-2.78l1.68-1.72c.93,1.07,1.99,1.87,3.18,2.42,1.19.55,2.49.82,3.9.82,2.03,0,3.63-.52,4.8-1.56,1.17-1.04,1.76-2.39,1.76-4.04,0-1.15-.27-2.07-.8-2.76-.53-.69-1.24-1.25-2.12-1.66-.88-.41-1.84-.77-2.88-1.06s-2.09-.6-3.14-.92c-1.05-.32-2.02-.74-2.9-1.26-.88-.52-1.59-1.21-2.12-2.06-.53-.85-.8-1.97-.8-3.36,0-1.6.38-2.99,1.14-4.18s1.82-2.11,3.18-2.76c1.36-.65,2.96-.98,4.8-.98,1.6,0,3.04.25,4.32.76,1.28.51,2.33,1.23,3.16,2.16l-1.72,1.76c-.77-.8-1.63-1.4-2.58-1.8-.95-.4-2.01-.6-3.18-.6-1.95,0-3.51.5-4.7,1.5-1.19,1-1.78,2.3-1.78,3.9,0,1.09.27,1.96.82,2.6.55.64,1.25,1.15,2.12,1.52.87.37,1.83.7,2.9.98s2.13.58,3.18.9c1.05.32,2.02.75,2.9,1.28.88.53,1.59,1.25,2.14,2.14.55.89.82,2.07.82,3.54,0,1.68-.4,3.14-1.2,4.38-.8,1.24-1.91,2.19-3.32,2.86-1.41.67-3.05,1-4.92,1Z"/>
        <path class="cls-2" d="m217.19,121.83c-1.87,0-3.52-.42-4.96-1.26-1.44-.84-2.56-2-3.36-3.48-.8-1.48-1.2-3.19-1.2-5.14v-.4c0-1.87.37-3.52,1.1-4.96.73-1.44,1.77-2.58,3.12-3.42,1.35-.84,2.89-1.26,4.62-1.26s3.32.44,4.6,1.32c1.28.88,2.23,2.12,2.84,3.72.61,1.6.79,3.47.52,5.6h-14.96v-2.12h13.6l-1.12,1.12c.19-1.52.07-2.83-.36-3.94-.43-1.11-1.08-1.96-1.96-2.56-.88-.6-1.92-.9-3.12-.9-1.31,0-2.43.31-3.38.94s-1.68,1.49-2.2,2.6c-.52,1.11-.78,2.39-.78,3.86v.4c0,1.47.29,2.77.88,3.9.59,1.13,1.41,2.02,2.48,2.66,1.07.64,2.32.96,3.76.96,1.01,0,1.94-.13,2.78-.4s1.55-.65,2.14-1.16l1.44,1.64c-.72.72-1.64,1.28-2.76,1.68s-2.36.6-3.72.6Z"/>
        <path class="cls-2" d="m229.39,121.43v-19.12h2.48v4.56l-.4-.04c.24-1.23.63-2.17,1.18-2.82.55-.65,1.21-1.11,2-1.36.79-.25,1.65-.38,2.58-.38h1.64v2.52h-1.84c-1.57,0-2.81.4-3.72,1.2-.91.8-1.36,2.08-1.36,3.84v11.6h-2.56Z"/>
        <path class="cls-2" d="m248.07,121.43l-7.72-19.12h2.64l6.92,17.4h-1l6.92-17.4h2.64l-7.72,19.12h-2.68Z"/>
        <path class="cls-2" d="m270.19,121.83c-1.87,0-3.52-.42-4.96-1.26-1.44-.84-2.56-2-3.36-3.48-.8-1.48-1.2-3.19-1.2-5.14v-.4c0-1.87.37-3.52,1.1-4.96.73-1.44,1.77-2.58,3.12-3.42,1.35-.84,2.89-1.26,4.62-1.26s3.32.44,4.6,1.32c1.28.88,2.23,2.12,2.84,3.72.61,1.6.79,3.47.52,5.6h-14.96v-2.12h13.6l-1.12,1.12c.19-1.52.07-2.83-.36-3.94-.43-1.11-1.08-1.96-1.96-2.56-.88-.6-1.92-.9-3.12-.9-1.31,0-2.43.31-3.38.94s-1.68,1.49-2.2,2.6c-.52,1.11-.78,2.39-.78,3.86v.4c0,1.47.29,2.77.88,3.9.59,1.13,1.41,2.02,2.48,2.66,1.07.64,2.32.96,3.76.96,1.01,0,1.94-.13,2.78-.4s1.55-.65,2.14-1.16l1.44,1.64c-.72.72-1.64,1.28-2.76,1.68s-2.36.6-3.72.6Z"/>
        <path class="cls-2" d="m282.39,121.43v-19.12h2.48v4.56l-.4-.04c.24-1.23.63-2.17,1.18-2.82.55-.65,1.21-1.11,2-1.36.79-.25,1.65-.38,2.58-.38h1.64v2.52h-1.84c-1.57,0-2.81.4-3.72,1.2-.91.8-1.36,2.08-1.36,3.84v11.6h-2.56Z"/>
      </g>
      <g>
        <path class="cls-2" d="m0,149v-.78h7.81v.78H0Zm2.69,12.43v-17.47c0-.88.28-1.59.85-2.14.57-.55,1.28-.83,2.14-.83h2.13v.76h-2.13c-.63,0-1.16.21-1.57.62s-.62.93-.62,1.57v17.5h-.81Z"/>
        <path class="cls-2" d="m15.09,161.71c-1.21,0-2.29-.29-3.23-.88s-1.68-1.39-2.21-2.42c-.53-1.03-.8-2.21-.8-3.56v-.22c0-1.31.27-2.46.8-3.47s1.27-1.8,2.21-2.37c.94-.57,2.02-.85,3.23-.85s2.29.28,3.22.84,1.67,1.34,2.2,2.34c.53,1,.8,2.14.8,3.43v.31c0,1.34-.27,2.53-.8,3.56-.53,1.03-1.26,1.83-2.2,2.42s-2.01.88-3.22.88Zm0-.76c1.06,0,2-.26,2.81-.78.81-.52,1.45-1.24,1.9-2.16.46-.92.69-1.97.69-3.16v-.31c0-1.16-.23-2.17-.69-3.04-.46-.87-1.09-1.55-1.9-2.04-.81-.49-1.75-.74-2.81-.74s-1.98.25-2.8.76c-.82.5-1.47,1.2-1.93,2.09s-.7,1.91-.7,3.07v.22c0,1.19.23,2.25.7,3.16s1.11,1.63,1.93,2.16c.82.52,1.75.78,2.8.78Z"/>
        <path class="cls-2" d="m25.23,161.43v-13.22h.78v2.69l-.17-.06c.22-.71.53-1.25.92-1.62.39-.37.85-.63,1.37-.78s1.08-.22,1.68-.22h1.2v.81h-1.23c-1.16,0-2.07.31-2.74.94-.67.62-1.01,1.65-1.01,3.07v8.4h-.81Z"/>
        <path class="cls-2" d="m45.05,161.71c-1.23,0-2.34-.22-3.32-.66-.98-.44-1.78-1.05-2.39-1.83l.53-.59c.6.75,1.34,1.32,2.24,1.72.9.4,1.89.6,2.97.6,1.64,0,2.94-.43,3.91-1.29.96-.86,1.44-1.99,1.44-3.39,0-.9-.2-1.62-.59-2.17s-.91-.98-1.54-1.3-1.33-.58-2.09-.78c-.76-.21-1.52-.41-2.28-.62-.77-.21-1.47-.48-2.1-.83-.63-.34-1.15-.81-1.54-1.4-.39-.59-.59-1.36-.59-2.31,0-1.08.25-2.02.76-2.81s1.21-1.41,2.13-1.85c.91-.44,1.99-.66,3.22-.66,1.03,0,1.94.15,2.74.46.8.31,1.46.75,1.99,1.33l-.53.59c-.52-.54-1.13-.95-1.83-1.22s-1.5-.41-2.39-.41c-1.59,0-2.86.42-3.82,1.25-.96.83-1.44,1.91-1.44,3.23,0,.86.2,1.54.59,2.06.39.51.91.91,1.54,1.2.63.29,1.33.53,2.1.73.76.2,1.53.4,2.3.62.76.21,1.46.5,2.1.87.63.36,1.15.85,1.54,1.47s.59,1.44.59,2.46c0,1.14-.26,2.12-.78,2.95-.52.83-1.25,1.47-2.18,1.9s-2.02.66-3.25.66Z"/>
        <path class="cls-2" d="m52.7,161.43l7.87-19.6h.87l7.9,19.6h-.87l-7.56-18.9h.25l-7.62,18.9h-.84Zm2.97-6.13l.34-.78h10.02l.34.78h-10.7Z"/>
        <path class="cls-2" d="m72.63,161.43v-19.6h5.32c1.19,0,2.24.21,3.15.64s1.62,1.05,2.13,1.88c.51.82.77,1.82.77,3s-.26,2.15-.77,2.98c-.51.83-1.22,1.46-2.13,1.89s-1.96.64-3.15.64h-4.93v-.76h4.96c1.51,0,2.76-.42,3.74-1.26.98-.84,1.47-2.01,1.47-3.5s-.49-2.66-1.47-3.49c-.98-.83-2.23-1.25-3.74-1.25h-4.9l.36-.36v19.18h-.81Z"/>
        <path class="cls-2" d="m92.99,153.23c-1.16,0-2.21-.26-3.15-.78s-1.69-1.25-2.24-2.2c-.55-.94-.83-2.04-.83-3.29s.27-2.34.83-3.28,1.3-1.66,2.24-2.18c.94-.52,1.99-.78,3.15-.78s2.2.26,3.14.78c.93.52,1.68,1.25,2.24,2.18.56.93.84,2.03.84,3.28s-.28,2.35-.84,3.29c-.56.94-1.31,1.68-2.24,2.2s-1.98.78-3.14.78Zm0-.59c1.03,0,1.96-.23,2.81-.7s1.53-1.13,2.04-1.99c.51-.86.77-1.86.77-3s-.26-2.13-.77-2.98-1.19-1.51-2.04-1.99-1.79-.71-2.81-.71-1.97.24-2.83.71-1.54,1.14-2.06,1.99c-.51.85-.77,1.84-.77,2.98s.26,2.14.77,3c.51.86,1.2,1.52,2.06,1.99s1.8.7,2.83.7Zm-1.82-2.63v-6.24h1.9c.65,0,1.18.16,1.6.49.41.33.62.78.62,1.36,0,.63-.21,1.12-.62,1.47-.41.35-.94.52-1.6.52h-1.62v-.5h1.6c.49,0,.88-.13,1.18-.38s.45-.61.45-1.08-.15-.78-.45-.99-.69-.32-1.18-.32h-1.57l.28-.25v5.94h-.59Zm3.58,0l-1.79-2.74h.67l1.82,2.74h-.7Z"/>
        <path class="cls-2" d="m113.62,161.71c-1.53,0-2.75-.35-3.67-1.05s-1.37-1.62-1.37-2.76c0-.75.2-1.4.6-1.96.4-.56.98-1,1.75-1.32.76-.32,1.67-.48,2.72-.48,1.57,0,2.76.34,3.58,1.02s1.23,1.57,1.23,2.67h-.08c0,1.16-.4,2.09-1.19,2.8-.79.71-1.98,1.06-3.57,1.06Zm4.37-.28l-.08-4.4-.06-.11v-4.14c0-1.42-.35-2.45-1.04-3.09-.69-.64-1.64-.97-2.86-.97-.78,0-1.57.14-2.37.41-.79.27-1.46.74-2,1.41l-.48-.59c.6-.71,1.33-1.22,2.21-1.54.88-.32,1.75-.48,2.63-.48.95,0,1.78.17,2.49.52.71.35,1.25.88,1.64,1.6s.57,1.63.57,2.73v4.14c0,.75,0,1.49.03,2.24.02.75.04,1.5.06,2.27h-.76Zm-4.26-.42c1.34,0,2.37-.29,3.07-.87.7-.58,1.05-1.32,1.05-2.21s-.36-1.68-1.06-2.24c-.71-.56-1.74-.84-3.08-.84s-2.39.28-3.15.84c-.76.56-1.13,1.3-1.13,2.21s.38,1.64,1.13,2.23c.76.59,1.81.88,3.18.88Z"/>
        <path class="cls-2" d="m123.42,167.03v-18.82h.78v3.95l-.11-.14c.45-1.23,1.17-2.22,2.16-2.97.99-.75,2.14-1.12,3.44-1.12,1.21,0,2.28.28,3.21.85.92.57,1.64,1.35,2.16,2.35s.77,2.15.77,3.46v.25c0,1.34-.26,2.53-.77,3.56-.51,1.03-1.23,1.83-2.16,2.42-.92.59-1.99.88-3.21.88-1.31,0-2.46-.37-3.44-1.11s-1.7-1.72-2.13-2.95l.11-.14v9.52h-.81Zm6.22-6.08c1.06,0,2-.26,2.81-.78.81-.52,1.44-1.24,1.89-2.16s.67-1.97.67-3.16v-.25c0-1.16-.22-2.17-.67-3.05-.45-.88-1.08-1.57-1.89-2.07-.81-.5-1.75-.76-2.81-.76s-1.98.26-2.8.78c-.82.52-1.47,1.24-1.93,2.16-.47.92-.7,1.97-.7,3.16s.23,2.25.7,3.18c.47.92,1.11,1.65,1.93,2.17s1.75.78,2.8.78Z"/>
        <path class="cls-2" d="m139.75,167.03v-18.82h.78v3.95l-.11-.14c.45-1.23,1.17-2.22,2.16-2.97.99-.75,2.14-1.12,3.44-1.12,1.21,0,2.28.28,3.21.85.92.57,1.64,1.35,2.16,2.35s.77,2.15.77,3.46v.25c0,1.34-.26,2.53-.77,3.56-.51,1.03-1.23,1.83-2.16,2.42-.92.59-1.99.88-3.21.88-1.31,0-2.46-.37-3.44-1.11s-1.7-1.72-2.13-2.95l.11-.14v9.52h-.81Zm6.22-6.08c1.06,0,2-.26,2.81-.78.81-.52,1.44-1.24,1.89-2.16s.67-1.97.67-3.16v-.25c0-1.16-.22-2.17-.67-3.05-.45-.88-1.08-1.57-1.89-2.07-.81-.5-1.75-.76-2.81-.76s-1.98.26-2.8.78c-.82.52-1.47,1.24-1.93,2.16-.47.92-.7,1.97-.7,3.16s.23,2.25.7,3.18c.47.92,1.11,1.65,1.93,2.17s1.75.78,2.8.78Z"/>
        <path class="cls-2" d="m158.98,161.43c-.86,0-1.57-.28-2.13-.83s-.84-1.25-.84-2.11v-17.11l.36.36h-3.16v-.76h3.61v17.5c0,.63.21,1.16.62,1.57.41.41.93.62,1.57.62h1.04v.76h-1.06Z"/>
        <path class="cls-2" d="m163.63,161.43v-12.8l.36.36h-3.19v-.78h3.64v13.22h-.81Zm-.03-16.52v-2.6h.84v2.6h-.84Z"/>
        <path class="cls-2" d="m174.94,161.71c-1.29,0-2.43-.28-3.42-.85-.99-.57-1.77-1.36-2.34-2.37s-.85-2.17-.85-3.47v-.39c0-1.31.28-2.46.85-3.47s1.35-1.8,2.34-2.37c.99-.57,2.13-.85,3.42-.85.93,0,1.77.15,2.51.45.74.3,1.39.74,1.95,1.32l-.53.56c-.5-.49-1.08-.86-1.72-1.13-.64-.27-1.39-.41-2.23-.41-1.12,0-2.11.25-2.98.76s-1.55,1.2-2.04,2.09-.74,1.91-.74,3.07v.39c0,1.16.25,2.18.74,3.07.49.89,1.18,1.58,2.04,2.09.87.5,1.86.76,2.98.76.84,0,1.58-.13,2.23-.39.64-.26,1.22-.64,1.72-1.15l.53.56c-.56.58-1.21,1.02-1.95,1.32-.74.3-1.57.45-2.51.45Z"/>
        <path class="cls-2" d="m186.81,161.71c-1.53,0-2.75-.35-3.67-1.05s-1.37-1.62-1.37-2.76c0-.75.2-1.4.6-1.96.4-.56.98-1,1.75-1.32.76-.32,1.67-.48,2.72-.48,1.57,0,2.76.34,3.58,1.02s1.23,1.57,1.23,2.67h-.08c0,1.16-.4,2.09-1.19,2.8-.79.71-1.98,1.06-3.57,1.06Zm4.37-.28l-.08-4.4-.06-.11v-4.14c0-1.42-.35-2.45-1.04-3.09-.69-.64-1.64-.97-2.86-.97-.78,0-1.57.14-2.37.41-.79.27-1.46.74-2,1.41l-.48-.59c.6-.71,1.33-1.22,2.21-1.54.88-.32,1.75-.48,2.63-.48.95,0,1.78.17,2.49.52.71.35,1.25.88,1.64,1.6s.57,1.63.57,2.73v4.14c0,.75,0,1.49.03,2.24.02.75.04,1.5.06,2.27h-.76Zm-4.26-.42c1.34,0,2.37-.29,3.07-.87.7-.58,1.05-1.32,1.05-2.21s-.36-1.68-1.06-2.24c-.71-.56-1.74-.84-3.08-.84s-2.39.28-3.15.84c-.76.56-1.13,1.3-1.13,2.21s.38,1.64,1.13,2.23c.76.59,1.81.88,3.18.88Z"/>
        <path class="cls-2" d="m194.49,149v-.78h7.5v.78h-7.5Zm5.63,12.43c-.41,0-.8-.07-1.16-.21-.36-.14-.68-.34-.95-.6-.27-.26-.48-.57-.63-.94-.15-.36-.22-.77-.22-1.22v-13.58h.78v13.61c0,.63.21,1.16.63,1.57.42.41.94.62,1.55.62h1.88v.76h-1.88Z"/>
        <path class="cls-2" d="m206.22,161.43v-12.8l.36.36h-3.19v-.78h3.64v13.22h-.81Zm-.03-16.52v-2.6h.84v2.6h-.84Z"/>
        <path class="cls-2" d="m217.17,161.71c-1.21,0-2.29-.29-3.23-.88s-1.68-1.39-2.21-2.42c-.53-1.03-.8-2.21-.8-3.56v-.22c0-1.31.27-2.46.8-3.47s1.27-1.8,2.21-2.37c.94-.57,2.02-.85,3.23-.85s2.29.28,3.22.84,1.67,1.34,2.2,2.34c.53,1,.8,2.14.8,3.43v.31c0,1.34-.27,2.53-.8,3.56-.53,1.03-1.26,1.83-2.2,2.42s-2.01.88-3.22.88Zm0-.76c1.06,0,2-.26,2.81-.78.81-.52,1.45-1.24,1.9-2.16.46-.92.69-1.97.69-3.16v-.31c0-1.16-.23-2.17-.69-3.04-.46-.87-1.09-1.55-1.9-2.04-.81-.49-1.75-.74-2.81-.74s-1.98.25-2.8.76c-.82.5-1.47,1.2-1.93,2.09s-.7,1.91-.7,3.07v.22c0,1.19.23,2.25.7,3.16s1.11,1.63,1.93,2.16c.82.52,1.75.78,2.8.78Z"/>
        <path class="cls-2" d="m227.3,161.43v-13.22h.76v3.47h-.22c.22-.69.53-1.27.91-1.75.38-.48.82-.86,1.3-1.16s.98-.51,1.5-.64c.51-.13,1-.2,1.47-.2,1.49,0,2.72.47,3.68,1.4.96.93,1.44,2.43,1.44,4.48v7.62h-.81v-7.56c0-1.83-.42-3.14-1.26-3.95-.84-.8-1.88-1.2-3.14-1.2-.86,0-1.65.19-2.38.57-.73.38-1.32.95-1.76,1.71-.45.76-.67,1.7-.67,2.84v7.59h-.81Z"/>
        <path class="cls-2" d="m246.03,161.71c-.86,0-1.7-.14-2.52-.43s-1.47-.7-1.96-1.22l.45-.62c.45.47,1.04.84,1.79,1.12.75.28,1.49.42,2.24.42,1.08,0,1.96-.27,2.65-.8s1.02-1.23,1.02-2.09c0-.69-.19-1.22-.56-1.6-.37-.37-.85-.66-1.44-.85s-1.21-.37-1.86-.52-1.27-.35-1.86-.59c-.59-.24-1.07-.59-1.44-1.04-.37-.45-.56-1.07-.56-1.88,0-1.1.41-1.99,1.22-2.67.81-.68,1.86-1.02,3.15-1.02.78,0,1.51.13,2.18.39.67.26,1.25.6,1.74,1.01l-.45.62c-.43-.37-.94-.68-1.53-.91-.59-.23-1.24-.35-1.95-.35-1.05,0-1.9.27-2.58.81-.67.54-1.01,1.23-1.01,2.07,0,.67.19,1.2.56,1.57.37.37.85.66,1.44.85.59.2,1.21.37,1.88.53.66.16,1.29.36,1.88.6.59.24,1.07.59,1.44,1.05.37.46.56,1.1.56,1.92,0,.71-.19,1.33-.57,1.88s-.91.97-1.58,1.27c-.67.31-1.45.46-2.32.46Z"/>
      </g>
      <g id="Layer_1-3" data-name="Layer 1">
        <path class="cls-1" d="m88.41,14.07c-.58-.6-1.53-.6-2.11,0-.65.65-.57,1.77.23,2.31.49.33,1.15.33,1.64,0,.81-.54.89-1.66.23-2.31m-1.93-5.08c-3.99-.94-7.58,2.65-6.64,6.65.47,2.03,2.09,3.65,4.12,4.12,3.99.94,7.58-2.65,6.65-6.65-.48-2.03-2.09-3.65-4.13-4.12m-26.37,22.49c-2.6-.96-3.61-.77-6.94-.72-2.31.03-2.39-.05-5.02-.05-.81,0-1.11,3.9,1.83,4.71,1.29.36,2.68.58,3.65,1.57.43.44.67,1.1-.32,1.1h-7.3c-1.28,0-2.49.03-3.46-.8-1.48-1.25-2.16-2.96-2.9-4.66-.77-1.77-1.59-3.51-2.56-5.18-1.93-3.32-4.48-6.32-7.9-8.15-4.27-2.29-11.52-3.43-17.26.98-6.05,4.65-4.75,13.35.54,17.61,2.09,1.68,4.81,2.39,7.49,2.23,5.23-.31,9.09-4.16,8.13-8.91-.32-1.59-1.25-3.09-2.64-3.91-.99-.58-2.17-.79-3.32-.79-1.24,0-2.55.25-3.44,1.11-1.05,1.02-1.22,2.81-.38,4.02.47.66,1.22,1.22,1.09,2.09-.09.59-.57,1.02-1.15,1.15-.98.22-1.88-.34-2.54-1.02-1.7-1.75-2.24-4.54-1.3-6.8,1.22-2.95,4.63-4.58,7.82-4.47,4.12.14,8,2.86,9.69,6.62,1.69,3.76,1.18,8.38-1.14,11.78-5.17,7.56-17.95,6.67-23.89.29-3.72-4-5.75-7.88-5.46-15.11.2-5.11,3.15-10.14,6.9-13.68C14.44,6.69,22.5,2.75,30.7,1.04,35.69.01,40.83-.23,45.89.28c4.46.44,8.9,1.26,13.18,2.59,2.13.66,4.22,1.45,6.25,2.38,1.79.82,4.13,1.71,5.52,3.13,0-2.56-.1-5.38-.1-7.34,0-.75.79-1.26,1.46-.94,2.9,1.35,9.77,4.59,14.36,6.69,6.14,2.81,6.58,9.43,6.79,15.3,0,.13.01.27-.05.38-.19.4-1.23.29-1.61.3-.73,0-1.84,0-2.58.03-1.47.07-2.9.04-4.36-.03-2.71-.13-5.33-1.34-7.09-2.81-.17-.15-.74-.31-1.01-.03-.28.29-.18.73-.03.89,1.01,1.02,2.1,1.67,3.37,2.33,1.61.83,3.37,1.04,5.16,1.14,1.91.11,3.83.09,5.74-.11,1.59-.16,2-.27.43.9-1.38,1.02-2.98,1.76-4.6,2.31-2.33.79-4.79,1.18-7.24,1.25-1.49.04-2.98-.04-4.45-.23-.76-.09-1.52-.23-2.29-.31-.62-.06-1.27-.18-1.89-.05-.56.12-1.08.43-1.44.89-.49.63-.65,2.37-.37,3.13.54,1.46,1.73,2.31,2.99,3.06,1.36.81,3.16,1.09,3.5,2.64.07.32-2.82.33-3.15.32h-3.85s-2.1.05-2.91-.25c-.03,0-.05-.02-.07-.03-.44-.24-.64-.83-.79-1.28-.22-.63-.59-1.27-1.05-1.93-.87-1.24-2.21-2.6-3.6-3.12m29.19-17.11c0,2.26-1.83,4.09-4.09,4.09s-4.09-1.83-4.09-4.09,1.83-4.09,4.09-4.09,4.09,1.83,4.09,4.09"/>
      </g>
    </g>
  </g>
</svg>