<?xml version="1.0" encoding="UTF-8"?>
<svg id="Layer_1" data-name="Layer 1" xmlns="http://www.w3.org/2000/svg" viewBox="0 0 497.43 37.47">
  <defs>
    <style>
      .cls-1 {
        fill: #30ba78;
      }

      .cls-2 {
        fill: #efefef;
      }
    </style>
  </defs>
  <g id="Layer_1-2" data-name="Layer 1">
    <path class="cls-1" d="M68.72,11.11c-.46-.47-1.21-.47-1.67,0-.51.51-.45,1.4.19,1.82.39.26.91.26,1.3,0,.64-.42.7-1.31.18-1.82M67.19,7.1c-3.15-.74-5.99,2.09-5.25,5.25.37,1.61,1.65,2.88,3.26,3.26,3.15.74,5.99-2.1,5.25-5.25-.38-1.61-1.65-2.88-3.26-3.26M46.37,24.85c-2.06-.76-2.85-.61-5.48-.57-1.82.02-1.89-.04-3.97-.04-.64,0-.88,3.08,1.44,3.72,1.02.28,2.12.46,2.88,1.24.34.34.53.87-.25.87h-5.77c-1.01,0-1.96.02-2.73-.63-1.17-.98-1.71-2.34-2.29-3.68-.6-1.4-1.26-2.77-2.02-4.09-1.52-2.62-3.54-4.99-6.24-6.44-3.37-1.81-9.1-2.71-13.63.77-4.78,3.67-3.75,10.54.43,13.9,1.65,1.33,3.8,1.88,5.92,1.76,4.13-.24,7.18-3.29,6.42-7.04-.25-1.26-.98-2.44-2.09-3.09-.78-.46-1.71-.62-2.62-.62-.98,0-2.01.2-2.72.88-.83.8-.96,2.22-.3,3.17.37.52.97.97.86,1.65-.07.46-.45.81-.91.91-.78.17-1.49-.27-2.01-.81-1.34-1.38-1.77-3.59-1.03-5.37.97-2.33,3.66-3.62,6.18-3.53,3.25.11,6.32,2.26,7.65,5.22,1.34,2.97.93,6.62-.9,9.31-4.09,5.97-14.18,5.27-18.86.23C1.4,29.42-.2,26.35.02,20.64c.16-4.03,2.49-8.01,5.45-10.8C10.31,5.28,16.67,2.17,23.15.82,27.09.01,31.15-.18,35.14.22c3.52.35,7.02,1,10.41,2.04,1.68.52,3.33,1.15,4.93,1.88,1.41.65,3.26,1.35,4.36,2.47,0-2.02-.08-4.25-.08-5.8,0-.59.62-.99,1.15-.74,2.29,1.06,7.72,3.63,11.34,5.28,4.85,2.22,5.19,7.44,5.36,12.08,0,.1,0,.21-.04.3-.15.32-.97.23-1.27.24-.58,0-1.46,0-2.03.03-1.16.05-2.29.03-3.44-.03-2.14-.1-4.21-1.06-5.6-2.22-.14-.12-.59-.24-.8-.02-.22.23-.14.58-.02.7.79.8,1.66,1.32,2.66,1.84,1.27.65,2.66.82,4.07.9,1.51.09,3.03.07,4.53-.09,1.26-.13,1.58-.21.34.71-1.09.81-2.35,1.39-3.63,1.82-1.84.62-3.78.93-5.72.99-1.17.03-2.35-.03-3.51-.18-.6-.07-1.2-.19-1.81-.25-.49-.05-1-.14-1.49-.04-.44.1-.85.34-1.13.7-.38.5-.52,1.87-.29,2.47.43,1.15,1.37,1.82,2.36,2.42,1.08.64,2.49.86,2.77,2.08.06.25-2.23.26-2.49.26h-3.04s-1.66.04-2.3-.19c-.02,0-.04-.02-.06-.02-.35-.19-.5-.66-.62-1.01-.17-.5-.47-1-.83-1.52-.69-.98-1.74-2.05-2.84-2.46M69.42,11.34c0,1.78-1.44,3.23-3.23,3.23s-3.23-1.44-3.23-3.23,1.44-3.23,3.23-3.23,3.23,1.44,3.23,3.23"/>
  </g>
  <g>
    <path class="cls-2" d="M85.36,25.79l3.04-3.04c2.16,2.2,4.16,3.12,6.52,3.12,3.16,0,5.04-1.6,5.04-3.96,0-6.44-13.96-2.8-13.96-12.48,0-5.2,3.88-8.52,9.76-8.52,3.6,0,6.6,1.4,8.48,3.52l-3.12,3.12c-1.6-1.64-3.24-2.48-5.36-2.48-2.96,0-4.88,1.52-4.88,3.88,0,6.08,14.08,2.12,14.08,12.24,0,5.36-4.12,8.84-10.2,8.84-4.2,0-7.24-1.68-9.4-4.24Z"/>
    <path class="cls-2" d="M109.44,19.8V1.48h4.92v17.92c0,4.08,2.36,6.08,5.96,6.08s5.92-2,5.92-6.08V1.48h4.92v18.32c0,6.84-4.32,10.24-10.84,10.24s-10.88-3.4-10.88-10.24Z"/>
    <path class="cls-2" d="M135.64,25.79l3.04-3.04c2.16,2.2,4.16,3.12,6.52,3.12,3.16,0,5.04-1.6,5.04-3.96,0-6.44-13.96-2.8-13.96-12.48,0-5.2,3.88-8.52,9.76-8.52,3.6,0,6.6,1.4,8.48,3.52l-3.12,3.12c-1.6-1.64-3.24-2.48-5.36-2.48-2.96,0-4.88,1.52-4.88,3.88,0,6.08,14.08,2.12,14.08,12.24,0,5.36-4.12,8.84-10.2,8.84-4.2,0-7.24-1.68-9.4-4.24Z"/>
    <path class="cls-2" d="M159.4,24.79V6.16c0-2.72,1.96-4.68,4.68-4.68h13.6v4.48h-11.96c-.84,0-1.48.64-1.48,1.44v5.88h12.6v4.28h-12.6v6c0,.8.64,1.44,1.48,1.44h11.96v4.48h-13.6c-2.72,0-4.68-1.96-4.68-4.68Z"/>
    <path class="cls-2" d="M192.6,1.48h8.32c5.44,0,9.12,3.04,9.12,8.24s-3.68,8.24-9.12,8.24h-5.68v11.52h-2.64V1.48ZM201.04,15.68c3.76,0,6.36-2.28,6.36-5.96s-2.6-5.92-6.36-5.92h-5.8v11.88h5.8Z"/>
    <path class="cls-2" d="M214.24,10.36h2.48v3.16c.92-2.48,3-3.2,5.36-3.2h1.68v2.48h-1.88c-3.2,0-5.08,1.6-5.08,5.08v11.6h-2.56V10.36Z"/>
    <path class="cls-2" d="M226.36,20v-.4c0-5.56,3.56-9.64,8.88-9.64s8.64,4.28,7.92,10.64h-14.28c.28,4.08,3,6.92,7.12,6.92,2.04,0,3.76-.52,4.92-1.56l1.44,1.64c-1.4,1.44-3.8,2.28-6.48,2.28-5.64,0-9.52-4.04-9.52-9.88ZM240.76,18.48c.08-3.92-2.24-6.28-5.52-6.28-3.56,0-5.92,2.48-6.32,6.28h11.84Z"/>
    <path class="cls-2" d="M247.8,10.36h2.44v3.32c1.48-2.8,4.04-3.72,6.28-3.72,2.96,0,5.2,1.32,6.28,4.12,1.52-3.12,4.44-4.12,6.72-4.12,4.2,0,7,2.64,7,8.24v11.28h-2.48v-10.96c0-4.36-2.04-6.2-5.08-6.2s-5.52,2.16-5.52,6.16v11h-2.52v-10.96c0-4.36-2-6.2-5.04-6.2s-5.56,2.16-5.56,6.16v11h-2.52V10.36Z"/>
    <path class="cls-2" d="M284.08,12.6h-3.84v-2.24h6.36v19.12h-2.52V12.6ZM284,1.6h2.72v4.36h-2.72V1.6Z"/>
    <path class="cls-2" d="M293.12,21.92v-11.56h2.48v11.16c0,4.48,2.32,6,5.32,6,3.16,0,5.84-2.08,5.84-6.28v-10.88h2.48v19.12h-2.2v-3.32c-1.52,2.8-4.36,3.72-6.56,3.72-4.24,0-7.36-2.32-7.36-7.96Z"/>
    <path class="cls-2" d="M315.92,10.36h2.44v3.32c1.48-2.8,4.04-3.72,6.28-3.72,2.96,0,5.2,1.32,6.28,4.12,1.52-3.12,4.44-4.12,6.72-4.12,4.2,0,7,2.64,7,8.24v11.28h-2.48v-10.96c0-4.36-2.04-6.2-5.08-6.2s-5.52,2.16-5.52,6.16v11h-2.52v-10.96c0-4.36-2-6.2-5.04-6.2s-5.56,2.16-5.56,6.16v11h-2.52V10.36Z"/>
    <path class="cls-2" d="M359.2,26.11l1.64-1.72c1.88,2.16,4.24,3.24,7.08,3.24,4.08,0,6.6-2.24,6.6-5.6,0-8-14.8-3.4-14.8-13.08,0-4.8,3.64-7.96,9.16-7.96,3.2,0,5.76,1.12,7.48,2.96l-1.76,1.76c-1.52-1.56-3.36-2.4-5.76-2.4-3.88,0-6.44,2.16-6.44,5.4,0,7.6,14.84,2.8,14.84,12.96,0,5.08-3.84,8.28-9.4,8.28-3.8,0-6.72-1.48-8.64-3.84Z"/>
    <path class="cls-2" d="M380.96,20v-.4c0-5.56,3.56-9.64,8.88-9.64s8.64,4.28,7.92,10.64h-14.28c.28,4.08,3,6.92,7.12,6.92,2.04,0,3.76-.52,4.92-1.56l1.44,1.64c-1.4,1.44-3.8,2.28-6.48,2.28-5.64,0-9.52-4.04-9.52-9.88ZM395.36,18.48c.08-3.92-2.24-6.28-5.52-6.28-3.56,0-5.92,2.48-6.32,6.28h11.84Z"/>
    <path class="cls-2" d="M402.4,10.36h2.48v3.16c.92-2.48,3-3.2,5.36-3.2h1.68v2.48h-1.88c-3.2,0-5.08,1.6-5.08,5.08v11.6h-2.56V10.36Z"/>
    <path class="cls-2" d="M413.6,10.36h2.64l6.4,16.12,6.4-16.12h2.64l-7.68,19.12h-2.68l-7.72-19.12Z"/>
    <path class="cls-2" d="M436.48,12.6h-3.84v-2.24h6.36v19.12h-2.52V12.6ZM436.4,1.6h2.72v4.36h-2.72V1.6Z"/>
    <path class="cls-2" d="M444.2,20.16v-.48c0-5.76,4.12-9.72,9.72-9.72,2.76,0,5.08,1.04,6.64,2.8l-1.56,1.64c-1.32-1.36-2.96-2.08-5.08-2.08-4.16,0-7.2,2.96-7.2,7.36v.48c0,4.4,3.04,7.36,7.24,7.36,2.08,0,3.72-.68,5.08-2.04l1.56,1.6c-1.56,1.8-3.92,2.8-6.68,2.8-5.64,0-9.72-4-9.72-9.72Z"/>
    <path class="cls-2" d="M464.2,20v-.4c0-5.56,3.56-9.64,8.88-9.64s8.64,4.28,7.92,10.64h-14.28c.28,4.08,3,6.92,7.12,6.92,2.04,0,3.76-.52,4.92-1.56l1.44,1.64c-1.4,1.44-3.8,2.28-6.48,2.28-5.64,0-9.52-4.04-9.52-9.88ZM478.59,18.48c.08-3.92-2.24-6.28-5.52-6.28-3.56,0-5.92,2.48-6.32,6.28h11.84Z"/>
    <path class="cls-2" d="M483.68,27.47l1.16-1.76c1.4,1.24,3.56,2.08,5.68,2.08,2.6,0,4.4-1.36,4.4-3.32,0-5.04-10.56-1.84-10.56-8.92,0-3.28,2.68-5.6,6.76-5.6,2.36,0,4.48.8,6.04,2l-1.2,1.76c-1.32-1.04-3-1.72-4.88-1.72-2.52,0-4.28,1.4-4.28,3.36,0,4.92,10.64,1.84,10.64,8.96,0,3.28-2.84,5.52-6.92,5.52-2.72,0-5.32-.92-6.84-2.36Z"/>
  </g>
</svg>