<?xml version="1.0" encoding="utf-8"?>
<!-- Generator: Adobe Illustrator 28.0.0, SVG Export Plug-In . SVG Version: 6.00 Build 0)  -->
<svg version="1.1" id="Layer_2_00000093177618261599146010000001036176351479496376_"
	 xmlns="http://www.w3.org/2000/svg" xmlns:xlink="http://www.w3.org/1999/xlink" x="0px" y="0px" viewBox="0 0 227.8 122"
	 style="enable-background:new 0 0 227.8 122;" xml:space="preserve">
<g id="Layer_1-2">
	<path d="M1.3,77.9l3-3C6.5,77,8.5,78,10.8,78c3.2,0,5-1.6,5-4c0-6.4-14-2.8-14-12.5c0-5.2,3.9-8.5,9.8-8.5c3.6,0,6.6,1.4,8.5,3.5
		L17,59.7c-1.6-1.6-3.2-2.5-5.4-2.5c-3,0-4.9,1.5-4.9,3.9c0,6.1,14.1,2.1,14.1,12.2c0,5.4-4.1,8.8-10.2,8.8
		C6.5,82.1,3.4,80.5,1.3,77.9z"/>
	<path d="M25.4,71.9V53.6h4.9v17.9c0,4.1,2.4,6.1,6,6.1s5.9-2,5.9-6.1V53.6h4.9v18.3c0,6.8-4.3,10.2-10.8,10.2S25.4,78.7,25.4,71.9z
		"/>
	<path d="M51.6,77.9l3-3c2.2,2.2,4.2,3.1,6.5,3.1c3.2,0,5-1.6,5-4c0-6.4-14-2.8-14-12.5c0-5.2,3.9-8.5,9.8-8.5
		c3.6,0,6.6,1.4,8.5,3.5l-3.1,3.1c-1.6-1.6-3.2-2.5-5.4-2.5c-3,0-4.9,1.5-4.9,3.9c0,6.1,14.1,2.1,14.1,12.2c0,5.4-4.1,8.8-10.2,8.8
		C56.8,82.1,53.7,80.5,51.6,77.9z"/>
	<path d="M75.3,76.9V58.2c0-2.7,2-4.7,4.7-4.7h13.6V58h-12c-0.8,0-1.5,0.6-1.5,1.4v5.9h12.6v4.3H80.2v6c0,0.8,0.6,1.4,1.5,1.4h12
		v4.5H80C77.3,81.6,75.3,79.6,75.3,76.9z"/>
	<path d="M0,93.6h2.8l9.2,24.7l9.1-24.7h2.8l-10.5,28h-2.9L0,93.6z"/>
	<path d="M28.5,104.7h-3.8v-2.2H31v19.1h-2.5C28.5,121.6,28.5,104.7,28.5,104.7z M28.4,93.7h2.7v4.4h-2.7V93.7z"/>
	<path d="M37.7,102.4h2.5v3.2c0.9-2.5,3-3.2,5.4-3.2h1.7v2.5h-1.9c-3.2,0-5.1,1.6-5.1,5.1v11.6h-2.6
		C37.7,121.6,37.7,102.5,37.7,102.4z"/>
	<path d="M52.8,116.7v-12h-3.6v-2.2h3.6v-4.8h2.5v4.8h5.3v2.2h-5.3v12.2c0,1.4,1,2.5,2.4,2.5h2.8v2.2h-2.8
		C55.2,121.6,52.8,120.1,52.8,116.7z"/>
	<path d="M65.1,114v-11.6h2.5v11.2c0,4.5,2.3,6,5.3,6c3.2,0,5.8-2.1,5.8-6.3v-10.9h2.5v19.1H79v-3.3c-1.5,2.8-4.4,3.7-6.6,3.7
		C68.2,122,65.1,119.7,65.1,114z"/>
	<path d="M99.8,119.4c-1,1.6-3,2.5-5.9,2.5c-4.5,0-7.3-2.2-7.3-5.6s2.8-5.8,7.6-5.8c2.3,0,4.1,0.6,5.3,1.6v-3c0-3.3-1.7-4.8-4.8-4.8
		c-2.1,0-4.5,0.8-6.1,2.4l-1.2-1.8c1.7-2,4.6-3,7.4-3c4.4,0,7.3,2.3,7.3,7.1v6.1c0,2.1,0,4.2,0.1,6.4h-2.3
		C99.8,121.6,99.8,119.4,99.8,119.4z M94.3,120c3.2,0,5.1-1.5,5.1-3.7s-1.8-3.6-5.1-3.6s-5.2,1.4-5.2,3.6S91.1,120,94.3,120z"/>
	<path d="M108.8,116.9V94.6h-3.7v-2.2h6.2v24.6c0,1.4,1,2.4,2.4,2.4h1.7v2.2h-1.8C110.8,121.6,108.8,119.7,108.8,116.9z"/>
	<path d="M120.1,104.7h-3.8v-2.2h6.4v19.1h-2.5C120.1,121.6,120.1,104.7,120.1,104.7z M120,93.7h2.7v4.4H120V93.7z"/>
	<path d="M127,119.5l11-14.8h-10.9v-2.3h14v2.1L130,119.3h11.2v2.3H127V119.5z"/>
	<path d="M157.4,119.4c-1,1.6-3,2.5-5.9,2.5c-4.5,0-7.3-2.2-7.3-5.6s2.8-5.8,7.6-5.8c2.3,0,4.1,0.6,5.3,1.6v-3
		c0-3.3-1.7-4.8-4.8-4.8c-2.1,0-4.5,0.8-6.1,2.4l-1.2-1.8c1.7-2,4.6-3,7.4-3c4.4,0,7.3,2.3,7.3,7.1v6.1c0,2.1,0,4.2,0.1,6.4h-2.3
		L157.4,119.4L157.4,119.4z M151.9,120c3.2,0,5.1-1.5,5.1-3.7s-1.8-3.6-5.1-3.6s-5.2,1.4-5.2,3.6S148.7,120,151.9,120z"/>
	<path d="M166.4,116.7v-12h-3.6v-2.2h3.6v-4.8h2.5v4.8h5.3v2.2h-5.3v12.2c0,1.4,1,2.5,2.4,2.5h2.8v2.2h-2.8
		C168.8,121.6,166.4,120.1,166.4,116.7z"/>
	<path d="M179.8,104.7H176v-2.2h6.4v19.1h-2.5C179.8,121.6,179.8,104.7,179.8,104.7z M179.8,93.7h2.7v4.4h-2.7V93.7z"/>
	<path d="M187.6,112.1v-0.3c0-5.7,4-9.7,9.4-9.7s9.3,4,9.3,9.6v0.4c0,5.8-3.9,9.9-9.3,9.9S187.6,117.9,187.6,112.1L187.6,112.1z
		 M196.9,119.7c4,0,6.8-3.1,6.8-7.6v-0.4c0-4.3-2.8-7.3-6.8-7.3s-6.8,3.1-6.8,7.4v0.3C190.1,116.6,192.9,119.7,196.9,119.7z"/>
	<path d="M211.4,102.4h2.4v3.4c1.5-2.9,4.4-3.8,6.6-3.8c4.3,0,7.3,2.7,7.3,8.4v11.2h-2.6v-10.8c0-4.5-2.3-6.3-5.3-6.3
		c-3.2,0-5.9,2.2-5.9,6.4v10.8h-2.6L211.4,102.4L211.4,102.4z"/>
	<g id="Layer_1-3">
		<path d="M88.6,16.5c-0.5,0.3-1.2,0.3-1.7,0c-0.8-0.5-0.9-1.7-0.2-2.3c0.6-0.6,1.6-0.6,2.1,0C89.5,14.8,89.4,15.9,88.6,16.5
			 M90.9,13.2c0.9,4-2.7,7.6-6.7,6.7c-2.1-0.5-3.7-2.1-4.2-4.1c-0.9-4,2.7-7.6,6.7-6.7C88.8,9.5,90.5,11.1,90.9,13.2 M63.9,34.8
			c0.5,0.7,0.8,1.3,1.1,1.9c0.2,0.5,0.3,1,0.8,1.3c0,0,0.1,0,0.1,0c0.8,0.3,2.9,0.2,2.9,0.2h3.9c0.3,0,3.2,0,3.2-0.3
			c-0.3-1.6-2.2-1.8-3.5-2.7c-1.3-0.8-2.5-1.6-3-3.1c-0.3-0.8-0.1-2.5,0.4-3.1c0.4-0.5,0.9-0.8,1.4-0.9c0.6-0.1,1.3,0,1.9,0
			c0.8,0.1,1.5,0.2,2.3,0.3c1.5,0.2,3,0.3,4.5,0.2c2.5-0.1,4.9-0.5,7.3-1.3c1.6-0.5,3.2-1.3,4.6-2.3c1.6-1.2,1.2-1.1-0.4-0.9
			c-1.9,0.2-3.8,0.2-5.8,0.1c-1.8-0.1-3.6-0.3-5.2-1.1c-1.3-0.7-2.4-1.3-3.4-2.3c-0.2-0.1-0.2-0.6,0-0.9c0.3-0.3,0.8-0.1,1,0
			c1.8,1.5,4.4,2.7,7.1,2.8c1.5,0.1,2.9,0.1,4.4,0c0.7,0,1.8,0,2.6,0c0.4,0,1.4,0.1,1.6-0.3c0.1-0.1,0.1-0.2,0.1-0.4
			C93.5,16.3,93,9.6,86.9,6.8c-4.6-2.1-11.5-5.4-14.4-6.7c-0.7-0.3-1.5,0.2-1.5,0.9c0,2,0.1,4.8,0.1,7.4c-1.4-1.4-3.8-2.3-5.6-3.2
			c-2-0.9-4.1-1.7-6.3-2.4C54.9,1.5,50.4,0.7,46,0.3C40.9-0.2,35.7,0,30.7,1C22.4,2.8,14.3,6.7,8.1,12.5c-3.8,3.6-6.8,8.6-6.9,13.8
			c-0.3,7.3,1.8,11.2,5.5,15.2c6,6.4,18.8,7.3,24-0.3c2.3-3.4,2.8-8.1,1.1-11.9c-1.7-3.8-5.6-6.5-9.8-6.7c-3.2-0.1-6.6,1.5-7.9,4.5
			c-0.9,2.3-0.4,5.1,1.3,6.8c0.7,0.7,1.6,1.2,2.6,1c0.6-0.1,1.1-0.6,1.1-1.2c0.1-0.9-0.6-1.4-1.1-2.1c-0.9-1.2-0.7-3,0.4-4
			c0.9-0.9,2.2-1.1,3.5-1.1c1.2,0,2.3,0.2,3.3,0.8c1.4,0.8,2.3,2.3,2.7,3.9c1,4.8-2.9,8.7-8.2,9c-2.7,0.2-5.4-0.5-7.5-2.2
			C7,33.8,5.7,25,11.7,20.4c5.8-4.4,13.1-3.3,17.4-1c3.4,1.8,6,4.9,8,8.2c1,1.7,1.8,3.4,2.6,5.2c0.7,1.7,1.4,3.4,2.9,4.7
			c1,0.8,2.2,0.8,3.5,0.8h7.3c1,0,0.8-0.7,0.3-1.1c-1-1-2.4-1.2-3.7-1.6c-3-0.8-2.7-4.7-1.8-4.7c2.7,0,2.7,0.1,5,0
			c3.3,0,4.4-0.2,7,0.7C61.6,32.2,63,33.5,63.9,34.8"/>
	</g>
</g>
</svg>
