<?xml version="1.0" encoding="UTF-8"?>
<svg id="Layer_2" data-name="Layer 2" xmlns="http://www.w3.org/2000/svg" viewBox="0 0 227.7 121.99">
  <defs>
    <style>
      .cls-1 {
        fill: #0d322c;
      }

      .cls-2 {
        fill: #30ba78;
      }
    </style>
  </defs>
  <g id="Layer_1-2" data-name="Layer 1-2">
    <path class="cls-1" d="M1.3,77.89l3-3c2.2,2.1,4.2,3.1,6.5,3.1,3.2,0,5-1.6,5-4,0-6.4-14-2.8-14-12.5,0-5.2,3.9-8.5,9.8-8.5,3.6,0,6.6,1.4,8.5,3.5l-3.1,3.2c-1.6-1.6-3.2-2.5-5.4-2.5-3,0-4.9,1.5-4.9,3.9,0,6.1,14.1,2.1,14.1,12.2,0,5.4-4.1,8.8-10.2,8.8-4.1,0-7.2-1.6-9.3-4.2Z"/>
    <path class="cls-1" d="M25.4,71.89v-18.3h4.9v17.9c0,4.1,2.4,6.1,6,6.1s5.9-2,5.9-6.1v-17.9h4.9v18.3c0,6.8-4.3,10.2-10.8,10.2s-10.9-3.4-10.9-10.2Z"/>
    <path class="cls-1" d="M51.6,77.89l3-3c2.2,2.2,4.2,3.1,6.5,3.1,3.2,0,5-1.6,5-4,0-6.4-14-2.8-14-12.5,0-5.2,3.9-8.5,9.8-8.5,3.6,0,6.6,1.4,8.5,3.5l-3.1,3.1c-1.6-1.6-3.2-2.5-5.4-2.5-3,0-4.9,1.5-4.9,3.9,0,6.1,14.1,2.1,14.1,12.2,0,5.4-4.1,8.8-10.2,8.8-4.1.1-7.2-1.5-9.3-4.1Z"/>
    <path class="cls-1" d="M75.3,76.89v-18.7c0-2.7,2-4.7,4.7-4.7h13.6v4.5h-12c-.8,0-1.5.6-1.5,1.4v5.9h12.6v4.3h-12.5v6c0,.8.6,1.4,1.5,1.4h12v4.5h-13.7c-2.7.1-4.7-1.9-4.7-4.6Z"/>
    <path class="cls-1" d="M0,93.59h2.8l9.2,24.7,9.1-24.7h2.8l-10.5,28h-2.9L0,93.59Z"/>
    <path class="cls-1" d="M28.5,104.69h-3.8v-2.2h6.3v19.1h-2.5v-16.9ZM28.4,93.69h2.7v4.4h-2.7v-4.4Z"/>
    <path class="cls-1" d="M37.7,102.39h2.5v3.2c.9-2.5,3-3.2,5.4-3.2h1.7v2.5h-1.9c-3.2,0-5.1,1.6-5.1,5.1v11.6h-2.6s0-19.1,0-19.2Z"/>
    <path class="cls-1" d="M52.8,116.69v-12h-3.6v-2.2h3.6v-4.8h2.5v4.8h5.3v2.2h-5.3v12.2c0,1.4,1,2.5,2.4,2.5h2.8v2.2h-2.8c-2.5,0-4.9-1.5-4.9-4.9Z"/>
    <path class="cls-1" d="M65.1,113.99v-11.6h2.5v11.2c0,4.5,2.3,6,5.3,6,3.2,0,5.8-2.1,5.8-6.3v-10.9h2.5v19.1h-2.2v-3.3c-1.5,2.8-4.4,3.7-6.6,3.7-4.2.1-7.3-2.2-7.3-7.9Z"/>
    <path class="cls-1" d="M99.8,119.39c-1,1.6-3,2.5-5.9,2.5-4.5,0-7.3-2.2-7.3-5.6s2.8-5.8,7.6-5.8c2.3,0,4.1.6,5.3,1.6v-3c0-3.3-1.7-4.8-4.8-4.8-2.1,0-4.5.8-6.1,2.4l-1.2-1.8c1.7-2,4.6-3,7.4-3,4.4,0,7.3,2.3,7.3,7.1v6.1c0,2.1,0,4.2.1,6.4h-2.3c-.1.1-.1-2.1-.1-2.1ZM94.3,119.99c3.2,0,5.1-1.5,5.1-3.7s-1.8-3.6-5.1-3.6-5.2,1.4-5.2,3.6,2,3.7,5.2,3.7Z"/>
    <path class="cls-1" d="M108.8,116.89v-22.3h-3.7v-2.2h6.2v24.6c0,1.4,1,2.4,2.4,2.4h1.7v2.2h-1.8c-2.8,0-4.8-1.9-4.8-4.7Z"/>
    <path class="cls-1" d="M120.1,104.69h-3.8v-2.2h6.4v19.1h-2.5c-.1,0-.1-16.9-.1-16.9ZM120,93.69h2.7v4.4h-2.7v-4.4Z"/>
    <path class="cls-1" d="M127,119.49l11-14.8h-10.9v-2.3h14v2.1l-11.1,14.8h11.2v2.3h-14.2v-2.1Z"/>
    <path class="cls-1" d="M157.4,119.39c-1,1.6-3,2.5-5.9,2.5-4.5,0-7.3-2.2-7.3-5.6s2.8-5.8,7.6-5.8c2.3,0,4.1.6,5.3,1.6v-3c0-3.3-1.7-4.8-4.8-4.8-2.1,0-4.5.8-6.1,2.4l-1.2-1.8c1.7-2,4.6-3,7.4-3,4.4,0,7.3,2.3,7.3,7.1v6.1c0,2.1,0,4.2.1,6.4h-2.3l-.1-2.1h0ZM151.9,119.99c3.2,0,5.1-1.5,5.1-3.7s-1.8-3.6-5.1-3.6-5.2,1.4-5.2,3.6,2,3.7,5.2,3.7Z"/>
    <path class="cls-1" d="M166.4,116.69v-12h-3.6v-2.2h3.6v-4.8h2.5v4.8h5.3v2.2h-5.3v12.2c0,1.4,1,2.5,2.4,2.5h2.8v2.2h-2.8c-2.5,0-4.9-1.5-4.9-4.9Z"/>
    <path class="cls-1" d="M179.8,104.69h-3.8v-2.2h6.4v19.1h-2.5c-.1,0-.1-16.9-.1-16.9ZM179.8,93.69h2.7v4.4h-2.7v-4.4Z"/>
    <path class="cls-1" d="M187.6,112.09v-.3c0-5.7,4-9.7,9.4-9.7s9.3,4,9.3,9.6v.4c0,5.8-3.9,9.9-9.3,9.9s-9.4-4.1-9.4-9.9h0ZM196.9,119.69c4,0,6.8-3.1,6.8-7.6v-.4c0-4.3-2.8-7.3-6.8-7.3s-6.8,3.1-6.8,7.4v.3c0,4.5,2.8,7.6,6.8,7.6Z"/>
    <path class="cls-1" d="M211.4,102.39h2.4v3.4c1.5-2.9,4.4-3.8,6.6-3.8,4.3,0,7.3,2.7,7.3,8.4v11.2h-2.6v-10.8c0-4.5-2.3-6.3-5.3-6.3-3.2,0-5.9,2.2-5.9,6.4v10.8h-2.6l.1-19.3h0Z"/>
    <g id="Layer_1-3" data-name="Layer 1-3">
      <path class="cls-2" d="M88.6,16.49c-.5.3-1.2.3-1.7,0-.8-.5-.9-1.7-.2-2.3.6-.6,1.6-.6,2.1,0,.7.6.6,1.7-.2,2.3M90.9,13.19c.9,4-2.7,7.6-6.7,6.7-2.1-.5-3.7-2.1-4.2-4.1-.9-4,2.7-7.6,6.7-6.7,2.1.4,3.8,2,4.2,4.1M63.9,34.79c.5.7.8,1.3,1.1,1.9.2.5.3,1,.8,1.3h.1c.8.3,2.9.2,2.9.2h3.9c.3,0,3.2,0,3.2-.3-.3-1.6-2.2-1.8-3.5-2.7-1.3-.8-2.5-1.6-3-3.1-.3-.8-.1-2.5.4-3.1.4-.5.9-.8,1.4-.9.6-.1,1.3,0,1.9,0,.8.1,1.5.2,2.3.3,1.5.2,3,.3,4.5.2,2.5-.1,4.9-.5,7.3-1.3,1.6-.5,3.2-1.3,4.6-2.3,1.6-1.2,1.2-1.1-.4-.9-1.9.2-3.8.2-5.8.1-1.8-.1-3.6-.3-5.2-1.1-1.3-.7-2.4-1.3-3.4-2.3-.2-.1-.2-.6,0-.9.3-.3.8-.1,1,0,1.8,1.5,4.4,2.7,7.1,2.8,1.5.1,2.9.1,4.4,0h2.6c.4,0,1.4.1,1.6-.3.1-.1.1-.2.1-.4-.3-5.7-.8-12.4-6.9-15.2-4.6-2.1-11.5-5.4-14.4-6.7-.7-.3-1.5.2-1.5.9,0,2,.1,4.8.1,7.4-1.4-1.4-3.8-2.3-5.6-3.2-2-.9-4.1-1.7-6.3-2.4-4.3-1.3-8.8-2.1-13.2-2.5C40.9-.21,35.7-.01,30.7.99c-8.3,1.8-16.4,5.7-22.6,11.5-3.8,3.6-6.8,8.6-6.9,13.8-.3,7.3,1.8,11.2,5.5,15.2,6,6.4,18.8,7.3,24-.3,2.3-3.4,2.8-8.1,1.1-11.9-1.7-3.8-5.6-6.5-9.8-6.7-3.2-.1-6.6,1.5-7.9,4.5-.9,2.3-.4,5.1,1.3,6.8.7.7,1.6,1.2,2.6,1,.6-.1,1.1-.6,1.1-1.2.1-.9-.6-1.4-1.1-2.1-.9-1.2-.7-3,.4-4,.9-.9,2.2-1.1,3.5-1.1,1.2,0,2.3.2,3.3.8,1.4.8,2.3,2.3,2.7,3.9,1,4.8-2.9,8.7-8.2,9-2.7.2-5.4-.5-7.5-2.2-5.2-4.2-6.5-13-.5-17.6,5.8-4.4,13.1-3.3,17.4-1,3.4,1.8,6,4.9,8,8.2,1,1.7,1.8,3.4,2.6,5.2.7,1.7,1.4,3.4,2.9,4.7,1,.8,2.2.8,3.5.8h7.3c1,0,.8-.7.3-1.1-1-1-2.4-1.2-3.7-1.6-3-.8-2.7-4.7-1.8-4.7,2.7,0,2.7.1,5,0,3.3,0,4.4-.2,7,.7,1.4.6,2.8,1.9,3.7,3.2"/>
    </g>
  </g>
</svg>