<?xml version="1.0" encoding="utf-8"?>
<!-- Generator: Adobe Illustrator 28.0.0, SVG Export Plug-In . SVG Version: 6.00 Build 0)  -->
<svg version="1.1" id="Layer_2_00000011745181290312318740000016297284028209258385_"
	 xmlns="http://www.w3.org/2000/svg" xmlns:xlink="http://www.w3.org/1999/xlink" x="0px" y="0px" viewBox="0 0 231.9 123.5"
	 style="enable-background:new 0 0 231.9 123.5;" xml:space="preserve">
<style type="text/css">
	.st0{fill:#FFFFFF;}
</style>
<g id="Layer_1-2">
	<path class="st0" d="M1.3,77.8l3-3c2.2,2.2,4.2,3.1,6.5,3.1c3.2,0,5-1.6,5-4c0-6.4-14-2.8-14-12.5c0-5.2,3.9-8.5,9.8-8.5
		c3.6,0,6.6,1.4,8.5,3.5L17,59.5c-1.6-1.6-3.2-2.5-5.4-2.5c-3,0-4.9,1.5-4.9,3.9c0,6.1,14.1,2.1,14.1,12.2c0,5.4-4.1,8.8-10.2,8.8
		C6.5,82,3.4,80.3,1.3,77.8z"/>
	<path class="st0" d="M25.4,71.8V53.4h4.9v17.9c0,4.1,2.4,6.1,6,6.1s5.9-2,5.9-6.1V53.4h4.9v18.3c0,6.8-4.3,10.2-10.8,10.2
		S25.4,78.6,25.4,71.8z"/>
	<path class="st0" d="M51.6,77.8l3-3c2.2,2.2,4.2,3.1,6.5,3.1c3.2,0,5-1.6,5-4c0-6.4-14-2.8-14-12.5c0-5.2,3.9-8.5,9.8-8.5
		c3.6,0,6.6,1.4,8.5,3.5l-3.1,3.1C65.7,57.9,64.1,57,62,57c-3,0-4.9,1.5-4.9,3.9c0,6.1,14.1,2.1,14.1,12.2C71.2,78.5,67,82,61,82
		C56.8,82,53.7,80.3,51.6,77.8z"/>
	<path class="st0" d="M75.3,76.8V58.1c0-2.7,2-4.7,4.7-4.7h13.6v4.5h-12c-0.8,0-1.5,0.6-1.5,1.4v5.9h12.6v4.3H80.2v6
		c0,0.8,0.6,1.4,1.5,1.4h12v4.5H80C77.3,81.4,75.3,79.5,75.3,76.8z"/>
	<path class="st0" d="M0,95.1h3.6l8.6,23.8l8.6-23.8h3.6l-10.4,28h-3.6L0,95.1z"/>
	<path class="st0" d="M28.8,106.6h-3.7v-2.8H32v19.2h-3.2C28.8,123.1,28.8,106.6,28.8,106.6z M28.7,95h3.5v4.6h-3.5V95z"/>
	<path class="st0" d="M38.4,103.8h3.2v3.1c0.9-2.4,3-3.2,5.3-3.2h1.6v3.2h-1.9c-3.1,0-5,1.5-5,4.7v11.4h-3.2V103.8z"/>
	<path class="st0" d="M53.9,117.9v-11.3h-3.5v-2.8h3.5v-4.8h3.2v4.8h5v2.8h-5v11.5c0,1.2,0.9,2.2,2.1,2.2h2.9v2.8h-3
		C56.6,123.1,53.9,121.7,53.9,117.9z"/>
	<path class="st0" d="M66.4,115.6v-11.7h3.2V115c0,4.1,2.1,5.5,4.8,5.5c2.9,0,5.3-1.9,5.3-5.8v-10.9H83v19.2h-2.8v-3
		c-1.6,2.6-4.3,3.4-6.4,3.4C69.6,123.5,66.4,121.1,66.4,115.6L66.4,115.6z"/>
	<path class="st0" d="M101.1,121.2c-1.1,1.5-3,2.3-5.7,2.3c-4.6,0-7.4-2.3-7.4-5.7s2.8-6,7.8-6c2.1,0,3.7,0.5,4.9,1.3v-2.5
		c0-2.9-1.5-4.3-4.5-4.3c-2,0-4.4,0.8-6,2.3l-1.5-2.2c1.7-2,4.7-3,7.7-3c4.5,0,7.6,2.4,7.6,7.2v6.2c0,2.1,0,4.2,0.1,6.3h-2.9V121.2
		L101.1,121.2z M96,121c2.9,0,4.7-1.3,4.7-3.3s-1.8-3.3-4.7-3.3s-4.8,1.3-4.8,3.3S93.1,121,96,121z"/>
	<path class="st0" d="M110.2,118.2V96.6h-3.5v-2.8h6.8v24.3c0,1.2,0.9,2.1,2.1,2.1h1.8v2.8h-2C112.3,123.1,110.2,121.2,110.2,118.2z
		"/>
	<path class="st0" d="M121.7,106.6H118v-2.8h6.9v19.2h-3.2C121.7,123.1,121.7,106.6,121.7,106.6z M121.6,95h3.5v4.6h-3.5V95z"/>
	<path class="st0" d="M129.2,120.6l10.5-13.8h-10.4v-2.9h14.3v2.6l-10.6,13.8h10.8v2.8h-14.6L129.2,120.6L129.2,120.6z"/>
	<path class="st0" d="M159.8,121.2c-1.1,1.5-3,2.3-5.7,2.3c-4.6,0-7.4-2.3-7.4-5.7s2.8-6,7.8-6c2.1,0,3.7,0.5,4.9,1.3v-2.5
		c0-2.9-1.5-4.3-4.5-4.3c-2,0-4.4,0.8-6,2.3l-1.5-2.2c1.7-2,4.7-3,7.7-3c4.5,0,7.6,2.4,7.6,7.2v6.2c0,2.1,0,4.2,0.1,6.3h-2.9V121.2
		L159.8,121.2z M154.7,121c2.9,0,4.7-1.3,4.7-3.3s-1.8-3.3-4.7-3.3s-4.8,1.3-4.8,3.3S151.8,121,154.7,121z"/>
	<path class="st0" d="M169.2,117.9v-11.3h-3.5v-2.8h3.5v-4.8h3.2v4.8h5v2.8h-5v11.5c0,1.2,0.9,2.2,2.1,2.2h2.9v2.8h-3
		C171.9,123.1,169.2,121.7,169.2,117.9L169.2,117.9z"/>
	<path class="st0" d="M182.9,106.6h-3.7v-2.8h6.9v19.2h-3.2C182.9,123.1,182.9,106.6,182.9,106.6z M182.8,95h3.5v4.6h-3.5V95z"/>
	<path class="st0" d="M191.1,113.6v-0.4c0-5.7,4.1-9.8,9.6-9.8s9.5,4,9.5,9.7v0.4c0,5.8-4,9.9-9.5,9.9S191.1,119.4,191.1,113.6z
		 M200.7,120.6c3.7,0,6.3-2.9,6.3-7v-0.4c0-4-2.6-6.8-6.3-6.8s-6.4,2.8-6.4,6.9v0.4C194.3,117.7,196.9,120.6,200.7,120.6z"/>
	<path class="st0" d="M215.1,103.8h3.1v3c1.6-2.6,4.3-3.4,6.4-3.4c4.3,0,7.3,2.8,7.3,8.3v11.3h-3.2v-10.8c0-4.1-2.1-5.8-4.9-5.8
		c-3,0-5.4,2-5.4,5.9v10.8h-3.2L215.1,103.8L215.1,103.8z"/>
	<g id="Layer_1-3">
		<path class="st0" d="M88.8,14.1c-0.6-0.6-1.5-0.6-2.1,0c-0.7,0.6-0.6,1.8,0.2,2.3c0.5,0.3,1.2,0.3,1.6,0
			C89.4,15.8,89.5,14.7,88.8,14.1 M86.9,9c-4-0.9-7.6,2.6-6.6,6.6c0.5,2,2.1,3.6,4.1,4.1c4,0.9,7.6-2.6,6.7-6.6
			C90.5,11.1,88.9,9.5,86.9,9 M60.5,31.5c-2.6-1-3.6-0.8-6.9-0.7c-2.3,0-2.4,0-5,0c-0.8,0-1.1,3.9,1.8,4.7c1.3,0.4,2.7,0.6,3.7,1.6
			c0.4,0.4,0.7,1.1-0.3,1.1h-7.3c-1.3,0-2.5,0-3.5-0.8c-1.5-1.2-2.2-3-2.9-4.7c-0.8-1.8-1.6-3.5-2.6-5.2c-1.9-3.3-4.5-6.3-7.9-8.1
			c-4.3-2.3-11.5-3.4-17.3,1c-6.1,4.6-4.8,13.4,0.5,17.6c2.1,1.7,4.8,2.4,7.5,2.2c5.2-0.3,9.1-4.2,8.1-8.9c-0.3-1.6-1.2-3.1-2.6-3.9
			c-1-0.6-2.2-0.8-3.3-0.8c-1.2,0-2.5,0.2-3.4,1.1c-1,1-1.2,2.8-0.4,4c0.5,0.7,1.2,1.2,1.1,2.1c-0.1,0.6-0.6,1-1.1,1.2
			c-1,0.2-1.9-0.3-2.5-1c-1.7-1.8-2.2-4.5-1.3-6.8c1.2-3,4.6-4.6,7.8-4.5c4.1,0.1,8,2.9,9.7,6.6s1.2,8.4-1.1,11.8
			c-5.2,7.6-18,6.7-23.9,0.3c-3.7-4-5.8-7.9-5.5-15.1C2,21,5,16,8.7,12.5C14.9,6.7,22.9,2.8,31.1,1c5-1,10.1-1.3,15.2-0.8
			c4.5,0.4,8.9,1.3,13.2,2.6c2.1,0.7,4.2,1.4,6.2,2.4c1.8,0.8,4.1,1.7,5.5,3.1c0-2.6-0.1-5.4-0.1-7.3c0-0.8,0.8-1.3,1.5-0.9
			c2.9,1.4,9.8,4.6,14.4,6.7c6.1,2.8,6.6,9.4,6.8,15.3c0,0.1,0,0.3-0.1,0.4c-0.2,0.4-1.2,0.3-1.6,0.3c-0.7,0-1.8,0-2.6,0
			c-1.5,0.1-2.9,0-4.4,0c-2.7-0.1-5.3-1.3-7.1-2.8c-0.2-0.1-0.7-0.3-1,0c-0.3,0.3-0.2,0.7,0,0.9c1,1,2.1,1.7,3.4,2.3
			c1.6,0.8,3.4,1,5.2,1.1c1.9,0.1,3.8,0.1,5.7-0.1c1.6-0.2,2-0.3,0.4,0.9c-1.4,1-3,1.8-4.6,2.3c-2.3,0.8-4.8,1.2-7.2,1.2
			c-1.5,0-3,0-4.4-0.2c-0.8-0.1-1.5-0.2-2.3-0.3c-0.6-0.1-1.3-0.2-1.9,0c-0.6,0.1-1.1,0.4-1.4,0.9c-0.5,0.6-0.7,2.4-0.4,3.1
			c0.5,1.5,1.7,2.3,3,3.1c1.4,0.8,3.2,1.1,3.5,2.6c0.1,0.3-2.8,0.3-3.2,0.3h-3.8c0,0-2.1,0-2.9-0.2c0,0-0.1,0-0.1,0
			c-0.4-0.2-0.6-0.8-0.8-1.3c-0.2-0.6-0.6-1.3-1.1-1.9C63.2,33.4,61.9,32,60.5,31.5 M89.7,14.4c0,2.3-1.8,4.1-4.1,4.1
			s-4.1-1.8-4.1-4.1s1.8-4.1,4.1-4.1S89.7,12.1,89.7,14.4"/>
	</g>
</g>
</svg>
