<?xml version="1.0" encoding="UTF-8"?>
<svg id="Layer_1" data-name="Layer 1" xmlns="http://www.w3.org/2000/svg" viewBox="0 0 278.35 73.88">
  <defs>
    <style>
      .cls-1 {
        fill: #41af76;
      }

      .cls-2 {
        fill: #093734;
      }
    </style>
  </defs>
  <g id="Layer_1-2" data-name="Layer 1">
    <path class="cls-1" d="M66.12,17.95c-.38.25-.88.25-1.25,0-.62-.41-.68-1.26-.18-1.76.44-.46,1.17-.46,1.61,0,.49.49.44,1.35-.18,1.76M67.91,15.46c.72,3.04-2.02,5.78-5.06,5.06-1.55-.36-2.78-1.59-3.14-3.14-.71-3.04,2.02-5.77,5.06-5.06,1.55.36,2.78,1.59,3.14,3.14M47.44,31.82c.35.5.64.98.8,1.46.11.34.26.79.6.98.02.01.04.02.06.03.62.23,2.21.19,2.21.19h2.93c.25,0,2.45,0,2.4-.25-.26-1.18-1.63-1.39-2.67-2.01-.96-.57-1.86-1.22-2.28-2.33-.21-.57-.09-1.9.28-2.38.27-.35.67-.58,1.09-.67.47-.1.96-.01,1.44.03.58.06,1.16.16,1.74.24,1.12.15,2.26.2,3.39.17,1.87-.05,3.74-.35,5.51-.95,1.24-.41,2.45-.98,3.5-1.76,1.19-.89.88-.8-.33-.68-1.45.15-2.91.17-4.37.08-1.36-.08-2.7-.24-3.92-.87-.97-.5-1.8-1-2.56-1.77-.11-.12-.19-.46.02-.68.2-.21.64-.09.77.02,1.34,1.12,3.33,2.04,5.4,2.14,1.12.06,2.2.08,3.32.03.56-.03,1.4-.02,1.96-.03.29,0,1.08.08,1.22-.23.05-.09.04-.19.04-.29-.16-4.47-.49-9.51-5.17-11.64-3.49-1.6-8.72-4.07-10.93-5.09-.51-.24-1.11.14-1.11.71,0,1.49.08,3.64.08,5.59-1.06-1.08-2.84-1.76-4.2-2.38-1.54-.71-3.13-1.31-4.75-1.81-3.26-1.01-6.64-1.63-10.03-1.97-3.85-.38-7.77-.2-11.56.58-6.25,1.29-12.38,4.3-17.04,8.69C2.42,17.67.17,21.5.02,25.38c-.22,5.5,1.33,8.46,4.16,11.5,4.52,4.85,14.24,5.53,18.18-.22,1.77-2.59,2.16-6.1.87-8.97-1.29-2.86-4.24-4.93-7.38-5.04-2.43-.08-5.02,1.16-5.95,3.41-.71,1.72-.31,3.84.99,5.17.5.52,1.19.95,1.94.78.44-.1.81-.43.87-.88.1-.66-.48-1.09-.83-1.59-.64-.91-.51-2.28.29-3.06.68-.65,1.68-.85,2.62-.85.88,0,1.77.16,2.53.6,1.06.62,1.77,1.77,2.01,2.98.73,3.61-2.21,6.55-6.19,6.78-2.04.12-4.11-.41-5.7-1.69-4.03-3.24-5.01-9.87-.41-13.4,4.37-3.36,9.89-2.49,13.14-.75,2.6,1.4,4.55,3.68,6.01,6.2.74,1.27,1.37,2.6,1.95,3.94.56,1.3,1.09,2.6,2.21,3.55.74.63,1.66.61,2.64.61h5.56c.75,0,.57-.5.24-.84-.74-.75-1.8-.92-2.78-1.19-2.24-.62-2.01-3.58-1.39-3.58,2,0,2.07.06,3.82.04,2.53-.04,3.3-.18,5.28.55,1.06.39,2.08,1.43,2.74,2.37"/>
  </g>
  <g>
    <path class="cls-2" d="M88.15,34.56c-2.08,0-3.89-.39-5.44-1.16-1.55-.77-2.87-1.8-3.96-3.08l3.04-3.04c1.09,1.12,2.16,1.92,3.2,2.4s2.15.72,3.32.72c1.57,0,2.81-.37,3.7-1.1.89-.73,1.34-1.69,1.34-2.86,0-.91-.25-1.65-.76-2.22-.51-.57-1.17-1.04-2-1.4-.83-.36-1.74-.68-2.74-.96-1-.28-1.99-.59-2.98-.94-.99-.35-1.89-.8-2.72-1.36-.83-.56-1.49-1.29-2-2.2-.51-.91-.76-2.04-.76-3.4,0-1.76.4-3.27,1.2-4.54.8-1.27,1.94-2.25,3.42-2.94,1.48-.69,3.19-1.04,5.14-1.04,1.81,0,3.45.32,4.9.96,1.45.64,2.65,1.49,3.58,2.56l-3.12,3.12c-.8-.83-1.63-1.45-2.48-1.86-.85-.41-1.83-.62-2.92-.62-1.47,0-2.64.35-3.52,1.06s-1.32,1.65-1.32,2.82c0,.85.25,1.55.76,2.08.51.53,1.18.95,2.02,1.26.84.31,1.76.59,2.76.84s2.01.55,3.02.9c1.01.35,1.93.8,2.76,1.36.83.56,1.49,1.31,2,2.24.51.93.76,2.12.76,3.56,0,1.79-.43,3.34-1.28,4.66-.85,1.32-2.05,2.35-3.58,3.08-1.53.73-3.31,1.1-5.34,1.1Z"/>
    <path class="cls-2" d="M113.51,34.56c-3.28,0-5.91-.85-7.88-2.54-1.97-1.69-2.96-4.26-2.96-7.7V6h4.92v17.92c0,2.03.53,3.55,1.6,4.56,1.07,1.01,2.51,1.52,4.32,1.52s3.26-.51,4.34-1.52c1.08-1.01,1.62-2.53,1.62-4.56V6h4.92v18.32c0,2.27-.45,4.16-1.36,5.68-.91,1.52-2.17,2.66-3.8,3.42-1.63.76-3.53,1.14-5.72,1.14Z"/>
    <path class="cls-2" d="M137.91,34.56c-2.08,0-3.89-.39-5.44-1.16-1.55-.77-2.87-1.8-3.96-3.08l3.04-3.04c1.09,1.12,2.16,1.92,3.2,2.4s2.15.72,3.32.72c1.57,0,2.81-.37,3.7-1.1.89-.73,1.34-1.69,1.34-2.86,0-.91-.25-1.65-.76-2.22-.51-.57-1.17-1.04-2-1.4-.83-.36-1.74-.68-2.74-.96-1-.28-1.99-.59-2.98-.94-.99-.35-1.89-.8-2.72-1.36-.83-.56-1.49-1.29-2-2.2-.51-.91-.76-2.04-.76-3.4,0-1.76.4-3.27,1.2-4.54.8-1.27,1.94-2.25,3.42-2.94,1.48-.69,3.19-1.04,5.14-1.04,1.81,0,3.45.32,4.9.96,1.45.64,2.65,1.49,3.58,2.56l-3.12,3.12c-.8-.83-1.63-1.45-2.48-1.86-.85-.41-1.83-.62-2.92-.62-1.47,0-2.64.35-3.52,1.06s-1.32,1.65-1.32,2.82c0,.85.25,1.55.76,2.08.51.53,1.18.95,2.02,1.26.84.31,1.76.59,2.76.84s2.01.55,3.02.9c1.01.35,1.93.8,2.76,1.36.83.56,1.49,1.31,2,2.24.51.93.76,2.12.76,3.56,0,1.79-.43,3.34-1.28,4.66-.85,1.32-2.05,2.35-3.58,3.08-1.53.73-3.31,1.1-5.34,1.1Z"/>
    <path class="cls-2" d="M157.07,34c-1.36,0-2.47-.44-3.34-1.32-.87-.88-1.3-2-1.3-3.36V10.68c0-1.36.43-2.48,1.3-3.36.87-.88,1.98-1.32,3.34-1.32h13.64v4.48h-12c-.4,0-.74.14-1.02.42s-.42.62-.42,1.02v16.16c0,.4.14.74.42,1.02s.62.42,1.02.42h12v4.48h-13.64ZM154.79,22.08v-4.28h15.08v4.28h-15.08Z"/>
    <path class="cls-2" d="M197.79,34.6c-1.97,0-3.83-.35-5.56-1.04-1.73-.69-3.25-1.67-4.56-2.94-1.31-1.27-2.32-2.77-3.04-4.52s-1.08-3.67-1.08-5.78v-.64c0-2.11.36-4.03,1.08-5.78.72-1.75,1.73-3.25,3.04-4.52,1.31-1.27,2.83-2.25,4.56-2.94,1.73-.69,3.59-1.04,5.56-1.04,1.73,0,3.34.26,4.82.78s2.81,1.26,3.98,2.22l-2.16,2.56c-1.84-1.49-4.05-2.24-6.64-2.24-1.52,0-2.93.27-4.24.8-1.31.53-2.45,1.29-3.44,2.26-.99.97-1.75,2.13-2.28,3.46-.53,1.33-.8,2.81-.8,4.44v.64c0,1.63.27,3.11.8,4.44.53,1.33,1.29,2.49,2.28,3.46.99.97,2.13,1.73,3.44,2.26,1.31.53,2.72.8,4.24.8,2.64,0,4.88-.79,6.72-2.36l2.16,2.6c-1.15.96-2.48,1.71-4,2.26-1.52.55-3.15.82-4.88.82Z"/>
    <path class="cls-2" d="M216.47,34.4c-2.27,0-4.07-.52-5.4-1.56-1.33-1.04-2-2.41-2-4.12,0-1.09.3-2.09.9-3,.6-.91,1.48-1.63,2.64-2.16,1.16-.53,2.57-.8,4.22-.8,2.21,0,3.93.5,5.16,1.5,1.23,1,1.84,2.33,1.84,3.98h-.64c0,1.97-.56,3.49-1.68,4.56-1.12,1.07-2.8,1.6-5.04,1.6ZM222.15,34v-7.28l-.4-1.08v-4.08c0-1.44-.37-2.51-1.12-3.22-.75-.71-1.87-1.06-3.36-1.06-.99,0-2.03.2-3.12.6-1.09.4-2.07.99-2.92,1.76l-1.52-2.28c.93-.96,2.08-1.7,3.44-2.22,1.36-.52,2.77-.78,4.24-.78s2.81.27,3.94.8c1.13.53,2.02,1.33,2.66,2.38.64,1.05.96,2.38.96,3.98v6.16c0,1.07,0,2.12.02,3.16.01,1.04.05,2.09.1,3.16h-2.92ZM217.07,31.96c1.44,0,2.58-.3,3.42-.9s1.26-1.41,1.26-2.42-.41-1.81-1.24-2.4c-.83-.59-1.97-.88-3.44-.88s-2.63.29-3.48.88c-.85.59-1.28,1.39-1.28,2.4s.43,1.82,1.3,2.42c.87.6,2.02.9,3.46.9Z"/>
    <path class="cls-2" d="M230.75,34V14.76h3.12v4.92l-.44-.04c.19-1.31.55-2.32,1.1-3.04.55-.72,1.22-1.22,2.02-1.5.8-.28,1.68-.42,2.64-.42h1.64v3.2h-1.88c-1.55,0-2.76.38-3.64,1.14-.88.76-1.32,1.95-1.32,3.58v11.4h-3.24Z"/>
    <path class="cls-2" d="M252.03,34.4c-1.89,0-3.57-.42-5.02-1.26-1.45-.84-2.59-2.01-3.4-3.5-.81-1.49-1.22-3.21-1.22-5.16v-.4c0-1.87.37-3.53,1.12-4.98.75-1.45,1.8-2.61,3.16-3.46,1.36-.85,2.93-1.28,4.72-1.28s3.41.45,4.72,1.36c1.31.91,2.27,2.19,2.9,3.84.63,1.65.81,3.59.54,5.8h-14.84v-2.64h13.12l-1.44,1.4c.19-1.47.09-2.71-.3-3.74-.39-1.03-.98-1.82-1.78-2.38-.8-.56-1.76-.84-2.88-.84-1.23,0-2.27.29-3.14.88-.87.59-1.53,1.39-2,2.42-.47,1.03-.7,2.23-.7,3.62v.4c0,1.33.27,2.53.8,3.58.53,1.05,1.29,1.88,2.28,2.48.99.6,2.16.9,3.52.9,1.01,0,1.91-.13,2.68-.38.77-.25,1.45-.63,2.04-1.14l1.84,2c-.75.8-1.7,1.41-2.86,1.84-1.16.43-2.45.64-3.86.64Z"/>
    <path class="cls-2" d="M269.51,34.36c-1.41,0-2.74-.22-3.98-.66-1.24-.44-2.25-1.01-3.02-1.7l1.44-2.24c.72.61,1.58,1.11,2.58,1.48s1.99.56,2.98.56c1.2,0,2.17-.27,2.92-.82.75-.55,1.12-1.26,1.12-2.14,0-.77-.25-1.36-.76-1.76-.51-.4-1.15-.71-1.94-.94-.79-.23-1.61-.45-2.48-.68-.87-.23-1.69-.53-2.48-.9-.79-.37-1.43-.91-1.92-1.6-.49-.69-.74-1.64-.74-2.84,0-1.71.63-3.09,1.9-4.16,1.27-1.07,2.97-1.6,5.1-1.6,1.2,0,2.34.18,3.42.54s2.02.83,2.82,1.42l-1.44,2.24c-.69-.51-1.45-.91-2.26-1.2-.81-.29-1.67-.44-2.58-.44-1.15,0-2.08.27-2.8.82-.72.55-1.08,1.26-1.08,2.14,0,.75.25,1.32.76,1.72.51.4,1.15.72,1.94.96.79.24,1.63.47,2.52.7.89.23,1.74.53,2.54.92.8.39,1.45.93,1.94,1.64.49.71.74,1.66.74,2.86,0,1.12-.31,2.11-.92,2.96-.61.85-1.47,1.52-2.56,2-1.09.48-2.35.72-3.76.72Z"/>
    <path class="cls-2" d="M80.06,68v-19.6h5.82c1.29,0,2.41.23,3.36.69.95.46,1.69,1.12,2.23,1.97.53.86.8,1.89.8,3.11s-.27,2.25-.8,3.11c-.53.86-1.27,1.52-2.23,1.97-.95.46-2.07.69-3.36.69h-4.93v-1.6h5.01c1.33,0,2.4-.37,3.23-1.12s1.25-1.76,1.25-3.05-.42-2.27-1.25-3.01-1.91-1.11-3.23-1.11h-4.82l.78-.76v18.7h-1.88Z"/>
    <path class="cls-2" d="M95.35,68v-20.44h1.71v10.64h-.48c.21-.75.5-1.37.88-1.86.38-.49.82-.89,1.3-1.19.49-.3.98-.51,1.48-.63.5-.12.98-.18,1.43-.18,1.51,0,2.74.48,3.7,1.44.95.96,1.43,2.43,1.43,4.41v7.81h-1.79v-7.59c0-1.57-.35-2.7-1.06-3.39-.71-.69-1.61-1.04-2.69-1.04-.75,0-1.43.17-2.04.5-.62.34-1.12.83-1.5,1.48-.38.65-.57,1.47-.57,2.46v7.56h-1.79Z"/>
    <path class="cls-2" d="M111.75,68v-12.6l.81.78h-3.47v-1.57h4.45v13.38h-1.79ZM111.7,51.54v-3.02h1.9v3.02h-1.9Z"/>
    <path class="cls-2" d="M121.39,68c-1.01,0-1.83-.3-2.46-.9-.64-.6-.95-1.39-.95-2.38v-16.41l.78.78h-3.36v-1.54h4.37v17.19c0,.49.16.89.48,1.22.32.33.73.49,1.23.49h1.2v1.54h-1.29Z"/>
    <path class="cls-2" d="M129.48,68.28c-1.57,0-2.81-.36-3.74-1.08s-1.39-1.67-1.39-2.84c0-.77.21-1.45.62-2.06.41-.61,1.02-1.09,1.82-1.44.8-.35,1.76-.53,2.88-.53,1.55,0,2.75.35,3.6,1.04.85.69,1.27,1.61,1.27,2.74h-.34c0,1.31-.39,2.33-1.18,3.07-.78.74-1.97,1.11-3.56,1.11ZM133.59,68l-.03-4.87-.2-.53v-3.28c0-1.16-.29-2.01-.87-2.55-.58-.54-1.42-.81-2.52-.81-.73,0-1.48.14-2.25.42-.77.28-1.45.71-2.03,1.29l-.87-1.26c.63-.69,1.41-1.21,2.34-1.55.92-.35,1.88-.52,2.87-.52s1.89.18,2.66.55c.77.36,1.36.91,1.79,1.64.43.73.64,1.65.64,2.77v4.26c0,.75,0,1.49.01,2.23,0,.74.03,1.48.07,2.23h-1.62ZM129.81,66.91c1.12,0,1.99-.24,2.62-.71s.94-1.1.94-1.86-.31-1.4-.94-1.86-1.51-.69-2.65-.69-2.01.23-2.66.69c-.65.46-.98,1.08-.98,1.86s.33,1.39.98,1.86c.65.48,1.55.71,2.69.71Z"/>
    <path class="cls-2" d="M139.42,68v-13.38h1.71v3.58h-.48c.21-.75.5-1.37.88-1.86.38-.49.82-.89,1.3-1.19.49-.3.98-.51,1.48-.63.5-.12.98-.18,1.43-.18,1.51,0,2.74.48,3.7,1.44.95.96,1.43,2.43,1.43,4.41v7.81h-1.79v-7.59c0-1.57-.35-2.7-1.06-3.39-.71-.69-1.61-1.04-2.69-1.04-.75,0-1.43.17-2.04.5-.62.34-1.12.83-1.5,1.48-.38.65-.57,1.47-.57,2.46v7.56h-1.79Z"/>
    <path class="cls-2" d="M153.17,56.18v-1.57h7.98v1.57h-7.98ZM159.16,68c-.45,0-.88-.07-1.3-.2-.42-.13-.79-.34-1.12-.62-.33-.28-.58-.63-.77-1.05-.19-.42-.28-.93-.28-1.53v-13.33h1.76v13.44c0,.5.17.92.5,1.25s.74.49,1.2.49h1.99v1.54h-1.99Z"/>
    <path class="cls-2" d="M164.28,68v-20.44h1.71v10.64h-.48c.21-.75.5-1.37.88-1.86.38-.49.82-.89,1.3-1.19.49-.3.98-.51,1.48-.63.5-.12.98-.18,1.43-.18,1.51,0,2.74.48,3.7,1.44.95.96,1.43,2.43,1.43,4.41v7.81h-1.79v-7.59c0-1.57-.35-2.7-1.06-3.39-.71-.69-1.61-1.04-2.69-1.04-.75,0-1.43.17-2.04.5-.62.34-1.12.83-1.5,1.48-.38.65-.57,1.47-.57,2.46v7.56h-1.79Z"/>
    <path class="cls-2" d="M179.96,68v-13.38h1.74v3.19l-.28-.03c.17-.86.44-1.52.83-1.97.38-.46.85-.77,1.4-.95.55-.18,1.15-.27,1.81-.27h1.15v1.76h-1.29c-1.1,0-1.97.28-2.6.84-.63.56-.95,1.46-.95,2.69v8.12h-1.79Z"/>
    <path class="cls-2" d="M194.3,68.28c-1.27,0-2.4-.29-3.39-.88-.99-.59-1.76-1.4-2.32-2.44s-.84-2.23-.84-3.6v-.25c0-1.33.28-2.5.84-3.51.56-1.02,1.33-1.82,2.32-2.39.99-.58,2.12-.87,3.39-.87s2.37.28,3.36.85c.99.57,1.76,1.36,2.32,2.38.56,1.02.84,2.18.84,3.49v.31c0,1.36-.28,2.56-.84,3.6s-1.33,1.85-2.32,2.44c-.99.59-2.11.88-3.36.88ZM194.3,66.68c.93,0,1.76-.23,2.48-.69.72-.46,1.28-1.08,1.68-1.88.4-.79.6-1.71.6-2.76v-.31c0-1.01-.2-1.89-.6-2.66-.4-.77-.96-1.37-1.68-1.81-.72-.44-1.54-.66-2.48-.66s-1.76.22-2.48.67c-.72.45-1.28,1.06-1.69,1.83-.41.77-.62,1.67-.62,2.67v.25c0,1.05.21,1.96.62,2.76s.98,1.42,1.69,1.88c.72.46,1.54.69,2.48.69Z"/>
    <path class="cls-2" d="M204.32,73.6v-18.98h1.68v3.7l-.31-.36c.47-1.1,1.17-1.98,2.11-2.63.94-.65,2.02-.98,3.23-.98s2.29.29,3.23.87c.94.58,1.68,1.38,2.23,2.39.54,1.02.81,2.19.81,3.51v.25c0,1.36-.27,2.56-.8,3.6-.53,1.04-1.27,1.85-2.21,2.44-.94.59-2.03.88-3.26.88s-2.25-.32-3.18-.95c-.92-.63-1.62-1.48-2.09-2.55l.34-.39v9.21h-1.79ZM210.82,66.68c.91,0,1.73-.22,2.44-.67.71-.45,1.26-1.07,1.67-1.86.4-.79.6-1.72.6-2.79v-.25c0-1.03-.2-1.93-.6-2.7-.4-.77-.96-1.38-1.67-1.82-.71-.44-1.52-.66-2.44-.66s-1.74.23-2.46.69-1.3,1.09-1.72,1.89c-.42.8-.63,1.74-.63,2.8s.21,2,.63,2.81.99,1.44,1.72,1.89c.73.45,1.55.67,2.46.67Z"/>
    <path class="cls-2" d="M224.59,68.76l-5.82-14.14h1.96l4.93,12.24-1.06,1.9ZM218.96,73.6v-1.54h2.55c.47,0,.83-.16,1.11-.49.27-.33.49-.7.66-1.13l1.76-3.89,4.62-11.93h1.96l-6.52,15.88c-.21.5-.45.99-.74,1.47-.29.48-.67.87-1.13,1.18-.47.31-1.06.46-1.79.46h-2.46Z"/>
  </g>
</svg>