<?xml version="1.0" encoding="UTF-8"?>
<svg id="Layer_1" data-name="Layer 1" xmlns="http://www.w3.org/2000/svg" viewBox="0 0 668.69 37.5">
  <defs>
    <style>
      .cls-1 {
        fill: #30ba78;
      }

      .cls-2 {
        fill: #0c322c;
      }
    </style>
  </defs>
  <g id="Layer_1-2" data-name="Layer 1">
    <path class="cls-1" d="M68.56,12.93c-.39.26-.91.26-1.3,0-.64-.42-.7-1.31-.19-1.82.46-.47,1.21-.47,1.67,0,.51.51.45,1.4-.19,1.82M70.42,10.34c.74,3.15-2.09,5.99-5.25,5.25-1.61-.38-2.88-1.65-3.26-3.26-.74-3.15,2.09-5.98,5.24-5.25,1.61.37,2.88,1.65,3.26,3.25M49.19,27.3c.36.52.66,1.02.83,1.52.12.36.27.82.62,1.01.02.01.04.02.06.03.64.23,2.3.19,2.3.19h3.04c.26,0,2.55,0,2.49-.26-.27-1.22-1.69-1.44-2.77-2.08-.99-.59-1.93-1.26-2.36-2.42-.22-.6-.09-1.97.29-2.47.28-.36.69-.6,1.13-.7.49-.1,1-.01,1.49.04.6.06,1.2.17,1.81.25,1.16.15,2.34.21,3.51.18,1.94-.05,3.88-.36,5.71-.99,1.28-.43,2.54-1.01,3.63-1.82,1.24-.92.91-.83-.34-.71-1.5.15-3.02.18-4.53.09-1.41-.08-2.79-.25-4.07-.9-1-.52-1.86-1.04-2.66-1.84-.12-.12-.19-.48.02-.7.21-.22.66-.09.79.02,1.39,1.16,3.46,2.11,5.6,2.22,1.16.06,2.29.08,3.44.03.58-.03,1.45-.02,2.03-.03.3,0,1.12.08,1.27-.23.05-.09.04-.2.04-.3-.17-4.63-.51-9.86-5.36-12.07-3.62-1.65-9.04-4.22-11.33-5.28-.53-.25-1.15.15-1.15.74,0,1.55.08,3.77.08,5.8-1.1-1.12-2.95-1.82-4.36-2.47-1.6-.73-3.25-1.36-4.93-1.88-3.38-1.05-6.88-1.69-10.4-2.04-3.99-.4-8.05-.21-11.99.6-6.48,1.34-12.84,4.46-17.67,9.01C2.5,12.63.18,16.6.02,20.63c-.22,5.71,1.37,8.77,4.31,11.93,4.69,5.03,14.77,5.74,18.85-.23,1.84-2.69,2.24-6.33.9-9.3-1.33-2.97-4.4-5.11-7.65-5.22-2.52-.08-5.21,1.2-6.17,3.53-.74,1.78-.32,3.98,1.02,5.36.52.54,1.23.98,2.01.81.46-.1.84-.44.91-.91.1-.68-.5-1.13-.86-1.65-.66-.95-.53-2.37.3-3.17.7-.68,1.74-.88,2.72-.88.91,0,1.84.16,2.62.62,1.1.65,1.83,1.83,2.09,3.09.76,3.75-2.29,6.79-6.42,7.03-2.11.13-4.26-.43-5.91-1.76-4.18-3.36-5.2-10.23-.42-13.9,4.53-3.48,10.26-2.58,13.63-.77,2.7,1.45,4.71,3.81,6.24,6.43.77,1.32,1.42,2.69,2.02,4.09.58,1.34,1.13,2.7,2.29,3.68.77.65,1.72.63,2.73.63h5.77c.78,0,.59-.52.25-.87-.76-.78-1.86-.96-2.88-1.24-2.32-.64-2.09-3.72-1.44-3.72,2.08,0,2.14.06,3.96.04,2.63-.04,3.42-.19,5.48.57,1.1.41,2.15,1.48,2.84,2.46"/>
  </g>
  <g>
    <path class="cls-2" d="M94.62,30.06c-2.08,0-3.89-.39-5.44-1.16-1.55-.77-2.87-1.8-3.96-3.08l3.04-3.04c1.09,1.12,2.16,1.92,3.2,2.4s2.15.72,3.32.72c1.57,0,2.81-.37,3.7-1.1.89-.73,1.34-1.69,1.34-2.86,0-.91-.25-1.65-.76-2.22-.51-.57-1.17-1.04-2-1.4-.83-.36-1.74-.68-2.74-.96-1-.28-1.99-.59-2.98-.94-.99-.35-1.89-.8-2.72-1.36-.83-.56-1.49-1.29-2-2.2-.51-.91-.76-2.04-.76-3.4,0-1.76.4-3.27,1.2-4.54.8-1.27,1.94-2.25,3.42-2.94,1.48-.69,3.19-1.04,5.14-1.04,1.81,0,3.45.32,4.9.96,1.45.64,2.65,1.49,3.58,2.56l-3.12,3.12c-.8-.83-1.63-1.45-2.48-1.86-.85-.41-1.83-.62-2.92-.62-1.47,0-2.64.35-3.52,1.06s-1.32,1.65-1.32,2.82c0,.85.25,1.55.76,2.08.51.53,1.18.95,2.02,1.26.84.31,1.76.59,2.76.84s2.01.55,3.02.9c1.01.35,1.93.8,2.76,1.36.83.56,1.49,1.31,2,2.24.51.93.76,2.12.76,3.56,0,1.79-.43,3.34-1.28,4.66-.85,1.32-2.05,2.35-3.58,3.08-1.53.73-3.31,1.1-5.34,1.1Z"/>
    <path class="cls-2" d="M119.97,30.06c-3.28,0-5.91-.85-7.88-2.54-1.97-1.69-2.96-4.26-2.96-7.7V1.5h4.92v17.92c0,2.03.53,3.55,1.6,4.56,1.07,1.01,2.51,1.52,4.32,1.52s3.26-.51,4.34-1.52c1.08-1.01,1.62-2.53,1.62-4.56V1.5h4.92v18.32c0,2.27-.45,4.16-1.36,5.68-.91,1.52-2.17,2.66-3.8,3.42-1.63.76-3.53,1.14-5.72,1.14Z"/>
    <path class="cls-2" d="M144.37,30.06c-2.08,0-3.89-.39-5.44-1.16-1.55-.77-2.87-1.8-3.96-3.08l3.04-3.04c1.09,1.12,2.16,1.92,3.2,2.4s2.15.72,3.32.72c1.57,0,2.81-.37,3.7-1.1.89-.73,1.34-1.69,1.34-2.86,0-.91-.25-1.65-.76-2.22-.51-.57-1.17-1.04-2-1.4-.83-.36-1.74-.68-2.74-.96-1-.28-1.99-.59-2.98-.94-.99-.35-1.89-.8-2.72-1.36-.83-.56-1.49-1.29-2-2.2-.51-.91-.76-2.04-.76-3.4,0-1.76.4-3.27,1.2-4.54.8-1.27,1.94-2.25,3.42-2.94,1.48-.69,3.19-1.04,5.14-1.04,1.81,0,3.45.32,4.9.96,1.45.64,2.65,1.49,3.58,2.56l-3.12,3.12c-.8-.83-1.63-1.45-2.48-1.86-.85-.41-1.83-.62-2.92-.62-1.47,0-2.64.35-3.52,1.06s-1.32,1.65-1.32,2.82c0,.85.25,1.55.76,2.08.51.53,1.18.95,2.02,1.26.84.31,1.76.59,2.76.84s2.01.55,3.02.9c1.01.35,1.93.8,2.76,1.36.83.56,1.49,1.31,2,2.24.51.93.76,2.12.76,3.56,0,1.79-.43,3.34-1.28,4.66-.85,1.32-2.05,2.35-3.58,3.08-1.53.73-3.31,1.1-5.34,1.1Z"/>
    <path class="cls-2" d="M163.53,29.5c-1.36,0-2.47-.44-3.34-1.32-.87-.88-1.3-2-1.3-3.36V6.18c0-1.36.43-2.48,1.3-3.36.87-.88,1.98-1.32,3.34-1.32h13.64v4.48h-12c-.4,0-.74.14-1.02.42s-.42.62-.42,1.02v16.16c0,.4.14.74.42,1.02s.62.42,1.02.42h12v4.48h-13.64ZM161.25,17.58v-4.28h15.08v4.28h-15.08Z"/>
    <path class="cls-2" d="M191.73,29.5V1.5h9.2c2.67,0,4.75.63,6.26,1.9,1.51,1.27,2.26,2.95,2.26,5.06,0,1.25-.27,2.41-.8,3.46-.53,1.05-1.33,1.89-2.4,2.52-1.07.63-2.4.94-4,.94l.04-.6c1.68,0,3.12.31,4.32.94s2.13,1.47,2.8,2.54c.67,1.07,1,2.25,1,3.56,0,2.32-.78,4.18-2.34,5.58s-3.85,2.1-6.86,2.1h-9.48ZM194.37,28.22l-1.08-1h7.56c2.27,0,3.97-.51,5.1-1.54,1.13-1.03,1.7-2.38,1.7-4.06,0-1.01-.27-1.93-.8-2.76-.53-.83-1.27-1.47-2.2-1.94-.93-.47-2.05-.7-3.36-.7h-7.88v-2.2h7.56c1.87,0,3.3-.49,4.3-1.48,1-.99,1.5-2.25,1.5-3.8s-.54-2.69-1.62-3.6c-1.08-.91-2.57-1.36-4.46-1.36h-7.4l1.08-1v25.44Z"/>
    <path class="cls-2" d="M215.33,29.5V10.38h2.48v4.56l-.4-.04c.24-1.23.63-2.17,1.18-2.82.55-.65,1.21-1.11,2-1.36.79-.25,1.65-.38,2.58-.38h1.64v2.52h-1.84c-1.57,0-2.81.4-3.72,1.2-.91.8-1.36,2.08-1.36,3.84v11.6h-2.56Z"/>
    <path class="cls-2" d="M233.73,29.9c-2.24,0-4.02-.51-5.34-1.54-1.32-1.03-1.98-2.38-1.98-4.06,0-1.09.29-2.07.88-2.94.59-.87,1.45-1.55,2.6-2.06,1.15-.51,2.52-.76,4.12-.76,2.21,0,3.93.49,5.14,1.48,1.21.99,1.82,2.29,1.82,3.92h-.48c0,1.87-.56,3.33-1.68,4.38-1.12,1.05-2.81,1.58-5.08,1.58ZM239.61,29.5l-.04-6.96-.28-.76v-4.68c0-1.65-.41-2.87-1.24-3.64-.83-.77-2.03-1.16-3.6-1.16-1.04,0-2.11.2-3.22.6-1.11.4-2.07,1.01-2.9,1.84l-1.24-1.8c.91-.99,2.02-1.73,3.34-2.22,1.32-.49,2.69-.74,4.1-.74s2.71.26,3.8.78c1.09.52,1.95,1.3,2.56,2.34.61,1.04.92,2.36.92,3.96v6.08c0,1.07,0,2.13.02,3.18.01,1.05.05,2.11.1,3.18h-2.32ZM234.21,27.94c1.6,0,2.85-.34,3.74-1.02.89-.68,1.34-1.57,1.34-2.66s-.45-2.01-1.34-2.66c-.89-.65-2.15-.98-3.78-.98s-2.87.33-3.8.98c-.93.65-1.4,1.54-1.4,2.66s.47,1.98,1.4,2.66c.93.68,2.21,1.02,3.84,1.02Z"/>
    <path class="cls-2" d="M247.93,29.5V10.38h2.44v5.12h-.68c.29-1.07.71-1.95,1.26-2.66.55-.71,1.17-1.27,1.86-1.7.69-.43,1.4-.73,2.12-.9.72-.17,1.4-.26,2.04-.26,2.16,0,3.92.69,5.28,2.06,1.36,1.37,2.04,3.47,2.04,6.3v11.16h-2.56v-10.84c0-2.24-.51-3.85-1.52-4.84-1.01-.99-2.29-1.48-3.84-1.48-1.07,0-2.04.24-2.92.72-.88.48-1.59,1.19-2.14,2.12-.55.93-.82,2.11-.82,3.52v10.8h-2.56Z"/>
    <path class="cls-2" d="M277.97,29.9c-1.73,0-3.28-.42-4.64-1.26-1.36-.84-2.42-2-3.18-3.48-.76-1.48-1.14-3.19-1.14-5.14v-.36c0-1.89.39-3.57,1.16-5.02.77-1.45,1.83-2.59,3.18-3.42,1.35-.83,2.89-1.24,4.62-1.24s3.25.45,4.56,1.36c1.31.91,2.29,2.12,2.96,3.64l-.48.6V.3h2.56v29.2h-2.32v-5.36l.44.52c-.69,1.63-1.71,2.91-3.04,3.84-1.33.93-2.89,1.4-4.68,1.4ZM278.29,27.62c1.33,0,2.52-.32,3.56-.96,1.04-.64,1.85-1.54,2.44-2.7.59-1.16.88-2.5.88-4.02s-.29-2.85-.88-4c-.59-1.15-1.4-2.05-2.44-2.7s-2.23-.98-3.56-.98-2.47.31-3.5.94c-1.03.63-1.82,1.49-2.38,2.6-.56,1.11-.84,2.39-.84,3.86v.36c0,1.52.28,2.85.84,3.98.56,1.13,1.35,2.02,2.38,2.66,1.03.64,2.19.96,3.5.96Z"/>
    <path class="cls-2" d="M309.25,29.9c-2.24,0-4.02-.51-5.34-1.54-1.32-1.03-1.98-2.38-1.98-4.06,0-1.09.29-2.07.88-2.94.59-.87,1.45-1.55,2.6-2.06,1.15-.51,2.52-.76,4.12-.76,2.21,0,3.93.49,5.14,1.48,1.21.99,1.82,2.29,1.82,3.92h-.48c0,1.87-.56,3.33-1.68,4.38-1.12,1.05-2.81,1.58-5.08,1.58ZM315.13,29.5l-.04-6.96-.28-.76v-4.68c0-1.65-.41-2.87-1.24-3.64-.83-.77-2.03-1.16-3.6-1.16-1.04,0-2.11.2-3.22.6-1.11.4-2.07,1.01-2.9,1.84l-1.24-1.8c.91-.99,2.02-1.73,3.34-2.22,1.32-.49,2.69-.74,4.1-.74s2.71.26,3.8.78c1.09.52,1.95,1.3,2.56,2.34.61,1.04.92,2.36.92,3.96v6.08c0,1.07,0,2.13.02,3.18.01,1.05.05,2.11.1,3.18h-2.32ZM309.73,27.94c1.6,0,2.85-.34,3.74-1.02.89-.68,1.34-1.57,1.34-2.66s-.45-2.01-1.34-2.66c-.89-.65-2.15-.98-3.78-.98s-2.87.33-3.8.98c-.93.65-1.4,1.54-1.4,2.66s.47,1.98,1.4,2.66c.93.68,2.21,1.02,3.84,1.02Z"/>
    <path class="cls-2" d="M323.45,29.5V10.38h2.44v5.12h-.68c.29-1.07.71-1.95,1.26-2.66.55-.71,1.17-1.27,1.86-1.7.69-.43,1.4-.73,2.12-.9.72-.17,1.4-.26,2.04-.26,2.16,0,3.92.69,5.28,2.06,1.36,1.37,2.04,3.47,2.04,6.3v11.16h-2.56v-10.84c0-2.24-.51-3.85-1.52-4.84-1.01-.99-2.29-1.48-3.84-1.48-1.07,0-2.04.24-2.92.72-.88.48-1.59,1.19-2.14,2.12-.55.93-.82,2.11-.82,3.52v10.8h-2.56Z"/>
    <path class="cls-2" d="M353.49,29.9c-1.73,0-3.28-.42-4.64-1.26-1.36-.84-2.42-2-3.18-3.48-.76-1.48-1.14-3.19-1.14-5.14v-.36c0-1.89.39-3.57,1.16-5.02.77-1.45,1.83-2.59,3.18-3.42,1.35-.83,2.89-1.24,4.62-1.24s3.25.45,4.56,1.36c1.31.91,2.29,2.12,2.96,3.64l-.48.6V.3h2.56v29.2h-2.32v-5.36l.44.52c-.69,1.63-1.71,2.91-3.04,3.84-1.33.93-2.89,1.4-4.68,1.4ZM353.81,27.62c1.33,0,2.52-.32,3.56-.96,1.04-.64,1.85-1.54,2.44-2.7.59-1.16.88-2.5.88-4.02s-.29-2.85-.88-4c-.59-1.15-1.4-2.05-2.44-2.7s-2.23-.98-3.56-.98-2.47.31-3.5.94c-1.03.63-1.82,1.49-2.38,2.6-.56,1.11-.84,2.39-.84,3.86v.36c0,1.52.28,2.85.84,3.98.56,1.13,1.35,2.02,2.38,2.66,1.03.64,2.19.96,3.5.96Z"/>
    <path class="cls-2" d="M386.09,29.94c-1.89,0-3.57-.34-5.02-1.02-1.45-.68-2.66-1.61-3.62-2.78l1.68-1.72c.93,1.07,1.99,1.87,3.18,2.42,1.19.55,2.49.82,3.9.82,2.03,0,3.63-.52,4.8-1.56,1.17-1.04,1.76-2.39,1.76-4.04,0-1.15-.27-2.07-.8-2.76-.53-.69-1.24-1.25-2.12-1.66-.88-.41-1.84-.77-2.88-1.06-1.04-.29-2.09-.6-3.14-.92-1.05-.32-2.02-.74-2.9-1.26s-1.59-1.21-2.12-2.06c-.53-.85-.8-1.97-.8-3.36,0-1.6.38-2.99,1.14-4.18.76-1.19,1.82-2.11,3.18-2.76,1.36-.65,2.96-.98,4.8-.98,1.6,0,3.04.25,4.32.76,1.28.51,2.33,1.23,3.16,2.16l-1.72,1.76c-.77-.8-1.63-1.4-2.58-1.8-.95-.4-2.01-.6-3.18-.6-1.95,0-3.51.5-4.7,1.5-1.19,1-1.78,2.3-1.78,3.9,0,1.09.27,1.96.82,2.6.55.64,1.25,1.15,2.12,1.52.87.37,1.83.7,2.9.98,1.07.28,2.13.58,3.18.9,1.05.32,2.02.75,2.9,1.28.88.53,1.59,1.25,2.14,2.14.55.89.82,2.07.82,3.54,0,1.68-.4,3.14-1.2,4.38-.8,1.24-1.91,2.19-3.32,2.86-1.41.67-3.05,1-4.92,1Z"/>
    <path class="cls-2" d="M397.25,12.62v-2.24h11.4v2.24h-11.4ZM405.81,29.5c-.64,0-1.26-.09-1.86-.28s-1.13-.48-1.6-.88c-.47-.4-.83-.9-1.1-1.5-.27-.6-.4-1.33-.4-2.18V5.62h2.52v19.2c0,.72.24,1.31.72,1.78.48.47,1.05.7,1.72.7h2.84v2.2h-2.84Z"/>
    <path class="cls-2" d="M420.53,29.9c-1.81,0-3.43-.42-4.84-1.26-1.41-.84-2.52-2-3.32-3.48s-1.2-3.19-1.2-5.14v-.36c0-1.89.4-3.57,1.2-5.02.8-1.45,1.91-2.59,3.32-3.42,1.41-.83,3.03-1.24,4.84-1.24s3.39.41,4.8,1.22c1.41.81,2.52,1.95,3.32,3.4.8,1.45,1.2,3.11,1.2,4.98v.44c0,1.95-.4,3.66-1.2,5.14-.8,1.48-1.91,2.64-3.32,3.48-1.41.84-3.01,1.26-4.8,1.26ZM420.53,27.62c1.33,0,2.51-.33,3.54-.98,1.03-.65,1.83-1.55,2.4-2.68.57-1.13.86-2.45.86-3.94v-.44c0-1.44-.29-2.71-.86-3.8-.57-1.09-1.37-1.95-2.4-2.58-1.03-.63-2.21-.94-3.54-.94s-2.51.32-3.54.96c-1.03.64-1.83,1.51-2.42,2.62-.59,1.11-.88,2.38-.88,3.82v.36c0,1.49.29,2.81.88,3.94.59,1.13,1.39,2.03,2.42,2.68,1.03.65,2.21.98,3.54.98Z"/>
    <path class="cls-2" d="M434.85,29.5V10.38h2.48v4.56l-.4-.04c.24-1.23.63-2.17,1.18-2.82.55-.65,1.21-1.11,2-1.36.79-.25,1.65-.38,2.58-.38h1.64v2.52h-1.84c-1.57,0-2.81.4-3.72,1.2-.91.8-1.36,2.08-1.36,3.84v11.6h-2.56Z"/>
    <path class="cls-2" d="M454.09,30.58l-8.32-20.2h2.8l7.04,17.48-1.52,2.72ZM446.05,37.5v-2.2h3.64c.67,0,1.19-.23,1.58-.7s.7-1.01.94-1.62l2.52-5.56,6.6-17.04h2.8l-9.32,22.68c-.29.72-.65,1.42-1.06,2.1-.41.68-.95,1.24-1.62,1.68-.67.44-1.52.66-2.56.66h-3.52Z"/>
    <path class="cls-2" d="M465.45,12.62v-2.24h11.4v2.24h-11.4ZM474.01,29.5c-.64,0-1.26-.09-1.86-.28s-1.13-.48-1.6-.88c-.47-.4-.83-.9-1.1-1.5-.27-.6-.4-1.33-.4-2.18V5.62h2.52v19.2c0,.72.24,1.31.72,1.78.48.47,1.05.7,1.72.7h2.84v2.2h-2.84Z"/>
    <path class="cls-2" d="M488.89,29.9c-1.87,0-3.52-.42-4.96-1.26-1.44-.84-2.56-2-3.36-3.48s-1.2-3.19-1.2-5.14v-.4c0-1.87.37-3.52,1.1-4.96.73-1.44,1.77-2.58,3.12-3.42,1.35-.84,2.89-1.26,4.62-1.26s3.32.44,4.6,1.32c1.28.88,2.23,2.12,2.84,3.72.61,1.6.79,3.47.52,5.6h-14.96v-2.12h13.6l-1.12,1.12c.19-1.52.07-2.83-.36-3.94-.43-1.11-1.08-1.96-1.96-2.56s-1.92-.9-3.12-.9c-1.31,0-2.43.31-3.38.94-.95.63-1.68,1.49-2.2,2.6-.52,1.11-.78,2.39-.78,3.86v.4c0,1.47.29,2.77.88,3.9.59,1.13,1.41,2.02,2.48,2.66s2.32.96,3.76.96c1.01,0,1.94-.13,2.78-.4s1.55-.65,2.14-1.16l1.44,1.64c-.72.72-1.64,1.28-2.76,1.68-1.12.4-2.36.6-3.72.6Z"/>
    <path class="cls-2" d="M505.93,29.5c-1.44,0-2.61-.43-3.52-1.28-.91-.85-1.36-1.99-1.36-3.4V1.38l1.12,1.12h-4.8V.3h6.24v24.56c0,.69.23,1.27.68,1.74.45.47,1.04.7,1.76.7h1.72v2.2h-1.84Z"/>
    <path class="cls-2" d="M516.41,29.5c-1.44,0-2.61-.43-3.52-1.28-.91-.85-1.36-1.99-1.36-3.4V1.38l1.12,1.12h-4.8V.3h6.24v24.56c0,.69.23,1.27.68,1.74.45.47,1.04.7,1.76.7h1.72v2.2h-1.84Z"/>
    <path class="cls-2" d="M523.13,29.5V11.5l1.16,1.12h-4.96v-2.24h6.36v19.12h-2.56ZM523.05,5.98V1.66h2.72v4.32h-2.72Z"/>
    <path class="cls-2" d="M532.01,29.5V10.38h2.44v5.12h-.68c.29-1.07.71-1.95,1.26-2.66.55-.71,1.17-1.27,1.86-1.7.69-.43,1.4-.73,2.12-.9s1.4-.26,2.04-.26c2.16,0,3.92.69,5.28,2.06,1.36,1.37,2.04,3.47,2.04,6.3v11.16h-2.56v-10.84c0-2.24-.51-3.85-1.52-4.84-1.01-.99-2.29-1.48-3.84-1.48-1.07,0-2.04.24-2.92.72s-1.59,1.19-2.14,2.12c-.55.93-.82,2.11-.82,3.52v10.8h-2.56Z"/>
    <path class="cls-2" d="M552.33,37.5v-2.16h11.32c1.04,0,1.86-.26,2.46-.78.6-.52.9-1.23.9-2.14,0-.85-.3-1.52-.9-2-.6-.48-1.42-.72-2.46-.72h-6.08c-.99,0-1.73-.23-2.24-.7-.51-.47-.79-1.05-.84-1.74-.05-.69.09-1.37.44-2.04l1.72-3.44,2.2.6-1.6,3.08c-.13.29-.22.61-.26.94-.04.33.05.62.26.86.21.24.59.36,1.12.36h5.6c1.65,0,2.97.41,3.96,1.24s1.48,2.01,1.48,3.56c0,1.01-.23,1.9-.68,2.66-.45.76-1.09,1.35-1.92,1.78-.83.43-1.81.64-2.96.64h-11.52ZM561.09,23.82c-1.55,0-2.93-.29-4.14-.88-1.21-.59-2.17-1.4-2.86-2.44s-1.04-2.21-1.04-3.52v-.36c0-1.31.35-2.46,1.04-3.46s1.65-1.78,2.86-2.34c1.21-.56,2.59-.84,4.14-.84s2.97.28,4.18.84c1.21.56,2.16,1.33,2.84,2.3.68.97,1.02,2.1,1.02,3.38v.48c0,1.31-.34,2.48-1.02,3.52-.68,1.04-1.63,1.85-2.84,2.44-1.21.59-2.61.88-4.18.88ZM561.09,21.78c1.63,0,2.96-.45,4-1.36,1.04-.91,1.56-2.05,1.56-3.44v-.36c0-1.33-.52-2.42-1.56-3.26-1.04-.84-2.37-1.26-4-1.26s-2.96.43-4,1.28c-1.04.85-1.56,1.96-1.56,3.32v.28c0,1.39.52,2.53,1.56,3.44,1.04.91,2.37,1.36,4,1.36ZM561.41,11.66l2.84-5.8h2.56l-3.08,5.8h-2.32Z"/>
    <path class="cls-2" d="M579.57,3.94V1.5h20.04v2.44h-20.04ZM588.25,29.5V2.66h2.68v26.84h-2.68Z"/>
    <path class="cls-2" d="M607.77,29.9c-1.87,0-3.52-.42-4.96-1.26-1.44-.84-2.56-2-3.36-3.48s-1.2-3.19-1.2-5.14v-.4c0-1.87.37-3.52,1.1-4.96.73-1.44,1.77-2.58,3.12-3.42,1.35-.84,2.89-1.26,4.62-1.26s3.32.44,4.6,1.32c1.28.88,2.23,2.12,2.84,3.72.61,1.6.79,3.47.52,5.6h-14.96v-2.12h13.6l-1.12,1.12c.19-1.52.07-2.83-.36-3.94-.43-1.11-1.08-1.96-1.96-2.56s-1.92-.9-3.12-.9c-1.31,0-2.43.31-3.38.94-.95.63-1.68,1.49-2.2,2.6-.52,1.11-.78,2.39-.78,3.86v.4c0,1.47.29,2.77.88,3.9.59,1.13,1.41,2.02,2.48,2.66s2.32.96,3.76.96c1.01,0,1.94-.13,2.78-.4s1.55-.65,2.14-1.16l1.44,1.64c-.72.72-1.64,1.28-2.76,1.68-1.12.4-2.36.6-3.72.6Z"/>
    <path class="cls-2" d="M625.77,29.9c-2.24,0-4.02-.51-5.34-1.54-1.32-1.03-1.98-2.38-1.98-4.06,0-1.09.29-2.07.88-2.94.59-.87,1.45-1.55,2.6-2.06,1.15-.51,2.52-.76,4.12-.76,2.21,0,3.93.49,5.14,1.48,1.21.99,1.82,2.29,1.82,3.92h-.48c0,1.87-.56,3.33-1.68,4.38-1.12,1.05-2.81,1.58-5.08,1.58ZM631.65,29.5l-.04-6.96-.28-.76v-4.68c0-1.65-.41-2.87-1.24-3.64-.83-.77-2.03-1.16-3.6-1.16-1.04,0-2.11.2-3.22.6s-2.07,1.01-2.9,1.84l-1.24-1.8c.91-.99,2.02-1.73,3.34-2.22,1.32-.49,2.69-.74,4.1-.74s2.71.26,3.8.78c1.09.52,1.95,1.3,2.56,2.34.61,1.04.92,2.36.92,3.96v6.08c0,1.07,0,2.13.02,3.18.01,1.05.05,2.11.1,3.18h-2.32ZM626.25,27.94c1.6,0,2.85-.34,3.74-1.02.89-.68,1.34-1.57,1.34-2.66s-.45-2.01-1.34-2.66c-.89-.65-2.15-.98-3.78-.98s-2.87.33-3.8.98c-.93.65-1.4,1.54-1.4,2.66s.47,1.98,1.4,2.66c.93.68,2.21,1.02,3.84,1.02Z"/>
    <path class="cls-2" d="M639.97,29.5V10.38h2.44v4.92l-.6-.04c.4-1.33.97-2.38,1.72-3.14.75-.76,1.58-1.31,2.5-1.64.92-.33,1.82-.5,2.7-.5,1.68,0,3.1.44,4.26,1.32,1.16.88,1.94,2.24,2.34,4.08h-.92c.45-1.39,1.09-2.47,1.9-3.26.81-.79,1.7-1.34,2.66-1.66s1.87-.48,2.72-.48c2.11,0,3.8.67,5.08,2.02,1.28,1.35,1.92,3.43,1.92,6.26v11.24h-2.48v-10.96c0-2.21-.47-3.8-1.4-4.76-.93-.96-2.16-1.44-3.68-1.44s-2.85.53-3.92,1.58c-1.07,1.05-1.6,2.58-1.6,4.58v11h-2.52v-10.96c0-2.21-.46-3.8-1.38-4.76-.92-.96-2.14-1.44-3.66-1.44s-2.89.53-3.96,1.58c-1.07,1.05-1.6,2.58-1.6,4.58v11h-2.52Z"/>
  </g>
</svg>