<?xml version="1.0" standalone="no"?>
<svg id="lockup-svg" xmlns="http://www.w3.org/2000/svg" width="1200px" height="1200px" viewBox="0 0 736.32 746.6" preserveAspectRatio="xMidYMid meet" data-surface="transparent" style="display:block;width:100%;height:100%;">
  <path fill="#30ba78" d="M66.89,12.61c-.38.25-.89.25-1.27,0-.62-.41-.68-1.28-.18-1.78.45-.46,1.18-.46,1.63,0,.5.5.44,1.36-.18,1.78M68.7,10.09c.72,3.08-2.04,5.84-5.12,5.12-1.57-.37-2.81-1.61-3.18-3.18-.72-3.07,2.04-5.84,5.12-5.12,1.57.37,2.81,1.61,3.18,3.17M47.99,26.64c.35.51.64.99.81,1.48.11.35.26.8.61.99.02.01.04.02.06.03.63.23,2.24.19,2.24.19h2.97c.25,0,2.48,0,2.43-.25-.27-1.19-1.65-1.41-2.7-2.03-.97-.58-1.88-1.23-2.3-2.36-.22-.58-.09-1.92.29-2.41.27-.35.67-.59,1.11-.68.48-.1.97-.01,1.45.03.59.06,1.17.17,1.76.24,1.14.15,2.28.21,3.43.18,1.89-.05,3.78-.35,5.57-.96,1.25-.42,2.48-.99,3.54-1.78,1.21-.9.89-.81-.33-.69-1.47.15-2.95.17-4.42.09-1.37-.08-2.73-.24-3.97-.88-.98-.5-1.82-1.01-2.59-1.79-.12-.12-.19-.46.02-.68.21-.21.64-.09.78.02,1.35,1.13,3.37,2.06,5.46,2.16,1.13.06,2.23.08,3.36.03.56-.03,1.42-.02,1.98-.03.29,0,1.09.08,1.24-.23.05-.09.04-.19.04-.3-.17-4.52-.5-9.62-5.23-11.78-3.53-1.61-8.82-4.11-11.05-5.15-.52-.25-1.12.14-1.12.72,0,1.51.08,3.68.08,5.65-1.07-1.09-2.87-1.78-4.25-2.41-1.56-.72-3.17-1.32-4.81-1.83-3.3-1.02-6.72-1.65-10.15-1.99-3.89-.39-7.86-.2-11.69.59-6.32,1.31-12.53,4.35-17.24,8.79C2.44,12.32.17,16.2.02,20.13c-.22,5.57,1.34,8.56,4.21,11.64,4.57,4.91,14.41,5.6,18.39-.23,1.79-2.62,2.18-6.18.88-9.07-1.3-2.9-4.29-4.99-7.46-5.1-2.46-.08-5.08,1.17-6.02,3.45-.72,1.74-.31,3.88,1,5.23.51.53,1.2.96,1.96.79.44-.1.82-.43.88-.89.1-.67-.48-1.1-.84-1.61-.65-.92-.52-2.31.29-3.09.68-.66,1.7-.86,2.65-.86.89,0,1.79.16,2.56.61,1.08.63,1.79,1.79,2.04,3.01.74,3.66-2.23,6.63-6.26,6.86-2.06.12-4.16-.42-5.77-1.71-4.07-3.28-5.07-9.98-.41-13.56,4.42-3.4,10-2.52,13.29-.76,2.63,1.41,4.6,3.72,6.08,6.28.75,1.28,1.38,2.63,1.97,3.99.57,1.31,1.1,2.63,2.23,3.59.75.64,1.68.61,2.67.61h5.63c.76,0,.58-.51.25-.85-.75-.76-1.82-.93-2.81-1.21-2.27-.62-2.04-3.63-1.41-3.63,2.03,0,2.09.06,3.87.04,2.56-.04,3.34-.18,5.34.56,1.07.4,2.1,1.44,2.77,2.4" transform="scale(10.4)"/><path fill="#0c322c" d="M85.12,4.48C133.76,4.48 166.72,-23.36 166.72,-66.24C166.72,-147.2 54.08,-115.52 54.08,-164.16C54.08,-183.04 69.44,-195.2 92.8,-195.2C110.08,-195.2 122.88,-188.48 136,-175.36L160.96,-200.32C145.92,-217.28 121.92,-228.48 93.12,-228.48C46.08,-228.48 15.04,-201.92 15.04,-160.32C15.04,-82.88 126.72,-112 126.72,-60.48C126.72,-41.6 111.68,-28.8 86.4,-28.8C67.52,-28.8 51.52,-36.16 34.24,-53.76L9.92,-29.44C27.2,-8.96 51.52,4.48 85.12,4.48ZM288.32,4.48C340.8,4.48 375.36,-22.72 375.36,-77.44L375.36,-224L336,-224L336,-80.64C336,-48 317.12,-32 288.32,-32C259.52,-32 240.96,-48 240.96,-80.64L240.96,-224L201.6,-224L201.6,-77.44C201.6,-22.72 235.52,4.48 288.32,4.48ZM483.52,4.48C532.16,4.48 565.12,-23.36 565.12,-66.24C565.12,-147.2 452.48,-115.52 452.48,-164.16C452.48,-183.04 467.84,-195.2 491.2,-195.2C508.48,-195.2 521.28,-188.48 534.4,-175.36L559.36,-200.32C544.32,-217.28 520.32,-228.48 491.52,-228.48C444.48,-228.48 413.44,-201.92 413.44,-160.32C413.44,-82.88 525.12,-112 525.12,-60.48C525.12,-41.6 510.08,-28.8 484.8,-28.8C465.92,-28.8 449.92,-36.16 432.64,-53.76L408.32,-29.44C425.6,-8.96 449.92,4.48 483.52,4.48ZM637.12,0L746.24,0L746.24,-35.84L650.24,-35.84C643.84,-35.84 638.72,-40.96 638.72,-47.36L638.72,-95.36L739.52,-95.36L739.52,-129.6L638.72,-129.6L638.72,-176.64C638.72,-183.04 643.84,-188.16 650.24,-188.16L746.24,-188.16L746.24,-224L637.12,-224C615.36,-224 600,-208.32 600,-186.56L600,-37.44C600,-15.68 615.36,0 637.12,0Z" transform="translate(-9.92,650.59)"/>
</svg>