<?xml version="1.0" standalone="no"?>
<svg xmlns="http://www.w3.org/2000/svg" width="760px" height="460px" viewBox="0 0 760 460"><defs><filter id="shadow-1" filterUnits="userSpaceOnUse" x="53" y="126.6875" width="654" height="210.609375"><feGaussianBlur in="SourceGraphic" stdDeviation="3"/></filter><filter id="shadow-2" filterUnits="userSpaceOnUse" x="-13" y="76.6875" width="786" height="342.609375"><feGaussianBlur in="SourceGraphic" stdDeviation="25"/></filter><linearGradient id="svggrad-3" gradientUnits="userSpaceOnUse" x1="99.89888712180534" y1="130.80519504997778" x2="172.10111287819467" y2="329.1791799500222"><stop offset="0%" stop-color="rgb(48, 186, 120)"/><stop offset="100%" stop-color="rgb(12, 159, 106)"/></linearGradient></defs><g><g><g><rect x="0" y="0" width="760" height="460" fill="rgb(243,245,244)"/><g><rect x="70" y="143.6875" width="620" height="176.609375" rx="18" ry="18" fill="rgba(12,50,44,0.08)" filter="url(#shadow-1)"/><rect x="70" y="159.6875" width="620" height="176.609375" rx="18" ry="18" fill="rgba(12,50,44,0.16)" filter="url(#shadow-2)"/><rect x="70" y="141.6875" width="620" height="176.609375" rx="18" ry="18" fill="rgb(255,255,255)"/><g><rect x="70" y="141.6875" width="132" height="176.609375" fill="url(#svggrad-3)"/><g><text x="117.53" y="176.98" dominant-baseline="text-before-edge" font-size="16px" font-weight="600" font-style="normal" font-family="SUSE, system-ui, -apple-system, &quot;Segoe UI&quot;, Roboto, sans-serif" letter-spacing="2.56px" fill="rgb(255,255,255)">JUN</text></g><g><path d="M3.36,0L3.36,-6.03L17.28,-20.01Q19.55,-22.27 20.53,-24.24Q21.52,-26.22 21.52,-28.25Q21.52,-30.57 20.04,-32.04Q18.56,-33.52 16.01,-33.52Q13.57,-33.52 11.6,-32.22Q9.63,-30.91 7.83,-28.36L2.61,-33.47Q4.99,-37.06 8.44,-39.12Q11.89,-41.18 16.3,-41.18Q20.24,-41.18 23.32,-39.64Q26.39,-38.11 28.13,-35.38Q29.87,-32.65 29.87,-29.06Q29.87,-25.75 28.22,-22.39Q26.56,-19.02 22.97,-15.37L14.91,-7.31L31.55,-7.31L31.55,0L3.36,0ZM42.63,0L53.24,-14.27Q51.79,-13.86 50.23,-13.86Q46.28,-13.86 43.27,-15.63Q40.25,-17.4 38.54,-20.44Q36.83,-23.49 36.83,-27.43Q36.83,-31.67 38.74,-34.74Q40.66,-37.82 44.05,-39.5Q47.44,-41.18 51.91,-41.18Q56.61,-41.18 60.03,-39.44Q63.45,-37.7 65.31,-34.51Q67.16,-31.32 67.16,-26.91Q67.16,-24.07 65.89,-21Q64.61,-17.92 62.41,-14.67L52.32,0L42.63,0ZM52.03,-20.65Q55.1,-20.65 57.01,-22.53Q58.93,-24.42 58.93,-27.43Q58.93,-30.45 57.01,-32.31Q55.1,-34.16 52.03,-34.16Q49.01,-34.16 47.07,-32.31Q45.12,-30.45 45.12,-27.43Q45.12,-24.48 47.07,-22.56Q49.01,-20.65 52.03,-20.65Z" transform="translate(101.19,251.98)" fill="rgb(255,255,255)"/></g><g opacity="0.9000"><text x="113.3" y="267.98" dominant-baseline="text-before-edge" font-size="12px" font-weight="500" font-style="normal" font-family="SUSE, system-ui, -apple-system, &quot;Segoe UI&quot;, Roboto, sans-serif" letter-spacing="0.48px" fill="rgb(255,255,255)">Monday</text></g></g><g><g><text x="230" y="169.69" dominant-baseline="text-before-edge" font-size="11px" font-weight="600" font-style="normal" font-family="SUSE, system-ui, -apple-system, &quot;Segoe UI&quot;, Roboto, sans-serif" letter-spacing="1.54px" fill="rgb(107,124,119)">CALENDAR EVENT</text><text x="361.13" y="169.69" dominant-baseline="text-before-edge" font-size="11px" font-weight="600" font-style="normal" font-family="SUSE, system-ui, -apple-system, &quot;Segoe UI&quot;, Roboto, sans-serif" letter-spacing="0.66px" fill="rgb(12,159,106)">.ICS</text></g><g><path d="M5.62,0L5.62,-15.44L0.38,-15.44L0.38,-18.9L14.74,-18.9L14.74,-15.44L9.45,-15.44L9.45,0L5.62,0ZM20.22,0.27Q18.2,0.27 16.69,-0.58Q15.17,-1.43 14.32,-2.96Q13.47,-4.48 13.47,-6.53L13.47,-6.8Q13.47,-8.67 14.27,-10.19Q15.07,-11.72 16.5,-12.61Q17.93,-13.5 19.87,-13.5Q21.9,-13.5 23.33,-12.51Q24.76,-11.53 25.42,-9.73Q26.08,-7.94 25.79,-5.51L17.06,-5.51Q17.2,-4.29 18.05,-3.52Q18.9,-2.75 20.38,-2.75Q21.38,-2.75 22.02,-3.05Q22.65,-3.35 23.19,-3.89L25.25,-1.78Q24.44,-0.76 23.14,-0.24Q21.84,0.27 20.22,0.27ZM19.87,-10.69Q18.66,-10.69 17.98,-9.92Q17.31,-9.15 17.09,-7.91L22.36,-7.91Q22.3,-9.26 21.61,-9.98Q20.93,-10.69 19.87,-10.69ZM32.35,0.27Q30.13,0.27 28.8,-0.82Q27.46,-1.92 27.46,-3.67Q27.46,-5.45 28.89,-6.59Q30.32,-7.72 32.86,-7.72Q34.51,-7.72 35.64,-7.21L35.64,-8.29Q35.64,-9.45 34.96,-9.92Q34.29,-10.39 33.26,-10.39Q32.29,-10.39 31.24,-10.03Q30.19,-9.67 29.43,-8.99L27.84,-11.37Q28.73,-12.34 30.25,-12.92Q31.78,-13.5 33.51,-13.5Q35.99,-13.5 37.58,-12.22Q39.18,-10.93 39.18,-8.51L39.18,-4.21Q39.18,-3.16 39.18,-2.11Q39.18,-1.05 39.26,0L36.07,0L36.07,-1.38Q35.02,0.27 32.35,0.27ZM33.35,-2.32Q34.4,-2.32 35.03,-2.74Q35.67,-3.16 35.67,-3.83Q35.67,-4.51 35.03,-4.91Q34.4,-5.32 33.35,-5.32Q32.32,-5.32 31.68,-4.91Q31.05,-4.51 31.05,-3.83Q31.05,-3.19 31.68,-2.75Q32.32,-2.32 33.35,-2.32ZM42.42,0L42.42,-13.23L45.87,-13.23L45.87,-11.77Q46.63,-12.8 47.64,-13.15Q48.65,-13.5 49.57,-13.5Q50.79,-13.5 51.75,-13.01Q52.7,-12.53 53.3,-11.56Q53.89,-12.34 54.66,-12.76Q55.43,-13.18 56.17,-13.34Q56.92,-13.5 57.51,-13.5Q59.64,-13.5 61.01,-12.12Q62.37,-10.75 62.37,-8.1L62.37,0L58.81,0L58.81,-7.56Q58.81,-8.96 58.2,-9.6Q57.59,-10.23 56.57,-10.23Q55.54,-10.23 54.86,-9.53Q54.19,-8.83 54.19,-7.59L54.19,0L50.6,0L50.6,-7.56Q50.6,-8.96 50,-9.6Q49.41,-10.23 48.41,-10.23Q47.36,-10.23 46.67,-9.53Q45.98,-8.83 45.98,-7.59L45.98,0L42.42,0ZM71.42,0L71.42,-13.23L74.87,-13.23L74.87,-11.77Q75.63,-12.8 76.64,-13.15Q77.65,-13.5 78.57,-13.5Q79.79,-13.5 80.74,-13.01Q81.7,-12.53 82.3,-11.56Q82.89,-12.34 83.66,-12.76Q84.43,-13.18 85.17,-13.34Q85.91,-13.5 86.51,-13.5Q88.64,-13.5 90,-12.12Q91.37,-10.75 91.37,-8.1L91.37,0L87.8,0L87.8,-7.56Q87.8,-8.96 87.2,-9.6Q86.59,-10.23 85.56,-10.23Q84.54,-10.23 83.86,-9.53Q83.19,-8.83 83.19,-7.59L83.19,0L79.6,0L79.6,-7.56Q79.6,-8.96 79,-9.6Q78.41,-10.23 77.41,-10.23Q76.36,-10.23 75.67,-9.53Q74.98,-8.83 74.98,-7.59L74.98,0L71.42,0ZM100.55,0.27Q98.52,0.27 97.01,-0.58Q95.5,-1.43 94.65,-2.96Q93.8,-4.48 93.8,-6.53L93.8,-6.8Q93.8,-8.67 94.59,-10.19Q95.39,-11.72 96.82,-12.61Q98.25,-13.5 100.2,-13.5Q102.22,-13.5 103.65,-12.51Q105.08,-11.53 105.75,-9.73Q106.41,-7.94 106.11,-5.51L97.39,-5.51Q97.52,-4.29 98.37,-3.52Q99.23,-2.75 100.71,-2.75Q101.71,-2.75 102.34,-3.05Q102.98,-3.35 103.52,-3.89L105.57,-1.78Q104.76,-0.76 103.46,-0.24Q102.17,0.27 100.55,0.27ZM100.2,-10.69Q98.98,-10.69 98.31,-9.92Q97.63,-9.15 97.42,-7.91L102.68,-7.91Q102.63,-9.26 101.94,-9.98Q101.25,-10.69 100.2,-10.69ZM114.7,0.27Q112.67,0.27 111.16,-0.58Q109.65,-1.43 108.8,-2.96Q107.95,-4.48 107.95,-6.53L107.95,-6.8Q107.95,-8.67 108.74,-10.19Q109.54,-11.72 110.97,-12.61Q112.4,-13.5 114.35,-13.5Q116.37,-13.5 117.8,-12.51Q119.23,-11.53 119.89,-9.73Q120.56,-7.94 120.26,-5.51L111.54,-5.51Q111.67,-4.29 112.52,-3.52Q113.37,-2.75 114.86,-2.75Q115.86,-2.75 116.49,-3.05Q117.13,-3.35 117.67,-3.89L119.72,-1.78Q118.91,-0.76 117.61,-0.24Q116.32,0.27 114.7,0.27ZM114.35,-10.69Q113.13,-10.69 112.46,-9.92Q111.78,-9.15 111.56,-7.91L116.83,-7.91Q116.78,-9.26 116.09,-9.98Q115.4,-10.69 114.35,-10.69ZM128.01,0Q127.04,0 126.05,-0.32Q125.06,-0.65 124.39,-1.53Q123.71,-2.4 123.71,-4.08L123.71,-10.21L121.58,-10.21L121.58,-13.23L123.71,-13.23L123.71,-16.44L127.31,-16.44L127.31,-13.23L130.19,-13.23L130.19,-10.21L127.31,-10.21L127.31,-3.78Q127.31,-3.46 127.52,-3.24Q127.74,-3.02 128.06,-3.02L130.19,-3.02L130.19,0L128.01,0ZM134,0L134,-10.21L131.71,-10.21L131.71,-13.23L137.59,-13.23L137.59,0L134,0ZM133.84,-15.74L133.84,-19.52L137.81,-19.52L137.81,-15.74L133.84,-15.74ZM140.94,0L140.94,-13.23L144.4,-13.23L144.4,-11.74Q145.21,-12.8 146.29,-13.15Q147.37,-13.5 148.2,-13.5Q150.44,-13.5 151.78,-12.03Q153.12,-10.56 153.12,-7.91L153.12,0L149.53,0L149.53,-7.34Q149.53,-8.86 148.88,-9.54Q148.23,-10.23 147.18,-10.23Q146.04,-10.23 145.29,-9.48Q144.53,-8.72 144.53,-7.24L144.53,0L140.94,0ZM155.44,5.4L155.44,2.46L163.51,2.46Q164.51,2.46 164.51,1.57Q164.51,0.68 163.51,0.68L158.76,0.68Q157.73,0.68 157.14,0.15Q156.55,-0.38 156.45,-1.2Q156.36,-2.02 156.79,-2.92L157.6,-4.56Q156.63,-5.24 156.07,-6.22Q155.52,-7.21 155.52,-8.42L155.52,-8.69Q155.52,-10.1 156.28,-11.18Q157.03,-12.26 158.38,-12.88Q159.73,-13.5 161.46,-13.5Q161.51,-13.5 161.57,-13.5L162.7,-15.98L166.32,-15.98L164.59,-12.85Q165.89,-12.26 166.64,-11.18Q167.4,-10.1 167.4,-8.72L167.4,-8.42Q167.4,-6.99 166.64,-5.87Q165.89,-4.75 164.55,-4.13Q163.22,-3.51 161.46,-3.51Q160.95,-3.51 160.46,-3.56L159.95,-2.54Q159.87,-2.38 159.91,-2.24Q159.95,-2.11 160.16,-2.11L164.05,-2.11Q165.73,-2.11 166.79,-1.22Q167.86,-0.32 167.86,1.59Q167.86,3.24 166.75,4.32Q165.65,5.4 163.89,5.4L155.44,5.4ZM161.46,-6.21Q162.03,-6.21 162.59,-6.43Q163.16,-6.64 163.53,-7.14Q163.89,-7.64 163.89,-8.53Q163.89,-9.48 163.22,-10.06Q162.54,-10.64 161.46,-10.64Q160.38,-10.64 159.7,-10.06Q159.03,-9.48 159.03,-8.53Q159.03,-7.64 159.41,-7.14Q159.79,-6.64 160.34,-6.43Q160.89,-6.21 161.46,-6.21Z" transform="translate(230,220.19)" fill="rgb(12,50,44)"/></g><g><path d="M1.24,0L1.24,-10.5L3.33,-10.5L6.14,-4.48L8.92,-10.5L11.03,-10.5L11.03,0L9.49,0L9.49,-8.47L6.74,-2.37L5.54,-2.37L2.76,-8.47L2.76,0L1.24,0ZM16.36,0.15Q15.32,0.15 14.48,-0.33Q13.65,-0.81 13.16,-1.65Q12.68,-2.49 12.68,-3.58L12.68,-3.72Q12.68,-4.8 13.16,-5.63Q13.65,-6.46 14.48,-6.94Q15.32,-7.41 16.36,-7.41Q17.42,-7.41 18.24,-6.94Q19.06,-6.46 19.54,-5.64Q20.02,-4.81 20.02,-3.73L20.02,-3.58Q20.02,-2.49 19.54,-1.65Q19.06,-0.81 18.24,-0.33Q17.42,0.15 16.36,0.15ZM16.36,-1.15Q17.34,-1.15 17.95,-1.83Q18.56,-2.5 18.56,-3.58L18.56,-3.73Q18.56,-4.78 17.95,-5.44Q17.34,-6.1 16.36,-6.1Q15.39,-6.1 14.77,-5.44Q14.16,-4.77 14.16,-3.72L14.16,-3.58Q14.16,-2.5 14.77,-1.83Q15.39,-1.15 16.36,-1.15ZM21.68,0L21.68,-7.26L23.09,-7.26L23.09,-6.22Q23.54,-6.91 24.19,-7.16Q24.84,-7.41 25.38,-7.41Q26.61,-7.41 27.36,-6.61Q28.11,-5.82 28.11,-4.29L28.11,0L26.64,0L26.64,-4.06Q26.64,-5.13 26.18,-5.59Q25.71,-6.06 24.99,-6.06Q24.23,-6.06 23.69,-5.55Q23.15,-5.04 23.15,-4.03L23.15,0L21.68,0ZM33.1,0.15Q32.12,0.15 31.34,-0.31Q30.57,-0.78 30.13,-1.62Q29.69,-2.46 29.69,-3.57L29.69,-3.72Q29.69,-4.81 30.14,-5.65Q30.58,-6.48 31.36,-6.94Q32.13,-7.41 33.12,-7.41Q33.85,-7.41 34.46,-7.11Q35.06,-6.81 35.48,-6.27L35.48,-10.95L36.95,-10.95L36.95,0L35.61,0L35.61,-1.14Q35.19,-0.52 34.55,-0.19Q33.9,0.15 33.1,0.15ZM33.33,-1.14Q34.29,-1.14 34.93,-1.81Q35.57,-2.49 35.57,-3.63Q35.57,-4.77 34.93,-5.44Q34.29,-6.1 33.33,-6.1Q32.4,-6.1 31.78,-5.46Q31.15,-4.81 31.15,-3.72L31.15,-3.57Q31.15,-2.46 31.78,-1.8Q32.4,-1.14 33.33,-1.14ZM41.25,0.15Q40.02,0.15 39.28,-0.46Q38.53,-1.06 38.53,-2.02Q38.53,-2.65 38.91,-3.16Q39.28,-3.66 39.94,-3.95Q40.59,-4.24 41.45,-4.24Q42.54,-4.24 43.23,-3.82L43.23,-4.62Q43.23,-5.41 42.8,-5.76Q42.36,-6.1 41.66,-6.1Q41.09,-6.1 40.49,-5.89Q39.89,-5.68 39.45,-5.25L38.78,-6.27Q39.27,-6.81 40.07,-7.11Q40.88,-7.41 41.75,-7.41Q43.05,-7.41 43.87,-6.72Q44.68,-6.03 44.68,-4.69L44.68,-2.35Q44.68,-1.77 44.69,-1.18Q44.7,-0.58 44.73,0L43.41,0L43.41,-0.73Q42.77,0.15 41.25,0.15ZM41.66,-0.94Q42.39,-0.94 42.82,-1.25Q43.25,-1.56 43.25,-2.05Q43.25,-2.53 42.82,-2.84Q42.39,-3.15 41.64,-3.15Q40.91,-3.15 40.46,-2.84Q40.02,-2.53 40.02,-2.05Q40.02,-1.57 40.46,-1.26Q40.91,-0.94 41.66,-0.94ZM45.93,3L45.93,1.74L47.45,1.74Q47.7,1.74 47.86,1.58Q48.02,1.41 48.12,1.17L48.61,0.11L45.63,-7.26L47.27,-7.26L49.4,-1.69L51.38,-7.26L53.01,-7.26L49.59,1.23Q49.43,1.64 49.18,2.05Q48.93,2.46 48.5,2.73Q48.08,3 47.37,3L45.93,3ZM53.04,0L53.04,-1.84L54.81,-1.84L54.81,0.96Q54.81,1.45 54.61,1.73Q54.42,2 54.12,2.1Q53.82,2.21 53.52,2.21L52.98,2.21L52.98,1.35L53.52,1.35Q53.7,1.35 53.8,1.23Q53.9,1.11 53.9,0.95L53.9,0L53.04,0ZM59.6,0L59.6,-1.15L63.36,-4.96Q64.11,-5.7 64.38,-6.28Q64.65,-6.85 64.65,-7.41Q64.65,-8.22 64.16,-8.7Q63.68,-9.18 62.84,-9.18Q62.15,-9.18 61.55,-8.8Q60.96,-8.43 60.5,-7.72L59.47,-8.7Q60.08,-9.61 60.95,-10.13Q61.83,-10.65 62.88,-10.65Q63.89,-10.65 64.64,-10.26Q65.4,-9.87 65.82,-9.17Q66.24,-8.47 66.24,-7.56Q66.24,-6.76 65.85,-5.92Q65.46,-5.08 64.46,-4.06L61.8,-1.39L66.66,-1.39L66.66,0L59.6,0ZM69.97,0L72.81,-3.85Q72.3,-3.66 71.72,-3.66Q70.71,-3.66 69.94,-4.11Q69.16,-4.56 68.73,-5.34Q68.3,-6.12 68.3,-7.14Q68.3,-8.2 68.77,-8.99Q69.24,-9.78 70.08,-10.21Q70.92,-10.65 72.03,-10.65Q73.19,-10.65 74.03,-10.21Q74.88,-9.76 75.35,-8.96Q75.81,-8.16 75.81,-7.05Q75.81,-6.33 75.52,-5.62Q75.24,-4.9 74.74,-4.18L71.83,0L69.97,0ZM72.03,-4.96Q73.02,-4.96 73.63,-5.57Q74.24,-6.18 74.24,-7.14Q74.24,-8.11 73.63,-8.71Q73.04,-9.3 72.06,-9.3Q71.08,-9.3 70.48,-8.7Q69.87,-8.1 69.87,-7.14Q69.87,-6.18 70.48,-5.57Q71.08,-4.96 72.03,-4.96ZM80.4,0L80.4,-1.42L82.62,-1.42Q83.03,-1.42 83.3,-1.69Q83.57,-1.96 83.57,-2.37L83.57,-9.07L80.9,-9.07L80.9,-10.5L85.14,-10.5L85.14,-2.52Q85.14,-1.29 84.46,-0.64Q83.78,0 82.49,0L80.4,0ZM89.91,0.15Q88.71,0.15 87.92,-0.57Q87.12,-1.29 87.12,-2.82L87.12,-7.26L88.58,-7.26L88.58,-3.09Q88.58,-2.02 89.04,-1.61Q89.51,-1.2 90.23,-1.2Q90.98,-1.2 91.5,-1.69Q92.03,-2.17 92.03,-3.16L92.03,-7.26L93.48,-7.26L93.48,0L92.19,0L92.19,-0.99Q91.74,-0.31 91.1,-0.08Q90.45,0.15 89.91,0.15ZM95.61,0L95.61,-7.26L97.02,-7.26L97.02,-6.22Q97.47,-6.91 98.12,-7.16Q98.78,-7.41 99.32,-7.41Q100.55,-7.41 101.3,-6.61Q102.05,-5.82 102.05,-4.29L102.05,0L100.58,0L100.58,-4.06Q100.58,-5.13 100.11,-5.59Q99.65,-6.06 98.93,-6.06Q98.16,-6.06 97.62,-5.55Q97.08,-5.04 97.08,-4.03L97.08,0L95.61,0ZM107.28,0.15Q106.19,0.15 105.36,-0.32Q104.54,-0.79 104.08,-1.63Q103.62,-2.47 103.62,-3.58L103.62,-3.73Q103.62,-4.78 104.05,-5.62Q104.48,-6.45 105.25,-6.93Q106.02,-7.41 107.06,-7.41Q108.12,-7.41 108.88,-6.88Q109.64,-6.36 109.99,-5.41Q110.34,-4.47 110.19,-3.18L105.08,-3.18Q105.17,-2.31 105.76,-1.73Q106.35,-1.15 107.34,-1.15Q108.42,-1.15 109.05,-1.74L109.89,-0.85Q109.46,-0.36 108.78,-0.1Q108.1,0.15 107.28,0.15ZM107.06,-6.19Q106.21,-6.19 105.72,-5.67Q105.23,-5.14 105.1,-4.29L108.78,-4.29Q108.77,-5.19 108.29,-5.69Q107.81,-6.19 107.06,-6.19ZM115.16,0L115.16,-1.15L118.92,-4.96Q119.67,-5.7 119.94,-6.28Q120.21,-6.85 120.21,-7.41Q120.21,-8.22 119.72,-8.7Q119.24,-9.18 118.4,-9.18Q117.71,-9.18 117.11,-8.8Q116.52,-8.43 116.06,-7.72L115.04,-8.7Q115.64,-9.61 116.51,-10.13Q117.39,-10.65 118.44,-10.65Q119.45,-10.65 120.2,-10.26Q120.96,-9.87 121.38,-9.17Q121.8,-8.47 121.8,-7.56Q121.8,-6.76 121.41,-5.92Q121.02,-5.08 120.02,-4.06L117.36,-1.39L122.22,-1.39L122.22,0L115.16,0ZM127.68,0.15Q125.87,0.15 124.83,-1.27Q123.8,-2.68 123.8,-5.23Q123.8,-7.8 124.83,-9.22Q125.87,-10.65 127.68,-10.65Q129.51,-10.65 130.54,-9.22Q131.57,-7.8 131.57,-5.23Q131.57,-2.68 130.54,-1.27Q129.51,0.15 127.68,0.15ZM127.68,-1.26Q128.79,-1.26 129.4,-2.28Q130.01,-3.3 130.01,-5.23Q130.01,-7.18 129.4,-8.21Q128.79,-9.24 127.68,-9.24Q126.57,-9.24 125.96,-8.21Q125.35,-7.18 125.35,-5.23Q125.35,-3.3 125.96,-2.28Q126.57,-1.26 127.68,-1.26ZM133.16,0L133.16,-1.15L136.92,-4.96Q137.67,-5.7 137.94,-6.28Q138.21,-6.85 138.21,-7.41Q138.21,-8.22 137.72,-8.7Q137.23,-9.18 136.39,-9.18Q135.7,-9.18 135.11,-8.8Q134.52,-8.43 134.06,-7.72L133.04,-8.7Q133.64,-9.61 134.51,-10.13Q135.39,-10.65 136.44,-10.65Q137.45,-10.65 138.2,-10.26Q138.96,-9.87 139.38,-9.17Q139.8,-8.47 139.8,-7.56Q139.8,-6.76 139.41,-5.92Q139.02,-5.08 138.01,-4.06L135.36,-1.39L140.22,-1.39L140.22,0L133.16,0ZM145.77,0.15Q144.61,0.15 143.77,-0.29Q142.92,-0.73 142.45,-1.54Q141.99,-2.35 141.99,-3.45Q141.99,-4.17 142.28,-4.88Q142.56,-5.59 143.06,-6.31L145.97,-10.5L147.82,-10.5L144.99,-6.64Q145.5,-6.84 146.09,-6.84Q147.09,-6.84 147.86,-6.39Q148.64,-5.94 149.07,-5.16Q149.51,-4.38 149.51,-3.36Q149.51,-2.29 149.03,-1.51Q148.56,-0.72 147.72,-0.28Q146.88,0.15 145.77,0.15ZM145.74,-1.2Q146.72,-1.2 147.32,-1.8Q147.93,-2.4 147.93,-3.36Q147.93,-4.32 147.32,-4.93Q146.72,-5.53 145.77,-5.53Q144.78,-5.53 144.17,-4.93Q143.57,-4.32 143.57,-3.36Q143.57,-2.38 144.17,-1.79Q144.76,-1.2 145.74,-1.2Z" transform="translate(230,248.05)" fill="rgb(60,84,78)"/></g><g><g><g><svg viewBox="0 0 24 24" aria-hidden="true" fill="none" stroke="#30ba78" stroke-width="1.8" stroke-linecap="round" stroke-linejoin="round" x="230" y="272.421875" width="18" height="18"><circle cx="12" cy="12" r="9"/><path d="M12 7.5V12l3 2"/></svg></g><g><path d="M2.42,0L5.23,-3.81Q4.67,-3.58 4.02,-3.58Q3.05,-3.58 2.3,-4.01Q1.55,-4.44 1.13,-5.19Q0.71,-5.94 0.71,-6.92Q0.71,-7.93 1.16,-8.69Q1.61,-9.45 2.41,-9.87Q3.22,-10.29 4.26,-10.29Q5.35,-10.29 6.15,-9.87Q6.95,-9.45 7.38,-8.69Q7.82,-7.92 7.82,-6.86Q7.82,-6.18 7.56,-5.52Q7.31,-4.87 6.87,-4.23L3.92,0L2.42,0ZM4.25,-4.61Q5.29,-4.61 5.94,-5.26Q6.58,-5.9 6.58,-6.93Q6.58,-7.96 5.95,-8.59Q5.32,-9.22 4.28,-9.22Q3.26,-9.22 2.61,-8.58Q1.96,-7.95 1.96,-6.93Q1.96,-5.92 2.6,-5.26Q3.25,-4.61 4.25,-4.61ZM9.54,-5.38L9.54,-6.97L10.99,-6.97L10.99,-5.38L9.54,-5.38ZM9.54,0L9.54,-1.59L10.99,-1.59L10.99,0L9.54,0ZM16.2,0.15Q14.47,0.15 13.49,-1.23Q12.5,-2.61 12.5,-5.06Q12.5,-6.7 12.94,-7.87Q13.38,-9.05 14.21,-9.67Q15.04,-10.29 16.2,-10.29Q17.34,-10.29 18.18,-9.67Q19.01,-9.05 19.45,-7.87Q19.89,-6.7 19.89,-5.06Q19.89,-2.61 18.91,-1.23Q17.92,0.15 16.2,0.15ZM16.2,-0.97Q17.36,-0.97 18.01,-2.04Q18.66,-3.1 18.66,-5.06Q18.66,-7.03 18.01,-8.11Q17.36,-9.18 16.2,-9.18Q15.04,-9.18 14.38,-8.11Q13.73,-7.03 13.73,-5.06Q13.73,-3.1 14.38,-2.04Q15.04,-0.97 16.2,-0.97ZM24.9,0.15Q23.17,0.15 22.19,-1.23Q21.2,-2.61 21.2,-5.06Q21.2,-6.7 21.64,-7.87Q22.08,-9.05 22.91,-9.67Q23.74,-10.29 24.9,-10.29Q26.04,-10.29 26.88,-9.67Q27.71,-9.05 28.15,-7.87Q28.59,-6.7 28.59,-5.06Q28.59,-2.61 27.61,-1.23Q26.62,0.15 24.9,0.15ZM24.9,-0.97Q26.06,-0.97 26.71,-2.04Q27.36,-3.1 27.36,-5.06Q27.36,-7.03 26.71,-8.11Q26.06,-9.18 24.9,-9.18Q23.74,-9.18 23.08,-8.11Q22.43,-7.03 22.43,-5.06Q22.43,-3.1 23.08,-2.04Q23.74,-0.97 24.9,-0.97ZM32.39,0L36.25,-10.15L37.74,-10.15L41.6,0L40.32,0L39.3,-2.77L34.7,-2.77L33.65,0L32.39,0ZM35.09,-3.83L38.89,-3.83L37,-8.92L35.09,-3.83ZM43.01,0L43.01,-10.15L44.66,-10.15L47.59,-4.07L50.5,-10.15L52.16,-10.15L52.16,0L50.95,0L50.95,-8.55L48.07,-2.42L47.1,-2.42L44.23,-8.55L44.23,0L43.01,0ZM57.52,-3.49L57.52,-4.6L63.32,-4.6L63.32,-3.49L57.52,-3.49ZM68.7,0L68.7,-1.13L71.37,-1.13L71.37,-8.29Q71.37,-8.61 71.17,-8.82Q70.98,-9.02 70.66,-9.02L68.73,-9.02L68.73,-10.15L70.96,-10.15Q71.67,-10.15 72.12,-9.69Q72.57,-9.24 72.57,-8.54L72.57,-1.13L75.21,-1.13L75.21,0L68.7,0ZM80.48,0.15Q78.75,0.15 77.76,-1.23Q76.78,-2.61 76.78,-5.06Q76.78,-6.7 77.22,-7.87Q77.66,-9.05 78.49,-9.67Q79.32,-10.29 80.48,-10.29Q81.62,-10.29 82.45,-9.67Q83.29,-9.05 83.73,-7.87Q84.17,-6.7 84.17,-5.06Q84.17,-2.61 83.19,-1.23Q82.2,0.15 80.48,0.15ZM80.48,-0.97Q81.64,-0.97 82.29,-2.04Q82.94,-3.1 82.94,-5.06Q82.94,-7.03 82.29,-8.11Q81.64,-9.18 80.48,-9.18Q79.32,-9.18 78.66,-8.11Q78.01,-7.03 78.01,-5.06Q78.01,-3.1 78.66,-2.04Q79.32,-0.97 80.48,-0.97ZM85.67,-5.38L85.67,-6.97L87.12,-6.97L87.12,-5.38L85.67,-5.38ZM85.67,0L85.67,-1.59L87.12,-1.59L87.12,0L85.67,0ZM92.32,0.15Q90.6,0.15 89.61,-1.23Q88.62,-2.61 88.62,-5.06Q88.62,-6.7 89.07,-7.87Q89.51,-9.05 90.34,-9.67Q91.16,-10.29 92.32,-10.29Q93.47,-10.29 94.3,-9.67Q95.13,-9.05 95.58,-7.87Q96.02,-6.7 96.02,-5.06Q96.02,-2.61 95.03,-1.23Q94.05,0.15 92.32,0.15ZM92.32,-0.97Q93.48,-0.97 94.13,-2.04Q94.79,-3.1 94.79,-5.06Q94.79,-7.03 94.13,-8.11Q93.48,-9.18 92.32,-9.18Q91.16,-9.18 90.51,-8.11Q89.86,-7.03 89.86,-5.06Q89.86,-3.1 90.51,-2.04Q91.16,-0.97 92.32,-0.97ZM101.02,0.15Q99.3,0.15 98.31,-1.23Q97.32,-2.61 97.32,-5.06Q97.32,-6.7 97.77,-7.87Q98.21,-9.05 99.04,-9.67Q99.86,-10.29 101.02,-10.29Q102.17,-10.29 103,-9.67Q103.83,-9.05 104.28,-7.87Q104.72,-6.7 104.72,-5.06Q104.72,-2.61 103.73,-1.23Q102.75,0.15 101.02,0.15ZM101.02,-0.97Q102.18,-0.97 102.83,-2.04Q103.49,-3.1 103.49,-5.06Q103.49,-7.03 102.83,-8.11Q102.18,-9.18 101.02,-9.18Q99.86,-9.18 99.21,-8.11Q98.56,-7.03 98.56,-5.06Q98.56,-3.1 99.21,-2.04Q99.86,-0.97 101.02,-0.97ZM108.52,0L112.38,-10.15L113.87,-10.15L117.73,0L116.45,0L115.42,-2.77L110.82,-2.77L109.78,0L108.52,0ZM111.22,-3.83L115.01,-3.83L113.13,-8.92L111.22,-3.83ZM119.13,0L119.13,-10.15L120.79,-10.15L123.71,-4.07L126.63,-10.15L128.28,-10.15L128.28,0L127.08,0L127.08,-8.55L124.19,-2.42L123.22,-2.42L120.35,-8.55L120.35,0L119.13,0Z" transform="translate(258,285.55)" fill="rgb(41,70,64)"/></g></g></g></g></g></g></g></g></svg>