<?xml version="1.0" standalone="no"?>
<svg xmlns="http://www.w3.org/2000/svg" width="760px" height="460px" viewBox="0 0 760 460"><defs><filter id="shadow-1" filterUnits="userSpaceOnUse" x="53" y="126.6875" width="654" height="210.609375"><feGaussianBlur in="SourceGraphic" stdDeviation="3"/></filter><filter id="shadow-2" filterUnits="userSpaceOnUse" x="-13" y="76.6875" width="786" height="342.609375"><feGaussianBlur in="SourceGraphic" stdDeviation="25"/></filter><linearGradient id="svggrad-3" gradientUnits="userSpaceOnUse" x1="99.89888712180534" y1="130.80519504997778" x2="172.10111287819467" y2="329.1791799500222"><stop offset="0%" stop-color="rgb(48, 186, 120)"/><stop offset="100%" stop-color="rgb(12, 159, 106)"/></linearGradient></defs><g><g><g><rect x="0" y="0" width="760" height="460" fill="rgb(243,245,244)"/><g><rect x="70" y="143.6875" width="620" height="176.609375" rx="18" ry="18" fill="rgba(12,50,44,0.08)" filter="url(#shadow-1)"/><rect x="70" y="159.6875" width="620" height="176.609375" rx="18" ry="18" fill="rgba(12,50,44,0.16)" filter="url(#shadow-2)"/><rect x="70" y="141.6875" width="620" height="176.609375" rx="18" ry="18" fill="rgb(255,255,255)"/><g><rect x="70" y="141.6875" width="132" height="176.609375" fill="url(#svggrad-3)"/><g><text x="117.53" y="176.98" dominant-baseline="text-before-edge" font-size="16px" font-weight="600" font-style="normal" font-family="SUSE, system-ui, -apple-system, &quot;Segoe UI&quot;, Roboto, sans-serif" letter-spacing="2.56px" fill="rgb(255,255,255)">JUN</text></g><g><path d="M15.95,0.58Q11.66,0.58 8.29,-0.81Q4.93,-2.2 2.32,-4.81L6.79,-10.21Q8.76,-8.24 10.96,-7.22Q13.17,-6.21 16.01,-6.21Q19.31,-6.21 21.29,-7.74Q23.26,-9.28 23.26,-11.77Q23.26,-14.09 21.52,-15.43Q19.78,-16.76 16.99,-16.76L10.79,-16.76L10.79,-23.72L16.36,-23.72Q19.08,-23.72 20.74,-25.17Q22.39,-26.62 22.39,-28.88Q22.39,-31.38 20.68,-32.8Q18.97,-34.22 16.07,-34.22Q13.4,-34.22 11.25,-33.15Q9.11,-32.07 7.48,-30.28L2.9,-35.73Q5.39,-38.28 8.87,-39.73Q12.35,-41.18 16.36,-41.18Q20.53,-41.18 23.66,-39.79Q26.8,-38.4 28.54,-35.84Q30.28,-33.29 30.28,-29.93Q30.28,-27.09 29.06,-24.74Q27.84,-22.39 25.52,-20.88Q28.48,-19.37 29.87,-16.88Q31.26,-14.38 31.26,-11.43Q31.26,-7.83 29.26,-5.13Q27.26,-2.44 23.81,-0.93Q20.36,0.58 15.95,0.58ZM52.26,0.58Q44.89,0.58 40.77,-4.84Q36.66,-10.27 36.66,-20.18Q36.66,-30.22 40.77,-35.7Q44.89,-41.18 52.26,-41.18Q59.57,-41.18 63.66,-35.7Q67.74,-30.22 67.74,-20.18Q67.74,-10.27 63.66,-4.84Q59.57,0.58 52.26,0.58ZM52.26,-6.79Q59.51,-6.79 59.51,-20.18Q59.51,-33.81 52.26,-33.81Q44.89,-33.81 44.89,-20.18Q44.89,-6.79 52.26,-6.79Z" transform="translate(101.19,251.98)" fill="rgb(255,255,255)"/></g><g opacity="0.9000"><text x="112.89" y="267.98" dominant-baseline="text-before-edge" font-size="12px" font-weight="500" font-style="normal" font-family="SUSE, system-ui, -apple-system, &quot;Segoe UI&quot;, Roboto, sans-serif" letter-spacing="0.48px" fill="rgb(255,255,255)">Tuesday</text></g></g><g><g><text x="230" y="169.69" dominant-baseline="text-before-edge" font-size="11px" font-weight="600" font-style="normal" font-family="SUSE, system-ui, -apple-system, &quot;Segoe UI&quot;, Roboto, sans-serif" letter-spacing="1.54px" fill="rgb(107,124,119)">CALENDAR EVENT</text><text x="361.13" y="169.69" dominant-baseline="text-before-edge" font-size="11px" font-weight="600" font-style="normal" font-family="SUSE, system-ui, -apple-system, &quot;Segoe UI&quot;, Roboto, sans-serif" letter-spacing="0.66px" fill="rgb(12,159,106)">.ICS</text></g><g><path d="M5.62,0L5.62,-15.44L0.38,-15.44L0.38,-18.9L14.74,-18.9L14.74,-15.44L9.45,-15.44L9.45,0L5.62,0ZM20.22,0.27Q18.2,0.27 16.69,-0.58Q15.17,-1.43 14.32,-2.96Q13.47,-4.48 13.47,-6.53L13.47,-6.8Q13.47,-8.67 14.27,-10.19Q15.07,-11.72 16.5,-12.61Q17.93,-13.5 19.87,-13.5Q21.9,-13.5 23.33,-12.51Q24.76,-11.53 25.42,-9.73Q26.08,-7.94 25.79,-5.51L17.06,-5.51Q17.2,-4.29 18.05,-3.52Q18.9,-2.75 20.38,-2.75Q21.38,-2.75 22.02,-3.05Q22.65,-3.35 23.19,-3.89L25.25,-1.78Q24.44,-0.76 23.14,-0.24Q21.84,0.27 20.22,0.27ZM19.87,-10.69Q18.66,-10.69 17.98,-9.92Q17.31,-9.15 17.09,-7.91L22.36,-7.91Q22.3,-9.26 21.61,-9.98Q20.93,-10.69 19.87,-10.69ZM32.35,0.27Q30.13,0.27 28.8,-0.82Q27.46,-1.92 27.46,-3.67Q27.46,-5.45 28.89,-6.59Q30.32,-7.72 32.86,-7.72Q34.51,-7.72 35.64,-7.21L35.64,-8.29Q35.64,-9.45 34.96,-9.92Q34.29,-10.39 33.26,-10.39Q32.29,-10.39 31.24,-10.03Q30.19,-9.67 29.43,-8.99L27.84,-11.37Q28.73,-12.34 30.25,-12.92Q31.78,-13.5 33.51,-13.5Q35.99,-13.5 37.58,-12.22Q39.18,-10.93 39.18,-8.51L39.18,-4.21Q39.18,-3.16 39.18,-2.11Q39.18,-1.05 39.26,0L36.07,0L36.07,-1.38Q35.02,0.27 32.35,0.27ZM33.35,-2.32Q34.4,-2.32 35.03,-2.74Q35.67,-3.16 35.67,-3.83Q35.67,-4.51 35.03,-4.91Q34.4,-5.32 33.35,-5.32Q32.32,-5.32 31.68,-4.91Q31.05,-4.51 31.05,-3.83Q31.05,-3.19 31.68,-2.75Q32.32,-2.32 33.35,-2.32ZM42.42,0L42.42,-13.23L45.87,-13.23L45.87,-11.77Q46.63,-12.8 47.64,-13.15Q48.65,-13.5 49.57,-13.5Q50.79,-13.5 51.75,-13.01Q52.7,-12.53 53.3,-11.56Q53.89,-12.34 54.66,-12.76Q55.43,-13.18 56.17,-13.34Q56.92,-13.5 57.51,-13.5Q59.64,-13.5 61.01,-12.12Q62.37,-10.75 62.37,-8.1L62.37,0L58.81,0L58.81,-7.56Q58.81,-8.96 58.2,-9.6Q57.59,-10.23 56.57,-10.23Q55.54,-10.23 54.86,-9.53Q54.19,-8.83 54.19,-7.59L54.19,0L50.6,0L50.6,-7.56Q50.6,-8.96 50,-9.6Q49.41,-10.23 48.41,-10.23Q47.36,-10.23 46.67,-9.53Q45.98,-8.83 45.98,-7.59L45.98,0L42.42,0ZM71.42,0L71.42,-13.23L74.87,-13.23L74.87,-11.77Q75.63,-12.8 76.64,-13.15Q77.65,-13.5 78.57,-13.5Q79.79,-13.5 80.74,-13.01Q81.7,-12.53 82.3,-11.56Q82.89,-12.34 83.66,-12.76Q84.43,-13.18 85.17,-13.34Q85.91,-13.5 86.51,-13.5Q88.64,-13.5 90,-12.12Q91.37,-10.75 91.37,-8.1L91.37,0L87.8,0L87.8,-7.56Q87.8,-8.96 87.2,-9.6Q86.59,-10.23 85.56,-10.23Q84.54,-10.23 83.86,-9.53Q83.19,-8.83 83.19,-7.59L83.19,0L79.6,0L79.6,-7.56Q79.6,-8.96 79,-9.6Q78.41,-10.23 77.41,-10.23Q76.36,-10.23 75.67,-9.53Q74.98,-8.83 74.98,-7.59L74.98,0L71.42,0ZM100.55,0.27Q98.52,0.27 97.01,-0.58Q95.5,-1.43 94.65,-2.96Q93.8,-4.48 93.8,-6.53L93.8,-6.8Q93.8,-8.67 94.59,-10.19Q95.39,-11.72 96.82,-12.61Q98.25,-13.5 100.2,-13.5Q102.22,-13.5 103.65,-12.51Q105.08,-11.53 105.75,-9.73Q106.41,-7.94 106.11,-5.51L97.39,-5.51Q97.52,-4.29 98.37,-3.52Q99.23,-2.75 100.71,-2.75Q101.71,-2.75 102.34,-3.05Q102.98,-3.35 103.52,-3.89L105.57,-1.78Q104.76,-0.76 103.46,-0.24Q102.17,0.27 100.55,0.27ZM100.2,-10.69Q98.98,-10.69 98.31,-9.92Q97.63,-9.15 97.42,-7.91L102.68,-7.91Q102.63,-9.26 101.94,-9.98Q101.25,-10.69 100.2,-10.69ZM114.7,0.27Q112.67,0.27 111.16,-0.58Q109.65,-1.43 108.8,-2.96Q107.95,-4.48 107.95,-6.53L107.95,-6.8Q107.95,-8.67 108.74,-10.19Q109.54,-11.72 110.97,-12.61Q112.4,-13.5 114.35,-13.5Q116.37,-13.5 117.8,-12.51Q119.23,-11.53 119.89,-9.73Q120.56,-7.94 120.26,-5.51L111.54,-5.51Q111.67,-4.29 112.52,-3.52Q113.37,-2.75 114.86,-2.75Q115.86,-2.75 116.49,-3.05Q117.13,-3.35 117.67,-3.89L119.72,-1.78Q118.91,-0.76 117.61,-0.24Q116.32,0.27 114.7,0.27ZM114.35,-10.69Q113.13,-10.69 112.46,-9.92Q111.78,-9.15 111.56,-7.91L116.83,-7.91Q116.78,-9.26 116.09,-9.98Q115.4,-10.69 114.35,-10.69ZM128.01,0Q127.04,0 126.05,-0.32Q125.06,-0.65 124.39,-1.53Q123.71,-2.4 123.71,-4.08L123.71,-10.21L121.58,-10.21L121.58,-13.23L123.71,-13.23L123.71,-16.44L127.31,-16.44L127.31,-13.23L130.19,-13.23L130.19,-10.21L127.31,-10.21L127.31,-3.78Q127.31,-3.46 127.52,-3.24Q127.74,-3.02 128.06,-3.02L130.19,-3.02L130.19,0L128.01,0ZM134,0L134,-10.21L131.71,-10.21L131.71,-13.23L137.59,-13.23L137.59,0L134,0ZM133.84,-15.74L133.84,-19.52L137.81,-19.52L137.81,-15.74L133.84,-15.74ZM140.94,0L140.94,-13.23L144.4,-13.23L144.4,-11.74Q145.21,-12.8 146.29,-13.15Q147.37,-13.5 148.2,-13.5Q150.44,-13.5 151.78,-12.03Q153.12,-10.56 153.12,-7.91L153.12,0L149.53,0L149.53,-7.34Q149.53,-8.86 148.88,-9.54Q148.23,-10.23 147.18,-10.23Q146.04,-10.23 145.29,-9.48Q144.53,-8.72 144.53,-7.24L144.53,0L140.94,0ZM155.44,5.4L155.44,2.46L163.51,2.46Q164.51,2.46 164.51,1.57Q164.51,0.68 163.51,0.68L158.76,0.68Q157.73,0.68 157.14,0.15Q156.55,-0.38 156.45,-1.2Q156.36,-2.02 156.79,-2.92L157.6,-4.56Q156.63,-5.24 156.07,-6.22Q155.52,-7.21 155.52,-8.42L155.52,-8.69Q155.52,-10.1 156.28,-11.18Q157.03,-12.26 158.38,-12.88Q159.73,-13.5 161.46,-13.5Q161.51,-13.5 161.57,-13.5L162.7,-15.98L166.32,-15.98L164.59,-12.85Q165.89,-12.26 166.64,-11.18Q167.4,-10.1 167.4,-8.72L167.4,-8.42Q167.4,-6.99 166.64,-5.87Q165.89,-4.75 164.55,-4.13Q163.22,-3.51 161.46,-3.51Q160.95,-3.51 160.46,-3.56L159.95,-2.54Q159.87,-2.38 159.91,-2.24Q159.95,-2.11 160.16,-2.11L164.05,-2.11Q165.73,-2.11 166.79,-1.22Q167.86,-0.32 167.86,1.59Q167.86,3.24 166.75,4.32Q165.65,5.4 163.89,5.4L155.44,5.4ZM161.46,-6.21Q162.03,-6.21 162.59,-6.43Q163.16,-6.64 163.53,-7.14Q163.89,-7.64 163.89,-8.53Q163.89,-9.48 163.22,-10.06Q162.54,-10.64 161.46,-10.64Q160.38,-10.64 159.7,-10.06Q159.03,-9.48 159.03,-8.53Q159.03,-7.64 159.41,-7.14Q159.79,-6.64 160.34,-6.43Q160.89,-6.21 161.46,-6.21Z" transform="translate(230,220.19)" fill="rgb(12,50,44)"/></g><g><path d="M3.28,0L3.28,-9.07L0.21,-9.07L0.21,-10.5L7.95,-10.5L7.95,-9.07L4.86,-9.07L4.86,0L3.28,0ZM10.59,0.15Q9.39,0.15 8.59,-0.57Q7.8,-1.29 7.8,-2.82L7.8,-7.26L9.25,-7.26L9.25,-3.09Q9.25,-2.02 9.72,-1.61Q10.19,-1.2 10.91,-1.2Q11.66,-1.2 12.18,-1.69Q12.71,-2.17 12.71,-3.16L12.71,-7.26L14.16,-7.26L14.16,0L12.87,0L12.87,-0.99Q12.42,-0.31 11.78,-0.08Q11.13,0.15 10.59,0.15ZM19.49,0.15Q18.39,0.15 17.56,-0.32Q16.74,-0.79 16.28,-1.63Q15.83,-2.47 15.83,-3.58L15.83,-3.73Q15.83,-4.78 16.25,-5.62Q16.68,-6.45 17.45,-6.93Q18.22,-7.41 19.26,-7.41Q20.33,-7.41 21.08,-6.88Q21.84,-6.36 22.19,-5.41Q22.55,-4.47 22.4,-3.18L17.28,-3.18Q17.37,-2.31 17.96,-1.73Q18.56,-1.15 19.54,-1.15Q20.63,-1.15 21.26,-1.74L22.1,-0.85Q21.66,-0.36 20.99,-0.1Q20.31,0.15 19.49,0.15ZM19.26,-6.19Q18.42,-6.19 17.93,-5.67Q17.43,-5.14 17.31,-4.29L20.99,-4.29Q20.97,-5.19 20.49,-5.69Q20.01,-6.19 19.26,-6.19ZM26.15,0.14Q25.31,0.14 24.59,-0.12Q23.88,-0.37 23.42,-0.75L24.06,-1.75Q24.49,-1.42 25.04,-1.22Q25.58,-1.02 26.15,-1.02Q26.74,-1.02 27.11,-1.29Q27.48,-1.56 27.48,-1.98Q27.48,-2.37 27.21,-2.57Q26.94,-2.77 26.51,-2.89Q26.08,-3.01 25.6,-3.14Q25.11,-3.27 24.68,-3.49Q24.26,-3.7 23.98,-4.1Q23.7,-4.5 23.7,-5.17Q23.7,-6.16 24.44,-6.79Q25.19,-7.41 26.43,-7.41Q27.14,-7.41 27.76,-7.21Q28.38,-7 28.86,-6.67L28.2,-5.68Q27.81,-5.95 27.35,-6.11Q26.9,-6.27 26.42,-6.27Q25.83,-6.27 25.47,-6Q25.11,-5.73 25.11,-5.31Q25.11,-4.92 25.39,-4.72Q25.67,-4.51 26.11,-4.39Q26.55,-4.27 27.04,-4.14Q27.53,-4 27.97,-3.78Q28.41,-3.55 28.69,-3.15Q28.97,-2.74 28.97,-2.07Q28.97,-1.42 28.6,-0.93Q28.23,-0.43 27.6,-0.15Q26.97,0.14 26.15,0.14ZM33.54,0.15Q32.55,0.15 31.78,-0.31Q31.01,-0.78 30.56,-1.62Q30.12,-2.46 30.12,-3.57L30.12,-3.72Q30.12,-4.81 30.57,-5.65Q31.02,-6.48 31.79,-6.94Q32.57,-7.41 33.56,-7.41Q34.29,-7.41 34.89,-7.11Q35.49,-6.81 35.91,-6.27L35.91,-10.95L37.38,-10.95L37.38,0L36.05,0L36.05,-1.14Q35.63,-0.52 34.98,-0.19Q34.34,0.15 33.54,0.15ZM33.77,-1.14Q34.73,-1.14 35.36,-1.81Q36,-2.49 36,-3.63Q36,-4.77 35.36,-5.44Q34.73,-6.1 33.77,-6.1Q32.84,-6.1 32.21,-5.46Q31.59,-4.81 31.59,-3.72L31.59,-3.57Q31.59,-2.46 32.21,-1.8Q32.84,-1.14 33.77,-1.14ZM41.68,0.15Q40.46,0.15 39.71,-0.46Q38.97,-1.06 38.97,-2.02Q38.97,-2.65 39.35,-3.16Q39.72,-3.66 40.37,-3.95Q41.03,-4.24 41.88,-4.24Q42.98,-4.24 43.67,-3.82L43.67,-4.62Q43.67,-5.41 43.23,-5.76Q42.8,-6.1 42.09,-6.1Q41.52,-6.1 40.92,-5.89Q40.32,-5.68 39.89,-5.25L39.21,-6.27Q39.71,-6.81 40.51,-7.11Q41.31,-7.41 42.18,-7.41Q43.49,-7.41 44.3,-6.72Q45.12,-6.03 45.12,-4.69L45.12,-2.35Q45.12,-1.77 45.13,-1.18Q45.14,-0.58 45.17,0L43.85,0L43.85,-0.73Q43.2,0.15 41.68,0.15ZM42.09,-0.94Q42.83,-0.94 43.25,-1.25Q43.68,-1.56 43.68,-2.05Q43.68,-2.53 43.25,-2.84Q42.83,-3.15 42.08,-3.15Q41.34,-3.15 40.9,-2.84Q40.46,-2.53 40.46,-2.05Q40.46,-1.57 40.9,-1.26Q41.34,-0.94 42.09,-0.94ZM46.36,3L46.36,1.74L47.88,1.74Q48.14,1.74 48.29,1.58Q48.45,1.41 48.56,1.17L49.05,0.11L46.07,-7.26L47.7,-7.26L49.83,-1.69L51.81,-7.26L53.45,-7.26L50.03,1.23Q49.86,1.64 49.61,2.05Q49.36,2.46 48.94,2.73Q48.51,3 47.81,3L46.36,3ZM53.48,0L53.48,-1.84L55.25,-1.84L55.25,0.96Q55.25,1.45 55.05,1.73Q54.86,2 54.56,2.1Q54.26,2.21 53.96,2.21L53.42,2.21L53.42,1.35L53.96,1.35Q54.14,1.35 54.23,1.23Q54.33,1.11 54.33,0.95L54.33,0L53.48,0ZM63.21,0.15Q62.07,0.15 61.23,-0.21Q60.39,-0.57 59.78,-1.17L60.63,-2.22Q61.11,-1.74 61.73,-1.45Q62.36,-1.15 63.22,-1.15Q64.23,-1.15 64.85,-1.65Q65.47,-2.14 65.47,-2.94Q65.47,-3.69 64.9,-4.14Q64.32,-4.59 63.33,-4.59L61.8,-4.59L61.8,-5.92L63.21,-5.92Q64.16,-5.92 64.69,-6.42Q65.24,-6.91 65.24,-7.63Q65.24,-8.41 64.68,-8.86Q64.13,-9.31 63.21,-9.31Q62.43,-9.31 61.85,-9.02Q61.26,-8.73 60.87,-8.32L60,-9.37Q60.56,-9.93 61.4,-10.29Q62.24,-10.65 63.27,-10.65Q64.3,-10.65 65.08,-10.3Q65.86,-9.96 66.3,-9.32Q66.74,-8.68 66.74,-7.83Q66.74,-7.05 66.36,-6.4Q65.99,-5.76 65.28,-5.37Q66.15,-5.02 66.58,-4.36Q67.01,-3.69 67.01,-2.86Q67.01,-1.96 66.51,-1.29Q66.02,-0.61 65.16,-0.23Q64.3,0.15 63.21,0.15ZM72.55,0.15Q70.74,0.15 69.71,-1.27Q68.67,-2.68 68.67,-5.23Q68.67,-7.8 69.71,-9.22Q70.74,-10.65 72.55,-10.65Q74.38,-10.65 75.41,-9.22Q76.44,-7.8 76.44,-5.23Q76.44,-2.68 75.41,-1.27Q74.38,0.15 72.55,0.15ZM72.55,-1.26Q73.66,-1.26 74.27,-2.28Q74.88,-3.3 74.88,-5.23Q74.88,-7.18 74.27,-8.21Q73.66,-9.24 72.55,-9.24Q71.44,-9.24 70.84,-8.21Q70.23,-7.18 70.23,-5.23Q70.23,-3.3 70.84,-2.28Q71.44,-1.26 72.55,-1.26ZM80.83,0L80.83,-1.42L83.06,-1.42Q83.46,-1.42 83.73,-1.69Q84,-1.96 84,-2.37L84,-9.07L81.33,-9.07L81.33,-10.5L85.58,-10.5L85.58,-2.52Q85.58,-1.29 84.89,-0.64Q84.21,0 82.92,0L80.83,0ZM90.35,0.15Q89.15,0.15 88.35,-0.57Q87.56,-1.29 87.56,-2.82L87.56,-7.26L89.01,-7.26L89.01,-3.09Q89.01,-2.02 89.48,-1.61Q89.94,-1.2 90.66,-1.2Q91.41,-1.2 91.94,-1.69Q92.46,-2.17 92.46,-3.16L92.46,-7.26L93.92,-7.26L93.92,0L92.63,0L92.63,-0.99Q92.18,-0.31 91.53,-0.08Q90.89,0.15 90.35,0.15ZM96.05,0L96.05,-7.26L97.46,-7.26L97.46,-6.22Q97.91,-6.91 98.56,-7.16Q99.21,-7.41 99.75,-7.41Q100.98,-7.41 101.73,-6.61Q102.48,-5.82 102.48,-4.29L102.48,0L101.01,0L101.01,-4.06Q101.01,-5.13 100.55,-5.59Q100.08,-6.06 99.36,-6.06Q98.6,-6.06 98.06,-5.55Q97.52,-5.04 97.52,-4.03L97.52,0L96.05,0ZM107.71,0.15Q106.62,0.15 105.8,-0.32Q104.97,-0.79 104.51,-1.63Q104.06,-2.47 104.06,-3.58L104.06,-3.73Q104.06,-4.78 104.48,-5.62Q104.91,-6.45 105.68,-6.93Q106.46,-7.41 107.49,-7.41Q108.56,-7.41 109.31,-6.88Q110.07,-6.36 110.42,-5.41Q110.78,-4.47 110.63,-3.18L105.51,-3.18Q105.6,-2.31 106.19,-1.73Q106.79,-1.15 107.78,-1.15Q108.85,-1.15 109.49,-1.74L110.33,-0.85Q109.89,-0.36 109.21,-0.1Q108.54,0.15 107.71,0.15ZM107.49,-6.19Q106.65,-6.19 106.16,-5.67Q105.66,-5.14 105.54,-4.29L109.21,-4.29Q109.2,-5.19 108.72,-5.69Q108.24,-6.19 107.49,-6.19ZM115.59,0L115.59,-1.15L119.35,-4.96Q120.1,-5.7 120.38,-6.28Q120.65,-6.85 120.65,-7.41Q120.65,-8.22 120.16,-8.7Q119.67,-9.18 118.83,-9.18Q118.14,-9.18 117.55,-8.8Q116.96,-8.43 116.49,-7.72L115.47,-8.7Q116.07,-9.61 116.95,-10.13Q117.82,-10.65 118.88,-10.65Q119.88,-10.65 120.64,-10.26Q121.4,-9.87 121.82,-9.17Q122.24,-8.47 122.24,-7.56Q122.24,-6.76 121.85,-5.92Q121.46,-5.08 120.45,-4.06L117.8,-1.39L122.66,-1.39L122.66,0L115.59,0ZM128.12,0.15Q126.3,0.15 125.27,-1.27Q124.23,-2.68 124.23,-5.23Q124.23,-7.8 125.27,-9.22Q126.3,-10.65 128.12,-10.65Q129.95,-10.65 130.97,-9.22Q132,-7.8 132,-5.23Q132,-2.68 130.97,-1.27Q129.95,0.15 128.12,0.15ZM128.12,-1.26Q129.23,-1.26 129.83,-2.28Q130.44,-3.3 130.44,-5.23Q130.44,-7.18 129.83,-8.21Q129.23,-9.24 128.12,-9.24Q127.01,-9.24 126.4,-8.21Q125.79,-7.18 125.79,-5.23Q125.79,-3.3 126.4,-2.28Q127.01,-1.26 128.12,-1.26ZM133.59,0L133.59,-1.15L137.35,-4.96Q138.1,-5.7 138.38,-6.28Q138.64,-6.85 138.64,-7.41Q138.64,-8.22 138.16,-8.7Q137.67,-9.18 136.83,-9.18Q136.14,-9.18 135.55,-8.8Q134.95,-8.43 134.49,-7.72L133.47,-8.7Q134.07,-9.61 134.95,-10.13Q135.82,-10.65 136.88,-10.65Q137.88,-10.65 138.64,-10.26Q139.39,-9.87 139.82,-9.17Q140.23,-8.47 140.23,-7.56Q140.23,-6.76 139.85,-5.92Q139.45,-5.08 138.45,-4.06L135.79,-1.39L140.66,-1.39L140.66,0L133.59,0ZM146.2,0.15Q145.05,0.15 144.2,-0.29Q143.35,-0.73 142.89,-1.54Q142.42,-2.35 142.42,-3.45Q142.42,-4.17 142.71,-4.88Q143,-5.59 143.49,-6.31L146.4,-10.5L148.26,-10.5L145.42,-6.64Q145.94,-6.84 146.52,-6.84Q147.53,-6.84 148.3,-6.39Q149.07,-5.94 149.51,-5.16Q149.94,-4.38 149.94,-3.36Q149.94,-2.29 149.47,-1.51Q149,-0.72 148.16,-0.28Q147.32,0.15 146.2,0.15ZM146.17,-1.2Q147.15,-1.2 147.76,-1.8Q148.36,-2.4 148.36,-3.36Q148.36,-4.32 147.76,-4.93Q147.15,-5.53 146.2,-5.53Q145.22,-5.53 144.61,-4.93Q144,-4.32 144,-3.36Q144,-2.38 144.6,-1.79Q145.2,-1.2 146.17,-1.2Z" transform="translate(230,248.05)" fill="rgb(60,84,78)"/></g><g><g><g><svg viewBox="0 0 24 24" aria-hidden="true" fill="none" stroke="#30ba78" stroke-width="1.8" stroke-linecap="round" stroke-linejoin="round" x="230" y="272.421875" width="18" height="18"><circle cx="12" cy="12" r="9"/><path d="M12 7.5V12l3 2"/></svg></g><g><path d="M2.42,0L5.23,-3.81Q4.67,-3.58 4.02,-3.58Q3.05,-3.58 2.3,-4.01Q1.55,-4.44 1.13,-5.19Q0.71,-5.94 0.71,-6.92Q0.71,-7.93 1.16,-8.69Q1.61,-9.45 2.41,-9.87Q3.22,-10.29 4.26,-10.29Q5.35,-10.29 6.15,-9.87Q6.95,-9.45 7.38,-8.69Q7.82,-7.92 7.82,-6.86Q7.82,-6.18 7.56,-5.52Q7.31,-4.87 6.87,-4.23L3.92,0L2.42,0ZM4.25,-4.61Q5.29,-4.61 5.94,-5.26Q6.58,-5.9 6.58,-6.93Q6.58,-7.96 5.95,-8.59Q5.32,-9.22 4.28,-9.22Q3.26,-9.22 2.61,-8.58Q1.96,-7.95 1.96,-6.93Q1.96,-5.92 2.6,-5.26Q3.25,-4.61 4.25,-4.61ZM9.54,-5.38L9.54,-6.97L10.99,-6.97L10.99,-5.38L9.54,-5.38ZM9.54,0L9.54,-1.59L10.99,-1.59L10.99,0L9.54,0ZM16.2,0.15Q14.47,0.15 13.49,-1.23Q12.5,-2.61 12.5,-5.06Q12.5,-6.7 12.94,-7.87Q13.38,-9.05 14.21,-9.67Q15.04,-10.29 16.2,-10.29Q17.34,-10.29 18.18,-9.67Q19.01,-9.05 19.45,-7.87Q19.89,-6.7 19.89,-5.06Q19.89,-2.61 18.91,-1.23Q17.92,0.15 16.2,0.15ZM16.2,-0.97Q17.36,-0.97 18.01,-2.04Q18.66,-3.1 18.66,-5.06Q18.66,-7.03 18.01,-8.11Q17.36,-9.18 16.2,-9.18Q15.04,-9.18 14.38,-8.11Q13.73,-7.03 13.73,-5.06Q13.73,-3.1 14.38,-2.04Q15.04,-0.97 16.2,-0.97ZM24.9,0.15Q23.17,0.15 22.19,-1.23Q21.2,-2.61 21.2,-5.06Q21.2,-6.7 21.64,-7.87Q22.08,-9.05 22.91,-9.67Q23.74,-10.29 24.9,-10.29Q26.04,-10.29 26.88,-9.67Q27.71,-9.05 28.15,-7.87Q28.59,-6.7 28.59,-5.06Q28.59,-2.61 27.61,-1.23Q26.62,0.15 24.9,0.15ZM24.9,-0.97Q26.06,-0.97 26.71,-2.04Q27.36,-3.1 27.36,-5.06Q27.36,-7.03 26.71,-8.11Q26.06,-9.18 24.9,-9.18Q23.74,-9.18 23.08,-8.11Q22.43,-7.03 22.43,-5.06Q22.43,-3.1 23.08,-2.04Q23.74,-0.97 24.9,-0.97ZM32.39,0L36.25,-10.15L37.74,-10.15L41.6,0L40.32,0L39.3,-2.77L34.7,-2.77L33.65,0L32.39,0ZM35.09,-3.83L38.89,-3.83L37,-8.92L35.09,-3.83ZM43.01,0L43.01,-10.15L44.66,-10.15L47.59,-4.07L50.5,-10.15L52.16,-10.15L52.16,0L50.95,0L50.95,-8.55L48.07,-2.42L47.1,-2.42L44.23,-8.55L44.23,0L43.01,0ZM57.52,-3.49L57.52,-4.6L63.32,-4.6L63.32,-3.49L57.52,-3.49ZM68.7,0L68.7,-1.13L71.37,-1.13L71.37,-8.29Q71.37,-8.61 71.17,-8.82Q70.98,-9.02 70.66,-9.02L68.73,-9.02L68.73,-10.15L70.96,-10.15Q71.67,-10.15 72.12,-9.69Q72.57,-9.24 72.57,-8.54L72.57,-1.13L75.21,-1.13L75.21,0L68.7,0ZM80.48,0.15Q78.75,0.15 77.76,-1.23Q76.78,-2.61 76.78,-5.06Q76.78,-6.7 77.22,-7.87Q77.66,-9.05 78.49,-9.67Q79.32,-10.29 80.48,-10.29Q81.62,-10.29 82.45,-9.67Q83.29,-9.05 83.73,-7.87Q84.17,-6.7 84.17,-5.06Q84.17,-2.61 83.19,-1.23Q82.2,0.15 80.48,0.15ZM80.48,-0.97Q81.64,-0.97 82.29,-2.04Q82.94,-3.1 82.94,-5.06Q82.94,-7.03 82.29,-8.11Q81.64,-9.18 80.48,-9.18Q79.32,-9.18 78.66,-8.11Q78.01,-7.03 78.01,-5.06Q78.01,-3.1 78.66,-2.04Q79.32,-0.97 80.48,-0.97ZM85.67,-5.38L85.67,-6.97L87.12,-6.97L87.12,-5.38L85.67,-5.38ZM85.67,0L85.67,-1.59L87.12,-1.59L87.12,0L85.67,0ZM92.32,0.15Q90.6,0.15 89.61,-1.23Q88.62,-2.61 88.62,-5.06Q88.62,-6.7 89.07,-7.87Q89.51,-9.05 90.34,-9.67Q91.16,-10.29 92.32,-10.29Q93.47,-10.29 94.3,-9.67Q95.13,-9.05 95.58,-7.87Q96.02,-6.7 96.02,-5.06Q96.02,-2.61 95.03,-1.23Q94.05,0.15 92.32,0.15ZM92.32,-0.97Q93.48,-0.97 94.13,-2.04Q94.79,-3.1 94.79,-5.06Q94.79,-7.03 94.13,-8.11Q93.48,-9.18 92.32,-9.18Q91.16,-9.18 90.51,-8.11Q89.86,-7.03 89.86,-5.06Q89.86,-3.1 90.51,-2.04Q91.16,-0.97 92.32,-0.97ZM101.02,0.15Q99.3,0.15 98.31,-1.23Q97.32,-2.61 97.32,-5.06Q97.32,-6.7 97.77,-7.87Q98.21,-9.05 99.04,-9.67Q99.86,-10.29 101.02,-10.29Q102.17,-10.29 103,-9.67Q103.83,-9.05 104.28,-7.87Q104.72,-6.7 104.72,-5.06Q104.72,-2.61 103.73,-1.23Q102.75,0.15 101.02,0.15ZM101.02,-0.97Q102.18,-0.97 102.83,-2.04Q103.49,-3.1 103.49,-5.06Q103.49,-7.03 102.83,-8.11Q102.18,-9.18 101.02,-9.18Q99.86,-9.18 99.21,-8.11Q98.56,-7.03 98.56,-5.06Q98.56,-3.1 99.21,-2.04Q99.86,-0.97 101.02,-0.97ZM108.52,0L112.38,-10.15L113.87,-10.15L117.73,0L116.45,0L115.42,-2.77L110.82,-2.77L109.78,0L108.52,0ZM111.22,-3.83L115.01,-3.83L113.13,-8.92L111.22,-3.83ZM119.13,0L119.13,-10.15L120.79,-10.15L123.71,-4.07L126.63,-10.15L128.28,-10.15L128.28,0L127.08,0L127.08,-8.55L124.19,-2.42L123.22,-2.42L120.35,-8.55L120.35,0L119.13,0Z" transform="translate(258,285.55)" fill="rgb(41,70,64)"/></g></g></g></g></g></g></g></g></svg>