<?xml version="1.0" standalone="no"?>
<svg id="chart-svg" xmlns="http://www.w3.org/2000/svg" viewBox="0 0 1080 1080" width="1080px" height="1080px" style="width:100%;height:auto;display:block;">
  <defs>
    <style>
      @font-face {
        font-family: 'SUSE';
        src: url('/catalog/fonts/webfonts/SUSE[wght].woff2') format('woff2-variations');
        font-weight: 100 900;
        font-display: block;
      }
      text, tspan { font-family: 'SUSE', system-ui, sans-serif; }
    </style>
  </defs>
  <rect id="chart-bg" width="1080" height="1080" fill="none"/>
  <path d="M 540 334.08000000000004 L 540 72 A 468 468 0 0 1 993.2652454864602 656.5101593600272 L 739.4367080140426 591.264470118412 A 205.92 205.92 0 0 0 540 334.08000000000004 Z" fill="#30ba78"/><text x="806.2787178639398" y="389.61105111232644" font-size="51" font-weight="700" fill="#0c322c" text-anchor="middle">29%</text><text x="806.2787178639398" y="293.9110511123264" font-size="44" font-weight="600" fill="#0c322c" text-anchor="middle">Linux</text><path d="M 739.4367080140426 591.264470118412 L 993.2652454864602 656.5101593600272 A 468 468 0 0 1 470.24821942955043 1002.7728266733602 L 509.3092165490022 743.6200437362785 A 205.92 205.92 0 0 0 739.4367080140426 591.264470118412 Z" fill="#0c322c"/><text x="726.0125304006934" y="877.0650870373953" font-size="51" font-weight="700" fill="#ffffff" text-anchor="middle">23%</text><text x="726.0125304006934" y="781.3650870373953" font-size="44" font-weight="600" fill="#ffffff" text-anchor="middle">Cloud</text><path d="M 509.3092165490022 743.6200437362785 L 470.24821942955043 1002.7728266733602 A 468 468 0 0 1 106.71661907021974 716.8884162687284 L 349.3553123908967 617.8309031582405 A 205.92 205.92 0 0 0 509.3092165490022 743.6200437362785 Z" fill="#90ebcd"/><text x="331.70514800310485" y="860.9684508045297" font-size="51" font-weight="700" fill="#0c322c" text-anchor="middle">16%</text><text x="331.70514800310485" y="765.2684508045296" font-size="44" font-weight="600" fill="#0c322c" text-anchor="middle">Edge</text><path d="M 349.3553123908967 617.8309031582405 L 106.71661907021974 716.8884162687284 A 468 468 0 0 1 539.9999999999999 72 L 540 334.08000000000004 A 205.92 205.92 0 0 0 349.3553123908967 617.8309031582405 Z" fill="#01564a"/><text x="260.306281320928" y="408.18122677211807" font-size="51" font-weight="700" fill="#ffffff" text-anchor="middle">31%</text><text x="260.306281320928" y="312.481226772118" font-size="44" font-weight="600" fill="#ffffff" text-anchor="middle">AI</text>
</svg>