<?xml version="1.0" standalone="no"?>
<svg xmlns="http://www.w3.org/2000/svg" viewBox="-44 -44 510 389" width="1600px" height="1000px" style="width:100%;height:auto;max-height:100%;display:block;" preserveAspectRatio="xMidYMid meet"><rect x="-44" y="-44" width="510" height="389" fill="#ffffff"/><g fill="none" stroke="#0c322c" stroke-width="1.6"><path d="M211 63L211 91L211 91L211 119"/><path d="M211 182L211 210L98 210L98 238"/><path d="M211 182L211 210L324 210L324 238"/></g><g><rect x="113" y="0" width="196" height="63" rx="14" ry="14" fill="#ffffff" stroke="#0c322c" stroke-width="1.5"/><text x="211" y="24" font-family="SUSE, system-ui, -apple-system, 'Segoe UI', Roboto, sans-serif" font-size="15" font-weight="500" fill="#0c322c" text-anchor="middle">Web App</text><text x="211" y="44.6" font-family="SUSE, system-ui, -apple-system, 'Segoe UI', Roboto, sans-serif" font-size="12" font-weight="400" fill="#6f6f6f" text-anchor="middle">PWA</text></g><g><rect x="113" y="119" width="196" height="63" rx="14" ry="14" fill="#ffffff" stroke="#0c322c" stroke-width="1.5"/><text x="211" y="152.5" font-family="SUSE, system-ui, -apple-system, 'Segoe UI', Roboto, sans-serif" font-size="15" font-weight="500" fill="#0c322c" text-anchor="middle">API Gateway</text></g><g><rect x="0" y="238" width="196" height="63" rx="14" ry="14" fill="#ffffff" stroke="#0c322c" stroke-width="1.5"/><text x="98" y="271.5" font-family="SUSE, system-ui, -apple-system, 'Segoe UI', Roboto, sans-serif" font-size="15" font-weight="500" fill="#0c322c" text-anchor="middle">Auth Service</text></g><g><rect x="226" y="238" width="196" height="63" rx="14" ry="14" fill="#ffffff" stroke="#0c322c" stroke-width="1.5"/><text x="324" y="262" font-family="SUSE, system-ui, -apple-system, 'Segoe UI', Roboto, sans-serif" font-size="15" font-weight="500" fill="#0c322c" text-anchor="middle">Database</text><text x="324" y="282.6" font-family="SUSE, system-ui, -apple-system, 'Segoe UI', Roboto, sans-serif" font-size="12" font-weight="400" fill="#6f6f6f" text-anchor="middle">Postgres</text></g></svg>