<?xml version="1.0" standalone="no"?>
<svg xmlns="http://www.w3.org/2000/svg" viewBox="-44 -44 510 389" width="1600px" height="1000px" style="width:100%;height:auto;max-height:100%;display:block;" preserveAspectRatio="xMidYMid meet"><rect x="-44" y="-44" width="510" height="389" fill="#ffffff"/><path d="M211 63L211 91L211 91L211 119" fill="none" stroke="#0c322c" stroke-width="1.6"/><path d="M211 182L211 210L98 210L98 238" fill="none" stroke="#0c322c" stroke-width="1.6"/><path d="M211 182L211 210L324 210L324 238" fill="none" stroke="#0c322c" stroke-width="1.6"/><g><path d="M127 0L295 0C302.73 0 309 6.27 309 14L309 49C309 56.73 302.73 63 295 63L127 63C119.27 63 113 56.73 113 49L113 14C113 6.27 119.27 0 127 0Z" fill="#ffffff" stroke="#0c322c" stroke-width="1.5"/><text x="211" y="24" font-family="SUSE, system-ui, -apple-system, 'Segoe UI', Roboto, sans-serif" font-size="15" font-weight="500" fill="#0c322c" text-anchor="middle">Web App</text><text x="211" y="44.6" font-family="SUSE, system-ui, -apple-system, 'Segoe UI', Roboto, sans-serif" font-size="12" font-weight="400" fill="#6f6f6f" text-anchor="middle">PWA</text></g><g><path d="M127 119L295 119C302.73 119 309 125.27 309 133L309 168C309 175.73 302.73 182 295 182L127 182C119.27 182 113 175.73 113 168L113 133C113 125.27 119.27 119 127 119Z" fill="#ffffff" stroke="#0c322c" stroke-width="1.5"/><text x="211" y="152.5" font-family="SUSE, system-ui, -apple-system, 'Segoe UI', Roboto, sans-serif" font-size="15" font-weight="500" fill="#0c322c" text-anchor="middle">API Gateway</text></g><g><path d="M14 238L182 238C189.73 238 196 244.27 196 252L196 287C196 294.73 189.73 301 182 301L14 301C6.27 301 0 294.73 0 287L0 252C0 244.27 6.27 238 14 238Z" fill="#ffffff" stroke="#0c322c" stroke-width="1.5"/><text x="98" y="271.5" font-family="SUSE, system-ui, -apple-system, 'Segoe UI', Roboto, sans-serif" font-size="15" font-weight="500" fill="#0c322c" text-anchor="middle">Auth Service</text></g><g><path d="M240 238L408 238C415.73 238 422 244.27 422 252L422 287C422 294.73 415.73 301 408 301L240 301C232.27 301 226 294.73 226 287L226 252C226 244.27 232.27 238 240 238Z" fill="#ffffff" stroke="#0c322c" stroke-width="1.5"/><text x="324" y="262" font-family="SUSE, system-ui, -apple-system, 'Segoe UI', Roboto, sans-serif" font-size="15" font-weight="500" fill="#0c322c" text-anchor="middle">Database</text><text x="324" y="282.6" font-family="SUSE, system-ui, -apple-system, 'Segoe UI', Roboto, sans-serif" font-size="12" font-weight="400" fill="#6f6f6f" text-anchor="middle">Postgres</text></g></svg>