<?xml version="1.0" standalone="no"?>
<svg xmlns="http://www.w3.org/2000/svg" viewBox="0 0 1080 1080" width="1080px" height="1080px" style="width:100%;height:auto;display:block;"><rect width="100%" height="100%" fill="#c2bcbd"/><g transform="translate(0 0) scale(3.46)" fill-rule="evenodd"><path d="M1 0L0 312L312 312L312 0L1 0ZM89 58C90.33 58.33 94.83 58.83 95 62C95.17 65.17 90 73.17 90 77C90 80.83 94.17 78.67 95 85C95.83 91.33 95 115 95 115L88 114C88 114 85.5 117.67 86 123C86.5 128.33 89.5 140.83 91 146C92.5 151.17 93.5 152.17 95 154C96.5 155.83 99.17 154.67 100 157C100.83 159.33 99.5 164.33 100 168C100.5 171.67 101.67 175.83 103 179C104.33 182.17 107.17 184.83 108 187C108.83 189.17 108.83 190.5 108 192C107.17 193.5 106.67 194.83 103 196C99.33 197.17 97.33 195.67 86 199C74.67 202.33 47 212.67 35 216C23 219.33 14 219 14 219L15 214L12 214L13 211C13 211 10.5 210.5 10 210C9.5 209.5 10 208 10 208L13 209L12 204L7 205C7 205 8.5 197 8 194C7.5 191 4 187 4 187L8 188C8 188 6.83 182.33 7 181C7.17 179.67 9 180 9 180L6 179C6 179 6.5 175 7 174C7.5 173 9 173 9 173L10 175C10 175 7.17 173.33 7 172C6.83 170.67 9 169.17 9 167C9 164.83 6.5 161.33 7 159C7.5 156.67 12 153 12 153L10 152L8 155C8 155 10 153 10 152C10 151 8 149 8 149L11 150L11 138L14 140L14 136L15 139C15 139 14.5 130.33 15 128C15.5 125.67 17.17 125.33 18 125C18.83 124.67 20 126 20 126L16 122C16 122 20 120.83 21 120C22 119.17 22 117 22 117L25 118L25 115L23 115C23 115 25.5 114 26 113C26.5 112 26 109 26 109L28 109L26 108L27 105L31 106L29 103C29 103 31.83 104.17 33 103C34.17 101.83 36 96 36 96L39 97C39 97 39.5 94.67 39 94C38.5 93.33 36 93 36 93L42 93L41 90L47 89L47 86L43 87L51 83L50 80L55 80L53 78L57 76L55 74L60 75L60 72L62 73L64 68L67 71L69 65C69 65 69.83 67.67 71 68C72.17 68.33 75.17 67.5 76 67C76.83 66.5 76.67 65.5 76 65C75.33 64.5 72 64 72 64C72 64 71.83 62.17 73 62C74.17 61.83 77.17 63.17 79 63C80.83 62.83 84 61 84 61L82 59C82 59 85.83 60.17 87 60C88.17 59.83 87.67 57.67 89 58ZM140 77C140 77 146.5 80.67 149 81C151.5 81.33 155 79 155 79L154 83C154 83 157.5 82 159 83C160.5 84 163 89 163 89L164 87C164 87 165.83 86.67 166 88C166.17 89.33 165.67 93.33 165 95C164.33 96.67 163 97.67 162 98C161 98.33 159 97 159 97L162 107L152 110C152 110 151.67 106.83 151 106C150.33 105.17 148 105 148 105L148 111C148 111 139.33 108.83 137 109C134.67 109.17 136.33 111.5 134 112C131.67 112.5 125 112.67 123 112C121 111.33 122.83 108.67 122 108C121.17 107.33 118 108 118 108L118 106L120 107L119 105L123 106C123 106 121.17 106 121 105C120.83 104 122 100 122 100L119 100C119 100 120.67 100.5 121 99C121.33 97.5 121 91 121 91L123 92L124 87L127 88L125 83C125 83 130.83 81.67 132 81C133.17 80.33 132 79 132 79C132 79 137.67 79.33 139 79C140.33 78.67 140 77 140 77ZM125 93C124 93.33 123 96 123 96L129 94C129 94 126 92.67 125 93ZM127 139C128.83 138.5 131 139 131 139C131 139 129.83 141.5 128 142C126.17 142.5 120 142 120 142C120 142 125.17 139.5 127 139ZM150 144L151 147L147 148L150 144ZM117 145L127 147C127 147 121.83 149.67 120 150C118.17 150.33 116 149 116 149L117 145ZM13 148L12 151L14 151L13 148ZM213 154C214.83 153 216.17 153.33 217 154C217.83 154.67 218 158 218 158L211 161C211 161 213.5 161.83 214 163C214.5 164.17 213.17 167 214 168C214.83 169 219 169 219 169C219 169 215.83 168.67 215 169C214.17 169.33 214.17 168.5 214 171C213.83 173.5 214 184 214 184L212 184C212 184 211.33 185.5 212 186C212.67 186.5 216 187 216 187C216 187 214.33 187.33 214 189C213.67 190.67 214 197 214 197L216 197C216 197 214 200 214 201C214 202 216 203 216 203C216 203 210.33 203.5 209 203C207.67 202.5 208 200 208 200L211 201L211 199C211 199 207.17 200.17 206 200C204.83 199.83 205.17 200.33 204 198C202.83 195.67 198.83 190.17 199 186C199.17 181.83 203.83 177.33 205 173C206.17 168.67 204.67 163.17 206 160C207.33 156.83 211.17 155 213 154ZM142 168C142 168 147.17 169.83 150 170C152.83 170.17 157.33 168.67 159 169C160.67 169.33 160 172 160 172C160 172 148.17 172.17 145 172C141.83 171.83 141 171 141 171L142 168ZM162 169L164 169L163 172L162 169ZM130 235L130 237L134 235C134 235 135.17 238.67 136 240C136.83 241.33 137.83 242.5 139 243C140.17 243.5 141.83 242.33 143 243C144.17 243.67 144.67 246.67 146 247C147.33 247.33 151 245 151 245L151 247L154 247L152 248L153 250C153 250 149.17 249.5 148 250C146.83 250.5 146 253 146 253C146 253 145.17 251 144 251C142.83 251 140.83 253.17 139 253C137.17 252.83 133 250 133 250L132 254C132 254 129.5 249.67 128 249C126.5 248.33 124.33 251 123 250C121.67 249 120 243 120 243L123 243L123 245C123 245 128.67 243 130 243C131.33 243 131 245 131 245L130 235ZM119 237L122 238C122 238 121.5 241.33 121 242C120.5 242.67 119 242 119 242L119 237ZM135 241L134 243L137 243L135 241ZM128 244L126 246L129 246L128 244ZM156 246L157 249L159 248L158 252L154 250L156 250L156 246ZM140 248L138 249C138 249 138.5 251.5 139 252C139.5 252.5 141 252 141 252L140 248Z" fill="#b6a9a8"/><path d="M1 0C1 0 -0.17 87.33 0 105C0.17 122.67 2 106 2 106C2 106 2.17 100.33 3 99C3.83 97.67 7 98 7 98C7 98 5.33 96.67 5 96C4.67 95.33 5 94 5 94L8 94L6 93C6 93 6.33 90.83 7 90C7.67 89.17 10 88 10 88L11 91L11 87L14 87L10 86C10 86 11 82.83 12 82C13 81.17 15.17 81.83 16 81C16.83 80.17 16.5 77.67 17 77C17.5 76.33 19 77 19 77L18 75L23 74L21 73C21 73 22.17 70.33 23 70C23.83 69.67 25.17 71.33 26 71C26.83 70.67 26.83 68.67 28 68C29.17 67.33 33 67 33 67L31 63L36 62L35 60L38 59L36 57L39 57L39 55L43 57L41 54C41 54 49.33 51.33 51 50C52.67 48.67 51 46 51 46L55 49C55 49 61.5 40.5 64 39C66.5 37.5 70 40 70 40L69 38L75 37L75 34C75 34 80.5 34.5 82 34C83.5 33.5 82.33 31.5 84 31C85.67 30.5 90.33 31.5 92 31C93.67 30.5 92.83 28.33 94 28C95.17 27.67 97.83 29.17 99 29C100.17 28.83 99.67 27.33 101 27C102.33 26.67 107 27 107 27L106 29L111 31L109 27C109 27 119.17 26.17 122 26C124.83 25.83 125.17 25.5 126 26C126.83 26.5 127 29 127 29L129 27C129 27 130.33 28.67 131 29C131.67 29.33 133 29 133 29L132 27L138 27L137 29C137 29 146 27.83 148 28C150 28.17 148 29.67 149 30C150 30.33 154 30 154 30L154 32L156 29L156 32C156 32 157.83 29.67 159 30C160.17 30.33 163 34 163 34L141 32L141 30C141 30 140.33 32.33 137 33C133.67 33.67 124.17 33.33 121 34C117.83 34.67 119 36.67 118 37C117 37.33 118.17 33.33 115 36C111.83 38.67 102.5 47.33 99 53C95.5 58.67 95.33 66.67 94 70C92.67 73.33 91.5 71.67 91 73C90.5 74.33 90.33 76.5 91 78C91.67 79.5 94.17 78.5 95 82C95.83 85.5 96.17 94.17 96 99C95.83 103.83 94 108.17 94 111C94 113.83 96 116 96 116C96 116 93.5 114 92 114C90.5 114 87.83 113.83 87 116C86.17 118.17 86.33 122.17 87 127C87.67 131.83 89.67 141.83 91 145C92.33 148.17 95 146 95 146L94 140C94 140 99 144.67 100 146C101 147.33 100 148 100 148C100 148 96.83 147.17 96 148C95.17 148.83 94.33 151.5 95 153C95.67 154.5 99.17 154.83 100 157C100.83 159.17 98.67 160.17 100 166C101.33 171.83 107.83 186.83 108 192C108.17 197.17 104.5 195.83 101 197C97.5 198.17 98.33 195.67 87 199C75.67 202.33 46.5 213.33 33 217C19.5 220.67 11.5 219.67 6 221C0.5 222.33 1 209.83 0 225C-1 240.17 0 312 0 312L312 312L312 0L1 0ZM164 31L170 35L163 35L165 34L164 31ZM195 45L196 47L198 46C198 46 197.5 48.5 197 49C196.5 49.5 195 49 195 49L195 45ZM202 49L201 54L205 54L204 64L198 52C198 52 200.33 52.5 201 52C201.67 51.5 202 49 202 49ZM207 57L212 58L210 63C210 63 213.5 59.83 215 60C216.5 60.17 218.67 62.5 219 64C219.33 65.5 217 69 217 69C217 69 219.17 67.67 220 68C220.83 68.33 222 71 222 71L224 69C224 69 224 73.17 225 74C226 74.83 228.83 72.67 230 74C231.17 75.33 231.17 80.5 232 82C232.83 83.5 235 83 235 83L232 86C232 86 234 84.67 235 86C236 87.33 238 94 238 94L240 93L239 96L242 97C242 97 240.33 97.17 240 98C239.67 98.83 240 102 240 102L244 101L242 105L245 105C245 105 245.33 113 246 115C246.67 117 248.83 115.83 249 117C249.17 118.17 247 122 247 122L250 123C250 123 248.67 126 249 127C249.33 128 252 129 252 129C252 129 250 130.17 250 131C250 131.83 252 134 252 134L250 135C250 135 251.67 134.17 253 135C254.33 135.83 257.5 138 258 140C258.5 142 255.83 144.83 256 147C256.17 149.17 259 151 259 153C259 155 256 157.5 256 159C256 160.5 259 162 259 162C259 162 257.67 161.33 257 163C256.33 164.67 255 170.33 255 172C255 173.67 256.83 171.33 257 173C257.17 174.67 256 182 256 182L253 182L254 179L251 179C251 179 252.17 184.67 252 186C251.83 187.33 250 187 250 187L252 189L247 193L250 196C250 196 247.67 195.33 247 197C246.33 198.67 246.33 204 246 206C245.67 208 245.67 208.5 245 209C244.33 209.5 243 207 242 209C241 211 239 221 239 221C239 221 221.83 214.17 218 212C214.17 209.83 218.33 210.17 216 208C213.67 205.83 206.83 202.17 204 199C201.17 195.83 199.83 191.67 199 189C198.17 186.33 198.17 185.5 199 183C199.83 180.5 203 177.83 204 174C205 170.17 203.33 164.17 205 160C206.67 155.83 212.17 153.17 214 149C215.83 144.83 215 138.83 216 135C217 131.17 219.5 129.33 220 126C220.5 122.67 219 115 219 115L209 115C209 115 210.67 117 211 111C211.33 105 210.5 84.5 211 79C211.5 73.5 214 78 214 78L203 70C203 70 205.17 65 206 64C206.83 63 208 64 208 64L207 57ZM128 75C129.33 75.17 131.83 77.5 133 78C134.17 78.5 135 78 135 78L134 75C134 75 145.33 75.5 148 76C150.67 76.5 146.83 78.17 150 78C153.17 77.83 167 75 167 75C167 75 166.17 76.5 167 77C167.83 77.5 171 76.83 172 78C173 79.17 173 84 173 84L175 83C175 83 175.5 86.67 175 88C174.5 89.33 172 91 172 91C172 91 173.67 91.17 174 93C174.33 94.83 174 102 174 102L176 102L175 105C175 105 172.17 103.33 171 104C169.83 104.67 168 109 168 109C168 109 168.17 107.33 166 108C163.83 108.67 157.33 112.33 155 113C152.67 113.67 152 112 152 112C152 112 152.83 114 151 114C149.17 114 141 112 141 112L142 110C142 110 140.33 112.5 137 113C133.67 113.5 125.17 113.33 122 113C118.83 112.67 119.5 111 118 111C116.5 111 113 113 113 113L111 109L109 112L109 106L111 106L108 99L112 98C112 98 110.5 94 111 92C111.5 90 114.5 87.67 115 86C115.5 84.33 114 82 114 82L117 82L117 78L120 78L120 76C120 76 123.67 77.17 125 77C126.33 76.83 126.67 74.83 128 75ZM175 96L177 96L177 99L175 96ZM189 129L188 134C188 134 186.83 131.83 187 131C187.17 130.17 189 129 189 129ZM149 132L150 135L148 134L149 132ZM121 134L122 138L132 137C132 137 133.5 140 133 141C132.5 142 131.67 142.83 129 143C126.33 143.17 119.17 142.67 117 142C114.83 141.33 115.33 140.33 116 139C116.67 137.67 121 134 121 134ZM148 138L151 140L149 142C149 142 151.5 142 152 143C152.5 144 152.33 147 152 148C151.67 149 151 148.83 150 149C149 149.17 146 149 146 149L148 138ZM165 138L176 139L176 142C176 142 171.83 143.17 170 143C168.17 142.83 165.83 141.83 165 141C164.17 140.17 165 138 165 138ZM112 145C114.33 144.33 122.17 144.67 125 145C127.83 145.33 129 147 129 147C129 147 127.67 150.17 125 151C122.33 151.83 115.33 152.33 113 152C110.67 151.67 111.17 150.17 111 149C110.83 147.83 109.67 145.67 112 145ZM173 147C173 147 183.17 145.83 186 147C188.83 148.17 189.5 152 190 154C190.5 156 190.17 158.17 189 159C187.83 159.83 183 159 183 159L184 156C184 156 177.83 153.5 176 152C174.17 150.5 173 147 173 147ZM141 168C144 167.83 152.83 167.83 156 168C159.17 168.17 159.33 168.33 160 169C160.67 169.67 160 172 160 172C160 172 142.67 172.5 139 172C135.33 171.5 138 169 138 169C138 169 138 168.17 141 168ZM162 169C162.5 168.5 164 169 164 169L164 172L161 172C161 172 161.5 169.5 162 169ZM252 169L251 171L254 171L252 169ZM142 175L150 177L142 177L142 175ZM141 179L149 181L141 181L141 179ZM134 187L137 187C137 187 136.5 189.5 136 190C135.5 190.5 134 190 134 190L134 187ZM125 222C126.5 222.33 129.67 225.5 131 226C132.33 226.5 131.33 223.83 133 225C134.67 226.17 138.83 231.67 141 233C143.17 234.33 144.67 232.5 146 233C147.33 233.5 147.83 235.67 149 236C150.17 236.33 153 235 153 235L152 238C152 238 154.17 234.5 156 234C157.83 233.5 163 235 163 235L163 233C163 233 167.83 233.33 169 233C170.17 232.67 169 231.17 170 231C171 230.83 175 232 175 232C175 232 169.17 235 168 236C166.83 237 168 238 168 238L171 238C171 238 168.67 238 167 241C165.33 244 161 256 161 256C161 256 155.83 253.67 153 254C150.17 254.33 144 258 144 258L146 255L144 254C144 254 143.67 257.83 143 259C142.33 260.17 140 261 140 261L142 254L139 254C139 254 139.67 258 139 259C138.33 260 135 260 135 260L136 257C136 257 134.83 256.5 134 257C133.17 257.5 131 260 131 260C131 260 123.33 255.17 121 252C118.67 248.83 117.83 245 117 241C116.17 237 115.67 230.33 116 228C116.33 225.67 119 227 119 227L118 225L125 227L122 224C122 224 123.5 221.67 125 222ZM158 235L157 240L160 237L158 235ZM176 249L180 252C180 252 178.83 254.67 178 255C177.17 255.33 175 254 175 254L176 249ZM171 251L177 257C177 257 176 259 175 259C174 259 171 257 171 257L172 260L168 261C168 261 170.17 257.17 170 256C169.83 254.83 167 254 167 254L171 254L171 251ZM162 255C162.5 254.67 164 255 164 255L163 258L161 257C161 257 161.5 255.33 162 255ZM163 262C164 261.83 167 262 167 262L164 265L167 267C167 267 162.33 269.83 161 270C159.67 270.17 159 268 159 268L158 271L155 265L160 266L159 263L162 265L161 263C161 263 162 262.17 163 262Z" fill="#ab9c99"/><path d="M1 0L0 69C0 69 2.17 70 3 69C3.83 68 3.67 64.5 5 63C6.33 61.5 10 61 11 60C12 59 11 57 11 57L16 57L15 50L18 52C18 52 18.17 49.67 19 49C19.83 48.33 23 48 23 48L22 46C22 46 25.83 46.83 27 46C28.17 45.17 27.5 42.17 29 41C30.5 39.83 34 40.33 36 39C38 37.67 38.67 34.5 41 33C43.33 31.5 48.33 31 50 30C51.67 29 49.17 27.83 51 27C52.83 26.17 58.33 26.33 61 25C63.67 23.67 64.83 20 67 19C69.17 18 72.67 19.5 74 19C75.33 18.5 73.83 16.67 75 16C76.17 15.33 79 15 81 15C83 15 87 16 87 16L87 14C87 14 92.67 14.33 94 14C95.33 13.67 92.83 12.33 95 12C97.17 11.67 107 12 107 12L107 10L110 10L110 12C110 12 121.5 12.33 124 12C126.5 11.67 121.5 10.17 125 10C128.5 9.83 145 11 145 11L144 13L154 12L154 14L166 14L166 16C166 16 166.33 14.5 169 15C171.67 15.5 179.67 18 182 19C184.33 20 180.83 20.17 183 21C185.17 21.83 192.83 23 195 24C197.17 25 194 26.33 196 27C198 27.67 207 28 207 28L206 32L211 31L211 33C211 33 213.67 32 215 33C216.33 34 217.83 38 219 39C220.17 40 221 38 222 39C223 40 223.83 44 225 45C226.17 46 228.17 44.33 229 45C229.83 45.67 230 49 230 49L232 48C232 48 231.33 50.33 232 51C232.67 51.67 235.17 51 236 52C236.83 53 236 55.83 237 57C238 58.17 242 59 242 59L240 61C240 61 244.17 63 245 64C245.83 65 244.17 66.17 245 67C245.83 67.83 250 69 250 69L248 72L254 77L252 78L255 79L254 82L257 82L258 91C258 91 259.83 89.67 261 91C262.17 92.33 265 99 265 99L268 96C268 96 267.33 100.67 268 102C268.67 103.33 271.5 102.67 272 104C272.5 105.33 270.83 108.83 271 110C271.17 111.17 272.67 110 273 111C273.33 112 272.33 115 273 116C273.67 117 277 117 277 117C277 117 274.33 122 274 124C273.67 126 275 129 275 129L278 127C278 127 275.83 133.83 276 136C276.17 138.17 279 138.67 279 140C279 141.33 276.5 142.83 276 144C275.5 145.17 276 147 276 147L278 147C278 147 278.5 160.17 278 163C277.5 165.83 275 164 275 164C275 164 276.83 163.67 277 165C277.17 166.33 276 172 276 172L278 172C278 172 278.67 174.83 278 176C277.33 177.17 274.67 178 274 179C273.33 180 273.33 181.33 274 182C274.67 182.67 278 183 278 183C278 183 276 180.83 275 184C274 187.17 273.17 198.5 272 202C270.83 205.5 268.5 203.83 268 205C267.5 206.17 269.67 207.17 269 209C268.33 210.83 265.67 212.5 264 216C262.33 219.5 259 230 259 230C259 230 255.83 228.83 255 229C254.17 229.17 254 231 254 231C254 231 237.17 220.5 232 218C226.83 215.5 227.67 219.17 223 216C218.33 212.83 208 203.33 204 199C200 194.67 199.83 193 199 190C198.17 187 198.17 183.83 199 181C199.83 178.17 203 176.67 204 173C205 169.33 203.33 163.17 205 159C206.67 154.83 212.17 152.17 214 148C215.83 143.83 215 137.83 216 134C217 130.17 219.33 127.83 220 125C220.67 122.17 220.5 118.83 220 117C219.5 115.17 218.83 114.33 217 114C215.17 113.67 209 115 209 115C209 115 210.67 114.83 211 109C211.33 103.17 212.5 86.5 211 80C209.5 73.5 203.5 73.67 202 70C200.5 66.33 203.17 61.5 202 58C200.83 54.5 196.33 51.33 195 49C193.67 46.67 194 44 194 44C194 44 195.5 47.33 192 46C188.5 44.67 180.67 38.33 173 36C165.33 33.67 154.5 32.33 146 32C137.5 31.67 127.17 33.17 122 34C116.83 34.83 118.67 34 115 37C111.33 40 103 48.5 100 52C97 55.5 97.33 56.5 97 58C96.67 59.5 98.83 58.67 98 61C97.17 63.33 93 68.83 92 72C91 75.17 91.5 78.33 92 80C92.5 81.67 94.33 80.33 95 82C95.67 83.67 96.17 85.17 96 90C95.83 94.83 93.83 106.67 94 111C94.17 115.33 97 116 97 116C97 116 92.33 114.83 91 115C89.67 115.17 89 117 89 117L90 115C90 115 88.5 114.67 88 115C87.5 115.33 86.5 113.33 87 117C87.5 120.67 91 137 91 137C91 137 92 127.83 93 126C94 124.17 97 126 97 126C97 126 94 135.67 94 138C94 140.33 96.67 139.17 97 140C97.33 140.83 96 143 96 143C96 143 99.17 140.5 100 145C100.83 149.5 99.5 162.33 101 170C102.5 177.67 109 186.5 109 191C109 195.5 111.33 193.67 101 197C90.67 200.33 58.17 207.67 47 211C35.83 214.33 40.83 215.33 34 217C27.17 218.67 11.67 219.5 6 221C0.33 222.5 1 210.83 0 226C-1 241.17 0 312 0 312L312 312L312 0L1 0ZM128 73C128 73 145 76.83 150 77C155 77.17 154 74.33 158 74C162 73.67 170.5 73.5 174 75C177.5 76.5 178.17 80.17 179 83C179.83 85.83 178.83 90.17 179 92C179.17 93.83 180 94 180 94L182 93L180 98L184 99C184 99 181.5 99.33 181 100C180.5 100.67 181 103 181 103L179 101L178 108L176 108L178 110C178 110 156.5 112 152 113C147.5 114 151 116 151 116C151 116 147.83 113.5 142 113C136.17 112.5 121 112.5 116 113C111 113.5 114.17 115.83 112 116C109.83 116.17 104.5 116.5 103 114C101.5 111.5 102.67 103.33 103 101C103.33 98.67 104 103 105 100C106 97 107.33 87 109 83C110.67 79 112.67 77.5 115 76C117.33 74.5 120.33 74.17 123 74C125.67 73.83 131 75 131 75L128 73ZM91 116L98 117L98 122C98 122 95.17 122 94 121C92.83 120 91 116 91 116ZM103 127C103 127 105.5 130.67 106 133C106.5 135.33 106 141 106 141C106 141 106.67 139.33 108 140C109.33 140.67 110.5 144.17 114 145C117.5 145.83 126.17 144.67 129 145C131.83 145.33 131 147 131 147C131 147 127.67 151.83 126 153C124.33 154.17 121 154 121 154L122 156L119 155L118 159C118 159 113.83 158.5 113 158C112.17 157.5 113 156 113 156L112 158C112 158 111.67 156 110 156C108.33 156 102 158 102 158L103 127ZM122 127L130 129L122 129L122 127ZM149 127C149 127 151.67 126.33 152 128C152.33 129.67 150.5 133.83 151 137C151.5 140.17 155 144.67 155 147C155 149.33 152.5 150.5 151 151C149.5 151.5 147.33 150.83 146 150C144.67 149.17 144.33 146.67 143 146C141.67 145.33 138 146 138 146L138 144L142 145L149 127ZM189 128C189.83 127.17 192 128 192 128L191 135L187 133C187 133 188.17 128.83 189 128ZM116 130L121 130L120 132C120 132 124.17 132.17 125 133C125.83 133.83 125 137 125 137C125 137 132.5 136.17 135 135C137.5 133.83 140 130 140 130L139 138L137 137L136 139L138 140C138 140 134.5 142.67 131 143C127.5 143.33 119.67 142.33 117 142C114.33 141.67 115.33 142 115 141C114.67 140 114.5 137 115 136C115.5 135 117.5 135.5 118 135C118.5 134.5 118 133 118 133L116 134L116 130ZM111 135L112 139L109 137L111 135ZM164 135L172 136L172 138L179 137C179 137 178.17 138.5 179 139C179.83 139.5 183.17 139.33 184 140C184.83 140.67 184 143 184 143C184 143 168.5 142.5 165 142C161.5 141.5 163.17 141.17 163 140C162.83 138.83 164 135 164 135ZM174 146C176 145.83 181.17 145.5 184 146C186.83 146.5 189.83 146.83 191 149C192.17 151.17 191 159 191 159L189 159C189 159 189.83 163.83 189 167C188.17 170.17 184 178 184 178C184 178 182.33 175.17 182 174C181.67 172.83 182 171 182 171L184 171C184 171 184.83 163.5 183 160C181.17 156.5 174.83 152.17 173 150C171.17 147.83 172 147 172 147C172 147 172 146.17 174 146ZM134 149L137 149L137 151L134 151L134 149ZM171 152L173 155L171 155L171 152ZM135 168C135.5 167.67 137 168 137 168L137 171L134 170C134 170 134.5 168.33 135 168ZM138 168L160 168L160 170L164 169L164 172C164 172 143.33 172.67 139 172C134.67 171.33 138 168 138 168ZM141 175C141 175 148.33 174.5 150 175C151.67 175.5 151 178 151 178C151 178 143.67 177.5 142 177C140.33 176.5 141 175 141 175ZM131 177L133 179L133 177C133 177 135.5 176.67 136 178C136.5 179.33 135 183.17 136 185C137 186.83 141 187.83 142 189C143 190.17 142 192 142 192C142 192 140 190.67 139 191C138 191.33 137.17 193.83 136 194C134.83 194.17 132.67 193.5 132 192C131.33 190.5 132 185 132 185L130 186L129 183L135 183L129 180L131 177ZM137 178C137 178 156.67 178.5 161 179C165.33 179.5 163 181 163 181L158 181L158 183C158 183 156.83 181.17 155 181C153.17 180.83 148.67 181.5 147 182C145.33 182.5 145 184 145 184L146 182C146 182 145.5 181.17 144 181C142.5 180.83 137 181 137 181L137 178ZM148 192L153 193L148 196L148 192ZM118 219L121 219L121 221C121 221 120.83 219.17 122 219C123.17 218.83 125.33 218.83 128 220C130.67 221.17 136.17 224.5 138 226C139.83 227.5 138.5 228.5 139 229C139.5 229.5 141 229 141 229L141 226C141 226 142.83 228.33 145 229C147.17 229.67 151.17 230.17 154 230C156.83 229.83 162 228 162 228C162 228 161.17 229.5 162 230C162.83 230.5 165.83 231.33 167 231C168.17 230.67 166.67 228.67 169 228C171.33 227.33 181 227 181 227L181 225C181 225 183.5 227 182 229C180.5 231 174 234.83 172 237C170 239.17 170.83 241 170 242C169.17 243 167 243 167 243C167 243 168.5 245 168 246C167.5 247 164.67 248.17 164 249C163.33 249.83 164 251 164 251C164 251 167.5 251.83 169 251C170.5 250.17 170.67 246.83 173 246C175.33 245.17 183 246 183 246C183 246 181.83 251.17 180 254C178.17 256.83 175.33 260.17 172 263C168.67 265.83 163 269.83 160 271C157 272.17 154 270 154 270L154 273C154 273 145.83 274.17 143 274C140.17 273.83 138 272.67 137 272C136 271.33 137 270 137 270L133 270C133 270 133.67 266.83 133 266C132.33 265.17 129.83 266 129 265C128.17 264 129.33 262 128 260C126.67 258 122.83 255.83 121 253C119.17 250.17 118 248.33 117 243C116 237.67 115 221 115 221L118 222L118 219ZM154 255L153 257L155 256L154 259C154 259 155.5 259.5 156 259C156.5 258.5 157 256 157 256L154 255ZM151 258C150.17 258.33 148 260 148 260L152 261L153 258C153 258 151.83 257.67 151 258ZM139 263L138 270C138 270 140.83 268.17 141 267C141.17 265.83 139 263 139 263ZM151 264L149 266L155 267L151 264Z" fill="#9f8e8a"/><path d="M1 0L0 37C0 37 0 34.5 1 34C2 33.5 6 34 6 34L5 31L10 32L10 30L7 30C7 30 8 27.5 9 27C10 26.5 12.17 27.33 13 27C13.83 26.67 14 25 14 25C14 25 15.33 26.83 16 27C16.67 27.17 18 26 18 26L16 25C16 25 15.5 23.83 17 23C18.5 22.17 25 20 25 20L24 17L28 17L27 15L31 16L30 13C30 13 33.67 13.67 35 13C36.33 12.33 36 10 38 9C40 8 45.33 7.83 47 7C48.67 6.17 45.67 4.83 48 4C50.33 3.17 61 2 61 2L61 0L1 0ZM187 0C187 0 185.83 1.33 187 2C188.17 2.67 192.17 3.83 194 4C195.83 4.17 198 3 198 3L199 6L202 4C202 4 203.5 7.17 205 8C206.5 8.83 209.83 8.33 211 9C212.17 9.67 210.5 11.17 212 12C213.5 12.83 218.33 12.83 220 14C221.67 15.17 222 19 222 19L225 18L225 21C225 21 226.83 20.5 228 21C229.17 21.5 231.33 23 232 24C232.67 25 231 26.17 232 27C233 27.83 236.67 27.83 238 29C239.33 30.17 238.83 33 240 34C241.17 35 243.33 33.17 245 35C246.67 36.83 248.5 42.83 250 45C251.5 47.17 253 47.67 254 48C255 48.33 256 47 256 47C256 47 253.83 47.5 256 50C258.17 52.5 266.83 59.5 269 62C271.17 64.5 268.5 64.33 269 65C269.5 65.67 271 64.83 272 66C273 67.17 273.17 70.33 275 72C276.83 73.67 283 76 283 76C283 76 281.5 77.83 282 79C282.5 80.17 285.33 81 286 83C286.67 85 286 91 286 91L291 91L290 97L292 97C292 97 291.17 100.5 292 103C292.83 105.5 297 112 297 112L295 113C295 113 296.67 112.5 297 114C297.33 115.5 296.5 120.5 297 122C297.5 123.5 299.83 113 300 123C300.17 133 299.5 168.5 298 182C296.5 195.5 292 199.67 291 204C290 208.33 292 208 292 208C292 208 290.83 206.5 290 208C289.17 209.5 287.83 215.5 287 217C286.17 218.5 285 217 285 217L286 220C286 220 282.67 221 282 222C281.33 223 282.67 224.67 282 226C281.33 227.33 278.5 229 278 230C277.5 231 279.67 230.83 279 232C278.33 233.17 274.67 235.67 274 237C273.33 238.33 275.33 239.17 275 240C274.67 240.83 277.83 245 272 242C266.17 239 248 226.17 240 222C232 217.83 229.17 219.83 224 217C218.83 214.17 213.17 209.5 209 205C204.83 200.5 200.67 194 199 190C197.33 186 198.33 183.5 199 181C199.67 178.5 202 178.83 203 175C204 171.17 203.83 161.33 205 158C206.17 154.67 208.5 156.83 210 155C211.5 153.17 212.5 152.33 214 147C215.5 141.67 218.33 128.33 219 123C219.67 117.67 218 115 218 115L208 115C208 115 209.5 117.67 210 112C210.5 106.33 212.33 87.83 211 81C209.67 74.17 203.5 74.67 202 71C200.5 67.33 202.5 62 202 59C201.5 56 201 55.5 199 53C197 50.5 194.5 46.83 190 44C185.5 41.17 178.83 37.83 172 36C165.17 34.17 157.17 33.33 149 33C140.83 32.67 128.5 33.33 123 34C117.5 34.67 119.83 34 116 37C112.17 40 103 48 100 52C97 56 99.33 57.67 98 61C96.67 64.33 93 69 92 72C91 75 91.5 77.33 92 79C92.5 80.67 94.33 80.5 95 82C95.67 83.5 96 82.83 96 88C96 93.17 94.67 108.33 95 113C95.33 117.67 97.33 114.17 98 116C98.67 117.83 99.33 120.67 99 124C98.67 127.33 96 136 96 136L100 136L99 145L102 145L101 124C101 124 101.67 121 103 124C104.33 127 106.67 138.5 109 142C111.33 145.5 113.17 144.33 117 145C120.83 145.67 132 146 132 146C132 146 121 155.67 119 161C117 166.33 120 178 120 178L117 178L119 174L108 176C108 176 108.67 173 108 172C107.33 171 104 170 104 170C104 170 103.17 177 104 180C104.83 183 108.17 186 109 188C109.83 190 109.83 190.67 109 192C108.17 193.33 114.17 192.83 104 196C93.83 199.17 59.67 207.5 48 211C36.33 214.5 40.83 215.33 34 217C27.17 218.67 12.67 219.5 7 221C1.33 222.5 1.17 210.83 0 226C-1.17 241.17 0 312 0 312L312 312L312 0L187 0ZM128 72C132 71.5 132.67 71.33 136 72C139.33 72.67 142.67 76 148 76C153.33 76 162.33 72.17 168 72C173.67 71.83 178.67 72 182 75C185.33 78 187.17 87 188 90C188.83 93 187 93 187 93L190 94C190 94 187.17 95 187 97C186.83 99 190.67 103.5 189 106C187.33 108.5 183.17 110.5 177 112C170.83 113.5 152 115 152 115L152 119L147 119C147 119 148.5 117 147 116C145.5 115 142.67 113.5 138 113C133.33 112.5 122.33 112.67 119 113C115.67 113.33 120.33 114.33 118 115C115.67 115.67 107.67 117 105 117C102.33 117 102.83 116.33 102 115C101.17 113.67 99.67 112.67 100 109C100.33 105.33 103 95.67 104 93C105 90.33 106 93 106 93C106 93 106 83 107 80C108 77 108.5 76.33 112 75C115.5 73.67 124 72.5 128 72ZM89 117C87.5 116 87.17 116.83 87 118C86.83 119.17 87.5 122.83 88 124C88.5 125.17 90 125 90 125L91 122L96 124C96 124 90.5 118 89 117ZM112 119L113 121L110 122L112 119ZM167 124L168 127L166 127L167 124ZM108 126L112 131C112 131 117.83 126.5 121 126C124.17 125.5 131 128 131 128C131 128 126.17 129.17 125 130C123.83 130.83 124 133 124 133C124 133 135.17 131.17 138 130C140.83 128.83 141 126 141 126C141 126 142.33 125.83 142 128C141.67 130.17 140 136.67 139 139C138 141.33 139.17 141.33 136 142C132.83 142.67 124.5 143.67 120 143C115.5 142.33 111 140.83 109 138C107 135.17 108 126 108 126ZM148 127C149.83 124.83 152 127.17 153 128C154 128.83 154.17 131.17 154 132C153.83 132.83 152 133 152 133L154 133L156 150C156 150 149 152.17 147 152C145 151.83 145.67 149.67 144 149C142.33 148.33 137 148 137 148L139 153L131 154C131 154 132 150 133 149C134 148 136.33 148.67 137 148C137.67 147.33 136.17 146.17 137 145C137.83 143.83 140.17 144 142 141C143.83 138 146.17 129.17 148 127ZM189 127C190 126.5 192 127 192 127C192 127 193 135.33 192 138C191 140.67 189.17 142 186 143C182.83 144 177 144.5 173 144C169 143.5 163.83 141.83 162 140C160.17 138.17 161.67 134.33 162 133C162.33 131.67 162.67 131.67 164 132C165.33 132.33 167 134.67 170 135C173 135.33 182 134 182 134C182 134 182.17 132.33 180 132C177.83 131.67 171.5 132.5 169 132C166.5 131.5 165 129 165 129C165 129 170.5 128.67 172 129C173.5 129.33 172.67 131.17 174 131C175.33 130.83 178 128.17 180 128C182 127.83 184.5 130.17 186 130C187.5 129.83 188 127.5 189 127ZM171 146L193 147L193 158L195 158C195 158 193 159.67 193 161C193 162.33 195 164.83 195 166C195 167.17 193 168 193 168L195 170C195 170 192.83 173.33 192 174C191.17 174.67 190 174 190 174L191 170C191 170 188.5 170 188 171C187.5 172 189 173.83 188 176C187 178.17 182 184 182 184C182 184 178.67 182 178 181C177.33 180 177.67 178.67 178 178C178.33 177.33 180 177 180 177L181 179C181 179 179.83 175 180 174C180.17 173 181.5 174.33 182 173C182.5 171.67 184 169.17 183 166C182 162.83 177.5 156 176 154C174.5 152 174 154 174 154L174 157C174 157 172 157.67 171 157C170 156.33 168.33 154.33 168 153C167.67 151.67 169 149 169 149L174 153L171 146ZM102 153L100 157L102 157L102 153ZM102 161C102 161 100.83 166.33 101 168C101.17 169.67 103 171 103 171L102 161ZM152 162L157 165L151 165L152 162ZM142 167C144.83 167 147 168.83 150 169C153 169.17 160 168 160 168L160 170L164 168C164 168 165.17 170.17 165 171C164.83 171.83 167.33 172.83 163 173C158.67 173.17 144 172.67 139 172C134 171.33 133 169 133 169C133 169 139.17 167 142 167ZM128 172C128 172 136.67 177 139 178C141.33 179 142 178 142 178L141 173C141 173 141.17 174.67 144 175C146.83 175.33 158 175 158 175L158 177L153 177C153 177 153.17 178.67 154 179C154.83 179.33 157.17 179.33 158 179C158.83 178.67 159 177 159 177C159 177 160.67 178.67 162 179C163.33 179.33 166 179.33 167 179C168 178.67 168 177 168 177L169 179C169 179 169.17 176.5 170 176C170.83 175.5 174 176 174 176C174 176 172 179.17 172 181C172 182.83 174.5 185.17 174 187C173.5 188.83 170.67 191.17 169 192C167.33 192.83 164 192 164 192L164 190L160 190L159 183L158 185L155 183L154 186C154 186 154.5 184 153 184C151.5 184 146.67 186.33 145 186C143.33 185.67 143 182 143 182C143 182 140 184.33 140 186C140 187.67 140.83 191.33 143 192C145.17 192.67 150.83 189.67 153 190C155.17 190.33 156 194 156 194L151 194C151 194 152.33 195.17 152 196C151.67 196.83 149.83 198.5 149 199C148.17 199.5 147 199 147 199C147 199 148.33 196.83 148 196C147.67 195.17 146 194.33 145 194C144 193.67 142 194 142 194L142 196L138 195L141 195C141 195 140.67 193.33 140 193C139.33 192.67 137.83 192.33 137 193C136.17 193.67 135 197 135 197L136 194C136 194 131.83 193.17 131 192C130.17 190.83 131.5 188 131 187C130.5 186 128.5 186.83 128 186C127.5 185.17 128.33 182.83 128 182C127.67 181.17 126 182.67 126 181C126 179.33 128 172 128 172ZM195 172L194 178L193 176L191 177L195 172ZM143 196L144 199L140 198L143 196ZM110 199C110 199 113.33 198.83 114 200C114.67 201.17 113.67 204.83 114 206C114.33 207.17 116 207 116 207L117 204L120 212L123 210L124 216C124 216 126.83 214.17 128 215C129.17 215.83 128.83 219.17 131 221C133.17 222.83 139 225.5 141 226C143 226.5 140.67 224 143 224C145.33 224 151.67 226.33 155 226C158.33 225.67 159.67 222.17 163 222C166.33 221.83 172.17 225.33 175 225C177.83 224.67 177.17 221.5 180 220C182.83 218.5 192 216 192 216C192 216 191.33 221.17 189 224C186.67 226.83 180 230.5 178 233C176 235.5 177 239 177 239L183 238L182 242L184 242C184 242 185.17 243.33 184 246C182.83 248.67 180 254.33 177 258C174 261.67 169.67 265.5 166 268C162.33 270.5 159.83 272 155 273C150.17 274 141 274.5 137 274C133 273.5 133.83 273.67 131 270C128.17 266.33 122.5 256.83 120 252C117.5 247.17 117 247.17 116 241C115 234.83 115 222 114 215C113 208 110 199 110 199Z" fill="#8d7a73"/><path d="M243 0C243 0 242.17 3.33 244 5C245.83 6.67 252.17 8.5 254 10C255.83 11.5 254.17 13.17 255 14C255.83 14.83 258 14.17 259 15C260 15.83 259.5 18 261 19C262.5 20 266.17 20 268 21C269.83 22 271.33 23.83 272 25C272.67 26.17 269.83 25.67 272 28C274.17 30.33 282.83 36.67 285 39C287.17 41.33 283.5 40.83 285 42C286.5 43.17 292 45.5 294 46C296 46.5 297 45 297 45L297 47L299 46L301 50C301 50 301.67 48.17 303 49C304.33 49.83 308.17 53.67 309 55C309.83 56.33 307.5 56 308 57C308.5 58 312 61 312 61L312 0L243 0ZM133 33C124.17 32.67 125.17 33.17 121 35C116.83 36.83 111.67 40.83 108 44C104.33 47.17 100.67 51 99 54C97.33 57 99.17 58.83 98 62C96.83 65.17 93 70.33 92 73C91 75.67 91.33 76.5 92 78C92.67 79.5 95.5 76.67 96 82C96.5 87.33 95 104.5 95 110C95 115.5 95.17 113.67 96 115C96.83 116.33 100 118 100 118C100 118 98.17 118.33 98 120C97.83 121.67 99 128 99 128L101 128L100 123C100 123 102.67 122 104 125C105.33 128 105.5 137.67 108 141C110.5 144.33 115 144.33 119 145C123 145.67 132 145 132 145C132 145 134 145.17 132 148C130 150.83 121.83 156.67 120 162C118.17 167.33 121 180 121 180C121 180 119 177.83 118 178C117 178.17 115 181 115 181L114 177C114 177 114.5 179.83 114 181C113.5 182.17 111 184 111 184L112 179L109 182L106 178C106 178 105.5 179.67 106 182C106.5 184.33 108 190.17 109 192C110 193.83 110.83 191.67 112 193C113.17 194.33 115.5 198.5 116 200C116.5 201.5 113.83 200.67 115 202C116.17 203.33 120.5 205.33 123 208C125.5 210.67 126.5 215.5 130 218C133.5 220.5 140.17 222 144 223C147.83 224 151.17 224.17 153 224C154.83 223.83 153.5 222.33 155 222C156.5 221.67 159.83 222.67 162 222C164.17 221.33 166.67 218.33 168 218C169.33 217.67 170 220 170 220L173 215L175 216L175 213L177 215L178 212L180 213C180 213 178 212.33 179 211C180 209.67 184.83 206.83 186 205C187.17 203.17 185 201.33 186 200C187 198.67 192 197 192 197L192 202L190 201L189 203C189 203 192 203.67 193 205C194 206.33 195.5 207.83 195 211C194.5 214.17 191.83 221 190 224C188.17 227 184.5 226.83 184 229C183.5 231.17 187.17 233.5 187 237C186.83 240.5 186 245.17 183 250C180 254.83 173 262.33 169 266C165 269.67 162 270.67 159 272C156 273.33 155 273.67 151 274C147 274.33 138.5 274.33 135 274C131.5 273.67 133.33 277.83 130 272C126.67 266.17 117.83 249 115 239C112.17 229 114 217.83 113 212C112 206.17 109.83 207.17 109 204C108.17 200.83 108 193 108 193C108 193 103.33 197.17 101 198C98.67 198.83 95.5 197 94 198C92.5 199 92.67 203 92 204C91.33 205 90 204 90 204C90 204 92 201.83 92 201C92 200.17 92 198.83 90 199C88 199.17 82.5 200.83 80 202C77.5 203.17 80.67 204.33 75 206C69.33 207.67 53.17 210 46 212C38.83 214 38.67 216.33 32 218C25.33 219.67 11.33 220.5 6 222C0.67 223.5 1 212 0 227C-1 242 0 312 0 312L312 312L312 225C312 225 308.33 229.17 307 232C305.67 234.83 304 242 304 242L302 240C302 240 301 247.33 300 249C299 250.67 296.83 248.83 296 250C295.17 251.17 295 256 295 256C295 256 299.83 260.83 292 256C284.17 251.17 259.33 233.5 248 227C236.67 220.5 231.17 221.33 224 217C216.83 212.67 209.33 205.67 205 201C200.67 196.33 199.17 191.83 198 189C196.83 186.17 197.17 186.5 198 184C198.83 181.5 201.67 178.67 203 174C204.33 169.33 205.67 160.33 206 156C206.33 151.67 203.83 150.67 205 148C206.17 145.33 212 144.5 213 140C214 135.5 211 121 211 121L207 126C207 126 204.83 125.83 206 124C207.17 122.17 214 115 214 115L208 116C208 116 209.83 115 210 111C210.17 107 208.83 96.83 209 92C209.17 87.17 211.17 84.67 211 82C210.83 79.33 209.67 77.83 208 76C206.33 74.17 202.17 74 201 71C199.83 68 201.5 61.17 201 58C200.5 54.83 200 54.33 198 52C196 49.67 193 46.5 189 44C185 41.5 183.33 38.83 174 37C164.67 35.17 141.83 33.33 133 33ZM130 71C134 71.33 141.5 75 147 75C152.5 75 156.67 71.5 163 71C169.33 70.5 180.5 71.17 185 72C189.5 72.83 188.67 74.33 190 76C191.33 77.67 192.67 80.5 193 82C193.33 83.5 192 85 192 85C192 85 194.17 84.33 195 85C195.83 85.67 196.67 87.5 197 89C197.33 90.5 197 94 197 94L194 94C194 94 196.67 96.5 197 98C197.33 99.5 196 103 196 103L198 102L197 111C197 111 193.17 108.67 190 109C186.83 109.33 182.83 112.17 178 113C173.17 113.83 161 114 161 114C161 114 162 115.17 161 116C160 116.83 157.5 118.5 155 119C152.5 119.5 148.67 119.83 146 119C143.33 118.17 143.17 114.83 139 114C134.83 113.17 127 113.5 121 114C115 114.5 106.67 117.5 103 117C99.33 116.5 99.67 112.67 99 111C98.33 109.33 98.5 109.83 99 107C99.5 104.17 101 96.67 102 94C103 91.33 104.17 94 105 91C105.83 88 106 79 107 76C108 73 111 73 111 73L113 75C113 75 114.33 72.33 116 72C117.67 71.67 120.67 73.17 123 73C125.33 72.83 126 70.67 130 71ZM89 117L88 121L91 119L89 117ZM118 118L117 126L111 125C111 125 111 128 113 128C115 128 119.83 125.17 123 125C126.17 124.83 130.33 126.33 132 127C133.67 127.67 133 129 133 129L129 131L133 131L133 129L135 130L134 128C134 128 138.83 127 140 126C141.17 125 141 122 141 122C141 122 143.5 119.83 143 123C142.5 126.17 142 137.67 138 141C134 144.33 123.83 143.5 119 143C114.17 142.5 111 141.33 109 138C107 134.67 106.83 126.17 107 123C107.17 119.83 108.17 119.83 110 119C111.83 118.17 118 118 118 118ZM216 117C215.33 117.17 214.17 115.67 214 118C213.83 120.33 215 131 215 131C215 131 217.5 126.33 218 124C218.5 121.67 218 117 218 117C218 117 216.67 116.83 216 117ZM121 119L126 121L122 122L121 119ZM178 119C180.17 119.17 186 122 186 122L186 120C186 120 188.67 120.17 190 121C191.33 121.83 193.83 121.83 194 125C194.17 128.17 193.5 136.83 191 140C188.5 143.17 183.83 143.83 179 144C174.17 144.17 165 143.17 162 141C159 138.83 161 131 161 131L165 131L163 128L165 129L167 124C167 124 170.33 128.17 172 129C173.67 129.83 177 129 177 129L176 124C176 124 176.67 126.33 178 127C179.33 127.67 184 128 184 128C184 128 182.83 124.17 181 123C179.17 121.83 173 121 173 121C173 121 175.83 118.83 178 119ZM149 126C151 123.5 152 125.33 153 127C154 128.67 153.83 133.33 155 136C156.17 138.67 159.33 141.33 160 143C160.67 144.67 159 146 159 146L163 144L165 150L148 153L149 156C149 156 145.67 150.83 144 150C142.33 149.17 139 151 139 151C139 151 140.5 152.17 140 153C139.5 153.83 137.67 155.67 136 156C134.33 156.33 130 155 130 155C130 155 134.17 147.17 136 145C137.83 142.83 138.83 145.17 141 142C143.17 138.83 147 128.5 149 126ZM197 129C198.17 126.67 199 129 199 129C199 129 197.33 129.17 197 131C196.67 132.83 196.5 136.83 197 140C197.5 143.17 199.5 145 200 150C200.5 155 200.33 166 200 170C199.67 174 198.83 173.33 198 174C197.17 174.67 195 174 195 174C195 174 196 180.17 195 182C194 183.83 189 185 189 185L189 182L187 183L186 181L182 186L177 182L177 186L175 184C175 184 175.5 188 175 189C174.5 190 172.67 189.17 172 190C171.33 190.83 171 194 171 194C171 194 164.5 192.83 163 193C161.5 193.17 162 195 162 195L159 194L157 199C157 199 156.17 197.17 155 197C153.83 196.83 150 198 150 198C150 198 152 199 152 200C152 201 150 204 150 204C150 204 148.17 202 147 202C145.83 202 143 204 143 204L139 195C139 195 138.5 198.33 138 199C137.5 199.67 136.5 199.67 136 199C135.5 198.33 136 196 135 195C134 194 130.83 194.17 130 193C129.17 191.83 130 188 130 188C130 188 128.67 189 128 188C127.33 187 126.17 184.67 126 182C125.83 179.33 126.33 173.83 127 172C127.67 170.17 129.17 170.67 130 171C130.83 171.33 132 174 132 174C132 174 133.83 172.17 135 172C136.17 171.83 139 173 139 173L138 170L133 171C133 171 132.5 167.5 135 167C137.5 166.5 148 168 148 168L145 164C145 164 145.67 165.83 144 166C142.33 166.17 135 165 135 165L137 161L141 163L140 161C140 161 142.67 159.5 144 160C145.33 160.5 148 164 148 164L147 161L151 160L152 163L154 160C154 160 154.67 163.33 156 164C157.33 164.67 160.67 163.5 162 164C163.33 164.5 164 167 164 167C164 167 154.5 166 152 166C149.5 166 149 167 149 167C149 167 147.33 168.83 150 169C152.67 169.17 162.17 167.5 165 168C167.83 168.5 167 172 167 172C167 172 157.33 173.17 153 173C148.67 172.83 141 171 141 171L141 173C141 173 156.33 172.67 160 173C163.67 173.33 162.5 174.17 163 175C163.5 175.83 163 178 163 178L173 173L173 175C173 175 175.17 174 176 175C176.83 176 178 181 178 181C178 181 177.33 176.5 178 175C178.67 173.5 181.33 173.83 182 172C182.67 170.17 182.33 166 182 164C181.67 162 181.83 160.83 180 160C178.17 159.17 173.5 160.17 171 159C168.5 157.83 165 153 165 153C165 153 167 147.17 170 146C173 144.83 179.33 146.5 183 146C186.67 145.5 189.67 145.83 192 143C194.33 140.17 195.83 131.33 197 129ZM213 143L209 148C209 148 211.33 147.83 212 147C212.67 146.17 213 143 213 143ZM133 162L134 165L132 165L133 162ZM165 163C165 163 166.5 162.33 167 163C167.5 163.67 168 167 168 167C168 167 165.5 166.67 165 166C164.5 165.33 165 163 165 163ZM136 174L135 176L138 176L136 174ZM145 185C145 185 143.17 186.17 143 187C142.83 187.83 144 190 144 190L145 185ZM148 186C147 186.17 145 189 145 189L150 191C150 191 151.33 188.83 151 188C150.67 187.17 149 185.83 148 186ZM158 198L161 199L160 202L158 198ZM100 203L105 205L99 205L100 203ZM84 205L86 206L82 208L84 205ZM88 206L89 208L86 210L88 206ZM83 209L83 212L86 212L82 214L83 209ZM108 210L110 214L107 214L108 217L105 218L108 210ZM54 212L55 214L52 215L54 212ZM101 215C101.83 214.67 104 216 104 216C104 216 101.17 216.17 100 217C98.83 217.83 97 221 97 221L95 217C95 217 98 218.33 99 218C100 217.67 100.17 215.33 101 215ZM103 219L106 220C106 220 102.17 221.5 101 223C99.83 224.5 99 229 99 229L99 220L103 221L103 219ZM92 221L94 221L93 224L92 221ZM93 224L97 227C97 227 94.5 227.33 94 228C93.5 228.67 94 231 94 231L90 230L93 224ZM104 224C104.83 223.67 108 224 108 224L108 226L103 226C103 226 103.17 224.33 104 224ZM87 227L90 227L88 231L87 227ZM103 228C103.83 227.33 106 228 106 228L104 230C104 230 105.5 229.17 106 230C106.5 230.83 107 235 107 235L101 232C101 232 102.17 228.67 103 228ZM106 229L109 230L107 231L106 229ZM94 231C95.17 230.5 100 231 100 231C100 231 101.5 232.17 100 233C98.5 233.83 91 236 91 236L91 233L93 234C93 234 92.83 231.5 94 231ZM81 232L83 232L84 240C84 240 81.5 238.33 81 237C80.5 235.67 81 232 81 232ZM76 233C76 233 77.67 234.33 78 235C78.33 235.67 78 237 78 237L76 236L77 240L71 241L71 238L74 239L71 236L74 235L75 237L74 234L76 235L76 233ZM88 233C88 233 89.17 235.83 89 237C88.83 238.17 87 240 87 240L88 233ZM53 236L55 238L52 238L53 236ZM99 236L100 239L97 238L99 236ZM107 237C107 237 105.83 242.33 106 244C106.17 245.67 108 247 108 247C108 247 104 246.33 103 247C102 247.67 101.5 249.5 102 251C102.5 252.5 105.67 254.67 106 256C106.33 257.33 104 259 104 259C104 259 102.17 257.83 102 257C101.83 256.17 103 254 103 254L101 254C101 254 102.33 249.33 102 248C101.67 246.67 99 246 99 246L101 244L97 245L99 243C99 243 98.17 241.83 97 242C95.83 242.17 92 244 92 244L93 246L89 246L91 244L89 242L96 242L94 240L101 242L102 238L105 240L107 237ZM78 241C78.83 240.33 79.5 240.33 80 241C80.5 241.67 80 244.33 81 245C82 245.67 86 245 86 245L86 247C86 247 82 246.67 81 247C80 247.33 80 249 80 249C80 249 79.83 245.67 79 245C78.17 244.33 75 245 75 245C75 245 77.17 241.67 78 241ZM104 241L101 243L102 245L104 241ZM31 244C31 244 33.33 243.5 34 244C34.67 244.5 35 247 35 247L31 244ZM190 244L194 247C194 247 191.67 247.5 191 247C190.33 246.5 190 244 190 244ZM63 245L63 247L60 247L63 245ZM97 246L98 250L94 251L97 246ZM188 247L187 251L191 251C191 251 188.33 253.17 188 254C187.67 254.83 189 256 189 256L183 255L187 255L186 248L188 249L188 247ZM83 248L87 248L87 250L85 249L84 251L83 248ZM50 249L52 252L50 252L50 249ZM105 249L106 252L103 252L105 249ZM81 250L83 251L82 253L81 250ZM201 250L202 252L200 253L201 250ZM72 251C72 251 73.33 254.83 73 256C72.67 257.17 70 258 70 258L72 251ZM86 252C86 252 86.5 254.33 86 255C85.5 255.67 83 256 83 256L86 252ZM193 253L195 255L191 258L190 256L192 257L193 253ZM209 255L211 256L208 257L209 255ZM198 256L201 256L199 260L197 259L199 259L198 256ZM202 256L204 259L202 259L202 256ZM82 257L83 260C83 260 76.83 259.67 75 260C73.17 260.33 72.33 261 72 262C71.67 263 73 266 73 266C73 266 71.17 266 71 265C70.83 264 70.67 260.83 72 260C73.33 259.17 77.33 260.5 79 260C80.67 259.5 82 257 82 257ZM106 258C106 258 107.33 267.67 107 270C106.67 272.33 104 272 104 272L103 264L99 264L103 263L102 260L106 260L106 258ZM95 261L96 265L93 263L95 261ZM82 264L83 266L81 267L82 264ZM87 265L91 266L87 267L87 265ZM97 265L99 267L96 267L97 265ZM101 266L102 268L97 270L101 266ZM94 267L95 271C95 271 93.83 269 93 269C92.17 269 90 271 90 271L94 267ZM83 271L84 273L82 274L83 271ZM107 271C107 271 108.33 272 108 273C107.67 274 105 277 105 277L106 274L104 275L104 273L107 273L107 271ZM78 272L81 272L81 275L78 275L80 274L78 272ZM182 272L183 274L181 275L182 272ZM203 272L205 274L202 274L203 272ZM99 275L101 278L99 278L99 275ZM173 277L176 278L173 279L173 277ZM101 278L103 280L100 280L101 278ZM200 280L203 282L200 282L200 280ZM183 281L185 282L184 284L183 281ZM82 283L84 284L83 286L82 283ZM95 284L97 284L96 287L95 284ZM91 285L94 286L92 287L91 285ZM175 285L175 287L172 287L175 285ZM192 286L194 287L191 289L190 287L192 288L192 286ZM203 286L204 288L202 289L203 286ZM173 289L175 290L172 291L173 289ZM106 292L107 297L104 297C104 297 105.67 296.83 106 296C106.33 295.17 106 292 106 292Z" fill="#6f6258"/><path d="M293 0C289.5 0.5 291 3 291 3L295 3L294 6C294 6 296.33 5 298 6C299.67 7 303.17 10.67 304 12C304.83 13.33 303 14 303 14C303 14 310.5 14.33 312 12C313.5 9.67 312 0 312 0C312 0 296.5 -0.5 293 0ZM126 34C116.33 34.83 116.5 37.5 112 41C107.5 44.5 101.17 51.67 99 55C96.83 58.33 100.17 57.83 99 61C97.83 64.17 93 71 92 74C91 77 92.33 78 93 79C93.67 80 95.33 76.33 96 80C96.67 83.67 97 101 97 101C97 101 101.5 96.17 103 92C104.5 87.83 104.67 79.5 106 76C107.33 72.5 105.83 72 111 71C116.17 70 131.67 69.67 137 70C142.33 70.33 140 72.5 143 73C146 73.5 151.67 73.5 155 73C158.33 72.5 157 70.5 163 70C169 69.5 185.33 68.17 191 70C196.67 71.83 195.5 75.83 197 81C198.5 86.17 198.83 96.33 200 101C201.17 105.67 203.5 107 204 109C204.5 111 206.83 112.33 203 113C199.17 113.67 181 113 181 113L185 117L180 117L180 114L166 114L166 116L164 114C164 114 163.67 117 161 118C158.33 119 151.33 120 148 120C144.67 120 142.83 119 141 118C139.17 117 143.17 114 137 114C130.83 114 110.67 118.67 104 118C97.33 117.33 97 110 97 110C97 110 95.33 112.83 96 114C96.67 115.17 100.17 115.33 101 117C101.83 118.67 100.5 122.67 101 124C101.5 125.33 103 122.5 104 125C105 127.5 106 136.17 107 139C108 141.83 107.83 141 110 142C112.17 143 116.17 144.5 120 145C123.83 145.5 133 145 133 145C133 145 135.17 144.83 133 148C130.83 151.17 121.5 159.17 120 164C118.5 168.83 123.67 173.67 124 177C124.33 180.33 122.83 182.83 122 184C121.17 185.17 119 184 119 184L119 182L116 184L115 182C115 182 115.67 184.33 115 185C114.33 185.67 112.17 186.5 111 186C109.83 185.5 108 182 108 182C108 182 108 187.83 109 190C110 192.17 112.83 193 114 195C115.17 197 114.17 199.67 116 202C117.83 204.33 123.67 207.5 125 209C126.33 210.5 124 211 124 211C124 211 139 220 144 222C149 224 149.33 223.83 154 223C158.67 222.17 168.83 218.5 172 217C175.17 215.5 171 215.83 173 214C175 212.17 180.67 210 184 206C187.33 202 190.67 193 193 190C195.33 187 197.17 189.5 198 188C198.83 186.5 197.17 183.83 198 181C198.83 178.17 203 171 203 171C203 171 201.67 169.5 200 172C198.33 174.5 195.17 183.33 193 186C190.83 188.67 187 188 187 188L187 184C187 184 185.5 183.33 185 184C184.5 184.67 184 188 184 188L184 186C184 186 182.17 187.33 181 187C179.83 186.67 177 184 177 184C177 184 177 187.5 176 189C175 190.5 171.67 192 171 193C170.33 194 172 195 172 195L167 194L169 199C169 199 165.17 200 164 201C162.83 202 162 205 162 205L161 202L159 204L155 200L156 207L154 206L153 208L153 205L152 207L149 205L147 209L147 205L145 209C145 209 146 206.83 145 206C144 205.17 140.17 205 139 204C137.83 203 138.5 200.67 138 200C137.5 199.33 136 200 136 200L136 203L135 200L133 201L133 195C133 195 130.83 197.67 130 198C129.17 198.33 128 197 128 197L130 197C130 197 130.83 194.33 130 192C129.17 189.67 125.67 186 125 183C124.33 180 125.67 176 126 174C126.33 172 125.83 171.5 127 171C128.17 170.5 133 171 133 171C133 171 132.17 168.67 133 168C133.83 167.33 138 167 138 167L128 166C128 166 127 164 128 163C129 162 134 160 134 160L133 157C133 157 131 159 130 159C129 159 127 157 127 157C127 157 129.67 151.5 132 149C134.33 146.5 138.17 145.83 141 142C143.83 138.17 149 126 149 126C149 126 152.33 125.33 154 128C155.67 130.67 156.83 139 159 142C161.17 145 167 146 167 146C167 146 165.67 150.17 165 151C164.33 151.83 163 151 163 151L165 152C165 152 163.67 147.5 168 146C172.33 144.5 186.17 146.33 191 143C195.83 139.67 195 129.5 197 126C199 122.5 203 122 203 122C203 122 204.33 128.17 204 132C203.67 135.83 201.5 139 201 145C200.5 151 200.67 163.83 201 168C201.33 172.17 203 170 203 170C203 170 203.5 152 205 147C206.5 142 210.83 142.17 212 140C213.17 137.83 212.5 135.5 212 134C211.5 132.5 209.33 132.83 209 131C208.67 129.17 210 123 210 123C210 123 207.33 125 207 126C206.67 127 208 129 208 129L205 129C205 129 206 120 207 118C208 116 211 117 211 117L208 116C208 116 209.67 116.83 210 111C210.33 105.17 210.67 87.17 210 81C209.33 74.83 207.67 75.83 206 74C204.33 72.17 200.67 71.83 200 70C199.33 68.17 202.5 65.5 202 63C201.5 60.5 197.67 56.67 197 55C196.33 53.33 199.67 55 198 53C196.33 51 191.67 45.83 187 43C182.33 40.17 180.17 37.5 170 36C159.83 34.5 135.67 33.17 126 34ZM116 118C119.83 118 133 119 133 119C133 119 124.5 120.83 122 122C119.5 123.17 118 126 118 126C118 126 122.17 123.83 124 124C125.83 124.17 127.5 126.67 129 127C130.5 127.33 132.33 126.5 133 126C133.67 125.5 133 124 133 124L137 126C137 126 138.17 121.83 139 121C139.83 120.17 141.17 120.17 142 121C142.83 121.83 144.33 124.17 144 126C143.67 127.83 140.67 129.83 140 132C139.33 134.17 141 137.17 140 139C139 140.83 138.67 142.67 134 143C129.33 143.33 116.5 142.67 112 141C107.5 139.33 107.83 136.17 107 133C106.17 129.83 106.5 124.33 107 122C107.5 119.67 108.5 119.67 110 119C111.5 118.33 112.17 118 116 118ZM171 119C175.33 118.5 179.33 118.5 183 119C186.67 119.5 191.17 120.17 193 122C194.83 123.83 194.33 126.83 194 130C193.67 133.17 193.17 138.67 191 141C188.83 143.33 184.5 143.5 181 144C177.5 144.5 173.33 144.67 170 144C166.67 143.33 163.17 143.67 161 140C158.83 136.33 157 122 157 122C157 122 166.67 119.5 171 119ZM218 120L215 124C215 124 216.5 124.67 217 124C217.5 123.33 218 120 218 120ZM167 121C164.33 121.5 162 123.67 161 125C160 126.33 161 129 161 129C161 129 164.67 124.83 166 124C167.33 123.17 169 124 169 124L169 128L176 128L176 124L182 127C182 127 179.5 123 177 122C174.5 121 169.67 120.5 167 121ZM143 150C142.17 150 140 152 140 152L145 152C145 152 143.83 150 143 150ZM161 151C158.17 150.17 151 154 151 154C151 154 154.5 155.83 155 157C155.5 158.17 153.17 159.83 154 161C154.83 162.17 160 164 160 164L158 160C158 160 158.83 162 160 162C161.17 162 162.83 159.33 165 160C167.17 160.67 173 166 173 166L167 167L167 173C167 173 170.17 170.67 172 171C173.83 171.33 176.5 174.83 178 175C179.5 175.17 180.83 173 181 172C181.17 171 179 169 179 169L182 170C182 170 181.67 168 181 167C180.33 166 178.83 164.33 178 164C177.17 163.67 176 165 176 165C176 165 175.33 161 174 160C172.67 159 170.17 160.5 168 159C165.83 157.5 163.83 151.83 161 151ZM147 156L145 160L150 160L147 156ZM126 159C126 159 127.33 165.5 127 167C126.67 168.5 124.83 168.33 124 168C123.17 167.67 121.67 166.5 122 165C122.33 163.5 126 159 126 159ZM181 164L180 166L182 167L181 164ZM142 171L142 173L146 173L142 171ZM150 172C148.67 172 148 174 148 174L156 174C156 174 151.33 172 150 172ZM199 191C199 191 197.67 206.33 196 212C194.33 217.67 190.83 220.17 189 225C187.17 229.83 185.33 237.67 185 241C184.67 244.33 187 245 187 245L185 246L187 247C187 247 188 246.17 188 245C188 243.83 187 240 187 240L189 240L189 243L193 243C193 243 193.67 241.5 193 241C192.33 240.5 189 240 189 240L190 237L196 241C196 241 196.17 238.83 195 238C193.83 237.17 189 236 189 236L194 236L194 228L194 234C194 234 195.83 233.33 196 232C196.17 230.67 195 226 195 226L199 227L197 231L200 229C200 229 200.67 233 202 234C203.33 235 208 235 208 235L207 229L209 229L208 232C208 232 209.5 231.17 210 232C210.5 232.83 211.17 235.83 211 237C210.83 238.17 209 239 209 239C209 239 212.33 239.33 213 240C213.67 240.67 213 243 213 243L210 242L209 245L214 243L212 247L215 248C215 248 212.17 250 212 251C211.83 252 214 254 214 254L210 254C210 254 212.67 255.17 213 256C213.33 256.83 212 259 212 259L217 261L213 257L217 257L214 255L216 254L214 251L216 253L218 251L220 254L217 256L224 256L224 259L226 258L226 261L228 261C228 261 225.67 268.33 224 270C222.33 271.67 218 271 218 271L220 272L217 274L220 274L218 280L216 279L214 282C214 282 212.5 278.83 211 278C209.5 277.17 205 277 205 277C205 277 203.33 277.67 205 279C206.67 280.33 215 285 215 285L210 284C210 284 209.83 290.33 209 292C208.17 293.67 205 294 205 294L208 294C208 294 209.17 295.33 208 297C206.83 298.67 203.17 303.17 201 304C198.83 304.83 195 302 195 302L196 298C196 298 193.33 300.17 193 301C192.67 301.83 194 303 194 303L187 303L187 301L190 302L191 299L192 302L193 295C193 295 195.83 298.33 197 299C198.17 299.67 199.33 298.33 200 299C200.67 299.67 201 303 201 303C201 303 202.33 298.83 203 298C203.67 297.17 205 298 205 298L202 293L204 295C204 295 206.17 293 206 292C205.83 291 203 289 203 289C203 289 201.83 294 201 295C200.17 296 198 295 198 295L200 298C200 298 197.67 298.67 197 298C196.33 297.33 196 294 196 294L198 294C198 294 193.5 291 192 291C190.5 291 189.5 292.5 189 294C188.5 295.5 189 300 189 300L188 296L186 303L185 301C185 301 184 302.83 183 303C182 303.17 179 302 179 302L179 306L173 306L175 303L177 305L175 301L169 308L167 300L165 301L168 297L173 301L172 297C172 297 175.5 300.5 177 301C178.5 301.5 180.17 299.83 181 300C181.83 300.17 182 302 182 302L184 300L181 299L183 297C183 297 178.17 297.33 177 297C175.83 296.67 176 295 176 295L178 295C178 295 175.83 292.5 175 292C174.17 291.5 173 292 173 292C173 292 174.83 293 175 294C175.17 295 174 298 174 298C174 298 173.5 294.67 173 294C172.5 293.33 171 294 171 294L173 291L169 293L170 287L172 287L171 284L173 286L173 282L177 282L177 280L171 281C171 281 174.5 275.5 175 274C175.5 272.5 174 272 174 272L176 273C176 273 177.17 264.67 178 263C178.83 261.33 181 263 181 263L178 267L185 267L184 264C184 264 183 265.5 182 265C181 264.5 178 261 178 261C178 261 179.67 260.83 180 260C180.33 259.17 180 256 180 256L182 258L182 253C182 253 171.83 263.83 168 267C164.17 270.17 161.5 270.83 159 272C156.5 273.17 157.17 273.67 153 274C148.83 274.33 138.17 274.5 134 274C129.83 273.5 131 276 128 271C125 266 118.67 253.67 116 244C113.33 234.33 112 213 112 213L112 218L110 218L111 224L109 222L108 225C108 225 110.5 223.83 111 226C111.5 228.17 111.5 234.33 111 238C110.5 241.67 108 248 108 248L110 248L110 251L108 250C108 250 109.17 252.83 109 254C108.83 255.17 107.33 255.67 107 257C106.67 258.33 107 262 107 262L110 262L110 266L109 264L107 265C107 265 108.67 265.33 109 267C109.33 268.67 109 275 109 275L107 275C107 275 109 276 109 277C109 278 107 281 107 281L109 280C109 280 109.33 281.33 109 282C108.67 282.67 106.83 282.67 107 284C107.17 285.33 110 290 110 290L107 292L109 292L108 295L110 296C110 296 99.5 300.5 97 301C94.5 301.5 95.33 301.33 95 299C94.67 296.67 95 287 95 287C95 287 92.17 289.83 91 290C89.83 290.17 88.5 289 88 288C87.5 287 88 284 88 284C88 284 86.5 291 87 293C87.5 295 91 296 91 296L94 293C94 293 94.5 299.33 94 301C93.5 302.67 91 303 91 303L90 301L88 302L89 298L83 299L84 296L78 296L78 294L83 294C83 294 82.67 291 81 291C79.33 291 73 294 73 294L73 292L78 292C78 292 77.17 287.17 76 286C74.83 284.83 71 285 71 285L71 287L68 287L70 284L61 281L60 285L62 284C62 284 62.67 286.33 62 287C61.33 287.67 58 288 58 288L59 282L55 284C55 284 56.83 282.83 57 282C57.17 281.17 56 279 56 279L63 281L63 278C63 278 60.17 279.5 59 279C57.83 278.5 56 275 56 275C56 275 55.67 278.33 55 279C54.33 279.67 52 279 52 279L52 277C52 277 51.17 278.67 50 278C48.83 277.33 46.5 273.5 45 273C43.5 272.5 41 275 41 275L39 270L46 272C46 272 40.17 270 39 269C37.83 268 38.5 266.67 39 266C39.5 265.33 42 265 42 265L37 264L38 267C38 267 36.67 267.17 36 267C35.33 266.83 34 266 34 266L36 263L33 263L33 271C33 271 30.33 271.33 30 270C29.67 268.67 31 263 31 263C31 263 28.83 262.5 28 263C27.17 263.5 26 266 26 266C26 266 27.17 263.83 27 263C26.83 262.17 25 261 25 261L27 260C27 260 24 261 28 262C32 263 51 266 51 266L50 268L56 267L55 265C55 265 53.17 266.5 52 266C50.83 265.5 48.67 263.17 48 262C47.33 260.83 48 259 48 259C48 259 48.17 260.83 47 261C45.83 261.17 42.33 261.17 41 260C39.67 258.83 39 254 39 254L34 256L34 253L37 254L36 251L38 251L35 247C35 247 32.33 248 32 249C31.67 250 33 253 33 253C33 253 31.5 252.17 31 253C30.5 253.83 30 258 30 258C30 258 27.5 257 27 256C26.5 255 27 252 27 252C27 252 22.17 253.17 21 253C19.83 252.83 20 251 20 251L26 252L26 249L28 249L28 253L28 250L30 251L30 246L28 247L27 244C27 244 27.5 246.33 27 247C26.5 247.67 24 248 24 248L28 239C28 239 22.33 238.5 21 238C19.67 237.5 20 236 20 236C20 236 28.17 236.67 30 238C31.83 239.33 31 244 31 244L33 244L31 241L35 241L35 239C35 239 32 240.33 31 240C30 239.67 29 237 29 237L31 237L30 232L33 233L32 235L38 235L38 240C38 240 40 236.67 41 236C42 235.33 44 236 44 236L38 234L39 230L33 233C33 233 33.5 230 33 229C32.5 228 30 227 30 227L33 224L29 220L35 219L26 219L26 221L21 219L21 221L16 221L16 223L6 222C6 222 6.67 223.5 6 224C5.33 224.5 3 224.5 2 225C1 225.5 0.33 212.5 0 227C-0.33 241.5 0 312 0 312L89 312L88 309C88 309 89.17 311.5 90 312C90.83 312.5 93 312 93 312L91 310C91 310 93 312 94 312C95 312 97 310 97 310L98 312C98 312 98.5 308.67 99 308C99.5 307.33 101 308 101 308C101 308 97.67 307.5 97 307C96.33 306.5 97 305 97 305L100 306L98 302L105 301L105 299L109 304C109 304 106 302.83 105 303C104 303.17 103 305 103 305L102 303L101 307L103 307L103 310L101 309L99 312L105 312L103 310C103 310 95.67 311.67 106 312C116.33 312.33 165 312 165 312L165 309L167 309L167 312L168 310C168 310 166.33 311.67 169 312C171.67 312.33 184 312 184 312L183 307C183 307 184.67 311.17 186 312C187.33 312.83 191 312 191 312L185 308C185 308 186.17 306.33 187 306C187.83 305.67 189.17 305 190 306C190.83 307 171.67 311 192 312C212.33 313 312 312 312 312L312 273L306 278C306 278 304.17 266.17 303 263C301.83 259.83 301.83 260.5 299 259C296.17 257.5 294.33 259.17 286 254C277.67 248.83 256 232.33 249 228C242 223.67 244 228 244 228L245 226C245 226 245.67 225.5 242 224C238.33 222.5 229.5 221.17 223 217C216.5 212.83 207 203.33 203 199C199 194.67 199 191 199 191ZM83 203L75 207C75 207 77.67 208.17 79 208C80.33 207.83 82.33 206.83 83 206C83.67 205.17 83 203 83 203ZM73 208C73 208 63.33 212 61 214C58.67 216 59 220 59 220L65 222L64 219L61 220L62 215L66 217L65 214C65 214 69.67 214 71 213C72.33 212 73 208 73 208ZM78 213C78 213 77 216.5 76 217C75 217.5 72 216 72 216L72 218L78 217L78 213ZM83 215L82 217L86 218L83 215ZM41 217C40.33 217.5 41.33 219.33 40 220C38.67 220.67 34.33 220.5 33 221C31.67 221.5 32 223 32 223L34 222L34 225L36 225L36 227L33 227L35 228L34 231L39 226L40 233L43 233C43 233 40.17 231.5 40 230C39.83 228.5 42 224 42 224L39 225C39 225 40.17 220 41 219C41.83 218 44 219 44 219L44 217C44 217 41.67 216.5 41 217ZM54 217L56 221L50 225C50 225 51.17 227 52 227C52.83 227 55 225 55 225L57 230C57 230 58.33 228.17 58 227C57.67 225.83 55 223 55 223L57 224L56 221L60 221L57 221L58 218L54 217ZM90 217L90 220L93 220L90 217ZM81 218C81 218 78.5 219.17 78 220C77.5 220.83 78 223 78 223C78 223 81.5 220.83 82 220C82.5 219.17 81 218 81 218ZM46 220C44.83 220 42 221 42 221C42 221 44.67 222.83 45 224C45.33 225.17 44 228 44 228L42 227L44 229L42 231L50 231C50 231 47.83 228.33 47 228C46.17 227.67 45 229 45 229L45 223L49 225C49 225 49.5 221.83 49 221C48.5 220.17 47.17 220 46 220ZM72 220C70.67 220 68 223 68 223C68 223 71.5 220.5 73 222C74.5 223.5 77 232 77 232C77 232 78.17 230.17 79 230C79.83 229.83 82 231 82 231C82 231 83.17 229 82 228C80.83 227 75 225 75 225C75 225 76.5 223.83 76 223C75.5 222.17 73.33 220 72 220ZM66 225L65 228L67 229L63 230L66 232L62 232L63 235L59 237C59 237 58.83 238.83 60 239C61.17 239.17 66 238 66 238L63 235L65 236L64 233L68 232L67 229L71 227L66 225ZM50 226L48 228L51 228L50 226ZM62 227L59 231L63 230L62 227ZM73 227L71 230L74 230L73 227ZM219 229L221 230L218 232L219 229ZM204 230L205 232L202 233L204 230ZM222 230L224 231L221 232L222 230ZM27 231L28 235L25 236L27 231ZM22 233L24 235L21 235L22 233ZM52 232C52 232 51.5 234.17 50 235C48.5 235.83 43 237 43 237L45 238C45 238 44.5 241.5 43 242C41.5 242.5 36 241 36 241L37 244L42 243L40 244L41 247L44 246L43 244L45 244L45 247L46 244L48 246L49 243L44 243C44 243 43.5 242 44 241C44.5 240 45.67 237.67 47 237C48.33 236.33 52 237 52 237L52 232ZM71 232L74 234L74 232L71 232ZM217 234L220 235L218 236L217 234ZM200 234C200 234 197.67 235.5 197 237C196.33 238.5 196 243 196 243C196 243 197.17 240.33 198 240C198.83 239.67 201 241 201 241C201 241 198.33 238.83 198 238C197.67 237.17 199 236 199 236L202 239L200 234ZM226 236L228 237L227 240L224 239L226 236ZM230 236L233 236L233 239L230 239L230 236ZM33 236L32 238L35 237L33 236ZM204 236L202 238L206 239L204 236ZM221 237L224 242C224 242 221.5 241.83 221 241C220.5 240.17 221 237 221 237ZM49 239L50 242L51 240L49 239ZM233 240C233.83 239.17 235 240 235 240L233 241L234 243L230 245C230 245 232.17 240.83 233 240ZM237 240L242 242L236 242L237 240ZM60 240L60 243L63 242L60 240ZM237 243L237 249L234 247L231 251L232 248L228 248C228 248 231.5 247.83 233 247C234.5 246.17 237 243 237 243ZM218 244L220 246L217 247L218 244ZM195 244L194 246L196 245L197 248L197 246L200 247L195 244ZM57 245L57 248L55 248L56 252C56 252 58.83 249.17 59 248C59.17 246.83 57 245 57 245ZM207 245C207 245 208.17 248.17 208 249C207.83 249.83 206 250 206 250L210 249L207 245ZM238 246L243 246L243 248L238 246ZM10 247L13 248L9 249L10 247ZM245 247L249 248L245 249L245 247ZM53 247L51 251L53 251L53 247ZM65 248C65 248 65.67 249.5 65 250C64.33 250.5 61 251 61 251L66 251L65 248ZM185 248L182 252C182 252 183.5 252.67 184 252C184.5 251.33 185 248 185 248ZM43 249L43 252L40 252C40 252 38.83 254.83 40 256C41.17 257.17 47 259 47 259L48 257C48 257 45.83 257.5 45 257C44.17 256.5 43 254 43 254L47 254L46 256C46 256 47.33 256.17 48 256C48.67 255.83 50 255 50 255L48 254L49 251L43 249ZM228 250C229.17 250.33 231.67 251.83 232 253C232.33 254.17 231 256.5 230 257C229 257.5 226 256 226 256L228 252L226 253L225 251C225 251 226.83 249.67 228 250ZM244 250L245 252L247 250L249 254L251 252C251 252 250.67 255.33 249 256C247.33 256.67 241 256 241 256L241 259L240 257L238 259L237 254L232 255L233 251L235 252L234 254L237 251C237 251 236.67 252.5 238 253C239.33 253.5 245 254 245 254L244 250ZM205 250L206 254L207 251L205 250ZM257 251L259 253L256 254L257 251ZM65 252C65 252 65.17 255.17 66 256C66.83 256.83 70 257 70 257L65 252ZM198 252L196 255L199 254L198 252ZM32 256L33 259L31 259L32 256ZM54 255L52 258L55 259L54 255ZM23 257L25 257L25 260L23 257ZM234 257C234 257 235.17 259.17 235 260C234.83 260.83 233 262 233 262L234 257ZM243 257C243 257 246.83 255.83 248 257C249.17 258.17 250 264 250 264C250 264 247.67 264.83 247 264C246.33 263.17 246 259 246 259C246 259 244.5 258.5 244 260C243.5 261.5 243 268 243 268L241 268L242 266L238 267L237 264L241 265L243 260L237 263L235 260L244 260L243 257ZM66 257L65 259L68 259L66 257ZM186 257L186 259L189 259L189 262L191 259L186 257ZM207 257C207 257 207 259.5 206 260C205 260.5 201 260 201 260C201 260 202.83 264 204 265C205.17 266 208 266 208 266C208 266 206.33 266 206 267C205.67 268 206 272 206 272L208 267C208 267 209.83 268.83 210 270C210.17 271.17 209 274 209 274L212 271L210 269L213 270L214 268C214 268 214.33 270.5 215 271C215.67 271.5 218 271 218 271C218 271 217.67 267.67 217 267C216.33 266.33 214 267 214 267L214 264L212 267L212 265L210 266C210 266 210.83 264.67 210 264C209.17 263.33 205 262 205 262L206 260L209 261L207 257ZM90 258L86 261L91 261L90 258ZM193 258L190 265C190 265 193.5 262.17 194 261C194.5 259.83 193 258 193 258ZM211 258L209 260L212 261L211 258ZM218 258C218 258 218.17 264.5 219 266C219.83 267.5 222.33 266.5 223 267C223.67 267.5 223 269 223 269L225 264C225 264 222 265.5 221 265C220 264.5 219 261 219 261L226 262L218 258ZM50 259C49.17 259.17 49 261 49 261L53 263L54 260C54 260 50.83 258.83 50 259ZM256 260C256.83 259.33 259 260 259 260L256 262L259 262L259 264L255 264L255 266L251 264C251 264 253.17 264.67 254 264C254.83 263.33 255.17 260.67 256 260ZM22 262C22.5 261.67 24 262 24 262L23 265L21 264C21 264 21.5 262.33 22 262ZM60 261L58 265C58 265 61.17 265 62 266C62.83 267 63 271 63 271C63 271 67 269.83 68 270C69 270.17 69 272 69 272L69 268L72 268L71 271L74 269L71 265L68 267L69 263L65 264L67 266L64 268L62 264L65 263L60 261ZM76 261L75 264L77 264L76 261ZM214 261L213 263L215 264L214 261ZM79 262L78 264L82 263L79 262ZM233 263L236 267L234 269L233 263ZM247 265L248 268L244 268L247 265ZM256 265C257.33 264.33 262 266 262 266L262 269C262 269 257.33 266.83 256 267C254.67 267.17 254 270 254 270C254 270 254.67 265.67 256 265ZM230 266L231 269L229 269L230 266ZM188 266L187 269L189 270L188 267L189 269L191 268C191 268 189 270.17 189 271C189 271.83 191 273 191 273L193 269L188 266ZM41 267C39.67 267.33 40 269 40 269C40 269 44 268.67 45 269C46 269.33 46 271 46 271C46 271 47.67 269.67 48 269C48.33 268.33 48 267 48 267C48 267 42.33 266.67 41 267ZM182 267C182 267 181.5 270.83 182 272C182.5 273.17 185 274 185 274L182 267ZM247 269C247 269 250.17 268.67 251 269C251.83 269.33 252 271 252 271L247 272L247 269ZM80 269C79.17 269.33 77 272 77 272L82 270C82 270 80.83 268.67 80 269ZM230 270C231 269.83 235 271 235 271L229 272C229 272 229 270.17 230 270ZM257 270L259 273L254 273L257 270ZM52 270L52 273L47 272L47 275C47 275 50.83 273.5 52 274C53.17 274.5 54 278 54 278L55 270L52 270ZM238 271L240 272L237 273L238 271ZM265 272L267 273L264 274L265 272ZM64 272L60 278L65 276L64 272ZM198 272C197.17 272.83 195 277 195 277C195 277 197.17 275.67 198 276C198.83 276.33 200 279 200 279C200 279 198 277.17 198 276C198 274.83 200 272 200 272C200 272 198.83 271.17 198 272ZM214 272C213.17 271.67 211 273 211 273C211 273 212.83 273 213 274C213.17 275 212 279 212 279C212 279 212 277.17 213 277C214 276.83 218 278 218 278L214 276L216 275C216 275 214.83 272.33 214 272ZM34 274L35 276L32 278L34 274ZM69 273L66 278C66 278 66 276.33 67 276C68 275.67 72 276 72 276L69 273ZM90 273C90 273 92.5 278.33 93 280C93.5 281.67 93.5 282.17 93 283C92.5 283.83 90 285 90 285C90 285 91 285.67 92 285C93 284.33 96 281 96 281L94 282C94 282 94.33 278.83 94 278C93.67 277.17 92 277 92 277L94 276L95 278C95 278 95.83 275.83 95 275C94.17 274.17 90 273 90 273ZM98 273L96 274L97 277L98 273ZM179 273L176 277L181 277L179 273ZM250 274L254 275L251 276L250 274ZM88 274C88 274 88.5 278.5 88 280C87.5 281.5 85 283 85 283C85 283 88.5 282 89 281C89.5 280 87.83 277.83 88 277C88.17 276.17 90 276 90 276L88 274ZM203 274L202 276L204 277L203 274ZM37 276L38 278L35 278L37 276ZM84 275L83 277L86 279L84 275ZM186 275L184 276L185 279L186 275ZM44 277L46 279L43 280L44 277ZM74 276C74 276 74.83 278.17 74 279C73.17 279.83 70.33 281 69 281C67.67 281 66.83 279 66 279C65.17 279 64 281 64 281C64 281 66.5 283 68 283C69.5 283 73 281 73 281L72 284C72 284 73.33 285 74 285C74.67 285 75.83 285 76 284C76.17 283 75 279 75 279C75 279 77.17 281.67 78 282C78.83 282.33 79.67 281.5 80 281C80.33 280.5 80 279 80 279C80 279 77 279.5 76 279C75 278.5 74 276 74 276ZM78 276L77 278L81 277L78 276ZM244 277C245 277.17 248 279 248 279C248 279 244 280.17 243 280C242 279.83 242 278 242 278C242 278 243 276.83 244 277ZM194 277L192 279L195 279L194 277ZM202 277L202 283L207 283C207 283 204.83 288.5 205 290C205.17 291.5 208 292 208 292C208 292 206.67 288.5 207 287C207.33 285.5 210 283 210 283C210 283 206.33 283 205 282C203.67 281 202 277 202 277ZM189 278L187 281L190 281L189 278ZM84 279L83 283L85 282L84 279ZM199 280C199 280 197.83 283.17 198 284C198.17 284.83 200 285 200 285L199 280ZM239 281L244 284L239 284L239 281ZM99 281L97 282L98 284L98 282L100 283L99 281ZM220 282L222 284L218 285L220 282ZM234 282L238 282L234 288L232 284L229 286L230 283L234 284L234 282ZM191 282L190 285L193 284L191 282ZM223 283L225 284C225 284 225 286.83 223 288C221 289.17 213 291 213 291L215 288C215 288 216 290 217 290C218 290 220.33 288.83 221 288C221.67 287.17 221 285 221 285L224 286L223 283ZM259 283L256 287C256 287 255.5 284.67 256 284C256.5 283.33 259 283 259 283ZM178 283C177 284.33 174 291 174 291L181 296L181 293C181 293 177.83 293.67 177 293C176.17 292.33 175.67 290.17 176 289C176.33 287.83 179 286 179 286C179 286 180 288 181 288C182 288 185 286 185 286L184 289L186 288C186 288 186.67 289 186 290C185.33 291 182.33 292.83 182 294C181.67 295.17 184 297 184 297C184 297 183.5 294.17 184 293C184.5 291.83 187 290 187 290L188 295L187 289L189 290L190 288C190 288 186.83 288.67 186 288C185.17 287.33 185 284 185 284L179 285L180 283C180 283 179 281.67 178 283ZM196 283L193 285L194 287L196 283ZM106 284L104 287L108 287L106 284ZM239 285L242 287L240 288L239 285ZM85 285C85 285 80.83 285.5 80 286C79.17 286.5 80 288 80 288C80 288 84.17 287.5 85 287C85.83 286.5 85 285 85 285ZM99 285L97 289L100 289L99 287L103 288L99 285ZM198 285C198 285 194.33 287.83 194 289C193.67 290.17 196 292 196 292L198 285ZM63 287L66 287C66 287 64.67 290.33 64 291C63.33 291.67 62 291 62 291L64 290L63 287ZM32 288L34 291L30 291L32 288ZM40 288L42 289L39 290L40 288ZM86 288C86 288 85.5 291.33 85 292C84.5 292.67 83 292 83 292C83 292 83.5 293.67 84 294C84.5 294.33 86 294 86 294L86 288ZM202 288C202 288 199.67 288.17 199 289C198.33 289.83 198 293 198 293C198 293 199.33 293.83 200 293C200.67 292.17 202 288 202 288ZM210 289L212 290L211 292L210 289ZM224 289L226 289L226 292L224 289ZM236 289L237 291L232 294L231 291C231 291 234.17 291.33 235 291C235.83 290.67 236 289 236 289ZM246 289L249 290L247 291L246 289ZM251 289L253 289L253 296C253 296 251.33 296.17 251 295C250.67 293.83 251 289 251 289ZM67 291L70 291C70 291 70.83 292.83 70 294C69.17 295.17 65 298 65 298C65 298 64 295 64 294C64 293 65 292 65 292L68 293L67 291ZM100 290C100 290 97.83 292 98 293C98.17 294 101 296 101 296L97 294C97 294 95.83 296.17 96 297C96.17 297.83 97 299 98 299C99 299 101.33 297.83 102 297C102.67 296.17 102.5 294.83 102 294C101.5 293.17 99 292 99 292L102 293L100 290ZM219 291C219 291 222.67 293.67 223 295C223.33 296.33 221 299 221 299C221 299 219.33 298.5 219 298C218.67 297.5 219 296 219 296L221 297L220 294C220 294 217.5 294.17 217 295C216.5 295.83 217 299 217 299C217 299 213.67 299.17 213 298C212.33 296.83 213 292 213 292L216 296L219 291ZM37 294L39 295L36 296L37 294ZM57 294L62 295C62 295 61.5 296.67 61 297C60.5 297.33 59 297 59 297L60 295L57 297L57 294ZM104 293L103 297L106 296L104 293ZM72 295L75 296C75 296 73.67 300 73 301C72.33 302 71 302 71 302L70 300L68 302C68 302 71.5 299 72 298C72.5 297 71 296 71 296L73 297L72 295ZM170 295L172 296L169 297L170 295ZM240 295L245 297L240 298L240 295ZM75 297C75.5 296.5 77 297 77 297L75 298L76 300L74 300C74 300 74.5 297.5 75 297ZM79 297C79 297 80.33 296.17 81 297C81.67 297.83 83 302 83 302L87 301L86 304L89 303L83 311C83 311 80.67 311.33 80 309C79.33 306.67 79 297 79 297ZM225 297L228 297L227 300L225 297ZM55 298C55.5 297.33 57 298 57 298L57 302L54 302C54 302 54.5 298.67 55 298ZM63 298L66 300L62 300L63 298ZM212 299L214 300L213 302L212 299ZM168 299C168 299 168.33 302.33 169 303C169.67 303.67 172 303 172 303L168 299ZM94 301L96 302L93 303L94 301ZM223 301L227 302C227 302 223.83 301.67 223 302C222.17 302.33 222 304 222 304L223 301ZM82 302C82 302 80.83 306.67 81 308C81.17 309.33 83 310 83 310L82 306L85 307C85 307 86 305.67 86 305C86 304.33 85 303 85 303L83 305L82 302ZM194 303L196 307L190 306L194 303ZM52 304L54 306L51 309L52 304ZM165 304L167 305L164 306L165 304ZM179 304L181 304C181 304 181.5 307.83 181 309C180.5 310.17 178 311 178 311L179 304ZM70 305L71 308L69 308L70 305ZM234 306C235 305.67 236 307 236 307C236 307 236 308.67 235 309C234 309.33 230 309 230 309C230 309 233 306.33 234 306ZM107 307L108 310L106 311L105 308L107 310L107 307ZM196 307C196 307 199.33 307.5 200 308C200.67 308.5 200 310 200 310L196 307ZM53 308C53 308 57 307.5 58 308C59 308.5 59 311 59 311C59 311 56 311.5 55 311C54 310.5 53 308 53 308Z" fill="#534b42"/><path d="M133 34C124.5 33.67 124.83 34.33 122 35C119.17 35.67 119.67 35 116 38C112.33 41 102.83 49.17 100 53C97.17 56.83 100.17 57.83 99 61C97.83 64.17 94 69.17 93 72C92 74.83 92.17 76 93 78C93.83 80 97.33 81.67 98 84C98.67 86.33 97 92 97 92C97 92 99.5 95 101 92C102.5 89 103.67 78 106 74C108.33 70 112.5 68.67 115 68C117.5 67.33 117.5 69.83 121 70C124.5 70.17 132.5 68.67 136 69C139.5 69.33 140.33 71.83 142 72C143.67 72.17 144.83 70 146 70C147.17 70 149 72 149 72L148 70C148 70 149 69.67 150 70C151 70.33 152 72.17 154 72C156 71.83 158.17 69.33 162 69C165.83 68.67 172.33 70.33 177 70C181.67 69.67 186.33 65 190 67C193.67 69 197.17 76.67 199 82C200.83 87.33 199.83 94 201 99C202.17 104 206 112 206 112L198 114L199 119C199 119 180.17 117.67 176 117C171.83 116.33 176.83 114.5 174 115C171.17 115.5 164 119.17 159 120C154 120.83 147.67 120.5 144 120C140.33 119.5 138.17 117.83 137 117C135.83 116.17 137 115 137 115L101 118C101 118 100.33 122.67 101 124C101.67 125.33 103.83 123.33 105 126C106.17 128.67 106.17 137 108 140C109.83 143 111.33 143 116 144C120.67 145 131.5 147 136 146C140.5 145 141.17 141.17 143 138C144.83 134.83 145.33 129 147 127C148.67 125 153 126 153 126C153 126 155.5 135 157 138C158.5 141 157.33 142.83 162 144C166.67 145.17 180.17 145.17 185 145C189.83 144.83 189.83 143.83 191 143C192.17 142.17 192 140 192 140C192 140 187 143.33 183 144C179 144.67 171.33 144.33 168 144C164.67 143.67 164.67 143.5 163 142C161.33 140.5 159.17 138 158 135C156.83 132 156 126.33 156 124C156 121.67 156.67 121.83 158 121C159.33 120.17 158.67 119.17 164 119C169.33 118.83 185 119.33 190 120C195 120.67 193.5 119.67 194 123C194.5 126.33 193 140 193 140C193 140 194.5 129.83 196 127C197.5 124.17 201.17 124.17 202 123C202.83 121.83 201 120 201 120L203 119L202 122C202 122 204.33 122.83 205 122C205.67 121.17 205.17 117.83 206 117C206.83 116.17 210 117 210 117L207 116C207 116 208.5 118.67 209 113C209.5 107.33 210.17 88 210 82C209.83 76 209.67 79 208 77C206.33 75 201.17 72.83 200 70C198.83 67.17 201.5 63 201 60C200.5 57 199.17 54.67 197 52C194.83 49.33 192 46.5 188 44C184 41.5 182.17 38.67 173 37C163.83 35.33 141.5 34.33 133 34ZM147 37C149.67 36 154.17 36.67 156 37C157.83 37.33 158 39 158 39L140 43C140 43 144.33 38 147 37ZM193 113L192 115L197 115L193 113ZM115 118C118.83 117.5 125.33 117.5 130 118C134.67 118.5 140.67 119.5 143 121C145.33 122.5 144.33 125.5 144 127C143.67 128.5 141.5 129.17 141 130C140.5 130.83 141 132 141 132L143 130C143 130 143.5 131.5 143 133C142.5 134.5 141.33 137.33 140 139C138.67 140.67 138.83 142.33 135 143C131.17 143.67 121.17 143.5 117 143C112.83 142.5 111.67 141.67 110 140C108.33 138.33 107.5 136.17 107 133C106.5 129.83 105.67 123.5 107 121C108.33 118.5 111.17 118.5 115 118ZM128 121C125 121.67 119 125 119 125L126 123L126 126C126 126 130.83 126.5 132 126C133.17 125.5 133 123 133 123C133 123 135.17 125 136 125C136.83 125 137.83 123.67 138 123C138.17 122.33 138.67 121.33 137 121C135.33 120.67 131 120.33 128 121ZM173 122C171.83 122 169 123 169 123L172 124L170 126C170 126 171 128 172 128C173 128 176 126 176 126L174 125L176 123C176 123 174.17 122 173 122ZM206 131C206 131 204.33 129.5 204 132C203.67 134.5 204 146 204 146C204 146 209.83 140.67 211 139C212.17 137.33 211 136 211 136L206 136L206 131ZM130 152C130 152 123.5 157.83 122 160C120.5 162.17 121 165 121 165L130 152ZM161 156C160.33 156.33 160 158 160 158L165 159C165 159 164.67 156.5 164 156C163.33 155.5 161.67 155.67 161 156ZM128 166C126.33 166 125.5 166.33 125 167C124.5 167.67 125 170 125 170L123 168L124 177L126 177L127 170L133 170L133 167L135 167C135 167 129.67 166 128 166ZM171 167C169.17 167.83 167 172 167 172L176 171L175 169L179 170C179 170 179.33 167.5 178 167C176.67 166.5 172.83 166.17 171 167ZM124 182C124 182 121.83 187.83 121 189C120.17 190.17 119 189 119 189L119 186C119 186 116.17 187.83 116 189C115.83 190.17 118 193 118 193C118 193 113.83 192.67 113 192C112.17 191.33 113 189 113 189L111 190C111 190 114 195.83 115 197C116 198.17 117 197 117 197C117 197 115.17 199.83 118 203C120.83 206.17 128.83 212.83 134 216C139.17 219.17 144.67 221.17 149 222C153.33 222.83 156.17 222 160 221C163.83 220 172 216 172 216L171 212C171 212 172.83 214.17 174 214C175.17 213.83 174.83 215 178 211C181.17 207 193 190 193 190L191 189L189 192L187 190L187 194L185 193L186 190C186 190 177.67 188.17 175 190C172.33 191.83 171.5 198.83 170 201C168.5 203.17 166.67 202 166 203C165.33 204 166 207 166 207C166 207 163.33 205.83 162 206C160.67 206.17 158.67 207 158 208C157.33 209 158 212 158 212L156 211L158 206C158 206 155.33 210.5 154 211C152.67 211.5 151.17 209 150 209C148.83 209 148 211 147 211C146 211 144 209 144 209L143 211C143 211 140.83 206.83 140 206C139.17 205.17 138.5 205.33 138 206C137.5 206.67 137 210 137 210L134 202L133 205L132 202L129 203L131 199L126 200C126 200 127.17 197.83 127 197C126.83 196.17 125 195 125 195C125 195 128 193.83 128 192C128 190.17 125 184 125 184L123 185L124 182ZM200 192C200 192 198.67 204 197 210C195.33 216 190 228 190 228L192 228C192 228 191.5 224.83 192 224C192.5 223.17 195 223 195 223L196 225L195 219L201 217L198 215C198 215 199.83 213.83 200 213C200.17 212.17 199 210 199 210L205 211C205 211 203.33 211 203 212C202.67 213 203 217 203 217L205 217L204 214L214 217L213 219L209 217L209 220L211 219L212 222C212 222 214.67 222.5 215 221C215.33 219.5 214 213 214 213L220 215L219 220L222 217C222 217 206.67 204.17 203 200C199.33 195.83 200 192 200 192ZM113 215C113 215 109.5 251.83 109 268C108.5 284.17 110 312 110 312C110 312 148.33 321.5 160 312C171.67 302.5 180 255 180 255C180 255 171.33 264.83 167 268C162.67 271.17 158.33 272.83 154 274C149.67 275.17 145.5 275.5 141 275C136.5 274.5 131.33 276.67 127 271C122.67 265.33 117.33 250.33 115 241C112.67 231.67 113 215 113 215ZM200 221L199 223L201 224L200 221ZM10 222C10 222 7.33 222 6 225C4.67 228 2.33 237 2 240C1.67 243 3.83 239.33 4 243C4.17 246.67 3.33 258.5 3 262C2.67 265.5 2 264 2 264L0 263L0 312L37 312L37 310L40 312C40 312 38.83 308 38 307C37.17 306 35.83 305.83 35 306C34.17 306.17 33 308 33 308C33 308 32.17 305.33 31 305C29.83 304.67 26 306 26 306L28 308L26 310L24 306L26 305L23 303L27 301L22 301L22 298L27 298L23 298L24 296L20 298L22 293L25 296C25 296 26.33 294.17 26 293C25.67 291.83 25.17 289.67 23 289C20.83 288.33 13 289 13 289L13 285L17 287L17 284L14 284L15 281L13 281L16 268L10 268L12 271L3 272C3 272 4.67 271.5 5 271C5.33 270.5 5 269 5 269L3 270C3 270 4.83 271.17 5 266C5.17 260.83 3.83 243.83 4 239C4.17 234.17 5.5 239.17 6 237C6.5 234.83 6.33 228.5 7 226C7.67 223.5 10 222 10 222ZM223 223C223 223 229.17 234.5 228 239C226.83 243.5 216 250 216 250C216 250 225.5 248.5 228 247C230.5 245.5 231.83 245 231 241C230.17 237 223 223 223 223ZM215 228L214 233L217 230L215 228ZM243 233L244 236L245 234L243 233ZM215 237L214 242L216 241L215 238L218 239L215 237ZM253 238C253 238 257.33 238.5 258 240C258.67 241.5 256.5 245.33 257 247C257.5 248.67 260.33 248.83 261 250C261.67 251.17 261 254 261 254L262 252C262 252 263.17 254 264 254C264.83 254 267 252 267 252L266 256L269 255L270 259L269 252L273 253L272 258L275 256L276 261L272 259L271 261L275 262L273 264C273 264 275.17 264.83 276 265C276.83 265.17 278 265 278 265L276 263L280 263L279 269C279 269 280.33 266.33 282 266C283.67 265.67 289 267 289 267C289 267 288.5 274.33 288 276C287.5 277.67 286 277 286 277L287 275L281 274L279 280L282 281L278 283L278 279C278 279 276.67 278.33 276 279C275.33 279.67 273.83 281.5 274 283C274.17 284.5 277 288 277 288L277 284L283 284C283 284 281.83 281.83 282 281C282.17 280.17 284 279 284 279L282 279L282 276L285 276L284 278C284 278 285.83 277.83 286 279C286.17 280.17 285.83 283.83 285 285C284.17 286.17 281 286 281 286C281 286 283.83 287.17 284 289C284.17 290.83 283.33 295.67 282 297C280.67 298.33 276 297 276 297C276 297 275.67 300.17 276 301C276.33 301.83 278 302 278 302L277 299C277 299 278.33 298.17 279 299C279.67 299.83 281 304 281 304L276 307L280 306C280 306 280.33 308.17 280 309C279.67 309.83 278.83 311 278 311C277.17 311 275 309 275 309L275 312C275 312 279.83 312.83 281 312C282.17 311.17 282 307 282 307L285 308L283 311L286 312L287 310C287 310 283.83 311.67 288 312C292.17 312.33 312 312 312 312C312 312 312.83 305 312 301C311.17 297 308.67 294.33 307 288C305.33 281.67 303.83 268 302 263C300.17 258 298.83 259.5 296 258C293.17 256.5 289.33 256.67 285 254C280.67 251.33 273.33 244 270 242C266.67 240 266 241.33 265 242C264 242.67 264 246 264 246C264 246 263.83 244.33 263 244C262.17 243.67 259 244 259 244L259 242L264 243L264 238C264 238 262.5 237.33 262 238C261.5 238.67 261 242 261 242C261 242 261.33 239.67 260 239C258.67 238.33 253 238 253 238ZM258 245C258 245 261.33 245.5 262 246C262.67 246.5 262.33 247.5 262 248C261.67 248.5 260 249 260 249L258 245ZM267 247L269 248L265 250L267 247ZM13 253C13 253 10.5 253.67 10 255C9.5 256.33 10.33 259.83 10 261C9.67 262.17 8 262 8 262C8 262 10.5 261.83 11 261C11.5 260.17 11 257 11 257C11 257 12.83 259.67 14 260C15.17 260.33 18 259 18 259L12 257L14 256L13 253ZM277 258L280 259C280 259 279.67 261.5 279 262C278.33 262.5 276 262 276 262L277 258ZM280 258L284 260L280 262L280 258ZM229 259L200 312L206 311L206 309L204 310C204 310 203.67 307.5 205 305C206.33 302.5 210.5 297.83 212 295C213.5 292.17 212.67 290.17 214 288C215.33 285.83 219.17 283.33 220 282C220.83 280.67 219 280 219 280C219 280 223.17 278 224 277C224.83 276 223.5 274.83 224 274C224.5 273.17 227 272 227 272L226 270L229 270C229 270 228.83 266.17 229 265C229.17 263.83 230 263 230 263L232 264L229 259ZM296 262L297 264L295 265L296 262ZM13 262C12.17 262.17 12 264 12 264L17 263C17 263 13.83 261.83 13 262ZM211 266L210 268L213 268L211 266ZM277 267C277 267 275.33 266.5 275 268C274.67 269.5 275 276 275 276L278 273C278 273 276.17 273 276 272C275.83 271 277 267 277 267ZM284 268L284 271L286 271L286 268L284 268ZM282 270L279 272L282 273L282 270ZM271 271L271 273L274 273L271 271ZM3 273L7 273L7 276L3 276L3 273ZM10 273C10 273 11.33 275.17 11 276C10.67 276.83 8 278 8 278C8 278 7.67 274.83 8 274C8.33 273.17 10 273 10 273ZM296 274L298 277L295 278L296 280L293 280L294 278L290 276C290 276 291.17 274.67 292 275C292.83 275.33 295 278 295 278L296 274ZM9 279L12 280L10 281L9 279ZM22 279L17 283L21 281L23 284L22 279ZM28 283L27 285L29 286L28 283ZM289 285L294 285C294 285 291.33 286.83 291 288C290.67 289.17 292 292 292 292L290 292C290 292 291.17 288.17 291 287C290.83 285.83 289 285 289 285ZM19 285L20 288L21 285L19 285ZM288 290C288 290 288.5 294.5 288 296C287.5 297.5 285 299 285 299L289 298C289 298 289.67 299.33 289 300C288.33 300.67 285 302 285 302L284 295L286 295C286 295 284.67 293.83 285 293C285.33 292.17 288 290 288 290ZM272 290C271 290.67 270 294 270 294C270 294 270 292.33 271 292C272 291.67 276 292 276 292L276 290C276 290 273 289.33 272 290ZM280 292C280 292 277.33 294.17 277 295C276.67 295.83 278 297 278 297C278 297 280.67 294.83 281 294C281.33 293.17 280 292 280 292ZM291 293L292 295L289 296L291 293ZM266 293L265 296L267 295L266 293ZM35 296L32 298L35 298L35 296ZM17 298L19 299L16 300L17 298ZM290 298L293 298L293 300L290 298ZM258 298C257 298 255 300 255 300L258 300L258 306C258 306 256.83 304.17 256 304C255.17 303.83 253.5 304.5 253 305C252.5 305.5 253 307 253 307L255 305L253 312L256 312L254 311L256 308C256 308 260.17 311.33 262 312C263.83 312.67 267 312 267 312C267 312 267.17 305.5 266 304C264.83 302.5 260 303 260 303L263 304L261 308C261 308 259.33 306.17 259 305C258.67 303.83 258.67 301.83 259 301C259.33 300.17 261 300 261 300C261 300 259 298 258 298ZM265 298L263 301L267 302L265 298ZM30 301C29.33 301.17 28 303 28 303L32 302C32 302 30.67 300.83 30 301ZM42 301L45 303L45 301L42 301ZM36 302L37 304L39 303L36 302ZM292 303L295 304L292 305L292 303ZM276 303C275 303.5 274 307 274 307L280 304C280 304 277 302.5 276 303ZM56 304L56 306L59 306L56 304ZM270 304L268 312C268 312 272 312.5 273 312C274 311.5 274 309 274 309L271 310L270 304ZM63 307C62.5 307.5 62 310 62 310L65 310L65 307C65 307 63.5 306.5 63 307ZM41 308C41 308 40.83 311.33 42 312C43.17 312.67 48 312 48 312C48 312 49.17 310.67 48 310C46.83 309.33 41 308 41 308ZM220 308L218 310L220 309L220 312L223 312L220 308ZM210 309L209 311L211 312L210 309Z" fill="#28241d"/></g></svg>