<?xml version="1.0" standalone="no"?>
<svg xmlns="http://www.w3.org/2000/svg" viewBox="0 0 1080 1080" width="1080px" height="1080px" style="width:100%;height:auto;display:block;"><rect width="100%" height="100%" fill="#4eb37b"/><g transform="translate(0 0) scale(3.46)" fill-rule="evenodd"><path d="M1 0C-51 0 0 0 0 0L0 312L312 312L312 221L302 220L302 219L297 219L297 218L292 218L292 217L287 217L287 216L282 216L282 215L252 213C252 213 253.67 210.33 254 209C254.33 207.67 254 205 254 205L275 206L275 207L291 208L291 209L296 209L296 210L312 211L312 0C312 0 53 0 1 0ZM102 69C110.17 65.67 105 70 105 70L105 94C105 94 104.5 92.67 107 92C109.5 91.33 120 90 120 90L120 89L141 89L141 90C141 90 157.17 91.33 161 92C164.83 92.67 161.33 93.17 164 94C166.67 94.83 169.5 93.83 177 97C184.5 100.17 203.33 109.83 209 113C214.67 116.17 209.67 115 211 116C212.33 117 215.17 117.5 217 119C218.83 120.5 220.83 124 222 125C223.17 126 224 125 224 125L224 127L226 127C226 127 225.5 128.17 227 130C228.5 131.83 233.17 135.5 235 138C236.83 140.5 238.17 142.33 238 145C237.83 147.67 234 154 234 154C234 154 224.33 144 222 142C219.67 140 220.83 142.5 220 142C219.17 141.5 217 139 217 139L217 160C217 160 214.83 158.33 213 158C211.17 157.67 206 158 206 158L206 157C206 157 189.5 159 185 160C180.5 161 182 160.33 179 163C176 165.67 169.33 173.83 167 176C164.67 178.17 165.5 175.67 165 176C164.5 176.33 164.83 177.33 164 178C163.17 178.67 160.67 179.33 160 180C159.33 180.67 160 182 160 182C160 182 160.5 181.17 163 182C165.5 182.83 172.33 186.17 175 187C177.67 187.83 177.5 188 179 187C180.5 186 182.83 182 184 181C185.17 180 185.5 181.33 186 181C186.5 180.67 186.17 179.67 187 179C187.83 178.33 189.17 177.33 191 177C192.83 176.67 198 177 198 177L198 176C198 176 206.5 176.5 209 177C211.5 177.5 212.33 178.33 213 179C213.67 179.67 213 181 213 181L216 181L217 190C217 190 215.83 186.5 214 185C212.17 183.5 209.17 181.67 206 181C202.83 180.33 197.5 180.67 195 181C192.5 181.33 192.33 181.17 191 183C189.67 184.83 187 192 187 192C187 192 188.33 189.83 190 190C191.67 190.17 193 192 197 193C201 194 214 196 214 196C214 196 215 197.83 214 199C213 200.17 209.83 202.33 208 203C206.17 203.67 203 203 203 203L203 202L186 198C186 198 184.67 203.67 185 206C185.33 208.33 186.33 209.83 188 212C189.67 214.17 192.5 217.17 195 219C197.5 220.83 199.17 222.33 203 223C206.83 223.67 218 223 218 223L218 231C218 231 208.67 233 204 232C199.33 231 193.83 227.67 190 225C186.17 222.33 182.5 217.83 181 216C179.5 214.17 181.33 214.5 181 214C180.67 213.5 179.83 214.17 179 213C178.17 211.83 176.67 210.33 176 207C175.33 203.67 175 193 175 193L171 194L171 193L167 193L167 192C167 192 164 192.33 163 192C162 191.67 162.33 190.5 161 190C159.67 189.5 156.17 189.33 155 189C153.83 188.67 154 188.67 154 188C154 187.33 155 185 155 185C155 185 150.83 187.5 149 188C147.17 188.5 144 188 144 188C144 188 143.67 185.67 144 185C144.33 184.33 145.67 184.67 146 184C146.33 183.33 146 181 146 181L147 181C147 181 148.17 179.33 146 179C143.83 178.67 134 179 134 179L134 180L121 179L123 172L136 173L136 172C136 172 142.5 172.33 144 172C145.5 171.67 144.5 170.33 145 170C145.5 169.67 147 170 147 170C147 170 149.5 165.33 150 163C150.5 160.67 150 156 150 156C150 156 143.5 153.83 142 153C140.5 152.17 141.83 151.67 141 151C140.17 150.33 138.33 149.33 137 149C135.67 148.67 134.5 148.33 133 149C131.5 149.67 128.83 151.83 128 153C127.17 154.17 128.5 154.67 128 156C127.5 157.33 127.5 160.17 125 161C122.5 161.83 113 161 113 161L113 152L112 152L111 143L110 143L111 132L112 132L110 119C110 119 108.33 119.5 108 120C107.67 120.5 108 122 108 122C108 122 80 120.67 74 121C68 121.33 73 123.5 72 124C71 124.5 68 124 68 124L68 125C68 125 59.33 124.67 57 124C54.67 123.33 56.17 121.5 54 121C51.83 120.5 44 121 44 121L44 113L45 113C45 113 45.17 106.83 46 104C46.83 101.17 48.33 98.33 50 96C51.67 93.67 47.33 94.5 56 90C64.67 85.5 93.83 72.33 102 69ZM107 102L106 102L106 105L107 105L107 102ZM108 107L107 107L107 110L108 110L108 107ZM73 135L76 135C76 135 75.33 137.5 73 138C70.67 138.5 62 138 62 138L62 137L73 136L73 135ZM57 166L69 166C69 166 69 167.5 68 168C67 168.5 63 169 63 169L63 170L46 172L46 173L41 173L41 174L34 174L34 175L27 175L27 176L12 177C12 177 11.67 178.5 12 179C12.33 179.5 14 180 14 180C14 180 10.33 180.83 9 180C7.67 179.17 6.5 176 6 175C5.5 174 6 174 6 174L12 174L12 173L17 173L17 172L22 172L22 171L27 171L27 170L36 170L36 169L57 167L57 166ZM96 168C96 168 94.33 168.83 97 169C99.67 169.17 112 169 112 169L113 172C113 172 111.5 171.5 110 172C108.5 172.5 108.17 174.83 104 175C99.83 175.17 85 173 85 173L85 169C85 169 92.17 170.17 94 170C95.83 169.83 96 168 96 168ZM273 171L274 171L274 189C274 189 272.17 188 272 185C271.83 182 273 171 273 171ZM91 199L97 199L97 200L90 203L91 199ZM217 199L218 199L217 208L212 209L212 210L206 209L205 205C205 205 205.83 206.83 207 207C208.17 207.17 210.5 206.67 212 206C213.5 205.33 215.17 204.17 216 203C216.83 201.83 217 199 217 199ZM223 199L225 199L226 202L222 202L223 199ZM94 221L95 221L95 232L94 232L94 221Z" fill="#2d8557"/><path d="M1 0C-51 0 0 0 0 0L0 312L312 312C312 312 312.17 242.17 312 228C311.83 213.83 312.5 227.17 311 227C309.5 226.83 303 227 303 227L303 226C303 226 300 226.5 298 226C296 225.5 295.17 223.5 291 223C286.83 222.5 273 223 273 223L273 222L264 222L264 221L248 219C248 219 246.67 222.33 246 223C245.33 223.67 244 223 244 223C244 223 244.67 224 244 225C243.33 226 241 228.33 240 229C239 229.67 239 228.33 238 229C237 229.67 235.5 232.17 234 233C232.5 233.83 230.5 233.33 229 234C227.5 234.67 227.67 236.33 225 237C222.33 237.67 213 238 213 238L213 239C213 239 202.5 238.33 198 237C193.5 235.67 189.67 233.67 186 231C182.33 228.33 178.33 224.17 176 221C173.67 217.83 172.67 214.5 172 212C171.33 209.5 172 206 172 206L171 206L172 198L164 196L164 195L158 195L158 194C158 194 152.67 193.5 151 193C149.33 192.5 149.5 191.33 148 191C146.5 190.67 144.17 191.5 142 191C139.83 190.5 137.17 188.5 135 188C132.83 187.5 129 188 129 188L129 187L116 184L116 186L113 187C113 187 113.67 188.33 113 189C112.33 189.67 109.67 190.33 109 191C108.33 191.67 109 193 109 193L107 193L107 196L106 196C106 196 105.5 204.83 106 207C106.5 209.17 108.33 207.83 109 209C109.67 210.17 109.5 212.83 110 214C110.5 215.17 111.67 215 112 216C112.33 217 112 220 112 220L113 220L113 226L112 226C112 226 112.33 229 112 230C111.67 231 110.5 230.83 110 232C109.5 233.17 110.5 234.67 109 237C107.5 239.33 102.67 244.5 101 246C99.33 247.5 99 246 99 246L99 248L97 248L96 243C96 243 94.83 242.5 94 243C93.17 243.5 93 245 91 246C89 247 82 249 82 249L82 243L83 243C83 243 82.5 240 83 238C83.5 236 85.5 233 86 231C86.5 229 85.5 227.33 86 226C86.5 224.67 88.5 224 89 223C89.5 222 88.5 220.83 89 220C89.5 219.17 91.5 218.67 92 218C92.5 217.33 92 216 92 216C92 216 86 222.83 83 225C80 227.17 77.67 228.33 74 229C70.33 229.67 61 229 61 229L61 228C61 228 50.33 225.17 48 224C45.67 222.83 44.83 223.83 47 221C49.17 218.17 58 209.5 61 207C64 204.5 64.17 206.5 65 206C65.83 205.5 64.83 204.83 66 204C67.17 203.17 70.5 201.5 72 201C73.5 200.5 74 201.33 75 201C76 200.67 75.17 199.33 78 199C80.83 198.67 92 199 92 199L92 198C92 198 98.33 197.67 100 197C101.67 196.33 101.33 194.5 102 194C102.67 193.5 103.17 194.5 104 194C104.83 193.5 106.33 192 107 191C107.67 190 108 188 108 188L110 188L110 183L88 180L88 179L81 179L81 178L57 178L57 179L36 180L36 181L12 182L12 181C12 181 8.33 182 7 181C5.67 180 4.33 176.33 4 175C3.67 173.67 4.17 173.33 5 173C5.83 172.67 9 173 9 173L9 172L21 171L21 170L27 170L27 169L33 169L33 168L39 168L39 167L50 167L50 166L57 166L57 165C57 165 74.17 165.5 78 165C81.83 164.5 78.83 162.83 80 162C81.17 161.17 82.33 162 85 160C87.67 158 94.17 152 96 150C97.83 148 96 148 96 148L89 148L89 149L70 148L70 147C70 147 58.5 144.83 56 144C53.5 143.17 55.67 142.33 55 142C54.33 141.67 52.67 142.33 52 142C51.33 141.67 52 140.67 51 140C50 139.33 47 138.83 46 138C45 137.17 45 135 45 135C45 135 68 135.33 73 135C78 134.67 74.17 133.33 75 133C75.83 132.67 76.5 133.5 78 133C79.5 132.5 82.67 131 84 130C85.33 129 85.17 127.67 86 127C86.83 126.33 89 126 89 126L89 124C89 124 86.83 123.5 86 124C85.17 124.5 85.67 125.83 84 127C82.33 128.17 78.17 130.33 76 131C73.83 131.67 71 131 71 131L71 132C71 132 47.83 132.17 43 132C38.17 131.83 42 134.67 42 131C42 127.33 43 110 43 110L44 110C44 110 46.83 99.5 48 97C49.17 94.5 50.5 95.67 51 95C51.5 94.33 51 93 51 93L54 92C54 92 51.33 91.67 54 90C56.67 88.33 66.83 83.33 70 82C73.17 80.67 72 82.5 73 82C74 81.5 75 79.5 76 79C77 78.5 77.5 79.67 79 79C80.5 78.33 83.5 75.67 85 75C86.5 74.33 86.5 75.67 88 75C89.5 74.33 92.5 71.67 94 71C95.5 70.33 96 71.5 97 71C98 70.5 98.67 68.5 100 68C101.33 67.5 104 67.83 105 68C106 68.17 105.83 65 106 69C106.17 73 106 92 106 92C106 92 109.5 89.5 112 89C114.5 88.5 121 89 121 89L121 88L140 88L140 89L157 90L157 91C157 91 169.17 93.17 172 94C174.83 94.83 173 95.67 174 96C175 96.33 175.17 94.83 178 96C180.83 97.17 188.33 101.83 191 103C193.67 104.17 192.83 102.67 194 103C195.17 103.33 197.17 104.33 198 105C198.83 105.67 198.33 106.67 199 107C199.67 107.33 201.33 106.67 202 107C202.67 107.33 202.5 108.67 203 109C203.5 109.33 203.5 108 205 109C206.5 110 210.5 114 212 115C213.5 116 213.33 114.5 214 115C214.67 115.5 215.33 117.5 216 118C216.67 118.5 214.5 114.67 218 118C221.5 121.33 233.83 134.33 237 138C240.17 141.67 236.5 139.33 237 140C237.5 140.67 239.33 141 240 142C240.67 143 240.5 145.17 241 146C241.5 146.83 242.5 146.17 243 147C243.5 147.83 243.5 150.17 244 151C244.5 151.83 244.83 150.17 246 152C247.17 153.83 250 159.33 251 162C252 164.67 251.33 166.17 252 168C252.67 169.83 254.33 170.67 255 173C255.67 175.33 256 182 256 182L257 182C257 182 257.33 196.33 257 200C256.67 203.67 255 204 255 204L271 205L271 206L286 206L286 207L291 207L291 208C291 208 294 208.33 295 208C296 207.67 297 206 297 206C297 206 297 204.67 295 204C293 203.33 287.67 203.17 285 202C282.33 200.83 280.33 197.83 279 197C277.67 196.17 277 197 277 197C277 197 277.67 195.83 277 195C276.33 194.17 273.67 193 273 192C272.33 191 273.33 189.83 273 189C272.67 188.17 271.33 188.17 271 187C270.67 185.83 271 182 271 182L270 182L271 168L278 167L278 168C278 168 282 167.67 283 168C284 168.33 283.5 169.67 284 170C284.5 170.33 286 170 286 170L287 165L288 165C288 165 287.67 161.33 288 160C288.33 158.67 289.67 158.5 290 157C290.33 155.5 290 151 290 151C290 151 289.67 149 292 151C294.33 153 301.5 159.33 304 163C306.5 166.67 307 173 307 173L308 173L307 190L306 190C306 190 305 196 304 198C303 200 300.67 200.67 300 202C299.33 203.33 300.33 205.17 300 206C299.67 206.83 298.33 206.5 298 207C297.67 207.5 298 209 298 209L312 210L312 0C312 0 53 0 1 0ZM131 154C129.83 154 128.67 154.17 128 156C127.33 157.83 127.67 162.5 127 165C126.33 167.5 124 171 124 171L135 172L135 171C135 171 142.83 171.17 145 170C147.17 168.83 148 164 148 164C148 164 144.83 163.5 144 163C143.17 162.5 143.5 161.33 143 161C142.5 160.67 141.5 161.33 141 161C140.5 160.67 140.83 159.5 140 159C139.17 158.5 136.83 158.5 136 158C135.17 157.5 135.83 156.67 135 156C134.17 155.33 132.17 154 131 154ZM111 156C110 156.33 108.17 156.17 106 158C103.83 159.83 98 167 98 167L103 168C103 168 104 165.67 105 165C106 164.33 107.83 165 109 164C110.17 163 111.5 160.33 112 159C112.5 157.67 112 156 112 156C112 156 112 155.67 111 156ZM201 163C195.83 163 189.33 164.67 185 166C180.67 167.33 176.83 169.83 175 171C173.17 172.17 174.83 172.5 174 173C173.17 173.5 171 173.33 170 174C169 174.67 168.67 176.5 168 177C167.33 177.5 167 176.33 166 177C165 177.67 162 181 162 181L178 186C178 186 181 181.83 182 181C183 180.17 183.33 181.5 184 181C184.67 180.5 185.17 178.5 186 178C186.83 177.5 188.17 178.33 189 178C189.83 177.67 188 176.5 191 176C194 175.5 204 174.83 207 175C210 175.17 207.5 176.33 209 177C210.5 177.67 216 179 216 179C216 179 215.33 180.33 216 181C216.67 181.67 218.67 181.33 220 183C221.33 184.67 223.33 188.5 224 191C224.67 193.5 224 198 224 198L238 201C238 201 238.83 192.67 238 189C237.17 185.33 235.33 182.17 233 179C230.67 175.83 226 171.5 224 170C222 168.5 221.67 170.33 221 170C220.33 169.67 220.83 168.67 220 168C219.17 167.33 219.17 166.83 216 166C212.83 165.17 206.17 163 201 163ZM199 185C197 185.5 191 188 191 188L191 190L213 195C213 195 213.5 192.17 213 191C212.5 189.83 211.67 189 210 188C208.33 187 204.83 185.5 203 185C201.17 184.5 201 184.5 199 185ZM104 196C104 196 101 196.67 99 200C97 203.33 92 216 92 216C92 216 98.5 210.17 100 208C101.5 205.83 100.33 204.5 101 203C101.67 201.5 103.5 200.17 104 199C104.5 197.83 104 196 104 196ZM187 202C184 201.33 186 202 186 202L187 207L188 207C188 207 187.5 209.17 188 210C188.5 210.83 190.5 211.33 191 212C191.5 212.67 191 214 191 214C191 214 192.33 213.5 193 214C193.67 214.5 194.33 216.5 195 217C195.67 217.5 196.33 216.5 197 217C197.67 217.5 198.17 219.5 199 220C199.83 220.5 202 220 202 220L202 221L216 222L216 221C216 221 221.67 220.5 223 220C224.33 219.5 223.5 218.33 224 218C224.5 217.67 225.5 218.33 226 218C226.5 217.67 226.17 216.67 227 216C227.83 215.33 230.33 214.5 231 214C231.67 213.5 231 213 231 213C231 213 224.33 212.67 222 212C219.67 211.33 218.33 209.17 217 209C215.67 208.83 215.67 210.67 214 211C212.33 211.33 208.67 211.5 207 211C205.33 210.5 204.5 208.83 204 208C203.5 207.17 204 206 204 206C204 206 190 202.67 187 202Z" fill="#0d372e"/><path d="M1 0C-51 0 0 0 0 0L0 312L312 312C312 312 312.17 242.17 312 228C311.83 213.83 312.5 227.17 311 227C309.5 226.83 303 227 303 227L303 226C303 226 300 226.5 298 226C296 225.5 295.17 223.5 291 223C286.83 222.5 273 223 273 223L273 222L264 222L264 221L248 219C248 219 246.67 222.33 246 223C245.33 223.67 244 223 244 223C244 223 244.83 223.83 244 225C243.17 226.17 242.17 228 239 230C235.83 232 229.33 235.67 225 237C220.67 238.33 213 238 213 238L213 239L202 238L202 237C202 237 199.33 237.5 198 237C196.67 236.5 195.5 234.67 194 234C192.5 233.33 190 233.5 189 233C188 232.5 188.5 231.33 188 231C187.5 230.67 187.5 232 186 231C184.5 230 180.17 226.33 179 225C177.83 223.67 179.83 224.17 179 223C178.17 221.83 174.83 219.33 174 218C173.17 216.67 174.33 216 174 215C173.67 214 172.33 213.5 172 212C171.67 210.5 172 206 172 206L171 206L172 198L164 196L164 195C164 195 153.67 193.67 151 193C148.33 192.33 149.5 191.33 148 191C146.5 190.67 144.17 191.5 142 191C139.83 190.5 137.17 188.5 135 188C132.83 187.5 129 188 129 188L129 187C129 187 126.33 187.33 125 187C123.67 186.67 122.5 185.33 121 185C119.5 184.67 117 184.67 116 185C115 185.33 115.5 186.67 115 187C114.5 187.33 113 187 113 187C113 187 113.67 188 113 189C112.33 190 110 192.33 109 193C108 193.67 107 193 107 193L107 196L106 196C106 196 105.5 204.83 106 207C106.5 209.17 108.33 207.83 109 209C109.67 210.17 109.33 212.33 110 214C110.67 215.67 112.5 217 113 219C113.5 221 113 226 113 226L112 226C112 226 112.33 229 112 230C111.67 231 110.67 230.5 110 232C109.33 233.5 109.5 236.67 108 239C106.5 241.33 102.5 244.83 101 246C99.5 247.17 99 246 99 246L99 248L97 248L96 243C96 243 96.5 242.17 95 243C93.5 243.83 89.17 247 87 248C84.83 249 82 249 82 249C82 249 82.5 239.5 83 237C83.5 234.5 84.5 235.83 85 234C85.5 232.17 85.33 227.83 86 226C86.67 224.17 88.5 224 89 223C89.5 222 88.67 220.67 89 220C89.33 219.33 90.67 219.5 91 219C91.33 218.5 91 217 91 217C91 217 85.83 223 83 225C80.17 227 77.67 228.33 74 229C70.33 229.67 61 229 61 229L61 228C61 228 50.33 225.17 48 224C45.67 222.83 44.83 223.83 47 221C49.17 218.17 58.33 209.33 61 207C63.67 204.67 62.5 207.33 63 207C63.5 206.67 62.5 206 64 205C65.5 204 70.17 201.67 72 201C73.83 200.33 74 201.33 75 201C76 200.67 75.17 199.33 78 199C80.83 198.67 92 199 92 199L92 198C92 198 97 198.83 100 197C103 195.17 108.33 189.33 110 187C111.67 184.67 110 183 110 183L88 180L88 179L81 179L81 178L57 178L57 179L36 180L36 181L12 182L12 181C12 181 8.33 182 7 181C5.67 180 4.33 176.33 4 175C3.67 173.67 4.17 173.33 5 173C5.83 172.67 7.67 173.33 9 173C10.33 172.67 10 171.5 13 171C16 170.5 27 170 27 170L27 169L33 169L33 168L39 168L39 167L50 167L50 166L57 166L57 165C57 165 73 165.67 77 165C81 164.33 79 162.33 81 161C83 159.67 86.5 158.83 89 157C91.5 155.17 94.83 151.5 96 150C97.17 148.5 96 148 96 148L90 148L90 149L70 148L70 147C70 147 59 144.83 56 144C53 143.17 52.83 142.67 52 142C51.17 141.33 51.5 140.33 51 140C50.5 139.67 49.5 140.33 49 140C48.5 139.67 48.5 138.33 48 138C47.5 137.67 46 138 46 138L45 135L72 135L72 134C72 134 78.67 133.17 81 132C83.33 130.83 84.83 127.83 86 127C87.17 126.17 88 127 88 127L89 124C89 124 86.83 123.5 86 124C85.17 124.5 85.67 125.83 84 127C82.33 128.17 78.17 130.33 76 131C73.83 131.67 71 131 71 131L71 132C71 132 47.83 132.17 43 132C38.17 131.83 42 134.67 42 131C42 127.33 43 110 43 110L44 110C44 110 47 99.33 48 97C49 94.67 49.5 96.67 50 96C50.5 95.33 50.33 93.67 51 93C51.67 92.33 54 92 54 92C54 92 50 92.33 54 90C58 87.67 73.5 80 78 78C82.5 76 78.33 79.17 81 78C83.67 76.83 91.33 72.17 94 71C96.67 69.83 96 71.5 97 71C98 70.5 98.67 68.5 100 68C101.33 67.5 104 67.83 105 68C106 68.17 105.83 65 106 69C106.17 73 106 92 106 92C106 92 105.33 89.67 111 89C116.67 88.33 140 88 140 88L140 89L152 89L152 90C152 90 165.33 92 169 93C172.67 94 172.5 95.5 174 96C175.5 96.5 176.67 95.5 178 96C179.33 96.5 180.83 98.5 182 99C183.17 99.5 183.5 98.33 185 99C186.5 99.67 189.5 102.33 191 103C192.5 103.67 192.83 102.67 194 103C195.17 103.33 197.17 104.33 198 105C198.83 105.67 198.33 106.67 199 107C199.67 107.33 201.33 106.67 202 107C202.67 107.33 202.17 108.5 203 109C203.83 109.5 206 109.33 207 110C208 110.67 207.83 112.17 209 113C210.17 113.83 212.83 114.17 214 115C215.17 115.83 215.33 117.5 216 118C216.67 118.5 216.67 116.83 218 118C219.33 119.17 222.67 123.83 224 125C225.33 126.17 226 125 226 125C226 125 224.67 125.5 226 127C227.33 128.5 232.67 132.5 234 134C235.33 135.5 233 134.67 234 136C235 137.33 238.83 140.33 240 142C241.17 143.67 240.5 145.17 241 146C241.5 146.83 242.5 146.17 243 147C243.5 147.83 243.5 150.17 244 151C244.5 151.83 244.83 150.17 246 152C247.17 153.83 250 159.33 251 162C252 164.67 251.33 166.17 252 168C252.67 169.83 254.33 170.67 255 173C255.67 175.33 256 182 256 182L257 182L256 204C256 204 253 204.67 258 205C263 205.33 286 206 286 206L286 207L291 207L291 208C291 208 294 208.33 295 208C296 207.67 297 206 297 206C297 206 297 204.67 295 204C293 203.33 287.67 203.17 285 202C282.33 200.83 280.33 197.83 279 197C277.67 196.17 277 197 277 197C277 197 277.67 195.83 277 195C276.33 194.17 273.67 193 273 192C272.33 191 273.33 189.83 273 189C272.67 188.17 271.33 188.17 271 187C270.67 185.83 271 182 271 182L270 182L271 167C271 167 277.5 166.5 280 167C282.5 167.5 286 170 286 170C286 170 287.33 162.17 288 160C288.67 157.83 289.67 158.5 290 157C290.33 155.5 290 151 290 151C290 151 289.67 149 292 151C294.33 153 301.5 160 304 163C306.5 166 306.5 167.33 307 169C307.5 170.67 307 173 307 173L308 173L308 187L307 187C307 187 305.17 195.5 304 198C302.83 200.5 300.67 200.67 300 202C299.33 203.33 300.33 204.83 300 206C299.67 207.17 298 209 298 209L312 210L312 0C312 0 53 0 1 0ZM131 154C131 154 128.67 154.17 128 156C127.33 157.83 127.67 162.5 127 165C126.33 167.5 124 171 124 171C124 171 132.83 172.17 135 172C137.17 171.83 137 170 137 170C137 170 136.67 171 138 171C139.33 171 143.33 171.17 145 170C146.67 168.83 148 164 148 164C148 164 139.17 160.33 137 159C134.83 157.67 135.83 156.5 135 156C134.17 155.5 132.67 156.33 132 156C131.33 155.67 131 154 131 154ZM111 156C110 156.33 108.17 156.17 106 158C103.83 159.83 98 167 98 167L103 168L103 166C103 166 107.5 165.17 109 164C110.5 162.83 111.5 160.33 112 159C112.5 157.67 112 156 112 156C112 156 112 155.67 111 156ZM201 163C195.83 163 189.33 164.67 185 166C180.67 167.33 176.83 169.83 175 171C173.17 172.17 174.83 172.5 174 173C173.17 173.5 171 173.33 170 174C169 174.67 168.67 176.5 168 177C167.33 177.5 167 176.33 166 177C165 177.67 162 181 162 181L178 186C178 186 181 181.83 182 181C183 180.17 183.33 181.5 184 181C184.67 180.5 185.17 178.5 186 178C186.83 177.5 188.17 178.33 189 178C189.83 177.67 188 176.5 191 176C194 175.5 204 174.83 207 175C210 175.17 207.5 176.33 209 177C210.5 177.67 216 179 216 179C216 179 215.33 180.33 216 181C216.67 181.67 218.67 181.33 220 183C221.33 184.67 223.33 188.5 224 191C224.67 193.5 224 198 224 198L238 201C238 201 238.83 192.67 238 189C237.17 185.33 235 181.83 233 179C231 176.17 227.5 173.17 226 172C224.5 170.83 224 172 224 172L224 170C224 170 221.67 170.33 221 170C220.33 169.67 220.83 168.67 220 168C219.17 167.33 219.17 166.83 216 166C212.83 165.17 206.17 163 201 163ZM199 185C197 185.5 191 188 191 188L191 190L213 195C213 195 213.5 192.17 213 191C212.5 189.83 211.67 189 210 188C208.33 187 204.83 185.5 203 185C201.17 184.5 201 184.5 199 185ZM104 196C104 196 100.33 198.33 99 200C97.67 201.67 96.5 204.5 96 206C95.5 207.5 96.5 208 96 209C95.5 210 93.83 210.67 93 212C92.17 213.33 91 217 91 217C91 217 98.33 210.33 100 208C101.67 205.67 100.33 204.5 101 203C101.67 201.5 103.5 200.17 104 199C104.5 197.83 104 196 104 196ZM187 202C184 201.33 186 202 186 202L187 207L188 207C188 207 187.5 209.17 188 210C188.5 210.83 190.5 211.33 191 212C191.5 212.67 191 214 191 214C191 214 191.67 213 193 214C194.33 215 197.33 219 199 220C200.67 221 201.83 219.67 203 220C204.17 220.33 203.83 221.67 206 222C208.17 222.33 213.83 222.33 216 222C218.17 221.67 217.83 220.33 219 220C220.17 219.67 222.17 220.33 223 220C223.83 219.67 223.5 218.33 224 218C224.5 217.67 225.5 218.33 226 218C226.5 217.67 226.17 216.67 227 216C227.83 215.33 230.33 214.5 231 214C231.67 213.5 231 213 231 213C231 213 221.33 211.67 219 211C216.67 210.33 217 209 217 209C217 209 215.67 210.67 214 211C212.33 211.33 208.67 211.5 207 211C205.33 210.5 204.5 208.83 204 208C203.5 207.17 204 206 204 206C204 206 190 202.67 187 202Z" fill="#0d352d"/><path d="M1 0C-51 0 0 0 0 0L0 312L312 312C312 312 312.17 242.17 312 228C311.83 213.83 312.5 227.17 311 227C309.5 226.83 303 227 303 227L303 226C303 226 300 226.5 298 226C296 225.5 295.33 223.5 291 223C286.67 222.5 272 223 272 223L272 222L264 222L264 221L248 219C248 219 248.5 220.17 247 222C245.5 223.83 242.67 227.5 239 230C235.33 232.5 229.17 235.67 225 237C220.83 238.33 214 238 214 238L214 239L202 238L202 237C202 237 199 237.33 198 237C197 236.67 197.5 235.67 196 235C194.5 234.33 192 234.83 189 233C186 231.17 180.83 227.5 178 224C175.17 220.5 173 214.83 172 212C171 209.17 172 207 172 207L171 207L172 198L164 196L164 195C164 195 156.67 194.67 154 194C151.33 193.33 150 191.5 148 191C146 190.5 144.17 191.5 142 191C139.83 190.5 137.17 188.5 135 188C132.83 187.5 129 188 129 188L129 187C129 187 126.33 187.33 125 187C123.67 186.67 122.5 185.33 121 185C119.5 184.67 118 183.67 116 185C114 186.33 110.5 191.67 109 193C107.5 194.33 107 193 107 193L107 196L106 196C106 196 105.5 203.83 106 206C106.5 208.17 108.33 207.67 109 209C109.67 210.33 109.33 212.33 110 214C110.67 215.67 112.5 216.83 113 219C113.5 221.17 113.83 223.67 113 227C112.17 230.33 109.33 236.67 108 239C106.67 241.33 105.67 240.17 105 241C104.33 241.83 105 243.17 104 244C103 244.83 99 246 99 246L99 248L97 248L96 243C96 243 96.5 242.17 95 243C93.5 243.83 89.17 247 87 248C84.83 249 82 249 82 249C82 249 83.33 236.17 84 233C84.67 229.83 85.67 231.17 86 230C86.33 228.83 85.5 227.17 86 226C86.5 224.83 88.5 224 89 223C89.5 222 88.67 220.67 89 220C89.33 219.33 90.67 219.5 91 219C91.33 218.5 91 217 91 217C91 217 85.83 223 83 225C80.17 227 77.67 228.33 74 229C70.33 229.67 61 229 61 229L61 228C61 228 50.33 225.17 48 224C45.67 222.83 45.83 223 47 221C48.17 219 53.33 213.5 55 212C56.67 210.5 56 212.83 57 212C58 211.17 60 207.83 61 207C62 206.17 62 207.67 63 207C64 206.33 65.83 203.67 67 203C68.17 202.33 68.17 203.67 70 203C71.83 202.33 74.33 199.67 78 199C81.67 198.33 92 199 92 199L92 198C92 198 97 198.83 100 197C103 195.17 108.33 189.33 110 187C111.67 184.67 110 183 110 183L81 179L81 178L58 178L58 179L37 180L37 181L11 182L11 181C11 181 8.17 182 7 181C5.83 180 4.5 176.33 4 175C3.5 173.67 4 173 4 173L8 173L8 172L27 170L27 169L33 169L33 168L38 168L38 167L72 165L72 164C72 164 75.5 165.5 77 165C78.5 164.5 79.67 161.83 81 161C82.33 160.17 83.83 160.83 85 160C86.17 159.17 87.17 156.67 88 156C88.83 155.33 88.67 157 90 156C91.33 155 95 151.33 96 150C97 148.67 96 148 96 148L91 148L91 149L70 148L70 147C70 147 59.33 145 56 144C52.67 143 51.33 142 50 141C48.67 140 48.67 138.5 48 138C47.33 137.5 46 138 46 138L45 135L72 135L72 134C72 134 80.17 131.83 82 131C83.83 130.17 82 129.67 83 129C84 128.33 87 127.83 88 127C89 126.17 89 124 89 124C89 124 86.83 123.5 86 124C85.17 124.5 85.67 125.83 84 127C82.33 128.17 78.17 130.33 76 131C73.83 131.67 71 131 71 131L71 132C71 132 47.83 132.17 43 132C38.17 131.83 42 134.67 42 131C42 127.33 43 110 43 110L44 110C44 110 47 99.33 48 97C49 94.67 49.33 96.83 50 96C50.67 95.17 51.33 92.67 52 92C52.67 91.33 54 92 54 92C54 92 50 92.33 54 90C58 87.67 72.33 80.5 78 78C83.67 75.5 84.33 76.67 88 75C91.67 73.33 97.17 69.17 100 68C102.83 66.83 104 67.83 105 68C106 68.17 105.83 65 106 69C106.17 73 106 92 106 92C106 92 108.5 89.5 111 89C113.5 88.5 121 89 121 89L121 88L152 89L152 90C152 90 155.5 89.67 157 90C158.5 90.33 159.5 91.67 161 92C162.5 92.33 163.83 91.33 166 92C168.17 92.67 172 95.33 174 96C176 96.67 176.67 95.5 178 96C179.33 96.5 180.83 98.5 182 99C183.17 99.5 183.5 98.33 185 99C186.5 99.67 189.5 102.33 191 103C192.5 103.67 192.83 102.67 194 103C195.17 103.33 197.17 104.33 198 105C198.83 105.67 198.33 106.67 199 107C199.67 107.33 201.33 106.67 202 107C202.67 107.33 202.17 108.5 203 109C203.83 109.5 206 109.33 207 110C208 110.67 207.83 112.17 209 113C210.17 113.83 212.83 114.17 214 115C215.17 115.83 215.33 117.5 216 118C216.67 118.5 216.67 116.83 218 118C219.33 119.17 222.67 123.83 224 125C225.33 126.17 226 125 226 125C226 125 224.67 125.5 226 127C227.33 128.5 232.67 132.5 234 134C235.33 135.5 233 134.67 234 136C235 137.33 238.83 140.33 240 142C241.17 143.67 240.33 145 241 146C241.67 147 242.17 145 244 148C245.83 151 250.67 160.67 252 164C253.33 167.33 251.67 167 252 168C252.33 169 253.5 168.33 254 170C254.5 171.67 254.5 176 255 178C255.5 180 256.83 177.67 257 182C257.17 186.33 256 204 256 204C256 204 253 204.67 258 205C263 205.33 286 206 286 206L286 207L291 207L291 208C291 208 294 208.33 295 208C296 207.67 297 206 297 206C297 206 297 204.67 295 204C293 203.33 287.33 202.67 285 202C282.67 201.33 281.83 200.67 281 200C280.17 199.33 280.5 198.33 280 198C279.5 197.67 278 198 278 198L277 195L275 195C275 195 275.33 193.5 275 193C274.67 192.5 273.33 192.67 273 192C272.67 191.33 273.5 190.5 273 189C272.5 187.5 270.33 186.67 270 183C269.67 179.33 271 167 271 167C271 167 277.5 166.5 280 167C282.5 167.5 286 170 286 170C286 170 287.33 162.17 288 160C288.67 157.83 289.67 158.5 290 157C290.33 155.5 290 151 290 151C290 151 289.67 149 292 151C294.33 153 301.5 160 304 163C306.5 166 306.5 167.33 307 169C307.5 170.67 307 173 307 173L308 173L308 187L307 187C307 187 304.17 197.5 303 200C301.83 202.5 300.5 201 300 202C299.5 203 300.33 204.83 300 206C299.67 207.17 298 209 298 209L312 210L312 0C312 0 53 0 1 0ZM131 154C131 154 128.67 154.17 128 156C127.33 157.83 127.67 162.5 127 165C126.33 167.5 124 171 124 171L135 172C135 172 135.33 170.33 136 170C136.67 169.67 139 170 139 170L139 171C139 171 143.5 171.17 145 170C146.5 168.83 148 164 148 164C148 164 139.17 160.33 137 159C134.83 157.67 135.83 156.5 135 156C134.17 155.5 132.67 156.33 132 156C131.33 155.67 131 154 131 154ZM111 156C110 156.33 108.17 156.17 106 158C103.83 159.83 98 167 98 167L103 168L103 166C103 166 107.5 165.17 109 164C110.5 162.83 111.5 160.33 112 159C112.5 157.67 112 156 112 156C112 156 112 155.67 111 156ZM201 163C195.83 163 189.33 164.67 185 166C180.67 167.33 176.83 169.83 175 171C173.17 172.17 174.83 172.5 174 173C173.17 173.5 171 173.33 170 174C169 174.67 168.67 176.5 168 177C167.33 177.5 167 176.33 166 177C165 177.67 162 181 162 181L178 186C178 186 181 181.83 182 181C183 180.17 183 181.67 184 181C185 180.33 186.83 177.67 188 177C189.17 176.33 190 177.33 191 177C192 176.67 191.33 175.33 194 175C196.67 174.67 203.33 174.33 207 175C210.67 175.67 213.83 177.67 216 179C218.17 180.33 219.33 182 220 183C220.67 184 219.5 184.33 220 185C220.5 185.67 222.33 184.83 223 187C223.67 189.17 224 198 224 198L238 201C238 201 238.67 192.33 238 189C237.33 185.67 235 182.5 234 181C233 179.5 232.33 180.5 232 180C231.67 179.5 233 179.33 232 178C231 176.67 227.33 173 226 172C224.67 171 224.5 172.33 224 172C223.5 171.67 223.5 170.33 223 170C222.5 169.67 221.5 170.33 221 170C220.5 169.67 220.83 168.67 220 168C219.17 167.33 219.17 166.83 216 166C212.83 165.17 206.17 163 201 163ZM199 185C197.33 185.33 194.33 186.17 193 187C191.67 187.83 191 190 191 190L213 195L213 191L211 191C211 191 211.33 189 210 188C208.67 187 204.83 185.5 203 185C201.17 184.5 200.67 184.67 199 185ZM104 196C104 196 99.83 198.83 99 200C98.17 201.17 99.5 202 99 203C98.5 204 96.5 205 96 206C95.5 207 96.5 208 96 209C95.5 210 93.83 210.67 93 212C92.17 213.33 91 217 91 217C91 217 97.83 211.5 100 208C102.17 204.5 104 196 104 196ZM187 202C184 201.5 186 203 186 203L187 203C187 203 187.33 208.5 188 210C188.67 211.5 190.5 211.33 191 212C191.5 212.67 191 214 191 214C191 214 191.67 213 193 214C194.33 215 197.33 219 199 220C200.67 221 201.83 219.67 203 220C204.17 220.33 203.83 221.67 206 222C208.17 222.33 213.83 222.33 216 222C218.17 221.67 217.83 220.33 219 220C220.17 219.67 222.17 220.33 223 220C223.83 219.67 222.83 218.83 224 218C225.17 217.17 229 215.83 230 215C231 214.17 230 213 230 213C230 213 224.17 212.67 222 212C219.83 211.33 218.33 209.17 217 209C215.67 208.83 215.67 210.67 214 211C212.33 211.33 208.67 211.5 207 211C205.33 210.5 204.5 208.83 204 208C203.5 207.17 204 206 204 206C204 206 190 202.5 187 202Z" fill="#0c342d"/><path d="M1 0C-51 0 0 0 0 0L0 312L312 312C312 312 312.17 242.17 312 228C311.83 213.83 312.67 227.17 311 227C309.33 226.83 302 227 302 227L302 226C302 226 299.83 226.5 298 226C296.17 225.5 295.33 223.5 291 223C286.67 222.5 272 223 272 223L272 222L264 222L264 221L248 219C248 219 249.5 219.5 247 222C244.5 224.5 236.33 231.83 233 234C229.67 236.17 228.83 234.33 227 235C225.17 235.67 224.17 237.5 222 238C219.83 238.5 214 238 214 238L214 239C214 239 206.17 239.67 201 238C195.83 236.33 187.33 232 183 229C178.67 226 176.67 222.83 175 220C173.33 217.17 173 212 173 212L172 212L172 208L171 208L172 198L164 196L164 195C164 195 156.67 194.67 154 194C151.33 193.33 150.17 191.5 148 191C145.83 190.5 143.17 191.5 141 191C138.83 190.5 137.17 188.5 135 188C132.83 187.5 130.33 188.5 128 188C125.67 187.5 123 185.5 121 185C119 184.5 118 183.67 116 185C114 186.33 110.5 191.67 109 193C107.5 194.33 107 193 107 193L107 197L106 197C106 197 105.5 204 106 206C106.5 208 108 206.83 109 209C110 211.17 112 219 112 219L113 219C113 219 113.83 223.67 113 227C112.17 230.33 110.33 235.5 108 239C105.67 242.5 101 246.67 99 248C97 249.33 96 247 96 247L96 243C96 243 96.5 242.17 95 243C93.5 243.83 89.17 247 87 248C84.83 249 82 249 82 249L82 242L83 242C83 242 83.83 233 85 229C86.17 225 90 218 90 218C90 218 88.67 218.17 88 219C87.33 219.83 88.33 221.33 86 223C83.67 224.67 78.33 228 74 229C69.67 230 62.67 229.33 60 229C57.33 228.67 59 227.33 58 227C57 226.67 55.67 227.5 54 227C52.33 226.5 49.17 225 48 224C46.83 223 45.5 223.33 47 221C48.5 218.67 55 211.83 57 210C59 208.17 58.17 210.67 59 210C59.83 209.33 60.83 206.83 62 206C63.17 205.17 64.83 205.67 66 205C67.17 204.33 68 202.5 69 202C70 201.5 70.5 202.5 72 202C73.5 201.5 73.67 199.67 78 199C82.33 198.33 93.67 199.17 98 198C102.33 196.83 102.5 193.17 104 192C105.5 190.83 107 191 107 191C107 191 106.5 189.67 107 189C107.5 188.33 109.5 188 110 187C110.5 186 110 183 110 183L81 179L81 178L58 178L58 179L48 179L48 180L38 180L38 181L11 182L11 181C11 181 8.17 182 7 181C5.83 180 4.5 176.33 4 175C3.5 173.67 4 173 4 173L8 173L8 172L13 172L13 171L18 171L18 170L27 170L27 169L38 168L38 167L49 167L49 166L68 165L68 164C68 164 74.83 165.5 77 165C79.17 164.5 79.67 161.83 81 161C82.33 160.17 83.83 160.83 85 160C86.17 159.17 87.17 156.67 88 156C88.83 155.33 88.83 156.83 90 156C91.17 155.17 94 152.33 95 151C96 149.67 96 148 96 148L76 149L76 148C76 148 68.17 147.5 66 147C63.83 146.5 64.33 145.33 63 145C61.67 144.67 60.17 145.67 58 145C55.83 144.33 51.67 142.17 50 141C48.33 139.83 48.67 138.5 48 138C47.33 137.5 46 138 46 138L45 135L72 135L72 134C72 134 79.5 132.33 82 131C84.5 129.67 85.83 126.83 87 126C88.17 125.17 89 126 89 126L89 124C89 124 86.83 123.5 86 124C85.17 124.5 85.67 125.83 84 127C82.33 128.17 78.17 130.33 76 131C73.83 131.67 71 131 71 131L71 132C71 132 47.83 132.17 43 132C38.17 131.83 42 134.67 42 131C42 127.33 43 110 43 110L44 110C44 110 46.17 100.5 48 97C49.83 93.5 52.17 91.17 55 89C57.83 86.83 62.83 84.83 65 84C67.17 83.17 67.33 84.33 68 84C68.67 83.67 68.33 82.33 69 82C69.67 81.67 70.5 82.67 72 82C73.5 81.33 76.5 78.67 78 78C79.5 77.33 79.83 78.5 81 78C82.17 77.5 83.83 75.5 85 75C86.17 74.5 87 75.5 88 75C89 74.5 89.67 72.67 91 72C92.33 71.33 94.5 71.67 96 71C97.5 70.33 98.5 68.5 100 68C101.5 67.5 104 67.83 105 68C106 68.17 105.83 65 106 69C106.17 73 106 92 106 92C106 92 105.33 89.67 111 89C116.67 88.33 140 88 140 88L140 89L152 89L152 90C152 90 166.33 92 170 93C173.67 94 172.17 95.33 174 96C175.83 96.67 178.17 95.83 181 97C183.83 98.17 188.83 102 191 103C193.17 104 192.83 102.67 194 103C195.17 103.33 197.17 104.33 198 105C198.83 105.67 198.33 106.67 199 107C199.67 107.33 201.33 106.67 202 107C202.67 107.33 202.17 108.5 203 109C203.83 109.5 206 109.33 207 110C208 110.67 208 112.33 209 113C210 113.67 211 112.5 213 114C215 115.5 219.33 120.67 221 122C222.67 123.33 223 122 223 122L223 124C223 124 225.33 124.33 226 125C226.67 125.67 226.33 127.33 227 128C227.67 128.67 230 129 230 129C230 129 228.17 128.67 230 131C231.83 133.33 239.17 140.5 241 143C242.83 145.5 240.5 145.17 241 146C241.5 146.83 242.17 145 244 148C245.83 151 250.67 160.67 252 164C253.33 167.33 251.67 167 252 168C252.33 169 253.5 168.33 254 170C254.5 171.67 254.5 176 255 178C255.5 180 256.83 177.67 257 182C257.17 186.33 256 204 256 204C256 204 252.83 204.67 258 205C263.17 205.33 281.5 205.5 287 206C292.5 206.5 289.83 207.67 291 208C292.17 208.33 293.33 208.33 294 208C294.67 207.67 294.5 206.33 295 206C295.5 205.67 297 206 297 206C297 206 297 204.67 295 204C293 203.33 287.33 202.67 285 202C282.67 201.33 281.83 200.67 281 200C280.17 199.33 280.5 198.33 280 198C279.5 197.67 278 198 278 198C278 198 277.67 195.67 277 195C276.33 194.33 275 195.33 274 194C273 192.67 271.5 188.83 271 187C270.5 185.17 271 183 271 183L270 183L271 167C271 167 278.5 166.5 281 167C283.5 167.5 286 170 286 170C286 170 287.33 161.33 288 159C288.67 156.67 289.67 157.5 290 156C290.33 154.5 290 150 290 150L292 150C292 150 291 150.67 292 152C293 153.33 296.67 157 298 158C299.33 159 300 158 300 158C300 158 299.33 159.17 300 160C300.67 160.83 302.83 161.5 304 163C305.17 164.5 306.5 167.33 307 169C307.5 170.67 307 173 307 173L308 173C308 173 308.5 183.67 308 187C307.5 190.33 305.5 191.33 305 193C304.5 194.67 305.67 195.67 305 197C304.33 198.33 302.17 199 301 201C299.83 203 298 209 298 209L312 210L312 0C312 0 53 0 1 0ZM131 154C131 154 128.5 154.83 128 156C127.5 157.17 128 161 128 161L127 161L125 171L135 172C135 172 135.33 170.33 136 170C136.67 169.67 139 170 139 170L139 171C139 171 143.5 171.17 145 170C146.5 168.83 148 164 148 164C148 164 143.17 162.67 142 162C140.83 161.33 141.83 160.5 141 160C140.17 159.5 138 159.67 137 159C136 158.33 135.83 156.5 135 156C134.17 155.5 132.67 156.33 132 156C131.33 155.67 131 154 131 154ZM111 156C109.83 156.5 107.17 157.17 105 159C102.83 160.83 98 167 98 167C98 167 101.17 167.5 103 167C104.83 166.5 107.5 165.33 109 164C110.5 162.67 111.5 160.33 112 159C112.5 157.67 112 156 112 156C112 156 112.17 155.5 111 156ZM202 163C196.17 163 187.5 165.67 183 167C178.5 168.33 176.67 169.83 175 171C173.33 172.17 174.5 173 173 174C171.5 175 167.83 175.83 166 177C164.17 178.17 162 181 162 181L178 186C178 186 181.83 181 183 180C184.17 179 184.17 180.5 185 180C185.83 179.5 187 177.5 188 177C189 176.5 190 177.33 191 177C192 176.67 191.33 175.33 194 175C196.67 174.67 207 175 207 175L207 176C207 176 212.33 176.17 215 178C217.67 179.83 221.5 183.67 223 187C224.5 190.33 224 198 224 198L238 201C238 201 238.67 192.33 238 189C237.33 185.67 235 182.5 234 181C233 179.5 232.33 180.5 232 180C231.67 179.5 233.5 179.67 232 178C230.5 176.33 225.17 171.5 223 170C220.83 168.5 219.83 169.5 219 169C218.17 168.5 220.83 168 218 167C215.17 166 207.83 163 202 163ZM199 185C197.67 185.17 196.33 185.17 195 186C193.67 186.83 191 190 191 190L213 195L213 191L211 191L210 188C210 188 207.67 188.33 207 188C206.33 187.67 206.67 186.33 206 186C205.33 185.67 203 186 203 186L203 185C203 185 200.33 184.83 199 185ZM104 196C104 196 99.83 198.83 99 200C98.17 201.17 99.5 202 99 203C98.5 204 96.5 205 96 206C95.5 207 97 207 96 209C95 211 90 218 90 218C90 218 98.33 210.17 100 208C101.67 205.83 99.5 206.17 100 205C100.5 203.83 102.33 202.5 103 201C103.67 199.5 104 196 104 196ZM187 202C184 201.5 186 203 186 203L187 203C187 203 186.67 205.67 187 207C187.33 208.33 187.17 209 189 211C190.83 213 195.17 217.33 198 219C200.83 220.67 206 221 206 221L206 222C206 222 213.83 222.33 216 222C218.17 221.67 217.83 220.33 219 220C220.17 219.67 222 220.5 223 220C224 219.5 223.83 217.83 225 217C226.17 216.17 230 215 230 215L230 213C230 213 227.17 213.67 225 213C222.83 212.33 219.67 209.17 217 209C214.33 208.83 211.17 212.17 209 212C206.83 211.83 204.83 209 204 208C203.17 207 204 206 204 206C204 206 190 202.5 187 202Z" fill="#0c332c"/><path d="M1 0C-51 0 0 0 0 0L0 312L312 312C312 312 312.33 242.17 312 228C311.67 213.83 311.67 227.17 310 227C308.33 226.83 302 227 302 227L302 226C302 226 295.83 225.5 294 225C292.17 224.5 294.83 223.33 291 223C287.17 222.67 271 223 271 223L271 222L248 219C248 219 249.5 219.5 247 222C244.5 224.5 236.33 231.83 233 234C229.67 236.17 228.83 234.33 227 235C225.17 235.67 224.17 237.5 222 238C219.83 238.5 214 238 214 238L214 239C214 239 204.5 238.83 201 238C197.5 237.17 194.83 234.67 193 234C191.17 233.33 190.83 234.5 190 234C189.17 233.5 189 231.67 188 231C187 230.33 185.83 231.33 184 230C182.17 228.67 179.17 226.5 177 223C174.83 219.5 171.83 213.17 171 209C170.17 204.83 172 198 172 198L163 196L163 195C163 195 159.5 195.67 157 195C154.5 194.33 150.67 191.67 148 191C145.33 190.33 143.33 191.5 141 191C138.67 190.5 136.17 188.5 134 188C131.83 187.5 130.17 188.5 128 188C125.83 187.5 123 185.5 121 185C119 184.5 118 183.67 116 185C114 186.33 110.5 191.67 109 193C107.5 194.33 107 193 107 193L107 197L106 197C106 197 105.33 203.83 106 206C106.67 208.17 109.33 208.83 110 210C110.67 211.17 109.5 211.67 110 213C110.5 214.33 112.5 215.67 113 218C113.5 220.33 113 227 113 227L112 227C112 227 110.67 234.33 110 236C109.33 237.67 108.67 236 108 237C107.33 238 106.83 240.67 106 242C105.17 243.33 103.83 244.5 103 245C102.17 245.5 101.67 244.5 101 245C100.33 245.5 99 248 99 248L96 247L96 243C96 243 96.17 242.5 95 243C93.83 243.5 90.17 245.17 89 246C87.83 246.83 89.17 247.5 88 248C86.83 248.5 82 249 82 249L82 242L83 242C83 242 82.67 238.5 83 237C83.33 235.5 84.67 234.5 85 233C85.33 231.5 84.33 230.17 85 228C85.67 225.83 89 220 89 220C89 220 86.83 222.5 86 223C85.17 223.5 84.67 222.5 84 223C83.33 223.5 83.67 225.17 82 226C80.33 226.83 74 228 74 228L74 229L70 229L70 230C70 230 63.33 230 60 229C56.67 228 52.17 224.83 50 224C47.83 223.17 47.67 224.33 47 224C46.33 223.67 46 222 46 222C46 222 55.67 211.17 58 209C60.33 206.83 59.33 209.5 60 209C60.67 208.5 61.33 206.5 62 206C62.67 205.5 63.5 206.33 64 206C64.5 205.67 64.17 204.67 65 204C65.83 203.33 67.33 202.5 69 202C70.67 201.5 73.67 201.5 75 201C76.33 200.5 73.17 199.5 77 199C80.83 198.5 94.17 198.67 98 198C101.83 197.33 98.67 196 100 195C101.33 194 105 192.83 106 192C107 191.17 105.33 190.83 106 190C106.67 189.17 109.33 188.17 110 187C110.67 185.83 110 183 110 183C110 183 106.5 183.33 105 183C103.5 182.67 103.17 181.33 101 181C98.83 180.67 92 181 92 181L92 180L81 179L81 178L58 178L58 179L48 179L48 180L39 180L39 181L11 182L11 181L7 181C7 181 6.5 177.83 6 177C5.5 176.17 4.33 176.67 4 176C3.67 175.33 4 173 4 173L18 171L18 170L27 170L27 169L38 168L38 167L49 167L49 166L68 165L68 164L77 165C77 165 77.5 163.33 78 163C78.5 162.67 79.33 163.5 80 163C80.67 162.5 81.17 160.5 82 160C82.83 159.5 83.67 161 85 160C86.33 159 88.5 155.33 90 154C91.5 152.67 93 153 94 152C95 151 96 148 96 148L75 149L75 148C75 148 72 148.5 70 148C68 147.5 65 145.5 63 145C61 144.5 60.17 145.67 58 145C55.83 144.33 51.5 142 50 141C48.5 140 49.5 139.33 49 139C48.5 138.67 47.67 139.67 47 139C46.33 138.33 45 135 45 135C45 135 68.33 135 75 134C81.67 133 82.67 130.67 85 129C87.33 127.33 89 124 89 124C89 124 86 124.33 85 125C84 125.67 84.17 127.33 83 128C81.83 128.67 79 128.5 78 129C77 129.5 82.83 130.5 77 131C71.17 131.5 48.83 132 43 132C37.17 132 42 134.83 42 131C42 127.17 42 114.67 43 109C44 103.33 46 100.33 48 97C50 93.67 51.5 91.5 55 89C58.5 86.5 66.17 83.17 69 82C71.83 80.83 70.5 82.67 72 82C73.5 81.33 76.5 78.67 78 78C79.5 77.33 79.83 78.5 81 78C82.17 77.5 83.83 75.5 85 75C86.17 74.5 87.33 75.33 88 75C88.67 74.67 87.67 73.67 89 73C90.33 72.33 94.17 71.83 96 71C97.83 70.17 98.33 68.5 100 68C101.67 67.5 106 68 106 68L106 92C106 92 108.67 89.5 111 89C113.33 88.5 120 89 120 89L120 88L152 89L152 90C152 90 155.5 89.67 157 90C158.5 90.33 159.5 91.67 161 92C162.5 92.33 163.67 91.33 166 92C168.33 92.67 172.83 95.33 175 96C177.17 96.67 177.67 95.5 179 96C180.33 96.5 181.17 98.17 183 99C184.83 99.83 188.67 100.33 190 101C191.33 101.67 189.67 102.33 191 103C192.33 103.67 196.67 104.33 198 105C199.33 105.67 198.33 106.67 199 107C199.67 107.33 201.33 106.67 202 107C202.67 107.33 201.83 108.33 203 109C204.17 109.67 209 111 209 111C209 111 207.67 112 209 113C210.33 114 215.17 115.67 217 117C218.83 118.33 219.17 120.33 220 121C220.83 121.67 222 121 222 121L223 124C223 124 224.33 123.33 225 124C225.67 124.67 226.17 127.17 227 128C227.83 128.83 230 129 230 129C230 129 229.17 130 230 131C230.83 132 234.17 134 235 135C235.83 136 234 135.67 235 137C236 138.33 240 141.5 241 143C242 144.5 240.5 145.17 241 146C241.5 146.83 242.17 145 244 148C245.83 151 250.5 160.33 252 164C253.5 167.67 252.5 168.67 253 170C253.5 171.33 254.67 170.67 255 172C255.33 173.33 254.67 176.5 255 178C255.33 179.5 256.83 176.67 257 181C257.17 185.33 256 204 256 204C256 204 252.83 204.67 258 205C263.17 205.33 287 206 287 206L287 207L292 207L292 208L297 206C297 206 297.17 204.67 295 204C292.83 203.33 286 202.67 284 202C282 201.33 284 200.67 283 200C282 199.33 279 198.83 278 198C277 197.17 277.67 195.67 277 195C276.33 194.33 275 195.33 274 194C273 192.67 271.5 188.83 271 187C270.5 185.17 271 183 271 183L270 183L271 167C271 167 278.5 166.5 281 167C283.5 167.5 286 170 286 170C286 170 286.33 164.33 287 162C287.67 159.67 289.5 158 290 156C290.5 154 290 150 290 150L292 150C292 150 291.33 151 292 152C292.67 153 295 155.33 296 156C297 156.67 297 155.33 298 156C299 156.67 301.33 159 302 160C302.67 161 301.5 161.33 302 162C302.5 162.67 304.5 163.17 305 164C305.5 164.83 304.5 165.67 305 167C305.5 168.33 307.67 168 308 172C308.33 176 308.67 184.83 307 191C305.33 197.17 298 209 298 209L312 210L312 0C312 0 53 0 1 0ZM131 154C131 154 128.5 154.83 128 156C127.5 157.17 128 161 128 161L127 161L125 170L131 171L131 172C131 172 134.17 172.33 135 172C135.83 171.67 135.17 170.33 136 170C136.83 169.67 140 170 140 170L140 171C140 171 143.67 171.17 145 170C146.33 168.83 148 164 148 164C148 164 137.83 159.67 135 158C132.17 156.33 131 154 131 154ZM111 156C109.83 156.5 107 157.5 105 159C103 160.5 100 163.67 99 165C98 166.33 99 167 99 167C99 167 102.17 167.33 103 167C103.83 166.67 103 165.5 104 165C105 164.5 107.67 165 109 164C110.33 163 111.5 160.33 112 159C112.5 157.67 112 156 112 156C112 156 112.17 155.5 111 156ZM202 163C196.33 163 186.67 165.83 183 167C179.33 168.17 181 169.5 180 170C179 170.5 177.67 169.67 177 170C176.33 170.33 177 171.33 176 172C175 172.67 172 173.33 171 174C170 174.67 170.83 175.5 170 176C169.17 176.5 167.33 176.17 166 177C164.67 177.83 162 181 162 181C162 181 174.83 185.67 178 186C181.17 186.33 180.5 183.83 181 183C181.5 182.17 179 182.33 181 181C183 179.67 188.67 176 193 175C197.33 174 207 175 207 175L207 176C207 176 212.83 176.83 215 178C217.17 179.17 219.17 181.83 220 183C220.83 184.17 220 185 220 185L222 185L223 191L224 191L224 198C224 198 231.67 198.5 234 199C236.33 199.5 238 201 238 201C238 201 238.67 192.33 238 189C237.33 185.67 235.17 182.67 234 181C232.83 179.33 231.5 179.67 231 179C230.5 178.33 231.67 178 231 177C230.33 176 228 173.67 227 173C226 172.33 225.67 173.5 225 173C224.33 172.5 224.33 171 223 170C221.67 169 220.5 168.17 217 167C213.5 165.83 207.67 163 202 163ZM199 185C197.67 185.17 196.33 185.17 195 186C193.67 186.83 191 190 191 190L213 195C213 195 213.67 193.17 213 192C212.33 190.83 210.67 189.17 209 188C207.33 186.83 204.67 185.5 203 185C201.33 184.5 200.33 184.83 199 185ZM104 196C104 196 99.83 198.83 99 200C98.17 201.17 99.5 202 99 203C98.5 204 96.5 205 96 206C95.5 207 96.33 207.83 96 209C95.67 210.17 94.67 212.17 94 213C93.33 213.83 92.33 213.5 92 214C91.67 214.5 92.5 215.33 92 216C91.5 216.67 89.5 217.33 89 218C88.5 218.67 89 220 89 220C89 220 92.33 217 93 216C93.67 215 93 214 93 214L96 213C96 213 95.5 211.67 96 211C96.5 210.33 97.67 211.5 99 209C100.33 206.5 104 196 104 196ZM187 202C184.83 201.67 186 203 186 203C186 203 188 209.33 190 212C192 214.67 195.33 217.5 198 219C200.67 220.5 206 221 206 221L206 222L216 222L216 221C216 221 221.67 220.17 224 219C226.33 217.83 229 215 230 214C231 213 230 213 230 213C230 213 226.83 213.5 225 213C223.17 212.5 220.83 210.5 219 210C217.17 209.5 214 210 214 210L214 211L209 212L209 211L206 211L206 209L204 209L204 206L199 206L199 205C199 205 189.17 202.33 187 202Z" fill="#0c322c"/></g></svg>