<?xml version="1.0" standalone="no"?>
<svg xmlns="http://www.w3.org/2000/svg" viewBox="0 0 1080 1080" width="1080px" height="1080px" style="width:100%;height:auto;display:block;"><rect width="100%" height="100%" fill="#4eb37b"/><g transform="translate(0 0) scale(3.46)" fill-rule="evenodd"><path d="M1 0L0 312L312 312C312 312 317 237.17 312 221C307 204.83 292 216.33 282 215C272 213.67 252 213 252 213L254 205L312 211L312 0L1 0ZM102 69C110.17 65.67 104.5 65.83 105 70C105.5 74.17 105 94 105 94C105 94 114 89.83 120 89C126 88.17 131.5 87.67 141 89C150.5 90.33 165.67 93 177 97C188.33 101 201.17 108.33 209 113C216.83 117.67 219.67 120.83 224 125C228.33 129.17 232.67 134.67 235 138C237.33 141.33 238.17 142.33 238 145C237.83 147.67 234 154 234 154L217 139L217 160C217 160 211.33 157 206 157C200.67 157 192.67 156.17 185 160C177.33 163.83 164.17 176.33 160 180C155.83 183.67 157.5 180.83 160 182C162.5 183.17 171.83 186.17 175 187C178.17 187.83 176.33 188.67 179 187C181.67 185.33 186 178.67 191 177C196 175.33 205.33 176.33 209 177C212.67 177.67 211.83 180.33 213 181C214.17 181.67 216 181 216 181L217 190C217 190 215.83 186.5 214 185C212.17 183.5 209.83 181.33 206 181C202.17 180.67 194.17 181.17 191 183C187.83 184.83 187 192 187 192C187 192 185.5 189.33 190 190C194.5 190.67 210 194.5 214 196C218 197.5 215 197.83 214 199C213 200.17 209.83 202.33 208 203C206.17 203.67 206.67 203.83 203 203C199.33 202.17 186 198 186 198C186 198 183.5 202.5 185 206C186.5 209.5 192 216.17 195 219C198 221.83 199.17 222.33 203 223C206.83 223.67 218 223 218 223L218 231C218 231 208.67 233 204 232C199.33 231 193.83 227.67 190 225C186.17 222.33 183.33 219 181 216C178.67 213 177 210.83 176 207C175 203.17 175 193 175 193C175 193 174.33 194.67 171 194C167.67 193.33 157.67 190.5 155 189C152.33 187.5 155 185 155 185L144 188L146 179L121 179C121 179 120.5 173 123 172C125.5 171 132 173.33 136 173C140 172.67 144.67 172.83 147 170C149.33 167.17 151.67 159.5 150 156C148.33 152.5 139.83 150.17 137 149C134.17 147.83 134.5 148.33 133 149C131.5 149.67 129.33 151 128 153C126.67 155 127.5 159.67 125 161C122.5 162.33 113 161 113 161C113 161 110.17 147.83 110 143C109.83 138.17 112 136 112 132C112 128 110 119 110 119C110 119 114 121.67 108 122C102 122.33 80.67 120.5 74 121C67.33 121.5 70.83 124.5 68 125C65.17 125.5 59.33 124.67 57 124C54.67 123.33 56.17 121.5 54 121C51.83 120.5 44 121 44 121C44 121 44 109.17 46 104C48 98.83 46.67 95.83 56 90C65.33 84.17 93.83 72.33 102 69ZM73 135C75.33 134.5 76 135 76 135C76 135 75.33 137.5 73 138C70.67 138.5 62 138 62 138C62 138 70.67 135.5 73 135ZM57 166C67.5 164.5 69 166 69 166C69 166 72.5 168.17 63 170C53.5 171.83 12 177 12 177L14 180C14 180 10.33 180.83 9 180C7.67 179.17 6 175 6 175C6 175 46.5 167.5 57 166ZM96 168C99 167.83 109.17 168.33 112 169C114.83 169.67 113 172 113 172C113 172 108.67 174.83 104 175C99.33 175.17 85 173 85 173L85 169C85 169 92.17 170.17 94 170C95.83 169.83 93 168.17 96 168ZM273 171L274 189C274 189 272.17 188 272 185C271.83 182 273 171 273 171ZM91 199L97 200L90 203L91 199ZM217 199C217 199 217.83 206.17 217 208C216.17 209.83 213.83 209.83 212 210C210.17 210.17 207.17 209.83 206 209C204.83 208.17 205 205 205 205C205 205 205.83 206.83 207 207C208.17 207.17 210.5 206.67 212 206C213.5 205.33 215.17 204.17 216 203C216.83 201.83 217 199 217 199ZM223 199L226 202L222 202L223 199Z" fill="#2d8557"/><path d="M1 0L0 312L312 312L311 227C311 227 259.83 218.67 248 219C236.17 219.33 243.83 226 240 229C236.17 232 229.5 235.33 225 237C220.5 238.67 217.5 239 213 239C208.5 239 202.5 238.33 198 237C193.5 235.67 189.67 233.67 186 231C182.33 228.33 178.33 224.17 176 221C173.67 217.83 172.67 215.83 172 212C171.33 208.17 181.33 202.67 172 198C162.67 193.33 127 184.33 116 184C105 183.67 107.67 192.17 106 196C104.33 199.83 105.5 204.83 106 207C106.5 209.17 107.83 206.83 109 209C110.17 211.17 113 215.33 113 220C113 224.67 111.33 232.33 109 237C106.67 241.67 99 248 99 248C99 248 96.83 242.83 94 243C91.17 243.17 82 249 82 249C82 249 84.33 231.5 86 226C87.67 220.5 92 216 92 216C92 216 86 222.83 83 225C80 227.17 77.67 228.33 74 229C70.33 229.67 65.33 229.83 61 229C56.67 228.17 50.33 225.33 48 224C45.67 222.67 44.83 223.83 47 221C49.17 218.17 56.83 210.33 61 207C65.17 203.67 65.5 202.67 72 201C78.5 199.33 93.67 199.17 100 197C106.33 194.83 108.33 190.33 110 188C111.67 185.67 110 183 110 183C110 183 97.33 178.17 81 178C64.67 177.83 24.33 181.5 12 182C-0.33 182.5 8.33 182.17 7 181C5.67 179.83 4 175 4 175C4 175 3.17 173.33 9 172C14.83 170.67 27.5 168.17 39 167C50.5 165.83 68.5 167.83 78 165C87.5 162.17 93 152.83 96 150C99 147.17 96 148 96 148C96 148 76.67 148.67 70 148C63.33 147.33 60 145.67 56 144C52 142.33 47.83 139.5 46 138C44.17 136.5 45 135 45 135C45 135 66.5 135.83 73 135C79.5 134.17 81.33 131.83 84 130C86.67 128.17 89 124 89 124C89 124 78.67 130.67 71 132C63.33 133.33 43 132 43 132C43 132 42.17 115.83 43 110C43.83 104.17 46.17 100.33 48 97C49.83 93.67 45.33 94.83 54 90C62.67 85.17 91.5 71.67 100 68C108.5 64.33 105 68 105 68L106 92C106 92 112.5 88.33 121 88C129.5 87.67 144.83 87.5 157 90C169.17 92.5 183.83 98.33 194 103C204.17 107.67 210.83 112.17 218 118C225.17 123.83 231.5 130.67 237 138C242.5 145.33 247.67 154.67 251 162C254.33 169.33 256 175.67 257 182C258 188.33 257.33 196.33 257 200C256.67 203.67 255 204 255 204C255 204 284 207.67 291 208C298 208.33 297 206 297 206C297 206 281 199.33 277 197C273 194.67 274.17 194.5 273 192C271.83 189.5 270.33 186 270 182C269.67 178 269.67 170.5 271 168C272.33 165.5 275.5 166.67 278 167C280.5 167.33 286 170 286 170C286 170 289 154.17 290 151C291 147.83 289.67 149 292 151C294.33 153 301.33 159.33 304 163C306.67 166.67 307.33 169 308 173C308.67 177 309.67 181 308 187C306.33 193 298 209 298 209L312 210L312 0L1 0ZM131 154C127.67 152.67 129.17 153.17 128 156C126.83 158.83 124 171 124 171C124 171 131.5 172.17 135 172C138.5 171.83 142.83 171.33 145 170C147.17 168.67 148 164 148 164C148 164 134.33 155.33 131 154ZM111 156C111 156 108.17 156.17 106 158C103.83 159.83 98 167 98 167C98 167 101.17 168.5 103 168C104.83 167.5 107.5 165.5 109 164C110.5 162.5 111.67 160.33 112 159C112.33 157.67 111 156 111 156ZM201 163C195.83 163 190.17 164.17 185 166C179.83 167.83 173.83 171.5 170 174C166.17 176.5 162 181 162 181C162 181 174.67 186 178 186C181.33 186 179.83 182.67 182 181C184.17 179.33 186.83 177 191 176C195.17 175 202.17 173.83 207 175C211.83 176.17 217.17 180.33 220 183C222.83 185.67 223.33 188.5 224 191C224.67 193.5 221.67 196.33 224 198C226.33 199.67 238 201 238 201C238 201 238.83 192.67 238 189C237.17 185.33 235.33 182.17 233 179C230.67 175.83 226.83 172.17 224 170C221.17 167.83 219.83 167.17 216 166C212.17 164.83 206.17 163 201 163ZM199 185C195.83 185 192.33 187.17 191 188C189.67 188.83 187.33 188.83 191 190C194.67 191.17 213 195 213 195C213 195 213.5 192.17 213 191C212.5 189.83 212.33 189 210 188C207.67 187 202.17 185 199 185ZM104 196C104 196 101 196.67 99 200C97 203.33 92 216 92 216C92 216 98 211.33 100 208C102 204.67 104 196 104 196ZM187 202C187 202 186.33 205 187 207C187.67 209 188.5 211.67 191 214C193.5 216.33 197.83 219.67 202 221C206.17 222.33 212.5 222.17 216 222C219.5 221.83 220.5 221.33 223 220C225.5 218.67 231 214 231 214C231 214 221 209.5 217 209C213 208.5 209.17 211.5 207 211C204.83 210.5 207.33 207.5 204 206C200.67 204.5 187 202 187 202Z" fill="#0d372e"/><path d="M1 0L0 312L312 312L311 227C311 227 260 218.5 248 219C236 219.5 242.83 227 239 230C235.17 233 231.17 235.67 225 237C218.83 238.33 208 238.67 202 238C196 237.33 192.83 235.17 189 233C185.17 230.83 181.83 228.5 179 225C176.17 221.5 173.17 216.5 172 212C170.83 207.5 181.33 202.5 172 198C162.67 193.5 127 185.33 116 185C105 184.67 107.67 192.33 106 196C104.33 199.67 105.5 204.83 106 207C106.5 209.17 107.83 207 109 209C110.17 211 112.33 216.17 113 219C113.67 221.83 113.83 222.67 113 226C112.17 229.33 110.33 235.33 108 239C105.67 242.67 100.83 246.5 99 248C97.17 249.5 97.67 248.83 97 248C96.33 247.17 95 243 95 243L82 249C82 249 84.5 231.33 86 226C87.5 220.67 91 217 91 217C91 217 85.83 223 83 225C80.17 227 77.67 228.33 74 229C70.33 229.67 65.33 229.83 61 229C56.67 228.17 50.33 225.33 48 224C45.67 222.67 44.83 223.83 47 221C49.17 218.17 56.83 210.33 61 207C65.17 203.67 65.5 202.67 72 201C78.5 199.33 93.67 199.33 100 197C106.33 194.67 108.33 189.33 110 187C111.67 184.67 110 183 110 183C110 183 97.33 178.17 81 178C64.67 177.83 24.33 181.5 12 182C-0.33 182.5 8.33 182.17 7 181C5.67 179.83 4 175 4 175C4 175 7.17 172.33 13 171C18.83 169.67 28.33 168 39 167C49.67 166 67.5 167.83 77 165C86.5 162.17 92.83 152.83 96 150C99.17 147.17 96 148 96 148C96 148 76.67 148.67 70 148C63.33 147.33 60 145.67 56 144C52 142.33 47.83 139.5 46 138C44.17 136.5 45 135 45 135C45 135 66 135.5 72 135C78 134.5 78.17 133.83 81 132C83.83 130.17 89 124 89 124C89 124 78.67 130.67 71 132C63.33 133.33 43 132 43 132C43 132 42.17 115.83 43 110C43.83 104.17 46.17 100.33 48 97C49.83 93.67 45.33 94.83 54 90C62.67 85.17 91.5 71.67 100 68C108.5 64.33 105 68 105 68L106 92C106 92 105.33 89.67 111 89C116.67 88.33 130.33 87.33 140 88C149.67 88.67 158.67 89.83 169 93C179.33 96.17 192.5 101.67 202 107C211.5 112.33 219.67 119.17 226 125C232.33 130.83 235.83 135.83 240 142C244.17 148.17 248.17 155.33 251 162C253.83 168.67 256.17 175 257 182C257.83 189 255.83 200.17 256 204C256.17 207.83 253 204.67 258 205C263 205.33 280.5 205.5 286 206C291.5 206.5 289.17 208 291 208C292.83 208 297 206 297 206C297 206 281 199.33 277 197C273 194.67 274.17 194.5 273 192C271.83 189.5 270.33 186.17 270 182C269.67 177.83 271 167 271 167C271 167 277.5 166.5 280 167C282.5 167.5 286 170 286 170C286 170 289 154.17 290 151C291 147.83 289.67 149 292 151C294.33 153 301.33 159.33 304 163C306.67 166.67 307.33 169 308 173C308.67 177 309.67 181 308 187C306.33 193 298 209 298 209L312 210L312 0L1 0ZM131 154C127.67 152.67 129.17 153.17 128 156C126.83 158.83 124 171 124 171C124 171 132.83 172.17 135 172C137.17 171.83 135.33 170.33 137 170C138.67 169.67 143.17 171 145 170C146.83 169 148 164 148 164C148 164 134.33 155.33 131 154ZM111 156C111 156 108.17 156.17 106 158C103.83 159.83 98 167 98 167L103 168C103 168 102 166.67 103 166C104 165.33 107.5 165.17 109 164C110.5 162.83 111.67 160.33 112 159C112.33 157.67 111 156 111 156ZM201 163C195.83 163 190.17 164.17 185 166C179.83 167.83 173.83 171.5 170 174C166.17 176.5 162 181 162 181C162 181 174.67 186 178 186C181.33 186 179.83 182.67 182 181C184.17 179.33 186.83 177 191 176C195.17 175 202.17 173.83 207 175C211.83 176.17 217.17 180.33 220 183C222.83 185.67 223.33 188.5 224 191C224.67 193.5 221.67 196.33 224 198C226.33 199.67 238 201 238 201C238 201 238.83 192.67 238 189C237.17 185.33 235.33 182.17 233 179C230.67 175.83 226.83 172.17 224 170C221.17 167.83 219.83 167.17 216 166C212.17 164.83 206.17 163 201 163ZM199 185C195.83 185 192.33 187.17 191 188C189.67 188.83 187.33 188.83 191 190C194.67 191.17 213 195 213 195C213 195 213.5 192.17 213 191C212.5 189.83 212.33 189 210 188C207.67 187 202.17 185 199 185ZM104 196C104 196 101.17 196.5 99 200C96.83 203.5 91 217 91 217C91 217 97.83 211.5 100 208C102.17 204.5 104 196 104 196ZM187 202C187 202 186.33 205 187 207C187.67 209 189 211.83 191 214C193 216.17 196.5 218.67 199 220C201.5 221.33 202 222 206 222C210 222 218.83 221.33 223 220C227.17 218.67 231 214 231 214C231 214 221 209.5 217 209C213 208.5 209.17 211.5 207 211C204.83 210.5 207.33 207.5 204 206C200.67 204.5 187 202 187 202Z" fill="#0d352d"/><path d="M1 0L0 312L312 312L311 227C311 227 260 218.5 248 219C236 219.5 242.83 227 239 230C235.17 233 229.17 235.5 225 237C220.83 238.5 217.83 238.83 214 239C210.17 239.17 206.17 239 202 238C197.83 237 193 235.33 189 233C185 230.67 180.83 227.5 178 224C175.17 220.5 173 216.33 172 212C171 207.67 181.33 202.5 172 198C162.67 193.5 127 185.33 116 185C105 184.67 107.67 192.5 106 196C104.33 199.5 104.83 202.17 106 206C107.17 209.83 111.83 215.5 113 219C114.17 222.5 113.83 223.67 113 227C112.17 230.33 110.33 235.5 108 239C105.67 242.5 100.83 246.5 99 248C97.17 249.5 97.67 248.83 97 248C96.33 247.17 95 243 95 243L82 249C82 249 82.5 238.33 84 233C85.5 227.67 91 217 91 217C91 217 85.83 223 83 225C80.17 227 77.67 228.33 74 229C70.33 229.67 65.33 229.83 61 229C56.67 228.17 50.33 225.33 48 224C45.67 222.67 43.83 224.5 47 221C50.17 217.5 61.83 206.67 67 203C72.17 199.33 72.5 200 78 199C83.5 198 94.67 199 100 197C105.33 195 108.33 189.33 110 187C111.67 184.67 110 183 110 183C110 183 97.5 178.17 81 178C64.5 177.83 23.33 181.5 11 182C-1.33 182.5 8.17 182.17 7 181C5.83 179.83 4.5 176.33 4 175C3.5 173.67 3.33 173.5 4 173C4.67 172.5 2.33 173 8 172C13.67 171 26.5 168.17 38 167C49.5 165.83 67.33 167.83 77 165C86.67 162.17 92.83 152.83 96 150C99.17 147.17 96 148 96 148C96 148 76.67 148.67 70 148C63.33 147.33 60 145.67 56 144C52 142.33 47.83 139.5 46 138C44.17 136.5 45 135 45 135C45 135 65.83 135.67 72 135C78.17 134.33 79.17 132.83 82 131C84.83 129.17 89 124 89 124C89 124 78.67 130.67 71 132C63.33 133.33 43 132 43 132C43 132 42.17 115.83 43 110C43.83 104.17 46.17 100.33 48 97C49.83 93.67 45.33 94.83 54 90C62.67 85.17 91.5 71.67 100 68C108.5 64.33 105 68 105 68L106 92C106 92 108.5 89.67 111 89C113.5 88.33 114.17 88 121 88C127.83 88 144.5 88.33 152 89C159.5 89.67 157.67 89 166 92C174.33 95 192 101.5 202 107C212 112.5 219.67 119.17 226 125C232.33 130.83 235.67 135.5 240 142C244.33 148.5 249.17 157.33 252 164C254.83 170.67 256.33 175.33 257 182C257.67 188.67 255.83 200.17 256 204C256.17 207.83 253 204.67 258 205C263 205.33 280.5 205.5 286 206C291.5 206.5 289.17 208 291 208C292.83 208 297 206 297 206C297 206 282 200.33 278 198C274 195.67 274.33 194.5 273 192C271.67 189.5 270.33 187.17 270 183C269.67 178.83 271 167 271 167C271 167 277.5 166.5 280 167C282.5 167.5 286 170 286 170C286 170 289 154.17 290 151C291 147.83 289.67 149 292 151C294.33 153 301.33 159.33 304 163C306.67 166.67 307.33 169 308 173C308.67 177 309.67 181 308 187C306.33 193 298 209 298 209L312 210L312 0L1 0ZM131 154C127.67 152.67 129.17 153.17 128 156C126.83 158.83 124 171 124 171C124 171 133 172.17 135 172C137 171.83 134.33 170.33 136 170C137.67 169.67 143 171 145 170C147 169 148 164 148 164C148 164 134.33 155.33 131 154ZM111 156C111 156 108.17 156.17 106 158C103.83 159.83 98 167 98 167L103 168C103 168 102 166.67 103 166C104 165.33 107.5 165.17 109 164C110.5 162.83 111.67 160.33 112 159C112.33 157.67 111 156 111 156ZM201 163C195.83 163 190.17 164.17 185 166C179.83 167.83 173.83 171.5 170 174C166.17 176.5 162 181 162 181C162 181 173.67 186.67 178 186C182.33 185.33 183.17 178.83 188 177C192.83 175.17 202.33 174.67 207 175C211.67 175.33 213.33 177 216 179C218.67 181 221.67 183.83 223 187C224.33 190.17 221.5 195.67 224 198C226.5 200.33 238 201 238 201C238 201 239 192.83 238 189C237 185.17 235.67 181.83 232 178C228.33 174.17 221.17 168.5 216 166C210.83 163.5 206.17 163 201 163ZM199 185C196.17 184.83 194.33 186.17 193 187C191.67 187.83 191 190 191 190L213 195C213 195 213.5 192.17 213 191C212.5 189.83 212.33 189 210 188C207.67 187 201.83 185.17 199 185ZM104 196C104 196 101.17 196.5 99 200C96.83 203.5 91 217 91 217C91 217 97.83 211.5 100 208C102.17 204.5 104 196 104 196ZM187 202C187 202 186 207 188 210C190 213 194.33 218 199 220C203.67 222 210.83 222.83 216 222C221.17 221.17 227.67 216.5 230 215C232.33 213.5 232.17 214 230 213C227.83 212 220.83 209.33 217 209C213.17 208.67 209.17 211.5 207 211C204.83 210.5 207.33 207.5 204 206C200.67 204.5 187 202 187 202Z" fill="#0c342d"/><path d="M1 0L0 312L312 312L311 227C311 227 261 217.83 248 219C235 220.17 237.33 230.83 233 234C228.67 237.17 227.33 237.33 222 238C216.67 238.67 207.5 239.5 201 238C194.5 236.5 187.33 232 183 229C178.67 226 177 223.5 175 220C173 216.5 171.5 211.67 171 208C170.5 204.33 172 198 172 198C172 198 126.83 185.83 116 185C105.17 184.17 108.67 191 107 193C105.33 195 106.17 194.83 106 197C105.83 199.17 104.83 202.33 106 206C107.17 209.67 111.83 215.5 113 219C114.17 222.5 113.83 223.67 113 227C112.17 230.33 110.33 235.5 108 239C105.67 242.5 101 246.67 99 248C97 249.33 96.67 247.83 96 247C95.33 246.17 95 243 95 243L82 249C82 249 83.67 234.17 85 229C86.33 223.83 90 218 90 218C90 218 88.67 221.17 86 223C83.33 224.83 78.33 228 74 229C69.67 230 64.33 229.83 60 229C55.67 228.17 50.17 225.33 48 224C45.83 222.67 45.5 223.33 47 221C48.5 218.67 53.33 213.17 57 210C60.67 206.83 65.5 203.83 69 202C72.5 200.17 73.17 199.67 78 199C82.83 198.33 93.17 199.33 98 198C102.83 196.67 105 193.5 107 191C109 188.5 110 183 110 183C110 183 97.5 178.17 81 178C64.5 177.83 23.33 181.5 11 182C-1.33 182.5 8.17 182.17 7 181C5.83 179.83 4.5 176.33 4 175C3.5 173.67 3.33 173.5 4 173C4.67 172.5 2.33 173 8 172C13.67 171 26.5 168.17 38 167C49.5 165.83 67.5 167.67 77 165C86.5 162.33 91.83 153.83 95 151C98.17 148.17 96 148 96 148C96 148 82.33 149.5 76 149C69.67 148.5 63 146.83 58 145C53 143.17 48.17 139.67 46 138C43.83 136.33 45 135 45 135C45 135 65.83 135.67 72 135C78.17 134.33 79.17 132.83 82 131C84.83 129.17 89 124 89 124C89 124 78.67 130.67 71 132C63.33 133.33 43 132 43 132C43 132 42.17 115.83 43 110C43.83 104.17 46 100.5 48 97C50 93.5 46.33 93.83 55 89C63.67 84.17 91.67 71.5 100 68C108.33 64.5 105 68 105 68L106 92C106 92 105.33 89.67 111 89C116.67 88.33 130.17 87.33 140 88C149.83 88.67 159.67 89.83 170 93C180.33 96.17 193.17 102.17 202 107C210.83 111.83 216.5 116 223 122C229.5 128 236.17 136 241 143C245.83 150 249.33 157.5 252 164C254.67 170.5 256.33 175.33 257 182C257.67 188.67 255.83 200.17 256 204C256.17 207.83 252.83 204.67 258 205C263.17 205.33 281.5 205.5 287 206C292.5 206.5 289.33 208 291 208C292.67 208 297 206 297 206C297 206 281.83 200 278 198C274.17 196 275.33 196.5 274 194C272.67 191.5 270.5 187.5 270 183C269.5 178.5 271 167 271 167C271 167 278.5 166.5 281 167C283.5 167.5 286 170 286 170C286 170 289 153.33 290 150C291 146.67 289.67 147.83 292 150C294.33 152.17 301.33 159.17 304 163C306.67 166.83 307.33 169 308 173C308.67 177 309.67 181 308 187C306.33 193 298 209 298 209L312 210L312 0L1 0ZM131 154C127.67 152.67 129 153.17 128 156C127 158.83 125 171 125 171C125 171 133.17 172.17 135 172C136.83 171.83 134.33 170.33 136 170C137.67 169.67 143 171 145 170C147 169 148 164 148 164C148 164 134.33 155.33 131 154ZM111 156C111 156 107.17 157.17 105 159C102.83 160.83 98 167 98 167C98 167 106.67 165.33 109 164C111.33 162.67 111.67 160.33 112 159C112.33 157.67 111 156 111 156ZM202 163C196.17 163 189.67 164 183 167C176.33 170 162 181 162 181C162 181 173.67 186.67 178 186C182.33 185.33 183.17 178.83 188 177C192.83 175.17 202.5 174.83 207 175C211.5 175.17 212.33 176 215 178C217.67 180 221.5 183.67 223 187C224.5 190.33 221.5 195.67 224 198C226.5 200.33 238 201 238 201C238 201 239 192.83 238 189C237 185.17 235.33 181.67 232 178C228.67 174.33 223 169.5 218 167C213 164.5 207.83 163 202 163ZM199 185C195.83 185.33 191 190 191 190L213 195C213 195 213.5 192.17 213 191C212.5 189.83 212.33 189 210 188C207.67 187 202.17 184.67 199 185ZM104 196C104 196 101.33 196.33 99 200C96.67 203.67 90 218 90 218C90 218 97.67 211.67 100 208C102.33 204.33 104 196 104 196ZM187 202C187 202 187.17 208.17 189 211C190.83 213.83 195.17 217.17 198 219C200.83 220.83 201.83 221.83 206 222C210.17 222.17 219 221.17 223 220C227 218.83 228.83 216.17 230 215C231.17 213.83 232.17 214 230 213C227.83 212 220.5 209.17 217 209C213.5 208.83 211.17 212.5 209 212C206.83 211.5 207.67 207.67 204 206C200.33 204.33 187 202 187 202Z" fill="#0c332c"/><path d="M1 0L0 312L312 312C312 312 312.33 242.17 312 228C311.67 213.83 311.67 227.17 310 227C308.33 226.83 305.17 227.67 302 227C298.83 226.33 296.17 223.67 291 223C285.83 222.33 278.17 223.67 271 223C263.83 222.33 254.33 217.17 248 219C241.67 220.83 237.33 230.83 233 234C228.67 237.17 227.33 237.33 222 238C216.67 238.67 206.33 238.67 201 238C195.67 237.33 194 236.5 190 234C186 231.5 180.17 227.17 177 223C173.83 218.83 171.83 213.17 171 209C170.17 204.83 172 198 172 198C172 198 126.83 185.83 116 185C105.17 184.17 108.67 191 107 193C105.33 195 106.17 194.83 106 197C105.83 199.17 104.83 202.5 106 206C107.17 209.5 112.33 213 113 218C113.67 223 112.33 231 110 236C107.67 241 101.33 246.17 99 248C96.67 249.83 96.67 247.83 96 247C95.33 246.17 95 243 95 243C95 243 90.17 247 88 248C85.83 249 82 249 82 249C82 249 83.83 232.83 85 228C86.17 223.17 89 220 89 220C89 220 85.17 224.33 82 226C78.83 227.67 73.67 229.5 70 230C66.33 230.5 64 230.33 60 229C56 227.67 46 222 46 222C46 222 54.17 212.33 58 209C61.83 205.67 65.83 203.67 69 202C72.17 200.33 72.17 199.67 77 199C81.83 198.33 93 199.33 98 198C103 196.67 105 193.5 107 191C109 188.5 110 183 110 183C110 183 97.5 178.17 81 178C64.5 177.83 23.33 181.5 11 182C-1.33 182.5 8.17 182 7 181C5.83 180 4.5 177.33 4 176C3.5 174.67 1.67 174 4 173C6.33 172 7.33 171.5 18 170C28.67 168.5 58.17 164.83 68 164C77.83 163.17 72.67 167 77 165C81.33 163 90.83 154.83 94 152C97.17 149.17 96 148 96 148C96 148 81.33 149.5 75 149C68.67 148.5 62.67 146.67 58 145C53.33 143.33 49.17 140.67 47 139C44.83 137.33 45 135 45 135C45 135 68.33 135 75 134C81.67 133 82.67 130.67 85 129C87.33 127.33 89 124 89 124C89 124 84.67 129.67 77 131C69.33 132.33 43 132 43 132C43 132 42.17 114.83 43 109C43.83 103.17 46 100.33 48 97C50 93.67 46.33 93.83 55 89C63.67 84.17 91.5 71.5 100 68C108.5 64.5 106 68 106 68L106 92C106 92 108.67 89.67 111 89C113.33 88.33 113.17 88 120 88C126.83 88 144.33 88.33 152 89C159.67 89.67 157.67 89 166 92C174.33 95 192.67 102.17 202 107C211.33 111.83 215.5 115 222 121C228.5 127 236 135.83 241 143C246 150.17 249.33 157.67 252 164C254.67 170.33 256.33 174.33 257 181C257.67 187.67 255.83 200 256 204C256.17 208 252.83 204.67 258 205C263.17 205.33 281.33 205.5 287 206C292.67 206.5 290.33 208 292 208C293.67 208 297 206 297 206C297 206 281.83 200 278 198C274.17 196 275.33 196.5 274 194C272.67 191.5 270.5 187.5 270 183C269.5 178.5 271 167 271 167C271 167 278.5 166.5 281 167C283.5 167.5 286 170 286 170C286 170 289 153.33 290 150C291 146.67 289.5 147.67 292 150C294.5 152.33 302.33 160.33 305 164C307.67 167.67 307.67 167.5 308 172C308.33 176.5 308.67 184.83 307 191C305.33 197.17 298 209 298 209L312 210L312 0L1 0ZM131 154C127.67 152.67 129 153.33 128 156C127 158.67 125 170 125 170C125 170 127.67 172 131 172C134.33 172 142.17 171.33 145 170C147.83 168.67 148 164 148 164C148 164 134.33 155.33 131 154ZM111 156C111 156 107 157.17 105 159C103 160.83 99 167 99 167C99 167 106.83 165.33 109 164C111.17 162.67 111.67 160.33 112 159C112.33 157.67 111 156 111 156ZM202 163C196.33 163 189.67 164 183 167C176.33 170 162 181 162 181C162 181 174.83 186 178 186C181.17 186 178.5 182.83 181 181C183.5 179.17 188.67 176 193 175C197.33 174 203.33 174.5 207 175C210.67 175.5 212.5 176.33 215 178C217.5 179.67 220.5 181.67 222 185C223.5 188.33 221.33 195.33 224 198C226.67 200.67 238 201 238 201C238 201 239.17 193 238 189C236.83 185 234.5 180.67 231 177C227.5 173.33 221.83 169.33 217 167C212.17 164.67 207.67 163 202 163ZM199 185C196 185.33 191 190 191 190L213 195C213 195 213.67 193.17 213 192C212.33 190.83 211.33 189.17 209 188C206.67 186.83 202 184.67 199 185ZM104 196C104 196 101.5 196 99 200C96.5 204 89 220 89 220C89 220 96.5 213 99 209C101.5 205 104 196 104 196ZM187 202C187 202 188.17 209.17 190 212C191.83 214.83 195.33 217.33 198 219C200.67 220.67 203 221.5 206 222C209 222.5 212 223.33 216 222C220 220.67 230 214 230 214C230 214 222.5 210.33 219 210C215.5 209.67 211.5 212.17 209 212C206.5 211.83 204.83 210 204 209C203.17 208 206.83 207.17 204 206C201.17 204.83 187 202 187 202Z" fill="#0c322c"/></g></svg>