<?xml version="1.0" standalone="no"?>
<svg xmlns="http://www.w3.org/2000/svg" width="1080px" height="1080px" viewBox="0 0 1080 1080"><defs/><g><g><g><g><rect x="90" y="90" width="900" height="900" rx="44" ry="44" fill="rgb(243,245,244)"/></g><g><rect x="150" y="170" width="300" height="300" rx="150" ry="150" fill="rgb(48,186,120)"/></g><g transform="rotate(12.0000 690.000 380.000)"><g><rect x="560" y="250" width="260" height="260" rx="28" ry="28" fill="rgb(36,83,255)"/></g></g><g><g><path d="M22.42,0Q16.17,0 12.1,-4.07Q8.02,-8.14 8.02,-14.4L8.02,-82.6L26.9,-82.6L26.9,-20.06Q26.9,-19.12 27.61,-18.41Q28.32,-17.7 29.26,-17.7L62.78,-17.7L62.78,0L22.42,0ZM88.85,1.18Q79.18,1.18 73.34,-3.66Q67.5,-8.5 67.5,-16.05Q67.5,-24.07 73.69,-29.03Q79.89,-33.98 91.45,-33.98Q98.06,-33.98 102.66,-32.1L102.66,-36.23Q102.66,-40.59 99.95,-42.36Q97.23,-44.13 93.34,-44.13Q89.33,-44.13 84.78,-42.54Q80.24,-40.95 76.82,-38.23L69.03,-49.91Q72.92,-54.04 79.83,-56.7Q86.73,-59.35 94.52,-59.35Q102.07,-59.35 107.79,-56.76Q113.52,-54.16 116.82,-49.26Q120.12,-44.37 120.12,-37.29L120.12,-18.29Q120.12,-13.69 120.18,-9.14Q120.24,-4.6 120.48,0L104.78,0L104.78,-6.25Q100.42,1.18 88.85,1.18ZM93.93,-11.56Q97.82,-11.56 100.3,-13.1Q102.78,-14.63 102.78,-17.11Q102.78,-19.47 100.3,-21Q97.82,-22.54 93.93,-22.54Q90.15,-22.54 87.67,-21Q85.2,-19.47 85.2,-17.11Q85.2,-14.63 87.67,-13.1Q90.15,-11.56 93.93,-11.56ZM129.21,23.6L129.21,8.73L143.13,8.73Q144.55,8.73 145.02,7.55L148.21,1.06L124.73,-58.17L144.43,-58.17L157.53,-20.89L168.98,-58.17L188.68,-58.17L162.72,8.38Q161.42,11.8 159.24,15.34Q157.06,18.88 153.05,21.24Q149.03,23.6 142.07,23.6L129.21,23.6ZM221.37,1.18Q212.64,1.18 205.61,-2.6Q198.59,-6.37 194.52,-13.1Q190.45,-19.82 190.45,-28.56L190.45,-29.74Q190.45,-38.47 194.52,-45.13Q198.59,-51.8 205.61,-55.58Q212.64,-59.35 221.37,-59.35Q230.1,-59.35 237.06,-55.58Q244.02,-51.8 248.1,-45.13Q252.17,-38.47 252.17,-29.74L252.17,-28.56Q252.17,-19.82 248.1,-13.1Q244.02,-6.37 237.06,-2.6Q230.1,1.18 221.37,1.18ZM221.37,-14.28Q227.27,-14.28 230.87,-18.29Q234.47,-22.3 234.47,-28.56L234.47,-29.74Q234.47,-35.99 230.87,-39.94Q227.27,-43.9 221.37,-43.9Q215.59,-43.9 211.87,-39.94Q208.15,-35.99 208.15,-29.74L208.15,-28.56Q208.15,-22.3 211.87,-18.29Q215.59,-14.28 221.37,-14.28ZM284.38,1.18Q274.7,1.18 268.33,-4.72Q261.96,-10.62 261.96,-21.95L261.96,-58.17L279.66,-58.17L279.66,-25.49Q279.66,-19.71 282.08,-17.29Q284.5,-14.87 288.51,-14.87Q292.88,-14.87 295.53,-17.58Q298.19,-20.3 298.19,-25.96L298.19,-58.17L315.89,-58.17L315.89,0L300.66,0L300.66,-5.66Q297.01,-1.42 292.4,-0.12Q287.8,1.18 284.38,1.18ZM354,0Q350.7,0 347.22,-0.71Q343.73,-1.42 340.78,-3.42Q337.83,-5.43 336.01,-9.09Q334.18,-12.74 334.18,-18.64L334.18,-43.31L325.09,-43.31L325.09,-58.17L334.18,-58.17L334.18,-72.22L351.88,-72.22L351.88,-58.17L363.79,-58.17L363.79,-43.31L351.88,-43.31L351.88,-17.23Q351.88,-16.28 352.58,-15.58Q353.29,-14.87 354.24,-14.87L363.79,-14.87L363.79,0L354,0ZM424.8,1.77Q415.01,1.77 407.93,-1.89Q400.85,-5.55 395.65,-11.45L407.34,-23.01Q412.53,-18.05 416.72,-16.05Q420.91,-14.04 425.51,-14.04Q431.05,-14.04 434.12,-16.46Q437.19,-18.88 437.19,-22.54Q437.19,-25.96 435.07,-28.08Q432.94,-30.21 429.4,-31.62Q425.86,-33.04 421.61,-34.28Q417.37,-35.52 413.18,-37.17Q408.99,-38.82 405.45,-41.42Q401.91,-44.01 399.78,-48.08Q397.66,-52.16 397.66,-58.29Q397.66,-66.32 401.38,-72.16Q405.09,-78 411.88,-81.18Q418.66,-84.37 427.63,-84.37Q436.25,-84.37 443.27,-81.24Q450.29,-78.12 454.77,-72.92L442.74,-61.01Q439.08,-64.78 435.54,-66.67Q432,-68.56 427.63,-68.56Q422.56,-68.56 419.49,-66.26Q416.42,-63.96 416.42,-60.06Q416.42,-56.88 418.6,-54.93Q420.79,-52.98 424.33,-51.8Q427.87,-50.62 432.17,-49.5Q436.48,-48.38 440.79,-46.79Q445.1,-45.19 448.64,-42.66Q452.18,-40.12 454.36,-35.93Q456.54,-31.74 456.54,-25.37Q456.54,-17.23 452.53,-11.15Q448.52,-5.07 441.38,-1.65Q434.24,1.77 424.8,1.77ZM488.76,0Q485.45,0 481.97,-0.71Q478.49,-1.42 475.54,-3.42Q472.59,-5.43 470.76,-9.09Q468.93,-12.74 468.93,-18.64L468.93,-43.31L459.85,-43.31L459.85,-58.17L468.93,-58.17L468.93,-72.22L486.63,-72.22L486.63,-58.17L498.55,-58.17L498.55,-43.31L486.63,-43.31L486.63,-17.23Q486.63,-16.28 487.34,-15.58Q488.05,-14.87 488.99,-14.87L498.55,-14.87L498.55,0L488.76,0ZM531.47,1.18Q521.8,1.18 515.42,-4.72Q509.05,-10.62 509.05,-21.95L509.05,-58.17L526.75,-58.17L526.75,-25.49Q526.75,-19.71 529.17,-17.29Q531.59,-14.87 535.6,-14.87Q539.97,-14.87 542.62,-17.58Q545.28,-20.3 545.28,-25.96L545.28,-58.17L562.98,-58.17L562.98,0L547.76,0L547.76,-5.66Q544.1,-1.42 539.5,-0.12Q534.89,1.18 531.47,1.18ZM601.09,1.18Q593.3,1.18 587.05,-2.48Q580.8,-6.14 577.14,-12.8Q573.48,-19.47 573.48,-28.44L573.48,-29.62Q573.48,-38.47 577.2,-45.19Q580.91,-51.92 587.23,-55.64Q593.54,-59.35 601.21,-59.35Q609.94,-59.35 616.43,-54.16L616.43,-86.14L634.13,-86.14L634.13,0L618.32,0L618.32,-5.78Q611.36,1.18 601.09,1.18ZM604.04,-14.28Q609.82,-14.28 613.72,-18.11Q617.61,-21.95 617.61,-29.03Q617.61,-36.23 613.72,-40.06Q609.82,-43.9 604.04,-43.9Q598.97,-43.9 595.07,-40.24Q591.18,-36.58 591.18,-29.62L591.18,-28.44Q591.18,-21.59 595.07,-17.94Q598.97,-14.28 604.04,-14.28ZM653.25,0L653.25,-43.31L643.45,-43.31L643.45,-58.17L670.95,-58.17L670.95,0L653.25,0ZM652.42,-68.68L652.42,-86.14L672.01,-86.14L672.01,-68.68L652.42,-68.68ZM712.25,1.18Q703.52,1.18 696.5,-2.6Q689.47,-6.37 685.4,-13.1Q681.33,-19.82 681.33,-28.56L681.33,-29.74Q681.33,-38.47 685.4,-45.13Q689.47,-51.8 696.5,-55.58Q703.52,-59.35 712.25,-59.35Q720.98,-59.35 727.94,-55.58Q734.9,-51.8 738.97,-45.13Q743.05,-38.47 743.05,-29.74L743.05,-28.56Q743.05,-19.82 738.97,-13.1Q734.9,-6.37 727.94,-2.6Q720.98,1.18 712.25,1.18ZM712.25,-14.28Q718.15,-14.28 721.75,-18.29Q725.35,-22.3 725.35,-28.56L725.35,-29.74Q725.35,-35.99 721.75,-39.94Q718.15,-43.9 712.25,-43.9Q706.47,-43.9 702.75,-39.94Q699.03,-35.99 699.03,-29.74L699.03,-28.56Q699.03,-22.3 702.75,-18.29Q706.47,-14.28 712.25,-14.28Z" transform="translate(154,667)" fill="rgb(12,50,44)"/></g></g><g><g><path d="M3.48,0L3.48,-28L12.92,-28Q16.84,-28 19.92,-26.28Q23,-24.56 24.8,-21.5Q26.6,-18.44 26.6,-14.48L26.6,-14Q26.6,-10.92 25.56,-8.36Q24.52,-5.8 22.66,-3.92Q20.8,-2.04 18.32,-1.02Q15.84,0 12.92,0L3.48,0ZM12.68,-24.8L6.88,-24.8L6.88,-3.2L12.68,-3.2Q15.68,-3.2 18.04,-4.58Q20.4,-5.96 21.76,-8.4Q23.12,-10.84 23.12,-14L23.12,-14.48Q23.12,-17.56 21.78,-19.88Q20.44,-22.2 18.08,-23.5Q15.72,-24.8 12.68,-24.8ZM31.24,0L31.24,-19.24L34.36,-19.24L34.36,-16.16Q35.08,-18 36.5,-18.66Q37.92,-19.32 39.68,-19.32L41.32,-19.32L41.32,-16.12L39.44,-16.12Q37.08,-16.12 35.78,-14.96Q34.48,-13.8 34.48,-11.4L34.48,0L31.24,0ZM50,0.4Q46.72,0.4 44.74,-1.2Q42.76,-2.8 42.76,-5.36Q42.76,-7.04 43.76,-8.36Q44.76,-9.68 46.5,-10.46Q48.24,-11.24 50.4,-11.24Q53.56,-11.24 55.44,-9.92L55.44,-12.32Q55.44,-14.68 54.22,-15.7Q53,-16.72 50.92,-16.72Q49.36,-16.72 47.74,-16.14Q46.12,-15.56 44.96,-14.36L43.44,-16.64Q44.72,-18.12 46.8,-18.88Q48.88,-19.64 51.08,-19.64Q54.48,-19.64 56.56,-17.84Q58.64,-16.04 58.64,-12.48L58.64,-6.32Q58.64,-3.12 58.76,0L55.88,0L55.84,-1.92Q54.04,0.4 50,0.4ZM50.84,-2.04Q53.04,-2.04 54.26,-2.96Q55.48,-3.88 55.48,-5.36Q55.48,-6.84 54.26,-7.74Q53.04,-8.64 50.8,-8.64Q48.6,-8.64 47.32,-7.74Q46.04,-6.84 46.04,-5.36Q46.04,-3.92 47.34,-2.98Q48.64,-2.04 50.84,-2.04ZM62.52,8L62.52,5.28L74,5.28Q75.36,5.28 76.12,4.62Q76.88,3.96 76.88,2.76Q76.88,1.64 76.12,1.02Q75.36,0.4 74,0.4L67.68,0.4Q66.16,0.4 65.38,-0.32Q64.6,-1.04 64.5,-2.12Q64.4,-3.2 64.96,-4.28L66.24,-6.88Q64.76,-7.8 63.92,-9.26Q63.08,-10.72 63.08,-12.52L63.08,-12.88Q63.08,-14.88 64.14,-16.4Q65.2,-17.92 67.06,-18.78Q68.92,-19.64 71.32,-19.64Q71.76,-19.64 72.2,-19.6L74.16,-23.64L77.4,-23.64L74.92,-19.04Q77.04,-18.28 78.3,-16.68Q79.56,-15.08 79.56,-12.96L79.56,-12.52Q79.56,-10.48 78.5,-8.92Q77.44,-7.36 75.58,-6.46Q73.72,-5.56 71.32,-5.56Q70.04,-5.56 68.84,-5.84L67.88,-3.96Q67.6,-3.44 67.7,-2.82Q67.8,-2.2 68.8,-2.2L74.44,-2.2Q76.88,-2.2 78.4,-0.94Q79.92,0.32 79.92,2.8Q79.92,5.08 78.38,6.54Q76.84,8 74.28,8L62.52,8ZM71.32,-8.08Q72.48,-8.08 73.64,-8.5Q74.8,-8.92 75.6,-9.94Q76.4,-10.96 76.4,-12.72Q76.4,-14.64 74.98,-15.82Q73.56,-17 71.32,-17Q69.08,-17 67.66,-15.82Q66.24,-14.64 66.24,-12.72Q66.24,-10.96 67.04,-9.94Q67.84,-8.92 69.02,-8.5Q70.2,-8.08 71.32,-8.08ZM99.64,0Q98.32,0 97.1,-0.5Q95.88,-1 95.1,-2.12Q94.32,-3.24 94.32,-5.12L94.32,-16.44L90.84,-16.44L90.84,-19.24L94.32,-19.24L94.32,-24L97.52,-24L97.52,-19.24L102.6,-19.24L102.6,-16.44L97.52,-16.44L97.52,-4.92Q97.52,-4 98.14,-3.38Q98.76,-2.76 99.68,-2.76L102.6,-2.76L102.6,0L99.64,0ZM114.6,0.4Q111.84,0.4 109.68,-0.86Q107.52,-2.12 106.28,-4.36Q105.04,-6.6 105.04,-9.52L105.04,-9.88Q105.04,-12.72 106.28,-14.94Q107.52,-17.16 109.68,-18.4Q111.84,-19.64 114.6,-19.64Q117.36,-19.64 119.52,-18.4Q121.68,-17.16 122.92,-14.98Q124.16,-12.8 124.16,-9.96L124.16,-9.52Q124.16,-6.6 122.92,-4.36Q121.68,-2.12 119.52,-0.86Q117.36,0.4 114.6,0.4ZM114.6,-2.48Q116.48,-2.48 117.9,-3.38Q119.32,-4.28 120.12,-5.86Q120.92,-7.44 120.92,-9.52L120.92,-9.96Q120.92,-12.96 119.16,-14.86Q117.4,-16.76 114.6,-16.76Q112.76,-16.76 111.32,-15.88Q109.88,-15 109.06,-13.44Q108.24,-11.88 108.24,-9.88L108.24,-9.52Q108.24,-7.44 109.06,-5.86Q109.88,-4.28 111.32,-3.38Q112.76,-2.48 114.6,-2.48ZM138.2,0L138.2,-19.24L141.28,-19.24L141.28,-16.2Q142.4,-18.16 144.1,-18.9Q145.8,-19.64 147.4,-19.64Q149.48,-19.64 151.06,-18.72Q152.64,-17.8 153.44,-15.88Q154.28,-17.32 155.42,-18.14Q156.56,-18.96 157.78,-19.3Q159,-19.64 160.08,-19.64Q163.2,-19.64 165.16,-17.62Q167.12,-15.6 167.12,-11.44L167.12,0L163.96,0L163.96,-11.04Q163.96,-14 162.68,-15.34Q161.4,-16.68 159.32,-16.68Q157.16,-16.68 155.72,-15.22Q154.28,-13.76 154.28,-11.04L154.28,0L151.08,0L151.08,-11.04Q151.08,-14 149.82,-15.34Q148.56,-16.68 146.48,-16.68Q144.32,-16.68 142.86,-15.22Q141.4,-13.76 141.4,-11.04L141.4,0L138.2,0ZM181.12,0.4Q178.36,0.4 176.2,-0.86Q174.04,-2.12 172.8,-4.36Q171.56,-6.6 171.56,-9.52L171.56,-9.88Q171.56,-12.72 172.8,-14.94Q174.04,-17.16 176.2,-18.4Q178.36,-19.64 181.12,-19.64Q183.88,-19.64 186.04,-18.4Q188.2,-17.16 189.44,-14.98Q190.68,-12.8 190.68,-9.96L190.68,-9.52Q190.68,-6.6 189.44,-4.36Q188.2,-2.12 186.04,-0.86Q183.88,0.4 181.12,0.4ZM181.12,-2.48Q183,-2.48 184.42,-3.38Q185.84,-4.28 186.64,-5.86Q187.44,-7.44 187.44,-9.52L187.44,-9.96Q187.44,-12.96 185.68,-14.86Q183.92,-16.76 181.12,-16.76Q179.28,-16.76 177.84,-15.88Q176.4,-15 175.58,-13.44Q174.76,-11.88 174.76,-9.88L174.76,-9.52Q174.76,-7.44 175.58,-5.86Q176.4,-4.28 177.84,-3.38Q179.28,-2.48 181.12,-2.48ZM200.12,0L192.48,-19.24L195.84,-19.24L201.84,-3.8L207.8,-19.24L211.16,-19.24L203.56,0L200.12,0ZM222.64,0.4Q219.8,0.4 217.62,-0.86Q215.44,-2.12 214.22,-4.36Q213,-6.6 213,-9.52L213,-9.92Q213,-12.72 214.12,-14.9Q215.24,-17.08 217.28,-18.36Q219.32,-19.64 222,-19.64Q224.76,-19.64 226.72,-18.28Q228.68,-16.92 229.62,-14.46Q230.56,-12 230.16,-8.64L216.24,-8.64Q216.36,-6.96 217.18,-5.58Q218,-4.2 219.42,-3.38Q220.84,-2.56 222.76,-2.56Q224.28,-2.56 225.46,-2.92Q226.64,-3.28 227.52,-4.08L229.36,-2.08Q228.24,-0.88 226.5,-0.24Q224.76,0.4 222.64,0.4ZM222,-16.84Q219.6,-16.84 218.1,-15.32Q216.6,-13.8 216.28,-11.28L227.08,-11.28Q227.04,-13.92 225.64,-15.38Q224.24,-16.84 222,-16.84ZM243.52,-9.16L243.52,-13.56L247.44,-13.56L247.44,-9.16L243.52,-9.16ZM270.72,0.4Q267.88,0.4 265.64,-0.84Q263.4,-2.08 262.14,-4.3Q260.88,-6.52 260.88,-9.4L260.88,-9.88Q260.88,-12.76 262.16,-14.96Q263.44,-17.16 265.66,-18.4Q267.88,-19.64 270.72,-19.64Q272.84,-19.64 274.58,-18.86Q276.32,-18.08 277.52,-16.68L275.52,-14.68Q273.68,-16.64 270.72,-16.64Q268.8,-16.64 267.3,-15.8Q265.8,-14.96 264.94,-13.44Q264.08,-11.92 264.08,-9.88L264.08,-9.4Q264.08,-7.36 264.96,-5.82Q265.84,-4.28 267.34,-3.44Q268.84,-2.6 270.76,-2.6Q273.68,-2.6 275.6,-4.52L277.56,-2.56Q276.4,-1.16 274.62,-0.38Q272.84,0.4 270.72,0.4ZM289.44,0.4Q286.68,0.4 284.52,-0.86Q282.36,-2.12 281.12,-4.36Q279.88,-6.6 279.88,-9.52L279.88,-9.88Q279.88,-12.72 281.12,-14.94Q282.36,-17.16 284.52,-18.4Q286.68,-19.64 289.44,-19.64Q292.2,-19.64 294.36,-18.4Q296.52,-17.16 297.76,-14.98Q299,-12.8 299,-9.96L299,-9.52Q299,-6.6 297.76,-4.36Q296.52,-2.12 294.36,-0.86Q292.2,0.4 289.44,0.4ZM289.44,-2.48Q291.32,-2.48 292.74,-3.38Q294.16,-4.28 294.96,-5.86Q295.76,-7.44 295.76,-9.52L295.76,-9.96Q295.76,-12.96 294,-14.86Q292.24,-16.76 289.44,-16.76Q287.6,-16.76 286.16,-15.88Q284.72,-15 283.9,-13.44Q283.08,-11.88 283.08,-9.88L283.08,-9.52Q283.08,-7.44 283.9,-5.86Q284.72,-4.28 286.16,-3.38Q287.6,-2.48 289.44,-2.48ZM303.72,0L303.72,-19.24L306.84,-19.24L306.84,-16.16Q307.56,-18 308.98,-18.66Q310.4,-19.32 312.16,-19.32L313.8,-19.32L313.8,-16.12L311.92,-16.12Q309.56,-16.12 308.26,-14.96Q306.96,-13.8 306.96,-11.4L306.96,0L303.72,0ZM317.6,0L317.6,-19.24L320.72,-19.24L320.72,-16.16Q321.88,-18.16 323.7,-18.9Q325.52,-19.64 327.08,-19.64Q330.32,-19.64 332.34,-17.54Q334.36,-15.44 334.36,-11.32L334.36,0L331.12,0L331.12,-10.84Q331.12,-13.92 329.74,-15.3Q328.36,-16.68 326.24,-16.68Q324.04,-16.68 322.44,-15.18Q320.84,-13.68 320.84,-10.8L320.84,0L317.6,0ZM348.44,0.4Q345.6,0.4 343.42,-0.86Q341.24,-2.12 340.02,-4.36Q338.8,-6.6 338.8,-9.52L338.8,-9.92Q338.8,-12.72 339.92,-14.9Q341.04,-17.08 343.08,-18.36Q345.12,-19.64 347.8,-19.64Q350.56,-19.64 352.52,-18.28Q354.48,-16.92 355.42,-14.46Q356.36,-12 355.96,-8.64L342.04,-8.64Q342.16,-6.96 342.98,-5.58Q343.8,-4.2 345.22,-3.38Q346.64,-2.56 348.56,-2.56Q350.08,-2.56 351.26,-2.92Q352.44,-3.28 353.32,-4.08L355.16,-2.08Q354.04,-0.88 352.3,-0.24Q350.56,0.4 348.44,0.4ZM347.8,-16.84Q345.4,-16.84 343.9,-15.32Q342.4,-13.8 342.08,-11.28L352.88,-11.28Q352.84,-13.92 351.44,-15.38Q350.04,-16.84 347.8,-16.84ZM360.6,0L360.6,-19.24L363.72,-19.24L363.72,-16.16Q364.44,-18 365.86,-18.66Q367.28,-19.32 369.04,-19.32L370.68,-19.32L370.68,-16.12L368.8,-16.12Q366.44,-16.12 365.14,-14.96Q363.84,-13.8 363.84,-11.4L363.84,0L360.6,0ZM389.04,0Q387.72,0 386.5,-0.5Q385.28,-1 384.5,-2.12Q383.72,-3.24 383.72,-5.12L383.72,-16.44L380.24,-16.44L380.24,-19.24L383.72,-19.24L383.72,-24L386.92,-24L386.92,-19.24L392,-19.24L392,-16.44L386.92,-16.44L386.92,-4.92Q386.92,-4 387.54,-3.38Q388.16,-2.76 389.08,-2.76L392,-2.76L392,0L389.04,0ZM404,0.4Q401.24,0.4 399.08,-0.86Q396.92,-2.12 395.68,-4.36Q394.44,-6.6 394.44,-9.52L394.44,-9.88Q394.44,-12.72 395.68,-14.94Q396.92,-17.16 399.08,-18.4Q401.24,-19.64 404,-19.64Q406.76,-19.64 408.92,-18.4Q411.08,-17.16 412.32,-14.98Q413.56,-12.8 413.56,-9.96L413.56,-9.52Q413.56,-6.6 412.32,-4.36Q411.08,-2.12 408.92,-0.86Q406.76,0.4 404,0.4ZM404,-2.48Q405.88,-2.48 407.3,-3.38Q408.72,-4.28 409.52,-5.86Q410.32,-7.44 410.32,-9.52L410.32,-9.96Q410.32,-12.96 408.56,-14.86Q406.8,-16.76 404,-16.76Q402.16,-16.76 400.72,-15.88Q399.28,-15 398.46,-13.44Q397.64,-11.88 397.64,-9.88L397.64,-9.52Q397.64,-7.44 398.46,-5.86Q399.28,-4.28 400.72,-3.38Q402.16,-2.48 404,-2.48ZM427.6,0L427.6,-19.24L430.72,-19.24L430.72,-16.16Q431.44,-18 432.86,-18.66Q434.28,-19.32 436.04,-19.32L437.68,-19.32L437.68,-16.12L435.8,-16.12Q433.44,-16.12 432.14,-14.96Q430.84,-13.8 430.84,-11.4L430.84,0L427.6,0ZM448.88,0.4Q446.04,0.4 443.86,-0.86Q441.68,-2.12 440.46,-4.36Q439.24,-6.6 439.24,-9.52L439.24,-9.92Q439.24,-12.72 440.36,-14.9Q441.48,-17.08 443.52,-18.36Q445.56,-19.64 448.24,-19.64Q451,-19.64 452.96,-18.28Q454.92,-16.92 455.86,-14.46Q456.8,-12 456.4,-8.64L442.48,-8.64Q442.6,-6.96 443.42,-5.58Q444.24,-4.2 445.66,-3.38Q447.08,-2.56 449,-2.56Q450.52,-2.56 451.7,-2.92Q452.88,-3.28 453.76,-4.08L455.6,-2.08Q454.48,-0.88 452.74,-0.24Q451,0.4 448.88,0.4ZM448.24,-16.84Q445.84,-16.84 444.34,-15.32Q442.84,-13.8 442.52,-11.28L453.32,-11.28Q453.28,-13.92 451.88,-15.38Q450.48,-16.84 448.24,-16.84ZM466.36,0.36Q464.24,0.36 462.38,-0.3Q460.52,-0.96 459.36,-2L460.8,-4.24Q461.88,-3.32 463.36,-2.76Q464.84,-2.2 466.36,-2.2Q468.16,-2.2 469.28,-3.02Q470.4,-3.84 470.4,-5.16Q470.4,-6.28 469.64,-6.9Q468.88,-7.52 467.72,-7.86Q466.56,-8.2 465.24,-8.54Q463.92,-8.88 462.74,-9.44Q461.56,-10 460.82,-11.04Q460.08,-12.08 460.08,-13.88Q460.08,-16.4 461.98,-18.02Q463.88,-19.64 467.08,-19.64Q468.88,-19.64 470.5,-19.1Q472.12,-18.56 473.32,-17.68L471.88,-15.44Q470.84,-16.2 469.62,-16.64Q468.4,-17.08 467.04,-17.08Q465.32,-17.08 464.24,-16.26Q463.16,-15.44 463.16,-14.12Q463.16,-13 463.92,-12.4Q464.68,-11.8 465.86,-11.44Q467.04,-11.08 468.38,-10.74Q469.72,-10.4 470.92,-9.82Q472.12,-9.24 472.86,-8.18Q473.6,-7.12 473.6,-5.32Q473.6,-3.64 472.68,-2.36Q471.76,-1.08 470.12,-0.36Q468.48,0.36 466.36,0.36ZM479.72,0L479.72,-16.44L475.96,-16.44L475.96,-19.24L482.92,-19.24L482.92,0L479.72,0ZM479.52,-23.48L479.52,-28.12L483.12,-28.12L483.12,-23.48L479.52,-23.48ZM487.4,0L487.4,-2.52L497.88,-16.36L487.52,-16.36L487.52,-19.24L501.84,-19.24L501.84,-16.64L491.24,-2.84L502,-2.84L502,0L487.4,0ZM514.44,0.4Q511.6,0.4 509.42,-0.86Q507.24,-2.12 506.02,-4.36Q504.8,-6.6 504.8,-9.52L504.8,-9.92Q504.8,-12.72 505.92,-14.9Q507.04,-17.08 509.08,-18.36Q511.12,-19.64 513.8,-19.64Q516.56,-19.64 518.52,-18.28Q520.48,-16.92 521.42,-14.46Q522.36,-12 521.96,-8.64L508.04,-8.64Q508.16,-6.96 508.98,-5.58Q509.8,-4.2 511.22,-3.38Q512.64,-2.56 514.56,-2.56Q516.08,-2.56 517.26,-2.92Q518.44,-3.28 519.32,-4.08L521.16,-2.08Q520.04,-0.88 518.3,-0.24Q516.56,0.4 514.44,0.4ZM513.8,-16.84Q511.4,-16.84 509.9,-15.32Q508.4,-13.8 508.08,-11.28L518.88,-11.28Q518.84,-13.92 517.44,-15.38Q516.04,-16.84 513.8,-16.84ZM535.32,-9.16L535.32,-13.56L539.24,-13.56L539.24,-9.16L535.32,-9.16ZM554.12,0L554.12,-29.2L575.56,-29.2L575.56,0L554.12,0ZM572.92,-2.92L572.92,-26.76L556.56,-26.76L572.92,-2.92ZM597.16,0Q595.84,0 594.62,-0.5Q593.4,-1 592.62,-2.12Q591.84,-3.24 591.84,-5.12L591.84,-16.44L588.36,-16.44L588.36,-19.24L591.84,-19.24L591.84,-24L595.04,-24L595.04,-19.24L600.12,-19.24L600.12,-16.44L595.04,-16.44L595.04,-4.92Q595.04,-4 595.66,-3.38Q596.28,-2.76 597.2,-2.76L600.12,-2.76L600.12,0L597.16,0ZM612.12,0.4Q609.36,0.4 607.2,-0.86Q605.04,-2.12 603.8,-4.36Q602.56,-6.6 602.56,-9.52L602.56,-9.88Q602.56,-12.72 603.8,-14.94Q605.04,-17.16 607.2,-18.4Q609.36,-19.64 612.12,-19.64Q614.88,-19.64 617.04,-18.4Q619.2,-17.16 620.44,-14.98Q621.68,-12.8 621.68,-9.96L621.68,-9.52Q621.68,-6.6 620.44,-4.36Q619.2,-2.12 617.04,-0.86Q614.88,0.4 612.12,0.4ZM612.12,-2.48Q614,-2.48 615.42,-3.38Q616.84,-4.28 617.64,-5.86Q618.44,-7.44 618.44,-9.52L618.44,-9.96Q618.44,-12.96 616.68,-14.86Q614.92,-16.76 612.12,-16.76Q610.28,-16.76 608.84,-15.88Q607.4,-15 606.58,-13.44Q605.76,-11.88 605.76,-9.88L605.76,-9.52Q605.76,-7.44 606.58,-5.86Q607.4,-4.28 608.84,-3.38Q610.28,-2.48 612.12,-2.48ZM641.04,0.36Q638.92,0.36 637.06,-0.3Q635.2,-0.96 634.04,-2L635.48,-4.24Q636.56,-3.32 638.04,-2.76Q639.52,-2.2 641.04,-2.2Q642.84,-2.2 643.96,-3.02Q645.08,-3.84 645.08,-5.16Q645.08,-6.28 644.32,-6.9Q643.56,-7.52 642.4,-7.86Q641.24,-8.2 639.92,-8.54Q638.6,-8.88 637.42,-9.44Q636.24,-10 635.5,-11.04Q634.76,-12.08 634.76,-13.88Q634.76,-16.4 636.66,-18.02Q638.56,-19.64 641.76,-19.64Q643.56,-19.64 645.18,-19.1Q646.8,-18.56 648,-17.68L646.56,-15.44Q645.52,-16.2 644.3,-16.64Q643.08,-17.08 641.72,-17.08Q640,-17.08 638.92,-16.26Q637.84,-15.44 637.84,-14.12Q637.84,-13 638.6,-12.4Q639.36,-11.8 640.54,-11.44Q641.72,-11.08 643.06,-10.74Q644.4,-10.4 645.6,-9.82Q646.8,-9.24 647.54,-8.18Q648.28,-7.12 648.28,-5.32Q648.28,-3.64 647.36,-2.36Q646.44,-1.08 644.8,-0.36Q643.16,0.36 641.04,0.36ZM652.88,8L652.88,-19.24L655.92,-19.24L655.92,-15.92Q657.04,-17.64 658.82,-18.64Q660.6,-19.64 662.8,-19.64Q665.4,-19.64 667.44,-18.4Q669.48,-17.16 670.66,-14.96Q671.84,-12.76 671.84,-9.88L671.84,-9.52Q671.84,-6.56 670.68,-4.32Q669.52,-2.08 667.48,-0.84Q665.44,0.4 662.8,0.4Q660.68,0.4 658.96,-0.54Q657.24,-1.48 656.12,-3.12L656.12,8L652.88,8ZM662.32,-2.48Q664.12,-2.48 665.54,-3.34Q666.96,-4.2 667.78,-5.8Q668.6,-7.4 668.6,-9.52L668.6,-9.88Q668.6,-13 666.82,-14.88Q665.04,-16.76 662.32,-16.76Q660.48,-16.76 659.04,-15.88Q657.6,-15 656.76,-13.38Q655.92,-11.76 655.92,-9.6Q655.92,-7.44 656.76,-5.84Q657.6,-4.24 659.04,-3.36Q660.48,-2.48 662.32,-2.48ZM677.72,0L677.72,-16.44L673.96,-16.44L673.96,-19.24L680.92,-19.24L680.92,0L677.72,0ZM677.52,-23.48L677.52,-28.12L681.12,-28.12L681.12,-23.48L677.52,-23.48ZM686.96,0L686.96,-19.24L690.08,-19.24L690.08,-16.16Q691.24,-18.16 693.06,-18.9Q694.88,-19.64 696.44,-19.64Q699.68,-19.64 701.7,-17.54Q703.72,-15.44 703.72,-11.32L703.72,0L700.48,0L700.48,-10.84Q700.48,-13.92 699.1,-15.3Q697.72,-16.68 695.6,-16.68Q693.4,-16.68 691.8,-15.18Q690.2,-13.68 690.2,-10.8L690.2,0L686.96,0Z" transform="translate(156,756)" fill="rgb(75,97,90)"/></g></g></g></g></g></svg>