<?xml version="1.0" encoding="UTF-8"?>
<svg id="Layer_1" data-name="Layer 1" xmlns="http://www.w3.org/2000/svg" viewBox="0 0 442.99 37.2">
  <defs>
    <style>
      .cls-1 {
        fill: #42b177;
      }

      .cls-2 {
        fill: #f2f2f2;
      }
    </style>
  </defs>
  <g id="Layer_1-2" data-name="Layer 1">
    <path class="cls-1" d="M66.24,11.41c-.44-.46-1.17-.46-1.61,0-.5.49-.44,1.35.18,1.76.38.25.88.25,1.25,0,.61-.41.67-1.26.18-1.76M64.77,7.54c-3.04-.71-5.77,2.02-5.06,5.06.36,1.55,1.59,2.78,3.14,3.14,3.04.71,5.77-2.02,5.06-5.06-.36-1.55-1.59-2.78-3.14-3.14M44.7,24.66c-1.98-.73-2.75-.59-5.28-.55-1.76.02-1.82-.04-3.82-.04-.62,0-.85,2.97,1.39,3.58.98.27,2.04.44,2.78,1.2.33.33.51.84-.24.84h-5.56c-.97,0-1.89.02-2.64-.61-1.12-.95-1.65-2.25-2.21-3.55-.58-1.35-1.21-2.67-1.95-3.94-1.47-2.52-3.41-4.81-6.02-6.2-3.25-1.74-8.77-2.61-13.14.75-4.61,3.54-3.62,10.16.41,13.4,1.59,1.28,3.66,1.82,5.7,1.7,3.98-.23,6.92-3.17,6.19-6.78-.24-1.21-.95-2.35-2.01-2.98-.76-.44-1.65-.6-2.53-.6-.94,0-1.94.19-2.62.85-.8.78-.93,2.14-.29,3.06.35.5.93.93.83,1.59-.07.45-.43.78-.87.87-.75.17-1.43-.26-1.93-.78-1.3-1.33-1.7-3.46-.99-5.17.93-2.25,3.52-3.49,5.96-3.41,3.14.11,6.09,2.17,7.38,5.04,1.29,2.86.9,6.38-.87,8.97-3.94,5.76-13.66,5.08-18.18.22C1.35,29.06-.2,26.1.02,20.6c.15-3.89,2.4-7.72,5.26-10.41C9.94,5.79,16.07,2.79,22.32,1.49c3.79-.78,7.71-.97,11.56-.58,3.4.34,6.77.96,10.03,1.97,1.62.5,3.21,1.1,4.75,1.81,1.36.62,3.14,1.3,4.2,2.38,0-1.95-.08-4.1-.08-5.59,0-.57.6-.96,1.11-.71,2.21,1.03,7.44,3.5,10.93,5.09,4.68,2.14,5.01,7.18,5.17,11.64,0,.1,0,.2-.04.29-.15.31-.94.22-1.23.23-.56,0-1.4,0-1.96.03-1.12.05-2.2.03-3.32-.03-2.06-.1-4.06-1.02-5.4-2.14-.13-.11-.56-.23-.77-.02-.21.22-.14.56-.02.68.77.77,1.6,1.27,2.56,1.77,1.23.63,2.57.79,3.92.87,1.45.09,2.92.06,4.37-.08,1.21-.12,1.52-.21.33.68-1.05.78-2.27,1.34-3.5,1.76-1.77.6-3.64.9-5.51.95-1.13.03-2.26-.03-3.39-.17-.58-.07-1.16-.18-1.74-.24-.47-.05-.96-.14-1.44-.04-.43.09-.82.33-1.09.67-.37.48-.5,1.81-.28,2.38.41,1.11,1.32,1.76,2.28,2.33,1.04.62,2.4.83,2.67,2.01.06.25-2.15.25-2.4.25h-2.93s-1.6.04-2.22-.19c-.02,0-.04-.02-.06-.02-.34-.18-.49-.63-.6-.98-.16-.48-.45-.97-.8-1.47-.66-.94-1.68-1.98-2.74-2.37M66.91,11.64c0,1.72-1.39,3.11-3.11,3.11s-3.11-1.39-3.11-3.11,1.39-3.11,3.11-3.11,3.11,1.39,3.11,3.11"/>
  </g>
  <g>
    <path class="cls-2" d="M88.15,29.76c-2.08,0-3.89-.39-5.44-1.16-1.55-.77-2.87-1.8-3.96-3.08l3.04-3.04c1.09,1.12,2.16,1.92,3.2,2.4s2.15.72,3.32.72c1.57,0,2.81-.37,3.7-1.1.89-.73,1.34-1.69,1.34-2.86,0-.91-.25-1.65-.76-2.22-.51-.57-1.17-1.04-2-1.4-.83-.36-1.74-.68-2.74-.96-1-.28-1.99-.59-2.98-.94-.99-.35-1.89-.8-2.72-1.36-.83-.56-1.49-1.29-2-2.2-.51-.91-.76-2.04-.76-3.4,0-1.76.4-3.27,1.2-4.54.8-1.27,1.94-2.25,3.42-2.94,1.48-.69,3.19-1.04,5.14-1.04,1.81,0,3.45.32,4.9.96,1.45.64,2.65,1.49,3.58,2.56l-3.12,3.12c-.8-.83-1.63-1.45-2.48-1.86-.85-.41-1.83-.62-2.92-.62-1.47,0-2.64.35-3.52,1.06s-1.32,1.65-1.32,2.82c0,.85.25,1.55.76,2.08.51.53,1.18.95,2.02,1.26.84.31,1.76.59,2.76.84s2.01.55,3.02.9c1.01.35,1.93.8,2.76,1.36.83.56,1.49,1.31,2,2.24.51.93.76,2.12.76,3.56,0,1.79-.43,3.34-1.28,4.66-.85,1.32-2.05,2.35-3.58,3.08-1.53.73-3.31,1.1-5.34,1.1Z"/>
    <path class="cls-2" d="M113.51,29.76c-3.28,0-5.91-.85-7.88-2.54-1.97-1.69-2.96-4.26-2.96-7.7V1.2h4.92v17.92c0,2.03.53,3.55,1.6,4.56,1.07,1.01,2.51,1.52,4.32,1.52s3.26-.51,4.34-1.52c1.08-1.01,1.62-2.53,1.62-4.56V1.2h4.92v18.32c0,2.27-.45,4.16-1.36,5.68-.91,1.52-2.17,2.66-3.8,3.42-1.63.76-3.53,1.14-5.72,1.14Z"/>
    <path class="cls-2" d="M137.91,29.76c-2.08,0-3.89-.39-5.44-1.16-1.55-.77-2.87-1.8-3.96-3.08l3.04-3.04c1.09,1.12,2.16,1.92,3.2,2.4s2.15.72,3.32.72c1.57,0,2.81-.37,3.7-1.1.89-.73,1.34-1.69,1.34-2.86,0-.91-.25-1.65-.76-2.22-.51-.57-1.17-1.04-2-1.4-.83-.36-1.74-.68-2.74-.96-1-.28-1.99-.59-2.98-.94-.99-.35-1.89-.8-2.72-1.36-.83-.56-1.49-1.29-2-2.2-.51-.91-.76-2.04-.76-3.4,0-1.76.4-3.27,1.2-4.54.8-1.27,1.94-2.25,3.42-2.94,1.48-.69,3.19-1.04,5.14-1.04,1.81,0,3.45.32,4.9.96,1.45.64,2.65,1.49,3.58,2.56l-3.12,3.12c-.8-.83-1.63-1.45-2.48-1.86-.85-.41-1.83-.62-2.92-.62-1.47,0-2.64.35-3.52,1.06s-1.32,1.65-1.32,2.82c0,.85.25,1.55.76,2.08.51.53,1.18.95,2.02,1.26.84.31,1.76.59,2.76.84s2.01.55,3.02.9c1.01.35,1.93.8,2.76,1.36.83.56,1.49,1.31,2,2.24.51.93.76,2.12.76,3.56,0,1.79-.43,3.34-1.28,4.66-.85,1.32-2.05,2.35-3.58,3.08-1.53.73-3.31,1.1-5.34,1.1Z"/>
    <path class="cls-2" d="M157.07,29.2c-1.36,0-2.47-.44-3.34-1.32-.87-.88-1.3-2-1.3-3.36V5.88c0-1.36.43-2.48,1.3-3.36.87-.88,1.98-1.32,3.34-1.32h13.64v4.48h-12c-.4,0-.74.14-1.02.42s-.42.62-.42,1.02v16.16c0,.4.14.74.42,1.02s.62.42,1.02.42h12v4.48h-13.64ZM154.79,17.28v-4.28h15.08v4.28h-15.08Z"/>
    <path class="cls-2" d="M183.59,3.64V1.2h12.84v2.44h-12.84ZM183.59,29.2v-2.44h12.84v2.44h-12.84ZM188.63,28.36V2.04h2.68v26.32h-2.68Z"/>
    <path class="cls-2" d="M200.51,29.2V10.08h2.44v5.12h-.68c.29-1.07.71-1.95,1.26-2.66.55-.71,1.17-1.27,1.86-1.7.69-.43,1.4-.73,2.12-.9.72-.17,1.4-.26,2.04-.26,2.16,0,3.92.69,5.28,2.06,1.36,1.37,2.04,3.47,2.04,6.3v11.16h-2.56v-10.84c0-2.24-.51-3.85-1.52-4.84-1.01-.99-2.29-1.48-3.84-1.48-1.07,0-2.04.24-2.92.72-.88.48-1.59,1.19-2.14,2.12-.55.93-.82,2.11-.82,3.52v10.8h-2.56Z"/>
    <path class="cls-2" d="M230.55,29.6c-1.73,0-3.28-.42-4.64-1.26-1.36-.84-2.42-2-3.18-3.48-.76-1.48-1.14-3.19-1.14-5.14v-.36c0-1.89.39-3.57,1.16-5.02.77-1.45,1.83-2.59,3.18-3.42,1.35-.83,2.89-1.24,4.62-1.24s3.25.45,4.56,1.36c1.31.91,2.29,2.12,2.96,3.64l-.48.6V0h2.56v29.2h-2.32v-5.36l.44.52c-.69,1.63-1.71,2.91-3.04,3.84-1.33.93-2.89,1.4-4.68,1.4ZM230.87,27.32c1.33,0,2.52-.32,3.56-.96,1.04-.64,1.85-1.54,2.44-2.7.59-1.16.88-2.5.88-4.02s-.29-2.85-.88-4c-.59-1.15-1.4-2.05-2.44-2.7s-2.23-.98-3.56-.98-2.47.31-3.5.94c-1.03.63-1.82,1.49-2.38,2.6-.56,1.11-.84,2.39-.84,3.86v.36c0,1.52.28,2.85.84,3.98.56,1.13,1.35,2.02,2.38,2.66,1.03.64,2.19.96,3.5.96Z"/>
    <path class="cls-2" d="M253.59,29.6c-1.41,0-2.68-.27-3.8-.82s-2-1.4-2.64-2.56c-.64-1.16-.96-2.69-.96-4.58v-11.56h2.52v11.16c0,1.49.23,2.68.7,3.56.47.88,1.1,1.51,1.9,1.88.8.37,1.71.56,2.72.56s2-.23,2.88-.7c.88-.47,1.59-1.17,2.14-2.1.55-.93.82-2.09.82-3.48v-10.88h2.48v19.12h-2.24v-5.12h.72c-.29,1.04-.71,1.91-1.24,2.62-.53.71-1.15,1.27-1.84,1.7-.69.43-1.4.73-2.12.92-.72.19-1.4.28-2.04.28Z"/>
    <path class="cls-2" d="M273.75,29.56c-1.36,0-2.65-.21-3.86-.64-1.21-.43-2.19-1-2.94-1.72l1.16-1.76c.69.61,1.55,1.11,2.58,1.5,1.03.39,2.05.58,3.06.58,1.31,0,2.37-.31,3.2-.92.83-.61,1.24-1.43,1.24-2.44,0-.83-.26-1.47-.78-1.92-.52-.45-1.18-.8-1.98-1.04-.8-.24-1.65-.47-2.54-.7-.89-.23-1.74-.52-2.54-.88-.8-.36-1.45-.88-1.96-1.56-.51-.68-.76-1.61-.76-2.78,0-1.65.61-3,1.84-4.04,1.23-1.04,2.87-1.56,4.92-1.56,1.17,0,2.28.18,3.32.54s1.93.83,2.68,1.42l-1.16,1.8c-.67-.51-1.41-.91-2.24-1.22-.83-.31-1.71-.46-2.64-.46-1.25,0-2.28.31-3.08.92-.8.61-1.2,1.41-1.2,2.4,0,.83.25,1.46.76,1.9.51.44,1.17.79,1.98,1.04.81.25,1.67.49,2.58.72.91.23,1.77.53,2.58.9.81.37,1.47.91,1.98,1.6.51.69.76,1.64.76,2.84,0,1.07-.29,2.01-.88,2.84-.59.83-1.41,1.47-2.46,1.94-1.05.47-2.26.7-3.62.7Z"/>
    <path class="cls-2" d="M283.15,12.32v-2.24h11.4v2.24h-11.4ZM291.71,29.2c-.64,0-1.26-.09-1.86-.28s-1.13-.48-1.6-.88c-.47-.4-.83-.9-1.1-1.5-.27-.6-.4-1.33-.4-2.18V5.32h2.52v19.2c0,.72.24,1.31.72,1.78.48.47,1.05.7,1.72.7h2.84v2.2h-2.84Z"/>
    <path class="cls-2" d="M299.03,29.2V10.08h2.48v4.56l-.4-.04c.24-1.23.63-2.17,1.18-2.82.55-.65,1.21-1.11,2-1.36.79-.25,1.65-.38,2.58-.38h1.64v2.52h-1.84c-1.57,0-2.81.4-3.72,1.2-.91.8-1.36,2.08-1.36,3.84v11.6h-2.56Z"/>
    <path class="cls-2" d="M313.99,29.2V11.2l1.16,1.12h-4.96v-2.24h6.36v19.12h-2.56ZM313.91,5.68V1.36h2.72v4.32h-2.72Z"/>
    <path class="cls-2" d="M328.71,29.6c-2.24,0-4.02-.51-5.34-1.54-1.32-1.03-1.98-2.38-1.98-4.06,0-1.09.29-2.07.88-2.94.59-.87,1.45-1.55,2.6-2.06,1.15-.51,2.52-.76,4.12-.76,2.21,0,3.93.49,5.14,1.48,1.21.99,1.82,2.29,1.82,3.92h-.48c0,1.87-.56,3.33-1.68,4.38-1.12,1.05-2.81,1.58-5.08,1.58ZM334.59,29.2l-.04-6.96-.28-.76v-4.68c0-1.65-.41-2.87-1.24-3.64-.83-.77-2.03-1.16-3.6-1.16-1.04,0-2.11.2-3.22.6-1.11.4-2.07,1.01-2.9,1.84l-1.24-1.8c.91-.99,2.02-1.73,3.34-2.22,1.32-.49,2.69-.74,4.1-.74s2.71.26,3.8.78c1.09.52,1.95,1.3,2.56,2.34.61,1.04.92,2.36.92,3.96v6.08c0,1.07,0,2.13.02,3.18.01,1.05.05,2.11.1,3.18h-2.32ZM329.19,27.64c1.6,0,2.85-.34,3.74-1.02.89-.68,1.34-1.57,1.34-2.66s-.45-2.01-1.34-2.66c-.89-.65-2.15-.98-3.78-.98s-2.87.33-3.8.98c-.93.65-1.4,1.54-1.4,2.66s.47,1.98,1.4,2.66c.93.68,2.21,1.02,3.84,1.02Z"/>
    <path class="cls-2" d="M347.75,29.2c-1.44,0-2.61-.43-3.52-1.28-.91-.85-1.36-1.99-1.36-3.4V1.08l1.12,1.12h-4.8V0h6.24v24.56c0,.69.23,1.27.68,1.74.45.47,1.04.7,1.76.7h1.72v2.2h-1.84Z"/>
    <path class="cls-2" d="M367.03,29.2c-1.25,0-2.29-.41-3.12-1.24-.83-.83-1.24-1.85-1.24-3.08V5.52c0-1.23.41-2.25,1.24-3.08.83-.83,1.87-1.24,3.12-1.24h12.52v2.44h-11.76c-.72,0-1.31.24-1.78.72-.47.48-.7,1.07-.7,1.76v18.16c0,.69.23,1.28.7,1.76.47.48,1.06.72,1.78.72h11.76v2.44h-12.52ZM364.07,16.36v-2.36h14.64v2.36h-14.64Z"/>
    <path class="cls-2" d="M391.95,29.6c-1.73,0-3.28-.42-4.64-1.26-1.36-.84-2.42-2-3.18-3.48-.76-1.48-1.14-3.19-1.14-5.14v-.36c0-1.89.39-3.57,1.16-5.02.77-1.45,1.83-2.59,3.18-3.42,1.35-.83,2.89-1.24,4.62-1.24s3.25.45,4.56,1.36c1.31.91,2.29,2.12,2.96,3.64l-.48.6V0h2.56v29.2h-2.32v-5.36l.44.52c-.69,1.63-1.71,2.91-3.04,3.84-1.33.93-2.89,1.4-4.68,1.4ZM392.27,27.32c1.33,0,2.52-.32,3.56-.96,1.04-.64,1.85-1.54,2.44-2.7.59-1.16.88-2.5.88-4.02s-.29-2.85-.88-4c-.59-1.15-1.4-2.05-2.44-2.7s-2.23-.98-3.56-.98-2.47.31-3.5.94c-1.03.63-1.82,1.49-2.38,2.6-.56,1.11-.84,2.39-.84,3.86v.36c0,1.52.28,2.85.84,3.98.56,1.13,1.35,2.02,2.38,2.66,1.03.64,2.19.96,3.5.96Z"/>
    <path class="cls-2" d="M405.79,37.2v-2.16h11.32c1.04,0,1.86-.26,2.46-.78s.9-1.23.9-2.14c0-.85-.3-1.52-.9-2s-1.42-.72-2.46-.72h-6.08c-.99,0-1.73-.23-2.24-.7-.51-.47-.79-1.05-.84-1.74-.05-.69.09-1.37.44-2.04l1.72-3.44,2.2.6-1.6,3.08c-.13.29-.22.61-.26.94-.04.33.05.62.26.86.21.24.59.36,1.12.36h5.6c1.65,0,2.97.41,3.96,1.24.99.83,1.48,2.01,1.48,3.56,0,1.01-.23,1.9-.68,2.66-.45.76-1.09,1.35-1.92,1.78-.83.43-1.81.64-2.96.64h-11.52ZM414.55,23.52c-1.55,0-2.93-.29-4.14-.88-1.21-.59-2.17-1.4-2.86-2.44s-1.04-2.21-1.04-3.52v-.36c0-1.31.35-2.46,1.04-3.46s1.65-1.78,2.86-2.34c1.21-.56,2.59-.84,4.14-.84s2.97.28,4.18.84c1.21.56,2.16,1.33,2.84,2.3.68.97,1.02,2.1,1.02,3.38v.48c0,1.31-.34,2.48-1.02,3.52-.68,1.04-1.63,1.85-2.84,2.44-1.21.59-2.61.88-4.18.88ZM414.55,21.48c1.63,0,2.96-.45,4-1.36,1.04-.91,1.56-2.05,1.56-3.44v-.36c0-1.33-.52-2.42-1.56-3.26-1.04-.84-2.37-1.26-4-1.26s-2.96.43-4,1.28c-1.04.85-1.56,1.96-1.56,3.32v.28c0,1.39.52,2.53,1.56,3.44,1.04.91,2.37,1.36,4,1.36ZM414.87,11.36l2.84-5.8h2.56l-3.08,5.8h-2.32Z"/>
    <path class="cls-2" d="M435.59,29.6c-1.87,0-3.52-.42-4.96-1.26-1.44-.84-2.56-2-3.36-3.48s-1.2-3.19-1.2-5.14v-.4c0-1.87.37-3.52,1.1-4.96.73-1.44,1.77-2.58,3.12-3.42,1.35-.84,2.89-1.26,4.62-1.26s3.32.44,4.6,1.32c1.28.88,2.23,2.12,2.84,3.72.61,1.6.79,3.47.52,5.6h-14.96v-2.12h13.6l-1.12,1.12c.19-1.52.07-2.83-.36-3.94-.43-1.11-1.08-1.96-1.96-2.56-.88-.6-1.92-.9-3.12-.9-1.31,0-2.43.31-3.38.94-.95.63-1.68,1.49-2.2,2.6-.52,1.11-.78,2.39-.78,3.86v.4c0,1.47.29,2.77.88,3.9.59,1.13,1.41,2.02,2.48,2.66,1.07.64,2.32.96,3.76.96,1.01,0,1.94-.13,2.78-.4.84-.27,1.55-.65,2.14-1.16l1.44,1.64c-.72.72-1.64,1.28-2.76,1.68-1.12.4-2.36.6-3.72.6Z"/>
  </g>
</svg>