<svg xmlns="http://www.w3.org/2000/svg" width="180" height="165" viewBox="0 0 180 165"><path d="M148.462 130.726h-13.556a1.9 1.9 0 0 1-1.896-1.895v-6.849h13.083a2.037 2.037 0 1 0 0-4.072H133.01v-6.739a1.9 1.9 0 0 1 1.896-1.898h13.556a2.136 2.136 0 1 0 0-4.273h-13.556a6.18 6.18 0 0 0-6.168 6.171v17.66a6.177 6.177 0 0 0 6.168 6.169h13.556a2.137 2.137 0 1 0 0-4.274m-39.861-12.761q-4.299-.77-5.974-1.832-1.674-1.064-1.675-2.874 0-1.945 1.72-3.19t4.844-1.244q3.167-.001 5.069 1.222 1.022.657 1.863 1.75a2.318 2.318 0 1 0 3.566-2.96 12 12 0 0 0-3.507-2.728q-2.92-1.493-7.036-1.493-3.532 0-6.177 1.222-2.65 1.221-4.051 3.303a8.07 8.07 0 0 0-1.404 4.616q-.002 2.4 1.11 4.073 1.107 1.675 3.552 2.806 2.442 1.132 6.562 1.901 4.118.77 5.769 1.764 1.653.997 1.653 2.624 0 2.039-1.835 3.146-1.83 1.11-5.044 1.109-3.394 0-5.68-1.267a8.6 8.6 0 0 1-2.34-1.92c-.868-1.008-2.424-1.031-3.364-.091l-.009.009c-.86.859-.926 2.251-.114 3.155q3.874 4.323 11.551 4.322 3.53 0 6.224-1.063 2.692-1.062 4.185-3.054 1.495-1.992 1.494-4.617 0-2.443-1.086-4.095-1.086-1.65-3.462-2.76t-6.404-1.834m-66.83.01c-2.866-.516-4.858-1.123-5.975-1.832q-1.674-1.065-1.674-2.876 0-1.945 1.72-3.19 1.72-1.243 4.843-1.244 3.165 0 5.068 1.222 1.024.657 1.864 1.752a2.32 2.32 0 0 0 3.39.307 2.32 2.32 0 0 0 .176-3.269 12.1 12.1 0 0 0-3.507-2.728q-2.92-1.492-7.037-1.492-3.53 0-6.177 1.221-2.648 1.223-4.051 3.303a8.1 8.1 0 0 0-1.402 4.617q-.001 2.4 1.108 4.072 1.109 1.677 3.553 2.807t6.561 1.901q4.118.77 5.771 1.765 1.651.994 1.652 2.623 0 2.037-1.833 3.146-1.833 1.11-5.045 1.109-3.396 0-5.68-1.268a8.6 8.6 0 0 1-2.339-1.92c-.868-1.007-2.427-1.031-3.367-.09l-.008.009c-.86.858-.925 2.251-.115 3.155q3.875 4.322 11.553 4.322 3.53 0 6.222-1.064 2.693-1.063 4.186-3.054 1.495-1.99 1.494-4.617 0-2.442-1.087-4.094-1.084-1.651-3.462-2.76-2.374-1.11-6.402-1.833m44.571-10.915v16.427q0 5.883-3.121 8.893-3.124 3.008-9.096 3.008-5.975 0-9.097-3.008-3.122-3.01-3.122-8.893V107.06a2.444 2.444 0 1 1 4.888 0v15.839q0 4.254 1.787 6.267t5.544 2.014q3.755 0 5.543-2.014 1.787-2.013 1.787-6.267V107.06a2.445 2.445 0 0 1 4.887 0M144.609 50.569a2 2 0 0 1-2.195 0 2 2 0 0 1-.312-3.079c.772-.8 2.046-.8 2.819-.001a2.005 2.005 0 0 1-.312 3.08m3.14-4.361c1.252 5.329-3.537 10.121-8.866 8.869a7.42 7.42 0 0 1-5.502-5.503c-1.251-5.326 3.536-10.114 8.864-8.865a7.42 7.42 0 0 1 5.504 5.499m-35.882 28.659c.612.876 1.116 1.721 1.402 2.566.2.602.456 1.393 1.05 1.711.034.018.062.033.097.044 1.087.396 3.884.329 3.884.329h5.142c.439.007 4.301-.004 4.205-.437-.463-2.066-2.855-2.434-4.671-3.515-1.679-1-3.266-2.133-3.99-4.082-.374-1.006-.152-3.327.496-4.173.473-.61 1.165-1.016 1.916-1.18.827-.177 1.687-.024 2.518.06 1.021.104 2.032.289 3.049.416 1.969.256 3.953.359 5.936.305 3.274-.091 6.555-.613 9.658-1.67 2.165-.728 4.299-1.711 6.141-3.078 2.094-1.557 1.546-1.41-.577-1.193a47.6 47.6 0 0 1-7.656.147c-2.379-.138-4.724-.418-6.877-1.524-1.696-.874-3.151-1.75-4.492-3.105-.201-.204-.327-.802.041-1.183.356-.371 1.113-.155 1.346.041 2.344 1.96 5.837 3.572 9.457 3.748 1.955.097 3.861.135 5.819.047.977-.044 2.457-.037 3.435-.047.508-.006 1.889.139 2.147-.397.077-.157.071-.338.065-.513-.288-7.829-.867-16.663-9.061-20.406-6.114-2.796-15.281-7.127-19.152-8.924-.9-.425-1.95.249-1.95 1.248 0 2.616.135 6.374.135 9.794-1.854-1.89-4.978-3.081-7.359-4.174a70 70 0 0 0-8.332-3.175c-5.72-1.771-11.636-2.861-17.586-3.454-6.746-.672-13.608-.35-20.257 1.022-10.942 2.27-21.698 7.534-29.864 15.229-5.013 4.724-8.946 11.436-9.213 18.25-.379 9.643 2.322 14.823 7.289 20.16 7.919 8.506 24.962 9.696 31.864-.39 3.103-4.542 3.78-10.701 1.525-15.718-2.252-5.017-7.433-8.643-12.927-8.827-4.264-.14-8.805 2.027-10.438 5.969-1.247 3.009-.537 6.728 1.732 9.066.884.913 2.081 1.657 3.391 1.365.769-.17 1.414-.75 1.531-1.532.172-1.154-.839-1.902-1.459-2.788-1.121-1.599-.894-3.997.51-5.356 1.184-1.147 2.938-1.486 4.587-1.483 1.534.003 3.104.279 4.429 1.053 1.861 1.094 3.099 3.099 3.524 5.22 1.279 6.333-3.869 11.479-10.851 11.884-3.571.212-7.207-.728-9.995-2.972-7.06-5.679-8.79-17.288-.718-23.486 7.659-5.882 17.331-4.366 23.03-1.309 4.565 2.445 7.966 6.447 10.543 10.871 1.292 2.224 2.394 4.548 3.417 6.911.984 2.27 1.902 4.558 3.871 6.222 1.304 1.103 2.911 1.063 4.619 1.063h9.746c1.322 0 1.002-.882.428-1.467-1.292-1.32-3.148-1.619-4.868-2.092-3.926-1.08-3.526-6.279-2.44-6.279 3.513 0 3.624.104 6.7.063 4.442-.06 5.783-.318 9.254.967 1.858.687 3.642 2.502 4.804 4.158"/></svg>