<svg xmlns="http://www.w3.org/2000/svg" width="180" height="165" viewBox="0 0 180 165"><path fill="#fff" d="M148.462 130.726h-13.556a1.9 1.9 0 0 1-1.896-1.895v-6.849h13.083a2.037 2.037 0 1 0 0-4.072H133.01v-6.739a1.9 1.9 0 0 1 1.896-1.898h13.556a2.136 2.136 0 1 0 0-4.273h-13.556a6.18 6.18 0 0 0-6.168 6.171v17.66a6.177 6.177 0 0 0 6.168 6.169h13.556a2.137 2.137 0 1 0 0-4.274m-39.861-12.761q-4.299-.77-5.974-1.832-1.674-1.064-1.675-2.874 0-1.945 1.72-3.19t4.844-1.244q3.167-.001 5.069 1.222 1.022.657 1.863 1.75a2.318 2.318 0 1 0 3.566-2.96 12 12 0 0 0-3.507-2.728q-2.92-1.493-7.036-1.493-3.532 0-6.177 1.222-2.65 1.221-4.051 3.303a8.07 8.07 0 0 0-1.404 4.616q-.002 2.4 1.11 4.073 1.107 1.675 3.552 2.806 2.442 1.132 6.562 1.901 4.118.77 5.769 1.764 1.653.997 1.653 2.624 0 2.039-1.835 3.146-1.83 1.11-5.044 1.109-3.394 0-5.68-1.267a8.6 8.6 0 0 1-2.34-1.92c-.868-1.008-2.424-1.031-3.364-.091l-.009.009c-.86.859-.926 2.251-.114 3.155q3.874 4.323 11.551 4.322 3.53 0 6.224-1.063 2.692-1.062 4.185-3.054 1.495-1.992 1.494-4.617 0-2.443-1.086-4.095-1.086-1.65-3.462-2.76t-6.404-1.834m-66.83.01c-2.866-.516-4.858-1.123-5.975-1.832q-1.674-1.065-1.674-2.876 0-1.945 1.72-3.19 1.72-1.243 4.843-1.244 3.165 0 5.068 1.222 1.024.657 1.864 1.752a2.32 2.32 0 0 0 3.39.307 2.32 2.32 0 0 0 .176-3.269 12.1 12.1 0 0 0-3.507-2.728q-2.92-1.492-7.037-1.492-3.53 0-6.177 1.221-2.648 1.223-4.051 3.303a8.1 8.1 0 0 0-1.402 4.617q-.001 2.4 1.108 4.072 1.109 1.677 3.553 2.807t6.561 1.901q4.118.77 5.771 1.765 1.651.994 1.652 2.623 0 2.037-1.833 3.146-1.833 1.11-5.045 1.109-3.396 0-5.68-1.268a8.6 8.6 0 0 1-2.339-1.92c-.868-1.007-2.427-1.031-3.367-.09l-.008.009c-.86.858-.925 2.251-.115 3.155q3.875 4.322 11.553 4.322 3.53 0 6.222-1.064 2.693-1.063 4.186-3.054 1.495-1.99 1.494-4.617 0-2.442-1.087-4.094-1.084-1.651-3.462-2.76-2.374-1.11-6.402-1.833m44.571-10.915v16.427q0 5.883-3.121 8.893-3.124 3.008-9.096 3.008-5.975 0-9.097-3.008-3.122-3.01-3.122-8.893V107.06a2.444 2.444 0 1 1 4.888 0v15.839q0 4.254 1.787 6.267t5.544 2.014q3.755 0 5.543-2.014 1.787-2.013 1.787-6.267V107.06a2.445 2.445 0 0 1 4.887 0"/><path fill="#30ba78" d="M144.823 47.49a1.96 1.96 0 0 0-2.82.001 2 2 0 0 0 .314 3.079 2 2 0 0 0 2.193 0 2.004 2.004 0 0 0 .313-3.08m-2.579-6.78c-5.327-1.249-10.114 3.538-8.864 8.865a7.43 7.43 0 0 0 5.504 5.503c5.328 1.252 10.118-3.54 8.865-8.869a7.42 7.42 0 0 0-5.505-5.499m-35.18 29.999c-3.473-1.284-4.815-1.026-9.255-.967-3.076.04-3.188-.063-6.7-.063-1.084 0-1.485 5.199 2.441 6.279 1.719.473 3.575.771 4.867 2.093.572.584.895 1.466-.428 1.466h-9.746c-1.706 0-3.315.04-4.618-1.064-1.969-1.662-2.888-3.951-3.871-6.222-1.023-2.362-2.125-4.686-3.419-6.909-2.575-4.424-5.976-8.427-10.541-10.872-5.701-3.056-15.373-4.573-23.032 1.309-8.071 6.198-6.341 17.808.718 23.486 2.788 2.244 6.423 3.183 9.995 2.972 6.982-.406 12.131-5.552 10.853-11.884-.427-2.12-1.663-4.126-3.526-5.22-1.325-.774-2.893-1.05-4.429-1.053-1.648-.003-3.403.337-4.588 1.484-1.402 1.358-1.63 3.756-.509 5.356.621.885 1.631 1.633 1.459 2.788-.117.781-.761 1.361-1.53 1.532-1.309.292-2.507-.453-3.392-1.365-2.269-2.338-2.979-6.058-1.731-9.067 1.633-3.941 6.174-6.11 10.436-5.969 5.496.185 10.676 3.811 12.93 8.828s1.579 11.175-1.527 15.717c-6.902 10.086-23.945 8.895-31.864.39-4.966-5.337-7.666-10.516-7.288-20.16.266-6.814 4.2-13.525 9.212-18.249 8.167-7.696 18.923-12.959 29.866-15.229 6.647-1.371 13.509-1.694 20.257-1.021 5.949.592 11.866 1.682 17.584 3.452a70 70 0 0 1 8.333 3.176c2.382 1.094 5.505 2.285 7.359 4.174 0-3.42-.133-7.178-.133-9.795 0-.999 1.049-1.673 1.947-1.247 3.871 1.797 13.038 6.128 19.151 8.922 8.195 3.745 8.775 12.579 9.062 20.408.007.175.013.356-.066.513-.256.536-1.637.39-2.144.396-.981.011-2.458.005-3.436.048-1.958.087-3.863.051-5.819-.048-3.617-.175-7.115-1.787-9.457-3.748-.234-.196-.99-.411-1.345-.04-.369.381-.245.977-.043 1.182 1.342 1.355 2.799 2.231 4.493 3.107 2.151 1.104 4.498 1.384 6.877 1.522 2.548.151 5.114.114 7.655-.147 2.122-.217 2.672-.362.578 1.194-1.842 1.366-3.975 2.349-6.142 3.077-3.103 1.056-6.383 1.58-9.656 1.671a38 38 0 0 1-5.937-.307c-1.017-.127-2.028-.31-3.05-.415-.83-.083-1.691-.238-2.517-.06-.749.165-1.445.57-1.916 1.181-.648.845-.872 3.167-.496 4.172.723 1.95 2.311 3.083 3.989 4.082 1.817 1.081 4.207 1.449 4.672 3.516.097.433-3.766.443-4.204.436h-5.144s-2.795.067-3.882-.329c-.037-.011-.066-.027-.098-.044-.593-.318-.85-1.11-1.05-1.71-.286-.845-.791-1.691-1.402-2.566-1.161-1.657-2.947-3.472-4.803-4.159m38.939-22.819a5.45 5.45 0 0 1-5.454 5.454 5.45 5.45 0 0 1-5.45-5.454 5.452 5.452 0 1 1 10.904 0"/></svg>