<svg xmlns="http://www.w3.org/2000/svg" width="180" height="165" viewBox="0 0 180 165"><g fill="#fff"><path d="M148.462 130.726h-13.556a1.9 1.9 0 0 1-1.896-1.895v-6.849h13.083a2.037 2.037 0 1 0 0-4.072H133.01v-6.739a1.9 1.9 0 0 1 1.896-1.898h13.556a2.136 2.136 0 1 0 0-4.273h-13.556a6.18 6.18 0 0 0-6.168 6.171v17.66a6.177 6.177 0 0 0 6.168 6.169h13.556a2.137 2.137 0 1 0 0-4.274m-39.861-12.761q-4.299-.77-5.974-1.832-1.674-1.064-1.675-2.874 0-1.945 1.72-3.19t4.844-1.244q3.167-.001 5.069 1.222 1.022.657 1.863 1.75a2.318 2.318 0 1 0 3.566-2.96 12 12 0 0 0-3.507-2.728q-2.92-1.493-7.036-1.493-3.532 0-6.177 1.222-2.65 1.221-4.051 3.303a8.07 8.07 0 0 0-1.404 4.616q-.002 2.4 1.11 4.073 1.107 1.675 3.552 2.806 2.442 1.132 6.562 1.901 4.118.77 5.769 1.764 1.653.997 1.653 2.624 0 2.039-1.835 3.146-1.83 1.11-5.044 1.109-3.394 0-5.68-1.267a8.6 8.6 0 0 1-2.34-1.92c-.868-1.008-2.424-1.031-3.364-.091l-.009.009c-.86.859-.926 2.251-.114 3.155q3.874 4.323 11.551 4.322 3.53 0 6.224-1.063 2.692-1.062 4.185-3.054 1.495-1.992 1.494-4.617 0-2.443-1.086-4.095-1.086-1.65-3.462-2.76t-6.404-1.834m-66.83.01c-2.866-.516-4.858-1.123-5.975-1.832q-1.674-1.065-1.674-2.876 0-1.945 1.72-3.19 1.72-1.243 4.843-1.244 3.165 0 5.068 1.222 1.024.657 1.864 1.752a2.32 2.32 0 0 0 3.39.307 2.32 2.32 0 0 0 .176-3.269 12.1 12.1 0 0 0-3.507-2.728q-2.92-1.492-7.037-1.492-3.53 0-6.177 1.221-2.648 1.223-4.051 3.303a8.1 8.1 0 0 0-1.402 4.617q-.001 2.4 1.108 4.072 1.109 1.677 3.553 2.807t6.561 1.901q4.118.77 5.771 1.765 1.651.994 1.652 2.623 0 2.037-1.833 3.146-1.833 1.11-5.045 1.109-3.396 0-5.68-1.268a8.6 8.6 0 0 1-2.339-1.92c-.868-1.007-2.427-1.031-3.367-.09l-.008.009c-.86.858-.925 2.251-.115 3.155q3.875 4.322 11.553 4.322 3.53 0 6.222-1.064 2.693-1.063 4.186-3.054 1.495-1.99 1.494-4.617 0-2.442-1.087-4.094-1.084-1.651-3.462-2.76-2.374-1.11-6.402-1.833m44.571-10.915v16.427q0 5.883-3.121 8.893-3.124 3.008-9.096 3.008-5.975 0-9.097-3.008-3.122-3.01-3.122-8.893V107.06a2.444 2.444 0 1 1 4.888 0v15.839q0 4.254 1.787 6.267t5.544 2.014q3.755 0 5.543-2.014 1.787-2.013 1.787-6.267V107.06a2.445 2.445 0 0 1 4.887 0M144.232 47.544a1.887 1.887 0 0 0-2.72 0 1.93 1.93 0 0 0 .301 2.969 1.93 1.93 0 0 0 2.117 0 1.93 1.93 0 0 0 .302-2.969m-2.521-6.795c-5.326-1.248-10.114 3.538-8.865 8.865a7.43 7.43 0 0 0 5.504 5.503c5.329 1.251 10.118-3.54 8.865-8.869a7.42 7.42 0 0 0-5.504-5.499M52.762 90.188c-6.318.002-12.625-2.556-16.456-6.672-4.725-5.078-7.576-10.179-7.195-19.91.239-6.133 3.644-12.866 9.105-18.012 7.88-7.428 18.427-12.805 29.702-15.141a66.2 66.2 0 0 1 13.379-1.354c2.247 0 4.525.113 6.769.336 6.268.624 12.16 1.781 17.517 3.441a69 69 0 0 1 8.293 3.159q.55.252 1.142.511c2.151.955 4.586 2.037 6.114 3.59l.589.599-.001-.84c0-1.818-.037-3.699-.072-5.517-.03-1.571-.059-3.053-.059-4.276 0-.639.535-1.035 1.032-1.035q.222 0 .424.098c1.243.577 3.031 1.415 5.086 2.378 4.418 2.071 9.916 4.648 14.07 6.546 3.581 1.638 5.973 4.406 7.31 8.467 1.168 3.534 1.4 7.524 1.55 11.641.005.138.011.266-.028.345-.02.041-.155.221-1.095.221-.148 0-.291-.003-.417-.007a8 8 0 0 0-.281-.007l-.05.001-.84.006c-.878.005-1.875.01-2.605.04-.748.034-1.492.051-2.284.051-1.074 0-2.221-.032-3.506-.097-3.238-.159-6.696-1.529-9.254-3.669-.224-.189-.637-.322-1.005-.322-.335 0-.613.106-.806.308-.507.523-.363 1.333-.04 1.661 1.355 1.369 2.812 2.258 4.582 3.172 2.097 1.078 4.32 1.402 7.013 1.56 1.003.058 2.009.088 2.99.088 1.601 0 3.189-.08 4.72-.238l.378-.04c.339-.035.626-.066.854-.08q-.301.255-.895.697c-1.624 1.206-3.66 2.226-6.045 3.027-2.946 1.003-6.161 1.558-9.557 1.654a38.2 38.2 0 0 1-5.884-.304 60 60 0 0 1-1.259-.177 40 40 0 0 0-2.221-.287c-.421-.047-.853-.098-1.29-.098a4.3 4.3 0 0 0-.913.091c-.859.188-1.611.652-2.117 1.306-.741.972-.943 3.437-.544 4.504.786 2.123 2.547 3.31 4.134 4.256.516.307 1.072.555 1.61.796 1.321.594 2.474 1.111 2.849 2.295-.492.129-1.973.223-3.611.223h-5.347c-.01 0-.186.003-.464.003-1.552 0-2.756-.113-3.302-.311l-.017-.008-.03-.014c-.469-.252-.698-.939-.884-1.493l-.009-.027c-.261-.778-.707-1.597-1.445-2.653-1.451-2.069-3.307-3.671-4.965-4.284-2.397-.888-3.828-1.051-5.783-1.051-.561 0-1.163.013-1.859.03-.526.012-1.099.024-1.737.034-.496.004-.91.009-1.28.009-.853 0-1.419-.015-2.076-.031-.799-.02-1.704-.043-3.338-.043-.526 0-.917.565-1.044 1.512-.237 1.747.472 4.637 3.391 5.441q.4.11.802.21c1.42.366 2.885.741 3.914 1.792.333.343.431.643.391.738-.023.051-.17.146-.576.146H87.895c-1.69 0-2.972-.071-4.05-.982-1.807-1.526-2.691-3.576-3.626-5.745l-.153-.352c-1.201-2.777-2.294-4.984-3.436-6.947-2.965-5.092-6.557-8.793-10.673-11.001-3.249-1.739-7.291-2.737-11.089-2.737-4.584 0-8.844 1.409-12.318 4.076-3.488 2.679-5.435 6.58-5.486 10.987-.055 4.924 2.321 9.921 6.198 13.04 2.463 1.982 5.742 3.075 9.228 3.075.333 0 .671-.01 1.004-.03 3.901-.226 7.329-1.898 9.401-4.586 1.697-2.203 2.325-4.94 1.768-7.707-.471-2.331-1.852-4.367-3.689-5.447-1.242-.727-2.79-1.099-4.603-1.1h-.029c-2.1 0-3.716.53-4.799 1.578-1.517 1.469-1.762 4.07-.55 5.801.163.231.348.453.528.665.526.623.978 1.16.873 1.874-.091.599-.599 1.1-1.267 1.248a2.4 2.4 0 0 1-.508.057c-1.056 0-1.975-.721-2.562-1.324-2.173-2.24-2.854-5.815-1.661-8.698 1.65-3.982 6.076-5.762 9.731-5.762q.189 0 .379.004c5.315.181 10.389 3.648 12.627 8.625 2.173 4.839 1.585 10.878-1.498 15.383-3.052 4.461-8.473 7.02-14.873 7.02m92.611-42.259a5.355 5.355 0 0 1-5.357 5.357 5.353 5.353 0 0 1-5.354-5.357 5.35 5.35 0 0 1 5.354-5.353 5.354 5.354 0 0 1 5.357 5.353"/></g></svg>