<?xml version="1.0" encoding="UTF-8"?>
<svg xmlns="http://www.w3.org/2000/svg" viewBox="0 0 369.039 111.987">
  <g id="Text">
    <g id="Layer_1-3" data-name="Layer 1-3">
      <path d="M76.867,36.97c-.381.251-.884.251-1.257,0-.617-.411-.678-1.273-.183-1.768.442-.457,1.181-.457,1.623,0,.495.495.442,1.356-.183,1.768M78.673,34.463c.724,3.063-2.035,5.814-5.098,5.098-1.562-.366-2.797-1.608-3.162-3.162-.716-3.063,2.035-5.814,5.09-5.098,1.562.366,2.797,1.6,3.162,3.162M58.053,50.93c.351.503.64.991.808,1.471.114.343.267.8.602.983.023.008.038.023.061.023.625.229,2.233.191,2.233.191h2.957c.251,0,2.469,0,2.416-.251-.267-1.189-1.638-1.402-2.682-2.019-.96-.572-1.875-1.227-2.294-2.347-.213-.579-.084-1.913.282-2.4.274-.351.671-.587,1.097-.678.48-.099.968-.015,1.448.038.587.061,1.166.168,1.753.236,1.128.145,2.271.206,3.414.175,1.882-.053,3.764-.351,5.547-.96,1.242-.419,2.469-.983,3.528-1.768,1.204-.892.884-.808-.335-.686-1.463.152-2.934.175-4.404.084-1.364-.076-2.713-.236-3.955-.876-.975-.503-1.814-1.006-2.583-1.783-.114-.114-.191-.465.023-.678.206-.213.64-.091.77.023,1.349,1.128,3.36,2.05,5.433,2.156,1.128.053,2.217.076,3.345.03.564-.023,1.41-.023,1.974-.03.29,0,1.082.084,1.234-.229.046-.091.038-.191.038-.297-.168-4.503-.495-9.578-5.205-11.727-3.513-1.608-8.786-4.1-11.003-5.128-.518-.244-1.12.145-1.12.716,0,1.501.076,3.665.076,5.631-1.067-1.082-2.858-1.768-4.229-2.4-1.554-.716-3.155-1.318-4.785-1.829-3.284-1.021-6.683-1.646-10.104-1.981-3.879-.389-7.818-.198-11.643.587-6.287,1.311-12.466,4.336-17.16,8.755-2.88,2.72-5.136,6.576-5.288,10.493-.221,5.54,1.334,8.519,4.191,11.59,4.549,4.892,14.349,5.57,18.311-.221,1.783-2.606,2.172-6.149.876-9.03-1.295-2.88-4.275-4.968-7.43-5.075-2.454-.084-5.06,1.166-5.997,3.429-.716,1.73-.312,3.863.998,5.212.511.526,1.196.953,1.951.785.442-.099.815-.434.876-.884.099-.663-.48-1.09-.838-1.6-.648-.922-.511-2.301.29-3.079.678-.663,1.692-.853,2.637-.853.884,0,1.783.16,2.545.602,1.067.625,1.783,1.783,2.027,3.002.732,3.642-2.225,6.599-6.241,6.828-2.05.122-4.145-.419-5.746-1.707-4.054-3.261-5.052-9.937-.411-13.495,4.404-3.383,9.959-2.507,13.236-.754,2.621,1.402,4.58,3.703,6.058,6.248.747,1.28,1.379,2.614,1.966,3.97.564,1.303,1.097,2.621,2.225,3.574.747.632,1.676.61,2.652.61h5.601c.762,0,.579-.511.244-.846-.739-.762-1.814-.93-2.797-1.204-2.256-.625-2.027-3.612-1.402-3.612,2.019,0,2.08.061,3.848.038,2.553-.038,3.322-.183,5.319.556,1.067.396,2.096,1.44,2.758,2.393" style="fill: #30ba78;"/>
    </g>
    <g>
      <path d="M99.137,53.547c-2.08,0-3.894-.387-5.439-1.159-1.547-.773-2.867-1.801-3.96-3.08l3.04-3.04c1.093,1.12,2.16,1.92,3.2,2.399,1.039.48,2.146.721,3.319.721,1.573,0,2.807-.366,3.7-1.101.893-.733,1.339-1.687,1.339-2.859,0-.906-.254-1.646-.76-2.221-.506-.573-1.173-1.04-2-1.399-.827-.36-1.74-.681-2.74-.96-1-.28-1.993-.594-2.979-.94-.987-.346-1.895-.8-2.721-1.36-.826-.56-1.493-1.293-2-2.199s-.76-2.04-.76-3.4c0-1.76.4-3.273,1.2-4.54s1.939-2.246,3.42-2.939,3.193-1.04,5.14-1.04c1.813,0,3.446.319,4.9.96,1.453.64,2.646,1.493,3.58,2.56l-3.12,3.12c-.8-.826-1.627-1.446-2.48-1.86-.854-.413-1.826-.62-2.92-.62-1.467,0-2.64.354-3.52,1.061-.88.707-1.32,1.646-1.32,2.82,0,.854.253,1.547.76,2.079.507.534,1.181.954,2.021,1.261s1.76.587,2.76.84c1,.254,2.007.554,3.02.899,1.013.348,1.933.801,2.76,1.36.826.561,1.493,1.307,2,2.24.506.934.76,2.12.76,3.56,0,1.787-.427,3.34-1.28,4.66s-2.047,2.347-3.579,3.08c-1.534.733-3.314,1.1-5.34,1.1Z" style="fill: #0d322c;"/>
      <path d="M124.497,53.547c-3.279,0-5.906-.846-7.88-2.54-1.974-1.692-2.96-4.26-2.96-7.699v-18.32h4.92v17.92c0,2.027.533,3.547,1.601,4.561,1.065,1.014,2.506,1.52,4.319,1.52s3.26-.506,4.34-1.52,1.62-2.533,1.62-4.561v-17.92h4.92v18.32c0,2.267-.453,4.16-1.359,5.68-.907,1.52-2.174,2.66-3.8,3.42-1.627.76-3.534,1.14-5.721,1.14Z" style="fill: #0d322c;"/>
      <path d="M148.896,53.547c-2.08,0-3.894-.387-5.439-1.159-1.547-.773-2.867-1.801-3.96-3.08l3.04-3.04c1.093,1.12,2.16,1.92,3.2,2.399,1.039.48,2.146.721,3.319.721,1.573,0,2.807-.366,3.7-1.101.894-.733,1.34-1.687,1.34-2.859,0-.906-.254-1.646-.76-2.221-.507-.573-1.174-1.04-2-1.399-.827-.36-1.74-.681-2.74-.96-1-.28-1.993-.594-2.979-.94-.987-.346-1.895-.8-2.721-1.36-.826-.56-1.493-1.293-2-2.199s-.76-2.04-.76-3.4c0-1.76.4-3.273,1.2-4.54s1.939-2.246,3.42-2.939,3.193-1.04,5.14-1.04c1.813,0,3.446.319,4.9.96,1.453.64,2.646,1.493,3.58,2.56l-3.12,3.12c-.8-.826-1.627-1.446-2.48-1.86-.854-.413-1.826-.62-2.92-.62-1.467,0-2.64.354-3.52,1.061-.88.707-1.32,1.646-1.32,2.82,0,.854.253,1.547.76,2.079.507.534,1.181.954,2.021,1.261s1.76.587,2.76.84c1,.254,2.007.554,3.021.899,1.013.348,1.933.801,2.76,1.36.826.561,1.493,1.307,2,2.24.506.934.76,2.12.76,3.56,0,1.787-.427,3.34-1.28,4.66s-2.047,2.347-3.579,3.08c-1.534.733-3.314,1.1-5.341,1.1Z" style="fill: #0d322c;"/>
      <path d="M168.055,52.987c-1.359,0-2.474-.44-3.34-1.32s-1.3-2-1.3-3.359v-18.641c0-1.359.434-2.479,1.3-3.359s1.98-1.32,3.34-1.32h13.641v4.48h-12c-.4,0-.74.14-1.021.42s-.42.619-.42,1.02v16.16c0,.4.141.74.42,1.02s.62.42,1.021.42h12v4.48h-13.641ZM165.776,41.067v-4.28h15.08v4.28h-15.08Z" style="fill: #0d322c;"/>
      <path d="M200.295,52.987c-1.279,0-2.34-.42-3.18-1.26s-1.26-1.9-1.26-3.181v-19.119c0-1.28.42-2.341,1.26-3.181s1.9-1.26,3.18-1.26h12.92v3.12h-11.84c-.613,0-1.127.207-1.54.62s-.62.913-.62,1.5v17.52c0,.587.207,1.087.62,1.5.413.414.927.62,1.54.62h11.84v3.12h-12.92ZM197.575,40.467v-3h14.8v3h-14.8Z" style="fill: #0d322c;"/>
      <path d="M215.935,52.987l6.841-9.6-6.641-9.641h3.8l5,7.601,5-7.601h3.721l-6.641,9.641,6.761,9.6h-3.841l-5.119-7.48-5.08,7.48h-3.801Z" style="fill: #0d322c;"/>
      <path d="M245.216,53.387c-1.894,0-3.579-.413-5.06-1.24-1.48-.826-2.646-1.98-3.5-3.46-.854-1.48-1.28-3.181-1.28-5.101v-.479c0-1.92.427-3.613,1.28-5.08.854-1.466,2.02-2.613,3.5-3.44,1.48-.826,3.166-1.239,5.06-1.239,1.413,0,2.7.253,3.86.76s2.14,1.24,2.94,2.2l-2,2c-.614-.641-1.32-1.127-2.12-1.46s-1.694-.5-2.681-.5c-1.253,0-2.387.279-3.399.84-1.014.56-1.807,1.347-2.38,2.359-.574,1.015-.86,2.2-.86,3.561v.479c0,1.36.293,2.547.88,3.561s1.38,1.807,2.38,2.38,2.141.86,3.42.86c.96,0,1.847-.153,2.66-.46s1.54-.794,2.181-1.46l1.96,1.96c-.774.934-1.754,1.659-2.94,2.18-1.187.52-2.487.78-3.9.78Z" style="fill: #0d322c;"/>
      <path d="M256.176,52.987v-29.2h3.12v15.16h-.88c.293-1.093.713-2,1.26-2.72.546-.721,1.16-1.293,1.84-1.721.68-.426,1.38-.726,2.101-.899.72-.173,1.399-.26,2.04-.26,2.159,0,3.913.693,5.26,2.08,1.346,1.387,2.02,3.467,2.02,6.239v11.32h-3.24v-10.84c0-2.054-.46-3.54-1.38-4.46s-2.087-1.38-3.5-1.38c-.986,0-1.887.227-2.699.68-.814.454-1.468,1.113-1.96,1.98-.494.866-.74,1.939-.74,3.22v10.8h-3.24Z" style="fill: #0d322c;"/>
      <path d="M284.615,53.387c-2.267,0-4.066-.521-5.4-1.561-1.333-1.04-2-2.413-2-4.12,0-1.093.301-2.093.9-3,.6-.906,1.48-1.626,2.64-2.16,1.16-.532,2.566-.8,4.221-.8,2.213,0,3.933.5,5.16,1.5,1.226,1,1.84,2.327,1.84,3.98h-.641c0,1.974-.56,3.493-1.68,4.56-1.12,1.067-2.8,1.601-5.04,1.601ZM290.295,52.987v-7.28l-.399-1.08v-4.08c0-1.439-.374-2.513-1.12-3.22-.747-.706-1.867-1.06-3.36-1.06-.986,0-2.026.2-3.12.6-1.094.4-2.066.987-2.92,1.76l-1.52-2.279c.933-.96,2.08-1.7,3.439-2.221,1.36-.52,2.773-.779,4.24-.779,1.493,0,2.807.267,3.94.8,1.133.533,2.02,1.327,2.66,2.38.64,1.054.96,2.38.96,3.979v6.16c0,1.067.006,2.12.02,3.16.013,1.04.046,2.094.1,3.16h-2.92ZM285.215,50.947c1.44,0,2.58-.3,3.421-.9.84-.6,1.26-1.406,1.26-2.42s-.414-1.812-1.24-2.399c-.827-.587-1.974-.88-3.44-.88s-2.626.293-3.479.88-1.28,1.387-1.28,2.399.434,1.82,1.3,2.42c.866.601,2.021.9,3.46.9Z" style="fill: #0d322c;"/>
      <path d="M298.895,52.987v-19.24h3.12v5.2h-.88c.293-1.093.713-2,1.26-2.72.546-.721,1.16-1.293,1.84-1.721.68-.426,1.38-.726,2.101-.899.72-.173,1.399-.26,2.04-.26,2.159,0,3.913.693,5.26,2.08,1.346,1.387,2.02,3.467,2.02,6.239v11.32h-3.24v-10.84c0-2.054-.46-3.54-1.38-4.46s-2.087-1.38-3.5-1.38c-.986,0-1.887.227-2.699.68-.814.454-1.468,1.113-1.96,1.98-.494.866-.74,1.939-.74,3.22v10.8h-3.24Z" style="fill: #0d322c;"/>
      <path d="M319.495,60.987v-2.72h11.479c.906,0,1.613-.221,2.12-.66.507-.44.761-1.061.761-1.86,0-.747-.254-1.326-.761-1.74-.507-.413-1.214-.619-2.12-.619h-6.319c-.987,0-1.747-.24-2.28-.721-.534-.479-.834-1.08-.9-1.8s.087-1.439.46-2.16l1.801-3.6,2.76.72-1.64,3.2c-.107.24-.181.5-.221.78-.04.279.033.514.221.699.186.188.492.28.92.28h5.64c1.653,0,2.979.42,3.979,1.26,1,.841,1.5,2.087,1.5,3.74,0,1.014-.233,1.913-.699,2.7-.467.786-1.12,1.4-1.96,1.84-.841.44-1.834.66-2.98.66h-11.76ZM328.295,47.427c-1.6,0-3.02-.301-4.26-.9s-2.214-1.427-2.92-2.48c-.707-1.053-1.061-2.246-1.061-3.579v-.36c0-1.333.354-2.507,1.061-3.521.706-1.013,1.68-1.806,2.92-2.38,1.24-.573,2.66-.859,4.26-.859s3.021.286,4.26.859c1.24.574,2.214,1.36,2.92,2.36.707,1,1.061,2.153,1.061,3.46v.44c0,1.333-.354,2.526-1.061,3.579-.706,1.054-1.68,1.881-2.92,2.48-1.239.6-2.66.9-4.26.9ZM328.295,44.907c1.493,0,2.713-.42,3.66-1.26.946-.84,1.42-1.9,1.42-3.18v-.32c0-1.227-.474-2.227-1.42-3-.947-.773-2.167-1.16-3.66-1.16s-2.714.394-3.66,1.18c-.946.787-1.42,1.808-1.42,3.061v.24c0,1.279.474,2.34,1.42,3.18.946.84,2.166,1.26,3.66,1.26ZM328.175,35.427l2.96-6.08h3.24l-3.28,6.08h-2.92Z" style="fill: #0d322c;"/>
      <path d="M349.455,53.387c-1.895,0-3.567-.42-5.021-1.261-1.453-.84-2.587-2.006-3.399-3.5-.814-1.493-1.221-3.213-1.221-5.159v-.4c0-1.866.373-3.526,1.12-4.98.746-1.453,1.8-2.605,3.16-3.46,1.36-.853,2.934-1.279,4.72-1.279,1.84,0,3.413.453,4.721,1.359,1.306.907,2.272,2.188,2.899,3.84.626,1.654.807,3.587.54,5.801h-14.84v-2.641h13.12l-1.44,1.4c.187-1.467.087-2.713-.3-3.74-.387-1.026-.979-1.82-1.78-2.38-.8-.56-1.76-.84-2.88-.84-1.227,0-2.273.294-3.14.88-.867.587-1.534,1.394-2,2.42-.467,1.027-.7,2.233-.7,3.62v.4c0,1.333.267,2.526.8,3.579.533,1.054,1.293,1.881,2.28,2.48.986.6,2.16.9,3.52.9,1.014,0,1.906-.127,2.681-.381.772-.253,1.453-.633,2.04-1.14l1.84,2c-.747.8-1.7,1.414-2.86,1.84-1.16.427-2.446.641-3.859.641Z" style="fill: #0d322c;"/>
    </g>
  </g>
  <g id="Location">
    <g>
      <path d="M91.045,86.987v-19.6h2.492l6.496,13.075h-.84l6.468-13.075h2.492v19.6h-1.82v-18.368h.588l-6.552,13.44h-1.54l-6.523-13.44h.588v18.368h-1.849Z" style="fill: #0d322c;"/>
      <path d="M116.805,87.267c-1.567,0-2.813-.359-3.737-1.078s-1.387-1.666-1.387-2.842c0-.766.206-1.451.616-2.059.41-.606,1.018-1.087,1.82-1.441s1.764-.532,2.884-.532c1.55,0,2.748.346,3.599,1.036.849.69,1.273,1.605,1.273,2.744h-.336c0,1.307-.392,2.328-1.176,3.065-.784.738-1.97,1.106-3.557,1.106ZM120.921,86.987l-.027-4.872-.196-.532v-3.275c0-1.157-.29-2.007-.868-2.548-.579-.542-1.419-.812-2.52-.812-.729,0-1.48.14-2.255.42s-1.451.71-2.029,1.288l-.868-1.26c.634-.69,1.414-1.209,2.338-1.555.924-.345,1.881-.518,2.87-.518,1.008,0,1.895.182,2.66.546.765.364,1.362.91,1.792,1.638.429.729.644,1.652.644,2.772v4.256c0,.747.005,1.489.015,2.227.009.737.032,1.479.069,2.226h-1.624ZM117.141,85.895c1.119,0,1.992-.238,2.617-.714.626-.477.938-1.097.938-1.862,0-.784-.312-1.404-.938-1.862-.625-.457-1.507-.686-2.646-.686-1.12,0-2.007.229-2.66.686-.653.458-.98,1.078-.98,1.862,0,.766.327,1.386.98,1.862.653.476,1.549.714,2.688.714Z" style="fill: #0d322c;"/>
      <path d="M132.093,87.267c-1.214,0-2.296-.294-3.248-.882-.952-.589-1.693-1.4-2.226-2.437s-.798-2.235-.798-3.598v-.252c0-1.325.271-2.497.812-3.515.541-1.017,1.283-1.814,2.227-2.394.942-.578,2.02-.868,3.233-.868s2.277.317,3.192.952c.914.635,1.605,1.484,2.072,2.548l-.337.42v-10.696h1.792v20.44h-1.624v-3.752l.309.364c-.485,1.139-1.195,2.034-2.128,2.688-.934.654-2.025.98-3.276.98ZM132.317,85.671c.933,0,1.764-.224,2.491-.672.729-.447,1.298-1.078,1.708-1.89.411-.812.616-1.75.616-2.814s-.205-1.997-.616-2.8c-.41-.802-.979-1.433-1.708-1.89-.728-.457-1.559-.687-2.491-.687-.915,0-1.732.22-2.45.658-.719.439-1.274,1.046-1.666,1.82-.393.774-.588,1.676-.588,2.702v.252c0,1.063.195,1.992.588,2.786.392.793.947,1.414,1.666,1.861.718.448,1.535.672,2.45.672Z" style="fill: #0d322c;"/>
      <path d="M143.236,86.987v-13.384h1.736v3.191l-.28-.027c.168-.858.443-1.517.826-1.975.383-.457.85-.774,1.4-.952.55-.177,1.152-.266,1.806-.266h1.148v1.764h-1.288c-1.102,0-1.97.28-2.604.841-.635.56-.952,1.456-.952,2.688v8.12h-1.792Z" style="fill: #0d322c;"/>
      <path d="M153.709,86.987v-12.6l.812.783h-3.472v-1.567h4.452v13.384h-1.792ZM153.652,70.523v-3.024h1.904v3.024h-1.904Z" style="fill: #0d322c;"/>
      <path d="M165.272,87.267c-1.214,0-2.296-.294-3.248-.882-.952-.589-1.693-1.4-2.226-2.437s-.798-2.235-.798-3.598v-.252c0-1.325.271-2.497.812-3.515.541-1.017,1.283-1.814,2.227-2.394.942-.578,2.02-.868,3.233-.868s2.277.317,3.192.952c.914.635,1.605,1.484,2.072,2.548l-.337.42v-10.696h1.792v20.44h-1.624v-3.752l.309.364c-.485,1.139-1.195,2.034-2.128,2.688-.934.654-2.025.98-3.276.98ZM165.497,85.671c.933,0,1.764-.224,2.491-.672.729-.447,1.298-1.078,1.708-1.89.411-.812.616-1.75.616-2.814s-.205-1.997-.616-2.8c-.41-.802-.979-1.433-1.708-1.89-.728-.457-1.559-.687-2.491-.687-.915,0-1.732.22-2.45.658-.719.439-1.274,1.046-1.666,1.82-.393.774-.588,1.676-.588,2.702v.252c0,1.063.195,1.992.588,2.786.392.793.947,1.414,1.666,1.861.718.448,1.535.672,2.45.672Z" style="fill: #0d322c;"/>
    </g>
  </g>
</svg>