<svg xmlns="http://www.w3.org/2000/svg" xml:space="preserve" width="1478.982" height="606.342" viewBox="0 0 391.314 160.428"><path d="M-109.008 152.653c0-1.537.695-4.703 1.77-8.058 3.473-10.838 9.678-22.618 18.258-34.66 6.167-8.658 15.396-18.343 25.8-27.077l2.305-1.935 2.59 2.618a76 76 0 0 0 9.554 8.135c1.19.853 2.164 1.65 2.164 1.772 0 .43-3.688 7.579-5.174 10.028-8.45 13.937-17.914 24.652-30.945 35.04-7.313 5.83-16.784 11.725-22.76 14.166-3.306 1.35-3.562 1.348-3.562-.029m14.26-20.578c5.152-8.149 13.85-18.998 21.836-27.239 3.59-3.703 11.142-10.792 13.236-12.424l1.228-.956-1.392-1.41c-.766-.776-1.532-1.41-1.703-1.41-.448 0-6.549 5.679-10.556 9.826-9.028 9.344-16.767 20.504-23.276 33.565-.98 1.965-1.665 3.453-1.524 3.307s1.11-1.612 2.15-3.26m210.407 16.335c-3.321-.32-7.256-1.428-10.223-2.877-8.009-3.914-12.316-11.227-13.64-23.163-.632-5.698-.258-23.941.55-26.851 1.03-3.707 3.639-5.159 9.254-5.15 4.334.007 6.341.745 7.525 2.765.631 1.078.626.847.299 13.89-.37 14.692.436 19.672 3.712 22.948 1.487 1.486 2.509 2.003 4.646 2.347 4.162.67 7.824-1.722 9.094-5.94 1.263-4.194 1.79-15.308 1.2-25.308-.709-12.002-.71-11.874.111-13.704 1.633-3.639 6.077-6.146 10.984-6.197 3.502-.036 4.857 1.075 5.677 4.656.96 4.194 1.61 29.567.932 36.45-.555 5.649-1.683 10.25-3.297 13.455-4.88 9.692-13.848 13.931-26.824 12.68m43.9-4.086c-2.897-.817-4.052-2.386-4.506-6.124-.138-1.14-.38-6-.537-10.803-.157-4.802-.399-11.648-.537-15.214-.87-22.452-1.048-30.817-.686-32.346.942-3.975 3.647-5.654 11.492-7.131 2.566-.483 4.063-.584 8.782-.593 6.405-.012 8.805.31 13.983 1.874 11.2 3.385 18.685 10.916 21.523 21.66.811 3.068.84 3.362.857 8.731.018 5.997-.236 7.91-1.618 12.171-3.035 9.36-10.311 17.22-20.59 22.242-4.4 2.15-11.034 4.187-17.198 5.282-3.533.627-9.172.756-10.965.251m19.108-19.992c3.477-1.133 5.738-2.557 8.532-5.375 1.87-1.886 2.605-2.855 3.388-4.47 2.753-5.684 2.813-12.151.161-17.423-1.787-3.554-5.869-6.64-10.31-7.797-2.178-.568-6.665-.642-7.876-.131-1.62.683-1.78 1.357-1.722 7.305.028 2.91.174 7.613.325 10.45.151 2.838.405 7.685.564 10.77.16 3.086.378 5.943.487 6.35.432 1.622 2.19 1.71 6.45.321M63.5 143.125c-6.198-.765-12.396-2.427-19.137-5.131-4.115-1.652-5.921-2.721-7.497-4.44-2.267-2.472-2.4-3.184-2.72-14.624-.687-24.484-.587-34.499.368-36.785 1.463-3.501 3.803-3.872 12.582-1.993 2.837.607 7.838 1.635 11.112 2.284 11.797 2.339 16.686 4.228 20.67 7.986 4.342 4.096 5.415 10.308 2.735 15.841-.759 1.566-2.706 3.495-4.383 4.34-.64.323-1.212.632-1.274.688-.221.2 1.208 1.492 2.894 2.614 4.992 3.321 7.669 8.262 7.669 14.153 0 9.405-6.342 14.932-17.463 15.22-1.964.05-4.465-.018-5.556-.153m2.439-14.483c1.427-.638 2.006-1.29 2.437-2.741.336-1.129.338-1.368.028-3.037-.397-2.138-3.116-4.431-6.545-5.52-1.912-.606-8.425-1.716-10.09-1.72h-.752l.09 5.264c.106 6.184.056 6.069 2.976 6.939 5.124 1.526 9.583 1.832 11.856.815zm-3.173-24.361c1.586-.768 2.376-2 2.403-3.743.023-1.576-.749-2.798-2.602-4.116-1.493-1.061-2.913-1.552-6.047-2.091-5.438-.935-5.588-.81-5.588 4.644 0 4.814-.047 4.742 3.572 5.518 3.334.714 6.517.633 8.262-.212m-126.79 25.189c5.103-5.236 9.23-10.203 12.658-15.236l.856-1.257 12.886-.003c21.668-.004 25.584-.615 29.57-4.609 2.47-2.474 3.56-5.318 3.552-9.268-.01-5.09-1.902-8.876-5.649-11.297-1.332-.862-2.269-1.24-4.894-1.98-.223-.063.64-1.144 2.249-2.815C-2.015 71.796 4.709 55.337 7.008 34.528c.209-1.892.4-4.481.426-5.755.025-1.273.131-2.315.235-2.315.259 0 2.632 2.773 3.624 4.234 2.046 3.014 3.799 7.412 4.468 11.215.498 2.832.484 8.266-.03 11.047-1.48 8.004-5.455 14.37-11.432 18.301-.909.599-1.653 1.157-1.653 1.24 0 .084.803.546 1.786 1.028C15.522 78.96 21.56 89.385 21.08 102.26c-.25 6.705-1.921 11.894-5.4 16.77-5.166 7.239-14.963 12.226-26.529 13.503-1.382.153-3.109.35-3.836.437-.728.087-12.989.22-27.247.294l-25.923.135zm22.308-40.033c-1.237-.29-2.85-1.308-6.189-3.903-3.65-2.838-9.385-8.529-9.613-9.54-.09-.396-.235-2.268-.324-4.16-.497-10.625 3.44-20.836 11.074-28.714 4.134-4.267 9.108-7.964 17.43-12.957 2.873-1.724 7.516-4.996 10.288-7.25 6.51-5.294 11.307-11.349 14.698-18.547 1.539-3.268 3.147-7.828 3.431-9.727.104-.693.272-1.312.374-1.375.256-.158 1.29 8.43 1.783 14.806.554 7.189.346 20.823-.417 27.252-.953 8.031-1.866 12.321-4.028 18.918-2.408 7.35-4.623 12.067-8.161 17.387-6.359 9.558-14.298 15.266-23.973 17.234-3.198.65-5.26.837-6.373.576m3.748-7.83c2.71-.47 6.347-1.622 8.397-2.66 7.765-3.926 13.138-12.291 15.806-24.605.304-1.405.5-2.607.436-2.671-.064-.065-.202.16-.307.498-.412 1.327-4.225 8.675-5.607 10.802-5.259 8.098-11.307 13.643-19.21 17.61-1.576.792-2.647 1.44-2.38 1.439s1.556-.187 2.865-.414m3.351-32.237c2.715-4.13 5.702-6.729 11.437-9.954 9.833-5.53 16.592-13.245 19.047-21.742.63-2.185 1.571-7.095 1.393-7.273-.052-.052-.47.959-.93 2.245s-1.48 3.462-2.265 4.834c-3.75 6.55-7.848 10.702-16.144 16.358-7.603 5.184-10.465 8.477-13.274 15.273-1.165 2.82-1.398 3.575-.813 2.64.173-.277.87-1.349 1.55-2.381m-44.229 2.224V14.552l30.097.01 30.096.01-1.323 1.191c-3.525 3.174-8.01 6.394-14.155 10.165-4.466 2.74-5.99 3.763-9.726 6.528l-2.978 2.204h-6.611v6.714l-1.154 1.472c-3.931 5.01-7.025 11.653-8.424 18.09-.498 2.286-.594 3.614-.636 8.733l-.05 6.038-3.4 2.776c-4.12 3.362-6.704 5.615-9.412 8.202-1.122 1.073-2.105 1.95-2.182 1.95-.078 0-.142-16.668-.142-37.041M88.732 82.526c-1.506-.436-3.346-1.89-3.987-3.151-1.084-2.131-1.038-1.424-1.94-29.766-.148-4.656-.383-11.681-.521-15.61-.139-3.93-.284-10.31-.324-14.18l-.071-7.038.926-1.805c.7-1.366 1.236-2.018 2.203-2.68 3.679-2.523 14.962-4.294 22.685-3.56 9.257.877 15.928 6.34 18.289 14.975.486 1.782.58 2.83.587 6.615.01 5.112-.25 6.451-1.976 10.145-1.452 3.107-2.956 5.095-6.197 8.19l-2.814 2.686.541 1.223c1.934 4.371 8.067 12.117 12.687 16.025 3.565 3.014 3.588 5.708.079 9.035-5.358 5.08-11.222 4.156-16.151-2.544-1.84-2.5-6.73-10.197-9.443-14.862-1.885-3.241-2.156-3.572-2.924-3.572-.898 0-1.954.554-1.973 1.035-.06 1.498.072 6.14.29 10.21.14 2.62.28 6.727.308 9.128.05 4.273.036 4.398-.678 5.881-.838 1.74-2.134 2.924-3.838 3.504-1.291.44-4.423.503-5.758.116m13.002-44.834c3.997-1.042 7.422-3.788 8.579-6.88.792-2.116.799-5.254.016-6.872-.732-1.513-2.347-2.894-4.07-3.481-2.391-.816-7.78-.445-8.644.595-.442.532-.228 15.62.233 16.45.406.73 1.585.787 3.886.188m135.92 40.872c-3.423-.602-5.123-2.364-6.04-6.256-.335-1.422-.39-2.597-.26-5.633l.819-19.182c.69-16.171 1.33-28.775 1.708-33.56.19-2.408.36-3.138 1.06-4.562 1.388-2.819 3.08-3.684 6.853-3.502 1.903.091 2.523.24 3.719.89 1.46.796 2.652 2.147 3.372 3.824.636 1.484.7 4.445.247 11.473-.233 3.617-.424 7.57-.424 8.785v2.208l.86.144c1.244.209 9.316.885 13.069 1.095l3.213.18.157-3.013c.087-1.657.285-5.513.44-8.569.355-6.982.56-8.086 1.739-9.391 1.307-1.448 2.45-1.906 4.746-1.906 4.018 0 7.424 1.82 8.756 4.68.523 1.124.617 1.75.618 4.104 0 1.528-.115 4.088-.255 5.688-.494 5.648-1.096 19.201-1.427 32.147-.327 12.811-.348 13.128-.958 14.518-.772 1.761-2.06 2.748-4.616 3.536-4.089 1.262-7.636.553-9.145-1.826-1.287-2.03-1.436-3.724-1.089-12.369.17-4.232.337-8.707.37-9.944l.059-2.249-3.371-.163c-1.854-.09-5.797-.25-8.761-.355l-5.39-.192-.18 4.324c-.098 2.378-.287 7.666-.42 11.751-.213 6.626-.302 7.598-.818 8.996-1.267 3.43-4.516 5.057-8.652 4.33M54.391 73.517c-4.064-.521-13.105-3.247-16.568-4.996-3.378-1.705-4.838-3.83-5.273-7.673-1.829-16.184-2.747-37.112-1.766-40.289.59-1.91 2.132-3.75 4.219-5.03 1.272-.781 5.059-1.935 9.578-2.917 6.335-1.377 8.248-1.59 12.859-1.435 3.424.115 4.416.247 6.212.827 3.898 1.259 6.866 3.725 8.32 6.914 2.123 4.659 2.073 10.849-.123 15.183-.375.74-1.394 2.073-2.266 2.963-.871.89-1.523 1.717-1.45 1.837.075.12 1.057.865 2.183 1.656 3.677 2.583 5.285 4.785 6.845 9.372.567 1.667.726 2.713.832 5.469.269 6.996-1.424 11.575-5.494 14.864-3.399 2.746-6.359 3.578-12.529 3.523-2.06-.018-4.571-.139-5.579-.268m4.173-14.31c1.677-.502 3.224-2.163 3.578-3.843.838-3.97-2.006-7.74-6.416-8.508-2.59-.45-8.489-.383-8.892.103-.258.311-.234 1.416.117 5.358.244 2.73.498 5.159.566 5.396.338 1.191 8.412 2.284 11.047 1.495M51.66 34.95c2.526-.294 4.48-1.308 5.622-2.92.69-.974.794-1.349.794-2.882 0-2.248-.66-3.27-2.718-4.212-1.315-.602-1.683-.65-4.125-.54-3.252.148-5.07.808-5.356 1.947-.279 1.111.065 8.015.42 8.443s1.373.628 2.519.495zm154.054 35.266c-10.212-1.033-19.708-5.872-22.388-11.409-1.19-2.46-.209-6.064 2.515-9.23 2.355-2.738 4.885-2.547 9.626.728 2.174 1.501 5.666 3.19 7.52 3.636 5.327 1.282 8.832-2.066 6.232-5.955-1.17-1.751-3.541-3.454-9.114-6.548-5.57-3.093-7.595-4.479-9.737-6.667-2.849-2.91-4.352-6.29-4.756-10.694-.214-2.334.355-6.364 1.202-8.513 1.819-4.614 6.178-8.48 11.534-10.226 3.68-1.2 10.119-1.4 14.603-.453 5.36 1.132 11.083 4.544 12.488 7.447 1.554 3.21-.883 9.7-4.173 11.114-1.41.607-3.469.464-4.837-.335-3.748-2.19-4.495-2.58-5.796-3.033-.916-.32-2.153-.499-3.44-.498-2.638 0-3.647.494-4.493 2.2-.575 1.16-.602 1.372-.301 2.377.563 1.88 1.745 2.732 9.676 6.983 4.882 2.617 6.966 4.059 9.312 6.445 4.005 4.073 5.608 7.883 5.618 13.347.014 7.638-3.76 14.461-9.576 17.313-1.205.591-3.034 1.247-4.065 1.46-2.042.418-5.968.681-7.65.51M150.68 65.32c-5.407-.67-10.502-3.763-13.591-8.253-2.119-3.08-3.904-8.521-4.79-14.602-.504-3.471-.577-5.098-.575-12.965.003-16.701.573-19.482 4.386-21.425 1.43-.729 1.795-.799 4.101-.789 3.017.014 4.769.649 6.22 2.255 1.488 1.648 1.542 2.179 1.202 11.982-.448 12.917.16 20.375 1.947 23.901 2.582 5.095 9.665 5.111 12.24.028 1.865-3.679 2.386-9.114 2.063-21.508-.37-14.24-.341-15.683.346-16.966 1.17-2.19 3.457-3.496 6.528-3.728 3.444-.26 6.093.982 7.351 3.449 2.064 4.045 2.359 28.847.46 38.731-1.197 6.234-2.912 9.63-6.853 13.571-1.91 1.91-3.022 2.78-4.63 3.62-4.57 2.39-10.72 3.402-16.405 2.699" style="fill:#bababa" transform="translate(109.008 6.738)"/></svg>