<svg xmlns="http://www.w3.org/2000/svg" xml:space="preserve" width="1879.472" height="537.558" viewBox="0 0 497.277 142.229"><path d="M46.1 151.276c-1.448-2.318-4.009-4.875-6.685-6.676-1.389-.934-2.912-1.847-3.385-2.028l-.86-.33.969-.372c1.486-.57 5.118-.867 9.068-.74 1.966.063 8.146.22 13.735.35 14.281.332 14.788.357 16.846.832 10.04 2.319 16.7 9.765 18.118 20.256.365 2.699.336 7.178-.065 10.082-.53 3.839-.37 3.677-3.56 3.594-4.328-.112-5.218-.28-7.004-1.32l-1.603-.934.368-2.232c.807-4.886.227-9.938-1.47-12.827-1.71-2.907-4.797-5.04-8.038-5.55-.82-.128-6.762-.33-13.206-.448s-11.9-.29-12.125-.38c-.226-.092-.722-.667-1.103-1.277" style="fill:#bababa;fill-opacity:1" transform="translate(228.49 -138.65)"/><path d="M70.875 183.894c-4.922-4.587-7.474-11.102-7.49-19.125-.005-2.913.516-7.783.894-8.354.181-.273 5.259-.319 7.345-.066.727.088 1.929.47 2.67.85l1.348.689-.34 3.196c-.408 3.818-.193 7.572.555 9.716 1.382 3.96 5.219 7.257 9.568 8.219 1.375.304 30.903.884 33.743.663 3.281-.256 6.439-1.728 8.568-3.996 2.241-2.386 3.47-6.554 3.463-11.745s-1.817-8.918-5.503-11.332c-2.942-1.926-3.81-2.028-19.024-2.225l-13.957-.18-1.302-1.654c-.717-.909-1.869-2.2-2.56-2.87-1.698-1.644-6.008-4.442-7.711-5.007-.752-.25-1.312-.536-1.244-.637.29-.438 6.058-1.354 8.691-1.38 6.8-.069 30.683.57 33.373.894 4.427.53 6.101 1.185 10.464 4.088 3.522 2.344 3.684 2.484 5.251 4.528 2.259 2.947 3.549 5.642 4.354 9.099 1.1 4.722.917 11.551-.436 16.262-3.012 10.482-11.71 17.255-22.63 17.622-1.793.06-27.422-.377-32.427-.553-2.28-.08-5.901-.923-8.343-1.942-1.996-.833-5.669-3.221-7.32-4.76M35.172 175.465c.482-1.59.7-3.613.732-6.778.081-8.285-3.551-13.193-10.477-14.152-1.148-.16-6.862-.371-12.698-.471l-10.61-.182-1.752-2.24c-2.438-3.116-3.933-4.452-7.355-6.57l-2.937-1.817 2.838-.512c2.89-.522 4.914-.524 24.576-.024 11.558.295 14.73.992 19.808 4.358 5.017 3.326 7.96 7.43 9.525 13.281 1.06 3.963 1.099 12.283.078 16.539l-.52 2.166-2.436-.014c-3.632-.02-5.476-.387-7.435-1.483l-1.689-.944z" style="fill:#bababa;fill-opacity:1" transform="translate(228.49 -138.65)"/><path d="M25.098 187.51c-2.786-2.401-5.035-5.625-6.403-9.18-2.058-5.347-2.409-12.82-.891-19.006l.482-1.966 2.17-.06c4.032-.114 6.602.447 8.833 1.925.558.37.679.588.488.88-.416.637-1.021 4.623-1.095 7.209-.088 3.113.662 6.772 1.774 8.647 2.24 3.782 6.22 5.958 11.371 6.218 1.087.055 6.824.171 12.749.258l10.773.16.95 1.223c1.175 1.515 4.349 4.406 6.119 5.573 1.292.852 3.99 2.215 5.31 2.68.604.214.5.284-1.317.885-1.085.359-2.978.75-4.207.869-2.398.232-31.719-.166-34.162-.464-2.52-.307-5.743-1.38-8.381-2.79-1.389-.742-2.665-1.46-2.837-1.596s-.949-.795-1.726-1.466M-10.174 177.465c-.015-.25.167-1.327.406-2.393 1.108-4.953.619-10.352-1.224-13.512-1.396-2.394-2.986-3.897-5.108-4.827-2.35-1.03-3.8-1.198-11.536-1.34l-6.96-.129-1.169-1.736c-1.897-2.82-3.989-4.907-6.887-6.874-1.566-1.063-2.487-1.812-2.357-1.915 1.1-.87 22.248-1.01 27.822-.184 3.846.57 6.346 1.617 9.792 4.099 3.282 2.364 4.468 3.613 6.332 6.661 3.047 4.985 4.07 10.596 3.359 18.412-.186 2.04-.89 5.705-1.18 6.142-.157.238-5.873.07-7.316-.215-1.599-.316-3.938-1.604-3.974-2.189" style="fill:#bababa;fill-opacity:1" transform="translate(228.49 -138.65)"/><path d="M-19.45 189.07c-5.97-4.654-9.275-12.54-8.9-21.232.173-4.013.978-9.148 1.45-9.243.063-.013 1.66-.007 3.548.013 3.656.04 5.664.487 7.06 1.57.863.67.863.672.428 2.667-1.39 6.366-.352 12.757 2.618 16.106 1.093 1.233 3.916 3.037 5.505 3.52 1.554.47 5.579.694 15.76.874 4.055.071 7.87.148 8.477.171l1.103.041 1.22 1.723c1.85 2.615 3.914 4.594 6.876 6.596 1.447.978 2.978 1.9 3.403 2.049.678.238.44.333-1.945.777-1.938.361-4.512.465-8.968.36a7758 7758 0 0 0-15.32-.337c-5.356-.113-9.994-.377-11.329-.645-4.386-.881-7.527-2.313-10.986-5.01M-53.337 189.947c-2.73-2.345-5.717-6.744-6.933-10.214-1.39-3.969-2.039-10.568-1.487-15.13.284-2.345.967-4.995 1.359-5.275.185-.132 1.451-.099 2.814.073 2.25.283 2.63.413 4.146 1.418 1.39.922 1.831 1.372 2.636 2.692.949 1.554.962 1.64.72 4.558-.394 4.737.778 9.014 3.225 11.773 1.021 1.152 3.658 2.89 5.251 3.463 1.73.621 3.867.851 9.195.99l4.548.118 1.569 2.017c2.386 3.067 4.184 4.747 7.323 6.844l2.814 1.88-2.255.375c-2.616.437-5.63.506-13.435.308-6.156-.155-9.732-.501-12.276-1.187-3.254-.877-6.961-2.77-9.214-4.703" style="fill:#bababa;fill-opacity:1" transform="translate(228.49 -138.65)"/><path d="M-96.768 190.092c-6.298-5.752-8.72-14.095-7.24-24.95.572-4.205 1.418-6.575 3.48-9.755 1.558-2.405 3.668-4.874 4.762-5.572.268-.172 1.145-.77 1.95-1.331 3.072-2.143 7.238-3.56 11.299-3.844 2.268-.158 23.847.066 26.335.275 4.502.376 9.347 2.365 12.975 5.328 6.583 5.374 9.124 12.739 8.244 23.898-.154 1.955-1.036 6.172-1.409 6.734-.28.424-3.175-.052-4.97-.818-1.879-.801-3.321-2.109-4.606-4.177-.69-1.11-.784-1.541-.624-2.874.3-2.512.204-5.71-.226-7.519-.963-4.05-4.011-7.459-7.673-8.58-2.028-.621-3.038-.704-9.764-.801-18.307-.264-19.905-.154-22.702 1.567-3.326 2.046-5.137 5.219-5.669 9.933-.82 7.27.636 11.732 4.864 14.908 1.947 1.463 3.925 2.214 6.19 2.35.755.046 4.987.127 9.403.181 4.416.055 8.67.112 9.456.129l1.427.03.85 1.323c1.761 2.744 5.106 6.125 7.95 8.035l1.673 1.124-2.486.408c-1.367.225-3.338.447-4.38.494-2.33.105-20.21-.107-24.016-.285-3.283-.153-6.842-1.057-9.638-2.447-2.487-1.236-3.308-1.803-5.455-3.764M-80.08 268.3c5.889-1.839 9.532-8.337 8.572-15.288-.577-4.182-3.42-8.295-6.894-9.973-4.426-2.138-9.875-1.344-13.355 1.947-3.053 2.888-4.192 5.678-4.203 10.302-.006 2.481.102 3.36.587 4.763 1.405 4.065 4.471 7.127 8.372 8.36 1.61.51 5.114.453 6.922-.111m-8.826 12.39c-7.267-1.025-14.071-6.348-17.444-13.647-2.759-5.972-3.244-13.974-1.234-20.348 2.12-6.722 6.367-11.754 12.272-14.544 3.369-1.59 4.839-1.867 9.899-1.86 4.193.007 4.629.055 6.438.71 2.55.922 4.567 2.146 6.304 3.825l1.413 1.366v-4.981h12.435v48.683h-12.435v-5.067l-1.786 1.49c-2.025 1.69-5.26 3.38-7.607 3.974-1.989.505-6.098.703-8.255.399m143.108-.018c-12.672-1.188-24.103-10.335-28.187-22.555-1.359-4.067-1.626-5.989-1.626-11.693 0-4.067.108-5.793.468-7.459 2.825-13.086 11.94-22.769 24.403-25.923 3.252-.823 10.381-1.146 13.914-.629 8.76 1.28 16.784 6.153 21.547 13.084 1.327 1.931 2.164 3.52 1.947 3.698s-9.159 5.16-10.212 5.69c-.613.307-1.208.556-1.323.551-.115-.004-.62-.726-1.123-1.604-1.124-1.961-4.327-5.05-6.635-6.398-4.166-2.433-10.01-3.18-14.94-1.91-6.7 1.726-12.136 7.16-14.165 14.16-.874 3.016-1.005 8.3-.29 11.768 1.333 6.478 5.98 12.35 11.642 14.707 3.047 1.27 5.234 1.635 8.898 1.488 3.686-.148 6.335-.872 9.124-2.496 2.238-1.304 5.163-4.246 6.46-6.5.568-.987 1.128-1.853 1.244-1.925.227-.14 11.88 5.607 11.88 5.858 0 .083-.321.707-.713 1.388-4.419 7.679-10.179 12.586-17.75 15.123-4.248 1.423-9.797 2.024-14.563 1.577m118.54-12.415c4.27-1.318 7.286-5.029 8.302-10.213 1.19-6.066-1.634-12.444-6.588-14.883-7.424-3.655-15.763.546-17.508 8.82-1.544 7.322 1.956 14.076 8.46 16.325 1.856.642 5.17.62 7.334-.049m-9.05 12.387c-5.53-.784-11.52-4.53-14.968-9.36-4.591-6.435-6.046-15.64-3.781-23.933 1.232-4.512 4.486-9.6 7.943-12.417 1.915-1.562 5.692-3.516 8.028-4.153 2.347-.64 8.468-.785 10.955-.26 3.397.718 6.51 2.474 8.68 4.9l.85.95.01-2.58.01-2.58h12.435v48.683H181.42v-2.513c0-1.383-.096-2.514-.213-2.514s-.623.424-1.124.942c-3.831 3.96-9.912 5.753-16.39 4.835zm-364.952-.378c-8.461-1.53-16.731-6.973-21.465-14.13-3.961-5.99-5.76-12.139-5.765-19.711-.006-7.724 1.729-13.679 5.738-19.702 5.115-7.683 12.67-12.624 21.629-14.145 3.326-.565 9.594-.572 12.786-.014 6.39 1.117 12.45 4.213 16.851 8.612 2.443 2.441 5.967 7.62 5.465 8.032-.146.12-5.968 3.418-8.624 4.884-1.346.744-2.55 1.352-2.674 1.352s-.658-.7-1.186-1.555c-1.492-2.417-4.992-5.565-7.624-6.856-3.253-1.596-5.069-2.006-8.954-2.02-3.747-.013-5.604.376-8.6 1.803-4.109 1.957-7.238 5.098-9.255 9.29-1.515 3.148-2.003 5.168-2.174 8.996-.285 6.397 1.327 11.28 5.313 16.097 2.269 2.74 6.786 5.362 10.538 6.115 8.604 1.728 16.907-1.9 21.094-9.217.467-.817.902-1.486.965-1.486s2.735 1.31 5.936 2.913l5.821 2.913-.767 1.519c-3.592 7.105-11.073 13.266-18.817 15.495-4.334 1.247-11.77 1.62-16.23.815m41.631-33.841v-33.47h12.7v23.16l1.717-1.642c3.144-3.007 6.727-4.32 11.79-4.32 5.622 0 9.366 1.396 12.71 4.74 3.019 3.02 4.541 6.115 5.384 10.95.314 1.799.399 5.401.426 18.083l.033 15.836-6.222.07-6.223.072-.1-14.755c-.089-13.01-.155-14.944-.558-16.343-.889-3.078-2.695-5.344-5.11-6.409-1.578-.696-5.602-.61-7.566.162-1.863.732-3.841 2.584-4.818 4.51-1.351 2.668-1.463 4.125-1.463 19.09v13.735h-12.7zm109.273 9.128V231.21h12.965v48.683h-12.965zm21.696 0V231.21h12.435v4.809l1.715-1.571c3.315-3.037 6.812-4.3 11.887-4.292 3.583.006 6.001.49 8.598 1.724 4.739 2.25 7.787 6.182 9.327 12.03.579 2.196.595 2.648.685 19.12l.093 16.873-6.297-.071-6.296-.071-.144-15.081c-.109-11.46-.227-15.336-.492-16.14-.942-2.852-2.703-5.019-4.86-5.98-1.127-.502-1.85-.618-3.903-.625-2.321-.008-2.657.059-4.28.858-2.46 1.21-4.074 3.196-5.18 6.37-.371 1.063-.441 3.225-.521 15.98l-.092 14.75H-28.66zm121.708-9.129v-33.47h12.436v23.296l1.42-1.422c1.714-1.713 3.932-3.098 6.252-3.902 2.329-.807 7.697-1.01 10.584-.4 5.961 1.259 10.559 5.392 12.59 11.319 1.311 3.826 1.43 5.686 1.431 22.51l.002 15.549-6.238-.071-6.239-.071-.136-14.42c-.146-15.447-.232-16.508-1.532-18.986-1.235-2.352-2.73-3.56-5.184-4.19-4.681-1.2-9.392.918-11.361 5.109-1.231 2.618-1.315 3.804-1.32 18.663l-.005 13.956h-12.7zm109.3 9.129-.014-24.342h12.952v48.683H202.36zm21.669 0V231.21h12.435v4.823l1.733-1.621c3.194-2.988 6.697-4.26 11.726-4.26 3.717 0 6.114.512 9.03 1.931 4.552 2.215 7.782 6.63 9.039 12.356.517 2.357.56 3.54.68 18.984l.127 16.47H256.03l-.009-13.957c-.01-15.184-.13-16.802-1.437-19.422-1.473-2.95-3.763-4.435-7.194-4.662-4.616-.305-8.206 2.132-9.956 6.759-.56 1.48-.576 1.88-.658 16.4l-.085 14.882h-12.675zm-270.615-30.648c-1.938-.692-3.222-1.81-4.151-3.616-1.05-2.039-1.106-4.848-.138-6.851 1.922-3.981 6.572-5.564 10.532-3.585 1.853.926 2.773 1.9 3.7 3.916.562 1.223.635 1.694.53 3.44-.184 3.093-1.445 5.025-4.177 6.4-1.657.835-4.421.965-6.296.296m252.677 0c-4.96-1.77-6.607-7.621-3.376-11.993.655-.886 1.398-1.472 2.642-2.084 1.605-.79 1.879-.843 3.785-.73 2.366.142 3.647.694 5.19 2.235 1.49 1.49 2.088 2.835 2.23 5.015.107 1.64.03 2.087-.61 3.512-1.227 2.734-3.538 4.26-6.736 4.445-1.229.072-2.126-.043-3.125-.4" style="fill:#bababa;fill-opacity:1" transform="translate(228.49 -138.65)"/></svg>