<svg xmlns="http://www.w3.org/2000/svg" xml:space="preserve" width="2101.607" height="572.463" viewBox="0 0 556.05 151.464"><path d="M796.498-33.298c3.159-.995 6.204-3.484 8.603-7.032 4.093-6.054 6.167-15.663 5.418-25.102-.353-4.452-.756-6.558-2.039-10.678-2.328-7.478-6.537-12.42-12.154-14.27-2.72-.896-7.266-1.014-9.79-.255-4.62 1.392-8.652 5.083-11.308 10.353-2.423 4.81-4.17 14.313-3.77 20.506.336 5.177 1.81 11.75 3.419 15.23 2.63 5.69 6.983 10.008 11.572 11.474 2.634.841 6.967.744 10.049-.226m-11.814 3.176c-3.192-.602-4.804-1.157-7.938-2.734-5.878-2.957-10.041-7.218-12.966-13.27-2.293-4.746-3.302-9.566-3.302-15.767 0-9.824 2.988-17.756 8.901-23.623 5.369-5.327 12.008-8.163 20.058-8.569 9.637-.486 17.948 2.67 23.997 9.11 5.395 5.743 8.06 12.735 8.347 21.891.208 6.663-.872 12.079-3.43 17.198-3.816 7.636-10.753 13.275-18.932 15.387-3.602.93-10.821 1.115-14.735.377m63.642.22c-4.763-.616-9.821-3.107-12.711-6.258-1.58-1.722-3.955-5.98-4.319-7.741a47 47 0 0 0-.585-2.25c-.385-1.363-.462-3.357-.55-14.155-.208-25.595-.244-27.008-.718-28.47-.242-.743-.916-1.892-1.499-2.554-.582-.662-1.06-1.334-1.06-1.494 0-.204 2.503-.29 8.468-.29 7.037 0 8.466.062 8.466.367 0 .201-.296.56-.658.797-1.01.662-2.186 2.96-2.516 4.915-.204 1.212-.265 7.553-.198 20.655.092 17.89.125 19.013.625 20.891 1.575 5.91 5.26 9.682 10.797 11.049 2.002.494 6.421.538 8.354.084 5.47-1.287 9.8-5.543 11.216-11.024 1.058-4.097 1.22-7.23 1.22-23.622 0-19.004-.132-20.187-2.507-22.517-.646-.635-1.113-1.253-1.038-1.374s2.51-.22 5.413-.22c5.818 0 6.077.086 4.206 1.41-.582.41-1.28 1.185-1.551 1.719-1.047 2.061-1.121 3.415-1.185 21.548-.062 17.744-.177 20.193-1.12 23.873-1.202 4.697-4.237 9.104-8.039 11.675-1.804 1.22-4.95 2.418-7.538 2.87-2.491.434-8.058.493-10.973.116m81.201-3.615c-6.074-8.621-35.806-49.593-36.815-50.73-.133-.151-.196 9.929-.149 23.68.095 27.4-.039 25.798 2.346 28.11.713.691 1.297 1.376 1.297 1.521 0 .167-1.996.264-5.424.264-3.364 0-5.424-.099-5.424-.26 0-.142.527-.744 1.171-1.338 2.264-2.087 2.12-.173 2.215-29.359.058-17.983-.003-26.093-.203-26.777-.396-1.354-1.43-2.498-2.953-3.27-.709-.36-1.288-.83-1.288-1.046 0-.337 1.04-.39 7.474-.384l7.474.009.752 1.236c.667 1.098 5.572 7.886 26.019 36.006l5.64 7.757v-18.55c0-15.839-.06-18.849-.416-20.59-.462-2.266-1.332-3.986-2.35-4.654-.37-.242-.673-.616-.673-.831 0-.332.801-.39 5.292-.39 3.692 0 5.292.088 5.292.292 0 .161-.585.846-1.3 1.521-1.403 1.326-1.751 2.185-2.162 5.33-.124.946-.23 13.94-.234 28.877-.01 30.22.174 27.48-1.838 27.48-.979 0-1.034-.058-3.743-3.903m188.404 3.381c-.94-1.754-37.712-52.572-39.056-53.973-.319-.333-.371 2.722-.37 21.696 0 22.07.127 25.766.94 27.954.389 1.044 2.188 2.993 2.764 2.993.145 0 .263.179.263.397 0 .34-.793.397-5.556.397-5.992 0-6.402-.11-4.654-1.242 1.278-.827 2.218-2.91 2.55-5.645.172-1.426.243-11.048.195-26.45l-.075-24.21-.647-1.13c-.603-1.053-2.687-2.707-3.41-2.707-.17 0-.308-.238-.308-.529 0-.516.176-.529 7.351-.529h7.351l.449.76c.246.417 3.862 5.447 8.035 11.178 4.173 5.73 11.29 15.519 15.814 21.751l8.228 11.333.08-17.55c.086-18.376-.028-20.943-1.048-23.681-.314-.841-.914-1.733-1.557-2.314-.576-.52-1.047-1.066-1.047-1.212 0-.168 1.975-.265 5.424-.265 4.444 0 5.424.066 5.424.367 0 .201-.268.543-.596.759-1.202.794-2.035 1.863-2.49 3.196-.431 1.265-.472 3.486-.55 29.924-.06 20.143-.17 28.66-.374 28.906-.166.2-.833.348-1.57.348-1.004 0-1.341-.113-1.56-.522zm-400.584-.915c0-.208.35-.628.778-.933 1.1-.783 2.086-2.971 2.388-5.304.338-2.599.343-53.447.006-56.04-.405-3.12-.657-3.45-3.772-4.958-2.298-1.112-3.037-1.64-4.89-3.494-1.2-1.202-2.183-2.358-2.183-2.57 0-.213.22-.504.488-.648.388-.208.778-.042 1.915.812 1.93 1.45 3.608 2.268 6.023 2.934 1.75.483 2.762.56 7.45.568 5.242.008 5.573-.024 9.928-.95 2.478-.526 7.836-1.97 11.906-3.206 9.193-2.794 15.496-4.544 18.236-5.066 5.991-1.14 13.351-1.085 18.005.136 2.686.705 6.04 2.27 8.265 3.859 2.424 1.73 5.361 4.56 5.361 5.165 0 .838-.712.848-2.045.03-5.23-3.216-13.517-4.354-21.844-3-4.165.676-15.753 3.525-20.428 5.02-3.71 1.188-13.01 2.686-17.992 2.899l-3.969.17v26.967l6.998-.081c6.012-.07 7.23-.153 8.65-.591 2.418-.747 4.065-2.52 4.966-5.347.09-.281.348-.445.618-.393.428.082.47.693.534 7.795.064 7.015.03 7.72-.375 7.876-.559.215-.686.06-1.276-1.54a6.9 6.9 0 0 0-3.647-3.894c-1.332-.599-1.68-.627-8.853-.714l-7.466-.091-.075 3.395c-.04 1.867-.01 8.514.069 14.772.122 9.776.205 11.536.585 12.505.556 1.42 1.577 2.772 2.443 3.235.366.196.666.515.666.709 0 .286-1.64.352-8.732.352-7.4 0-8.73-.058-8.73-.38zm243.047.157c-.076-.122.327-.674.894-1.228 1.397-1.365 2.025-2.961 2.365-6.014.185-1.658.286-11.3.286-27.186V-89.94l-.728.003c-.4.001-2.156.125-3.902.276-7.653.658-12.198 2.74-14.762 6.762-1.062 1.665-2.04 2.254-2.038 1.227 0-.528 1.533-6.36 2.45-9.326l.614-1.985 16.26.024c8.944.014 19.655.073 23.802.133 6.769.097 7.702.058 9.12-.38 2.103-.648 3.393-1.329 4.62-2.437.955-.864 1.87-1.023 1.87-.327 0 .854-2.167 4.25-3.694 5.789-2.079 2.095-4.222 3.196-7.381 3.792-3.605.68-6.304.511-12.543-.787-1.712-.356-3.23-.647-3.373-.647-.357 0-.343 48.165.014 50.667.316 2.214 1.336 4.437 2.396 5.22 1.648 1.219 1.38 1.263-7.682 1.263-4.648 0-8.513-.1-8.588-.222m59.949-26.13a1965 1965 0 0 0-5.205-12.939c-1.715-4.22-3.323-8.195-3.573-8.833-.25-.639-.519-1.055-.598-.926s-1.35 3.33-2.824 7.113c-1.475 3.784-2.81 7.177-2.966 7.54-.439 1.02-3.402 8.757-3.402 8.884 0 .062.625.115 1.389.118 2.025.007 6.629.663 9.115 1.298 2.16.551 7.33 2.253 9.075 2.986.509.214.96.308 1 .207.041-.1-.864-2.551-2.011-5.448m-34.964 26.021c.005-.182.548-.738 1.208-1.235 1.863-1.404 3.019-3.304 5.328-8.753 1.225-2.89 4.303-10.841 4.303-11.115 0-.254-4.1.218-5.869.676-.898.233-2.223.723-2.944 1.088-1.141.578-1.36.615-1.692.282-1.01-1.01 4.825-4.298 9.387-5.29l2.71-.59 4.67-11.774a3772 3772 0 0 1 6.433-16.14l2.914-7.206c1.11-2.744 1.18-2.846 2.081-3.015 1.641-.308 2.07.175 3.786 4.268.855 2.038 2.257 5.371 3.116 7.409 3.775 8.954 6.007 14.285 7.474 17.86 11.772 28.664 12.626 30.439 15.708 32.61.634.447 1.09.913 1.015 1.034-.075.122-4.297.222-9.381.222-9.835 0-10.196-.052-8.375-1.195.55-.345.986-.928 1.236-1.648.536-1.545.172-3.093-2.02-8.593-1.75-4.388-1.78-4.44-2.582-4.445-1.483-.01-5.144-.94-12.32-3.13-3.736-1.14-7.586-2.021-10.055-2.302l-1.455-.165-2.572 6.968c-2.735 7.411-3.116 8.623-3.11 9.88.007 1.33.87 2.861 1.936 3.435 1.967 1.06 1.404 1.195-4.986 1.195-4.59 0-5.95-.076-5.944-.331m62.433-.036c0-.201.292-.558.65-.791.895-.587 1.894-2.396 2.282-4.134.442-1.979.672-45.856.259-49.406-.356-3.055-1.07-4.999-2.264-6.156-.51-.494-.927-1.053-.927-1.243 0-.276 1.707-.345 8.599-.345 9.426 0 9.53.02 7.64 1.462-1.235.942-2.152 2.961-2.475 5.447-.341 2.63-.344 45.168 0 48.257.346 3.13.835 4.36 2.26 5.673.647.596 1.177 1.201 1.177 1.344 0 .163-3.163.259-8.6.259-7.149 0-8.598-.062-8.598-.367zM1188.166-19.923c-1.957-1.025-1.833-.682-1.831-5.058 0-6.724.917-10.926 3.572-16.407 1.962-4.05 3.297-5.777 7.875-10.186 15.025-14.471 16.07-15.864 19.915-26.548.986-2.742 1.974-5.165 2.194-5.385.48-.48 1.889-.321 2.872.323 1.88 1.232 2.173 5.04.876 11.413-.983 4.833-.998 5.213-.198 4.97 1.496-.452 5.93-3.73 7.812-5.773 2.854-3.099 5.246-7.74 6.603-12.809.599-2.237.691-3.123.71-6.805.024-5.005-.183-6.251-2.09-12.578-1.984-6.58-2.393-8.756-2.001-10.646.367-1.769 1.156-3.022 2.334-3.71l.864-.505 2.083 4.327c5.23 10.865 7.342 18.674 7.626 28.201.312 10.443-1.866 18.392-7.267 26.52-1.55 2.334-2.964 3.991-6.01 7.048-5.791 5.81-10.322 9.025-19.726 13.994-9.516 5.028-13.146 7.563-15.825 11.05-2.82 3.67-4.142 5.022-6.615 6.764-3.28 2.312-3.026 2.19-3.773 1.8m-6.115-23.953c-6.222-4.2-10.977-8.202-14.379-12.102-5.108-5.857-8.954-13.661-10.357-21.014-.658-3.45-.655-12.963.01-16.783 1.212-7.008 3.289-13.442 6.575-20.373 1.312-2.765 2.482-5.132 2.602-5.26.4-.427 2.054.879 2.637 2.083 1.206 2.492.964 5.057-1.074 11.379-2.834 8.79-3.25 15.094-1.418 21.511 1.772 6.214 6.047 12.51 10.576 15.58 1.545 1.047 3.63 2.2 3.979 2.2.289 0-.14-3.09-.881-6.35-1.187-5.223-.846-8.602 1.029-10.18.888-.747 2.598-.92 3.1-.313.163.195.899 2.13 1.636 4.3 2.624 7.718 5.47 12.613 10.22 17.57l2.814 2.936-3.709 3.757c-3.886 3.936-6.549 7.303-8.673 10.967-.696 1.201-1.339 2.182-1.428 2.181-.09 0-1.554-.94-3.255-2.089zm16.718-21.348a77 77 0 0 1-1.787-2.312l-.595-.824V-86.51c0-19.235-.11-21.435-1.312-26.142-1.918-7.51-5.478-14.54-10.018-19.78-4.57-5.273-12.286-10.295-18.618-12.118-5.248-1.51-13.035-1.99-17.8-1.095-3.157.593-3.849.593-4.282.001-.578-.79-.452-2.168.238-2.6 1.144-.717 4.913-1.096 10.65-1.071 6.212.026 8.965.393 12.964 1.728 3.408 1.137 8.869 3.871 11.642 5.828 3.127 2.207 8.553 7.646 10.782 10.809 3.734 5.297 6.842 12.485 8.237 19.05 1.14 5.359 1.258 8.286 1.17 28.91l-.08 19.253zm5.222-3.582c-.05-2.819-.076-12.27-.058-21 .032-15.133.061-16.024.616-19.05 2.195-11.982 6.837-21.057 14.629-28.6 6.615-6.405 14.589-10.352 23.51-11.64 5.226-.755 15.708-.179 17.052.937.592.491.52 1.948-.125 2.532-.52.47-.63.47-3.638-.012-3.851-.617-9.984-.627-13.42-.023-7.205 1.267-13.943 4.471-19.39 9.223-7.081 6.176-12.628 15.82-14.587 25.361-.977 4.76-1.08 7.215-1.08 25.57v17.947l-1.624 1.842-1.708 1.94c-.047.055-.127-2.207-.177-5.027zm7.567-21.398c.09-17.623.082-17.545 2.178-23.565 6.694-19.23 25.182-29.255 44.3-24.02 2.664.73 6.343 2.258 7.077 2.94.843.782.809 2.16-.067 2.734-.813.532-1.2.448-4.365-.955-1.383-.612-3.645-1.42-5.027-1.795-2.276-.617-2.99-.682-7.541-.694-5.662-.015-7.284.285-11.961 2.21-7.928 3.265-13.13 8.194-17.246 16.34-3.187 6.306-3.758 9.551-3.992 22.704-.194 10.886-.24 11.209-2.506 17.33l-.93 2.514zm-20.119 12.039c-2.135-6.606-2.14-6.638-2.273-16.801-.136-10.343-.348-12.114-2.07-17.323-3.014-9.108-8.686-15.964-16.454-19.885-9.032-4.56-18.76-4.755-28.078-.562-2.61 1.175-3.391 1.162-4.07-.069-.869-1.574.68-2.777 5.762-4.478 8.842-2.96 18.905-2.379 27.192 1.569 10.489 4.996 17.82 14.917 20.486 27.721.557 2.676.597 3.606.685 16.07.052 7.276.058 14.122.013 15.213l-.08 1.985zm39.753.11c-.662-4.262-2.201-7.777-5.74-13.11-2.794-4.212-3.4-5.586-3.4-7.706 0-1.569.66-3.371 1.235-3.371.373 0 5.653 6.275 7.212 8.57.612.901 1.41 2.258 1.775 3.016l.664 1.379-.175-1.305c-.4-2.985-1.81-6.358-4.767-11.395-1.895-3.23-2.6-5.374-2.423-7.368.134-1.512 1.103-3.875 1.665-4.063.322-.107 4.042 4.983 5.634 7.71 2.398 4.107 3.648 9.42 3.367 14.312-.253 4.404-1.882 9.766-3.977 13.089l-.889 1.41zm-59.367-.683a31 31 0 0 1-2.991-7.232c-.52-1.926-.609-2.895-.613-6.747 0-3.869.08-4.831.612-6.88.939-3.614 2.948-7.291 7-12.803l1.048-1.427.487.633c.9 1.171 1.368 3.078 1.23 5.013-.137 1.912-.02 1.64-4.37 10.086-1.314 2.553-2.024 4.301-2.41 5.94-.301 1.278-.508 2.362-.46 2.41s.405-.56.793-1.353c.387-.792 1.266-2.205 1.953-3.14 2.184-2.974 6.53-8.106 6.803-8.033.699.19 1.302 1.884 1.275 3.587-.035 2.221-.437 3.126-3.133 7.056-1.21 1.763-2.738 4.204-3.396 5.424-1.252 2.323-2.55 6.285-2.55 7.788 0 1.369-.359 1.278-1.278-.322m28.698-42.172-1.269-3.454.296-2.83c1.04-9.96 4.357-19.672 9.24-27.065 3.403-5.154 9.118-10.442 14.36-13.288 2.346-1.273 7.906-3.619 8.579-3.619.62 0 1.7 1.226 1.7 1.931 0 .896-.585 1.31-3.44 2.438-5.517 2.179-8.964 4.369-12.979 8.248-4.746 4.585-8.248 10.186-10.556 16.878-2.08 6.035-2.975 10.46-3.451 17.072-.293 4.067-.738 7.143-1.033 7.143-.098 0-.749-1.554-1.447-3.454m-6.083-11.115c-.416-.745-1.358-2.146-2.094-3.115s-2.514-3.516-3.95-5.66c-4.073-6.076-8.466-10.184-13.86-12.961-5.955-3.066-10-4.124-16.835-4.403-4.47-.182-4.768-.28-5.11-1.678-.138-.562-.023-.866.539-1.428l.714-.714 3.743.162c6.85.298 11.558 1.48 17.501 4.393 4.178 2.047 7.306 4.296 10.71 7.7 4.97 4.972 7.995 10.027 9.005 15.051.304 1.515.517 3.036.473 3.38-.069.538-.186.435-.836-.727m14.514-.313c.764-4.832 2.662-9.199 5.817-13.387 4.837-6.421 11.799-11.394 19.452-13.893 4.496-1.468 9.443-2.272 14.043-2.283 1.756-.004 2.075.071 2.58.608.77.82.739 1.866-.077 2.507-.555.437-1.224.532-4.564.648-9.627.333-17.682 3.621-24.495 9.998-2.628 2.46-3.91 4.05-6.182 7.666-.87 1.382-2.364 3.484-3.323 4.67-.958 1.187-2.063 2.705-2.455 3.374-.393.669-.772 1.216-.844 1.216s-.05-.506.048-1.124zm-12.624-12.899c-2.91-6.08-5.428-9.724-9.234-13.368-3.771-3.61-7.449-5.94-12.537-7.94-1.746-.687-3.383-1.43-3.638-1.653-1.156-1.01-.036-3.13 1.523-2.884 2.752.436 9.882 4.007 13.61 6.816 4.573 3.446 9.688 9.825 12.419 15.488l1.16 2.404-.797 2.355-.796 2.354z" style="fill:#bababa;fill-opacity:.87843138" transform="translate(-709.674 171.166)"/></svg>