<svg xmlns="http://www.w3.org/2000/svg" xml:space="preserve" width="2422.342" height="588.612" viewBox="0 0 640.911 155.737"><path d="M-110.067 159.663c-4.899-.56-9.37-1.457-14.195-2.847-13.092-3.77-23.94-10.12-33.926-19.86-12.677-12.363-20.818-28.884-23.082-46.842-.435-3.452-.44-14.281-.008-17.992 1.221-10.492 5.326-22.562 10.618-31.22 1.44-2.355 4.753-7.237 5.027-7.406.115-.071-.445 1.328-1.245 3.109-2.835 6.318-4.828 13.283-5.809 20.304-.693 4.96-.628 14.51.133 19.447 1.191 7.727 3.18 14.107 6.519 20.902 3.3 6.717 6.812 11.828 12.157 17.693 3.971 4.357 13.913 12.05 21.582 16.7 10.074 6.109 20.97 9.29 32.813 9.582 5.94.147 9.204-.153 15.346-1.41 9.399-1.924 19.23-6.645 27.517-13.214 3.076-2.439 10.367-9.835 12.296-12.474.87-1.19 1.613-2.13 1.652-2.091.108.108-1.69 4.483-2.968 7.217-2.288 4.896-5.892 10.75-9.065 14.729-9.468 11.866-23.265 20.979-37.627 24.852-3.01.811-3.141.823-9.929.875-3.784.029-7.296.005-7.805-.054zm33.602-3.936c13.725-7.36 25.792-19.82 32.54-33.598 2.702-5.518 4.754-10.947 6.112-16.165.601-2.315 1.245-4.506 1.429-4.87.934-1.847 4.157-11.94 5.02-15.72l.175-.77-13.187.183-13.186.183.204-2.323c.255-2.898.05-5.831-.629-9.028-.289-1.36-.487-2.505-.44-2.546.048-.04 9.515-.16 21.038-.264l20.952-.189.182.968c.36 1.92-.07 13.055-.65 16.807-2.752 17.833-10.934 33.867-23.937 46.911-9.376 9.406-20.12 16.108-32.315 20.158-6.04 2.006-6.648 2.055-3.308.263m-26.987-20.394c-7.044-.807-10.642-1.66-16.154-3.829-11.63-4.575-20.863-11.95-27.832-22.232-3.914-5.773-6.997-12.617-8.394-18.629-1.212-5.214-1.462-7.706-1.462-14.552 0-9.107.695-13.846 3.006-20.505 4.973-14.33 13.62-25.604 25.833-33.68 7.37-4.874 15.039-7.75 24.606-9.228 5.279-.816 12.678-.808 17.412.018 14.338 2.501 26.417 9.273 36.386 20.4 4.42 4.932 9.135 13.2 11.403 19.991.96 2.88 2.512 9.747 2.714 12.024l.083.926-3.483.074-3.483.073-.148-.735c-.081-.404-.342-1.807-.58-3.116-.366-2.022-2.764-10.059-3.232-10.835-.083-.138-.367.755-.63 1.984-.953 4.442-3.813 11.8-4.906 12.621-.293.22-1.459.33-3.477.33h-3.037l1.86-1.917c1.022-1.055 2.471-2.857 3.22-4.003 1.309-2.007 1.63-2.81 1.12-2.81-.133 0-1.188-.753-2.345-1.672-2.648-2.102-4.383-2.869-6.87-3.033-1.785-.118-1.956-.184-2.573-.993-.364-.477-1.11-1.136-1.659-1.464-2.221-1.329-2.704-2.237-1.6-3.01.873-.611 2.075-.51 2.958.25.986.847 1.116.832 1.312-.152.37-1.85 3.221-4.661 6.319-6.231l1.263-.64-.542-1.063c-.578-1.132-1.872-2.098-2.813-2.1-.53 0-1.753 1.154-1.997 1.886-.152.455-1.926.331-2.72-.19-.365-.239-.664-.665-.664-.946 0-.727 1.197-1.743 2.67-2.266.694-.246 1.213-.525 1.155-.62-.16-.258-2.972-.772-4.619-.844l-1.455-.063-1.255-2.25c-.69-1.236-1.257-2.393-1.257-2.569-.001-.22.718-.344 2.31-.397l2.31-.076-2.51-1.62c-1.38-.892-3.461-2.098-4.625-2.68-2.157-1.078-7.26-3.081-7.426-2.915-.05.05.68.98 1.624 2.066 2.18 2.51 4.865 6.482 5.949 8.8.462.99.795 1.845.74 1.9-.057.057-1.291.345-2.744.64-8.945 1.824-16.79 4.885-24.708 9.643-2.096 1.26-3.885 2.29-3.976 2.29s-.163-1.22-.159-2.712-.083-3.038-.195-3.436c-.2-.716-.148-.751 4.34-2.998 6.311-3.16 11.742-5.293 17.103-6.717l1.133-.301-.801-1.115c-.44-.613-1.63-2.059-2.643-3.213-5.583-6.36-10.136-8.387-15.021-6.688-2.623.912-4.687 2.469-8.493 6.406l-3.25 3.363-1.36-.584a29 29 0 0 0-2.697-.977c-.735-.215-1.443-.492-1.572-.615-.214-.204.762-1.589 3.483-4.946l.905-1.118-1.944.656c-4.581 1.547-12.202 5.877-15.835 8.997-2.014 1.73-4.153 4.237-4.954 5.806-1.19 2.332-2.002 5.808-1.977 8.472.07 7.583 3.72 18.257 8.807 25.755 1.15 1.696 2.571 3.63 3.156 4.297.945 1.077 1.105 1.461 1.428 3.44.727 4.45 1.836 7.6 3.594 10.206.45.667.777 1.254.725 1.305-.262.262-7.818-7.082-9.726-9.454-4.355-5.411-8.08-11.682-10.195-17.16-1.933-5.01-3.379-10.938-3.759-15.415l-.196-2.317-1.353 2.45c-2.536 4.592-4.832 11.107-5.92 16.793-1.502 7.85-1.027 16.448 1.367 24.763.453 1.572.903 2.763 1 2.646s.388-.912.646-1.765c.74-2.448 2.135-5.523 3.867-8.53 1.614-2.802 5.223-8.042 5.54-8.042.235 0 3.452 4.667 3.452 5.009 0 .15-.648 1.177-1.44 2.281-1.713 2.387-3.668 6.12-5.135 9.805-1.946 4.89-2.49 8.082-1.787 10.498 1.178 4.053 4.781 5.995 11.14 6.003 3.565.005 6.548-.518 11.906-2.088 5.2-1.523 6.91-2.143 11.024-4l2.99-1.348 2.253.577c1.24.318 3.564.653 5.164.745l2.91.167-1.19.69c-7.016 4.07-14.996 7.377-22.622 9.374-4.318 1.13-7.606 1.666-11.575 1.885-1.71.094-3.109.261-3.109.372 0 .35 4.056 3.6 6.697 5.366 1.399.935 3.733 2.311 5.186 3.058 2.593 1.331 7.209 3.246 7.39 3.065.05-.05-.716-1.083-1.703-2.294-1.677-2.056-4.87-6.73-4.87-7.126 0-.097.96-.436 2.132-.752 1.172-.317 2.582-.734 3.132-.929l1.001-.353 1.687 2.421c2.03 2.913 7.493 8.434 9.534 9.634 5.866 3.449 10.965 2.495 17.06-3.194 4.179-3.9 7.376-8.399 10.565-14.867 2.265-4.594 3.45-7.888 4.902-13.623 2.33-9.206 3.433-19.68 2.646-25.129-.136-.94-.218-1.739-.182-1.775s1.021.875 2.19 2.024c1.445 1.423 2.404 2.645 3.004 3.827l.882 1.737-.16 5.093c-.253 7.96-1.175 13.201-3.658 20.789-2.86 8.736-6.595 15.97-11.262 21.807-.785.983-1.333 1.785-1.217 1.784.48-.006 6.196-2.922 8.28-4.224 2.988-1.867 9.563-6.909 8.973-6.881a98 98 0 0 0-2.227.388c-1.164.21-2.614.386-3.223.391l-1.106.01 1.477-3.162 1.477-3.16 1.481-.168c6.868-.775 11.177-3.966 11.81-8.745.213-1.603-.41-5.18-1.365-7.824-.369-1.023-.631-1.898-.583-1.945.047-.048 1.476-.172 3.173-.276l3.087-.19.285 1.027c.157.565.293 1.205.302 1.424s.3-.229.648-.993l.631-1.389h3.587c1.973 0 3.587.033 3.587.074s-.307 1.013-.682 2.16c-5.314 16.273-17.385 30.223-32.523 37.587-8.767 4.264-15.822 5.936-25.665 6.083-3.056.046-5.973.035-6.482-.023zm18.824-22.21c-3.85-.836-11.928-3.587-13.525-4.608-.486-.31-.497-.3 1.58-1.338 4.914-2.455 11.943-6.794 15.971-9.86 2.56-1.947 5.948-5.134 6.82-6.415.344-.504.699-.917.789-.918.425-.005-1.358 6.955-2.854 11.138-.973 2.72-4.063 9.11-5.459 11.283-.794 1.238-.86 1.252-3.322.718m-70.878-4.819c-7.228-9.351-11.917-19.89-13.804-31.022-1.206-7.11-1.25-14.279-.137-21.96 1.619-11.175 6.712-23.1 13.222-30.958 6.55-7.905 17.802-15.211 30.106-19.548 1.285-.453 2.471-.824 2.636-.824.164 0-1.065.778-2.733 1.728-9.709 5.532-17.977 13.332-24.531 23.143-6.361 9.521-10.834 21.224-12.543 32.82-.808 5.482-.88 16.181-.142 20.89.872 5.556 2.857 13.37 4.3 16.92.881 2.168 3.077 6.714 4.321 8.943.589 1.055 1.03 1.919.98 1.919s-.804-.923-1.675-2.05m489.278-2.736c-7.99-.631-14.425-4.28-18.625-10.56-5.054-7.555-5.317-17.507-.671-25.386 4.812-8.162 14.77-12.84 24.918-11.708 3.927.438 5.851.96 8.93 2.421 3.31 1.571 5.532 3.244 7.729 5.814 2.966 3.472 4.393 6.472 5.254 11.05.64 3.394.413 8.41-.52 11.538-3.365 11.288-13.922 17.865-27.015 16.83m6.458-9.644c4.724-1.113 8.646-5.093 9.949-10.097.217-.832.394-2.653.394-4.047 0-4.256-1.172-7.395-3.835-10.272-2.55-2.753-5.304-4.086-9.14-4.42-6.833-.597-13.362 4.103-14.928 10.748-.857 3.634-.357 8.164 1.23 11.14 2 3.753 5.786 6.468 10.004 7.173 1.551.26 4.755.146 6.326-.225m-312.753 9.27c-7.434-1.405-13.197-5.664-16.779-12.397-1.605-3.018-2.242-5.61-2.415-9.827-.309-7.517 1.69-12.995 6.526-17.891 4.115-4.165 9.203-6.408 16.197-7.14 8.035-.842 16.163 1.71 20.917 6.566l1.254 1.282-3.452 3.248-3.452 3.248-.978-.823c-4.134-3.48-8.747-4.903-13.74-4.24-5.936.79-9.94 4.18-11.686 9.891-.679 2.221-.75 6.175-.152 8.516 1.356 5.311 5.482 9.343 10.657 10.415 3.28.679 8.684.118 11.15-1.157l.81-.419v-13.48h10.319v9.352c0 10.613.27 9.43-2.54 11.106-2.282 1.362-5.096 2.511-8.03 3.28-2.17.57-3.238.676-7.555.758-3.63.07-5.59-.01-7.051-.287m92.205.007c-8.867-1.61-16.297-8.216-18.602-16.542-1.75-6.323-.937-13.602 2.093-18.746 5.556-9.43 16.321-13.81 28.344-11.53 5.595 1.062 10.496 4.065 14.25 8.733 3.72 4.624 5.523 11.225 4.776 17.486-.498 4.176-1.639 7.363-3.748 10.476-3.539 5.222-8.8 8.696-15.165 10.014-2.839.588-8.998.644-11.948.109m10.869-9.642c4.202-1.483 7.582-5.228 8.744-9.69.474-1.819.53-5.582.113-7.582-.916-4.39-4.557-8.728-8.618-10.268-9.508-3.606-19.078 2.664-19.588 12.835-.37 7.385 3.588 13.143 10.284 14.958 2.54.688 6.73.572 9.065-.253m96.173 9.639c-14.004-2.65-22.269-15.484-19-29.504 1.981-8.504 9.16-15.325 18.177-17.27 3.409-.734 9.245-.781 12.47-.1 12.984 2.747 21.186 14.634 18.946 27.456-.742 4.242-2.255 7.607-4.904 10.906-3.208 3.993-7.439 6.692-12.568 8.017-3.334.86-9.882 1.108-13.121.495m9.26-9.273c5.116-1.207 9.085-5.398 10.188-10.76.53-2.574.53-4.197 0-6.77-1.53-7.438-8.218-12.184-15.822-11.226-7.2.907-12.333 6.84-12.333 14.257 0 2.913.371 4.554 1.626 7.182 1.761 3.69 5.018 6.374 8.86 7.304 2.065.5 5.39.505 7.48.013m46.816 9.254c-2.668-.483-5.969-1.707-8.28-3.07-2.178-1.283-5.92-4.923-7.415-7.214-4.038-6.18-4.93-14.876-2.24-21.85 2.303-5.971 7.719-11.315 13.777-13.596 2.938-1.106 6.051-1.589 10.15-1.575 5.7.019 9.842 1.136 13.891 3.747 1.92 1.238 5.027 3.873 5.027 4.264 0 .272-6.565 6.37-6.858 6.37-.133 0-.937-.594-1.785-1.32-3.157-2.699-6.218-3.796-10.539-3.776-8.29.038-13.973 5.932-13.972 14.489 0 4.44 1.309 7.957 3.937 10.589 2.63 2.633 5.433 3.802 9.638 4.018 4.489.232 7.005-.598 10.54-3.475l2.187-1.78 1.64 1.451a281 281 0 0 1 3.478 3.146l1.837 1.694-1.152 1.25c-2.901 3.147-7.356 5.598-11.824 6.506-3.193.648-8.842.71-12.037.132m-415.413-3.092-.076-2.712-2.852-.076-2.853-.075.074-2.967.075-2.968 2.844-.075 2.845-.075v-5.538h6.085v5.556h5.556v6.085h-5.82v5.557h-5.802zm194.948 2.488c-.076-.123-.113-10.452-.082-22.953l.056-22.729 5.49-.071 5.49-.072v37.053h23.813v8.995H79.787c-9.523 0-17.376-.1-17.452-.223m96.415-22.808V58.736l14.618.089c12.975.078 14.797.14 16.206.551 4.282 1.25 7.371 3.59 8.936 6.768.813 1.65.853 1.88.852 4.782-.002 2.604-.09 3.238-.6 4.35-.77 1.675-2.152 3.353-3.642 4.423-.65.466-1.18.917-1.18 1.001 0 .085.67.504 1.49.931 3.857 2.016 6.183 6.052 6.183 10.732 0 5.445-2.774 9.258-8.115 11.157-3.19 1.133-5.458 1.275-20.527 1.277l-14.221.002zm27.983 14.178c2.702-.834 3.936-2.601 3.71-5.314q-.202-2.421-2.245-3.824c-1.69-1.158-3.094-1.323-11.25-1.323h-7.615v5.38c0 2.959.09 5.473.199 5.588.109.114 3.71.144 8.003.066 6.148-.112 8.101-.234 9.198-.573m-1.406-19.457c.72-.364 1.673-1.119 2.117-1.678.722-.91.807-1.208.807-2.825 0-2.017-.413-2.83-1.978-3.895-1.474-1.003-2.533-1.124-9.862-1.126l-7.078-.001v10.349l7.343-.081c7.228-.08 7.362-.092 8.651-.743m184.56 5.278V58.734l13.164.082 13.163.082 2.513.855c1.383.47 3.12 1.206 3.861 1.633 3.03 1.748 6.1 5.39 7.304 8.667.471 1.28.57 2.144.583 5.112.013 3.07-.069 3.807-.585 5.249-1.27 3.545-3.942 6.74-7.01 8.383-.756.405-1.418.771-1.47.814s2.15 3.32 4.894 7.282 5.086 7.362 5.202 7.555c.174.287-.888.35-5.84.35h-6.05l-4.29-6.482-4.291-6.482h-10.3v12.964h-10.847zm22.64 1.047c4.505-.83 6.84-3.445 6.831-7.648-.005-2.458-.695-4.043-2.421-5.563-2.013-1.771-3.68-2.14-10.447-2.306l-5.755-.142v15.949h5.111c2.811 0 5.817-.13 6.681-.29M419.1 81.78V58.76h12.015c13.125 0 14.08.082 18.067 1.541 2.821 1.033 4.841 2.396 6.501 4.39 2.47 2.965 3.637 6.332 3.63 10.464-.007 3.274-.526 5.642-1.758 8.016-1.452 2.798-3.686 4.905-6.764 6.382-3.84 1.842-5.293 2.079-13.633 2.22l-7.21.121v12.904H419.1zm22.966.922c2.044-.482 3.094-.996 4.243-2.076 1.578-1.484 2.018-2.644 2.023-5.334.006-2.975-.669-4.507-2.64-5.998-2.123-1.606-3.854-1.934-10.188-1.934h-5.424l-.07 7.871-.07 7.872 5.23-.004c3.688-.003 5.72-.12 6.896-.397m-542.872 13.645c-6.548-1.386-12.379-6.05-15.12-12.094-1.413-3.118-1.886-5.818-1.754-10.014.103-3.277.21-3.973.93-6.038 3.823-10.975 15.066-17.375 26.395-15.025 4.697.975 7.935 2.806 11.396 6.446 2.542 2.673 3.599 4.405 4.85 7.948.935 2.654.951 2.768.935 6.669-.016 3.61-.085 4.172-.76 6.218-1.867 5.664-4.979 9.813-9.602 12.803-4.936 3.193-11.353 4.34-17.27 3.087m-23.334-25.96c-2.706-3.302-6.268-10.857-6.718-14.246l-.176-1.327 1.686-1.758c.928-.967 2.023-1.999 2.434-2.292l.748-.534.906.878c.498.482.906.98.906 1.107s-.625.814-1.39 1.529c-1.144 1.071-1.319 1.346-.991 1.567.711.479 1.316.292 2.457-.76l1.122-1.034 2.592 2.521 2.592 2.522-.917 1.382c-1.967 2.963-3.288 6.369-4.053 10.454l-.222 1.183zm57.803-5.514c-2.332-2.029-5.096-4.908-7.32-7.624-.979-1.196-2.323-2.653-2.988-3.238-4.385-3.86-11.346-6.627-16.67-6.627-.918 0-1.67-.107-1.67-.238 0-.542 8.609-4.525 9.78-4.525.814 0 3.323.933 4.212 1.566.425.303.83.551.9.551s.401-.685.736-1.521c.846-2.114 1.745-3.485 2.463-3.758.336-.128 1.165-.315 1.843-.417l1.232-.185.003 2.61c.006 5.107 1.331 7.459 5.686 10.088a51 51 0 0 1 3.043 2.02c.8.585 1.501 1.095 1.558 1.134s-.048.788-.235 1.666l-.338 1.597 1.064 1.519c1.194 1.703 1.651 3.05 1.653 4.87.003 1.926-.12 2.073-1.74 2.073-1.354 0-1.503-.073-3.212-1.56m-54.34-11.041c-2.605-2.59-4.735-4.839-4.735-4.998s.42-.695.932-1.192l.933-.904 4.928 4.927 4.927 4.928-.516.885c-.98 1.684-1.278 1.516-6.47-3.646m6.387-.38-1.446-1.317 1.055-1.055 1.055-1.056 1.438 1.456 1.437 1.455-.9.928c-.496.511-.967.924-1.047.917-.08-.006-.797-.604-1.592-1.328m-18.384-1.63c-.226-.323-.411-.817-.411-1.097 0-.308 1.988-2.513 5.015-5.563l5.015-5.053 1.075 1.05 1.076 1.05L-126 47.31c-5.321 5.327-5.852 5.686-6.674 4.513m22.093-1.424c-.881-.816-1.602-1.57-1.602-1.676s.398-.652.884-1.215l.885-1.024 1.761 1.719c.969.945 1.761 1.921 1.761 2.17 0 .61-.937 1.51-1.572 1.51-.283 0-1.235-.668-2.117-1.484m-7.371.082c-.465-.48-.846-1.006-.846-1.169 0-.428 9.993-9.982 10.537-10.074.25-.042.806.289 1.234.735l.777.812-5.28 5.284c-2.903 2.907-5.346 5.285-5.428 5.285s-.53-.393-.994-.873m-3.23-3.496-1.173-1.195 1.25-1.25 1.249-1.25 1.194 1.195 1.194 1.194-1.27 1.25-1.27 1.252zm-10.274-3.943c-.896-.933-1.63-1.886-1.63-2.117 0-.564.945-1.478 1.53-1.478.258 0 1.271.809 2.252 1.797l1.783 1.796-.877.85c-.482.467-1 .849-1.152.849s-1.01-.764-1.906-1.697m10.204-3.277c-3.144-3.16-4.954-5.174-4.954-5.513 0-.605 1.03-1.684 1.607-1.684.21 0 2.642 2.262 5.404 5.027l5.02 5.026-1.06 1.062-1.062 1.061zm-6.746-.098c-1.051-1.042-1.648-1.85-1.648-2.23 0-.553 1.095-1.694 1.625-1.694.127 0 1.093.835 2.147 1.855l1.917 1.855-1.059.92c-.582.505-1.12.92-1.196.922s-.88-.73-1.786-1.628m13.552.733-1.045-.913 1.684-1.711c.926-.941 1.98-1.87 2.344-2.064.604-.324.712-.292 1.292.383.349.405.634.881.634 1.059s-.87 1.186-1.932 2.241l-1.932 1.92zm-3.375-3.282-.989-1.012 1.833-1.769c1.007-.973 1.946-1.769 2.086-1.769.48 0 1.65 1.097 1.65 1.548 0 .248-.809 1.253-1.796 2.233l-1.796 1.781z" style="fill:#bababa;fill-opacity:1" transform="translate(181.6 -3.992)"/></svg>