<svg xmlns="http://www.w3.org/2000/svg" xml:space="preserve" width="2082.91" height="646" viewBox="0 0 551.103 170.921"><path d="M-151.701 259.949c0-.089.99-1.25 2.199-2.58 4.092-4.502 20.383-22.513 22.41-24.777 1.108-1.237 3.773-4.305 5.923-6.818 4.578-5.352 7.569-8.39 9.562-9.714 2.136-1.417 5.003-2.702 7.53-3.375 2.243-.596 2.308-.598 22.49-.598h20.24l1.125.6c1.435.767 2.418 2.25 2.62 3.952.284 2.398-.848 4.391-3.317 5.843l-1.221.717-12.315.133c-13.903.15-13.463.082-14.018 2.143-.534 1.982-1.514 1.852 13.43 1.769l13.432-.076 1.455-.64c1.253-.55 3.206-2.38 14.023-13.13 13.733-13.649 14.318-14.136 16.948-14.14 3.567-.007 6.003 3.56 4.543 6.65-.262.554-6.829 7.538-15.424 16.404-8.232 8.492-15.429 15.956-15.994 16.588-1.182 1.324-3.622 3.114-5.588 4.101-2.688 1.35-3.69 1.44-19.41 1.75-15.746.31-16.667.394-19.385 1.764-3.295 1.66-4.81 3.128-12.33 11.94l-1.41 1.654h-18.76c-10.317 0-18.758-.072-18.758-.16m253.83-30.112c-7.295-1.388-11.727-5.361-13.649-12.236-.563-2.016-.582-2.543-.671-18.677l-.092-16.603h-9.231v-10.848h9.252l.07-7.342.07-7.342 6.55-.07 6.548-.072v14.826h15.08v10.848h-15.108l.081 15.412c.08 15.27.087 15.426.676 16.884.636 1.574 1.78 2.922 3.091 3.64.62.34 1.494.444 3.72.444 2.827 0 2.972-.029 5.027-1.01a473 473 0 0 1 2.225-1.058c.06-.027.434.904.832 2.068a369 369 0 0 0 1.809 5.112l1.085 2.994-2.182 1.02c-3.27 1.529-6.088 2.172-9.986 2.279-2.065.056-4.017-.045-5.197-.27m44.487.079c-6.59-.958-12.191-3.615-16.624-7.888-3.855-3.716-6.29-7.925-7.79-13.468-.646-2.387-.693-2.939-.693-8.247s.047-5.86.693-8.247c2.715-10.026 9.64-17.461 18.938-20.334 5.994-1.85 13.775-1.733 19.532.296 2.933 1.034 3.974 1.558 6.377 3.213 3.683 2.536 7.108 6.757 8.97 11.053 2.15 4.965 3.197 11.929 2.573 17.128l-.167 1.389H156.5c-19.767 0-21.923.041-21.923.416 0 .856 1.393 4.525 2.252 5.931 3.163 5.182 9.946 8.312 17.013 7.851 5.171-.337 8.435-1.758 12.135-5.28 1.125-1.072 1.744-1.488 1.984-1.335.71.45 7.362 7.415 7.362 7.707 0 .52-3.662 3.956-5.563 5.22-5.009 3.33-10.894 4.919-17.985 4.857-1.965-.018-4.287-.135-5.16-.262m18.918-35.236c0-.333-.181-1.315-.403-2.183-1.27-4.98-5.169-9.172-9.916-10.668-3.123-.983-7.45-.872-10.503.27-3.462 1.295-6.646 4.138-8.303 7.411-.64 1.265-1.831 4.89-1.831 5.572 0 .112 6.965.204 15.478.204h15.478Zm131.584 35.166c-1.599-.523-2.836-1.356-4.033-2.716-1.364-1.549-2-3.415-1.974-5.783.057-5.027 3.56-8.645 8.425-8.7 2.74-.03 4.423.637 6.27 2.484 1.28 1.279 1.592 1.791 2.089 3.428 1.351 4.449-.37 8.905-4.155 10.757-1.77.865-4.843 1.111-6.622.53m34.587.078c-2.117-.372-5.622-1.64-7.348-2.66-2.311-1.363-5.614-4.777-6.746-6.975-3.272-6.348-2.419-14.576 2.036-19.63 2.268-2.572 6.281-4.76 10.65-5.808 1.452-.348 3.844-.452 12.607-.548l10.814-.117-.128-2.03c-.316-5.023-3.074-8.708-7.562-10.105-3.55-1.104-8.198-.902-12.546.546-2.812.937-4.415 1.728-7.315 3.61-1.22.793-2.309 1.344-2.419 1.225-.416-.448-5.09-8.623-5.12-8.956-.05-.543 2.585-2.378 5.645-3.932 5.175-2.626 9.855-3.808 16.028-4.047 6.614-.256 11.284.554 15.733 2.73 2.14 1.046 2.868 1.587 4.901 3.64 2.697 2.724 3.942 4.902 4.87 8.52.961 3.745 1.073 6.368 1.075 25.311l.002 18.455H354.71v-6.499l-2.05 2c-2.364 2.306-4.606 3.587-8.146 4.654-2.104.633-2.88.723-6.87.792-2.474.043-5.147-.036-5.94-.176zm11.866-10.439c2.584-.609 5.083-2.051 6.877-3.968 2.603-2.783 3.463-5.296 3.467-10.132l.002-2.204-8.93.106c-9.602.115-10.509.232-12.751 1.647-1.223.772-2.608 2.344-3.138 3.562-.624 1.43-.556 4.619.13 6.137 1.09 2.415 3.203 4.092 6.169 4.9 1.673.455 6.152.43 8.174-.048m-350.898 9.491c-.097-.097-.176-17.599-.176-38.893v-38.718H5.99v77.788H-.58c-3.614 0-6.65-.08-6.747-.177m26.611-28.73.068-28.905 6.284-.07 6.283-.072v3.577c0 1.967.06 3.577.133 3.577s.565-.478 1.092-1.06c2.28-2.524 6.047-4.766 10.076-5.997 2.123-.648 2.717-.711 6.823-.722 3.884-.01 4.802.07 6.723.592 4.303 1.17 7.314 2.999 10.225 6.212 2.503 2.763 4.294 7.345 4.862 12.44.174 1.558.283 9.636.283 20.936v18.399H58.907l-.002-17.397c-.001-10.772-.107-18.042-.277-19.092-1.085-6.684-4.843-10.254-11.098-10.541-6.079-.28-10.723 2.34-13.254 7.475-1.808 3.667-1.818 3.791-1.823 22.688l-.004 16.867H19.217zm168.916 28.73c-.229-.228-.23-45.753-.002-52.57l.174-5.207 6.11.071 6.11.071.132 4.48.132 4.478 1.368-1.876c3.562-4.886 9.2-7.694 15.698-7.821l2.778-.055.07 6.238.071 6.237h-2.849c-8.875.002-14.764 4.986-16.363 13.851-.273 1.513-.36 5.589-.367 17.132l-.01 15.148h-6.437c-3.541 0-6.518-.08-6.615-.177zm40.305-28.795v-28.972h6.07c3.338 0 6.13.099 6.205.22.074.12.154 1.727.176 3.571s.135 3.353.25 3.353.599-.447 1.075-.993c2.323-2.658 5.856-4.81 9.96-6.065 2.142-.655 2.69-.71 6.955-.715 5.371-.005 7.304.388 11.1 2.254 1.773.871 2.713 1.573 4.525 3.375 2.474 2.461 3.696 4.391 4.87 7.691 1.38 3.882 1.463 5.356 1.464 26.137l.002 19.116h-13.229l-.005-17.794c-.005-19.755-.019-19.946-1.716-23.394-2.077-4.222-5.781-6.145-11.24-5.835-5.55.315-9.628 2.954-11.754 7.608-1.623 3.554-1.584 3.042-1.68 22.018l-.088 17.397h-12.94zm150.989 28.795c-.226-.225-.233-54.633-.008-56.275l.168-1.228h12.893v57.68h-6.439c-3.54 0-6.517-.08-6.614-.177zm-433.7-14.142c-.236-1.095-1.031-2.723-1.885-3.862l-.638-.851 5.497-5.53c6.154-6.192 6.894-6.704 9.942-6.88 1.856-.108 4.153.486 4.153 1.074 0 .155-1.101 1.358-2.447 2.675a2582 2582 0 0 0-8.438 8.332l-5.99 5.937zm-37.7-7.141c0-.161.37-1.066.82-2.01 1.007-2.11 3.243-4.413 5.342-5.502 1.46-.758 1.526-.836 1.454-1.72l-.075-.926-4.366-.134c-4.032-.123-4.481-.187-5.883-.843-2.013-.942-3.903-2.865-4.696-4.78l-.63-1.52h-8.337l-.18 1.201c-.252 1.68-.81 2.26-2.416 2.515-2.217.35-4.137-.416-4.619-1.842-.063-.189-5.33.103-16.358.908-18.374 1.342-19.535 1.38-21.044.694-1.274-.578-2.65-2.083-3.408-3.726-.79-1.71-.79-5.46 0-7.17 1.36-2.948 3.506-4.314 6.717-4.277 1.667.02 29.521 1.93 33.007 2.265.864.082 1.125.017 1.125-.283 0-.215.404-.796.9-1.29.819-.82 1.037-.9 2.446-.897.852.002 1.846.153 2.21.335.777.388 1.586 1.869 1.587 2.903v.727h8.16l.184-1.72.185-1.72h42.836l-.084 6.02c-.083 5.93-.094 6.039-.788 7.353-.896 1.698-2.754 3.413-4.673 4.312-1.399.656-1.797.71-5.802.793-3.796.079-4.3.14-4.303.53a5 5 0 0 1-.152.994c-.125.466.096.674 1.393 1.305 2.004.975 4.546 3.519 5.463 5.466 1.124 2.388 1.18 2.332-2.4 2.33l-3.11-.004-.886-.912c-1.563-1.61-2.972-2.107-5.993-2.117-3.16-.01-4.179.303-6.106 1.873l-1.427 1.162h-3.046c-2.051 0-3.047-.096-3.047-.293zm-1.995-32.798c-.096-.156-.133-3.262-.082-6.904l.093-6.62-2.727-2.635c-2.284-2.205-2.822-2.603-3.308-2.445-.983.322-2.956.186-3.826-.264-.455-.235-1.16-.865-1.568-1.399-.64-.839-.742-1.218-.756-2.796l-.016-1.825-2.965-2.827-2.966-2.826.004-4.785.004-4.784-.971-.64c-2.07-1.362-2.703-3.403-1.736-5.59 1.128-2.549 3.982-3.56 6.398-2.266 2.987 1.6 3.192 6.16.354 7.913l-.87.537v8.108l2.55 2.412c2.458 2.327 2.582 2.406 3.505 2.24.526-.095.992-.203 1.036-.239.043-.036.567.044 1.164.178 2.416.542 3.821 2.472 3.57 4.902l-.144 1.4 2.875 2.68c1.581 1.472 3.06 3.069 3.288 3.548.342.722.413 2.09.413 8.04v7.17h-1.572c-.865 0-1.65-.128-1.747-.283zm9.404-2.734v-3.017l-.941-.555c-2.666-1.572-2.457-6.5.33-7.77l.656-.3-.089-3.981c-.084-3.77-.13-4.067-.86-5.57-.89-1.828-2.821-3.83-7.273-7.536-3.559-2.963-5.982-5.733-7.41-8.471-1.6-3.07-1.984-4.677-1.958-8.202.028-3.843.791-6.446 2.747-9.37 2.671-3.994 5.637-5.833 13.678-8.48 3.886-1.28 5.776-2.531 7.237-4.79.794-1.228 1.26-1.702 1.672-1.702 2.01 0 1.397 3.562-1.023 5.951-1.788 1.765-3.27 2.517-8.39 4.256-4.751 1.613-6.831 2.726-8.843 4.731-1.55 1.544-3.107 4.463-3.57 6.689-.47 2.262-.195 5.674.617 7.659.644 1.576 1.927 3.666 3.17 5.164l.592.715v-3.758c0-4.201.265-5.35 1.928-8.388 1.975-3.606 4.98-5.704 11.57-8.08 4.967-1.79 7.173-3.006 9.103-5.016 2.292-2.386 3.27-4.562 3.415-7.6.228-4.77-1.505-8.16-5.75-11.252-2.253-1.64-2.67-2.073-2.67-2.763 0-.679.943-1.537 1.689-1.537.898 0 3.703 1.945 5.719 3.965 6.591 6.606 5.793 17.697-1.67 23.195-2.16 1.592-3.167 2.08-8.603 4.164-2.522.968-5.201 2.153-5.955 2.635-1.765 1.13-3.679 3.266-4.522 5.049-1.519 3.21-1.487 7.81.075 11.121.926 1.96 2.878 4.578 4.356 5.84 1.837 1.567 2.786 2.984 3.487 5.201.58 1.838.66 2.568.66 5.997v3.904l1.142.805c.628.442 1.342 1.227 1.588 1.744.998 2.103.184 4.852-1.743 5.887l-.985.53v2.976l-.001 2.977h-3.175zm9.184 2.852c-.104-.104-.188-6.479-.188-14.167 0-8.368-.098-13.979-.245-13.979-.441 0-1.883-1.37-2.309-2.194-.23-.444-.418-1.366-.418-2.047 0-3.324 2.789-5.29 6.279-4.426.718.178 1.018.01 3.147-1.77l2.354-1.965.04-1.552c.049-1.917.748-3.154 2.264-4.006 3.971-2.232 8.334 1.823 6.357 5.908-.974 2.011-3.364 3.09-5.338 2.411l-1.119-.386-2.203 1.871c-1.212 1.029-2.285 2.002-2.383 2.162-.1.16-.148.741-.108 1.291.112 1.557-.42 2.739-1.772 3.928l-1.238 1.09-.017 5.007c-.01 2.754.063 4.976.16 4.936s4.774-4.358 10.393-9.596l10.216-9.525-.156-.98c-.345-2.173.583-3.968 2.577-4.985 1.327-.677 2.504-.654 3.956.078 2.821 1.422 3.268 5.837.77 7.616-.92.655-2.74 1.008-3.923.76-.876-.184-1.027-.063-7.8 6.202-3.798 3.515-8.96 8.331-11.47 10.705l-4.566 4.315-.07 6.665-.071 6.665-1.466.078c-.806.043-1.55-.007-1.653-.11m9.076-5.193c.004-5.07.037-5.411.596-6.346.325-.543 2.353-2.553 4.507-4.466 3.716-3.303 3.907-3.52 3.743-4.265-.444-2.022 1.381-4.726 3.452-5.115 2.12-.398 4.44.64 5.251 2.349.543 1.142.567 3.135.051 4.132-.975 1.885-3.306 2.93-5.377 2.408-1.042-.262-1.253-.238-1.745.197-.308.272-1.973 1.737-3.7 3.254s-3.245 3.034-3.373 3.371-.234 2.688-.234 5.226v4.613h-3.175zm449.18-7.183c-3.474-1.281-5.215-3.785-5.21-7.493.002-2.633.705-4.236 2.604-5.943 1.65-1.484 3.244-2.07 5.632-2.07 5.89 0 9.627 5.252 7.753 10.894-.526 1.584-2.288 3.51-3.954 4.322-1.365.666-5.348.835-6.825.29m-467.209-26.122c-.48-.479-.538-.76-.401-1.915.238-2.013 1.542-4.437 3.137-5.833 1.714-1.499 3.723-2.488 8.098-3.986 7.261-2.487 10.196-4.594 12.29-8.823l1.119-2.259.014-3.59c.015-4.057.23-4.781 1.418-4.781 1.038 0 1.298.415 1.763 2.813.962 4.967-.748 10.209-4.582 14.043-2.262 2.261-5.122 3.775-10.916 5.774-4.395 1.516-6.384 2.547-7.56 3.922-.838.979-1.127 1.493-2.366 4.205-.522 1.143-1.164 1.28-2.014.43" style="fill:#bababa;fill-opacity:1" transform="translate(156.894 -89.188)"/></svg>