<svg xmlns="http://www.w3.org/2000/svg" xml:space="preserve" width="2389.804" height="774.813" viewBox="0 0 632.302 205.002"><path d="M-99.774 132.752c-3.357-.816-6.147-3.08-7.593-6.163-.725-1.546-.86-2.165-.95-4.346-.127-3.118.307-4.804 1.819-7.068 5.24-7.847 17.123-6.204 20.113 2.78.473 1.423.554 2.164.463 4.276-.094 2.213-.224 2.795-.97 4.343-2.315 4.806-7.766 7.42-12.882 6.178m89.176.012c-3.312-.864-6.127-3.174-7.6-6.235-.704-1.465-.855-2.126-.948-4.152-.18-3.921.823-6.525 3.482-9.04 5.663-5.356 14.464-3.77 17.908 3.226.797 1.62.913 2.127 1.004 4.396.127 3.15-.305 4.822-1.838 7.117-1.995 2.987-5.113 4.729-8.833 4.932-1.025.056-2.443-.053-3.175-.244m-129.513-22.067c0-15.234.37-18.694 2.323-21.762.888-1.394 7.017-7.95 12.813-13.703l4.075-4.047 3.028.539c4.833.86 9.529 1.334 15 1.516 2.802.092 5.094.214 5.094.269 0 .091-3.482 6.091-17.55 30.243-2.754 4.73-6.26 10.772-7.79 13.427l-2.783 4.83h-14.211zm58.88 9.79c-.366-3.505-1.432-6.206-3.495-8.864l-1.181-1.521h26.969c17.22 0 27.483-.098 28.391-.27 2.49-.472 4.302-2.504 4.595-5.152.081-.729.175-8.826.21-17.994.058-15.365.1-16.735.53-17.524.911-1.667.842-1.658 13.344-1.654 14.252.005 14.996.142 18.42 3.402 1.41 1.343 1.821 2.02 4.203 6.913 4.581 9.408 7.027 14.64 7.481 16.006.54 1.623.806 4.866 1.22 14.897.364 8.839.246 10.009-1.167 11.618-1.287 1.466-2.044 1.664-6.37 1.664H8.093l-.16-1.521c-.424-4.06-1.807-7.183-4.422-9.983a15.65 15.65 0 0 0-7.792-4.526c-2.435-.572-6.223-.392-8.566.408-6.02 2.056-10.319 7.47-10.771 13.572l-.153 2.05h-57.3zM11.341 93.83c-.023-1.133-2.69-7.195-6.37-14.477-2.173-4.298-2.656-4.818-4.868-5.237-2.058-.39-14.614-.344-15.014.055-.232.233-.317 2.362-.317 7.929 0 6.996.037 7.63.466 7.86.256.137 5.346 1.212 11.31 2.39 5.965 1.176 11.203 2.251 11.64 2.388.436.137 1.329.227 1.984.2l1.19-.05zm-128.434 23.154c0-.203 3.888-7.039 11.364-19.979 1.345-2.328 5.071-8.656 8.28-14.061l5.834-9.828 2.276-.18c7.666-.606 16.686-2.22 23.708-4.243 6.05-1.743 13.024-4.104 16.404-5.553 4.132-1.77 12.745-6.127 16.44-8.314 1.726-1.022 3.174-1.758 3.216-1.635s-.225 3.556-.595 7.629c-.635 6.987-.674 8.371-.688 24.573-.01 12.573-.1 17.416-.33 18.094-.216.631-.611 1.074-1.242 1.389-.866.433-3.009.463-33.073.472-35.828.01-34.661-.043-38.467 1.785-2.713 1.303-4.836 3.232-6.757 6.136-1.276 1.931-1.685 2.343-2.934 2.956-1.495.735-3.436 1.163-3.436.759M40.664 58.177l.067-33.668.662.035c.363.019 3.43.049 6.813.066l6.151.031v5.042l1.753-1.344a22.8 22.8 0 0 1 7.43-3.761c1.791-.52 2.635-.595 6.428-.574 3.61.02 4.731.124 6.482.601 2.808.765 6.019 2.408 8.388 4.291 10.979 8.725 12.289 27.482 2.668 38.196-2.81 3.129-7.053 5.67-11.32 6.78-3.053.795-8.086.979-10.99.402-3.2-.636-7.108-2.57-9.318-4.61l-.727-.672v22.854H40.597zm28.244 4.282c4.61-.748 7.787-3.561 9.426-8.345.596-1.74.717-2.552.724-4.866.009-3.07-.31-4.426-1.673-7.127a11.16 11.16 0 0 0-8.623-6.07c-6.016-.752-10.844 2.152-12.971 7.804-2.986 7.932 1.652 17.34 9.16 18.585 1.999.331 2.028.332 3.957.019m169.6 11.773c-5.298-.838-11.259-2.805-14.219-4.692l-1.12-.715.622-1.388c1.627-3.634 3.945-8.553 4.116-8.738.105-.114.88.208 1.722.716 6.488 3.906 16.576 5.453 21.567 3.306 2.206-.95 3.11-2.781 2.258-4.577-.769-1.62-2.751-2.375-9.126-3.476-9.89-1.707-13.552-3.048-16.552-6.06-1.885-1.892-2.634-3.323-3.206-6.131-.708-3.468.158-7.588 2.233-10.636 2.018-2.963 6.45-5.801 10.778-6.901 6.583-1.674 15.76-1.358 22.357.77 2.376.765 5.824 2.394 5.81 2.743-.008.16-1.003 2.433-2.212 5.052-1.409 3.05-2.331 4.746-2.568 4.717-.202-.024-1.46-.525-2.794-1.113-3.583-1.578-6.282-2.208-10.087-2.353-6.416-.246-9.844 1.27-9.844 4.352 0 2.43 1.778 3.276 10.244 4.871 6.395 1.205 9.501 2.032 11.86 3.158 4.917 2.346 7.31 6.161 7.301 11.636-.008 4.351-1.104 7.14-3.92 9.97-2.155 2.166-5.888 4.03-10.015 5.001-3.735.88-11.213 1.12-15.206.488m75.273-.286c-4.096-.872-7.016-2.494-10.25-5.693l-2.318-2.294v7.895h-7.675l.068-34.197.067-34.198 3.902-.073 3.903-.073v27.069l1.918-1.82c2.369-2.246 4.945-3.797 8.176-4.922 2.441-.85 2.536-.86 7.236-.854 4.503.007 4.885.048 7.012.752 8.21 2.719 13.598 8.647 15.775 17.36.395 1.58.495 2.956.49 6.747-.006 4.34-.07 4.989-.716 7.322-1.33 4.8-3.157 7.99-6.436 11.241-4.21 4.174-9.483 6.185-16.125 6.149-1.746-.009-4.008-.194-5.027-.411m7.938-6.84c5.854-1.23 9.946-5.318 11.926-11.915.978-3.26 1.042-7.945.15-11.09-.833-2.947-2.269-5.53-4.22-7.6-3.168-3.359-6.102-4.696-10.767-4.905-5.2-.234-8.649 1.032-12.063 4.427-4.054 4.03-5.914 10.01-5.019 16.131.655 4.478 2.792 8.732 5.655 11.256.755.665 2.325 1.683 3.49 2.262 3.517 1.747 7.1 2.22 10.848 1.434m113.53 6.852c-2.73-.493-4.591-1.043-7.085-2.094-2.425-1.022-6.3-3.516-6.3-4.055 0-.294 2.685-5.626 3.067-6.09.043-.052.889.44 1.879 1.094 3.452 2.282 7.08 3.805 10.514 4.413.863.153 3.017.278 4.786.278 3.433 0 6.259-.532 8.266-1.556 3.978-2.029 4.403-7.585.766-10.016-1.68-1.122-4.204-1.894-10.556-3.226-8.407-1.763-11.327-2.942-14.116-5.701-2.507-2.48-3.404-5.5-2.95-9.928.57-5.564 4.696-9.687 11.705-11.696 1.916-.55 2.642-.606 7.673-.591 5.171.015 5.739.065 8.196.728 2.398.646 7.312 2.799 8.372 3.667.386.317.276.665-1.131 3.58l-1.559 3.23-.986-.675c-.542-.371-1.76-1.067-2.706-1.545-5.535-2.8-13.31-3.242-17.86-1.014-2.782 1.364-3.99 3.32-3.787 6.135.148 2.04 1.06 3.45 2.928 4.528 1.855 1.07 3.807 1.624 10.222 2.905 8.204 1.639 11.336 2.881 13.815 5.48 2.281 2.392 3.149 4.636 3.149 8.147 0 4.783-1.861 8.476-5.487 10.887-2.019 1.343-5.443 2.596-8.517 3.117-3.09.524-9.389.523-12.297-.002zm-334.854-33.97V6.12h14.42v11.641c0 6.403.029 11.641.065 11.642s.81-.553 1.72-1.23c1.96-1.457 5.214-3.04 7.607-3.7 2.388-.658 8.883-.663 11.51-.008 3.298.822 6.098 2.379 8.352 4.645 2.23 2.242 3.386 4.083 4.366 6.958 1.363 3.994 1.437 5.133 1.437 22.077v15.708H135.32V59.358c0-15.674-.052-16.337-1.452-18.727-2.062-3.52-6.299-5.106-10.653-3.99-4.192 1.076-6.57 3.37-7.826 7.547-.49 1.63-.535 2.73-.64 15.71l-.114 13.956h-14.24zm59.066 9.194.068-24.673 7.21-.072 7.21-.073v49.49h-14.555zm24.277-9.195V6.121h14.552v67.733h-14.552zm167.074 33.536c-.07-.182-.095-11.165-.058-24.408l.069-24.077 3.902-.073 3.903-.073v48.962h-3.845c-2.832 0-3.878-.087-3.97-.33m20.251-24.146v-24.49l3.837.034 3.836.034v7.165l2.077-1.984c2.335-2.23 4.678-3.654 7.669-4.658 1.864-.626 2.403-.682 6.658-.693 4.134-.01 4.843.055 6.615.608 5.53 1.727 9.383 5.163 11.323 10.096 1.521 3.868 1.478 3.274 1.578 21.498l.092 16.867h-7.966V58.762c0-16.447-.082-17.557-1.526-20.627-.834-1.771-3.438-4.44-5.119-5.248-3.944-1.891-9.722-1.733-13.736.376-2.358 1.239-4.437 3.45-5.648 6.006-1.713 3.615-1.73 3.806-1.811 19.9l-.073 14.553-3.903.073-3.903.073zm-474 17.947c-18.05-.505-36.952-5.68-51.113-13.993-5.809-3.41-12.39-8.148-15.96-11.49-1.253-1.174-1.205-1.154 2.415 1.017 7.022 4.21 19.871 9.38 28.939 11.64 21.211 5.291 41.895 4.83 63.26-1.41 16.242-4.743 30.73-12.593 44.157-23.926C-14.505 15.038-1.84-5.517 2.103-24.946c.354-1.743.608-3.205.565-3.249-.044-.043-3.142.114-6.885.348s-6.868.364-6.944.288c-.213-.213 6.88-9.434 20.803-27.042 2.417-3.056 4.912-6.247 5.545-7.09.634-.843 1.244-1.439 1.356-1.323s1.394 3.366 2.85 7.222c2.511 6.658 6.24 16.348 11.25 29.226 1.242 3.196 2.224 5.846 2.18 5.89-.043.043-.663-.156-1.377-.443-3.106-1.247-11.81-4.51-12.034-4.51-.134 0-.244.213-.244.475 0 .26-.467 2.315-1.038 4.564C11.973 3.683-2.986 25.742-24.224 41.868c-18.538 14.077-41.28 22.954-63.897 24.943-4.719.415-10.796.625-14.817.513m-3.573-15.817c0-.359-.655-8.723-1.455-18.587-.801-9.865-1.592-19.662-1.757-21.772-.166-2.11-.434-4.093-.595-4.405-.162-.313-3.27-2.84-6.908-5.616-5.805-4.43-6.704-5.214-7.342-6.407-.775-1.447-.902-2.648-.452-4.268.557-2.005 2.251-3.282 5.81-4.38.945-.29 4.458-1.545 7.805-2.787 6.907-2.563 8.227-2.829 14.01-2.829h3.785l.318-.768c.412-.995 1.233-1.752 2.451-2.261.984-.411 11.362-1.642 28.78-3.413 7.756-.788 9.013-.979 10.055-1.524 1.365-.716 4.465-.969 12.303-1.004 4.224-.02 4.581.018 5.87.619.895.416 1.657 1.03 2.186 1.76.733 1.011 1.785 3.805 2.245 5.962.158.74.3.842 1.355.987 3.549.486 6.521 4.107 6.928 8.439l.142 1.52-46.537.067-46.537.067-.078 1.623c-.059 1.22.028 1.73.35 2.05.39.391 4.6.428 48.666.428 43.744 0 48.255.04 48.4.419.266.692.18 8.31-.098 8.831-.399.745-1.709 1.069-4.345 1.073-2.828.005-3.613.314-4.032 1.59-.166.506-.484 2.872-.707 5.258l-.406 4.34-1.939 1.97c-4.472 4.543-11.373 10.22-17.068 14.038-16.584 11.12-35.345 17.63-55.779 19.357-1.746.148-3.68.27-4.3.271-1.018.002-1.124-.058-1.124-.648m73.35-70.67c.215-.215-.55-2.973-1.156-4.16-.835-1.636-1.262-1.71-8.916-1.534-8.077.185-7.715.015-7.715 3.623v2.22h8.82c4.85 0 8.885-.067 8.966-.148m-106.82 67.226c-4.299-1.259-10.202-3.264-12.163-4.13-1.371-.608-1.333-.537-2.661-4.919-1.1-3.629-2.309-9.392-2.93-13.976-.638-4.718-.644-15.529-.01-20.373 2.677-20.467 11.316-37.926 25.737-52.008 14.294-13.96 33.131-22.62 52.882-24.311 11.688-1.001 24.585.625 35.206 4.44 12.98 4.66 23.257 11.105 32.99 20.687 1.856 1.827 3.374 3.45 3.374 3.608s-1.743 2.534-3.874 5.282c-2.13 2.748-3.997 5.192-4.148 5.432-.232.37-.888-.185-4.262-3.6-2.194-2.22-5.12-4.969-6.502-6.107-9.92-8.168-23.03-13.784-36.512-15.64-4.592-.631-14.321-.63-18.521.005-16.384 2.472-30.283 9.342-41.561 20.54-6.082 6.04-10.279 11.839-13.883 19.183-3.94 8.03-6.031 14.863-7.114 23.247-1.793 13.89.381 27.34 6.476 40.055.994 2.073 1.726 3.765 1.626 3.759s-1.967-.534-4.15-1.173zM206.758 35.89c0-.216.834-3.365 1.852-6.997s1.852-6.718 1.852-6.857-.532-.566-1.182-.947c-2.303-1.35-3.79-4.612-3.448-7.562.391-3.366 2.804-6.565 5.702-7.558 1.631-.56 4.285-.626 5.981-.15 1.518.426 3.477 1.8 4.512 3.163 1.858 2.45 2.112 5.93.763 10.457-.586 1.966-5.473 13.76-6.678 16.117l-.372.727h-4.49c-3.797 0-4.492-.06-4.492-.393m-42.333-17.953c-4.04-.936-6.615-3.938-6.615-7.715 0-2.18.692-3.774 2.364-5.448 1.851-1.853 3.471-2.468 6.5-2.468 2.672 0 4.467.594 6.077 2.01 1.832 1.613 2.618 3.333 2.638 5.773.013 1.66-.106 2.232-.728 3.5-.409.832-1.233 1.933-1.83 2.445-2.062 1.764-5.573 2.559-8.406 1.903m188.446-2.115c-3.06-1.11-4.576-4.587-3.262-7.48 1.99-4.38 8.337-4.364 10.37.028.955 2.06.506 4.376-1.171 6.051-1.619 1.616-3.875 2.148-5.937 1.4" style="fill:#bababa;fill-opacity:1" transform="translate(170.751 71.943)"/></svg>