<svg xmlns="http://www.w3.org/2000/svg" xml:space="preserve" width="2081.808" height="636.536" viewBox="0 0 550.812 168.417"><path d="m-194.11 231.479 7.2-6.033 6.867-8.028c8.354-9.765 35.748-42.335 38.107-45.306.757-.954-19.692 19.245-33.586 33.175-15.863 15.905-15.782 15.814-20.61 23.069a209 209 0 0 0-3.768 5.886c-.875 1.439-1.774 2.877-1.998 3.195s-.407.644-.407.724c0 .19-.188.342 8.194-6.682m75.708-72.517c2.589-3.818 3.429-7.536 2.432-10.764-.814-2.634-2.376-3.815-5.346-4.04-2.85-.215-6.32 1.098-8.777 3.322-.748.677-1.36 1.31-1.36 1.405s1.152.214 2.56.265c2.993.109 4.345.593 6.05 2.164 1.783 1.643 2.771 4.016 3.062 7.35.085.976.241 1.722.346 1.657.106-.065.57-.677 1.033-1.359m-57.743 135.591-1.417-.141-.398-1.2c-.22-.659-1.023-3.444-1.786-6.188-.762-2.745-1.466-5.06-1.563-5.147-.097-.086-1.305-.375-2.684-.642s-3.998-.983-5.82-1.592l-3.315-1.107-3.226 3.07c-1.774 1.69-3.86 3.714-4.633 4.5l-1.407 1.43-2.517-1.333c-4.598-2.435-9.167-5.391-9.167-5.93 0-.15.736-2.85 1.635-5.998.9-3.148 1.635-5.822 1.635-5.942 0-.119-1.406-1.609-3.126-3.31s-3.658-3.718-4.307-4.48l-1.18-1.387-6.055 1.55c-3.33.852-6.185 1.55-6.345 1.55-.533 0-4.261-5.857-6.225-9.779l-.912-1.821 3.008-3.084c1.655-1.696 3.776-3.876 4.713-4.844l1.705-1.76-.422-1.074c-.6-1.527-1.679-5.474-2.238-8.182l-.478-2.313-4.275-1.155c-2.35-.636-5.174-1.436-6.274-1.778-1.893-.589-2.009-.66-2.162-1.328-.215-.932-.164-10.431.063-11.817l.178-1.082 6.26-1.873c3.444-1.03 6.3-1.917 6.346-1.97s.34-1.372.65-2.93c.311-1.56.962-4.235 1.447-5.946l.881-3.11-4.36-4.777c-2.398-2.627-4.36-4.913-4.36-5.08 0-1.243 6.158-11.719 7.101-12.08.252-.097 7.91 2.013 8.149 2.245.055.053-1.988 2.185-4.54 4.738l-4.638 4.643 7.858 7.739 7.857 7.74-.53 1.728c-1.696 5.52-2.38 10.006-2.377 15.567.003 4.552.312 7.35 1.286 11.663 1.086 4.807 1.6 5.777 3.054 5.777 1.03 0 2.854-.876 4.09-1.965.544-.478 1.038-.869 1.099-.869s-.09.413-.334.918c-.657 1.361-2.249 6.335-2.706 8.456-.31 1.437-.399 2.808-.4 6.105 0 3.868.058 4.535.65 7.412l.65 3.16.13-4.904c.18-6.891.955-10.495 3.47-16.14 1.603-3.596 3.703-7.054 6.097-10.037l1.125-1.4-3.53-3.38-3.531-3.38 3.352-4.32a597 597 0 0 0 3.62-4.697c.237-.329-1.053-1.691-10.682-11.283-6.023-6-11.613-11.53-12.422-12.288-.81-.76-1.472-1.473-1.472-1.587 0-.359 3.678-4.23 5.194-5.467 1.86-1.517 3.858-2.604 5.924-3.222 1.607-.482 1.9-.492 17.223-.629 16.818-.15 16.788-.147 21.495-1.42 5.164-1.396 10.628-4.274 15.675-8.255 1.2-.948 4.427-4.03 7.186-6.867 8.228-8.46 13.61-13.744 16.257-15.962 10.998-9.213 22.911-15.553 33.143-17.638 2.671-.545 3.814-.563 4.005-.065.226.588.169 4.028-.1 5.997-.346 2.543-1.772 7.955-2.961 11.24-4.735 13.077-12.291 24.514-25.6 38.749-7.622 8.152-11.985 16.437-13.592 25.808-.172 1.006-.396 1.89-.497 1.965-2.951 2.204-9.122 5.616-13.263 7.335-4.497 1.866-10.293 3.512-14.498 4.117-4.96.713-4.733.628-2.18.821 6.549.496 14.948-.888 21.692-3.574 10.948-4.36 21.057-12.475 33.357-26.773l3.218-3.741-2.482-2.333a639 639 0 0 0-3.45-3.224l-.968-.89 2.93-.922c1.611-.507 6.51-2.082 10.887-3.5 14.592-4.731 16.196-5.235 16.308-5.123.089.089-5.738 27.087-6.53 30.261l-.207.825-.589-.424c-.324-.234-.932-.785-1.352-1.226s-1.706-1.675-2.86-2.742l-2.096-1.94-6.297 6.273c-10.262 10.222-16.467 14.915-25.416 19.221-4.83 2.324-10.136 3.967-15.98 4.947-3.383.567-12.777.569-15.805.002-1.998-.374-4.145-.878-4.952-1.162q-.393-.14-.17.084c.36.368 4.411 1.939 7.084 2.748 3.958 1.198 7.58 1.744 11.664 1.756 3.823.012 5.656-.217 9.566-1.195 1.425-.356 2.631-.607 2.68-.557.148.148.47 5.11.717 11.043.25 6.044.162 7.206-.763 9.961-.83 2.474-2.16 4.458-5.195 7.744l-2.805 3.037-2.206-2.141a8380 8380 0 0 1-11.583-11.31c-5.158-5.042-9.933-9.684-10.613-10.314l-1.234-1.147-3.67 2.88c-2.02 1.584-3.943 3.13-4.275 3.438l-.604.559-1.974-1.953a454 454 0 0 1-3.74-3.751c-.972-.99-1.875-1.799-2.008-1.799-.298 0-2.116 1.861-3.462 3.544-1.186 1.483-2.12 2.929-3.365 5.212-3.19 5.849-3.457 12.997-.705 18.87 1.834 3.913 5.34 7.627 9.205 9.751 1.323.728 4.096 1.921 4.096 1.763 0-.038-.613-.453-1.363-.923-4.512-2.829-8.088-7.571-9.34-12.383-.87-3.35-.77-8.53.225-11.605l.406-1.258.025 1.526c.125 7.777 5.132 14.413 12.847 17.028 3.964 1.343 7.396 1.83 12.89 1.829 9.709-.002 17.851-2.502 26.206-8.045 12-7.96 19.85-20.7 21.84-35.446.179-1.32.392-3.249.474-4.288l.15-1.89 2.408-1.915c1.324-1.054 3.922-3.294 5.773-4.978s3.64-3.286 3.974-3.56l.609-.5 6.277 1.916c6.147 1.877 6.28 1.93 6.48 2.57.11.36.216 3.324.233 6.587.026 5.02-.02 5.98-.296 6.239-.18.168-2.681.966-5.559 1.773-2.878.808-5.62 1.588-6.092 1.734l-.86.264-.52 2.602c-.285 1.431-.99 4.018-1.566 5.75l-1.048 3.146 4.675 4.868 4.675 4.867-.917 1.687c-2.585 4.75-3.43 6.207-4.619 7.954-.713 1.05-1.362 1.908-1.443 1.908s-2.83-.687-6.113-1.526c-3.282-.84-6.085-1.526-6.23-1.526-.143 0-.738.613-1.32 1.362s-2.466 2.76-4.186 4.469l-3.127 3.105.474 1.69c.26.93 1.05 3.643 1.756 6.029.934 3.16 1.219 4.413 1.05 4.616-.715.862-9.871 6.311-11.3 6.725-.232.067-1.922-1.394-5.006-4.327l-4.656-4.429-1.6.616c-2.414.93-4.497 1.526-7.502 2.146l-2.717.561-.354 1.2c-.196.659-.984 3.442-1.752 6.184-1.264 4.51-1.45 5.006-1.943 5.198-.643.25-9.727.408-11.772.204zM-214.95 172.91c0-.076 1.028-1.169 2.284-2.43l2.283-2.292-1.422-5.015a1357 1357 0 0 0-1.724-6.04l-.301-1.025 1.457-1.08c2.034-1.508 5.269-3.517 7.947-4.934l2.27-1.201 3.476 3.216a555 555 0 0 0 4.617 4.235l1.141 1.018 1.794-.66c2.479-.914 6.973-2.261 8.63-2.587 1.037-.204 1.427-.384 1.577-.73.11-.252.836-2.793 1.614-5.647s1.51-5.365 1.625-5.58c.162-.303.59-.425 1.887-.534 2.086-.177 9.157-.148 10.76.043l1.189.142 1.57 5.73c.862 3.152 1.688 5.874 1.834 6.05s.425.318.62.316c.61-.005 5.478 1.159 5.478 1.31 0 .079-1.889 2.006-4.197 4.282-3.131 3.088-4.75 4.505-6.378 5.584l-2.182 1.446-1.645-.124c-2.192-.166-6.88.26-10.196.927-3.415.686-8.366 2.317-11.591 3.817l-2.507 1.166-10.137.142c-5.812.081-10.486.238-10.955.367-.45.124-.818.163-.818.088" style="fill:#bababa;fill-opacity:1;stroke-width:.823957" transform="translate(245.518 -126.23)"/><path d="M-70.944 210.406c-4.278-.658-9.236-2.412-11.625-4.114l-.771-.548 1.502-3.126c.826-1.72 1.68-3.38 1.898-3.689l.397-.563 1.548.924c3.621 2.16 7.502 3.25 12.343 3.465 6.24.278 9.68-1.079 9.602-3.789-.07-2.513-1.73-3.347-10.138-5.094-5.945-1.236-7.882-1.82-10.397-3.136-4.657-2.437-6.498-5.853-5.75-10.672.698-4.5 3.713-7.73 8.967-9.607 5.488-1.96 13.9-2.01 20.272-.121 1.949.578 4.39 1.59 5.354 2.22l.58.379-1.743 3.642c-.958 2.004-1.769 3.677-1.803 3.72-.033.042-.477-.17-.986-.47-3.133-1.848-8.471-3.037-12.767-2.842-3.55.16-5.062.653-6.338 2.065-1.776 1.965-.881 4.13 2.178 5.275 1.453.544 2.413.776 9.26 2.238 5.971 1.274 9.03 2.562 11.184 4.707 1.369 1.363 2.543 3.747 2.78 5.644.229 1.827-.265 4.603-1.133 6.376-1.493 3.05-5.504 5.758-10.126 6.839-2.604.608-11.062.772-14.288.277m140.792-.028c-4.387-.795-8.222-2.632-11.995-5.746-3.905-3.223-6.359-8.958-6.37-14.887-.015-8.98 5.764-16.4 15.132-19.427 3.416-1.104 5.945-1.41 10.476-1.269 5.152.162 7.604.713 11.377 2.558 2.737 1.34 6.31 4.023 6.167 4.632-.064.272-3.839 3.628-6.335 5.631-.34.274-.669.125-1.973-.896-6.383-4.997-14.855-4.95-20.268.113-2.768 2.589-3.769 5.202-3.608 9.42.088 2.32.21 2.906.917 4.397 1.544 3.254 4.568 5.834 8.135 6.94 2.623.813 6.69.817 9.292.008 2.138-.665 4.603-2.072 5.993-3.421.686-.666 1.079-.872 1.358-.711.216.124 1.83 1.417 3.586 2.872l3.194 2.646-1.113 1.137c-2.768 2.828-6.929 5.03-11.149 5.902-2.892.597-9.778.65-12.816.1zm210.046.029c-4.342-.67-8.273-2.04-11.146-3.883l-1.24-.796 1.726-3.626c.949-1.994 1.762-3.667 1.807-3.717s.832.35 1.748.886c2.169 1.271 4.866 2.33 7.502 2.943 2.951.686 8.885.692 11.094.01 2.933-.904 4.044-2.83 2.806-4.862-.92-1.508-2.937-2.22-11.122-3.922-2.547-.53-5.54-1.314-6.653-1.742-3.625-1.397-6.383-3.571-7.293-5.748-1.069-2.559-.937-6.218.324-8.984 1.452-3.184 5.488-5.97 10.447-7.21 3.223-.805 9.507-1 13.236-.409 3.997.633 7.995 1.921 9.974 3.215l.588.384-1.68 3.404c-.923 1.872-1.723 3.53-1.778 3.685-.059.166-.856-.084-1.952-.612-1.018-.49-2.923-1.216-4.233-1.612-2.128-.644-2.818-.723-6.482-.743-3.779-.022-4.21.026-5.492.605-3.865 1.747-3.91 4.968-.09 6.611.714.308 3.676 1.036 6.58 1.618s6.1 1.309 7.102 1.614c4.596 1.398 7.43 3.463 8.866 6.462.665 1.389.76 1.888.76 3.993.001 6.156-3.528 10.12-10.715 12.038-2.691.717-11.127.946-14.684.398M-14.64 190.086c2.936-1.087 4.55-3.225 4.55-6.026 0-2.774-1.56-4.747-4.64-5.872-1.398-.51-2.25-.59-7.465-.69l-5.887-.114v13.336l6.151-.106c4.774-.082 6.407-.2 7.29-.528m-24.29-.228v-20.39l12.501.111c13.37.12 13.772.156 17.704 1.584 6.388 2.318 9.927 7.572 9.365 13.902-.576 6.478-4.548 10.907-11.488 12.812-1.774.486-2.948.568-9.627.667l-7.607.112v11.594H-38.93zm66.934-2.933c-1.764-3.834-3.294-7.059-3.4-7.167-.104-.109-1.739 3.046-3.63 7.011l-3.441 7.209 6.76.132c3.717.073 6.795.054 6.84-.041.043-.096-1.365-3.31-3.129-7.144m-29.099 23.06c0-.146 4.525-9.314 10.055-20.373l10.054-20.108h5.418c5.332 0 5.423.009 5.789.595.204.328 3.734 7.204 7.843 15.28 4.11 8.076 8.659 16.979 10.109 19.783l2.636 5.098-5.847-.071-5.847-.072-1.935-4.1-1.936-4.102H13.638l-1.876 4.166-1.876 4.166-5.49.001c-3.494.001-5.49-.095-5.49-.264zm102.038.066c-.068-.11-.105-9.248-.082-20.307l.041-20.108h34.925l.073 3.903.073 3.902H111.62v8.202h21.431v7.673h-21.431v8.996h25.4v7.938h-17.976c-9.887 0-18.032-.09-18.1-.2m43.483-20.174v-20.373h10.848v32.544h22.49v8.202h-33.338zm39.158 0v-20.373h34.925v7.937H194.17v8.202H215.6v7.673h-21.444l.072 4.432.073 4.432 12.634.069 12.634.068v7.933h-35.984zm55.298 13.243v-7.129l-7.715-11.458c-7.215-10.715-9.747-14.587-9.747-14.907 0-.073 2.59-.1 5.755-.061l5.754.071 5.821 8.66c3.202 4.762 5.88 8.66 5.953 8.66.073.001 2.76-3.895 5.972-8.659l5.84-8.66 5.339-.072c2.936-.04 5.339-.01 5.339.067 0 .16-15.34 23.22-16.618 24.981l-.845 1.164v14.473h-10.848zM-75.226 249.652c-2.513-.369-4.707-1.028-6.61-1.986l-1.81-.911 1.184-2.357 1.184-2.356 1.832.902c2.423 1.194 4.93 1.758 7.853 1.766 3.786.012 5.406-.937 5.103-2.988-.143-.968-1.24-1.542-4.324-2.259-9.61-2.235-12.044-3.939-12.03-8.419.007-2.254.557-3.63 2.05-5.122 2.329-2.33 6.005-3.376 11.04-3.143 1.747.08 3.873.337 4.724.57 1.759.483 4.405 1.601 4.405 1.862 0 .096-.475 1.187-1.055 2.426-.683 1.458-1.173 2.202-1.39 2.11-4.331-1.825-6.744-2.29-9.43-1.817-2.614.46-3.794 1.635-3.363 3.35.238.949 1.603 1.541 5.714 2.48 5.63 1.285 7.502 2.041 9.047 3.657 1.451 1.518 1.957 4.305 1.224 6.75-1.242 4.147-8.003 6.563-15.348 5.485m110.58-5.673c1.963-.583 3.824-2.161 4.734-4.015.639-1.3.755-1.861.755-3.653 0-1.784-.117-2.354-.744-3.631-1.421-2.894-4.206-4.48-7.863-4.48-4.617 0-7.947 2.795-8.594 7.215-.336 2.292.846 5.41 2.624 6.925.672.572 2.428 1.518 3.332 1.794 1.146.35 4.347.263 5.755-.155m-6.682 5.586c-4.8-.934-8.609-3.455-10.516-6.96-2.011-3.694-2.01-8.57.002-12.36 1.77-3.332 5.798-6.196 10.037-7.137 10.225-2.27 19.653 4.065 19.653 13.203 0 6.142-4.121 11.251-10.444 12.947-2.233.6-6.468.748-8.732.307zm39.952.201c-5.36-.863-9.398-3.56-11.376-7.596-3.97-8.1.958-17.117 10.45-19.12 2.822-.595 7.213-.37 9.708.497 1.984.69 4.26 2.07 5.431 3.294l.72.751-2.206 1.78c-1.214.979-2.32 1.78-2.46 1.78-.139 0-.542-.31-.894-.688-1.239-1.327-3.075-2.04-5.581-2.168-4.133-.21-6.982 1.257-8.643 4.452-.847 1.629-.884 1.82-.779 3.96.128 2.588.644 3.819 2.234 5.33 1.941 1.845 3.008 2.21 6.439 2.21 3.402 0 4.315-.309 6.36-2.156l1.044-.944 1.92 1.666c1.056.917 2.09 1.818 2.297 2.003.811.724-2.87 3.29-6.197 4.32-1.84.57-6.628.925-8.467.63m128.58-.104c-3.087-.404-6.758-1.614-8.156-2.688-.47-.361-.443-.473.626-2.61a130 130 0 0 1 1.155-2.279c.02-.025.87.358 1.887.853 2.446 1.19 5.024 1.762 7.935 1.763 3.386 0 5.16-.857 5.16-2.495 0-1.558-.895-1.977-7.673-3.586-4.638-1.101-6.997-2.408-8.167-4.523-.962-1.74-.91-4.486.12-6.382 1.926-3.542 6.394-5.286 12.665-4.943 3.007.164 5.107.607 7.082 1.491 1.942.87 1.913.74.718 3.29-.87 1.857-1.173 2.28-1.526 2.137-4.29-1.742-6.51-2.166-9.174-1.751-2.688.418-3.906 1.577-3.472 3.305.255 1.017 1.741 1.659 6.206 2.678 5.257 1.2 6.756 1.798 8.245 3.288 2.65 2.65 2.445 7.288-.433 9.815-2.668 2.343-7.723 3.353-13.198 2.637m-232.402-13.255c2.926-.977 3.753-4.492 1.554-6.605-1.294-1.244-2.632-1.56-6.593-1.56h-3.19v8.466h3.665c2.031 0 4.065-.134 4.564-.3m-15.108-.096v-13.097h7.882c8.346 0 9.655.147 11.996 1.34 1.652.844 3.317 2.53 4.127 4.18.638 1.298.733 1.802.73 3.873-.005 2.007-.113 2.61-.691 3.836-1.117 2.369-2.718 3.726-5.656 4.794-1.356.493-2.309.595-6.548.698l-4.961.122v7.351h-6.88zm49.3.036c2.573-1.075 3.308-4.286 1.462-6.389-1.148-1.307-2.759-1.717-6.757-1.717h-3.26v8.467h3.846c2.648 0 4.113-.112 4.708-.36m-15.434-.102v-13.163l8.533.145c7.23.123 8.714.215 9.715.604 2.849 1.106 4.854 2.835 5.883 5.072.503 1.095.606 1.755.595 3.836-.01 1.703-.15 2.825-.438 3.477-.595 1.352-2.21 3.06-3.696 3.91l-1.262.72L5.925 245c1.67 2.286 3.035 4.212 3.035 4.281 0 .07-1.652.126-3.67.126H1.617l-2.693-3.704L-3.768 242H-9.56v7.408h-6.88zm108.92 12.987c-.096-.097-.176-5.99-.176-13.097v-12.92h7.144v11.814l5.92-5.908 5.921-5.907h8.005l-5.69 5.592c-3.129 3.076-5.69 5.736-5.69 5.913s2.68 3.496 5.954 7.375 5.953 7.112 5.953 7.184-1.781.13-3.959.13h-3.958l-4.413-5.05-4.413-5.049-1.815 1.801-1.815 1.802v6.496h-3.396c-1.867 0-3.474-.08-3.571-.176m35.014-12.92v-13.098h22.225v5.027h-15.346v5.292h13.494v5.027h-13.494v5.821h15.875v5.027h-22.754zm38.894 2.52v-10.59h-9.26v-5.028h25.135v5.015l-4.565.072-4.564.073v20.902l-3.373.074-3.373.074z" style="fill:#bababa;fill-opacity:1" transform="translate(245.518 -126.23)"/></svg>