<?xml version="1.0" encoding="UTF-8" standalone="no"?>
<svg
   xml:space="preserve"
   width="2041"
   height="456.376"
   viewBox="0 0 540.015 120.75"
   version="1.1"
   id="svg1"
   sodipodi:docname="stylus.svg"
   inkscape:version="1.4.4 (dcaf3e7, 2026-05-05)"
   xmlns:inkscape="http://www.inkscape.org/namespaces/inkscape"
   xmlns:sodipodi="http://sodipodi.sourceforge.net/DTD/sodipodi-0.dtd"
   xmlns="http://www.w3.org/2000/svg"
   xmlns:svg="http://www.w3.org/2000/svg"><defs
     id="defs1" /><sodipodi:namedview
     id="namedview1"
     pagecolor="#505050"
     bordercolor="#eeeeee"
     borderopacity="1"
     inkscape:showpageshadow="0"
     inkscape:pageopacity="0"
     inkscape:pagecheckerboard="0"
     inkscape:deskcolor="#505050"
     inkscape:zoom="0.11613231"
     inkscape:cx="1020.3879"
     inkscape:cy="228.188"
     inkscape:window-width="1024"
     inkscape:window-height="210"
     inkscape:window-x="580"
     inkscape:window-y="30"
     inkscape:window-maximized="0"
     inkscape:current-layer="svg1" /><path
     d="m 436.24134,111.77081 c -1.71054,-0.28951 -6.00703,-1.39447 -6.49526,-1.67028 -0.17988,-0.10279 0.11906,-1.05271 0.96705,-3.0639 6.98264,-16.56321 8.44135,-28.960136 4.94575,-42.024318 l -0.7709,-2.879739 7.86147,-16.046708 7.8606,-16.045851 1.76793,-0.919941 c 3.76285,-1.958085 6.52353,-5.835711 7.10427,-9.977157 l 0.14904,-1.062985 1.61889,0.570466 c 1.76708,0.623572 11.02473,5.063099 11.02473,5.287516 0,0.07709 -0.77433,1.307104 -1.72168,2.735838 -3.76884,5.686671 -5.74406,11.075261 -5.75262,15.694664 -0.0129,6.139788 2.77352,11.667997 8.10558,16.087822 2.50971,2.08143 4.71791,3.564127 10.32749,6.938955 2.72384,1.639447 5.73292,3.558131 6.68541,4.264789 3.57012,2.646756 6.95352,6.682845 8.98698,10.71979 0.60473,1.201748 2.3778,5.861409 2.3778,6.251141 0,0.04968 -0.70495,0.09079 -1.56664,0.09079 -3.30802,0 -6.47385,0.979043 -8.40024,2.597933 -0.78118,0.656121 -1.05613,0.781178 -1.19489,0.543912 -3.17097,-5.449405 -5.46483,-8.234066 -12.48002,-15.152464 -7.68158,-7.577089 -10.11763,-10.59559 -12.78237,-15.839421 -0.65784,-1.295112 -1.19661,-2.269872 -1.19661,-2.165372 0,0.505367 1.25571,4.212539 2.03432,6.007879 1.70883,3.940154 3.85193,6.963795 8.99469,12.687298 6.08839,6.777066 8.42508,9.805845 10.87568,14.10147 1.97008,3.451918 2.83948,5.625856 2.97053,7.424622 0.0985,1.349075 0.0548,1.543513 -0.48652,2.187642 -0.91394,1.085259 -2.24246,1.312249 -6.24257,1.067269 -1.8159,-0.11135 -5.03569,-0.191012 -7.15481,-0.1773 -3.16583,0.0214 -4.17571,0.11221 -5.66526,0.51136 -2.75982,0.73921 -5.53592,2.20734 -9.40498,4.97316 -5.30036,3.78855 -8.29916,5.21985 -12.90058,6.15863 -2.61934,0.53278 -7.66274,0.59274 -10.44226,0.12249 M 406.52315,98.811129 c -0.38288,-0.46254 -0.33834,-2.163658 0.1499,-5.743203 0.32549,-2.391503 1.09296,-6.589481 1.37562,-7.529978 0.0994,-0.332344 0.80088,-0.04882 4.65967,1.882708 l 4.54231,2.273298 -0.41971,0.494233 c -1.87586,2.207343 -4.8738,5.320921 -6.73082,6.991204 -2.29128,2.060873 -2.96625,2.369232 -3.57697,1.631738 M 59.468337,98.482212 C 52.686132,97.504026 45.566444,93.815699 41.843854,89.349619 40.59157,87.848077 38.731132,85.078834 38.731132,84.717368 c 0,-0.124201 0.740064,-0.692097 1.64373,-1.262563 1.451005,-0.916514 1.669426,-0.993604 1.869004,-0.662974 2.99623,4.949177 6.058416,7.917998 10.425135,10.107353 3.670339,1.839025 7.30556,2.554248 12.085139,2.376941 5.295225,-0.197007 8.922737,-1.610324 12.065439,-4.701632 2.689583,-2.645043 3.838224,-5.464823 3.838224,-9.428961 0,-2.530265 -0.527638,-4.419826 -1.773069,-6.347075 -2.441183,-3.777409 -6.196322,-6.204031 -17.490861,-11.305674 -9.264502,-4.18513 -13.398238,-6.909832 -16.373055,-10.794311 -2.281863,-2.979099 -3.273755,-5.779179 -3.497315,-9.873513 -0.322922,-5.916228 1.379054,-10.384021 5.443409,-14.28563 4.168855,-4.002683 9.370715,-6.044711 16.127224,-6.331657 6.096961,-0.25868 11.193465,1.056989 15.524209,4.008679 1.250571,0.852272 4.014675,3.575262 4.471219,4.402694 0.23127,0.419712 0.299794,0.394872 1.301964,-0.452261 3.248914,-2.751256 5.61986,-4.13288 9.0812,-5.292656 4.51062,-1.510963 4.006966,-1.486123 30.471952,-1.490406 l 23.90903,-0.0051 0.0668,1.755938 0.066,1.756795 H 124.62393 V 97.59996 h -10.13048 l -0.14561,-1.86986 c -0.0805,-1.027867 -0.14562,-16.945235 -0.14733,-35.371453 l -8.6e-4,-33.501593 -8.21607,0.09679 c -7.34668,0.08565 -8.422514,0.146471 -10.181022,0.570466 -3.729442,0.89767 -7.556531,2.889161 -9.540313,4.962025 l -0.854842,0.893387 0.796596,1.723389 c 1.829602,3.958999 1.997487,8.219505 0.394872,9.990862 -1.414173,1.562357 -4.938041,1.4373 -6.444722,-0.2287 -1.048424,-1.159776 -1.402181,-4.401838 -0.747773,-6.858439 0.395728,-1.490406 1.498115,-3.783405 2.156806,-4.490063 l 0.479671,-0.513933 -0.838567,-1.021871 c -1.839025,-2.244175 -5.700376,-4.548309 -9.436671,-5.631851 -5.456257,-1.581202 -11.118088,-1.194895 -15.448832,1.054419 -5.036545,2.616777 -7.532548,8.051621 -6.144071,13.381964 1.338796,5.140189 5.504224,8.346276 18.018498,13.867632 8.851643,3.905892 12.719847,6.218591 16.091249,9.61826 3.425364,3.454487 4.991148,6.655435 5.451974,11.137789 0.248401,2.424908 0,5.568466 -0.606441,7.686727 -2.389789,8.341136 -9.613977,13.995258 -19.665654,15.3923 -2.036032,0.284376 -8.012219,0.280094 -9.996001,-0.006 M 294.484,98.403409 c -4.09776,-0.64413 -8.56813,-2.394929 -11.52752,-4.51576 -4.00097,-2.867747 -7.07001,-7.293569 -8.63323,-12.450032 -1.38505,-4.569723 -1.32851,-3.310586 -1.41845,-31.82617 l -0.0822,-26.118942 h 10.19386 l 0.0848,24.872654 c 0.0882,26.253421 0.0771,25.970758 1.17862,30.312637 1.15635,4.558587 2.77781,7.552248 5.42628,10.019128 3.88534,3.61809 8.10302,5.010849 14.40898,4.756452 3.12985,-0.125914 4.71705,-0.436844 7.07514,-1.39019 4.87894,-1.970077 8.77713,-6.246858 10.5699,-11.596046 1.30624,-3.89904 1.24371,-2.490006 1.37991,-30.913082 L 323.266,23.378583 h 3.85279 l -8.6e-4,25.722357 c -8.6e-4,23.275178 -0.0377,25.92793 -0.38888,27.878307 -1.19147,6.631451 -3.43564,11.196035 -7.36123,14.976013 -3.65749,3.522156 -8.44564,5.795454 -13.76485,6.535518 -2.31355,0.321208 -8.84393,0.270671 -11.11894,-0.08737 m 62.87373,-0.01713 c -7.06059,-1.100674 -13.73058,-4.069495 -20.25753,-9.017815 -2.16623,-1.642016 -5.79203,-5.197578 -7.11541,-6.975787 l -0.94478,-1.270271 0.34262,-1.450148 c 0.18844,-0.796597 0.40515,-1.857012 0.48139,-2.355528 0.11991,-0.78803 0.17216,-0.853129 0.39658,-0.495945 5.65841,9.016958 15.15075,15.758905 25.30607,17.974814 2.94227,0.642416 9.63282,0.585884 12.11855,-0.102787 7.02118,-1.943524 11.2243,-6.981782 11.21573,-13.442779 -0.005,-3.545283 -1.13322,-6.145785 -3.82452,-8.820807 -2.86346,-2.846334 -6.98606,-5.224988 -15.68524,-9.052077 -7.17279,-3.15555 -10.9896,-5.406578 -13.97727,-8.244345 -1.74651,-1.659148 -3.73372,-4.454945 -4.52861,-6.371059 -1.1435,-2.758108 -1.51867,-7.420339 -0.8694,-10.80202 1.92382,-10.021697 11.78278,-16.388473 24.38356,-15.746057 5.93422,0.303221 10.73949,2.050594 14.90321,5.419426 1.9598,1.587197 4.97487,5.339766 4.56715,5.684958 -0.33406,0.282663 -2.73926,1.731955 -2.8746,1.731955 -0.0908,0 -0.44027,-0.435987 -0.77689,-0.967908 -2.34954,-3.72002 -6.44815,-6.588623 -11.28683,-7.900866 -1.66258,-0.451405 -2.46774,-0.522499 -5.89225,-0.526782 -3.90075,-0.0043 -4.00097,0.0086 -6.1021,0.739207 -5.78603,2.012049 -8.85507,6.00274 -8.85507,11.512961 0,2.305847 0.57218,4.262219 1.80648,6.171481 2.30584,3.56841 5.77489,5.788601 16.39104,10.49109 7.15309,3.169255 10.46625,4.942324 13.49246,7.222475 4.19198,3.158976 6.99977,7.199347 7.88031,11.340793 0.50794,2.388932 0.32206,7.829772 -0.34776,10.148467 -2.35382,8.148411 -9.96431,14.020098 -19.72647,15.216706 -2.58937,0.316926 -7.83748,0.260393 -10.22042,-0.111352 M 177.8066,97.449206 c -0.0831,-0.08309 -0.15076,-7.062299 -0.15076,-15.508791 V 66.582378 l -1.77992,-3.017645 c -12.0997,-20.523922 -23.24177,-39.583135 -23.32486,-39.900917 -0.0976,-0.372602 0.2741,-0.398299 5.66869,-0.398299 h 5.77318 l 1.53323,2.663031 c 0.842,1.46471 3.79968,6.48755 6.57064,11.160916 a 4625.3989,4625.3989 0 0 1 12.79522,21.696547 c 0.81887,1.400468 1.54266,2.547396 1.60947,2.549965 0.066,0.0017 0.92765,-1.398755 1.91526,-3.112722 1.76793,-3.067324 4.8087,-8.195521 15.35033,-25.892811 l 5.33291,-8.951004 2.23818,0.04711 c 1.23087,0.0257 2.26559,0.05139 2.29814,0.05653 0.0325,0.0051 -0.21414,0.44284 -0.54991,0.972191 -1.08783,1.719106 -17.70843,29.343873 -21.40875,35.581309 l -3.59753,6.063555 V 97.59996 h -5.06053 c -2.7838,0 -5.12991,-0.06767 -5.21299,-0.150754 M 222.52821,60.556511 V 23.513062 l 0.73664,-0.133623 c 0.40515,-0.07366 2.72556,-0.103643 5.15646,-0.06681 l 4.41897,0.06595 0.0574,35.298646 0.0574,35.296932 h 34.67336 v 3.625799 h -45.10021 z m 191.61657,24.39384 c -2.36838,-1.207743 -4.42582,-2.272442 -4.57229,-2.367519 -0.18416,-0.119918 1.47327,-3.69518 5.40914,-11.670567 a 6780.4921,6780.4921 0 0 0 8.11158,-16.485264 c 4.79843,-9.814411 17.0386,-34.675074 17.10798,-34.743598 0.0814,-0.08223 9.18399,4.450661 9.18399,4.573149 0,0.07966 -10.36946,21.207454 -18.9787,38.669191 a 2848.9031,2848.9031 0 0 0 -7.91628,16.204314 c -2.04888,4.237379 -3.79626,7.774953 -3.88277,7.859752 -0.0865,0.0848 -2.09428,-0.832572 -4.46265,-2.039458 m 10.50736,-44.630817 c -2.6339,-6.066981 -4.88236,-12.882592 -5.11106,-15.48652 -0.20558,-2.361523 0.53706,-3.093878 4.57486,-4.508908 1.63174,-0.572179 10.28123,-2.497715 11.21831,-2.497715 0.12934,0 0.22698,0.676679 0.22698,1.579488 v 1.580345 l -5.02284,10.205 c -2.76239,5.612151 -5.11192,10.205 -5.2207,10.205 -0.10879,0 -0.40772,-0.48481 -0.66555,-1.07669 m 22.92057,-20.255821 a 396.58513,396.58513 0 0 1 -4.35816,-2.245888 l -1.75165,-0.923366 1.49126,-2.990235 c 0.81973,-1.644586 1.76108,-3.280607 2.09171,-3.634364 1.50497,-1.6137506 3.98298,-2.0788602 5.86055,-1.0998174 1.99578,1.0407144 2.87631,2.5808014 2.73841,4.7838614 -0.0771,1.240292 -0.32549,1.991491 -1.46728,4.43867 -0.75548,1.620603 -1.51439,2.957686 -1.68656,2.970534 -0.17131,0.01285 -1.48526,-0.571322 -2.91828,-1.299395"
     style="fill:#bababa;fill-opacity:1;stroke-width:0.856555"
     id="path1" /></svg>
