<svg xmlns="http://www.w3.org/2000/svg" xml:space="preserve" width="1421.472" height="572.884" viewBox="0 0 376.098 151.576"><path d="M476.442 143.857c1.453-1.421 2.522-2.019 3.614-2.02 1.009 0 4.338 1.474 5.747 2.546.473.36.86.617.86.57s-.596-1.248-1.323-2.668c-1.422-2.775-1.63-3.976-.962-5.55.44-1.036 2.583-3.19 3.938-3.959 1.785-1.012 1.443-1.056-2.37-.31-2.704.53-3.816.48-4.827-.221-.885-.613-2.073-2.593-3.204-5.338l-.645-1.567-.184 2.006c-.25 2.726-.852 4.898-1.57 5.662-.785.836-2.737 1.395-5.59 1.598l-2.317.166 1.396.567c1.976.803 4.195 2.114 4.963 2.93.928.988 1.063 4.072.276 6.32-.773 2.212-.683 2.601.313 1.348a27 27 0 0 1 1.885-2.08m-9.984 25.962.175-9.455-2.354.8c-1.295.44-2.791.9-3.325 1.022-1.164.266-1.2.19-1.444-3.152-.177-2.407.158-5.265.86-7.338.643-1.901 2.57-4.737 4.687-6.9l1.894-1.933-1.72.214c-.945.118-2.97.203-4.497.19-2.315-.021-3.132-.148-4.895-.762-3.054-1.063-3.88-1.538-5.806-3.34-1.547-1.447-3.01-3.315-2.757-3.521.053-.043 1.108-.712 2.345-1.485s2.402-1.543 2.588-1.711c.27-.243-.015-.831-1.395-2.882-.954-1.417-1.658-2.7-1.565-2.851.333-.54 3.923-2.065 5.882-2.501 1.48-.33 2.608-.4 4.392-.277 3.085.214 4.711.665 7.614 2.112 1.293.645 2.31 1.097 2.261 1.005-2.855-5.323-3.546-9.986-2.18-14.702.65-2.239 1.994-5.254 2.478-5.552.133-.083 1.331.682 2.663 1.7s2.564 1.842 2.74 1.832c.175-.01 1.141-1.141 2.146-2.513 1.005-1.373 1.925-2.495 2.043-2.495.273 0 3.538 3.796 4.33 5.035.766 1.198 1.853 4.214 2.254 6.248.3 1.524.17 3.657-.444 7.35l-.173 1.04 2.077-2.044c2.269-2.232 4.987-3.787 7.92-4.53 2.646-.67 9.042-.403 9.537.399.077.124-.338 1.5-.923 3.057s-1.064 2.919-1.064 3.026.485.272 1.078.367c1.369.219 4.439 1.6 4.623 2.08.077.201-.323 1.372-.889 2.603-.848 1.845-1.343 2.525-2.828 3.885-3.297 3.022-5.12 3.93-9.855 4.913-1.492.31-2.712.645-2.712.747 0 .1.268.268.595.372 1.325.419 4.579 2.444 6.02 3.747 3.051 2.76 4.735 6.369 5.124 10.983l.129 1.522h-6.236l-.17 1.626c-.094.894-.17 2.396-.17 3.338v1.711l-1.522-.183c-3.21-.386-5.965-1.404-8.688-3.212-2.104-1.397-4.444-4.607-5.813-7.975l-.598-1.472-.18 1.562c-.393 3.413-1.176 5.216-5.1 11.748a408 408 0 0 0-5.571 9.669c-1.622 2.916-3.13 5.536-3.353 5.82-.364.467-.387-.427-.228-8.937" style="fill:#bababa;fill-opacity:1" transform="translate(-435.302 -105.324)"/><path d="M550.221 256.541c-1.41-.44-2.846-1.516-3.366-2.522-.617-1.193-.514-3.45.205-4.518 1.47-2.18 3.77-2.697 6.06-1.362.68.396 1.784 1.061 2.452 1.477 1.006.625 1.387.725 2.203.574 2.244-.414 4.73-4.25 8-12.342l1.134-2.809-6.501-15.182c-3.576-8.35-6.789-15.897-7.139-16.77-1.733-4.319-4.592-10.28-5.36-11.179-.93-1.085-3.163-2.432-4.477-2.698-.731-.149-.818-.273-.891-1.28l-.082-1.115h21.991v1.029c0 1.023-.006 1.029-1.25 1.215-1.591.239-3.117 1.014-3.677 1.87-.828 1.263-.37 3.125 2.538 10.306 4.642 11.461 9.33 22.622 9.501 22.614.09-.004 1.132-2.594 2.316-5.755a868 868 0 0 1 4.714-12.229c3.868-9.78 4.428-11.383 4.455-12.755.014-.686-.132-1.54-.324-1.897-.357-.667-2.59-1.812-4.184-2.144-.793-.165-.86-.26-.86-1.216v-1.038h8.29c4.56 0 8.347.056 8.415.125.068.068.078.514.021.992-.093.778-.285.954-1.866 1.704-2.99 1.42-3.965 2.716-6.704 8.917-1.388 3.142-9.047 21.85-13.754 33.593-5.143 12.831-6.323 15.486-8.008 18.018-1.58 2.374-3.832 4.62-5.47 5.457-2.436 1.242-6.072 1.641-8.382.92m-33.078-26.1c4.125-.867 7.271-3.685 8.677-7.771.474-1.378.53-2.226.53-7.988v-6.446l-.992.501c-.546.276-2.778 1.005-4.96 1.62-6.772 1.91-9.21 3.01-11.015 4.968-2.372 2.574-3.184 6.297-2.128 9.756.924 3.025 2.948 4.868 5.88 5.354 2.035.338 2.429.338 4.008.006m-9.094 5.07c-5.648-1.037-8.702-3.622-10.146-8.589-.642-2.208-.445-6.65.376-8.489 1.54-3.444 4.457-5.852 9.465-7.813 1.575-.616 5.87-1.873 9.546-2.794 3.675-.92 7.235-1.917 7.91-2.216l1.228-.543-.155-3.768c-.27-6.63-1.62-9.688-5.082-11.53-1.202-.64-1.589-.705-4.234-.704-2.577.001-3.077.08-4.365.686-3.369 1.583-4.233 3.047-4.233 7.166 0 2.398-.076 2.887-.534 3.47-.727.923-2.104 1.324-4.113 1.196-1.391-.089-1.858-.248-2.686-.915-2.57-2.071-2.053-6.024 1.221-9.332 2.293-2.317 6.822-4.384 11.403-5.205 2.662-.477 8.133-.464 10.444.026 4.14.877 7.715 3.358 9.403 6.526 1.89 3.543 1.907 3.719 2.086 20.194.151 13.903.193 14.877.668 15.8.986 1.91 3.466 2.284 5.592.842.535-.364.999-.625 1.03-.582.624.872.94 1.455.94 1.737 0 .59-2.297 2.843-3.632 3.562-3.447 1.856-8.327 1.492-10.747-.802-1.03-.978-1.981-2.93-2.376-4.88l-.33-1.63-1.225 1.592c-2.637 3.429-5.736 5.672-9.075 6.57-1.876.505-6.627.746-8.379.425m202.536-5.17c.835-.218 2.016-.65 2.623-.96 1.803-.92 4.093-3.303 5.037-5.244.929-1.907.827-.717 1.053-12.253.036-1.855.018-3.373-.04-3.373s-.772.231-1.587.514-3.506 1.13-5.98 1.884c-7.023 2.137-9.132 3.473-10.782 6.825-.799 1.624-.86 1.936-.853 4.399.006 2.106.12 2.894.554 3.84.78 1.702 1.83 2.84 3.309 3.59 2.355 1.193 4.23 1.412 6.666.777m-9.467 5.146c-3.928-.617-6.025-1.711-7.928-4.136-.663-.844-1.532-2.31-1.93-3.258-.65-1.539-.727-2.047-.731-4.765-.004-2.864.045-3.144.819-4.763 1.464-3.062 3.417-4.96 6.907-6.712 3.046-1.53 5.047-2.19 11.826-3.904 3.505-.887 7.01-1.85 7.79-2.142l1.42-.53-.117-4.535c-.098-3.788-.21-4.792-.688-6.102a8.7 8.7 0 0 0-4.143-4.758c-1.46-.764-1.745-.818-4.356-.815-2.449.002-2.974.086-4.25.685-1.93.906-3.016 1.86-3.683 3.238-.456.944-.55 1.64-.55 4.108 0 2.853-.027 2.997-.68 3.603-1.353 1.253-4.868 1.354-6.447.185-1.383-1.024-1.737-1.81-1.725-3.838.01-1.586.14-2.132.787-3.318 1.74-3.19 5.953-5.787 11.77-7.254 1.857-.469 3.032-.568 6.746-.572 3.965-.004 4.733.07 6.483.61 5.222 1.616 7.992 4.384 9.433 9.43.395 1.382.472 3.515.603 16.536.145 14.404.17 14.986.693 15.983 1.045 1.993 3.023 2.433 5.424 1.208 1.32-.674 1.357-.668 1.907.3l.466.817-1.08 1.29c-3.096 3.698-10.198 4.472-13.435 1.463-1.358-1.262-1.812-2.294-2.55-5.798-.156-.74-.162-.737-1.305.794-2.313 3.099-5.266 5.307-8.435 6.309-2.393.755-6.472 1.045-9.041.641m94.565.011c-3.365-.53-5.83-1.958-7.544-4.37-1.871-2.63-1.81-1.954-1.963-22.088l-.137-18.124-3.638-.073-3.638-.074v-1.173c0-1.154.017-1.177 1.116-1.473 1.625-.438 4.422-1.907 5.765-3.029 2.447-2.045 5.17-6.334 6.336-9.986.316-.989.323-.993 1.776-.993h1.46l-.054 5.094c-.03 2.8-.04 5.777-.024 6.614l.029 1.522h13.494v3.44h-13.513l.076 16.866.075 16.867.616 1.526c1.201 2.976 2.85 4.162 6.075 4.373 1.808.118 2.049.066 3.876-.838 1.072-.53 2.329-1.395 2.793-1.924l.844-.962.948.948.948.948-.763 1.101c-1.603 2.314-4.985 4.71-7.602 5.387-1.982.513-5.494.714-7.351.421m-339.977-1.844c0-.942.079-1.07.728-1.194 2.558-.485 4.245-1.027 5.01-1.61 1.992-1.52 2.2-2.85 2.2-14.1v-9.196l-.966-1.572c-.53-.865-4.396-7.287-8.59-14.272-9.78-16.289-9.29-15.527-11.393-17.74-1.823-1.919-4.021-3.333-6.157-3.96-.973-.286-1.08-.405-1.154-1.28l-.082-.965h25.167v2.064l-2.034.452c-2.602.58-3.522 1.387-3.522 3.094 0 1.861.055 1.963 12.027 22.105 2.444 4.111 4.528 7.475 4.632 7.475s.323-.293.486-.652c.163-.358 3.046-5.42 6.406-11.248 8.42-14.608 9.294-16.522 8.46-18.536-.464-1.119-1.692-1.718-5.09-2.483-.644-.145-.728-.284-.728-1.217v-1.054h20.373v1.054c0 .934-.082 1.07-.727 1.21-1.774.383-3.947 1.348-5.335 2.37-2.607 1.92-3.038 2.586-18.666 28.836l-3.623 6.086.111 10.054c.118 10.763.216 11.579 1.552 13.002.788.838 2.798 1.63 4.753 1.87l1.695.21v2.116l-12.766.068-12.767.069zm139.7-.137c0-1.072.063-1.193.614-1.193 1.17 0 3.228-.783 4.224-1.607.55-.455 1.28-1.382 1.62-2.058 1.21-2.401 1.37-3.515 3.2-22.397.509-5.239 1.104-11.073 1.324-12.964s.636-5.93.926-8.972c.98-10.276.74-11.749-2.134-13.108-.893-.422-2.445-.906-3.45-1.076l-1.826-.308v-2.076l8.613.07 8.612.07 2.135 4.894a5275 5275 0 0 0 8.41 19.05c3.45 7.786 7.812 17.637 9.691 21.893 1.88 4.255 3.483 7.738 3.564 7.739s.545-.98 1.033-2.181c.487-1.2 2.64-6.41 4.783-11.576a5096 5096 0 0 0 6.069-14.684c5.885-14.346 10.18-24.64 10.408-24.94.197-.26 2.12-.32 8.618-.265l8.365.07v1.843l-2.197.456c-4.313.894-5.608 2.287-5.607 6.025 0 1.678 1.278 15.3 1.714 18.266.139.949 1.016 10.205 1.994 21.035.998 11.066 1.592 13.732 3.386 15.216 1.055.873 3.06 1.585 4.463 1.585.864 0 .878.018.878 1.193v1.193l-12.237-.069-12.237-.068-.082-.978c-.078-.945-.048-.983.926-1.146 3.022-.506 4.934-1.456 5.66-2.812.566-1.059.741-3.425.49-6.638-.14-1.784-.676-7.41-1.19-12.503-1.056-10.434-1.186-11.815-2.102-22.358-.361-4.147-.657-8.046-.658-8.665 0-.618-.09-1.124-.2-1.123-.11 0-.604 1.042-1.1 2.315s-3.13 7.672-5.854 14.22c-6.863 16.503-10.711 25.896-13.684 33.404l-2.54 6.416h-3.497l-5.473-12.37c-10.42-23.55-11.915-26.947-14.359-32.61-1.35-3.128-3.05-6.982-3.78-8.564l-1.324-2.876-.152 1.685c-3.323 36.945-3.877 45.486-3.118 48.058.665 2.253 2.806 3.785 5.915 4.233l1.407.202v2.11l-10.12.069-10.12.07zm145.307.066c.071-.978.17-1.138.743-1.208 1.558-.19 3.188-.922 3.928-1.764 1.654-1.884 1.653-1.871 1.57-19.216-.068-14.479-.11-15.784-.544-16.577-.689-1.26-2.208-2.156-4.046-2.384-1.563-.194-1.57-.199-1.648-1.13l-.079-.936 6.561-2.151c4.811-1.578 6.79-2.114 7.421-2.011l.86.14.006 6.122.006 6.121 1.434-2.724c2.692-5.116 4.962-7.587 8.485-9.236 1.362-.638 1.907-.74 3.96-.74 2.133 0 2.514.078 3.644.742 2.672 1.57 3.538 4.439 2.18 7.215-.899 1.836-1.882 2.492-3.738 2.493-1.226.001-1.521-.128-3.12-1.361-1.437-1.11-2.005-1.386-3.06-1.488-3.52-.338-7.146 3.9-8.473 9.901-.466 2.11-.518 3.409-.524 13.076-.006 11.57.11 12.747 1.382 13.941.96.902 3.02 1.686 4.924 1.874l1.758.174v2.117l-11.855.068-11.855.07z" style="fill:#bababa;fill-opacity:1" transform="translate(-435.302 -105.324)"/></svg>