<?xml version="1.0" encoding="utf-8"?>
<!-- Generator: Adobe Illustrator 28.0.0, SVG Export Plug-In . SVG Version: 6.00 Build 0)  -->
<svg version="1.1" id="Layer_2_00000164509341985588659600000006297937697223255738_"
	 xmlns="http://www.w3.org/2000/svg" xmlns:xlink="http://www.w3.org/1999/xlink" x="0px" y="0px" viewBox="0 0 301.8 129.4"
	 style="enable-background:new 0 0 301.8 129.4;" xml:space="preserve">
<style type="text/css">
	.st0{fill:#FFFFFF;}
</style>
<g id="Layer_1-2">
	<path class="st0" d="M0,77.8l3-3c2.2,2.2,4.2,3.1,6.5,3.1c3.2,0,5-1.6,5-4c0-6.4-14-2.8-14-12.5c0-5.2,3.9-8.5,9.8-8.5
		c3.6,0,6.6,1.4,8.5,3.5l-3.1,3.1c-1.6-1.6-3.2-2.5-5.4-2.5c-3,0-4.9,1.5-4.9,3.9c0,6.1,14.1,2.1,14.1,12.2c0,5.4-4.1,8.8-10.2,8.8
		C5.2,82,2.2,80.3,0,77.8z"/>
	<path class="st0" d="M24.1,71.8V53.4H29v17.9c0,4.1,2.4,6.1,6,6.1s5.9-2,5.9-6.1V53.4h4.9v18.3C45.8,78.6,41.5,82,35,82
		S24.1,78.6,24.1,71.8z"/>
	<path class="st0" d="M50.3,77.8l3-3c2.2,2.2,4.2,3.1,6.5,3.1c3.2,0,5-1.6,5-4c0-6.4-14-2.8-14-12.5c0-5.2,3.9-8.5,9.8-8.5
		c3.6,0,6.6,1.4,8.5,3.5L66,59.5c-1.6-1.6-3.2-2.5-5.4-2.5c-3,0-4.9,1.5-4.9,3.9c0,6.1,14.1,2.1,14.1,12.2c0,5.4-4.1,8.8-10.2,8.8
		C55.5,82,52.4,80.3,50.3,77.8z"/>
	<path class="st0" d="M74,76.8V58.1c0-2.7,2-4.7,4.7-4.7h13.6v4.5h-12c-0.8,0-1.5,0.6-1.5,1.4v5.9h12.6v4.3H78.9v6
		c0,0.8,0.6,1.4,1.5,1.4h12v4.5H78.7C76,81.4,74,79.5,74,76.8z"/>
	<path class="st0" d="M107.2,53.4h3.6l8.6,17.5l8.7-17.5h3.6v28H129V56.9l-8.5,17.4h-2.2l-8.5-17.4v24.5h-2.6V53.4z"/>
	<path class="st0" d="M138.6,73.9V62.3h2.5v11.2c0,4.5,2.3,6,5.3,6c3.2,0,5.8-2.1,5.8-6.3V62.3h2.5v19.1h-2.2v-3.3
		c-1.5,2.8-4.4,3.7-6.6,3.7C141.8,81.8,138.6,79.5,138.6,73.9z"/>
	<path class="st0" d="M162.1,76.8V54.4h-3.7v-2.2h6.2v24.6c0,1.4,1,2.4,2.4,2.4h1.7v2.2H167C164.1,81.4,162.1,79.6,162.1,76.8
		L162.1,76.8z"/>
	<path class="st0" d="M173.2,76.6v-12h-3.6v-2.2h3.6v-4.8h2.5v4.8h5.3v2.2h-5.3v12.2c0,1.4,1,2.5,2.4,2.5h2.8v2.2h-2.8
		C175.6,81.4,173.2,79.9,173.2,76.6z"/>
	<path class="st0" d="M186.7,64.6h-3.8v-2.2h6.4v19.1h-2.5V64.6z M186.6,53.5h2.7v4.4h-2.7V53.5z"/>
	<path class="st0" d="M194.2,69h12.4v2.6h-12.4V69z"/>
	<path class="st0" d="M211.9,77.1V53.4h2.6v23c0,1.4,1.1,2.5,2.5,2.5h11.1v2.5h-11.9C213.7,81.4,211.9,79.6,211.9,77.1L211.9,77.1z"
		/>
	<path class="st0" d="M232.9,64.6H229v-2.2h6.4v19.1h-2.5V64.6z M232.8,53.5h2.7v4.4h-2.7V53.5z"/>
	<path class="st0" d="M242.1,62.3h2.4v3.4c1.5-2.9,4.4-3.8,6.6-3.8c4.3,0,7.3,2.7,7.3,8.4v11.2h-2.6V70.6c0-4.5-2.3-6.3-5.3-6.3
		c-3.2,0-5.9,2.2-5.9,6.4v10.8h-2.6C242.1,81.4,242.1,62.3,242.1,62.3z"/>
	<path class="st0" d="M264.7,73.9V62.3h2.5v11.2c0,4.5,2.3,6,5.3,6c3.2,0,5.8-2.1,5.8-6.3V62.3h2.5v19.1h-2.2v-3.3
		c-1.5,2.8-4.4,3.7-6.6,3.7C267.8,81.8,264.7,79.5,264.7,73.9L264.7,73.9z"/>
	<path class="st0" d="M291.6,71.9l-6.7-9.6h3l5.4,8l5.4-8h2.9l-6.7,9.6l6.8,9.5h-3l-5.5-7.9l-5.5,7.9h-3L291.6,71.9L291.6,71.9z"/>
	<path class="st0" d="M2.5,93.4h3.6l8.6,17.5l8.7-17.5H27v28h-2.6V96.9l-8.5,17.4h-2.2L5.1,96.9v24.5H2.5L2.5,93.4L2.5,93.4z"/>
	<path class="st0" d="M46,119.3c-1,1.6-3,2.5-5.9,2.5c-4.5,0-7.3-2.2-7.3-5.6s2.8-5.8,7.6-5.8c2.3,0,4.1,0.6,5.3,1.6v-3
		c0-3.3-1.7-4.8-4.8-4.8c-2.1,0-4.5,0.8-6.1,2.4l-1.2-1.8c1.7-2,4.6-3,7.4-3c4.4,0,7.3,2.3,7.3,7.1v6.1c0,2.1,0,4.2,0.1,6.4H46
		C46,121.4,46,119.3,46,119.3z M40.5,119.9c3.2,0,5.1-1.5,5.1-3.7s-1.8-3.6-5.1-3.6s-5.2,1.4-5.2,3.6S37.3,119.9,40.5,119.9z"/>
	<path class="st0" d="M54.7,102.3h2.4v3.4c1.5-2.9,4.4-3.8,6.6-3.8c4.3,0,7.3,2.7,7.3,8.4v11.2h-2.6v-10.8c0-4.5-2.3-6.3-5.3-6.3
		c-3.2,0-5.9,2.2-5.9,6.4v10.8h-2.6C54.7,121.4,54.7,102.3,54.7,102.3z"/>
	<path class="st0" d="M89.4,119.3c-1,1.6-3,2.5-5.9,2.5c-4.5,0-7.3-2.2-7.3-5.6s2.8-5.8,7.6-5.8c2.3,0,4.1,0.6,5.3,1.6v-3
		c0-3.3-1.7-4.8-4.8-4.8c-2.1,0-4.5,0.8-6.1,2.4l-1.2-1.8c1.7-2,4.6-3,7.4-3c4.4,0,7.3,2.3,7.3,7.1v6.1c0,2.1,0,4.2,0.1,6.4h-2.3
		C89.4,121.4,89.4,119.3,89.4,119.3z M84,119.9c3.2,0,5.1-1.5,5.1-3.7s-1.8-3.6-5.1-3.6s-5.2,1.4-5.2,3.6S80.8,119.9,84,119.9z"/>
	<path class="st0" d="M96.6,127.3h11.3c2.1,0,3.4-1.1,3.4-2.9c0-1.7-1.3-2.7-3.4-2.7h-6.2c-3,0-3.6-2.4-2.5-4.5l1.4-2.6
		c-2-1.2-3.2-3.2-3.2-5.6v-0.4c0-3.9,3.3-6.6,8-6.6c0.4,0,0.8,0,1.1,0l2-4.2h2.6l-2.4,4.6c2.9,1,4.8,3.2,4.8,6v0.5
		c0,4-3.3,6.8-8,6.8c-1,0-2-0.1-2.8-0.4l-1,2c-0.4,0.9-0.5,2.2,1.2,2.2h5.6c3.3,0,5.4,1.7,5.4,4.8s-2.2,5.1-5.6,5.1H96.6
		C96.6,129.4,96.6,127.3,96.6,127.3z M105.4,113.7c3.3,0,5.6-2,5.6-4.8v-0.4c0-2.7-2.3-4.5-5.6-4.5s-5.6,1.9-5.6,4.6v0.3
		C99.8,111.7,102.1,113.7,105.4,113.7z"/>
	<path class="st0" d="M118.4,111.9v-0.4c0-5.6,3.6-9.6,8.9-9.6s8.6,4.3,7.9,10.6H121c0.3,4.1,3,6.9,7.1,6.9c2,0,3.8-0.5,4.9-1.6
		l1.4,1.6c-1.4,1.4-3.8,2.3-6.5,2.3C122.3,121.8,118.4,117.8,118.4,111.9z M132.8,110.4c0.1-3.9-2.2-6.3-5.5-6.3
		c-3.6,0-5.9,2.5-6.3,6.3H132.8z"/>
	<path class="st0" d="M139.9,102.3h2.5v3.2c0.9-2.5,3-3.2,5.4-3.2h1.7v2.5h-1.9c-3.2,0-5.1,1.6-5.1,5.1v11.6h-2.6L139.9,102.3
		L139.9,102.3z"/>
	<g id="Layer_1-3">
		<path class="st0" d="M87.5,14.1c-0.6-0.6-1.5-0.6-2.1,0c-0.7,0.6-0.6,1.8,0.2,2.3c0.5,0.3,1.2,0.3,1.6,0
			C88.1,15.8,88.2,14.7,87.5,14.1 M85.6,9c-4-0.9-7.6,2.6-6.6,6.6c0.5,2,2.1,3.6,4.1,4.1c4,0.9,7.6-2.6,6.7-6.6
			C89.3,11.1,87.7,9.5,85.6,9 M59.2,31.5c-2.6-1-3.6-0.8-6.9-0.7c-2.3,0-2.4,0-5,0c-0.8,0-1.1,3.9,1.8,4.7c1.3,0.4,2.7,0.6,3.7,1.6
			c0.4,0.4,0.7,1.1-0.3,1.1h-7.3c-1.3,0-2.5,0-3.5-0.8c-1.5-1.2-2.2-3-2.9-4.7c-0.8-1.8-1.6-3.5-2.6-5.2c-1.9-3.3-4.5-6.3-7.9-8.1
			c-4.3-2.3-11.5-3.4-17.3,1C5,24.9,6.3,33.6,11.6,37.9c2.1,1.7,4.8,2.4,7.5,2.2c5.2-0.3,9.1-4.2,8.1-8.9c-0.3-1.6-1.2-3.1-2.6-3.9
			c-1-0.6-2.2-0.8-3.3-0.8c-1.2,0-2.5,0.2-3.4,1.1c-1,1-1.2,2.8-0.4,4c0.5,0.7,1.2,1.2,1.1,2.1c-0.1,0.6-0.6,1-1.1,1.2
			c-1,0.2-1.9-0.3-2.5-1c-1.7-1.8-2.2-4.5-1.3-6.8c1.2-3,4.6-4.6,7.8-4.5c4.1,0.1,8,2.9,9.7,6.6c1.7,3.8,1.2,8.4-1.1,11.8
			c-5.2,7.6-18,6.7-23.9,0.3c-3.7-4-5.8-7.9-5.5-15.1C0.8,21,3.7,16,7.5,12.5C13.6,6.7,21.6,2.8,29.8,1C34.8,0,40-0.2,45,0.3
			c4.5,0.4,8.9,1.3,13.2,2.6c2.1,0.7,4.2,1.4,6.2,2.4C66.2,6.1,68.6,7,70,8.4C70,5.8,69.9,3,69.9,1c0-0.8,0.8-1.3,1.5-0.9
			c2.9,1.4,9.8,4.6,14.4,6.7c6.1,2.8,6.6,9.4,6.8,15.3c0,0.1,0,0.3-0.1,0.4c-0.2,0.4-1.2,0.3-1.6,0.3c-0.7,0-1.8,0-2.6,0
			c-1.5,0.1-2.9,0-4.4,0c-2.7-0.1-5.3-1.3-7.1-2.8c-0.2-0.1-0.7-0.3-1,0c-0.3,0.3-0.2,0.7,0,0.9c1,1,2.1,1.7,3.4,2.3
			c1.6,0.8,3.4,1,5.2,1.1c1.9,0.1,3.8,0.1,5.7-0.1c1.6-0.2,2-0.3,0.4,0.9c-1.4,1-3,1.8-4.6,2.3c-2.3,0.8-4.8,1.2-7.2,1.2
			c-1.5,0-3,0-4.4-0.2c-0.8-0.1-1.5-0.2-2.3-0.3c-0.6-0.1-1.3-0.2-1.9,0c-0.6,0.1-1.1,0.4-1.4,0.9c-0.5,0.6-0.7,2.4-0.4,3.1
			c0.5,1.5,1.7,2.3,3,3.1c1.4,0.8,3.2,1.1,3.5,2.6c0.1,0.3-2.8,0.3-3.2,0.3h-3.8c0,0-2.1,0-2.9-0.2c0,0-0.1,0-0.1,0
			c-0.4-0.2-0.6-0.8-0.8-1.3c-0.2-0.6-0.6-1.3-1-1.9C62,33.4,60.6,32,59.2,31.5 M88.4,14.4c0,2.3-1.8,4.1-4.1,4.1s-4.1-1.8-4.1-4.1
			s1.8-4.1,4.1-4.1S88.4,12.1,88.4,14.4"/>
	</g>
</g>
</svg>
