<?xml version="1.0" encoding="UTF-8"?><svg id="Layer_2" xmlns="http://www.w3.org/2000/svg" viewBox="0 0 301.79 129.43"><defs><style>.cls-1{fill:#30ba78;}.cls-2{fill:#efefef;}</style></defs><g id="Layer_1-2"><path class="cls-2" d="M0,77.75l3.04-3.04c2.16,2.2,4.16,3.12,6.52,3.12,3.16,0,5.04-1.6,5.04-3.96,0-6.44-13.96-2.8-13.96-12.48,0-5.2,3.88-8.52,9.76-8.52,3.6,0,6.6,1.4,8.48,3.52l-3.12,3.12c-1.6-1.64-3.24-2.48-5.36-2.48-2.96,0-4.88,1.52-4.88,3.88,0,6.08,14.08,2.12,14.08,12.24,0,5.36-4.12,8.84-10.2,8.84-4.2,0-7.24-1.68-9.4-4.24Z"/><path class="cls-2" d="M24.08,71.75v-18.32h4.92v17.92c0,4.08,2.36,6.08,5.96,6.08s5.92-2,5.92-6.08v-17.92h4.92v18.32c0,6.84-4.32,10.24-10.84,10.24s-10.88-3.4-10.88-10.24Z"/><path class="cls-2" d="M50.28,77.75l3.04-3.04c2.16,2.2,4.16,3.12,6.52,3.12,3.16,0,5.04-1.6,5.04-3.96,0-6.44-13.96-2.8-13.96-12.48,0-5.2,3.88-8.52,9.76-8.52,3.6,0,6.6,1.4,8.48,3.52l-3.12,3.12c-1.6-1.64-3.24-2.48-5.36-2.48-2.96,0-4.88,1.52-4.88,3.88,0,6.08,14.08,2.12,14.08,12.24,0,5.36-4.12,8.84-10.2,8.84-4.2,0-7.24-1.68-9.4-4.24Z"/><path class="cls-2" d="M74.04,76.75v-18.64c0-2.72,1.96-4.68,4.68-4.68h13.6v4.48h-11.96c-.84,0-1.48.64-1.48,1.44v5.88h12.6v4.28h-12.6v6c0,.8.64,1.44,1.48,1.44h11.96v4.48h-13.6c-2.72,0-4.68-1.96-4.68-4.68Z"/><path class="cls-2" d="M107.24,53.43h3.56l8.64,17.48,8.68-17.48h3.56v27.99h-2.64v-24.52l-8.48,17.44h-2.2l-8.52-17.44v24.52h-2.6v-27.99Z"/><path class="cls-2" d="M138.64,73.87v-11.56h2.48v11.16c0,4.48,2.32,6,5.32,6,3.16,0,5.84-2.08,5.84-6.28v-10.88h2.48v19.12h-2.2v-3.32c-1.52,2.8-4.36,3.72-6.56,3.72-4.24,0-7.36-2.32-7.36-7.96Z"/><path class="cls-2" d="M162.12,76.75v-22.32h-3.72v-2.2h6.24v24.56c0,1.4,1.04,2.44,2.44,2.44h1.72v2.2h-1.84c-2.88,0-4.84-1.88-4.84-4.68Z"/><path class="cls-2" d="M173.24,76.59v-12.04h-3.6v-2.24h3.6v-4.76h2.52v4.76h5.28v2.24h-5.28v12.2c0,1.4,1.04,2.48,2.44,2.48h2.84v2.2h-2.84c-2.56,0-4.96-1.48-4.96-4.84Z"/><path class="cls-2" d="M186.72,64.55h-3.84v-2.24h6.36v19.12h-2.52v-16.88ZM186.64,53.55h2.72v4.36h-2.72v-4.36Z"/><path class="cls-2" d="M194.2,68.99h12.36v2.56h-12.36v-2.56Z"/><path class="cls-2" d="M211.92,77.07v-23.63h2.64v23c0,1.4,1.08,2.48,2.48,2.48h11.12v2.52h-11.92c-2.52,0-4.32-1.84-4.32-4.36Z"/><path class="cls-2" d="M232.88,64.55h-3.84v-2.24h6.36v19.12h-2.52v-16.88ZM232.8,53.55h2.72v4.36h-2.72v-4.36Z"/><path class="cls-2" d="M242.08,62.31h2.44v3.4c1.52-2.88,4.44-3.8,6.6-3.8,4.28,0,7.32,2.72,7.32,8.36v11.16h-2.56v-10.84c0-4.48-2.28-6.32-5.32-6.32-3.2,0-5.92,2.16-5.92,6.36v10.8h-2.56v-19.12Z"/><path class="cls-2" d="M264.72,73.87v-11.56h2.48v11.16c0,4.48,2.32,6,5.32,6,3.16,0,5.84-2.08,5.84-6.28v-10.88h2.48v19.12h-2.2v-3.32c-1.52,2.8-4.36,3.72-6.56,3.72-4.24,0-7.36-2.32-7.36-7.96Z"/><path class="cls-2" d="M291.59,71.91l-6.68-9.6h3l5.4,7.96,5.4-7.96h2.92l-6.68,9.6,6.84,9.52h-3.04l-5.52-7.88-5.52,7.88h-3l6.88-9.52Z"/><path class="cls-2" d="M2.52,93.43h3.56l8.64,17.48,8.68-17.48h3.56v27.99h-2.64v-24.52l-8.48,17.44h-2.2l-8.52-17.44v24.52h-2.6v-27.99Z"/><path class="cls-2" d="M45.96,119.31c-1.04,1.64-3.04,2.52-5.88,2.52-4.52,0-7.32-2.24-7.32-5.6s2.76-5.76,7.56-5.76c2.32,0,4.08.56,5.28,1.6v-3.04c0-3.28-1.68-4.8-4.84-4.8-2.08,0-4.48.76-6.08,2.4l-1.24-1.76c1.68-2,4.6-2.96,7.4-2.96,4.36,0,7.28,2.32,7.28,7.08v6.08c0,2.12.04,4.24.12,6.36h-2.28v-2.12ZM40.52,119.87c3.2,0,5.08-1.48,5.08-3.68s-1.84-3.64-5.08-3.64-5.2,1.44-5.2,3.64,2,3.68,5.2,3.68Z"/><path class="cls-2" d="M54.72,102.31h2.44v3.4c1.52-2.88,4.44-3.8,6.6-3.8,4.28,0,7.32,2.72,7.32,8.36v11.16h-2.56v-10.84c0-4.48-2.28-6.32-5.32-6.32-3.2,0-5.92,2.16-5.92,6.36v10.8h-2.56v-19.12Z"/><path class="cls-2" d="M89.4,119.31c-1.04,1.64-3.04,2.52-5.88,2.52-4.52,0-7.32-2.24-7.32-5.6s2.76-5.76,7.56-5.76c2.32,0,4.08.56,5.28,1.6v-3.04c0-3.28-1.68-4.8-4.84-4.8-2.08,0-4.48.76-6.08,2.4l-1.24-1.76c1.68-2,4.6-2.96,7.4-2.96,4.36,0,7.28,2.32,7.28,7.08v6.08c0,2.12.04,4.24.12,6.36h-2.28v-2.12ZM83.96,119.87c3.2,0,5.08-1.48,5.08-3.68s-1.84-3.64-5.08-3.64-5.2,1.44-5.2,3.64,2,3.68,5.2,3.68Z"/><path class="cls-2" d="M96.6,127.27h11.32c2.08,0,3.36-1.08,3.36-2.92,0-1.72-1.28-2.72-3.36-2.72h-6.2c-3,0-3.56-2.44-2.52-4.48l1.36-2.64c-2.04-1.2-3.24-3.16-3.24-5.6v-.36c0-3.88,3.32-6.64,8.04-6.64.4,0,.76,0,1.12.04l2.04-4.16h2.56l-2.44,4.6c2.92.96,4.76,3.2,4.76,6.04v.48c0,4-3.32,6.84-8.04,6.84-1,0-1.96-.12-2.8-.36l-1.04,2c-.44.88-.52,2.16,1.16,2.16h5.56c3.28,0,5.44,1.68,5.44,4.8s-2.2,5.08-5.56,5.08h-11.52v-2.16ZM105.36,113.71c3.28,0,5.56-1.96,5.56-4.8v-.36c0-2.68-2.28-4.52-5.56-4.52s-5.56,1.92-5.56,4.6v.28c0,2.84,2.28,4.8,5.56,4.8Z"/><path class="cls-2" d="M118.44,111.95v-.4c0-5.56,3.56-9.64,8.88-9.64s8.64,4.28,7.92,10.64h-14.28c.28,4.08,3,6.92,7.12,6.92,2.04,0,3.76-.52,4.92-1.56l1.44,1.64c-1.4,1.44-3.8,2.28-6.48,2.28-5.64,0-9.52-4.04-9.52-9.88ZM132.84,110.43c.08-3.92-2.24-6.28-5.52-6.28-3.56,0-5.92,2.48-6.32,6.28h11.84Z"/><path class="cls-2" d="M139.88,102.31h2.48v3.16c.92-2.48,3-3.2,5.36-3.2h1.68v2.48h-1.88c-3.2,0-5.08,1.6-5.08,5.08v11.6h-2.56v-19.12Z"/><g id="Layer_1-3"><path class="cls-1" d="M87.54,14.07c-.58-.6-1.53-.6-2.11,0-.65.65-.57,1.77.23,2.31.49.33,1.15.33,1.64,0,.81-.54.89-1.66.23-2.31M85.61,8.98c-3.99-.94-7.58,2.65-6.64,6.65.47,2.03,2.09,3.65,4.12,4.12,3.99.94,7.58-2.65,6.65-6.65-.48-2.03-2.09-3.65-4.13-4.12M59.24,31.47c-2.6-.96-3.61-.77-6.94-.72-2.31.03-2.39-.05-5.02-.05-.81,0-1.11,3.9,1.83,4.71,1.29.36,2.68.58,3.65,1.57.43.44.67,1.1-.32,1.1h-7.3c-1.28,0-2.49.03-3.46-.8-1.48-1.25-2.16-2.96-2.9-4.66-.77-1.77-1.59-3.51-2.56-5.18-1.93-3.32-4.48-6.32-7.9-8.15-4.27-2.29-11.52-3.43-17.26.98-6.05,4.65-4.75,13.35.54,17.61,2.09,1.68,4.81,2.39,7.49,2.23,5.23-.31,9.09-4.16,8.13-8.91-.32-1.59-1.25-3.09-2.64-3.91-.99-.58-2.17-.79-3.32-.79-1.24,0-2.55.25-3.44,1.11-1.05,1.02-1.22,2.81-.38,4.02.47.66,1.22,1.22,1.09,2.09-.09.59-.57,1.02-1.15,1.15-.98.22-1.88-.34-2.54-1.02-1.7-1.75-2.24-4.54-1.3-6.8,1.22-2.95,4.63-4.58,7.82-4.47,4.12.14,8,2.86,9.69,6.62,1.69,3.76,1.18,8.38-1.14,11.78-5.17,7.56-17.95,6.67-23.89.29-3.72-4-5.75-7.88-5.46-15.11.2-5.11,3.15-10.14,6.9-13.68C13.57,6.69,21.63,2.75,29.84,1.04,34.82.01,39.97-.23,45.02.28c4.46.44,8.9,1.26,13.18,2.59,2.13.66,4.22,1.45,6.25,2.38,1.79.82,4.13,1.71,5.52,3.13,0-2.56-.1-5.38-.1-7.34,0-.75.79-1.26,1.46-.94,2.9,1.35,9.77,4.59,14.36,6.69,6.14,2.81,6.58,9.43,6.79,15.3,0,.13.01.27-.05.38-.19.4-1.23.29-1.61.3-.73,0-1.84,0-2.58.03-1.47.07-2.9.04-4.36-.03-2.71-.13-5.33-1.34-7.09-2.81-.17-.15-.74-.31-1.01-.03-.28.29-.18.73-.03.89,1.01,1.02,2.1,1.67,3.37,2.33,1.61.83,3.37,1.04,5.16,1.14,1.91.11,3.83.09,5.74-.11,1.59-.16,2-.27.43.9-1.38,1.02-2.98,1.76-4.6,2.31-2.33.79-4.79,1.18-7.24,1.25-1.49.04-2.98-.04-4.45-.23-.76-.09-1.52-.23-2.29-.31-.62-.06-1.27-.18-1.89-.05-.56.12-1.08.43-1.44.89-.49.63-.65,2.37-.37,3.13.54,1.46,1.73,2.31,2.99,3.06,1.36.81,3.16,1.09,3.5,2.64.07.32-2.82.33-3.15.32h-3.85s-2.1.05-2.91-.25c-.03,0-.05-.02-.07-.03-.44-.24-.64-.83-.79-1.28-.22-.63-.59-1.27-1.05-1.93-.87-1.24-2.21-2.6-3.6-3.12M88.42,14.37c0,2.26-1.83,4.09-4.09,4.09s-4.09-1.83-4.09-4.09,1.83-4.09,4.09-4.09,4.09,1.83,4.09,4.09"/></g></g></svg>