<?xml version="1.0" encoding="UTF-8"?>
<svg id="Layer_2" data-name="Layer 2" xmlns="http://www.w3.org/2000/svg" viewBox="0 0 246.29 121.98">
  <defs>
    <style>
      .cls-1 {
        fill: #0d322c;
      }

      .cls-2 {
        fill: #30ba78;
      }
    </style>
  </defs>
  <g id="Layer_1-2" data-name="Layer 1-2">
    <path class="cls-1" d="M.09,77.9l3.04-3.04c2.16,2.2,4.16,3.12,6.52,3.12,3.16,0,5.04-1.6,5.04-3.96,0-6.44-13.96-2.8-13.96-12.48,0-5.2,3.88-8.52,9.76-8.52,3.6,0,6.6,1.4,8.48,3.52l-3.12,3.12c-1.6-1.64-3.24-2.48-5.36-2.48-2.96,0-4.88,1.52-4.88,3.88,0,6.08,14.08,2.12,14.08,12.24,0,5.36-4.12,8.84-10.2,8.84-4.2,0-7.24-1.68-9.4-4.24Z"/>
    <path class="cls-1" d="M24.17,71.9v-18.32h4.92v17.92c0,4.08,2.36,6.08,5.96,6.08s5.92-2,5.92-6.08v-17.92h4.92v18.32c0,6.84-4.32,10.24-10.84,10.24s-10.88-3.4-10.88-10.24Z"/>
    <path class="cls-1" d="M50.37,77.9l3.04-3.04c2.16,2.2,4.16,3.12,6.52,3.12,3.16,0,5.04-1.6,5.04-3.96,0-6.44-13.96-2.8-13.96-12.48,0-5.2,3.88-8.52,9.76-8.52,3.6,0,6.6,1.4,8.48,3.52l-3.12,3.12c-1.6-1.64-3.24-2.48-5.36-2.48-2.96,0-4.88,1.52-4.88,3.88,0,6.08,14.08,2.12,14.08,12.24,0,5.36-4.12,8.84-10.2,8.84-4.2,0-7.24-1.68-9.4-4.24Z"/>
    <path class="cls-1" d="M74.13,76.9v-18.64c0-2.72,1.96-4.68,4.68-4.68h13.6v4.48h-11.96c-.84,0-1.48.64-1.48,1.44v5.88h12.6v4.28h-12.6v6c0,.8.64,1.44,1.48,1.44h11.96v4.48h-13.6c-2.72,0-4.68-1.96-4.68-4.68Z"/>
    <path class="cls-1" d="M107.33,53.59h8.48c5.56,0,9.2,2.8,9.2,8.16,0,4.88-2.68,7.4-6.96,8l7.8,11.84h-3.12l-7.6-11.68h-5.16v11.68h-2.64v-28ZM115.73,67.58c3.92,0,6.56-1.72,6.56-5.8,0-3.84-2.64-5.88-6.56-5.88h-5.76v11.68h5.76Z"/>
    <path class="cls-1" d="M142.45,79.46c-1.04,1.64-3.04,2.52-5.88,2.52-4.52,0-7.32-2.24-7.32-5.6s2.76-5.76,7.56-5.76c2.32,0,4.08.56,5.28,1.6v-3.04c0-3.28-1.68-4.8-4.84-4.8-2.08,0-4.48.76-6.08,2.4l-1.24-1.76c1.68-2,4.6-2.96,7.4-2.96,4.36,0,7.28,2.32,7.28,7.08v6.08c0,2.12.04,4.24.12,6.36h-2.28v-2.12h0ZM137.01,80.02c3.2,0,5.08-1.48,5.08-3.68s-1.84-3.64-5.08-3.64-5.2,1.44-5.2,3.64,2,3.68,5.2,3.68Z"/>
    <path class="cls-1" d="M151.21,62.46h2.44v3.4c1.52-2.88,4.44-3.8,6.6-3.8,4.28,0,7.32,2.72,7.32,8.36v11.16h-2.56v-10.84c0-4.48-2.28-6.32-5.32-6.32-3.2,0-5.92,2.16-5.92,6.36v10.8h-2.56v-19.12h0Z"/>
    <path class="cls-1" d="M172.53,72.26v-.48c0-5.76,4.12-9.72,9.72-9.72,2.76,0,5.08,1.04,6.64,2.8l-1.56,1.64c-1.32-1.36-2.96-2.08-5.08-2.08-4.16,0-7.2,2.96-7.2,7.36v.48c0,4.4,3.04,7.36,7.24,7.36,2.08,0,3.72-.68,5.08-2.04l1.56,1.6c-1.56,1.8-3.92,2.8-6.68,2.8-5.64,0-9.72-4-9.72-9.72h0Z"/>
    <path class="cls-1" d="M194.01,52.39h2.44v13.48c1.52-2.88,4.44-3.8,6.6-3.8,4.28,0,7.32,2.72,7.32,8.36v11.16h-2.56v-10.84c0-4.48-2.28-6.32-5.32-6.32-3.2,0-5.92,2.16-5.92,6.36v10.8h-2.56v-29.2h0Z"/>
    <path class="cls-1" d="M215.33,72.1v-.4c0-5.56,3.56-9.64,8.88-9.64s8.64,4.28,7.92,10.64h-14.28c.28,4.08,3,6.92,7.12,6.92,2.04,0,3.76-.52,4.92-1.56l1.44,1.64c-1.4,1.44-3.8,2.28-6.48,2.28-5.64,0-9.52-4.04-9.52-9.88ZM229.72,70.58c.08-3.92-2.24-6.28-5.52-6.28-3.56,0-5.92,2.48-6.32,6.28h11.84Z"/>
    <path class="cls-1" d="M236.77,62.46h2.48v3.16c.92-2.48,3-3.2,5.36-3.2h1.68v2.48h-1.88c-3.2,0-5.08,1.6-5.08,5.08v11.6h-2.56v-19.12h0Z"/>
    <path class="cls-1" d="M2.61,93.59h8.32c5.44,0,9.12,3.04,9.12,8.24s-3.68,8.24-9.12,8.24h-5.68v11.52h-2.64s0-28,0-28ZM11.05,107.78c3.76,0,6.36-2.28,6.36-5.96s-2.6-5.92-6.36-5.92h-5.8v11.88h5.8Z"/>
    <path class="cls-1" d="M24.25,102.46h2.48v3.16c.92-2.48,3-3.2,5.36-3.2h1.68v2.48h-1.88c-3.2,0-5.08,1.6-5.08,5.08v11.6h-2.56s0-19.12,0-19.12Z"/>
    <path class="cls-1" d="M39.45,104.7h-3.84v-2.24h6.36v19.12h-2.52v-16.88ZM39.37,93.71h2.72v4.36h-2.72v-4.36Z"/>
    <path class="cls-1" d="M48.65,102.46h2.44v3.32c1.48-2.8,4.04-3.72,6.28-3.72,2.96,0,5.2,1.32,6.28,4.12,1.52-3.12,4.44-4.12,6.72-4.12,4.2,0,7,2.64,7,8.24v11.28h-2.48v-10.96c0-4.36-2.04-6.2-5.08-6.2s-5.52,2.16-5.52,6.16v11h-2.52v-10.96c0-4.36-2-6.2-5.04-6.2s-5.56,2.16-5.56,6.16v11h-2.52v-19.12h0Z"/>
    <path class="cls-1" d="M82.37,112.1v-.4c0-5.56,3.56-9.64,8.88-9.64s8.64,4.28,7.92,10.64h-14.28c.28,4.08,3,6.92,7.12,6.92,2.04,0,3.76-.52,4.92-1.56l1.44,1.64c-1.4,1.44-3.8,2.28-6.48,2.28-5.64,0-9.52-4.04-9.52-9.88ZM96.77,110.58c.08-3.92-2.24-6.28-5.52-6.28-3.56,0-5.92,2.48-6.32,6.28,0,0,11.84,0,11.84,0Z"/>
    <g id="Layer_1-3" data-name="Layer 1-3">
      <path class="cls-2" d="M87.39,16.49c-.5.33-1.16.33-1.65,0-.81-.54-.89-1.67-.24-2.32.58-.6,1.55-.6,2.13,0,.65.65.58,1.78-.24,2.32M89.76,13.2c.95,4.02-2.67,7.63-6.69,6.69-2.05-.48-3.67-2.11-4.15-4.15-.94-4.02,2.67-7.63,6.68-6.69,2.05.48,3.67,2.1,4.15,4.15M62.7,34.81c.46.66.84,1.3,1.06,1.93.15.45.35,1.05.79,1.29.03,0,.05.03.08.03.82.3,2.93.25,2.93.25h3.88c.33,0,3.24,0,3.17-.33-.35-1.56-2.15-1.84-3.52-2.65-1.26-.75-2.46-1.61-3.01-3.08-.28-.76-.11-2.51.37-3.15.36-.46.88-.77,1.44-.89.63-.13,1.27-.02,1.9.05.77.08,1.53.22,2.3.31,1.48.19,2.98.27,4.48.23,2.47-.07,4.94-.46,7.28-1.26,1.63-.55,3.24-1.29,4.63-2.32,1.58-1.17,1.16-1.06-.44-.9-1.92.2-3.85.23-5.78.11-1.79-.1-3.56-.31-5.19-1.15-1.28-.66-2.38-1.32-3.39-2.34-.15-.15-.25-.61.03-.89.27-.28.84-.12,1.01.03,1.77,1.48,4.41,2.69,7.13,2.83,1.48.07,2.91.1,4.39.04.74-.03,1.85-.03,2.59-.04.38,0,1.42.11,1.62-.3.06-.12.05-.25.05-.39-.22-5.91-.65-12.57-6.83-15.39-4.61-2.11-11.53-5.38-14.44-6.73-.68-.32-1.47.19-1.47.94,0,1.97.1,4.81.1,7.39-1.4-1.42-3.75-2.32-5.55-3.15-2.04-.94-4.14-1.73-6.28-2.4-4.31-1.34-8.77-2.16-13.26-2.6-5.09-.51-10.26-.26-15.28.77C21.24,2.77,13.13,6.74,6.97,12.54,3.19,16.11.23,21.17.03,26.31c-.29,7.27,1.75,11.18,5.5,15.21,5.97,6.42,18.83,7.31,24.03-.29,2.34-3.42,2.85-8.07,1.15-11.85-1.7-3.78-5.61-6.52-9.75-6.66-3.22-.11-6.64,1.53-7.87,4.5-.94,2.27-.41,5.07,1.31,6.84.67.69,1.57,1.25,2.56,1.03.58-.13,1.07-.57,1.15-1.16.13-.87-.63-1.43-1.1-2.1-.85-1.21-.67-3.02.38-4.04.89-.87,2.22-1.12,3.46-1.12,1.16,0,2.34.21,3.34.79,1.4.82,2.34,2.34,2.66,3.94.96,4.78-2.92,8.66-8.19,8.96-2.69.16-5.44-.55-7.54-2.24-5.32-4.28-6.63-13.04-.54-17.71,5.78-4.44,13.07-3.29,17.37-.99,3.44,1.84,6.01,4.86,7.95,8.2.98,1.68,1.81,3.43,2.58,5.21.74,1.71,1.44,3.44,2.92,4.69.98.83,2.2.8,3.48.8h7.35c1,0,.76-.67.32-1.11-.97-1-2.38-1.22-3.67-1.58-2.96-.82-2.66-4.74-1.84-4.74,2.65,0,2.73.08,5.05.05,3.35-.05,4.36-.24,6.98.73,1.4.52,2.75,1.89,3.62,3.14"/>
    </g>
  </g>
</svg>