<?xml version="1.0" encoding="UTF-8"?>
<svg id="Layer_2" data-name="Layer 2" xmlns="http://www.w3.org/2000/svg" viewBox="0 0 369.04 111.99">
  <g id="Layer_1-3" data-name="Layer 1-3">
    <path d="M74.78,37.04c-.38.25-.88.25-1.26,0-.62-.41-.68-1.27-.18-1.77.44-.46,1.18-.46,1.62,0,.5.5.44,1.36-.18,1.77M76.59,34.53c.72,3.06-2.03,5.81-5.1,5.1-1.56-.37-2.8-1.61-3.16-3.16-.72-3.06,2.03-5.81,5.09-5.1,1.56.37,2.8,1.6,3.16,3.16M55.97,51c.35.5.64.99.81,1.47.11.34.27.8.6.98.02,0,.04.02.06.02.62.23,2.23.19,2.23.19h2.96c.25,0,2.47,0,2.42-.25-.27-1.19-1.64-1.4-2.68-2.02-.96-.57-1.87-1.23-2.29-2.35-.21-.58-.08-1.91.28-2.4.27-.35.67-.59,1.1-.68.48-.1.97-.02,1.45.04.59.06,1.17.17,1.75.24,1.13.14,2.27.21,3.41.18,1.88-.05,3.76-.35,5.55-.96,1.24-.42,2.47-.98,3.53-1.77,1.2-.89.88-.81-.34-.69-1.46.15-2.93.18-4.4.08-1.36-.08-2.71-.24-3.95-.88-.98-.5-1.81-1.01-2.58-1.78-.11-.11-.19-.46.02-.68.21-.21.64-.09.77.02,1.35,1.13,3.36,2.05,5.43,2.16,1.13.05,2.22.08,3.35.03.56-.02,1.41-.02,1.97-.03.29,0,1.08.08,1.23-.23.05-.09.04-.19.04-.3-.17-4.5-.5-9.58-5.2-11.73-3.51-1.61-8.79-4.1-11-5.13-.52-.24-1.12.14-1.12.72,0,1.5.08,3.67.08,5.63-1.07-1.08-2.86-1.77-4.23-2.4-1.55-.72-3.15-1.32-4.79-1.83-3.28-1.02-6.68-1.65-10.1-1.98-3.88-.39-7.82-.2-11.64.59-6.29,1.31-12.47,4.34-17.16,8.76-2.88,2.72-5.14,6.58-5.29,10.49-.22,5.54,1.33,8.52,4.19,11.59,4.55,4.89,14.35,5.57,18.31-.22,1.78-2.61,2.17-6.15.88-9.03-1.3-2.88-4.27-4.97-7.43-5.07-2.45-.08-5.06,1.17-6,3.43-.72,1.73-.31,3.86,1,5.21.51.53,1.2.95,1.95.78.44-.1.82-.43.88-.88.1-.66-.48-1.09-.84-1.6-.65-.92-.51-2.3.29-3.08.68-.66,1.69-.85,2.64-.85.88,0,1.78.16,2.55.6,1.07.62,1.78,1.78,2.03,3,.73,3.64-2.23,6.6-6.24,6.83-2.05.12-4.15-.42-5.75-1.71-4.05-3.26-5.05-9.94-.41-13.5,4.4-3.38,9.96-2.51,13.24-.75,2.62,1.4,4.58,3.7,6.06,6.25.75,1.28,1.38,2.61,1.97,3.97.56,1.3,1.1,2.62,2.23,3.57.75.63,1.68.61,2.65.61h5.6c.76,0,.58-.51.24-.85-.74-.76-1.81-.93-2.8-1.2-2.26-.62-2.03-3.61-1.4-3.61,2.02,0,2.08.06,3.85.04,2.55-.04,3.32-.18,5.32.56,1.07.4,2.1,1.44,2.76,2.39"/>
  </g>
  <g>
    <path d="M97.05,53.61c-2.08,0-3.89-.39-5.44-1.16-1.55-.77-2.87-1.8-3.96-3.08l3.04-3.04c1.09,1.12,2.16,1.92,3.2,2.4,1.04.48,2.15.72,3.32.72,1.57,0,2.81-.37,3.7-1.1.89-.73,1.34-1.69,1.34-2.86,0-.91-.25-1.65-.76-2.22-.51-.57-1.17-1.04-2-1.4-.83-.36-1.74-.68-2.74-.96-1-.28-1.99-.59-2.98-.94-.99-.35-1.89-.8-2.72-1.36-.83-.56-1.49-1.29-2-2.2s-.76-2.04-.76-3.4c0-1.76.4-3.27,1.2-4.54s1.94-2.25,3.42-2.94,3.19-1.04,5.14-1.04c1.81,0,3.45.32,4.9.96,1.45.64,2.65,1.49,3.58,2.56l-3.12,3.12c-.8-.83-1.63-1.45-2.48-1.86-.85-.41-1.83-.62-2.92-.62-1.47,0-2.64.35-3.52,1.06-.88.71-1.32,1.65-1.32,2.82,0,.85.25,1.55.76,2.08.51.53,1.18.95,2.02,1.26s1.76.59,2.76.84c1,.25,2.01.55,3.02.9,1.01.35,1.93.8,2.76,1.36.83.56,1.49,1.31,2,2.24.51.93.76,2.12.76,3.56,0,1.79-.43,3.34-1.28,4.66s-2.05,2.35-3.58,3.08c-1.53.73-3.31,1.1-5.34,1.1Z"/>
    <path d="M122.45,53.61c-2.19,0-4.09-.38-5.72-1.14-1.63-.76-2.89-1.9-3.78-3.42s-1.34-3.41-1.34-5.68v-18.32h4.92v17.92c0,2.03.53,3.55,1.6,4.56,1.07,1.01,2.51,1.52,4.32,1.52s3.26-.51,4.34-1.52,1.62-2.53,1.62-4.56v-17.92h4.92v18.32c0,2.27-.45,4.16-1.36,5.68-.91,1.52-2.17,2.66-3.8,3.42-1.63.76-3.53,1.14-5.72,1.14Z"/>
    <path d="M146.85,53.61c-2.08,0-3.89-.39-5.44-1.16-1.55-.77-2.87-1.8-3.96-3.08l3.04-3.04c1.09,1.12,2.16,1.92,3.2,2.4,1.04.48,2.15.72,3.32.72,1.57,0,2.81-.37,3.7-1.1.89-.73,1.34-1.69,1.34-2.86,0-.91-.25-1.65-.76-2.22-.51-.57-1.17-1.04-2-1.4-.83-.36-1.74-.68-2.74-.96-1-.28-1.99-.59-2.98-.94-.99-.35-1.89-.8-2.72-1.36-.83-.56-1.49-1.29-2-2.2s-.76-2.04-.76-3.4c0-1.76.4-3.27,1.2-4.54s1.94-2.25,3.42-2.94,3.19-1.04,5.14-1.04c1.81,0,3.45.32,4.9.96,1.45.64,2.65,1.49,3.58,2.56l-3.12,3.12c-.8-.83-1.63-1.45-2.48-1.86-.85-.41-1.83-.62-2.92-.62-1.47,0-2.64.35-3.52,1.06-.88.71-1.32,1.65-1.32,2.82,0,.85.25,1.55.76,2.08.51.53,1.18.95,2.02,1.26s1.76.59,2.76.84c1,.25,2.01.55,3.02.9,1.01.35,1.93.8,2.76,1.36.83.56,1.49,1.31,2,2.24.51.93.76,2.12.76,3.56,0,1.79-.43,3.34-1.28,4.66s-2.05,2.35-3.58,3.08c-1.53.73-3.31,1.1-5.34,1.1Z"/>
    <path d="M166.05,53.05c-1.36,0-2.47-.44-3.34-1.32s-1.3-2-1.3-3.36v-18.64c0-1.36.43-2.48,1.3-3.36s1.98-1.32,3.34-1.32h13.64v4.48h-12c-.4,0-.74.14-1.02.42s-.42.62-.42,1.02v16.16c0,.4.14.74.42,1.02s.62.42,1.02.42h12v4.48h-13.64ZM163.77,41.13v-4.28h15.08v4.28h-15.08Z"/>
    <path d="M198.25,53.05c-1.28,0-2.34-.42-3.18-1.26s-1.26-1.9-1.26-3.18v-19.12c0-1.28.42-2.34,1.26-3.18s1.9-1.26,3.18-1.26h12.92v3.12h-11.84c-.61,0-1.13.21-1.54.62s-.62.91-.62,1.5v17.52c0,.59.21,1.09.62,1.5.41.41.93.62,1.54.62h11.84v3.12h-12.92ZM195.53,40.53v-3h14.8v3h-14.8Z"/>
    <path d="M213.85,53.05l6.84-9.6-6.64-9.64h3.8l5,7.6,5-7.6h3.72l-6.6,9.64,6.76,9.6h-3.88l-5.08-7.48-5.12,7.48h-3.8Z"/>
    <path d="M243.13,53.45c-1.89,0-3.58-.41-5.06-1.24-1.48-.83-2.65-1.98-3.5-3.46-.85-1.48-1.28-3.18-1.28-5.1v-.48c0-1.92.43-3.61,1.28-5.08.85-1.47,2.02-2.61,3.5-3.44,1.48-.83,3.17-1.24,5.06-1.24,1.41,0,2.7.25,3.86.76s2.14,1.24,2.94,2.2l-2,2c-.61-.64-1.32-1.13-2.12-1.46-.8-.33-1.69-.5-2.68-.5-1.25,0-2.38.28-3.38.84-1,.56-1.79,1.35-2.38,2.36-.59,1.01-.88,2.2-.88,3.56v.48c0,1.36.29,2.55.88,3.56s1.38,1.81,2.38,2.38,2.14.86,3.42.86c.96,0,1.85-.15,2.66-.46s1.54-.79,2.18-1.46l1.96,1.96c-.77.93-1.75,1.66-2.94,2.18-1.19.52-2.49.78-3.9.78Z"/>
    <path d="M254.13,53.05v-29.2h3.12v15.16h-.88c.29-1.09.71-2,1.26-2.72.55-.72,1.16-1.29,1.84-1.72.68-.43,1.38-.73,2.1-.9.72-.17,1.4-.26,2.04-.26,2.16,0,3.91.69,5.26,2.08,1.35,1.39,2.02,3.47,2.02,6.24v11.32h-3.24v-10.84c0-2.05-.46-3.54-1.38-4.46s-2.09-1.38-3.5-1.38c-.99,0-1.89.23-2.7.68-.81.45-1.47,1.11-1.96,1.98-.49.87-.74,1.94-.74,3.22v10.8h-3.24Z"/>
    <path d="M282.37,53.45c-2.19,0-3.94-.53-5.26-1.6-1.32-1.07-1.98-2.45-1.98-4.16,0-1.12.33-2.12,1-3,.67-.88,1.58-1.58,2.74-2.1,1.16-.52,2.46-.78,3.9-.78,2.32,0,4.1.52,5.34,1.56s1.86,2.4,1.86,4.08h-.6c0,1.89-.61,3.37-1.84,4.42s-2.95,1.58-5.16,1.58ZM288.25,53.05l-.08-6.08-.36-1.08v-5.16c0-1.57-.41-2.7-1.22-3.38-.81-.68-1.91-1.02-3.3-1.02-1.04,0-2.1.19-3.18.58s-2.01.98-2.78,1.78l-1.52-2.28c.85-.99,1.97-1.73,3.36-2.24s2.81-.76,4.28-.76,2.85.27,3.98.8c1.13.53,2.01,1.33,2.64,2.38.63,1.05.94,2.38.94,3.98v6.16c0,1.07.01,2.13.04,3.18.03,1.05.05,2.1.08,3.14h-2.88ZM283.21,51.01c1.47,0,2.61-.31,3.42-.92s1.22-1.41,1.22-2.4-.41-1.78-1.22-2.38c-.81-.6-1.97-.9-3.46-.9s-2.63.3-3.48.9c-.85.6-1.28,1.39-1.28,2.38s.43,1.75,1.3,2.38c.87.63,2.03.94,3.5.94Z"/>
    <path d="M296.81,53.05v-19.24h3.12v5.2h-.88c.29-1.09.71-2,1.26-2.72.55-.72,1.16-1.29,1.84-1.72.68-.43,1.38-.73,2.1-.9.72-.17,1.4-.26,2.04-.26,2.16,0,3.91.69,5.26,2.08,1.35,1.39,2.02,3.47,2.02,6.24v11.32h-3.24v-10.84c0-2.05-.46-3.54-1.38-4.46s-2.09-1.38-3.5-1.38c-.99,0-1.89.23-2.7.68-.81.45-1.47,1.11-1.96,1.98-.49.87-.74,1.94-.74,3.22v10.8h-3.24Z"/>
    <path d="M317.37,61.05v-2.72h11.48c.91,0,1.61-.22,2.12-.66.51-.44.76-1.06.76-1.86,0-.75-.25-1.33-.76-1.74-.51-.41-1.21-.62-2.12-.62h-6.32c-.99,0-1.75-.24-2.28-.72-.53-.48-.83-1.08-.9-1.8s.09-1.44.46-2.16l1.8-3.6,2.76.72-1.64,3.2c-.11.24-.18.5-.22.78-.04.28.03.51.22.7.19.19.49.28.92.28h5.64c1.65,0,2.98.42,3.98,1.26,1,.84,1.5,2.09,1.5,3.74,0,1.01-.23,1.91-.7,2.7-.47.79-1.12,1.4-1.96,1.84-.84.44-1.83.66-2.98.66h-11.76ZM326.17,47.49c-1.6,0-3.02-.3-4.26-.9s-2.21-1.43-2.92-2.48c-.71-1.05-1.06-2.25-1.06-3.58v-.36c0-1.33.35-2.51,1.06-3.52.71-1.01,1.68-1.81,2.92-2.38,1.24-.57,2.66-.86,4.26-.86s3.02.29,4.26.86c1.24.57,2.21,1.36,2.92,2.36.71,1,1.06,2.15,1.06,3.46v.44c0,1.33-.35,2.53-1.06,3.58-.71,1.05-1.68,1.88-2.92,2.48-1.24.6-2.66.9-4.26.9ZM326.17,44.97c.77,0,1.55-.14,2.32-.42.77-.28,1.43-.76,1.96-1.44.53-.68.8-1.61.8-2.78,0-1.28-.47-2.31-1.42-3.1-.95-.79-2.17-1.18-3.66-1.18s-2.71.39-3.66,1.16-1.42,1.81-1.42,3.12c0,1.17.27,2.1.82,2.78.55.68,1.21,1.16,1.98,1.44s1.53.42,2.28.42ZM326.05,35.49l2.96-6.08h3.24l-3.28,6.08h-2.92Z"/>
    <path d="M347.37,53.45c-1.89,0-3.57-.42-5.02-1.26-1.45-.84-2.59-2.01-3.4-3.5-.81-1.49-1.22-3.21-1.22-5.16v-.4c0-1.87.37-3.53,1.12-4.98.75-1.45,1.8-2.61,3.16-3.46,1.36-.85,2.93-1.28,4.72-1.28s3.41.45,4.72,1.36c1.31.91,2.27,2.18,2.9,3.82.63,1.64.81,3.58.54,5.82h-14.84v-2.64h13.08l-1.4,1.4c.19-1.44.09-2.68-.3-3.72s-.99-1.84-1.8-2.4-1.78-.84-2.9-.84c-1.2,0-2.23.29-3.1.88-.87.59-1.53,1.39-2,2.42-.47,1.03-.7,2.23-.7,3.62v.72c0,1.2.27,2.31.8,3.32s1.29,1.82,2.28,2.42c.99.6,2.15.9,3.48.9,1.01,0,1.91-.12,2.7-.36s1.47-.63,2.06-1.16l1.84,2c-.75.8-1.7,1.41-2.86,1.84-1.16.43-2.45.64-3.86.64Z"/>
    <path d="M88.96,87.05v-19.6h2.49l6.5,13.08h-.84l6.47-13.08h2.49v19.6h-1.82v-18.37h.59l-6.55,13.44h-1.54l-6.52-13.44h.59v18.37h-1.85Z"/>
    <path d="M116.32,87.33c-1.31,0-2.46-.29-3.47-.88-1.01-.59-1.79-1.4-2.35-2.44-.56-1.04-.84-2.24-.84-3.6v-.28c0-1.31.26-2.46.77-3.47.51-1.01,1.24-1.81,2.18-2.39.94-.59,2.02-.88,3.23-.88s2.32.31,3.22.92c.9.62,1.56,1.48,1.99,2.59.43,1.11.55,2.42.36,3.93h-10.47v-1.48h9.49l-.76.78c.13-1.04.05-1.96-.25-2.74s-.76-1.39-1.37-1.81c-.62-.42-1.35-.63-2.21-.63s-1.67.22-2.34.66c-.66.44-1.18,1.05-1.54,1.82-.36.78-.55,1.68-.55,2.7v.42c0,.97.21,1.84.62,2.62.41.77.99,1.39,1.74,1.83.75.45,1.61.67,2.6.67.73,0,1.39-.09,1.97-.27.59-.18,1.09-.45,1.5-.83l1.01,1.15c-.5.5-1.15.9-1.93,1.18-.78.28-1.65.42-2.6.42Z"/>
    <path d="M122.84,87.05l4.84-6.66-4.7-6.72h2.1l3.78,5.6,3.81-5.6h2.04l-4.68,6.72,4.82,6.66h-2.16l-3.86-5.52-3.89,5.52h-2.1Z"/>
    <path d="M138.58,87.05v-12.6l.78.78h-3.47v-1.57h4.45v13.38h-1.76ZM138.47,70.59v-3.02h1.99v3.02h-1.99Z"/>
    <path d="M150.67,87.33c-1.33,0-2.5-.29-3.51-.87-1.02-.58-1.82-1.38-2.41-2.41-.59-1.03-.88-2.2-.88-3.53v-.36c0-1.33.29-2.5.88-3.51.59-1.02,1.39-1.81,2.41-2.39,1.02-.58,2.19-.87,3.51-.87.97,0,1.85.17,2.63.5.78.34,1.46.82,2.02,1.46l-1.12,1.12c-.45-.45-.97-.8-1.55-1.05-.59-.25-1.26-.38-2-.38-.95,0-1.81.21-2.56.64-.76.43-1.35,1.03-1.79,1.81s-.66,1.67-.66,2.67v.36c0,1.03.22,1.92.66,2.69s1.04,1.37,1.79,1.81c.76.44,1.62.66,2.59.66.73,0,1.39-.12,1.99-.35.6-.23,1.13-.59,1.6-1.08l1.09,1.12c-.56.62-1.24,1.1-2.03,1.44-.79.35-1.68.52-2.65.52Z"/>
    <path d="M163.69,87.33c-1.27,0-2.4-.29-3.39-.88-.99-.59-1.76-1.4-2.32-2.44-.56-1.04-.84-2.24-.84-3.6v-.25c0-1.33.28-2.5.84-3.51.56-1.02,1.33-1.81,2.32-2.39.99-.58,2.12-.87,3.39-.87s2.37.29,3.36.85c.99.57,1.76,1.36,2.32,2.38.56,1.02.84,2.18.84,3.49v.31c0,1.36-.28,2.56-.84,3.6-.56,1.04-1.33,1.85-2.32,2.44-.99.59-2.11.88-3.36.88ZM163.69,85.74c.93,0,1.75-.23,2.46-.69.71-.46,1.26-1.08,1.67-1.88.4-.79.6-1.71.6-2.76v-.31c0-1.01-.2-1.89-.6-2.66s-.96-1.37-1.67-1.81c-.71-.44-1.53-.66-2.46-.66s-1.76.22-2.48.67c-.72.45-1.28,1.06-1.69,1.83-.41.77-.62,1.67-.62,2.67v.25c0,1.04.21,1.96.62,2.76.41.79.98,1.42,1.69,1.88.72.46,1.54.69,2.48.69Z"/>
    <path d="M189.57,87.36c-1.38,0-2.67-.23-3.88-.7-1.2-.47-2.26-1.14-3.16-2.02-.91-.88-1.62-1.92-2.13-3.12-.51-1.2-.77-2.54-.77-4.02v-.5c0-1.47.26-2.81.77-4.02.51-1.2,1.22-2.24,2.13-3.12.91-.88,1.96-1.55,3.16-2.02,1.2-.47,2.5-.7,3.88-.7,1.18,0,2.27.17,3.29.5,1.02.34,1.92.82,2.7,1.46l-1.18,1.4c-.63-.49-1.36-.86-2.18-1.13s-1.7-.41-2.63-.41c-1.51,0-2.88.34-4.09,1.01-1.21.67-2.17,1.61-2.87,2.81s-1.05,2.61-1.05,4.21v.5c0,1.61.35,3.01,1.05,4.21s1.66,2.14,2.87,2.81c1.21.67,2.58,1.01,4.09,1.01.93,0,1.82-.14,2.65-.41.83-.27,1.57-.68,2.23-1.22l1.18,1.43c-.8.65-1.72,1.15-2.74,1.5-1.03.34-2.13.52-3.3.52Z"/>
    <path d="M199.17,87.05v-12.6l.78.78h-3.47v-1.57h4.45v13.38h-1.76ZM199.06,70.59v-3.02h1.99v3.02h-1.99Z"/>
    <path d="M203.71,75.24v-1.57h7.98v1.57h-7.98ZM209.67,87.05c-.45,0-.88-.07-1.29-.2-.41-.13-.78-.34-1.11-.62-.33-.28-.59-.63-.78-1.05-.2-.42-.29-.93-.29-1.53v-13.33h1.76v13.44c0,.5.17.92.5,1.25.34.33.75.49,1.23.49h1.99v1.54h-2.02Z"/>
    <path d="M218.77,87.81l-5.82-14.14h1.96l4.93,12.24-1.06,1.9ZM213.14,92.65v-1.54h2.55c.47,0,.83-.16,1.11-.49.27-.33.49-.71.66-1.13l1.76-3.89,4.62-11.93h1.96l-6.52,15.88c-.17.37-.35.75-.55,1.12-.2.37-.43.7-.7.99-.27.29-.61.53-1.01.71-.4.19-.87.28-1.41.28h-2.46Z"/>
  </g>
</svg>