<?xml version="1.0" encoding="utf-8"?>
<!-- Generator: Adobe Illustrator 28.0.0, SVG Export Plug-In . SVG Version: 6.00 Build 0)  -->
<svg version="1.1" id="Layer_2_00000115480824253565368340000009478327896541801888_"
	 xmlns="http://www.w3.org/2000/svg" xmlns:xlink="http://www.w3.org/1999/xlink" x="0px" y="0px" viewBox="0 0 196.9 121.8"
	 style="enable-background:new 0 0 196.9 121.8;" xml:space="preserve">
<style type="text/css">
	.st0{fill:#FFFFFF;}
</style>
<g id="Layer_1-2">
	<path class="st0" d="M0,77.8l3-3c2.2,2.2,4.2,3.1,6.5,3.1c3.2,0,5-1.6,5-4c0-6.4-14-2.8-14-12.5c0-5.2,3.9-8.5,9.8-8.5
		c3.6,0,6.6,1.4,8.5,3.5l-3.1,3.1c-1.6-1.6-3.2-2.5-5.4-2.5c-3,0-4.9,1.5-4.9,3.9c0,6.1,14.1,2.1,14.1,12.2c0,5.4-4.1,8.8-10.2,8.8
		C5.2,82,2.2,80.3,0,77.8z"/>
	<path class="st0" d="M24.1,71.8V53.4H29v17.9c0,4.1,2.4,6.1,6,6.1s5.9-2,5.9-6.1V53.4h4.9v18.3C45.8,78.6,41.5,82,35,82
		S24.1,78.6,24.1,71.8z"/>
	<path class="st0" d="M50.3,77.8l3-3c2.2,2.2,4.2,3.1,6.5,3.1c3.2,0,5-1.6,5-4c0-6.4-14-2.8-14-12.5c0-5.2,3.9-8.5,9.8-8.5
		c3.6,0,6.6,1.4,8.5,3.5L66,59.5c-1.6-1.6-3.2-2.5-5.4-2.5c-3,0-4.9,1.5-4.9,3.9c0,6.1,14.1,2.1,14.1,12.2c0,5.4-4.1,8.8-10.2,8.8
		C55.5,82,52.4,80.3,50.3,77.8z"/>
	<path class="st0" d="M74,76.8V58.1c0-2.7,2-4.7,4.7-4.7h13.6v4.5h-12c-0.8,0-1.5,0.6-1.5,1.4v5.9h12.6v4.3H78.9v6
		c0,0.8,0.6,1.4,1.5,1.4h12v4.5H78.7C76,81.4,74,79.5,74,76.8z"/>
	<path class="st0" d="M107,77.1V53.4h2.6v23c0,1.4,1.1,2.5,2.5,2.5h11.1v2.5h-11.9C108.8,81.4,107,79.6,107,77.1z"/>
	<path class="st0" d="M128,64.6h-3.8v-2.2h6.4v19.1H128V64.6z M127.9,53.5h2.7v4.4h-2.7C127.9,57.9,127.9,53.5,127.9,53.5z"/>
	<path class="st0" d="M137.2,62.3h2.4v3.4c1.5-2.9,4.4-3.8,6.6-3.8c4.3,0,7.3,2.7,7.3,8.4v11.2H151V70.6c0-4.5-2.3-6.3-5.3-6.3
		c-3.2,0-5.9,2.2-5.9,6.4v10.8h-2.6V62.3L137.2,62.3z"/>
	<path class="st0" d="M159.8,73.9V62.3h2.5v11.2c0,4.5,2.3,6,5.3,6c3.2,0,5.8-2.1,5.8-6.3V62.3h2.5v19.1h-2.2v-3.3
		c-1.5,2.8-4.4,3.7-6.6,3.7C163,81.8,159.8,79.5,159.8,73.9z"/>
	<path class="st0" d="M186.7,71.9l-6.7-9.6h3l5.4,8l5.4-8h2.9l-6.7,9.6l6.8,9.5h-3l-5.5-7.9l-5.5,7.9h-3L186.7,71.9z"/>
	<path class="st0" d="M2.5,93.4h3.6l8.6,17.5l8.7-17.5H27v28h-2.6V96.9l-8.5,17.4h-2.2L5.1,96.9v24.5H2.5V93.4z"/>
	<path class="st0" d="M35.2,104.6h-3.8v-2.2h6.4v19.1h-2.5C35.2,121.4,35.2,104.6,35.2,104.6z M35.2,93.6h2.7V98h-2.7V93.6z"/>
	<path class="st0" d="M43,112.1v-0.5c0-5.8,4.1-9.7,9.7-9.7c2.8,0,5.1,1,6.6,2.8l-1.6,1.6c-1.3-1.4-3-2.1-5.1-2.1
		c-4.2,0-7.2,3-7.2,7.4v0.5c0,4.4,3,7.4,7.2,7.4c2.1,0,3.7-0.7,5.1-2l1.6,1.6c-1.6,1.8-3.9,2.8-6.7,2.8C47,121.8,43,117.8,43,112.1z
		"/>
	<path class="st0" d="M64.4,102.3h2.5v3.2c0.9-2.5,3-3.2,5.4-3.2H74v2.5h-1.9c-3.2,0-5.1,1.6-5.1,5.1v11.6h-2.6
		C64.4,121.4,64.4,102.3,64.4,102.3z"/>
	<path class="st0" d="M76.6,111.9v-0.3c0-5.7,4-9.7,9.4-9.7s9.3,4,9.3,9.6v0.4c0,5.8-3.9,9.9-9.3,9.9S76.6,117.7,76.6,111.9z
		 M85.9,119.6c4,0,6.8-3.1,6.8-7.6v-0.4c0-4.3-2.8-7.3-6.8-7.3s-6.8,3.1-6.8,7.4v0.3C79.1,116.4,81.9,119.6,85.9,119.6z"/>
	<g id="Layer_1-3">
		<path class="st0" d="M87.5,14.1c-0.6-0.6-1.5-0.6-2.1,0c-0.7,0.6-0.6,1.8,0.2,2.3c0.5,0.3,1.2,0.3,1.6,0
			C88.1,15.8,88.2,14.7,87.5,14.1 M85.6,9c-4-0.9-7.6,2.6-6.6,6.6c0.5,2,2.1,3.6,4.1,4.1c4,0.9,7.6-2.6,6.7-6.6
			C89.3,11.1,87.7,9.5,85.6,9 M59.2,31.5c-2.6-1-3.6-0.8-6.9-0.7c-2.3,0-2.4,0-5,0c-0.8,0-1.1,3.9,1.8,4.7c1.3,0.4,2.7,0.6,3.7,1.6
			c0.4,0.4,0.7,1.1-0.3,1.1h-7.3c-1.3,0-2.5,0-3.5-0.8c-1.5-1.2-2.2-3-2.9-4.7c-0.8-1.8-1.6-3.5-2.6-5.2c-1.9-3.3-4.5-6.3-7.9-8.1
			C24,17.1,16.8,16,11,20.4c-6,4.5-4.7,13.2,0.6,17.5c2.1,1.7,4.8,2.4,7.5,2.2c5.2-0.3,9.1-4.2,8.1-8.9c-0.3-1.6-1.2-3.1-2.6-3.9
			c-1-0.6-2.2-0.8-3.3-0.8c-1.2,0-2.5,0.2-3.4,1.1c-1,1-1.2,2.8-0.4,4c0.5,0.7,1.2,1.2,1.1,2.1c-0.1,0.6-0.6,1-1.1,1.2
			c-1,0.2-1.9-0.3-2.5-1c-1.7-1.8-2.2-4.5-1.3-6.8c1.2-3,4.6-4.6,7.8-4.5c4.1,0.1,8,2.9,9.7,6.6c1.7,3.8,1.2,8.4-1.1,11.8
			c-5.2,7.6-18,6.7-23.9,0.3c-3.7-4-5.8-7.9-5.5-15.1C0.8,21,3.7,16,7.5,12.5C13.6,6.7,21.6,2.8,29.8,1C34.8,0,40-0.2,45,0.3
			c4.5,0.4,8.9,1.3,13.2,2.6c2.1,0.7,4.2,1.4,6.2,2.4C66.2,6.1,68.6,7,70,8.4C70,5.8,69.9,3,69.9,1c0-0.8,0.8-1.3,1.5-0.9
			c2.9,1.4,9.8,4.6,14.4,6.7c6.1,2.8,6.6,9.4,6.8,15.3c0,0.1,0,0.3-0.1,0.4c-0.2,0.4-1.2,0.3-1.6,0.3c-0.7,0-1.8,0-2.6,0
			c-1.5,0.1-2.9,0-4.4,0c-2.7-0.1-5.3-1.3-7.1-2.8c-0.2-0.1-0.7-0.3-1,0s-0.2,0.7,0,0.9c1,1,2.1,1.7,3.4,2.3c1.6,0.8,3.4,1,5.2,1.1
			c1.9,0.1,3.8,0.1,5.7-0.1c1.6-0.2,2-0.3,0.4,0.9c-1.4,1-3,1.8-4.6,2.3c-2.3,0.8-4.8,1.2-7.2,1.2c-1.5,0-3,0-4.4-0.2
			c-0.8-0.1-1.5-0.2-2.3-0.3c-0.6-0.1-1.3-0.2-1.9,0c-0.6,0.1-1.1,0.4-1.4,0.9c-0.5,0.6-0.7,2.4-0.4,3.1c0.5,1.5,1.7,2.3,3,3.1
			c1.4,0.8,3.2,1.1,3.5,2.6c0.1,0.3-2.8,0.3-3.2,0.3h-3.8c0,0-2.1,0-2.9-0.2h-0.1c-0.4-0.2-0.6-0.8-0.8-1.3c-0.2-0.6-0.6-1.3-1-1.9
			C62,33.4,60.6,32,59.2,31.5 M88.4,14.4c0,2.3-1.8,4.1-4.1,4.1s-4.1-1.8-4.1-4.1s1.8-4.1,4.1-4.1S88.4,12.1,88.4,14.4"/>
	</g>
</g>
</svg>
