<?xml version="1.0" encoding="utf-8"?>
<!-- Generator: Adobe Illustrator 28.0.0, SVG Export Plug-In . SVG Version: 6.00 Build 0)  -->
<svg version="1.1" id="Layer_2_00000155104154737843112120000005046519971158434703_"
	 xmlns="http://www.w3.org/2000/svg" xmlns:xlink="http://www.w3.org/1999/xlink" x="0px" y="0px" viewBox="0 0 387 35.7"
	 style="enable-background:new 0 0 387 35.7;" xml:space="preserve">
<style type="text/css">
	.st0{fill:#FFFFFF;}
</style>
<g id="Layer_1-2">
	<g id="Layer_1-3">
		<path class="st0" d="M67.1,10.8c-0.4-0.5-1.2-0.5-1.6,0c-0.5,0.5-0.4,1.4,0.2,1.8c0.4,0.2,0.9,0.2,1.3,0
			C67.5,12.2,67.6,11.3,67.1,10.8 M65.6,6.9c-3.1-0.7-5.8,2-5.1,5.1c0.4,1.6,1.6,2.8,3.2,3.2c3.1,0.7,5.9-2.1,5.1-5.1
			C68.4,8.5,67.2,7.3,65.6,6.9 M45.3,24.3c-2-0.7-2.8-0.6-5.3-0.6c-1.8,0-1.8,0-3.9,0c-0.6,0-0.9,3,1.4,3.6c1,0.3,2.1,0.5,2.8,1.2
			c0.3,0.3,0.5,0.9-0.2,0.9h-5.6c-1,0-1.9,0-2.7-0.6c-1.1-1-1.7-2.3-2.2-3.6c-0.6-1.4-1.2-2.7-2-4c-1.5-2.6-3.5-4.9-6.1-6.3
			c-3.3-1.8-8.9-2.6-13.3,0.8C3.5,19.3,4.5,26,8.6,29.3c1.6,1.3,3.7,1.8,5.8,1.7c4-0.2,7-3.2,6.3-6.9c-0.2-1.2-1-2.4-2-3
			c-0.8-0.5-1.7-0.6-2.6-0.6s-2,0.2-2.6,0.9c-0.8,0.8-0.9,2.2-0.3,3.1c0.4,0.5,0.9,0.9,0.8,1.6c-0.1,0.5-0.4,0.8-0.9,0.9
			c-0.8,0.2-1.4-0.3-2-0.8c-1.3-1.4-1.7-3.5-1-5.2c0.9-2.3,3.6-3.5,6-3.5c3.2,0.1,6.2,2.2,7.5,5.1s0.9,6.5-0.9,9.1
			c-4,5.8-13.8,5.1-18.4,0.2C1.4,28.7-0.2,25.7,0,20.1c0.2-3.9,2.4-7.8,5.3-10.6C10,5.1,16.2,2,22.6,0.7c3.8-0.8,7.8-1,11.7-0.6
			c3.4,0.3,6.9,1,10.2,2c1.6,0.5,3.2,1.1,4.8,1.8c1.4,0.6,3.2,1.3,4.2,2.4c0-2-0.1-4.2-0.1-5.7c0-0.6,0.6-1,1.1-0.7
			c2.2,1,7.5,3.5,11.1,5.2c4.7,2.2,5.1,7.3,5.2,11.8c0,0.1,0,0.2,0,0.3c-0.2,0.3-0.9,0.2-1.2,0.2c-0.6,0-1.4,0-2,0
			c-1.1,0-2.2,0-3.4,0c-2.1-0.1-4.1-1-5.5-2.2c-0.1-0.1-0.6-0.2-0.8,0s-0.1,0.6,0,0.7c0.8,0.8,1.6,1.3,2.6,1.8
			c1.2,0.6,2.6,0.8,4,0.9c1.5,0.1,2.9,0.1,4.4-0.1c1.2-0.1,1.5-0.2,0.3,0.7c-1.1,0.8-2.3,1.4-3.6,1.8c-1.8,0.6-3.7,0.9-5.6,1
			c-1.2,0-2.3,0-3.4-0.2c-0.6-0.1-1.2-0.2-1.8-0.2c-0.5,0-1-0.1-1.5,0c-0.4,0.1-0.8,0.3-1.1,0.7c-0.4,0.5-0.5,1.8-0.3,2.4
			c0.4,1.1,1.3,1.8,2.3,2.4s2.4,0.8,2.7,2c0.1,0.2-2.2,0.3-2.4,0.2h-3c0,0-1.6,0-2.2-0.2c0,0,0,0-0.1,0c-0.3-0.2-0.5-0.6-0.6-1
			c-0.2-0.5-0.5-1-0.8-1.5C47.3,25.7,46.3,24.6,45.3,24.3 M67.8,11.1c0,1.7-1.4,3.1-3.2,3.1s-3.2-1.4-3.2-3.1s1.4-3.2,3.2-3.2
			C66.4,7.9,67.8,9.3,67.8,11.1"/>
	</g>
	<path class="st0" d="M80.4,25l3-3c2.2,2.2,4.2,3.1,6.5,3.1c3.2,0,5-1.6,5-4c0-6.4-14-2.8-14-12.5c0-5.2,3.9-8.5,9.8-8.5
		c3.6,0,6.6,1.4,8.5,3.5l-3.1,3.1c-1.6-1.6-3.2-2.5-5.4-2.5c-3,0-4.9,1.5-4.9,3.9c0,6.1,14.1,2.1,14.1,12.2c0,5.4-4.1,8.8-10.2,8.8
		C85.6,29.3,82.6,27.6,80.4,25z"/>
	<path class="st0" d="M104.5,19V0.7h4.9v17.9c0,4.1,2.4,6.1,6,6.1s5.9-2,5.9-6.1V0.7h4.9V19c0,6.8-4.3,10.2-10.8,10.2
		S104.5,25.9,104.5,19L104.5,19z"/>
	<path class="st0" d="M130.7,25l3-3c2.2,2.2,4.2,3.1,6.5,3.1c3.2,0,5-1.6,5-4c0-6.4-14-2.8-14-12.5c0-5.2,3.9-8.5,9.8-8.5
		c3.6,0,6.6,1.4,8.5,3.5l-3.1,3.1c-1.6-1.6-3.2-2.5-5.4-2.5c-3,0-4.9,1.5-4.9,3.9c0,6.1,14.1,2.1,14.1,12.2c0,5.4-4.1,8.8-10.2,8.8
		C135.9,29.3,132.8,27.6,130.7,25L130.7,25z"/>
	<path class="st0" d="M154.4,24V5.4c0-2.7,2-4.7,4.7-4.7h13.6v4.5h-12c-0.8,0-1.5,0.6-1.5,1.4v5.9h12.6v4.3h-12.6v6
		c0,0.8,0.6,1.4,1.5,1.4h12v4.5h-13.6C156.4,28.7,154.4,26.8,154.4,24L154.4,24z"/>
	<path class="st0" d="M187.3,24.3V0.7h3.4v22.6c0,1.2,0.9,2.1,2.1,2.1H204v3.2h-12.2C189.1,28.7,187.3,26.8,187.3,24.3L187.3,24.3z"
		/>
	<path class="st0" d="M208.5,12.3h-3.7V9.5h6.9v19.2h-3.2V12.3z M208.4,0.6h3.5v4.6h-3.5V0.6z"/>
	<path class="st0" d="M218.1,9.5h3.1v3c1.6-2.6,4.3-3.4,6.4-3.4c4.3,0,7.3,2.8,7.3,8.3v11.3h-3.2V17.9c0-4.1-2.1-5.8-4.9-5.8
		c-3,0-5.4,2-5.4,5.9v10.8h-3.2L218.1,9.5L218.1,9.5z"/>
	<path class="st0" d="M240.8,21.2V9.5h3.2v11.2c0,4.1,2.1,5.5,4.8,5.5c2.9,0,5.3-1.9,5.3-5.8V9.5h3.2v19.2h-2.8v-3
		c-1.6,2.6-4.3,3.4-6.4,3.4C244,29.1,240.8,26.7,240.8,21.2L240.8,21.2z"/>
	<path class="st0" d="M267.8,19.1l-6.6-9.6h3.8l5,7.6l5-7.6h3.7l-6.6,9.6l6.8,9.6H275l-5.1-7.5l-5.1,7.5H261L267.8,19.1L267.8,19.1z
		"/>
	<path class="st0" d="M292.4,0.7h4.6l8.1,16.8l8-16.8h4.6v28h-3.3V5.1l-8,16.9h-2.7l-8-16.9v23.6h-3.3L292.4,0.7L292.4,0.7z"/>
	<path class="st0" d="M325.7,12.3H322V9.5h6.9v19.2h-3.2L325.7,12.3L325.7,12.3z M325.5,0.6h3.5v4.6h-3.5V0.6z"/>
	<path class="st0" d="M333.8,19.3v-0.5c0-5.8,4.2-9.8,9.9-9.8c2.8,0,5.2,1.1,6.8,3l-2,2c-1.2-1.3-2.8-2-4.8-2
		c-3.8,0-6.7,2.7-6.7,6.8v0.5c0,4.1,2.8,6.8,6.7,6.8c1.9,0,3.5-0.6,4.8-1.9l2,2c-1.6,1.9-4.1,3-6.8,3
		C338,29.1,333.8,25.1,333.8,19.3z"/>
	<path class="st0" d="M355.2,9.5h3.2v3.1c0.9-2.4,3-3.2,5.3-3.2h1.6v3.2h-1.9c-3.1,0-5,1.5-5,4.7v11.4h-3.2V9.5L355.2,9.5z"/>
	<path class="st0" d="M367.8,19.2v-0.4c0-5.7,4.1-9.8,9.6-9.8s9.5,4,9.5,9.7v0.4c0,5.8-4,9.9-9.5,9.9S367.8,25,367.8,19.2z
		 M377.4,26.2c3.7,0,6.3-2.9,6.3-7v-0.4c0-4-2.6-6.8-6.3-6.8s-6.4,2.8-6.4,6.9v0.4C371.1,23.4,373.7,26.2,377.4,26.2z"/>
</g>
</svg>
