<?xml version="1.0" encoding="utf-8"?>
<!-- Generator: Adobe Illustrator 28.0.0, SVG Export Plug-In . SVG Version: 6.00 Build 0)  -->
<svg version="1.1" id="Layer_2_00000019676275078019335280000001549333777190033045_"
	 xmlns="http://www.w3.org/2000/svg" xmlns:xlink="http://www.w3.org/1999/xlink" x="0px" y="0px" viewBox="0 0 290.8 129.4"
	 style="enable-background:new 0 0 290.8 129.4;" xml:space="preserve">
<style type="text/css">
	.st0{fill:#FFFFFF;}
</style>
<g id="Layer_1-2">
	<path class="st0" d="M0,77.8l3-3c2.2,2.2,4.2,3.1,6.5,3.1c3.2,0,5-1.6,5-4c0-6.4-14-2.8-14-12.5c0-5.2,3.9-8.5,9.8-8.5
		c3.6,0,6.6,1.4,8.5,3.5l-3.1,3.1c-1.6-1.6-3.2-2.5-5.4-2.5c-3,0-4.9,1.5-4.9,3.9c0,6.1,14.1,2.1,14.1,12.2c0,5.4-4.1,8.8-10.2,8.8
		C5.2,82,2.2,80.3,0,77.8z"/>
	<path class="st0" d="M24.1,71.8V53.4H29v17.9c0,4.1,2.4,6.1,6,6.1s5.9-2,5.9-6.1V53.4h4.9v18.3C45.8,78.6,41.5,82,35,82
		S24.1,78.6,24.1,71.8z"/>
	<path class="st0" d="M50.3,77.8l3-3c2.2,2.2,4.2,3.1,6.5,3.1c3.2,0,5-1.6,5-4c0-6.4-14-2.8-14-12.5c0-5.2,3.9-8.5,9.8-8.5
		c3.6,0,6.6,1.4,8.5,3.5L66,59.5c-1.6-1.6-3.2-2.5-5.4-2.5c-3,0-4.9,1.5-4.9,3.9c0,6.1,14.1,2.1,14.1,12.2c0,5.4-4.1,8.8-10.2,8.8
		C55.5,82,52.4,80.3,50.3,77.8z"/>
	<path class="st0" d="M74,76.8V58.1c0-2.7,2-4.7,4.7-4.7h13.6v4.5h-12c-0.8,0-1.5,0.6-1.5,1.4v5.9h12.6v4.3H78.9v6
		c0,0.8,0.6,1.4,1.5,1.4h12v4.5H78.7C76,81.4,74,79.5,74,76.8z"/>
	<path class="st0" d="M107,77.1V53.4h2.6v23c0,1.4,1.1,2.5,2.5,2.5h11.1v2.5h-11.9C108.8,81.4,107,79.6,107,77.1z"/>
	<path class="st0" d="M128,64.6h-3.8v-2.2h6.4v19.1H128V64.6z M127.9,53.5h2.7v4.4h-2.7C127.9,57.9,127.9,53.5,127.9,53.5z"/>
	<path class="st0" d="M137.2,62.3h2.4v3.4c1.5-2.9,4.4-3.8,6.6-3.8c4.3,0,7.3,2.7,7.3,8.4v11.2H151V70.6c0-4.5-2.3-6.3-5.3-6.3
		c-3.2,0-5.9,2.2-5.9,6.4v10.8h-2.6V62.3L137.2,62.3z"/>
	<path class="st0" d="M159.8,73.9V62.3h2.5v11.2c0,4.5,2.3,6,5.3,6c3.2,0,5.8-2.1,5.8-6.3V62.3h2.5v19.1h-2.2v-3.3
		c-1.5,2.8-4.4,3.7-6.6,3.7C163,81.8,159.8,79.5,159.8,73.9z"/>
	<path class="st0" d="M186.7,71.9l-6.7-9.6h3l5.4,8l5.4-8h2.9l-6.7,9.6l6.8,9.5h-3l-5.5-7.9l-5.5,7.9h-3L186.7,71.9z"/>
	<path class="st0" d="M1.7,117.1V97.8c0-2.5,1.8-4.4,4.3-4.4h12.5v2.5H6.8c-1.4,0-2.4,1-2.4,2.4v7.9h13.4v2.4H4.4v7.9
		c0,1.4,1,2.4,2.4,2.4h11.8v2.5H6C3.5,121.4,1.7,119.6,1.7,117.1z"/>
	<path class="st0" d="M24.2,102.3h2.4v3.4c1.5-2.9,4.4-3.8,6.6-3.8c4.3,0,7.3,2.7,7.3,8.4v11.2H38v-10.8c0-4.5-2.3-6.3-5.3-6.3
		c-3.2,0-5.9,2.2-5.9,6.4v10.8h-2.6V102.3z"/>
	<path class="st0" d="M47,116.6v-12h-3.6v-2.2H47v-4.8h2.5v4.8h5.3v2.2h-5.3v12.2c0,1.4,1,2.5,2.4,2.5h2.8v2.2H52
		C49.4,121.4,47,119.9,47,116.6z"/>
	<path class="st0" d="M57.3,111.9v-0.4c0-5.6,3.6-9.6,8.9-9.6s8.6,4.3,7.9,10.6H59.8c0.3,4.1,3,6.9,7.1,6.9c2,0,3.8-0.5,4.9-1.6
		l1.4,1.6c-1.4,1.4-3.8,2.3-6.5,2.3C61.2,121.8,57.3,117.8,57.3,111.9z M71.7,110.4c0.1-3.9-2.2-6.3-5.5-6.3c-3.6,0-5.9,2.5-6.3,6.3
		H71.7z"/>
	<path class="st0" d="M78.8,102.3h2.5v3.2c0.9-2.5,3-3.2,5.4-3.2h1.7v2.5h-1.9c-3.2,0-5.1,1.6-5.1,5.1v11.6h-2.6
		C78.8,121.4,78.8,102.3,78.8,102.3z"/>
	<path class="st0" d="M92.9,102.3h2.4v3.9c1.5-2.6,4.1-4.3,7.2-4.3c5.2,0,9,4,9,9.7v0.4c0,5.9-3.7,9.9-9,9.9c-3.1,0-5.6-1.6-7-4.1
		v11.7h-2.6C92.9,129.4,92.9,102.3,92.9,102.3z M102.2,119.6c3.9,0,6.7-3,6.7-7.6v-0.4c0-4.4-2.8-7.4-6.7-7.4s-6.9,3.1-6.9,7.7
		S98.2,119.6,102.2,119.6z"/>
	<path class="st0" d="M116.6,102.3h2.5v3.2c0.9-2.5,3-3.2,5.4-3.2h1.7v2.5h-1.9c-3.2,0-5.1,1.6-5.1,5.1v11.6h-2.6
		C116.6,121.4,116.6,102.3,116.6,102.3z"/>
	<path class="st0" d="M131.8,104.6H128v-2.2h6.4v19.1h-2.5C131.8,121.4,131.8,104.6,131.8,104.6z M131.7,93.6h2.7V98h-2.7V93.6z"/>
	<path class="st0" d="M139,119.4l1.2-1.8c1.4,1.2,3.6,2.1,5.7,2.1c2.6,0,4.4-1.4,4.4-3.3c0-5-10.6-1.8-10.6-8.9
		c0-3.3,2.7-5.6,6.8-5.6c2.4,0,4.5,0.8,6,2l-1.2,1.8c-1.3-1-3-1.7-4.9-1.7c-2.5,0-4.3,1.4-4.3,3.4c0,4.9,10.6,1.8,10.6,9
		c0,3.3-2.8,5.5-6.9,5.5C143.2,121.8,140.6,120.9,139,119.4L139,119.4z"/>
	<path class="st0" d="M156.3,111.9v-0.4c0-5.6,3.6-9.6,8.9-9.6s8.6,4.3,7.9,10.6h-14.3c0.3,4.1,3,6.9,7.1,6.9c2,0,3.8-0.5,4.9-1.6
		l1.4,1.6c-1.4,1.4-3.8,2.3-6.5,2.3C160.2,121.8,156.3,117.8,156.3,111.9z M170.7,110.4c0.1-3.9-2.2-6.3-5.5-6.3
		c-3.6,0-5.9,2.5-6.3,6.3H170.7L170.7,110.4z"/>
	<path class="st0" d="M185.8,118.1l1.6-1.7c1.9,2.2,4.2,3.2,7.1,3.2c4.1,0,6.6-2.2,6.6-5.6c0-8-14.8-3.4-14.8-13.1
		c0-4.8,3.6-8,9.2-8c3.2,0,5.8,1.1,7.5,3l-1.8,1.8c-1.5-1.6-3.4-2.4-5.8-2.4c-3.9,0-6.4,2.2-6.4,5.4c0,7.6,14.8,2.8,14.8,13
		c0,5.1-3.8,8.3-9.4,8.3C190.7,121.9,187.8,120.4,185.8,118.1L185.8,118.1z"/>
	<path class="st0" d="M207.6,111.9v-0.4c0-5.6,3.6-9.6,8.9-9.6s8.6,4.3,7.9,10.6h-14.3c0.3,4.1,3,6.9,7.1,6.9c2,0,3.8-0.5,4.9-1.6
		l1.4,1.6c-1.4,1.4-3.8,2.3-6.5,2.3C211.5,121.8,207.6,117.8,207.6,111.9z M222,110.4c0.1-3.9-2.2-6.3-5.5-6.3
		c-3.6,0-5.9,2.5-6.3,6.3H222L222,110.4z"/>
	<path class="st0" d="M229,102.3h2.5v3.2c0.9-2.5,3-3.2,5.4-3.2h1.7v2.5h-1.9c-3.2,0-5.1,1.6-5.1,5.1v11.6H229V102.3L229,102.3z"/>
	<path class="st0" d="M240.2,102.3h2.6l6.4,16.1l6.4-16.1h2.6l-7.7,19.1H248L240.2,102.3L240.2,102.3z"/>
	<path class="st0" d="M259.8,111.9v-0.4c0-5.6,3.6-9.6,8.9-9.6s8.6,4.3,7.9,10.6h-14.3c0.3,4.1,3,6.9,7.1,6.9c2,0,3.8-0.5,4.9-1.6
		l1.4,1.6c-1.4,1.4-3.8,2.3-6.5,2.3C263.7,121.8,259.8,117.8,259.8,111.9L259.8,111.9z M274.2,110.4c0.1-3.9-2.2-6.3-5.5-6.3
		c-3.6,0-5.9,2.5-6.3,6.3H274.2z"/>
	<path class="st0" d="M281.3,102.3h2.5v3.2c0.9-2.5,3-3.2,5.4-3.2h1.7v2.5H289c-3.2,0-5.1,1.6-5.1,5.1v11.6h-2.6
		C281.3,121.4,281.3,102.3,281.3,102.3z"/>
	<g id="Layer_1-3">
		<path class="st0" d="M87.5,14.1c-0.6-0.6-1.5-0.6-2.1,0c-0.7,0.6-0.6,1.8,0.2,2.3c0.5,0.3,1.2,0.3,1.6,0
			C88.1,15.8,88.2,14.7,87.5,14.1 M85.6,9c-4-0.9-7.6,2.6-6.6,6.6c0.5,2,2.1,3.6,4.1,4.1c4,0.9,7.6-2.6,6.7-6.6
			C89.3,11.1,87.7,9.5,85.6,9 M59.2,31.5c-2.6-1-3.6-0.8-6.9-0.7c-2.3,0-2.4,0-5,0c-0.8,0-1.1,3.9,1.8,4.7c1.3,0.4,2.7,0.6,3.7,1.6
			c0.4,0.4,0.7,1.1-0.3,1.1h-7.3c-1.3,0-2.5,0-3.5-0.8c-1.5-1.2-2.2-3-2.9-4.7c-0.8-1.8-1.6-3.5-2.6-5.2c-1.9-3.3-4.5-6.3-7.9-8.1
			C24,17.1,16.8,16,11,20.4c-6,4.5-4.7,13.2,0.6,17.5c2.1,1.7,4.8,2.4,7.5,2.2c5.2-0.3,9.1-4.2,8.1-8.9c-0.3-1.6-1.2-3.1-2.6-3.9
			c-1-0.6-2.2-0.8-3.3-0.8c-1.2,0-2.5,0.2-3.4,1.1c-1,1-1.2,2.8-0.4,4c0.5,0.7,1.2,1.2,1.1,2.1c-0.1,0.6-0.6,1-1.1,1.2
			c-1,0.2-1.9-0.3-2.5-1c-1.7-1.8-2.2-4.5-1.3-6.8c1.2-3,4.6-4.6,7.8-4.5c4.1,0.1,8,2.9,9.7,6.6c1.7,3.8,1.2,8.4-1.1,11.8
			c-5.2,7.6-18,6.7-23.9,0.3c-3.7-4-5.8-7.9-5.5-15.1C0.8,21,3.7,16,7.5,12.5C13.6,6.7,21.6,2.8,29.8,1C34.8,0,40-0.2,45,0.3
			c4.5,0.4,8.9,1.3,13.2,2.6c2.1,0.7,4.2,1.4,6.2,2.4C66.2,6.1,68.6,7,70,8.4C70,5.8,69.9,3,69.9,1c0-0.8,0.8-1.3,1.5-0.9
			c2.9,1.4,9.8,4.6,14.4,6.7c6.1,2.8,6.6,9.4,6.8,15.3c0,0.1,0,0.3-0.1,0.4c-0.2,0.4-1.2,0.3-1.6,0.3c-0.7,0-1.8,0-2.6,0
			c-1.5,0.1-2.9,0-4.4,0c-2.7-0.1-5.3-1.3-7.1-2.8c-0.2-0.1-0.7-0.3-1,0s-0.2,0.7,0,0.9c1,1,2.1,1.7,3.4,2.3c1.6,0.8,3.4,1,5.2,1.1
			c1.9,0.1,3.8,0.1,5.7-0.1c1.6-0.2,2-0.3,0.4,0.9c-1.4,1-3,1.8-4.6,2.3c-2.3,0.8-4.8,1.2-7.2,1.2c-1.5,0-3,0-4.4-0.2
			c-0.8-0.1-1.5-0.2-2.3-0.3c-0.6-0.1-1.3-0.2-1.9,0c-0.6,0.1-1.1,0.4-1.4,0.9c-0.5,0.6-0.7,2.4-0.4,3.1c0.5,1.5,1.7,2.3,3,3.1
			c1.4,0.8,3.2,1.1,3.5,2.6c0.1,0.3-2.8,0.3-3.2,0.3h-3.8c0,0-2.1,0-2.9-0.2h-0.1c-0.4-0.2-0.6-0.8-0.8-1.3c-0.2-0.6-0.6-1.3-1-1.9
			C62,33.4,60.6,32,59.2,31.5 M88.4,14.4c0,2.3-1.8,4.1-4.1,4.1s-4.1-1.8-4.1-4.1s1.8-4.1,4.1-4.1S88.4,12.1,88.4,14.4"/>
	</g>
</g>
</svg>
