<?xml version="1.0" encoding="UTF-8"?><svg id="Layer_2" xmlns="http://www.w3.org/2000/svg" viewBox="0 0 635.67 36.72"><defs><style>.cls-1{fill:#0a3734;}.cls-2{fill:#19352e;}</style></defs><g id="Layer_1-2"><g id="Layer_1-3"><path class="cls-2" d="M66.89,12.61c-.38.25-.89.25-1.27,0-.62-.41-.68-1.28-.18-1.78.45-.46,1.18-.46,1.63,0,.5.5.44,1.36-.18,1.78M68.7,10.09c.72,3.08-2.04,5.84-5.12,5.12-1.57-.37-2.81-1.61-3.18-3.18-.72-3.07,2.04-5.84,5.12-5.12,1.57.37,2.81,1.61,3.18,3.17M47.99,26.64c.35.51.64.99.81,1.48.11.35.26.8.61.99.02.01.04.02.06.03.63.23,2.24.19,2.24.19h2.97c.25,0,2.48,0,2.43-.25-.27-1.19-1.65-1.41-2.7-2.03-.97-.58-1.88-1.23-2.3-2.36-.22-.58-.09-1.92.29-2.41.27-.35.67-.59,1.11-.68.48-.1.97-.01,1.45.03.59.06,1.17.17,1.76.24,1.14.15,2.28.21,3.43.18,1.89-.05,3.78-.35,5.57-.96,1.25-.42,2.48-.99,3.54-1.78,1.21-.9.89-.81-.33-.69-1.47.15-2.95.17-4.42.09-1.37-.08-2.73-.24-3.97-.88-.98-.5-1.82-1.01-2.59-1.79-.12-.12-.19-.46.02-.68.21-.21.64-.09.78.02,1.35,1.13,3.37,2.06,5.46,2.16,1.13.06,2.23.08,3.36.03.56-.03,1.42-.02,1.98-.03.29,0,1.09.08,1.24-.23.05-.09.04-.19.04-.3-.17-4.52-.5-9.62-5.23-11.78-3.53-1.61-8.82-4.11-11.05-5.15-.52-.25-1.12.14-1.12.72,0,1.51.08,3.68.08,5.65-1.07-1.09-2.87-1.78-4.25-2.41-1.56-.72-3.17-1.32-4.81-1.83-3.3-1.02-6.72-1.65-10.15-1.99-3.89-.39-7.86-.2-11.69.59-6.32,1.31-12.53,4.35-17.24,8.79C2.44,12.32.17,16.2.02,20.13c-.22,5.57,1.34,8.56,4.21,11.64,4.57,4.91,14.41,5.6,18.39-.23,1.79-2.62,2.18-6.18.88-9.07-1.3-2.9-4.29-4.99-7.46-5.1-2.46-.08-5.08,1.17-6.02,3.45-.72,1.74-.31,3.88,1,5.23.51.53,1.2.96,1.96.79.44-.1.82-.43.88-.89.1-.67-.48-1.1-.84-1.61-.65-.92-.52-2.31.29-3.09.68-.66,1.7-.86,2.65-.86.89,0,1.79.16,2.56.61,1.08.63,1.79,1.79,2.04,3.01.74,3.66-2.23,6.63-6.26,6.86-2.06.12-4.16-.42-5.77-1.71-4.07-3.28-5.07-9.98-.41-13.56,4.42-3.4,10-2.52,13.29-.76,2.63,1.41,4.6,3.72,6.08,6.28.75,1.28,1.38,2.63,1.97,3.99.57,1.31,1.1,2.63,2.23,3.59.75.64,1.68.61,2.67.61h5.63c.76,0,.58-.51.25-.85-.75-.76-1.82-.93-2.81-1.21-2.27-.62-2.04-3.63-1.41-3.63,2.03,0,2.09.06,3.87.04,2.56-.04,3.34-.18,5.34.56,1.07.4,2.1,1.44,2.77,2.4"/></g><path class="cls-1" d="M80.48,25.04l3.04-3.04c2.16,2.2,4.16,3.12,6.52,3.12,3.16,0,5.04-1.6,5.04-3.96,0-6.44-13.96-2.8-13.96-12.48,0-5.2,3.88-8.52,9.76-8.52,3.6,0,6.6,1.4,8.48,3.52l-3.12,3.12c-1.6-1.64-3.24-2.48-5.36-2.48-2.96,0-4.88,1.52-4.88,3.88,0,6.08,14.08,2.12,14.08,12.24,0,5.36-4.12,8.84-10.2,8.84-4.2,0-7.24-1.68-9.4-4.24Z"/><path class="cls-1" d="M104.56,19.04V.72h4.92v17.92c0,4.08,2.36,6.08,5.96,6.08s5.92-2,5.92-6.08V.72h4.92v18.32c0,6.84-4.32,10.24-10.84,10.24s-10.88-3.4-10.88-10.24Z"/><path class="cls-1" d="M130.76,25.04l3.04-3.04c2.16,2.2,4.16,3.12,6.52,3.12,3.16,0,5.04-1.6,5.04-3.96,0-6.44-13.96-2.8-13.96-12.48,0-5.2,3.88-8.52,9.76-8.52,3.6,0,6.6,1.4,8.48,3.52l-3.12,3.12c-1.6-1.64-3.24-2.48-5.36-2.48-2.96,0-4.88,1.52-4.88,3.88,0,6.08,14.08,2.12,14.08,12.24,0,5.36-4.12,8.84-10.2,8.84-4.2,0-7.24-1.68-9.4-4.24Z"/><path class="cls-1" d="M154.52,24.04V5.4c0-2.72,1.96-4.68,4.68-4.68h13.6v4.48h-11.96c-.84,0-1.48.64-1.48,1.44v5.88h12.6v4.28h-12.6v6c0,.8.64,1.44,1.48,1.44h11.96v4.48h-13.6c-2.72,0-4.68-1.96-4.68-4.68Z"/><path class="cls-1" d="M187.52,24.36V.72h2.64v23c0,1.4,1.08,2.48,2.48,2.48h11.12v2.52h-11.92c-2.52,0-4.32-1.84-4.32-4.36Z"/><path class="cls-1" d="M208.48,11.84h-3.84v-2.24h6.36v19.12h-2.52V11.84ZM208.4.84h2.72v4.36h-2.72V.84Z"/><path class="cls-1" d="M217.68,9.6h2.44v3.4c1.52-2.88,4.44-3.8,6.6-3.8,4.28,0,7.32,2.72,7.32,8.36v11.16h-2.56v-10.84c0-4.48-2.28-6.32-5.32-6.32-3.2,0-5.92,2.16-5.92,6.36v10.8h-2.56V9.6Z"/><path class="cls-1" d="M240.32,21.16v-11.56h2.48v11.16c0,4.48,2.32,6,5.32,6,3.16,0,5.84-2.08,5.84-6.28v-10.88h2.48v19.12h-2.2v-3.32c-1.52,2.8-4.36,3.72-6.56,3.72-4.24,0-7.36-2.32-7.36-7.96Z"/><path class="cls-1" d="M267.19,19.2l-6.68-9.6h3l5.4,7.96,5.4-7.96h2.92l-6.68,9.6,6.84,9.52h-3.04l-5.52-7.88-5.52,7.88h-3l6.88-9.52Z"/><path class="cls-1" d="M290.75,24.36V5.08c0-2.52,1.8-4.36,4.32-4.36h12.52v2.48h-11.76c-1.4,0-2.44,1.04-2.44,2.44v7.88h13.36v2.36h-13.36v7.92c0,1.4,1.04,2.44,2.44,2.44h11.76v2.48h-12.52c-2.52,0-4.32-1.84-4.32-4.36Z"/><path class="cls-1" d="M313.23,9.6h2.44v3.4c1.52-2.88,4.44-3.8,6.6-3.8,4.28,0,7.32,2.72,7.32,8.36v11.16h-2.56v-10.84c0-4.48-2.28-6.32-5.32-6.32-3.2,0-5.92,2.16-5.92,6.36v10.8h-2.56V9.6Z"/><path class="cls-1" d="M336.03,23.88v-12.04h-3.6v-2.24h3.6v-4.76h2.52v4.76h5.28v2.24h-5.28v12.2c0,1.4,1.04,2.48,2.44,2.48h2.84v2.2h-2.84c-2.56,0-4.96-1.48-4.96-4.84Z"/><path class="cls-1" d="M346.35,19.24v-.4c0-5.56,3.56-9.64,8.88-9.64s8.64,4.28,7.92,10.64h-14.28c.28,4.08,3,6.92,7.12,6.92,2.04,0,3.76-.52,4.92-1.56l1.44,1.64c-1.4,1.44-3.8,2.28-6.48,2.28-5.64,0-9.52-4.04-9.52-9.88ZM360.75,17.72c.08-3.92-2.24-6.28-5.52-6.28-3.56,0-5.92,2.48-6.32,6.28h11.84Z"/><path class="cls-1" d="M367.79,9.6h2.48v3.16c.92-2.48,3-3.2,5.36-3.2h1.68v2.48h-1.88c-3.2,0-5.08,1.6-5.08,5.08v11.6h-2.56V9.6Z"/><path class="cls-1" d="M381.91,9.6h2.4v3.88c1.48-2.64,4.08-4.28,7.2-4.28,5.2,0,8.96,4,8.96,9.68v.36c0,5.88-3.72,9.88-8.96,9.88-3.08,0-5.56-1.56-7.04-4.08v11.68h-2.56V9.6ZM391.19,26.84c3.92,0,6.72-3.04,6.72-7.6v-.36c0-4.4-2.8-7.4-6.72-7.4s-6.88,3.08-6.88,7.68,2.92,7.68,6.88,7.68Z"/><path class="cls-1" d="M405.63,9.6h2.48v3.16c.92-2.48,3-3.2,5.36-3.2h1.68v2.48h-1.88c-3.2,0-5.08,1.6-5.08,5.08v11.6h-2.56V9.6Z"/><path class="cls-1" d="M420.83,11.84h-3.84v-2.24h6.36v19.12h-2.52V11.84ZM420.75.84h2.72v4.36h-2.72V.84Z"/><path class="cls-1" d="M428.07,26.72l1.16-1.76c1.4,1.24,3.56,2.08,5.68,2.08,2.6,0,4.4-1.36,4.4-3.32,0-5.04-10.56-1.84-10.56-8.92,0-3.28,2.68-5.6,6.76-5.6,2.36,0,4.48.8,6.04,2l-1.2,1.76c-1.32-1.04-3-1.72-4.88-1.72-2.52,0-4.28,1.4-4.28,3.36,0,4.92,10.64,1.84,10.64,8.96,0,3.28-2.84,5.52-6.92,5.52-2.72,0-5.32-.92-6.84-2.36Z"/><path class="cls-1" d="M445.35,19.24v-.4c0-5.56,3.56-9.64,8.88-9.64s8.64,4.28,7.92,10.64h-14.28c.28,4.08,3,6.92,7.12,6.92,2.04,0,3.76-.52,4.92-1.56l1.44,1.64c-1.4,1.44-3.8,2.28-6.48,2.28-5.64,0-9.52-4.04-9.52-9.88ZM459.75,17.72c.08-3.92-2.24-6.28-5.52-6.28-3.56,0-5.92,2.48-6.32,6.28h11.84Z"/><path class="cls-1" d="M474.87,25.36l1.64-1.72c1.88,2.16,4.24,3.24,7.08,3.24,4.08,0,6.6-2.24,6.6-5.6,0-8-14.8-3.4-14.8-13.08,0-4.8,3.64-7.96,9.16-7.96,3.2,0,5.76,1.12,7.48,2.96l-1.76,1.76c-1.52-1.56-3.36-2.4-5.76-2.4-3.88,0-6.44,2.16-6.44,5.4,0,7.6,14.84,2.8,14.84,12.96,0,5.08-3.84,8.28-9.4,8.28-3.8,0-6.72-1.48-8.64-3.84Z"/><path class="cls-1" d="M496.63,19.24v-.4c0-5.56,3.56-9.64,8.88-9.64s8.64,4.28,7.92,10.64h-14.28c.28,4.08,3,6.92,7.12,6.92,2.04,0,3.76-.52,4.92-1.56l1.44,1.64c-1.4,1.44-3.8,2.28-6.48,2.28-5.64,0-9.52-4.04-9.52-9.88ZM511.03,17.72c.08-3.92-2.24-6.28-5.52-6.28-3.56,0-5.92,2.48-6.32,6.28h11.84Z"/><path class="cls-1" d="M518.07,9.6h2.48v3.16c.92-2.48,3-3.2,5.36-3.2h1.68v2.48h-1.88c-3.2,0-5.08,1.6-5.08,5.08v11.6h-2.56V9.6Z"/><path class="cls-1" d="M529.27,9.6h2.64l6.4,16.12,6.4-16.12h2.64l-7.68,19.12h-2.68l-7.72-19.12Z"/><path class="cls-1" d="M548.87,19.24v-.4c0-5.56,3.56-9.64,8.88-9.64s8.64,4.28,7.92,10.64h-14.28c.28,4.08,3,6.92,7.12,6.92,2.04,0,3.76-.52,4.92-1.56l1.44,1.64c-1.4,1.44-3.8,2.28-6.48,2.28-5.64,0-9.52-4.04-9.52-9.88ZM563.27,17.72c.08-3.92-2.24-6.28-5.52-6.28-3.56,0-5.92,2.48-6.32,6.28h11.84Z"/><path class="cls-1" d="M570.31,9.6h2.48v3.16c.92-2.48,3-3.2,5.36-3.2h1.68v2.48h-1.88c-3.2,0-5.08,1.6-5.08,5.08v11.6h-2.56V9.6Z"/><path class="cls-1" d="M599.03,1.84h-4.84V.72h5c2.4,0,4.12,1.72,4.12,4.12v22.76h8.28v1.12h-17.76v-1.12h8.28V5c0-1.8-1.28-3.16-3.08-3.16Z"/><path class="cls-1" d="M617.39,20c0-2.4.76-4.4,1.92-6.04l9.4-13.24h1.52l-8.36,11.52c1.44-.96,3.16-1.36,4.88-1.36,5.24,0,8.92,3.76,8.92,9.12s-3.76,9.12-9.12,9.12-9.16-3.56-9.16-9.12ZM626.51,28c4.72,0,8-3.28,8-8s-3.24-8.04-7.84-8.04c-4.92,0-8.12,3.28-8.12,8.04s3.12,8,7.96,8Z"/></g></svg>