<?xml version="1.0" encoding="utf-8"?>
<!-- Generator: Adobe Illustrator 28.0.0, SVG Export Plug-In . SVG Version: 6.00 Build 0)  -->
<svg version="1.1" id="Layer_2_00000014630605964438066150000002704477611724384938_"
	 xmlns="http://www.w3.org/2000/svg" xmlns:xlink="http://www.w3.org/1999/xlink" x="0px" y="0px" viewBox="0 0 290.9 129.6"
	 style="enable-background:new 0 0 290.9 129.6;" xml:space="preserve">
<g id="Layer_1-2">
	<path d="M0.1,77.9l3-3C5.3,77,7.3,78,9.6,78c3.2,0,5-1.6,5-4c0-6.4-14-2.8-14-12.5c0-5.2,3.9-8.5,9.8-8.5c3.6,0,6.6,1.4,8.5,3.5
		l-3.1,3.1c-1.6-1.6-3.2-2.5-5.4-2.5c-3,0-4.9,1.5-4.9,3.9c0,6.1,14.1,2.1,14.1,12.2c0,5.4-4.1,8.8-10.2,8.8
		C5.3,82.1,2.2,80.5,0.1,77.9z"/>
	<path d="M24.2,71.9V53.6h4.9v17.9c0,4.1,2.4,6.1,6,6.1s5.9-2,5.9-6.1V53.6h4.9v18.3c0,6.8-4.3,10.2-10.8,10.2S24.2,78.7,24.2,71.9z
		"/>
	<path d="M50.4,77.9l3-3c2.2,2.2,4.2,3.1,6.5,3.1c3.2,0,5-1.6,5-4c0-6.4-14-2.8-14-12.5c0-5.2,3.9-8.5,9.8-8.5
		c3.6,0,6.6,1.4,8.5,3.5l-3.1,3.1c-1.6-1.6-3.2-2.5-5.4-2.5c-3,0-4.9,1.5-4.9,3.9c0,6.1,14.1,2.1,14.1,12.2c0,5.4-4.1,8.8-10.2,8.8
		C55.6,82.1,52.5,80.5,50.4,77.9z"/>
	<path d="M74.1,76.9V58.2c0-2.7,2-4.7,4.7-4.7h13.6V58h-12c-0.8,0-1.5,0.6-1.5,1.4v5.9h12.6v4.3H79v6c0,0.8,0.6,1.4,1.5,1.4h12v4.5
		H78.8C76.1,81.6,74.1,79.6,74.1,76.9z"/>
	<path d="M107.1,77.2V53.6h2.6v23c0,1.4,1.1,2.5,2.5,2.5h11.1v2.5h-11.9C108.9,81.6,107.1,79.7,107.1,77.2z"/>
	<path d="M128.1,64.7h-3.8v-2.2h6.4v19.1h-2.5L128.1,64.7L128.1,64.7z M128,53.7h2.7v4.4H128V53.7z"/>
	<path d="M137.3,62.5h2.4v3.4c1.5-2.9,4.4-3.8,6.6-3.8c4.3,0,7.3,2.7,7.3,8.4v11.2H151v-11c0-4.5-2.3-6.3-5.3-6.3
		c-3.2,0-5.9,2.2-5.9,6.4v10.8h-2.6L137.3,62.5L137.3,62.5z"/>
	<path d="M159.9,74V62.5h2.5v11.2c0,4.5,2.3,6,5.3,6c3.2,0,5.8-2.1,5.8-6.3V62.5h2.5v19.1h-2.2v-3.3c-1.5,2.8-4.4,3.7-6.6,3.7
		C163,82,159.9,79.7,159.9,74z"/>
	<path d="M186.8,72.1l-6.7-9.6h3l5.4,8l5.4-8h2.9l-6.7,9.6l6.8,9.5h-3l-5.5-7.9l-5.5,7.9h-3L186.8,72.1z"/>
	<path d="M1.8,117.2V97.9c0-2.5,1.8-4.4,4.3-4.4h12.5V96H6.9c-1.4,0-2.4,1-2.4,2.4v7.9h13.4v2.4H4.4v7.9c0,1.4,1,2.4,2.4,2.4h11.8
		v2.5H6.1C3.6,121.6,1.8,119.7,1.8,117.2z"/>
	<path d="M24.3,102.4h2.4v3.4c1.5-2.9,4.4-3.8,6.6-3.8c4.3,0,7.3,2.7,7.3,8.4v11.2H38v-10.8c0-4.5-2.3-6.3-5.3-6.3
		c-3.2,0-5.9,2.2-5.9,6.4v10.8h-2.6L24.3,102.4L24.3,102.4z"/>
	<path d="M47.1,116.7v-12h-3.6v-2.2h3.6v-4.8h2.5v4.8h5.3v2.2h-5.3v12.2c0,1.4,1,2.5,2.4,2.5h2.8v2.2H52
		C49.5,121.6,47.1,120.1,47.1,116.7z"/>
	<path d="M57.4,112.1v-0.4c0-5.6,3.6-9.6,8.9-9.6s8.6,4.3,7.9,10.6H59.9c0.3,4.1,3,6.9,7.1,6.9c2,0,3.8-0.5,4.9-1.6l1.4,1.6
		c-1.4,1.4-3.8,2.3-6.5,2.3C61.3,122,57.4,117.9,57.4,112.1z M71.8,110.6c0.1-3.9-2.2-6.3-5.5-6.3c-3.6,0-5.9,2.5-6.3,6.3H71.8z"/>
	<path d="M78.8,102.4h2.5v3.2c0.9-2.5,3-3.2,5.4-3.2h1.7v2.5h-1.9c-3.2,0-5.1,1.6-5.1,5.1v11.6h-2.6
		C78.9,121.6,78.9,102.5,78.8,102.4z"/>
	<path d="M93,102.4h2.4v3.9c1.5-2.6,4.1-4.3,7.2-4.3c5.2,0,9,4,9,9.7v0.4c0,5.9-3.7,9.9-9,9.9c-3.1,0-5.6-1.6-7-4.1v11.7H93V102.4z
		 M102.2,119.7c3.9,0,6.7-3,6.7-7.6v-0.4c0-4.4-2.8-7.4-6.7-7.4s-6.9,3.1-6.9,7.7S98.3,119.7,102.2,119.7z"/>
	<path d="M116.7,102.4h2.5v3.2c0.9-2.5,3-3.2,5.4-3.2h1.7v2.5h-1.9c-3.2,0-5.1,1.6-5.1,5.1v11.6h-2.6
		C116.7,121.6,116.7,102.5,116.7,102.4z"/>
	<path d="M131.9,104.7h-3.8v-2.2h6.4v19.1H132C131.9,121.6,131.9,104.7,131.9,104.7z M131.8,93.7h2.7v4.4h-2.7V93.7z"/>
	<path d="M139.1,119.6l1.2-1.8c1.4,1.2,3.6,2.1,5.7,2.1c2.6,0,4.4-1.4,4.4-3.3c0-5-10.6-1.8-10.6-8.9c0-3.3,2.7-5.6,6.8-5.6
		c2.4,0,4.5,0.8,6,2l-1.2,1.8c-1.3-1-3-1.7-4.9-1.7c-2.5,0-4.3,1.4-4.3,3.4c0,4.9,10.6,1.8,10.6,9c0,3.3-2.8,5.5-6.9,5.5
		C143.2,121.9,140.6,121,139.1,119.6L139.1,119.6z"/>
	<path d="M156.4,112.1v-0.4c0-5.6,3.6-9.6,8.9-9.6s8.6,4.3,7.9,10.6h-14.3c0.3,4.1,3,6.9,7.1,6.9c2,0,3.8-0.5,4.9-1.6l1.4,1.6
		c-1.4,1.4-3.8,2.3-6.5,2.3C160.3,122,156.4,117.9,156.4,112.1z M170.8,110.6c0.1-3.9-2.2-6.3-5.5-6.3c-3.6,0-5.9,2.5-6.3,6.3H170.8
		L170.8,110.6z"/>
	<path d="M185.9,118.2l1.6-1.7c1.9,2.2,4.2,3.2,7.1,3.2c4.1,0,6.6-2.2,6.6-5.6c0-8-14.8-3.4-14.8-13.1c0-4.8,3.6-8,9.2-8
		c3.2,0,5.8,1.1,7.5,3l-1.8,1.8c-1.5-1.6-3.4-2.4-5.8-2.4c-3.9,0-6.4,2.2-6.4,5.4c0,7.6,14.8,2.8,14.8,13c0,5.1-3.8,8.3-9.4,8.3
		C190.8,122,187.9,120.6,185.9,118.2L185.9,118.2z"/>
	<path d="M207.7,112.1v-0.4c0-5.6,3.6-9.6,8.9-9.6s8.6,4.3,7.9,10.6h-14.3c0.3,4.1,3,6.9,7.1,6.9c2,0,3.8-0.5,4.9-1.6l1.4,1.6
		c-1.4,1.4-3.8,2.3-6.5,2.3C211.6,122,207.7,117.9,207.7,112.1z M222.1,110.6c0.1-3.9-2.2-6.3-5.5-6.3c-3.6,0-5.9,2.5-6.3,6.3H222.1
		L222.1,110.6z"/>
	<path d="M229.1,102.4h2.5v3.2c0.9-2.5,3-3.2,5.4-3.2h1.7v2.5h-1.9c-3.2,0-5.1,1.6-5.1,5.1v11.6h-2.6L229.1,102.4L229.1,102.4z"/>
	<path d="M240.3,102.4h2.6l6.4,16.1l6.4-16.1h2.6l-7.7,19.1h-2.7L240.3,102.4L240.3,102.4z"/>
	<path d="M259.9,112.1v-0.4c0-5.6,3.6-9.6,8.9-9.6s8.6,4.3,7.9,10.6h-14.3c0.3,4.1,3,6.9,7.1,6.9c2,0,3.8-0.5,4.9-1.6l1.4,1.6
		c-1.4,1.4-3.8,2.3-6.5,2.3C263.8,122,259.9,117.9,259.9,112.1L259.9,112.1z M274.3,110.6c0.1-3.9-2.2-6.3-5.5-6.3
		c-3.6,0-5.9,2.5-6.3,6.3H274.3z"/>
	<path d="M281.4,102.4h2.5v3.2c0.9-2.5,3-3.2,5.4-3.2h1.7v2.5h-2c-3.2,0-5.1,1.6-5.1,5.1v11.6h-2.6
		C281.4,121.6,281.4,102.5,281.4,102.4z"/>
	<g id="Layer_1-3">
		<path d="M87.4,16.5c-0.5,0.3-1.2,0.3-1.7,0c-0.8-0.5-0.9-1.7-0.2-2.3c0.6-0.6,1.6-0.6,2.1,0C88.3,14.8,88.2,15.9,87.4,16.5
			 M89.8,13.2c0.9,4-2.7,7.6-6.7,6.7c-2.1-0.5-3.7-2.1-4.2-4.1c-0.9-4,2.7-7.6,6.7-6.7C87.7,9.5,89.3,11.1,89.8,13.2 M62.7,34.8
			c0.5,0.7,0.8,1.3,1.1,1.9c0.2,0.5,0.3,1,0.8,1.3h0.1c0.8,0.3,2.9,0.2,2.9,0.2h3.9c0.3,0,3.2,0,3.2-0.3c-0.3-1.6-2.2-1.8-3.5-2.7
			c-1.3-0.8-2.5-1.6-3-3.1c-0.3-0.8-0.1-2.5,0.4-3.1c0.4-0.5,0.9-0.8,1.4-0.9c0.6-0.1,1.3,0,1.9,0c0.8,0.1,1.5,0.2,2.3,0.3
			c1.5,0.2,3,0.3,4.5,0.2c2.5-0.1,4.9-0.5,7.3-1.3c1.6-0.5,3.2-1.3,4.6-2.3c1.6-1.2,1.2-1.1-0.4-0.9c-1.9,0.2-3.8,0.2-5.8,0.1
			c-1.8-0.1-3.6-0.3-5.2-1.1c-1.3-0.7-2.4-1.3-3.4-2.3c-0.2-0.1-0.2-0.6,0-0.9c0.3-0.3,0.8-0.1,1,0c1.8,1.5,4.4,2.7,7.1,2.8
			c1.5,0.1,2.9,0.1,4.4,0c0.7,0,1.8,0,2.6,0c0.4,0,1.4,0.1,1.6-0.3c0.1-0.1,0.1-0.2,0.1-0.4c-0.2-5.9-0.7-12.6-6.8-15.4
			c-4.6-2.1-11.5-5.4-14.4-6.7c-0.7-0.3-1.5,0.2-1.5,0.9c0,2,0.1,4.8,0.1,7.4c-1.4-1.4-3.8-2.3-5.6-3.2c-2-0.9-4.1-1.7-6.3-2.4
			C53.8,1.3,49.3,0.4,44.8,0c-5.1-0.2-10.3,0-15.3,1C21.2,2.8,13.1,6.7,7,12.5c-3.8,3.6-6.8,8.7-7,13.8c-0.3,7.3,1.8,11.2,5.5,15.2
			c6,6.4,18.8,7.3,24-0.3c2.3-3.4,2.8-8.1,1.1-11.9c-1.7-3.8-5.6-6.5-9.8-6.7c-3.2-0.1-6.6,1.5-7.9,4.5c-0.9,2.3-0.4,5.1,1.3,6.8
			c0.7,0.7,1.6,1.2,2.6,1c0.6-0.1,1.1-0.6,1.1-1.2c0.1-0.9-0.6-1.4-1.1-2.1c-0.9-1.2-0.7-3,0.4-4c0.9-0.9,2.2-1.1,3.5-1.1
			c1.2,0,2.3,0.2,3.3,0.8c1.4,0.8,2.3,2.3,2.7,3.9c1,4.8-2.9,8.7-8.2,9c-2.7,0.2-5.4-0.5-7.5-2.2c-5.3-4.3-6.6-13-0.5-17.7
			c5.8-4.4,13.1-3.3,17.4-1c3.4,1.8,6,4.9,8,8.2c1,1.7,1.8,3.4,2.6,5.2c0.7,1.7,1.4,3.4,2.9,4.7c1,0.8,2.2,0.8,3.5,0.8h7.3
			c1,0,0.8-0.7,0.3-1.1c-1-1-2.4-1.2-3.7-1.6c-3-0.8-2.7-4.7-1.8-4.7c2.7,0,2.7,0.1,5,0c3.3,0,4.4-0.2,7,0.7
			C60.5,32.2,61.8,33.5,62.7,34.8"/>
	</g>
</g>
</svg>
