<?xml version="1.0" encoding="UTF-8"?><svg id="Layer_2" xmlns="http://www.w3.org/2000/svg" viewBox="0 0 346.9 129.57"><defs><style>.cls-1{fill:#0a3734;}.cls-2{fill:#42b177;}</style></defs><g id="Layer_1-2"><g id="Layer_1-3"><path class="cls-2" d="M87.39,16.48c-.5.33-1.16.33-1.65,0-.81-.54-.89-1.67-.24-2.32.58-.6,1.55-.6,2.13,0,.65.65.58,1.78-.24,2.32M89.76,13.19c.95,4.02-2.67,7.63-6.69,6.69-2.05-.48-3.67-2.11-4.15-4.15-.94-4.02,2.67-7.63,6.68-6.69,2.05.48,3.67,2.1,4.15,4.15M62.7,34.8c.46.66.84,1.3,1.06,1.93.15.45.35,1.05.79,1.29.03.01.05.03.08.03.82.3,2.93.25,2.93.25h3.88c.33,0,3.24,0,3.17-.33-.35-1.56-2.15-1.84-3.52-2.65-1.26-.75-2.46-1.61-3.01-3.08-.28-.76-.11-2.51.37-3.15.36-.46.88-.77,1.44-.89.63-.13,1.27-.02,1.9.05.77.08,1.53.22,2.3.31,1.48.19,2.98.27,4.48.23,2.47-.07,4.94-.46,7.28-1.26,1.63-.55,3.24-1.29,4.63-2.32,1.58-1.17,1.16-1.06-.44-.9-1.92.2-3.85.23-5.78.11-1.79-.1-3.56-.31-5.19-1.15-1.28-.66-2.38-1.32-3.39-2.34-.15-.15-.25-.61.03-.89.27-.28.84-.12,1.01.03,1.77,1.48,4.41,2.69,7.13,2.83,1.48.07,2.91.1,4.39.04.74-.03,1.85-.03,2.59-.04.38,0,1.42.11,1.62-.3.06-.12.05-.25.05-.39-.22-5.91-.65-12.57-6.83-15.39-4.61-2.11-11.53-5.38-14.44-6.73-.68-.32-1.47.19-1.47.94,0,1.97.1,4.81.1,7.39-1.4-1.42-3.75-2.32-5.55-3.15-2.04-.94-4.14-1.73-6.28-2.4-4.31-1.34-8.77-2.16-13.26-2.6-5.09-.51-10.26-.26-15.28.77C21.24,2.76,13.13,6.73,6.97,12.53,3.19,16.1.23,21.16.03,26.3c-.29,7.27,1.75,11.18,5.5,15.21,5.97,6.42,18.83,7.31,24.03-.29,2.34-3.42,2.85-8.07,1.15-11.85-1.7-3.78-5.61-6.52-9.75-6.66-3.22-.11-6.64,1.53-7.87,4.5-.94,2.27-.41,5.07,1.31,6.84.67.69,1.57,1.25,2.56,1.03.58-.13,1.07-.57,1.15-1.16.13-.87-.63-1.43-1.1-2.1-.85-1.21-.67-3.02.38-4.04.89-.87,2.22-1.12,3.46-1.12,1.16,0,2.34.21,3.34.79,1.4.82,2.34,2.34,2.66,3.94.96,4.78-2.92,8.66-8.19,8.96-2.69.16-5.44-.55-7.54-2.24-5.32-4.28-6.63-13.04-.54-17.71,5.78-4.44,13.07-3.29,17.37-.99,3.44,1.84,6.01,4.86,7.95,8.2.98,1.68,1.81,3.43,2.58,5.21.74,1.71,1.44,3.44,2.92,4.69.98.83,2.2.8,3.48.8h7.35c1,0,.76-.67.32-1.11-.97-1-2.38-1.22-3.67-1.58-2.96-.82-2.66-4.74-1.84-4.74,2.65,0,2.73.08,5.05.05,3.35-.05,4.36-.24,6.98.73,1.4.52,2.75,1.89,3.62,3.14"/></g><path class="cls-1" d="M.26,77.89l3.04-3.04c2.16,2.2,4.16,3.12,6.52,3.12,3.16,0,5.04-1.6,5.04-3.96,0-6.44-13.96-2.8-13.96-12.48,0-5.2,3.88-8.52,9.76-8.52,3.6,0,6.6,1.4,8.48,3.52l-3.12,3.12c-1.6-1.64-3.24-2.48-5.36-2.48-2.96,0-4.88,1.52-4.88,3.88,0,6.08,14.08,2.12,14.08,12.24,0,5.36-4.12,8.84-10.2,8.84-4.2,0-7.24-1.68-9.4-4.24Z"/><path class="cls-1" d="M24.34,71.89v-18.32h4.92v17.92c0,4.08,2.36,6.08,5.96,6.08s5.92-2,5.92-6.08v-17.92h4.92v18.32c0,6.84-4.32,10.24-10.84,10.24s-10.88-3.4-10.88-10.24Z"/><path class="cls-1" d="M50.54,77.89l3.04-3.04c2.16,2.2,4.16,3.12,6.52,3.12,3.16,0,5.04-1.6,5.04-3.96,0-6.44-13.96-2.8-13.96-12.48,0-5.2,3.88-8.52,9.76-8.52,3.6,0,6.6,1.4,8.48,3.52l-3.12,3.12c-1.6-1.64-3.24-2.48-5.36-2.48-2.96,0-4.88,1.52-4.88,3.88,0,6.08,14.08,2.12,14.08,12.24,0,5.36-4.12,8.84-10.2,8.84-4.2,0-7.24-1.68-9.4-4.24Z"/><path class="cls-1" d="M74.3,76.89v-18.64c0-2.72,1.96-4.68,4.68-4.68h13.6v4.48h-11.96c-.84,0-1.48.64-1.48,1.44v5.88h12.6v4.28h-12.6v6c0,.8.64,1.44,1.48,1.44h11.96v4.48h-13.6c-2.72,0-4.68-1.96-4.68-4.68Z"/><path class="cls-1" d="M107.3,77.21v-23.64h2.64v23c0,1.4,1.08,2.48,2.48,2.48h11.12v2.52h-11.92c-2.52,0-4.32-1.84-4.32-4.36Z"/><path class="cls-1" d="M128.26,64.69h-3.84v-2.24h6.36v19.12h-2.52v-16.88ZM128.18,53.7h2.72v4.36h-2.72v-4.36Z"/><path class="cls-1" d="M137.46,62.45h2.44v3.4c1.52-2.88,4.44-3.8,6.6-3.8,4.28,0,7.32,2.72,7.32,8.36v11.16h-2.56v-10.84c0-4.48-2.28-6.32-5.32-6.32-3.2,0-5.92,2.16-5.92,6.36v10.8h-2.56v-19.12Z"/><path class="cls-1" d="M160.1,74.01v-11.56h2.48v11.16c0,4.48,2.32,6,5.32,6,3.16,0,5.84-2.08,5.84-6.28v-10.88h2.48v19.12h-2.2v-3.32c-1.52,2.8-4.36,3.72-6.56,3.72-4.24,0-7.36-2.32-7.36-7.96Z"/><path class="cls-1" d="M186.98,72.05l-6.68-9.6h3l5.4,7.96,5.4-7.96h2.92l-6.68,9.6,6.84,9.52h-3.04l-5.52-7.88-5.52,7.88h-3l6.88-9.52Z"/><path class="cls-1" d="M1.98,117.21v-19.28c0-2.52,1.8-4.36,4.32-4.36h12.52v2.48H7.06c-1.4,0-2.44,1.04-2.44,2.44v7.88h13.36v2.36H4.62v7.92c0,1.4,1.04,2.44,2.44,2.44h11.76v2.48H6.3c-2.52,0-4.32-1.84-4.32-4.36Z"/><path class="cls-1" d="M24.46,102.45h2.44v3.4c1.52-2.88,4.44-3.8,6.6-3.8,4.28,0,7.32,2.72,7.32,8.36v11.16h-2.56v-10.84c0-4.48-2.28-6.32-5.32-6.32-3.2,0-5.92,2.16-5.92,6.36v10.8h-2.56v-19.12Z"/><path class="cls-1" d="M47.26,116.73v-12.04h-3.6v-2.24h3.6v-4.76h2.52v4.76h5.28v2.24h-5.28v12.2c0,1.4,1.04,2.48,2.44,2.48h2.84v2.2h-2.84c-2.56,0-4.96-1.48-4.96-4.84Z"/><path class="cls-1" d="M57.58,112.09v-.4c0-5.56,3.56-9.64,8.88-9.64s8.64,4.28,7.92,10.64h-14.28c.28,4.08,3,6.92,7.12,6.92,2.04,0,3.76-.52,4.92-1.56l1.44,1.64c-1.4,1.44-3.8,2.28-6.48,2.28-5.64,0-9.52-4.04-9.52-9.88ZM71.98,110.57c.08-3.92-2.24-6.28-5.52-6.28-3.56,0-5.92,2.48-6.32,6.28h11.84Z"/><path class="cls-1" d="M79.02,102.45h2.48v3.16c.92-2.48,3-3.2,5.36-3.2h1.68v2.48h-1.88c-3.2,0-5.08,1.6-5.08,5.08v11.6h-2.56v-19.12Z"/><path class="cls-1" d="M93.14,102.45h2.4v3.88c1.48-2.64,4.08-4.28,7.2-4.28,5.2,0,8.96,4,8.96,9.68v.36c0,5.88-3.72,9.88-8.96,9.88-3.08,0-5.56-1.56-7.04-4.08v11.68h-2.56v-27.12ZM102.42,119.69c3.92,0,6.72-3.04,6.72-7.6v-.36c0-4.4-2.8-7.4-6.72-7.4s-6.88,3.08-6.88,7.68,2.92,7.68,6.88,7.68Z"/><path class="cls-1" d="M116.86,102.45h2.48v3.16c.92-2.48,3-3.2,5.36-3.2h1.68v2.48h-1.88c-3.2,0-5.08,1.6-5.08,5.08v11.6h-2.56v-19.12Z"/><path class="cls-1" d="M132.06,104.69h-3.84v-2.24h6.36v19.12h-2.52v-16.88ZM131.98,93.7h2.72v4.36h-2.72v-4.36Z"/><path class="cls-1" d="M139.3,119.57l1.16-1.76c1.4,1.24,3.56,2.08,5.68,2.08,2.6,0,4.4-1.36,4.4-3.32,0-5.04-10.56-1.84-10.56-8.92,0-3.28,2.68-5.6,6.76-5.6,2.36,0,4.48.8,6.04,2l-1.2,1.76c-1.32-1.04-3-1.72-4.88-1.72-2.52,0-4.28,1.4-4.28,3.36,0,4.92,10.64,1.84,10.64,8.96,0,3.28-2.84,5.52-6.92,5.52-2.72,0-5.32-.92-6.84-2.36Z"/><path class="cls-1" d="M156.58,112.09v-.4c0-5.56,3.56-9.64,8.88-9.64s8.64,4.28,7.92,10.64h-14.28c.28,4.08,3,6.92,7.12,6.92,2.04,0,3.76-.52,4.92-1.56l1.44,1.64c-1.4,1.44-3.8,2.28-6.48,2.28-5.64,0-9.52-4.04-9.52-9.88ZM170.98,110.57c.08-3.92-2.24-6.28-5.52-6.28-3.56,0-5.92,2.48-6.32,6.28h11.84Z"/><path class="cls-1" d="M186.1,118.21l1.64-1.72c1.88,2.16,4.24,3.24,7.08,3.24,4.08,0,6.6-2.24,6.6-5.6,0-8-14.8-3.4-14.8-13.08,0-4.8,3.64-7.96,9.16-7.96,3.2,0,5.76,1.12,7.48,2.96l-1.76,1.76c-1.52-1.56-3.36-2.4-5.76-2.4-3.88,0-6.44,2.16-6.44,5.4,0,7.6,14.84,2.8,14.84,12.96,0,5.08-3.84,8.28-9.4,8.28-3.8,0-6.72-1.48-8.64-3.84Z"/><path class="cls-1" d="M207.86,112.09v-.4c0-5.56,3.56-9.64,8.88-9.64s8.64,4.28,7.92,10.64h-14.28c.28,4.08,3,6.92,7.12,6.92,2.04,0,3.76-.52,4.92-1.56l1.44,1.64c-1.4,1.44-3.8,2.28-6.48,2.28-5.64,0-9.52-4.04-9.52-9.88ZM222.26,110.57c.08-3.92-2.24-6.28-5.52-6.28-3.56,0-5.92,2.48-6.32,6.28h11.84Z"/><path class="cls-1" d="M229.3,102.45h2.48v3.16c.92-2.48,3-3.2,5.36-3.2h1.68v2.48h-1.88c-3.2,0-5.08,1.6-5.08,5.08v11.6h-2.56v-19.12Z"/><path class="cls-1" d="M240.5,102.45h2.64l6.4,16.12,6.4-16.12h2.64l-7.68,19.12h-2.68l-7.72-19.12Z"/><path class="cls-1" d="M260.1,112.09v-.4c0-5.56,3.56-9.64,8.88-9.64s8.64,4.28,7.92,10.64h-14.28c.28,4.08,3,6.92,7.12,6.92,2.04,0,3.76-.52,4.92-1.56l1.44,1.64c-1.4,1.44-3.8,2.28-6.48,2.28-5.64,0-9.52-4.04-9.52-9.88ZM274.5,110.57c.08-3.92-2.24-6.28-5.52-6.28-3.56,0-5.92,2.48-6.32,6.28h11.84Z"/><path class="cls-1" d="M281.54,102.45h2.48v3.16c.92-2.48,3-3.2,5.36-3.2h1.68v2.48h-1.88c-3.2,0-5.08,1.6-5.08,5.08v11.6h-2.56v-19.12Z"/><path class="cls-1" d="M310.26,94.7h-4.84v-1.12h5c2.4,0,4.12,1.72,4.12,4.12v22.76h8.28v1.12h-17.76v-1.12h8.28v-22.6c0-1.8-1.28-3.16-3.08-3.16Z"/><path class="cls-1" d="M328.62,112.85c0-2.4.76-4.4,1.92-6.04l9.4-13.24h1.52l-8.36,11.52c1.44-.96,3.16-1.36,4.88-1.36,5.24,0,8.92,3.76,8.92,9.12s-3.76,9.12-9.12,9.12-9.16-3.56-9.16-9.12ZM337.74,120.85c4.72,0,8-3.28,8-8s-3.24-8.04-7.84-8.04c-4.92,0-8.12,3.28-8.12,8.04s3.12,8,7.96,8Z"/></g></svg>