<?xml version="1.0" encoding="UTF-8"?>
<svg id="Layer_1" data-name="Layer 1" xmlns="http://www.w3.org/2000/svg" viewBox="0 0 348.2 129.57">
  <defs>
    <style>
      .cls-1 {
        fill: #fff;
      }
    </style>
  </defs>
  <g>
    <path class="cls-1" d="M9.4,82.13c-2.08,0-3.89-.39-5.44-1.16-1.55-.77-2.87-1.8-3.96-3.08l3.04-3.04c1.09,1.12,2.16,1.92,3.2,2.4s2.15.72,3.32.72c1.57,0,2.81-.37,3.7-1.1.89-.73,1.34-1.69,1.34-2.86,0-.91-.25-1.65-.76-2.22s-1.17-1.04-2-1.4-1.74-.68-2.74-.96-1.99-.59-2.98-.94c-.99-.35-1.89-.8-2.72-1.36s-1.49-1.29-2-2.2c-.51-.91-.76-2.04-.76-3.4,0-1.76.4-3.27,1.2-4.54s1.94-2.25,3.42-2.94,3.19-1.04,5.14-1.04c1.81,0,3.45.32,4.9.96s2.65,1.49,3.58,2.56l-3.12,3.12c-.8-.83-1.63-1.45-2.48-1.86-.85-.41-1.83-.62-2.92-.62-1.47,0-2.64.35-3.52,1.06s-1.32,1.65-1.32,2.82c0,.85.25,1.55.76,2.08.51.53,1.18.95,2.02,1.26.84.31,1.76.59,2.76.84s2.01.55,3.02.9,1.93.8,2.76,1.36,1.49,1.31,2,2.24.76,2.12.76,3.56c0,1.79-.43,3.34-1.28,4.66s-2.05,2.35-3.58,3.08c-1.53.73-3.31,1.1-5.34,1.1h0Z"/>
    <path class="cls-1" d="M34.76,82.13c-3.28,0-5.91-.85-7.88-2.54-1.97-1.69-2.96-4.26-2.96-7.7v-18.32h4.92v17.92c0,2.03.53,3.55,1.6,4.56,1.07,1.01,2.51,1.52,4.32,1.52s3.26-.51,4.34-1.52c1.08-1.01,1.62-2.53,1.62-4.56v-17.92h4.92v18.32c0,2.27-.45,4.16-1.36,5.68s-2.17,2.66-3.8,3.42c-1.63.76-3.53,1.14-5.72,1.14Z"/>
    <path class="cls-1" d="M59.16,82.13c-2.08,0-3.89-.39-5.44-1.16-1.55-.77-2.87-1.8-3.96-3.08l3.04-3.04c1.09,1.12,2.16,1.92,3.2,2.4s2.15.72,3.32.72c1.57,0,2.81-.37,3.7-1.1.89-.73,1.34-1.69,1.34-2.86,0-.91-.25-1.65-.76-2.22s-1.17-1.04-2-1.4-1.74-.68-2.74-.96-1.99-.59-2.98-.94c-.99-.35-1.89-.8-2.72-1.36s-1.49-1.29-2-2.2c-.51-.91-.76-2.04-.76-3.4,0-1.76.4-3.27,1.2-4.54s1.94-2.25,3.42-2.94,3.19-1.04,5.14-1.04c1.81,0,3.45.32,4.9.96,1.45.64,2.65,1.49,3.58,2.56l-3.12,3.12c-.8-.83-1.63-1.45-2.48-1.86-.85-.41-1.83-.62-2.92-.62-1.47,0-2.64.35-3.52,1.06s-1.32,1.65-1.32,2.82c0,.85.25,1.55.76,2.08s1.18.95,2.02,1.26c.84.31,1.76.59,2.76.84s2.01.55,3.02.9c1.01.35,1.93.8,2.76,1.36s1.49,1.31,2,2.24.76,2.12.76,3.56c0,1.79-.43,3.34-1.28,4.66s-2.05,2.35-3.58,3.08-3.31,1.1-5.34,1.1h0Z"/>
    <path class="cls-1" d="M78.32,81.57c-1.36,0-2.47-.44-3.34-1.32-.87-.88-1.3-2-1.3-3.36v-18.64c0-1.36.43-2.48,1.3-3.36s1.98-1.32,3.34-1.32h13.64v4.48h-12c-.4,0-.74.14-1.02.42s-.42.62-.42,1.02v16.16c0,.4.14.74.42,1.02s.62.42,1.02.42h12v4.48s-13.64,0-13.64,0ZM76.04,69.65v-4.28h15.08v4.28h-15.08Z"/>
    <path class="cls-1" d="M114.44,81.57l-10.52-28h2.84l9.56,25.88h-.88l9.56-25.88h2.84l-10.56,28h-2.84Z"/>
    <path class="cls-1" d="M132.44,81.57v-18l1.16,1.12h-4.96v-2.24h6.36v19.12h-2.56ZM132.36,58.05v-4.32h2.72v4.32h-2.72Z"/>
    <path class="cls-1" d="M141.32,81.57v-19.12h2.48v4.56l-.4-.04c.24-1.23.63-2.17,1.18-2.82.55-.65,1.21-1.11,2-1.36s1.65-.38,2.58-.38h1.64v2.52h-1.84c-1.57,0-2.81.4-3.72,1.2-.91.8-1.36,2.08-1.36,3.84v11.6h-2.56Z"/>
    <path class="cls-1" d="M152.44,64.69v-2.24h11.4v2.24h-11.4ZM161,81.57c-.64,0-1.26-.09-1.86-.28s-1.13-.48-1.6-.88c-.47-.4-.83-.9-1.1-1.5s-.4-1.33-.4-2.18v-19.04h2.52v19.2c0,.72.24,1.31.72,1.78s1.05.7,1.72.7h2.84v2.2s-2.84,0-2.84,0Z"/>
    <path class="cls-1" d="M175.44,81.97c-1.41,0-2.68-.27-3.8-.82s-2-1.4-2.64-2.56c-.64-1.16-.96-2.69-.96-4.58v-11.56h2.52v11.16c0,1.49.23,2.68.7,3.56s1.1,1.51,1.9,1.88c.8.37,1.71.56,2.72.56s2-.23,2.88-.7c.88-.47,1.59-1.17,2.14-2.1s.82-2.09.82-3.48v-10.88h2.48v19.12h-2.24v-5.12h.72c-.29,1.04-.71,1.91-1.24,2.62s-1.15,1.27-1.84,1.7-1.4.73-2.12.92c-.72.19-1.4.28-2.04.28h0Z"/>
    <path class="cls-1" d="M196.36,81.97c-2.24,0-4.02-.51-5.34-1.54-1.32-1.03-1.98-2.38-1.98-4.06,0-1.09.29-2.07.88-2.94.59-.87,1.45-1.55,2.6-2.06,1.15-.51,2.52-.76,4.12-.76,2.21,0,3.93.49,5.14,1.48,1.21.99,1.82,2.29,1.82,3.92h-.48c0,1.87-.56,3.33-1.68,4.38-1.12,1.05-2.81,1.58-5.08,1.58h0ZM202.24,81.57l-.04-6.96-.28-.76v-4.68c0-1.65-.41-2.87-1.24-3.64s-2.03-1.16-3.6-1.16c-1.04,0-2.11.2-3.22.6s-2.07,1.01-2.9,1.84l-1.24-1.8c.91-.99,2.02-1.73,3.34-2.22,1.32-.49,2.69-.74,4.1-.74s2.71.26,3.8.78,1.95,1.3,2.56,2.34.92,2.36.92,3.96v6.08c0,1.07,0,2.13.02,3.18,0,1.05.05,2.11.1,3.18h-2.32ZM196.84,80.01c1.6,0,2.85-.34,3.74-1.02s1.34-1.57,1.34-2.66-.45-2.01-1.34-2.66-2.15-.98-3.78-.98-2.87.33-3.8.98c-.93.65-1.4,1.54-1.4,2.66s.47,1.98,1.4,2.66,2.21,1.02,3.84,1.02Z"/>
    <path class="cls-1" d="M215.4,81.57c-1.44,0-2.61-.43-3.52-1.28s-1.36-1.99-1.36-3.4v-23.44l1.12,1.12h-4.8v-2.2h6.24v24.56c0,.69.23,1.27.68,1.74s1.04.7,1.76.7h1.72v2.2h-1.84,0Z"/>
    <path class="cls-1" d="M243.12,82.17c-1.97,0-3.82-.35-5.54-1.04-1.72-.69-3.23-1.67-4.52-2.94-1.29-1.27-2.3-2.77-3.02-4.5s-1.08-3.65-1.08-5.76v-.72c0-2.11.36-4.03,1.08-5.76.72-1.73,1.73-3.23,3.02-4.5,1.29-1.27,2.8-2.25,4.52-2.94s3.57-1.04,5.54-1.04c1.68,0,3.25.25,4.7.74s2.74,1.18,3.86,2.06l-1.64,2.04c-1.92-1.49-4.23-2.24-6.92-2.24-1.6,0-3.09.28-4.48.84s-2.61,1.36-3.66,2.4-1.87,2.27-2.44,3.68-.86,2.99-.86,4.72v.72c0,1.73.29,3.31.86,4.72s1.39,2.64,2.44,3.68,2.27,1.84,3.66,2.4c1.39.56,2.88.84,4.48.84,2.75,0,5.07-.77,6.96-2.32l1.68,2.04c-1.12.91-2.42,1.61-3.9,2.12s-3.06.76-4.74.76Z"/>
    <path class="cls-1" d="M261.08,81.57c-1.44,0-2.61-.43-3.52-1.28s-1.36-1.99-1.36-3.4v-23.44l1.12,1.12h-4.8v-2.2h6.24v24.56c0,.69.23,1.27.68,1.74.45.47,1.04.7,1.76.7h1.72v2.2h-1.84Z"/>
    <path class="cls-1" d="M273.52,81.97c-1.41,0-2.68-.27-3.8-.82s-2-1.4-2.64-2.56c-.64-1.16-.96-2.69-.96-4.58v-11.56h2.52v11.16c0,1.49.23,2.68.7,3.56s1.1,1.51,1.9,1.88c.8.37,1.71.56,2.72.56s2-.23,2.88-.7c.88-.47,1.59-1.17,2.14-2.1.55-.93.82-2.09.82-3.48v-10.88h2.48v19.12h-2.24v-5.12h.72c-.29,1.04-.71,1.91-1.24,2.62s-1.15,1.27-1.84,1.7-1.4.73-2.12.92c-.72.19-1.4.28-2.04.28h0Z"/>
    <path class="cls-1" d="M293.68,81.93c-1.36,0-2.65-.21-3.86-.64s-2.19-1-2.94-1.72l1.16-1.76c.69.61,1.55,1.11,2.58,1.5s2.05.58,3.06.58c1.31,0,2.37-.31,3.2-.92.83-.61,1.24-1.43,1.24-2.44,0-.83-.26-1.47-.78-1.92s-1.18-.8-1.98-1.04c-.8-.24-1.65-.47-2.54-.7-.89-.23-1.74-.52-2.54-.88-.8-.36-1.45-.88-1.96-1.56-.51-.68-.76-1.61-.76-2.78,0-1.65.61-3,1.84-4.04s2.87-1.56,4.92-1.56c1.17,0,2.28.18,3.32.54s1.93.83,2.68,1.42l-1.16,1.8c-.67-.51-1.41-.91-2.24-1.22s-1.71-.46-2.64-.46c-1.25,0-2.28.31-3.08.92s-1.2,1.41-1.2,2.4c0,.83.25,1.46.76,1.9s1.17.79,1.98,1.04,1.67.49,2.58.72c.91.23,1.77.53,2.58.9s1.47.91,1.98,1.6c.51.69.76,1.64.76,2.84,0,1.07-.29,2.01-.88,2.84-.59.83-1.41,1.47-2.46,1.94s-2.26.7-3.62.7Z"/>
    <path class="cls-1" d="M303.07,64.69v-2.24h11.4v2.24h-11.4ZM311.64,81.57c-.64,0-1.26-.09-1.86-.28s-1.13-.48-1.6-.88c-.47-.4-.83-.9-1.1-1.5-.27-.6-.4-1.33-.4-2.18v-19.04h2.52v19.2c0,.72.24,1.31.72,1.78s1.05.7,1.72.7h2.84v2.2s-2.84,0-2.84,0Z"/>
    <path class="cls-1" d="M326.51,81.97c-1.87,0-3.52-.42-4.96-1.26-1.44-.84-2.56-2-3.36-3.48s-1.2-3.19-1.2-5.14v-.4c0-1.87.37-3.52,1.1-4.96s1.77-2.58,3.12-3.42c1.35-.84,2.89-1.26,4.62-1.26s3.32.44,4.6,1.32,2.23,2.12,2.84,3.72.79,3.47.52,5.6h-14.96v-2.12h13.6l-1.12,1.12c.19-1.52.07-2.83-.36-3.94s-1.08-1.96-1.96-2.56-1.92-.9-3.12-.9c-1.31,0-2.43.31-3.38.94-.95.63-1.68,1.49-2.2,2.6-.52,1.11-.78,2.39-.78,3.86v.4c0,1.47.29,2.77.88,3.9.59,1.13,1.41,2.02,2.48,2.66,1.07.64,2.32.96,3.76.96,1.01,0,1.94-.13,2.78-.4.84-.27,1.55-.65,2.14-1.16l1.44,1.64c-.72.72-1.64,1.28-2.76,1.68s-2.36.6-3.72.6h0Z"/>
    <path class="cls-1" d="M338.72,81.57v-19.12h2.48v4.56l-.4-.04c.24-1.23.63-2.17,1.18-2.82s1.21-1.11,2-1.36,1.65-.38,2.58-.38h1.64v2.52h-1.84c-1.57,0-2.81.4-3.72,1.2-.91.8-1.36,2.08-1.36,3.84v11.6h-2.56Z"/>
    <path class="cls-1" d="M2.4,121.57v-28h3.56l9.28,18.68h-1.2l9.24-18.68h3.56v28h-2.6v-26.24h.84l-9.36,19.2h-2.2l-9.32-19.2h.84v26.24s-2.64,0-2.64,0Z"/>
    <path class="cls-1" d="M39.2,121.97c-2.24,0-4.02-.51-5.34-1.54s-1.98-2.38-1.98-4.06c0-1.09.29-2.07.88-2.94s1.45-1.55,2.6-2.06c1.15-.51,2.52-.76,4.12-.76,2.21,0,3.93.49,5.14,1.48,1.21.99,1.82,2.29,1.82,3.92h-.48c0,1.87-.56,3.33-1.68,4.38-1.12,1.05-2.81,1.58-5.08,1.58ZM45.08,121.57l-.04-6.96-.28-.76v-4.68c0-1.65-.41-2.87-1.24-3.64s-2.03-1.16-3.6-1.16c-1.04,0-2.11.2-3.22.6s-2.07,1.01-2.9,1.84l-1.24-1.8c.91-.99,2.02-1.73,3.34-2.22s2.69-.74,4.1-.74,2.71.26,3.8.78,1.95,1.3,2.56,2.34c.61,1.04.92,2.36.92,3.96v6.08c0,1.07,0,2.13.02,3.18,0,1.05.05,2.11.1,3.18h-2.32,0ZM39.68,120.01c1.6,0,2.85-.34,3.74-1.02.89-.68,1.34-1.57,1.34-2.66s-.45-2.01-1.34-2.66-2.15-.98-3.78-.98-2.87.33-3.8.98-1.4,1.54-1.4,2.66.47,1.98,1.4,2.66,2.21,1.02,3.84,1.02Z"/>
    <path class="cls-1" d="M53.4,121.57v-19.12h2.44v5.12h-.68c.29-1.07.71-1.95,1.26-2.66.55-.71,1.17-1.27,1.86-1.7.69-.43,1.4-.73,2.12-.9.72-.17,1.4-.26,2.04-.26,2.16,0,3.92.69,5.28,2.06,1.36,1.37,2.04,3.47,2.04,6.3v11.16h-2.56v-10.84c0-2.24-.51-3.85-1.52-4.84-1.01-.99-2.29-1.48-3.84-1.48-1.07,0-2.04.24-2.92.72s-1.59,1.19-2.14,2.12-.82,2.11-.82,3.52v10.8h-2.56Z"/>
    <path class="cls-1" d="M81.64,121.97c-2.24,0-4.02-.51-5.34-1.54-1.32-1.03-1.98-2.38-1.98-4.06,0-1.09.29-2.07.88-2.94s1.45-1.55,2.6-2.06c1.15-.51,2.52-.76,4.12-.76,2.21,0,3.93.49,5.14,1.48,1.21.99,1.82,2.29,1.82,3.92h-.48c0,1.87-.56,3.33-1.68,4.38-1.12,1.05-2.81,1.58-5.08,1.58h0ZM87.52,121.57l-.04-6.96-.28-.76v-4.68c0-1.65-.41-2.87-1.24-3.64-.83-.77-2.03-1.16-3.6-1.16-1.04,0-2.11.2-3.22.6s-2.07,1.01-2.9,1.84l-1.24-1.8c.91-.99,2.02-1.73,3.34-2.22s2.69-.74,4.1-.74,2.71.26,3.8.78c1.09.52,1.95,1.3,2.56,2.34.61,1.04.92,2.36.92,3.96v6.08c0,1.07,0,2.13.02,3.18.01,1.05.05,2.11.1,3.18h-2.32,0ZM82.12,120.01c1.6,0,2.85-.34,3.74-1.02s1.34-1.57,1.34-2.66-.45-2.01-1.34-2.66-2.15-.98-3.78-.98-2.87.33-3.8.98-1.4,1.54-1.4,2.66.47,1.98,1.4,2.66,2.21,1.02,3.84,1.02Z"/>
    <path class="cls-1" d="M93.76,129.57v-2.16h11.32c1.04,0,1.86-.26,2.46-.78s.9-1.23.9-2.14c0-.85-.3-1.52-.9-2s-1.42-.72-2.46-.72h-6.08c-.99,0-1.73-.23-2.24-.7-.51-.47-.79-1.05-.84-1.74-.05-.69.09-1.37.44-2.04l1.72-3.44,2.2.6-1.6,3.08c-.13.29-.22.61-.26.94s.05.62.26.86.59.36,1.12.36h5.6c1.65,0,2.97.41,3.96,1.24.99.83,1.48,2.01,1.48,3.56,0,1.01-.23,1.9-.68,2.66s-1.09,1.35-1.92,1.78-1.81.64-2.96.64h-11.52ZM102.52,115.89c-1.55,0-2.93-.29-4.14-.88s-2.17-1.4-2.86-2.44-1.04-2.21-1.04-3.52v-.36c0-1.31.35-2.46,1.04-3.46s1.65-1.78,2.86-2.34,2.59-.84,4.14-.84,2.97.28,4.18.84,2.16,1.33,2.84,2.3c.68.97,1.02,2.1,1.02,3.38v.48c0,1.31-.34,2.48-1.02,3.52-.68,1.04-1.63,1.85-2.84,2.44-1.21.59-2.61.88-4.18.88ZM102.52,113.85c1.63,0,2.96-.45,4-1.36s1.56-2.05,1.56-3.44v-.36c0-1.33-.52-2.42-1.56-3.26-1.04-.84-2.37-1.26-4-1.26s-2.96.43-4,1.28-1.56,1.96-1.56,3.32v.28c0,1.39.52,2.53,1.56,3.44s2.37,1.36,4,1.36ZM102.84,103.73l2.84-5.8h2.56l-3.08,5.8s-2.32,0-2.32,0Z"/>
    <path class="cls-1" d="M123.56,121.97c-1.87,0-3.52-.42-4.96-1.26-1.44-.84-2.56-2-3.36-3.48s-1.2-3.19-1.2-5.14v-.4c0-1.87.37-3.52,1.1-4.96.73-1.44,1.77-2.58,3.12-3.42,1.35-.84,2.89-1.26,4.62-1.26s3.32.44,4.6,1.32c1.28.88,2.23,2.12,2.84,3.72s.79,3.47.52,5.6h-14.96v-2.12h13.6l-1.12,1.12c.19-1.52.07-2.83-.36-3.94-.43-1.11-1.08-1.96-1.96-2.56s-1.92-.9-3.12-.9c-1.31,0-2.43.31-3.38.94-.95.63-1.68,1.49-2.2,2.6s-.78,2.39-.78,3.86v.4c0,1.47.29,2.77.88,3.9.59,1.13,1.41,2.02,2.48,2.66,1.07.64,2.32.96,3.76.96,1.01,0,1.94-.13,2.78-.4.84-.27,1.55-.65,2.14-1.16l1.44,1.64c-.72.72-1.64,1.28-2.76,1.68-1.12.4-2.36.6-3.72.6h0Z"/>
    <path class="cls-1" d="M135.76,121.57v-19.12h2.44v4.92l-.6-.04c.4-1.33.97-2.38,1.72-3.14s1.58-1.31,2.5-1.64,1.82-.5,2.7-.5c1.68,0,3.1.44,4.26,1.32,1.16.88,1.94,2.24,2.34,4.08h-.92c.45-1.39,1.09-2.47,1.9-3.26s1.7-1.34,2.66-1.66,1.87-.48,2.72-.48c2.11,0,3.8.67,5.08,2.02s1.92,3.43,1.92,6.26v11.24h-2.48v-10.96c0-2.21-.47-3.8-1.4-4.76s-2.16-1.44-3.68-1.44-2.85.53-3.92,1.58c-1.07,1.05-1.6,2.58-1.6,4.58v11h-2.52v-10.96c0-2.21-.46-3.8-1.38-4.76s-2.14-1.44-3.66-1.44-2.89.53-3.96,1.58-1.6,2.58-1.6,4.58v11h-2.52,0Z"/>
    <path class="cls-1" d="M178.76,121.97c-1.87,0-3.52-.42-4.96-1.26-1.44-.84-2.56-2-3.36-3.48s-1.2-3.19-1.2-5.14v-.4c0-1.87.37-3.52,1.1-4.96.73-1.44,1.77-2.58,3.12-3.42,1.35-.84,2.89-1.26,4.62-1.26s3.32.44,4.6,1.32,2.23,2.12,2.84,3.72.79,3.47.52,5.6h-14.96v-2.12h13.6l-1.12,1.12c.19-1.52.07-2.83-.36-3.94-.43-1.11-1.08-1.96-1.96-2.56s-1.92-.9-3.12-.9c-1.31,0-2.43.31-3.38.94-.95.63-1.68,1.49-2.2,2.6s-.78,2.39-.78,3.86v.4c0,1.47.29,2.77.88,3.9.59,1.13,1.41,2.02,2.48,2.66,1.07.64,2.32.96,3.76.96,1.01,0,1.94-.13,2.78-.4.84-.27,1.55-.65,2.14-1.16l1.44,1.64c-.72.72-1.64,1.28-2.76,1.68s-2.36.6-3.72.6Z"/>
    <path class="cls-1" d="M190.96,121.57v-19.12h2.44v5.12h-.68c.29-1.07.71-1.95,1.26-2.66.55-.71,1.17-1.27,1.86-1.7s1.4-.73,2.12-.9,1.4-.26,2.04-.26c2.16,0,3.92.69,5.28,2.06,1.36,1.37,2.04,3.47,2.04,6.3v11.16h-2.56v-10.84c0-2.24-.51-3.85-1.52-4.84-1.01-.99-2.29-1.48-3.84-1.48-1.07,0-2.04.24-2.92.72s-1.59,1.19-2.14,2.12-.82,2.11-.82,3.52v10.8h-2.56,0Z"/>
    <path class="cls-1" d="M210.6,104.69v-2.24h11.4v2.24h-11.4ZM219.16,121.57c-.64,0-1.26-.09-1.86-.28s-1.13-.48-1.6-.88c-.47-.4-.83-.9-1.1-1.5s-.4-1.33-.4-2.18v-19.04h2.52v19.2c0,.72.24,1.31.72,1.78s1.05.7,1.72.7h2.84v2.2s-2.84,0-2.84,0Z"/>
  </g>
  <g id="Layer_1-2" data-name="Layer 1-2">
    <path class="cls-1" d="M87.44,14.07c-.58-.6-1.53-.6-2.11,0-.65.65-.57,1.77.23,2.31.49.33,1.15.33,1.64,0,.81-.54.89-1.66.23-2.31M85.5,8.98c-3.99-.94-7.58,2.65-6.64,6.65.47,2.03,2.09,3.65,4.12,4.12,3.99.94,7.58-2.65,6.65-6.65-.48-2.03-2.09-3.65-4.13-4.12M59.13,31.47c-2.6-.96-3.61-.77-6.94-.72-2.31.03-2.39-.05-5.02-.05-.81,0-1.11,3.9,1.83,4.71,1.29.36,2.68.58,3.65,1.57.43.44.67,1.1-.32,1.1h-7.3c-1.28,0-2.49.03-3.46-.8-1.48-1.25-2.16-2.96-2.9-4.66-.77-1.77-1.59-3.51-2.56-5.18-1.93-3.32-4.48-6.32-7.9-8.15-4.27-2.29-11.52-3.43-17.26.98-6.05,4.65-4.75,13.35.54,17.61,2.09,1.68,4.81,2.39,7.49,2.23,5.23-.31,9.09-4.16,8.13-8.91-.32-1.59-1.25-3.09-2.64-3.91-.99-.58-2.17-.79-3.32-.79-1.24,0-2.55.25-3.44,1.11-1.05,1.02-1.22,2.81-.38,4.02.47.66,1.22,1.22,1.09,2.09-.09.59-.57,1.02-1.15,1.15-.98.22-1.88-.34-2.54-1.02-1.7-1.75-2.24-4.54-1.3-6.8,1.22-2.95,4.63-4.58,7.82-4.47,4.12.14,8,2.86,9.69,6.62,1.69,3.76,1.18,8.38-1.14,11.78-5.17,7.56-17.95,6.67-23.89.29C2.19,37.27.16,33.39.45,26.16c.2-5.11,3.15-10.14,6.9-13.68C13.47,6.69,21.53,2.75,29.73,1.04,34.72,0,39.86-.23,44.92.28c4.46.44,8.9,1.26,13.18,2.59,2.13.66,4.22,1.45,6.25,2.38,1.79.82,4.13,1.71,5.52,3.13,0-2.56-.1-5.38-.1-7.34,0-.75.79-1.26,1.46-.94,2.9,1.35,9.77,4.59,14.36,6.69,6.14,2.81,6.58,9.43,6.79,15.3,0,.13.01.27-.05.38-.19.4-1.23.29-1.61.3-.73,0-1.84,0-2.58.03-1.47.07-2.9.04-4.36-.03-2.71-.13-5.33-1.34-7.09-2.81-.17-.15-.74-.31-1.01-.03-.28.29-.18.73-.03.89,1.01,1.02,2.1,1.67,3.37,2.33,1.61.83,3.37,1.04,5.16,1.14,1.91.11,3.83.09,5.74-.11,1.59-.16,2-.27.43.9-1.38,1.02-2.98,1.76-4.6,2.31-2.33.79-4.79,1.18-7.24,1.25-1.49.04-2.98-.04-4.45-.23-.76-.09-1.52-.23-2.29-.31-.62-.06-1.27-.18-1.89-.05-.56.12-1.08.43-1.44.89-.49.63-.65,2.37-.37,3.13.54,1.46,1.73,2.31,2.99,3.06,1.36.81,3.16,1.09,3.5,2.64.07.32-2.82.33-3.15.32h-3.85s-2.1.05-2.91-.25c-.03,0-.05-.02-.07-.03-.44-.24-.64-.83-.79-1.28-.22-.63-.59-1.27-1.05-1.93-.87-1.24-2.21-2.6-3.6-3.12M88.32,14.37c0,2.26-1.83,4.09-4.09,4.09s-4.09-1.83-4.09-4.09,1.83-4.09,4.09-4.09,4.09,1.83,4.09,4.09"/>
  </g>
</svg>