<?xml version="1.0" encoding="UTF-8"?>
<svg id="Layer_1" data-name="Layer 1" xmlns="http://www.w3.org/2000/svg" viewBox="0 0 661.71 42.4">
  <defs>
    <style>
      .cls-1 {
        fill: #42b177;
      }

      .cls-2 {
        fill: #f2f2f2;
      }
    </style>
  </defs>
  <g id="Layer_1-2" data-name="Layer 1">
    <path class="cls-1" d="M67.08,16.12c-.45-.46-1.18-.46-1.63,0-.5.5-.44,1.37.18,1.78.38.25.89.25,1.27,0,.62-.41.68-1.28.18-1.78M65.59,12.2c-3.08-.72-5.85,2.04-5.12,5.12.37,1.57,1.61,2.81,3.18,3.18,3.08.72,5.85-2.05,5.12-5.12-.37-1.57-1.61-2.81-3.18-3.18M45.26,29.54c-2.01-.74-2.78-.59-5.35-.56-1.78.02-1.84-.04-3.87-.04-.63,0-.86,3,1.41,3.63.99.27,2.07.45,2.81,1.21.33.34.52.85-.25.85h-5.63c-.99,0-1.92.02-2.67-.61-1.14-.96-1.67-2.28-2.24-3.6-.59-1.36-1.23-2.71-1.97-3.99-1.49-2.56-3.45-4.87-6.09-6.28-3.29-1.77-8.88-2.64-13.31.76-4.66,3.58-3.66,10.29.42,13.57,1.61,1.3,3.71,1.84,5.78,1.72,4.03-.24,7.01-3.21,6.27-6.87-.25-1.23-.96-2.38-2.04-3.02-.77-.45-1.67-.61-2.56-.61-.95,0-1.97.2-2.65.86-.81.78-.94,2.17-.29,3.1.36.51.94.94.84,1.61-.07.45-.44.79-.89.89-.76.17-1.45-.26-1.96-.79-1.31-1.35-1.72-3.5-1-5.24.94-2.28,3.57-3.53,6.03-3.45,3.18.11,6.17,2.2,7.47,5.1,1.3,2.9.91,6.46-.88,9.08-3.99,5.83-13.84,5.14-18.41.22C1.36,33.99-.2,31,.02,25.43c.15-3.94,2.43-7.82,5.32-10.55,4.72-4.45,10.93-7.49,17.26-8.8,3.84-.79,7.81-.98,11.71-.59,3.44.34,6.86.97,10.16,2,1.64.51,3.25,1.12,4.81,1.83,1.38.63,3.18,1.32,4.25,2.41,0-1.98-.08-4.15-.08-5.66,0-.58.61-.97,1.13-.72,2.24,1.04,7.53,3.54,11.07,5.16,4.74,2.16,5.07,7.27,5.24,11.79,0,.1,0,.21-.04.29-.15.31-.95.23-1.24.23-.57,0-1.42,0-1.99.03-1.13.05-2.23.03-3.36-.03-2.09-.1-4.11-1.03-5.47-2.17-.13-.11-.57-.24-.78-.02-.21.22-.14.57-.02.68.78.78,1.62,1.29,2.6,1.8,1.24.64,2.6.8,3.97.88,1.47.09,2.95.07,4.42-.09,1.23-.12,1.54-.21.33.69-1.06.79-2.3,1.36-3.55,1.78-1.79.61-3.69.91-5.58.96-1.15.03-2.29-.03-3.43-.18-.59-.07-1.17-.18-1.76-.24-.48-.05-.98-.14-1.45-.04-.43.09-.83.33-1.11.68-.37.49-.5,1.83-.29,2.41.42,1.13,1.34,1.78,2.3,2.36,1.05.62,2.43.84,2.7,2.03.06.25-2.18.26-2.43.25h-2.97s-1.62.04-2.24-.19c-.02,0-.04-.02-.06-.02-.34-.18-.49-.64-.61-.99-.17-.49-.46-.98-.81-1.48-.67-.96-1.7-2-2.78-2.4M67.76,16.35c0,1.74-1.41,3.15-3.15,3.15s-3.15-1.41-3.15-3.15,1.41-3.15,3.15-3.15,3.15,1.41,3.15,3.15"/>
  </g>
  <g>
    <path class="cls-2" d="M89.72,34.56c-2.08,0-3.89-.39-5.44-1.16-1.55-.77-2.87-1.8-3.96-3.08l3.04-3.04c1.09,1.12,2.16,1.92,3.2,2.4s2.15.72,3.32.72c1.57,0,2.81-.37,3.7-1.1.89-.73,1.34-1.69,1.34-2.86,0-.91-.25-1.65-.76-2.22-.51-.57-1.17-1.04-2-1.4-.83-.36-1.74-.68-2.74-.96-1-.28-1.99-.59-2.98-.94-.99-.35-1.89-.8-2.72-1.36-.83-.56-1.49-1.29-2-2.2-.51-.91-.76-2.04-.76-3.4,0-1.76.4-3.27,1.2-4.54.8-1.27,1.94-2.25,3.42-2.94,1.48-.69,3.19-1.04,5.14-1.04,1.81,0,3.45.32,4.9.96,1.45.64,2.65,1.49,3.58,2.56l-3.12,3.12c-.8-.83-1.63-1.45-2.48-1.86-.85-.41-1.83-.62-2.92-.62-1.47,0-2.64.35-3.52,1.06s-1.32,1.65-1.32,2.82c0,.85.25,1.55.76,2.08.51.53,1.18.95,2.02,1.26.84.31,1.76.59,2.76.84s2.01.55,3.02.9c1.01.35,1.93.8,2.76,1.36.83.56,1.49,1.31,2,2.24.51.93.76,2.12.76,3.56,0,1.79-.43,3.34-1.28,4.66-.85,1.32-2.05,2.35-3.58,3.08-1.53.73-3.31,1.1-5.34,1.1Z"/>
    <path class="cls-2" d="M115.08,34.56c-3.28,0-5.91-.85-7.88-2.54-1.97-1.69-2.96-4.26-2.96-7.7V6h4.92v17.92c0,2.03.53,3.55,1.6,4.56,1.07,1.01,2.51,1.52,4.32,1.52s3.26-.51,4.34-1.52c1.08-1.01,1.62-2.53,1.62-4.56V6h4.92v18.32c0,2.27-.45,4.16-1.36,5.68-.91,1.52-2.17,2.66-3.8,3.42-1.63.76-3.53,1.14-5.72,1.14Z"/>
    <path class="cls-2" d="M139.48,34.56c-2.08,0-3.89-.39-5.44-1.16-1.55-.77-2.87-1.8-3.96-3.08l3.04-3.04c1.09,1.12,2.16,1.92,3.2,2.4s2.15.72,3.32.72c1.57,0,2.81-.37,3.7-1.1.89-.73,1.34-1.69,1.34-2.86,0-.91-.25-1.65-.76-2.22-.51-.57-1.17-1.04-2-1.4-.83-.36-1.74-.68-2.74-.96-1-.28-1.99-.59-2.98-.94-.99-.35-1.89-.8-2.72-1.36-.83-.56-1.49-1.29-2-2.2-.51-.91-.76-2.04-.76-3.4,0-1.76.4-3.27,1.2-4.54.8-1.27,1.94-2.25,3.42-2.94,1.48-.69,3.19-1.04,5.14-1.04,1.81,0,3.45.32,4.9.96,1.45.64,2.65,1.49,3.58,2.56l-3.12,3.12c-.8-.83-1.63-1.45-2.48-1.86-.85-.41-1.83-.62-2.92-.62-1.47,0-2.64.35-3.52,1.06s-1.32,1.65-1.32,2.82c0,.85.25,1.55.76,2.08.51.53,1.18.95,2.02,1.26.84.31,1.76.59,2.76.84s2.01.55,3.02.9c1.01.35,1.93.8,2.76,1.36.83.56,1.49,1.31,2,2.24.51.93.76,2.12.76,3.56,0,1.79-.43,3.34-1.28,4.66-.85,1.32-2.05,2.35-3.58,3.08-1.53.73-3.31,1.1-5.34,1.1Z"/>
    <path class="cls-2" d="M158.64,34c-1.36,0-2.47-.44-3.34-1.32-.87-.88-1.3-2-1.3-3.36V10.68c0-1.36.43-2.48,1.3-3.36.87-.88,1.98-1.32,3.34-1.32h13.64v4.48h-12c-.4,0-.74.14-1.02.42s-.42.62-.42,1.02v16.16c0,.4.14.74.42,1.02s.62.42,1.02.42h12v4.48h-13.64ZM156.36,22.08v-4.28h15.08v4.28h-15.08Z"/>
    <path class="cls-2" d="M193.92,34l-10.52-28h2.84l9.56,25.88h-.88l9.56-25.88h2.84l-10.56,28h-2.84Z"/>
    <path class="cls-2" d="M211.92,34V16l1.16,1.12h-4.96v-2.24h6.36v19.12h-2.56ZM211.84,10.48v-4.32h2.72v4.32h-2.72Z"/>
    <path class="cls-2" d="M220.8,34V14.88h2.48v4.56l-.4-.04c.24-1.23.63-2.17,1.18-2.82.55-.65,1.21-1.11,2-1.36.79-.25,1.65-.38,2.58-.38h1.64v2.52h-1.84c-1.57,0-2.81.4-3.72,1.2-.91.8-1.36,2.08-1.36,3.84v11.6h-2.56Z"/>
    <path class="cls-2" d="M231.92,17.12v-2.24h11.4v2.24h-11.4ZM240.48,34c-.64,0-1.26-.09-1.86-.28s-1.13-.48-1.6-.88c-.47-.4-.83-.9-1.1-1.5-.27-.6-.4-1.33-.4-2.18V10.12h2.52v19.2c0,.72.24,1.31.72,1.78.48.47,1.05.7,1.72.7h2.84v2.2h-2.84Z"/>
    <path class="cls-2" d="M254.92,34.4c-1.41,0-2.68-.27-3.8-.82s-2-1.4-2.64-2.56c-.64-1.16-.96-2.69-.96-4.58v-11.56h2.52v11.16c0,1.49.23,2.68.7,3.56.47.88,1.1,1.51,1.9,1.88.8.37,1.71.56,2.72.56s2-.23,2.88-.7c.88-.47,1.59-1.17,2.14-2.1.55-.93.82-2.09.82-3.48v-10.88h2.48v19.12h-2.24v-5.12h.72c-.29,1.04-.71,1.91-1.24,2.62-.53.71-1.15,1.27-1.84,1.7-.69.43-1.4.73-2.12.92-.72.19-1.4.28-2.04.28Z"/>
    <path class="cls-2" d="M275.84,34.4c-2.24,0-4.02-.51-5.34-1.54-1.32-1.03-1.98-2.38-1.98-4.06,0-1.09.29-2.07.88-2.94.59-.87,1.45-1.55,2.6-2.06,1.15-.51,2.52-.76,4.12-.76,2.21,0,3.93.49,5.14,1.48,1.21.99,1.82,2.29,1.82,3.92h-.48c0,1.87-.56,3.33-1.68,4.38-1.12,1.05-2.81,1.58-5.08,1.58ZM281.72,34l-.04-6.96-.28-.76v-4.68c0-1.65-.41-2.87-1.24-3.64-.83-.77-2.03-1.16-3.6-1.16-1.04,0-2.11.2-3.22.6-1.11.4-2.07,1.01-2.9,1.84l-1.24-1.8c.91-.99,2.02-1.73,3.34-2.22,1.32-.49,2.69-.74,4.1-.74s2.71.26,3.8.78c1.09.52,1.95,1.3,2.56,2.34.61,1.04.92,2.36.92,3.96v6.08c0,1.07,0,2.13.02,3.18.01,1.05.05,2.11.1,3.18h-2.32ZM276.32,32.44c1.6,0,2.85-.34,3.74-1.02.89-.68,1.34-1.57,1.34-2.66s-.45-2.01-1.34-2.66c-.89-.65-2.15-.98-3.78-.98s-2.87.33-3.8.98c-.93.65-1.4,1.54-1.4,2.66s.47,1.98,1.4,2.66c.93.68,2.21,1.02,3.84,1.02Z"/>
    <path class="cls-2" d="M294.88,34c-1.44,0-2.61-.43-3.52-1.28-.91-.85-1.36-1.99-1.36-3.4V5.88l1.12,1.12h-4.8v-2.2h6.24v24.56c0,.69.23,1.27.68,1.74.45.47,1.04.7,1.76.7h1.72v2.2h-1.84Z"/>
    <path class="cls-2" d="M322.6,34.6c-1.97,0-3.82-.35-5.54-1.04-1.72-.69-3.23-1.67-4.52-2.94-1.29-1.27-2.3-2.77-3.02-4.5-.72-1.73-1.08-3.65-1.08-5.76v-.72c0-2.11.36-4.03,1.08-5.76.72-1.73,1.73-3.23,3.02-4.5,1.29-1.27,2.8-2.25,4.52-2.94,1.72-.69,3.57-1.04,5.54-1.04,1.68,0,3.25.25,4.7.74,1.45.49,2.74,1.18,3.86,2.06l-1.64,2.04c-1.92-1.49-4.23-2.24-6.92-2.24-1.6,0-3.09.28-4.48.84-1.39.56-2.61,1.36-3.66,2.4-1.05,1.04-1.87,2.27-2.44,3.68-.57,1.41-.86,2.99-.86,4.72v.72c0,1.73.29,3.31.86,4.72.57,1.41,1.39,2.64,2.44,3.68,1.05,1.04,2.27,1.84,3.66,2.4,1.39.56,2.88.84,4.48.84,2.75,0,5.07-.77,6.96-2.32l1.68,2.04c-1.12.91-2.42,1.61-3.9,2.12-1.48.51-3.06.76-4.74.76Z"/>
    <path class="cls-2" d="M340.56,34c-1.44,0-2.61-.43-3.52-1.28-.91-.85-1.36-1.99-1.36-3.4V5.88l1.12,1.12h-4.8v-2.2h6.24v24.56c0,.69.23,1.27.68,1.74.45.47,1.04.7,1.76.7h1.72v2.2h-1.84Z"/>
    <path class="cls-2" d="M352.99,34.4c-1.41,0-2.68-.27-3.8-.82s-2-1.4-2.64-2.56c-.64-1.16-.96-2.69-.96-4.58v-11.56h2.52v11.16c0,1.49.23,2.68.7,3.56.47.88,1.1,1.51,1.9,1.88.8.37,1.71.56,2.72.56s2-.23,2.88-.7c.88-.47,1.59-1.17,2.14-2.1.55-.93.82-2.09.82-3.48v-10.88h2.48v19.12h-2.24v-5.12h.72c-.29,1.04-.71,1.91-1.24,2.62-.53.71-1.15,1.27-1.84,1.7-.69.43-1.4.73-2.12.92-.72.19-1.4.28-2.04.28Z"/>
    <path class="cls-2" d="M373.16,34.36c-1.36,0-2.65-.21-3.86-.64-1.21-.43-2.19-1-2.94-1.72l1.16-1.76c.69.61,1.55,1.11,2.58,1.5,1.03.39,2.05.58,3.06.58,1.31,0,2.37-.31,3.2-.92.83-.61,1.24-1.43,1.24-2.44,0-.83-.26-1.47-.78-1.92-.52-.45-1.18-.8-1.98-1.04-.8-.24-1.65-.47-2.54-.7-.89-.23-1.74-.52-2.54-.88-.8-.36-1.45-.88-1.96-1.56-.51-.68-.76-1.61-.76-2.78,0-1.65.61-3,1.84-4.04,1.23-1.04,2.87-1.56,4.92-1.56,1.17,0,2.28.18,3.32.54s1.93.83,2.68,1.42l-1.16,1.8c-.67-.51-1.41-.91-2.24-1.22-.83-.31-1.71-.46-2.64-.46-1.25,0-2.28.31-3.08.92-.8.61-1.2,1.41-1.2,2.4,0,.83.25,1.46.76,1.9.51.44,1.17.79,1.98,1.04.81.25,1.67.49,2.58.72.91.23,1.77.53,2.58.9.81.37,1.47.91,1.98,1.6.51.69.76,1.64.76,2.84,0,1.07-.29,2.01-.88,2.84-.59.83-1.41,1.47-2.46,1.94-1.05.47-2.26.7-3.62.7Z"/>
    <path class="cls-2" d="M382.55,17.12v-2.24h11.4v2.24h-11.4ZM391.11,34c-.64,0-1.26-.09-1.86-.28s-1.13-.48-1.6-.88c-.47-.4-.83-.9-1.1-1.5-.27-.6-.4-1.33-.4-2.18V10.12h2.52v19.2c0,.72.24,1.31.72,1.78.48.47,1.05.7,1.72.7h2.84v2.2h-2.84Z"/>
    <path class="cls-2" d="M405.99,34.4c-1.87,0-3.52-.42-4.96-1.26-1.44-.84-2.56-2-3.36-3.48s-1.2-3.19-1.2-5.14v-.4c0-1.87.37-3.52,1.1-4.96.73-1.44,1.77-2.58,3.12-3.42,1.35-.84,2.89-1.26,4.62-1.26s3.32.44,4.6,1.32c1.28.88,2.23,2.12,2.84,3.72.61,1.6.79,3.47.52,5.6h-14.96v-2.12h13.6l-1.12,1.12c.19-1.52.07-2.83-.36-3.94-.43-1.11-1.08-1.96-1.96-2.56-.88-.6-1.92-.9-3.12-.9-1.31,0-2.43.31-3.38.94-.95.63-1.68,1.49-2.2,2.6-.52,1.11-.78,2.39-.78,3.86v.4c0,1.47.29,2.77.88,3.9.59,1.13,1.41,2.02,2.48,2.66,1.07.64,2.32.96,3.76.96,1.01,0,1.94-.13,2.78-.4.84-.27,1.55-.65,2.14-1.16l1.44,1.64c-.72.72-1.64,1.28-2.76,1.68-1.12.4-2.36.6-3.72.6Z"/>
    <path class="cls-2" d="M418.19,34V14.88h2.48v4.56l-.4-.04c.24-1.23.63-2.17,1.18-2.82.55-.65,1.21-1.11,2-1.36.79-.25,1.65-.38,2.58-.38h1.64v2.52h-1.84c-1.57,0-2.81.4-3.72,1.2-.91.8-1.36,2.08-1.36,3.84v11.6h-2.56Z"/>
    <path class="cls-2" d="M440.79,34V6h3.56l9.28,18.68h-1.2l9.24-18.68h3.56v28h-2.6V7.76h.84l-9.36,19.2h-2.2l-9.32-19.2h.84v26.24h-2.64Z"/>
    <path class="cls-2" d="M477.59,34.4c-2.24,0-4.02-.51-5.34-1.54-1.32-1.03-1.98-2.38-1.98-4.06,0-1.09.29-2.07.88-2.94.59-.87,1.45-1.55,2.6-2.06,1.15-.51,2.52-.76,4.12-.76,2.21,0,3.93.49,5.14,1.48,1.21.99,1.82,2.29,1.82,3.92h-.48c0,1.87-.56,3.33-1.68,4.38-1.12,1.05-2.81,1.58-5.08,1.58ZM483.47,34l-.04-6.96-.28-.76v-4.68c0-1.65-.41-2.87-1.24-3.64-.83-.77-2.03-1.16-3.6-1.16-1.04,0-2.11.2-3.22.6-1.11.4-2.07,1.01-2.9,1.84l-1.24-1.8c.91-.99,2.02-1.73,3.34-2.22,1.32-.49,2.69-.74,4.1-.74s2.71.26,3.8.78c1.09.52,1.95,1.3,2.56,2.34.61,1.04.92,2.36.92,3.96v6.08c0,1.07,0,2.13.02,3.18.01,1.05.05,2.11.1,3.18h-2.32ZM478.07,32.44c1.6,0,2.85-.34,3.74-1.02.89-.68,1.34-1.57,1.34-2.66s-.45-2.01-1.34-2.66c-.89-.65-2.15-.98-3.78-.98s-2.87.33-3.8.98c-.93.65-1.4,1.54-1.4,2.66s.47,1.98,1.4,2.66c.93.68,2.21,1.02,3.84,1.02Z"/>
    <path class="cls-2" d="M491.79,34V14.88h2.44v5.12h-.68c.29-1.07.71-1.95,1.26-2.66.55-.71,1.17-1.27,1.86-1.7.69-.43,1.4-.73,2.12-.9.72-.17,1.4-.26,2.04-.26,2.16,0,3.92.69,5.28,2.06,1.36,1.37,2.04,3.47,2.04,6.3v11.16h-2.56v-10.84c0-2.24-.51-3.85-1.52-4.84-1.01-.99-2.29-1.48-3.84-1.48-1.07,0-2.04.24-2.92.72-.88.48-1.59,1.19-2.14,2.12-.55.93-.82,2.11-.82,3.52v10.8h-2.56Z"/>
    <path class="cls-2" d="M520.03,34.4c-2.24,0-4.02-.51-5.34-1.54-1.32-1.03-1.98-2.38-1.98-4.06,0-1.09.29-2.07.88-2.94.59-.87,1.45-1.55,2.6-2.06,1.15-.51,2.52-.76,4.12-.76,2.21,0,3.93.49,5.14,1.48,1.21.99,1.82,2.29,1.82,3.92h-.48c0,1.87-.56,3.33-1.68,4.38-1.12,1.05-2.81,1.58-5.08,1.58ZM525.91,34l-.04-6.96-.28-.76v-4.68c0-1.65-.41-2.87-1.24-3.64-.83-.77-2.03-1.16-3.6-1.16-1.04,0-2.11.2-3.22.6-1.11.4-2.07,1.01-2.9,1.84l-1.24-1.8c.91-.99,2.02-1.73,3.34-2.22,1.32-.49,2.69-.74,4.1-.74s2.71.26,3.8.78c1.09.52,1.95,1.3,2.56,2.34.61,1.04.92,2.36.92,3.96v6.08c0,1.07,0,2.13.02,3.18.01,1.05.05,2.11.1,3.18h-2.32ZM520.51,32.44c1.6,0,2.85-.34,3.74-1.02.89-.68,1.34-1.57,1.34-2.66s-.45-2.01-1.34-2.66c-.89-.65-2.15-.98-3.78-.98s-2.87.33-3.8.98c-.93.65-1.4,1.54-1.4,2.66s.47,1.98,1.4,2.66c.93.68,2.21,1.02,3.84,1.02Z"/>
    <path class="cls-2" d="M532.15,42v-2.16h11.32c1.04,0,1.86-.26,2.46-.78s.9-1.23.9-2.14c0-.85-.3-1.52-.9-2s-1.42-.72-2.46-.72h-6.08c-.99,0-1.73-.23-2.24-.7-.51-.47-.79-1.05-.84-1.74-.05-.69.09-1.37.44-2.04l1.72-3.44,2.2.6-1.6,3.08c-.13.29-.22.61-.26.94-.04.33.05.62.26.86.21.24.59.36,1.12.36h5.6c1.65,0,2.97.41,3.96,1.24.99.83,1.48,2.01,1.48,3.56,0,1.01-.23,1.9-.68,2.66-.45.76-1.09,1.35-1.92,1.78-.83.43-1.81.64-2.96.64h-11.52ZM540.91,28.32c-1.55,0-2.93-.29-4.14-.88-1.21-.59-2.17-1.4-2.86-2.44s-1.04-2.21-1.04-3.52v-.36c0-1.31.35-2.46,1.04-3.46s1.65-1.78,2.86-2.34c1.21-.56,2.59-.84,4.14-.84s2.97.28,4.18.84c1.21.56,2.16,1.33,2.84,2.3.68.97,1.02,2.1,1.02,3.38v.48c0,1.31-.34,2.48-1.02,3.52-.68,1.04-1.63,1.85-2.84,2.44-1.21.59-2.61.88-4.18.88ZM540.91,26.28c1.63,0,2.96-.45,4-1.36,1.04-.91,1.56-2.05,1.56-3.44v-.36c0-1.33-.52-2.42-1.56-3.26-1.04-.84-2.37-1.26-4-1.26s-2.96.43-4,1.28c-1.04.85-1.56,1.96-1.56,3.32v.28c0,1.39.52,2.53,1.56,3.44,1.04.91,2.37,1.36,4,1.36ZM541.23,16.16l2.84-5.8h2.56l-3.08,5.8h-2.32Z"/>
    <path class="cls-2" d="M561.95,34.4c-1.87,0-3.52-.42-4.96-1.26-1.44-.84-2.56-2-3.36-3.48s-1.2-3.19-1.2-5.14v-.4c0-1.87.37-3.52,1.1-4.96.73-1.44,1.77-2.58,3.12-3.42,1.35-.84,2.89-1.26,4.62-1.26s3.32.44,4.6,1.32c1.28.88,2.23,2.12,2.84,3.72.61,1.6.79,3.47.52,5.6h-14.96v-2.12h13.6l-1.12,1.12c.19-1.52.07-2.83-.36-3.94-.43-1.11-1.08-1.96-1.96-2.56-.88-.6-1.92-.9-3.12-.9-1.31,0-2.43.31-3.38.94-.95.63-1.68,1.49-2.2,2.6-.52,1.11-.78,2.39-.78,3.86v.4c0,1.47.29,2.77.88,3.9.59,1.13,1.41,2.02,2.48,2.66,1.07.64,2.32.96,3.76.96,1.01,0,1.94-.13,2.78-.4.84-.27,1.55-.65,2.14-1.16l1.44,1.64c-.72.72-1.64,1.28-2.76,1.68-1.12.4-2.36.6-3.72.6Z"/>
    <path class="cls-2" d="M574.15,34V14.88h2.44v4.92l-.6-.04c.4-1.33.97-2.38,1.72-3.14.75-.76,1.58-1.31,2.5-1.64.92-.33,1.82-.5,2.7-.5,1.68,0,3.1.44,4.26,1.32,1.16.88,1.94,2.24,2.34,4.08h-.92c.45-1.39,1.09-2.47,1.9-3.26.81-.79,1.7-1.34,2.66-1.66s1.87-.48,2.72-.48c2.11,0,3.8.67,5.08,2.02,1.28,1.35,1.92,3.43,1.92,6.26v11.24h-2.48v-10.96c0-2.21-.47-3.8-1.4-4.76-.93-.96-2.16-1.44-3.68-1.44s-2.85.53-3.92,1.58c-1.07,1.05-1.6,2.58-1.6,4.58v11h-2.52v-10.96c0-2.21-.46-3.8-1.38-4.76-.92-.96-2.14-1.44-3.66-1.44s-2.89.53-3.96,1.58c-1.07,1.05-1.6,2.58-1.6,4.58v11h-2.52Z"/>
    <path class="cls-2" d="M617.15,34.4c-1.87,0-3.52-.42-4.96-1.26-1.44-.84-2.56-2-3.36-3.48s-1.2-3.19-1.2-5.14v-.4c0-1.87.37-3.52,1.1-4.96.73-1.44,1.77-2.58,3.12-3.42,1.35-.84,2.89-1.26,4.62-1.26s3.32.44,4.6,1.32c1.28.88,2.23,2.12,2.84,3.72.61,1.6.79,3.47.52,5.6h-14.96v-2.12h13.6l-1.12,1.12c.19-1.52.07-2.83-.36-3.94-.43-1.11-1.08-1.96-1.96-2.56-.88-.6-1.92-.9-3.12-.9-1.31,0-2.43.31-3.38.94-.95.63-1.68,1.49-2.2,2.6-.52,1.11-.78,2.39-.78,3.86v.4c0,1.47.29,2.77.88,3.9.59,1.13,1.41,2.02,2.48,2.66,1.07.64,2.32.96,3.76.96,1.01,0,1.94-.13,2.78-.4.84-.27,1.55-.65,2.14-1.16l1.44,1.64c-.72.72-1.64,1.28-2.76,1.68-1.12.4-2.36.6-3.72.6Z"/>
    <path class="cls-2" d="M629.35,34V14.88h2.44v5.12h-.68c.29-1.07.71-1.95,1.26-2.66.55-.71,1.17-1.27,1.86-1.7.69-.43,1.4-.73,2.12-.9.72-.17,1.4-.26,2.04-.26,2.16,0,3.92.69,5.28,2.06,1.36,1.37,2.04,3.47,2.04,6.3v11.16h-2.56v-10.84c0-2.24-.51-3.85-1.52-4.84-1.01-.99-2.29-1.48-3.84-1.48-1.07,0-2.04.24-2.92.72-.88.48-1.59,1.19-2.14,2.12-.55.93-.82,2.11-.82,3.52v10.8h-2.56Z"/>
    <path class="cls-2" d="M648.99,17.12v-2.24h11.4v2.24h-11.4ZM657.55,34c-.64,0-1.26-.09-1.86-.28s-1.13-.48-1.6-.88c-.47-.4-.83-.9-1.1-1.5-.27-.6-.4-1.33-.4-2.18V10.12h2.52v19.2c0,.72.24,1.31.72,1.78.48.47,1.05.7,1.72.7h2.84v2.2h-2.84Z"/>
  </g>
</svg>