<?xml version="1.0" encoding="UTF-8"?>
<svg xmlns="http://www.w3.org/2000/svg" viewBox="0 0 369.039 111.987">
  <g id="Text">
    <g>
      <path d="M99.137,53.613c-2.08,0-3.894-.387-5.439-1.159-1.547-.773-2.867-1.801-3.96-3.08l3.04-3.04c1.093,1.12,2.16,1.92,3.2,2.399,1.039.48,2.146.721,3.319.721,1.573,0,2.807-.366,3.7-1.101.893-.733,1.339-1.687,1.339-2.859,0-.906-.254-1.646-.76-2.221-.506-.573-1.173-1.04-2-1.399-.827-.36-1.74-.681-2.74-.96-1-.28-1.993-.594-2.979-.94-.987-.346-1.895-.8-2.721-1.36-.826-.56-1.493-1.293-2-2.199s-.76-2.04-.76-3.4c0-1.76.4-3.273,1.2-4.54s1.939-2.246,3.42-2.939,3.193-1.04,5.14-1.04c1.813,0,3.446.319,4.9.96,1.453.64,2.646,1.493,3.58,2.56l-3.12,3.12c-.8-.826-1.627-1.446-2.48-1.86-.854-.413-1.826-.62-2.92-.62-1.467,0-2.64.354-3.52,1.061-.88.707-1.32,1.646-1.32,2.82,0,.854.253,1.547.76,2.079.507.534,1.181.954,2.021,1.261s1.76.587,2.76.84c1,.254,2.007.554,3.02.899,1.013.348,1.933.801,2.76,1.36.826.561,1.493,1.307,2,2.24.506.934.76,2.12.76,3.56,0,1.787-.427,3.34-1.28,4.66s-2.047,2.347-3.579,3.08c-1.534.733-3.314,1.1-5.34,1.1Z" style="fill: #f2f2f2;"/>
      <path d="M124.497,53.613c-3.279,0-5.906-.846-7.88-2.54-1.974-1.692-2.96-4.26-2.96-7.699v-18.32h4.92v17.92c0,2.027.533,3.547,1.601,4.561,1.065,1.014,2.506,1.52,4.319,1.52s3.26-.506,4.34-1.52,1.62-2.533,1.62-4.561v-17.92h4.92v18.32c0,2.267-.453,4.16-1.359,5.68-.907,1.52-2.174,2.66-3.8,3.42-1.627.76-3.534,1.14-5.721,1.14Z" style="fill: #f2f2f2;"/>
      <path d="M148.896,53.613c-2.08,0-3.894-.387-5.439-1.159-1.547-.773-2.867-1.801-3.96-3.08l3.04-3.04c1.093,1.12,2.16,1.92,3.2,2.399,1.039.48,2.146.721,3.319.721,1.573,0,2.807-.366,3.7-1.101.894-.733,1.34-1.687,1.34-2.859,0-.906-.254-1.646-.76-2.221-.507-.573-1.174-1.04-2-1.399-.827-.36-1.74-.681-2.74-.96-1-.28-1.993-.594-2.979-.94-.987-.346-1.895-.8-2.721-1.36-.826-.56-1.493-1.293-2-2.199s-.76-2.04-.76-3.4c0-1.76.4-3.273,1.2-4.54s1.939-2.246,3.42-2.939,3.193-1.04,5.14-1.04c1.813,0,3.446.319,4.9.96,1.453.64,2.646,1.493,3.58,2.56l-3.12,3.12c-.8-.826-1.627-1.446-2.48-1.86-.854-.413-1.826-.62-2.92-.62-1.467,0-2.64.354-3.52,1.061-.88.707-1.32,1.646-1.32,2.82,0,.854.253,1.547.76,2.079.507.534,1.181.954,2.021,1.261s1.76.587,2.76.84c1,.254,2.007.554,3.021.899,1.013.348,1.933.801,2.76,1.36.826.561,1.493,1.307,2,2.24.506.934.76,2.12.76,3.56,0,1.787-.427,3.34-1.28,4.66s-2.047,2.347-3.579,3.08c-1.534.733-3.314,1.1-5.341,1.1Z" style="fill: #f2f2f2;"/>
      <path d="M168.055,53.053c-1.359,0-2.474-.44-3.34-1.32s-1.3-2-1.3-3.359v-18.641c0-1.359.434-2.479,1.3-3.359s1.98-1.32,3.34-1.32h13.641v4.48h-12c-.4,0-.74.14-1.021.42s-.42.619-.42,1.02v16.16c0,.4.141.74.42,1.02s.62.42,1.021.42h12v4.48h-13.641ZM165.776,41.134v-4.28h15.08v4.28h-15.08Z" style="fill: #f2f2f2;"/>
      <path d="M200.295,53.053c-1.279,0-2.34-.42-3.18-1.26s-1.26-1.9-1.26-3.181v-19.119c0-1.28.42-2.341,1.26-3.181s1.9-1.26,3.18-1.26h12.92v3.12h-11.84c-.613,0-1.127.207-1.54.62s-.62.913-.62,1.5v17.52c0,.587.207,1.087.62,1.5.413.414.927.62,1.54.62h11.84v3.12h-12.92ZM197.575,40.534v-3h14.8v3h-14.8Z" style="fill: #f2f2f2;"/>
      <path d="M215.935,53.053l6.841-9.6-6.641-9.641h3.8l5,7.601,5-7.601h3.721l-6.641,9.641,6.761,9.6h-3.841l-5.119-7.48-5.08,7.48h-3.801Z" style="fill: #f2f2f2;"/>
      <path d="M245.216,53.454c-1.894,0-3.579-.413-5.06-1.24-1.48-.826-2.646-1.98-3.5-3.46-.854-1.48-1.28-3.181-1.28-5.101v-.479c0-1.92.427-3.613,1.28-5.08.854-1.466,2.02-2.613,3.5-3.44,1.48-.826,3.166-1.239,5.06-1.239,1.413,0,2.7.253,3.86.76s2.14,1.24,2.94,2.2l-2,2c-.614-.641-1.32-1.127-2.12-1.46s-1.694-.5-2.681-.5c-1.253,0-2.387.279-3.399.84-1.014.56-1.807,1.347-2.38,2.359-.574,1.015-.86,2.2-.86,3.561v.479c0,1.36.293,2.547.88,3.561s1.38,1.807,2.38,2.38,2.141.86,3.42.86c.96,0,1.847-.153,2.66-.46s1.54-.794,2.181-1.46l1.96,1.96c-.774.934-1.754,1.659-2.94,2.18-1.187.52-2.487.78-3.9.78Z" style="fill: #f2f2f2;"/>
      <path d="M256.176,53.053v-29.2h3.12v15.16h-.88c.293-1.093.713-2,1.26-2.72.546-.721,1.16-1.293,1.84-1.721.68-.426,1.38-.726,2.101-.899.72-.173,1.399-.26,2.04-.26,2.159,0,3.913.693,5.26,2.08,1.346,1.387,2.02,3.467,2.02,6.239v11.32h-3.24v-10.84c0-2.054-.46-3.54-1.38-4.46s-2.087-1.38-3.5-1.38c-.986,0-1.887.227-2.699.68-.814.454-1.468,1.113-1.96,1.98-.494.866-.74,1.939-.74,3.22v10.8h-3.24Z" style="fill: #f2f2f2;"/>
      <path d="M284.615,53.454c-2.267,0-4.066-.521-5.4-1.561-1.333-1.04-2-2.413-2-4.12,0-1.093.301-2.093.9-3,.6-.906,1.48-1.626,2.64-2.16,1.16-.532,2.566-.8,4.221-.8,2.213,0,3.933.5,5.16,1.5,1.226,1,1.84,2.327,1.84,3.98h-.641c0,1.974-.56,3.493-1.68,4.56-1.12,1.067-2.8,1.601-5.04,1.601ZM290.295,53.053v-7.28l-.399-1.08v-4.08c0-1.439-.374-2.513-1.12-3.22-.747-.706-1.867-1.06-3.36-1.06-.986,0-2.026.2-3.12.6-1.094.4-2.066.987-2.92,1.76l-1.52-2.279c.933-.96,2.08-1.7,3.439-2.221,1.36-.52,2.773-.779,4.24-.779,1.493,0,2.807.267,3.94.8,1.133.533,2.02,1.327,2.66,2.38.64,1.054.96,2.38.96,3.979v6.16c0,1.067.006,2.12.02,3.16.013,1.04.046,2.094.1,3.16h-2.92ZM285.215,51.013c1.44,0,2.58-.3,3.421-.9.84-.6,1.26-1.406,1.26-2.42s-.414-1.812-1.24-2.399c-.827-.587-1.974-.88-3.44-.88s-2.626.293-3.479.88-1.28,1.387-1.28,2.399.434,1.82,1.3,2.42c.866.601,2.021.9,3.46.9Z" style="fill: #f2f2f2;"/>
      <path d="M298.895,53.053v-19.24h3.12v5.2h-.88c.293-1.093.713-2,1.26-2.72.546-.721,1.16-1.293,1.84-1.721.68-.426,1.38-.726,2.101-.899.72-.173,1.399-.26,2.04-.26,2.159,0,3.913.693,5.26,2.08,1.346,1.387,2.02,3.467,2.02,6.239v11.32h-3.24v-10.84c0-2.054-.46-3.54-1.38-4.46s-2.087-1.38-3.5-1.38c-.986,0-1.887.227-2.699.68-.814.454-1.468,1.113-1.96,1.98-.494.866-.74,1.939-.74,3.22v10.8h-3.24Z" style="fill: #f2f2f2;"/>
      <path d="M319.495,61.053v-2.72h11.479c.906,0,1.613-.221,2.12-.66.507-.44.761-1.061.761-1.86,0-.747-.254-1.326-.761-1.74-.507-.413-1.214-.619-2.12-.619h-6.319c-.987,0-1.747-.24-2.28-.721-.534-.479-.834-1.08-.9-1.8s.087-1.439.46-2.16l1.801-3.6,2.76.72-1.64,3.2c-.107.24-.181.5-.221.78-.04.279.033.514.221.699.186.188.492.28.92.28h5.64c1.653,0,2.979.42,3.979,1.26,1,.841,1.5,2.087,1.5,3.74,0,1.014-.233,1.913-.699,2.7-.467.786-1.12,1.4-1.96,1.84-.841.44-1.834.66-2.98.66h-11.76ZM328.295,47.494c-1.6,0-3.02-.301-4.26-.9s-2.214-1.427-2.92-2.48c-.707-1.053-1.061-2.246-1.061-3.579v-.36c0-1.333.354-2.507,1.061-3.521.706-1.013,1.68-1.806,2.92-2.38,1.24-.573,2.66-.859,4.26-.859s3.021.286,4.26.859c1.24.574,2.214,1.36,2.92,2.36.707,1,1.061,2.153,1.061,3.46v.44c0,1.333-.354,2.526-1.061,3.579-.706,1.054-1.68,1.881-2.92,2.48-1.239.6-2.66.9-4.26.9ZM328.295,44.973c1.493,0,2.713-.42,3.66-1.26.946-.84,1.42-1.9,1.42-3.18v-.32c0-1.227-.474-2.227-1.42-3-.947-.773-2.167-1.16-3.66-1.16s-2.714.394-3.66,1.18c-.946.787-1.42,1.808-1.42,3.061v.24c0,1.279.474,2.34,1.42,3.18.946.84,2.166,1.26,3.66,1.26ZM328.175,35.494l2.96-6.08h3.24l-3.28,6.08h-2.92Z" style="fill: #f2f2f2;"/>
      <path d="M349.455,53.454c-1.895,0-3.567-.42-5.021-1.261-1.453-.84-2.587-2.006-3.399-3.5-.814-1.493-1.221-3.213-1.221-5.159v-.4c0-1.866.373-3.526,1.12-4.98.746-1.453,1.8-2.605,3.16-3.46,1.36-.853,2.934-1.279,4.72-1.279,1.84,0,3.413.453,4.721,1.359,1.306.907,2.272,2.188,2.899,3.84.626,1.654.807,3.587.54,5.801h-14.84v-2.641h13.12l-1.44,1.4c.187-1.467.087-2.713-.3-3.74-.387-1.026-.979-1.82-1.78-2.38-.8-.56-1.76-.84-2.88-.84-1.227,0-2.273.294-3.14.88-.867.587-1.534,1.394-2,2.42-.467,1.027-.7,2.233-.7,3.62v.4c0,1.333.267,2.526.8,3.579.533,1.054,1.293,1.881,2.28,2.48.986.6,2.16.9,3.52.9,1.014,0,1.906-.127,2.681-.381.772-.253,1.453-.633,2.04-1.14l1.84,2c-.747.8-1.7,1.414-2.86,1.84-1.16.427-2.446.641-3.859.641Z" style="fill: #f2f2f2;"/>
    </g>
    <g id="Layer_1" data-name="Layer 1">
      <path d="M76.975,35.276c-.443-.46-1.175-.46-1.619,0-.499.498-.44,1.357.18,1.768.379.252.884.251,1.261,0,.618-.41.679-1.27.179-1.769M75.495,31.38c-3.062-.717-5.812,2.032-5.092,5.093.364,1.559,1.603,2.796,3.162,3.162,3.062.72,5.813-2.034,5.093-5.095-.367-1.559-1.605-2.795-3.162-3.16M55.282,48.616c-1.995-.738-2.766-.59-5.317-.556-1.768.023-1.832-.036-3.85-.036-.624,0-.854,2.987,1.402,3.607.987.273,2.054.444,2.796,1.204.33.335.515.841-.246.841h-5.599c-.981,0-1.906.024-2.654-.611-1.131-.955-1.659-2.27-2.225-3.575-.586-1.357-1.22-2.692-1.964-3.97-1.48-2.542-3.434-4.842-6.057-6.247-3.274-1.757-8.832-2.626-13.233.751-4.637,3.562-3.643,10.232.413,13.495,1.602,1.289,3.69,1.829,5.743,1.708,4.011-.234,6.969-3.19,6.235-6.828-.244-1.219-.956-2.371-2.025-2.998-.761-.445-1.663-.604-2.545-.606-.947-.002-1.954.194-2.636.853-.806.78-.936,2.157-.293,3.078.357.508.938.938.839,1.601-.067.449-.437.783-.88.88-.752.168-1.441-.259-1.948-.783-1.305-1.344-1.714-3.481-.996-5.21.938-2.265,3.548-3.509,5.997-3.429,3.157.106,6.135,2.189,7.428,5.071,1.296,2.884.907,6.422-.876,9.032-3.966,5.795-13.759,5.11-18.307.223-2.853-3.066-4.405-6.042-4.187-11.581.153-3.916,2.412-7.772,5.292-10.485,4.692-4.422,10.872-7.446,17.16-8.751,3.82-.788,7.763-.973,11.638-.586,3.419.34,6.818.967,10.104,1.984,1.631.508,3.234,1.111,4.787,1.824,1.369.628,3.163,1.314,4.229,2.399,0-1.964-.077-4.125-.077-5.628,0-.574.603-.962,1.12-.717,2.224,1.033,7.491,3.521,11.004,5.128,4.708,2.15,5.04,7.226,5.205,11.725.004.1.008.204-.036.293-.149.309-.943.226-1.233.229-.562.006-1.413.002-1.975.026-1.124.05-2.219.029-3.342-.026-2.079-.102-4.087-1.027-5.435-2.155-.132-.112-.568-.236-.772-.023-.213.219-.139.562-.024.68.771.779,1.607,1.282,2.581,1.785,1.237.634,2.584.795,3.951.875,1.464.087,2.938.065,4.4-.085,1.219-.124,1.534-.208.331.686-1.057.785-2.284,1.35-3.528,1.769-1.784.606-3.668.907-5.548.959-1.14.031-2.28-.029-3.411-.175-.585-.073-1.165-.18-1.753-.239-.476-.048-.971-.137-1.446-.035-.431.094-.829.328-1.101.679-.372.485-.501,1.819-.285,2.398.416,1.119,1.329,1.771,2.292,2.345,1.045.621,2.418.832,2.685,2.02.056.247-2.164.254-2.416.249h-2.955s-1.606.039-2.231-.188c-.021-.006-.036-.016-.057-.024-.34-.184-.489-.639-.602-.983-.165-.487-.455-.972-.806-1.476-.668-.951-1.693-1.993-2.76-2.389M77.653,35.505c0,1.732-1.4,3.135-3.133,3.135s-3.132-1.402-3.132-3.135,1.401-3.132,3.132-3.132,3.133,1.402,3.133,3.132" style="fill: #30ba78;"/>
    </g>
  </g>
  <g id="Location">
    <g>
      <path d="M89.365,87.053v-1.652l12.208-16.884.28.616h-12.181v-1.68h13.805v1.596l-12.236,16.912-.308-.588h12.571v1.68h-14.14Z" style="fill: #f2f2f2;"/>
      <path d="M110.813,87.334c-.989,0-1.876-.192-2.66-.574-.784-.383-1.399-.98-1.848-1.792-.448-.812-.672-1.881-.672-3.206v-8.092h1.764v7.812c0,1.046.163,1.876.49,2.492.326.616.77,1.055,1.33,1.316.56.262,1.194.392,1.903.392.729,0,1.4-.163,2.017-.49.616-.326,1.115-.816,1.498-1.47.382-.653.573-1.465.573-2.436v-7.616h1.736v13.384h-1.568v-3.584h.505c-.206.728-.495,1.34-.868,1.834-.374.495-.803.892-1.288,1.19s-.98.514-1.484.644c-.504.131-.979.196-1.428.196Z" style="fill: #f2f2f2;"/>
      <path d="M121.369,87.053v-13.384h1.736v3.191l-.28-.027c.168-.858.443-1.517.826-1.975.383-.457.85-.774,1.4-.952.55-.177,1.152-.266,1.806-.266h1.148v1.764h-1.288c-1.102,0-1.97.28-2.604.841-.635.56-.952,1.456-.952,2.688v8.12h-1.792Z" style="fill: #f2f2f2;"/>
      <path d="M131.842,87.053v-12.6l.812.783h-3.472v-1.567h4.452v13.384h-1.792ZM131.785,70.59v-3.024h1.904v3.024h-1.904Z" style="fill: #f2f2f2;"/>
      <path d="M143.936,87.334c-1.325,0-2.496-.289-3.514-.868-1.018-.578-1.82-1.381-2.408-2.408-.588-1.026-.882-2.202-.882-3.528v-.363c0-1.325.294-2.497.882-3.515.588-1.017,1.391-1.814,2.408-2.394,1.018-.578,2.188-.868,3.514-.868.971,0,1.849.168,2.633.504.783.336,1.456.822,2.016,1.456l-1.12,1.12c-.448-.448-.966-.798-1.554-1.05s-1.256-.378-2.002-.378c-.952,0-1.811.215-2.576.644-.766.43-1.363,1.032-1.792,1.807-.43.774-.645,1.665-.645,2.674v.363c0,1.027.22,1.923.658,2.688s1.036,1.367,1.792,1.806c.756.439,1.619.658,2.59.658.729,0,1.391-.116,1.988-.35s1.129-.593,1.596-1.078l1.093,1.12c-.561.615-1.237,1.097-2.03,1.441-.794.346-1.676.519-2.646.519Z" style="fill: #f2f2f2;"/>
      <path d="M151.693,87.053v-20.44h1.708v10.641h-.477c.206-.746.5-1.367.883-1.862.382-.494.816-.891,1.302-1.189s.979-.509,1.483-.631c.505-.121.98-.182,1.429-.182,1.512,0,2.744.48,3.695,1.442.952.961,1.429,2.432,1.429,4.41v7.812h-1.792v-7.588c0-1.568-.355-2.697-1.064-3.388-.71-.69-1.605-1.036-2.688-1.036-.747,0-1.429.168-2.044.504-.616.336-1.116.831-1.498,1.483-.383.654-.574,1.476-.574,2.465v7.56h-1.792Z" style="fill: #f2f2f2;"/>
    </g>
  </g>
</svg>