<?xml version="1.0" encoding="UTF-8"?><svg id="Layer_2" xmlns="http://www.w3.org/2000/svg" viewBox="0 0 228.36 36.59"><defs><style>.cls-1{fill:#30ba78;}.cls-1,.cls-2{stroke-width:0px;}.cls-2{fill:#fff;}</style></defs><g id="Layer_1-2"><g id="Layer_1-3"><path class="cls-1" d="M68.72,11.11c-.46-.47-1.21-.47-1.67,0-.51.51-.45,1.4.19,1.82.39.26.91.26,1.3,0,.64-.42.7-1.31.18-1.82M67.19,7.1c-3.15-.74-5.99,2.09-5.25,5.25.37,1.61,1.65,2.88,3.26,3.26,3.15.74,5.99-2.1,5.25-5.25-.38-1.61-1.65-2.88-3.26-3.26M46.37,24.85c-2.06-.76-2.85-.61-5.48-.57-1.82.02-1.89-.04-3.97-.04-.64,0-.88,3.08,1.44,3.72,1.02.28,2.12.46,2.88,1.24.34.34.53.87-.25.87h-5.77c-1.01,0-1.96.02-2.73-.63-1.17-.98-1.71-2.34-2.29-3.68-.6-1.4-1.26-2.77-2.02-4.09-1.52-2.62-3.54-4.99-6.24-6.44-3.37-1.81-9.1-2.71-13.63.77-4.78,3.67-3.75,10.54.43,13.9,1.65,1.33,3.8,1.88,5.92,1.76,4.13-.24,7.18-3.29,6.42-7.04-.25-1.26-.98-2.44-2.09-3.09-.78-.46-1.71-.62-2.62-.62-.98,0-2.01.2-2.72.88-.83.8-.96,2.22-.3,3.17.37.52.97.97.86,1.65-.07.46-.45.81-.91.91-.78.17-1.49-.27-2.01-.81-1.34-1.38-1.77-3.59-1.03-5.37.97-2.33,3.66-3.62,6.18-3.53,3.25.11,6.32,2.26,7.65,5.22,1.34,2.97.93,6.62-.9,9.31-4.09,5.97-14.18,5.27-18.86.23C1.4,29.42-.2,26.35.02,20.64c.16-4.03,2.49-8.01,5.45-10.8C10.31,5.28,16.67,2.17,23.15.82,27.09.01,31.15-.18,35.14.22c3.52.35,7.02,1,10.41,2.04,1.68.52,3.33,1.15,4.93,1.88,1.41.65,3.26,1.35,4.36,2.47,0-2.02-.08-4.25-.08-5.8,0-.59.62-.99,1.15-.74,2.29,1.06,7.72,3.63,11.34,5.28,4.85,2.22,5.19,7.44,5.36,12.08,0,.1,0,.21-.04.3-.15.32-.97.23-1.27.24-.58,0-1.46,0-2.03.03-1.16.05-2.29.03-3.44-.03-2.14-.1-4.21-1.06-5.6-2.22-.14-.12-.59-.24-.8-.02-.22.23-.14.58-.02.7.79.8,1.66,1.32,2.66,1.84,1.27.65,2.66.82,4.07.9,1.51.09,3.03.07,4.53-.09,1.26-.13,1.58-.21.34.71-1.09.81-2.35,1.39-3.63,1.82-1.84.62-3.78.93-5.72.99-1.17.03-2.35-.03-3.51-.18-.6-.07-1.2-.19-1.81-.25-.49-.05-1-.14-1.49-.04-.44.1-.85.34-1.13.7-.38.5-.52,1.87-.29,2.47.43,1.15,1.37,1.82,2.36,2.42,1.08.64,2.49.86,2.77,2.08.06.25-2.23.26-2.49.26h-3.04s-1.66.04-2.3-.19c-.02,0-.04-.02-.06-.02-.35-.19-.5-.66-.62-1.01-.17-.5-.47-1-.83-1.52-.69-.98-1.74-2.05-2.84-2.46M69.42,11.34c0,1.78-1.44,3.23-3.23,3.23s-3.23-1.44-3.23-3.23,1.44-3.23,3.23-3.23,3.23,1.44,3.23,3.23"/></g><path class="cls-2" d="M85.36,25.79l3.04-3.04c2.16,2.2,4.16,3.12,6.52,3.12,3.16,0,5.04-1.6,5.04-3.96,0-6.44-13.96-2.8-13.96-12.48,0-5.2,3.88-8.52,9.76-8.52,3.6,0,6.6,1.4,8.48,3.52l-3.12,3.12c-1.6-1.64-3.24-2.48-5.36-2.48-2.96,0-4.88,1.52-4.88,3.88,0,6.08,14.08,2.12,14.08,12.24,0,5.36-4.12,8.84-10.2,8.84-4.2,0-7.24-1.68-9.4-4.24Z"/><path class="cls-2" d="M109.44,19.8V1.48h4.92v17.92c0,4.08,2.36,6.08,5.96,6.08s5.92-2,5.92-6.08V1.48h4.92v18.32c0,6.84-4.32,10.24-10.84,10.24s-10.88-3.4-10.88-10.24Z"/><path class="cls-2" d="M135.64,25.79l3.04-3.04c2.16,2.2,4.16,3.12,6.52,3.12,3.16,0,5.04-1.6,5.04-3.96,0-6.44-13.96-2.8-13.96-12.48,0-5.2,3.88-8.52,9.76-8.52,3.6,0,6.6,1.4,8.48,3.52l-3.12,3.12c-1.6-1.64-3.24-2.48-5.36-2.48-2.96,0-4.88,1.52-4.88,3.88,0,6.08,14.08,2.12,14.08,12.24,0,5.36-4.12,8.84-10.2,8.84-4.2,0-7.24-1.68-9.4-4.24Z"/><path class="cls-2" d="M159.4,24.79V6.16c0-2.72,1.96-4.68,4.68-4.68h13.6v4.48h-11.96c-.84,0-1.48.64-1.48,1.44v5.88h12.6v4.28h-12.6v6c0,.8.64,1.44,1.48,1.44h11.96v4.48h-13.6c-2.72,0-4.68-1.96-4.68-4.68Z"/><path class="cls-2" d="M199.68,1.48h3.16l10.84,28h-2.76l-3.08-8h-13.2l-3.08,8h-2.76l10.88-28ZM206.96,19.16l-5.72-14.92-5.72,14.92h11.44Z"/><path class="cls-2" d="M215.52,1.48h12.84v2.48h-5.12v23.04h5.12v2.48h-12.84v-2.48h5.04V3.96h-5.04V1.48Z"/></g></svg>