<?xml version="1.0" encoding="UTF-8"?>
<svg id="Layer_1" data-name="Layer 1" xmlns="http://www.w3.org/2000/svg" viewBox="0 0 273.21 73.88">
  <defs>
    <style>
      .cls-1 {
        fill: #30ba78;
      }

      .cls-2 {
        fill: #f2f2f2;
      }
    </style>
  </defs>
  <g id="Layer_1-2" data-name="Layer 1">
    <path class="cls-1" d="M67.08,16.12c-.45-.46-1.18-.46-1.63,0-.5.5-.44,1.37.18,1.78.38.25.89.25,1.27,0,.62-.41.68-1.28.18-1.78M65.59,12.2c-3.08-.72-5.85,2.04-5.12,5.12.37,1.57,1.61,2.81,3.18,3.18,3.08.72,5.85-2.05,5.12-5.12-.37-1.57-1.61-2.81-3.18-3.18M45.26,29.54c-2.01-.74-2.78-.59-5.35-.56-1.78.02-1.84-.04-3.87-.04-.63,0-.86,3,1.41,3.63.99.27,2.07.45,2.81,1.21.33.34.52.85-.25.85h-5.63c-.99,0-1.92.02-2.67-.61-1.14-.96-1.67-2.28-2.24-3.6-.59-1.36-1.23-2.71-1.97-3.99-1.49-2.56-3.45-4.87-6.09-6.28-3.29-1.77-8.88-2.64-13.31.76-4.66,3.58-3.66,10.29.42,13.57,1.61,1.3,3.71,1.84,5.78,1.72,4.03-.24,7.01-3.21,6.27-6.87-.25-1.23-.96-2.38-2.04-3.02-.77-.45-1.67-.61-2.56-.61-.95,0-1.97.2-2.65.86-.81.78-.94,2.17-.29,3.1.36.51.94.94.84,1.61-.07.45-.44.79-.89.89-.76.17-1.45-.26-1.96-.79-1.31-1.35-1.72-3.5-1-5.24.94-2.28,3.57-3.53,6.03-3.45,3.18.11,6.17,2.2,7.47,5.1,1.3,2.9.91,6.46-.88,9.08-3.99,5.83-13.84,5.14-18.41.22C1.36,33.99-.2,31,.02,25.43c.15-3.94,2.43-7.82,5.32-10.55,4.72-4.45,10.93-7.49,17.26-8.8,3.84-.79,7.81-.98,11.71-.59,3.44.34,6.86.97,10.16,2,1.64.51,3.25,1.12,4.81,1.83,1.38.63,3.18,1.32,4.25,2.41,0-1.98-.08-4.15-.08-5.66,0-.58.61-.97,1.13-.72,2.24,1.04,7.53,3.54,11.07,5.16,4.74,2.16,5.07,7.27,5.24,11.79,0,.1,0,.21-.04.29-.15.31-.95.23-1.24.23-.57,0-1.42,0-1.99.03-1.13.05-2.23.03-3.36-.03-2.09-.1-4.11-1.03-5.47-2.17-.13-.11-.57-.24-.78-.02-.21.22-.14.57-.02.68.78.78,1.62,1.29,2.6,1.8,1.24.64,2.6.8,3.97.88,1.47.09,2.95.07,4.42-.09,1.23-.12,1.54-.21.33.69-1.06.79-2.3,1.36-3.55,1.78-1.79.61-3.69.91-5.58.96-1.15.03-2.29-.03-3.43-.18-.59-.07-1.17-.18-1.76-.24-.48-.05-.98-.14-1.45-.04-.43.09-.83.33-1.11.68-.37.49-.5,1.83-.29,2.41.42,1.13,1.34,1.78,2.3,2.36,1.05.62,2.43.84,2.7,2.03.06.25-2.18.26-2.43.25h-2.97s-1.62.04-2.24-.19c-.02,0-.04-.02-.06-.02-.34-.18-.49-.64-.61-.99-.17-.49-.46-.98-.81-1.48-.67-.96-1.7-2-2.78-2.4M67.76,16.35c0,1.74-1.41,3.15-3.15,3.15s-3.15-1.41-3.15-3.15,1.41-3.15,3.15-3.15,3.15,1.41,3.15,3.15"/>
  </g>
  <g>
    <path class="cls-2" d="M89.59,34.56c-2.08,0-3.89-.39-5.44-1.16-1.55-.77-2.87-1.8-3.96-3.08l3.04-3.04c1.09,1.12,2.16,1.92,3.2,2.4s2.15.72,3.32.72c1.57,0,2.81-.37,3.7-1.1.89-.73,1.34-1.69,1.34-2.86,0-.91-.25-1.65-.76-2.22-.51-.57-1.17-1.04-2-1.4-.83-.36-1.74-.68-2.74-.96-1-.28-1.99-.59-2.98-.94-.99-.35-1.89-.8-2.72-1.36-.83-.56-1.49-1.29-2-2.2-.51-.91-.76-2.04-.76-3.4,0-1.76.4-3.27,1.2-4.54.8-1.27,1.94-2.25,3.42-2.94,1.48-.69,3.19-1.04,5.14-1.04,1.81,0,3.45.32,4.9.96,1.45.64,2.65,1.49,3.58,2.56l-3.12,3.12c-.8-.83-1.63-1.45-2.48-1.86s-1.83-.62-2.92-.62c-1.47,0-2.64.35-3.52,1.06s-1.32,1.65-1.32,2.82c0,.85.25,1.55.76,2.08.51.53,1.18.95,2.02,1.26.84.31,1.76.59,2.76.84s2.01.55,3.02.9c1.01.35,1.93.8,2.76,1.36.83.56,1.49,1.31,2,2.24.51.93.76,2.12.76,3.56,0,1.79-.43,3.34-1.28,4.66-.85,1.32-2.05,2.35-3.58,3.08-1.53.73-3.31,1.1-5.34,1.1Z"/>
    <path class="cls-2" d="M114.95,34.56c-3.28,0-5.91-.85-7.88-2.54-1.97-1.69-2.96-4.26-2.96-7.7V6h4.92v17.92c0,2.03.53,3.55,1.6,4.56,1.07,1.01,2.51,1.52,4.32,1.52s3.26-.51,4.34-1.52c1.08-1.01,1.62-2.53,1.62-4.56V6h4.92v18.32c0,2.27-.45,4.16-1.36,5.68s-2.17,2.66-3.8,3.42c-1.63.76-3.53,1.14-5.72,1.14Z"/>
    <path class="cls-2" d="M139.35,34.56c-2.08,0-3.89-.39-5.44-1.16-1.55-.77-2.87-1.8-3.96-3.08l3.04-3.04c1.09,1.12,2.16,1.92,3.2,2.4s2.15.72,3.32.72c1.57,0,2.81-.37,3.7-1.1.89-.73,1.34-1.69,1.34-2.86,0-.91-.25-1.65-.76-2.22-.51-.57-1.17-1.04-2-1.4-.83-.36-1.74-.68-2.74-.96-1-.28-1.99-.59-2.98-.94-.99-.35-1.89-.8-2.72-1.36-.83-.56-1.49-1.29-2-2.2-.51-.91-.76-2.04-.76-3.4,0-1.76.4-3.27,1.2-4.54.8-1.27,1.94-2.25,3.42-2.94,1.48-.69,3.19-1.04,5.14-1.04,1.81,0,3.45.32,4.9.96,1.45.64,2.65,1.49,3.58,2.56l-3.12,3.12c-.8-.83-1.63-1.45-2.48-1.86s-1.83-.62-2.92-.62c-1.47,0-2.64.35-3.52,1.06s-1.32,1.65-1.32,2.82c0,.85.25,1.55.76,2.08.51.53,1.18.95,2.02,1.26.84.31,1.76.59,2.76.84s2.01.55,3.02.9c1.01.35,1.93.8,2.76,1.36.83.56,1.49,1.31,2,2.24.51.93.76,2.12.76,3.56,0,1.79-.43,3.34-1.28,4.66-.85,1.32-2.05,2.35-3.58,3.08-1.53.73-3.31,1.1-5.34,1.1Z"/>
    <path class="cls-2" d="M158.51,34c-1.36,0-2.47-.44-3.34-1.32-.87-.88-1.3-2-1.3-3.36V10.68c0-1.36.43-2.48,1.3-3.36.87-.88,1.98-1.32,3.34-1.32h13.64v4.48h-12c-.4,0-.74.14-1.02.42-.28.28-.42.62-.42,1.02v16.16c0,.4.14.74.42,1.02.28.28.62.42,1.02.42h12v4.48h-13.64ZM156.22,22.08v-4.28h15.08v4.28h-15.08Z"/>
    <path class="cls-2" d="M198.98,34.48c-2.61,0-4.94-.61-6.98-1.82s-3.64-2.9-4.8-5.06c-1.16-2.16-1.74-4.67-1.74-7.52v-.36c0-2.83.58-5.3,1.74-7.42,1.16-2.12,2.76-3.78,4.8-4.98,2.04-1.2,4.37-1.8,6.98-1.8s4.94.6,6.98,1.8c2.04,1.2,3.64,2.86,4.8,4.98,1.16,2.12,1.74,4.59,1.74,7.42v.36c0,2.85-.58,5.36-1.74,7.52-1.16,2.16-2.76,3.85-4.8,5.06s-4.37,1.82-6.98,1.82ZM198.98,31.16c1.95,0,3.67-.46,5.18-1.38,1.51-.92,2.69-2.21,3.56-3.86.87-1.65,1.3-3.6,1.3-5.84v-.36c0-2.19-.43-4.09-1.3-5.72-.87-1.63-2.05-2.89-3.56-3.8-1.51-.91-3.23-1.36-5.18-1.36s-3.67.45-5.18,1.36c-1.51.91-2.69,2.17-3.56,3.8-.87,1.63-1.3,3.53-1.3,5.72v.36c0,2.24.43,4.19,1.3,5.84.87,1.65,2.05,2.94,3.56,3.86,1.51.92,3.23,1.38,5.18,1.38Z"/>
    <path class="cls-2" d="M217.14,34V14.76h3.12v5.2h-.88c.29-1.09.71-2,1.26-2.72.55-.72,1.16-1.29,1.84-1.72.68-.43,1.38-.73,2.1-.9.72-.17,1.4-.26,2.04-.26,2.16,0,3.91.69,5.26,2.08,1.35,1.39,2.02,3.47,2.02,6.24v11.32h-3.24v-10.84c0-2.05-.46-3.54-1.38-4.46-.92-.92-2.09-1.38-3.5-1.38-.99,0-1.89.23-2.7.68-.81.45-1.47,1.11-1.96,1.98-.49.87-.74,1.94-.74,3.22v10.8h-3.24Z"/>
    <path class="cls-2" d="M247.98,34.4c-1.89,0-3.57-.42-5.02-1.26-1.45-.84-2.59-2.01-3.4-3.5-.81-1.49-1.22-3.21-1.22-5.16v-.4c0-1.87.37-3.53,1.12-4.98.75-1.45,1.8-2.61,3.16-3.46,1.36-.85,2.93-1.28,4.72-1.28s3.41.45,4.72,1.36c1.31.91,2.27,2.19,2.9,3.84.63,1.65.81,3.59.54,5.8h-14.84v-2.64h13.12l-1.44,1.4c.19-1.47.09-2.71-.3-3.74-.39-1.03-.98-1.82-1.78-2.38-.8-.56-1.76-.84-2.88-.84-1.23,0-2.27.29-3.14.88-.87.59-1.53,1.39-2,2.42-.47,1.03-.7,2.23-.7,3.62v.4c0,1.33.27,2.53.8,3.58.53,1.05,1.29,1.88,2.28,2.48.99.6,2.16.9,3.52.9,1.01,0,1.91-.13,2.68-.38.77-.25,1.45-.63,2.04-1.14l1.84,2c-.75.8-1.7,1.41-2.86,1.84-1.16.43-2.45.64-3.86.64Z"/>
    <path class="cls-2" d="M81.49,68v-19.6h5.82c1.29,0,2.41.23,3.36.69.95.46,1.69,1.12,2.23,1.97.53.86.8,1.89.8,3.11s-.27,2.25-.8,3.11c-.53.86-1.27,1.52-2.23,1.97-.95.46-2.07.69-3.36.69h-4.93v-1.6h5.01c1.33,0,2.4-.37,3.23-1.12.83-.75,1.25-1.76,1.25-3.05s-.42-2.27-1.25-3.01c-.83-.74-1.91-1.11-3.23-1.11h-4.82l.78-.76v18.7h-1.88Z"/>
    <path class="cls-2" d="M100.51,68.28c-1.57,0-2.81-.36-3.74-1.08s-1.39-1.67-1.39-2.84c0-.77.21-1.45.62-2.06.41-.61,1.02-1.09,1.82-1.44.8-.35,1.76-.53,2.88-.53,1.55,0,2.75.35,3.6,1.04.85.69,1.27,1.61,1.27,2.74h-.34c0,1.31-.39,2.33-1.18,3.07-.78.74-1.97,1.11-3.56,1.11ZM104.62,68l-.03-4.87-.2-.53v-3.28c0-1.16-.29-2.01-.87-2.55-.58-.54-1.42-.81-2.52-.81-.73,0-1.48.14-2.25.42-.77.28-1.45.71-2.03,1.29l-.87-1.26c.63-.69,1.41-1.21,2.34-1.55.92-.35,1.88-.52,2.87-.52s1.89.18,2.66.55c.77.36,1.36.91,1.79,1.64s.64,1.65.64,2.77v4.26c0,.75,0,1.49.01,2.23,0,.74.03,1.48.07,2.23h-1.62ZM100.84,66.91c1.12,0,1.99-.24,2.62-.71.62-.48.94-1.1.94-1.86s-.31-1.4-.94-1.86c-.63-.46-1.51-.69-2.65-.69s-2.01.23-2.66.69c-.65.46-.98,1.08-.98,1.86s.33,1.39.98,1.86c.65.48,1.55.71,2.69.71Z"/>
    <path class="cls-2" d="M110.44,68v-13.38h1.74v3.19l-.28-.03c.17-.86.44-1.52.83-1.97s.85-.77,1.4-.95c.55-.18,1.15-.27,1.81-.27h1.15v1.76h-1.29c-1.1,0-1.97.28-2.6.84s-.95,1.46-.95,2.69v8.12h-1.79Z"/>
    <path class="cls-2" d="M118.23,56.18v-1.57h7.98v1.57h-7.98ZM124.22,68c-.45,0-.88-.07-1.3-.2-.42-.13-.79-.34-1.12-.62-.33-.28-.58-.63-.77-1.05-.19-.42-.28-.93-.28-1.53v-13.33h1.76v13.44c0,.5.17.92.5,1.25s.74.49,1.2.49h1.99v1.54h-1.99Z"/>
    <path class="cls-2" d="M129.35,68v-13.38h1.71v3.58h-.48c.21-.75.5-1.37.88-1.86.38-.49.82-.89,1.3-1.19.49-.3.98-.51,1.48-.63.5-.12.98-.18,1.43-.18,1.51,0,2.74.48,3.7,1.44.95.96,1.43,2.43,1.43,4.41v7.81h-1.79v-7.59c0-1.57-.36-2.7-1.06-3.39-.71-.69-1.61-1.04-2.69-1.04-.75,0-1.43.17-2.04.5-.62.34-1.12.83-1.5,1.48-.38.65-.57,1.47-.57,2.46v7.56h-1.79Z"/>
    <path class="cls-2" d="M150.76,68.28c-1.31,0-2.46-.29-3.47-.88s-1.79-1.4-2.35-2.44c-.56-1.04-.84-2.23-.84-3.6v-.28c0-1.31.26-2.46.77-3.47.51-1.01,1.24-1.81,2.18-2.39.94-.59,2.02-.88,3.23-.88s2.32.31,3.22.92c.9.62,1.56,1.48,1.99,2.6.43,1.12.55,2.43.36,3.92h-10.47v-1.48h9.52l-.78.78c.13-1.06.05-1.98-.25-2.76s-.76-1.37-1.37-1.79c-.62-.42-1.34-.63-2.18-.63-.92,0-1.7.22-2.37.66-.66.44-1.18,1.05-1.54,1.82-.36.77-.55,1.68-.55,2.7v.28c0,1.03.21,1.94.62,2.73.41.79.99,1.41,1.74,1.86.75.45,1.62.67,2.63.67.71,0,1.36-.09,1.95-.28s1.09-.46,1.5-.81l1.01,1.15c-.5.5-1.15.9-1.93,1.18-.78.28-1.65.42-2.6.42Z"/>
    <path class="cls-2" d="M159.3,68v-13.38h1.74v3.19l-.28-.03c.17-.86.44-1.52.83-1.97s.85-.77,1.4-.95c.55-.18,1.15-.27,1.81-.27h1.15v1.76h-1.29c-1.1,0-1.97.28-2.6.84s-.95,1.46-.95,2.69v8.12h-1.79Z"/>
    <path class="cls-2" d="M175.12,68v-19.6h5.82c1.29,0,2.41.23,3.36.69.95.46,1.69,1.12,2.23,1.97.53.86.8,1.89.8,3.11s-.27,2.25-.8,3.11c-.53.86-1.27,1.52-2.23,1.97-.95.46-2.07.69-3.36.69h-4.93v-1.6h5.01c1.33,0,2.4-.37,3.23-1.12.83-.75,1.25-1.76,1.25-3.05s-.42-2.27-1.25-3.01c-.83-.74-1.91-1.11-3.23-1.11h-4.82l.78-.76v18.7h-1.88Z"/>
    <path class="cls-2" d="M190.19,68v-13.38h1.74v3.19l-.28-.03c.17-.86.44-1.52.83-1.97.38-.46.85-.77,1.4-.95.55-.18,1.15-.27,1.81-.27h1.15v1.76h-1.29c-1.1,0-1.97.28-2.6.84-.63.56-.95,1.46-.95,2.69v8.12h-1.79Z"/>
    <path class="cls-2" d="M204.52,68.28c-1.27,0-2.4-.29-3.39-.88-.99-.59-1.76-1.4-2.32-2.44-.56-1.04-.84-2.23-.84-3.6v-.25c0-1.33.28-2.5.84-3.51.56-1.02,1.33-1.82,2.32-2.39.99-.58,2.12-.87,3.39-.87s2.37.28,3.36.85c.99.57,1.76,1.36,2.32,2.38.56,1.02.84,2.18.84,3.49v.31c0,1.36-.28,2.56-.84,3.6-.56,1.04-1.33,1.85-2.32,2.44-.99.59-2.11.88-3.36.88ZM204.52,66.68c.93,0,1.76-.23,2.48-.69.72-.46,1.28-1.08,1.68-1.88s.6-1.71.6-2.76v-.31c0-1.01-.2-1.89-.6-2.66-.4-.77-.96-1.37-1.68-1.81-.72-.44-1.54-.66-2.48-.66s-1.76.22-2.48.67c-.72.45-1.28,1.06-1.69,1.83-.41.77-.62,1.67-.62,2.67v.25c0,1.05.21,1.96.62,2.76.41.79.97,1.42,1.69,1.88.72.46,1.54.69,2.48.69Z"/>
    <path class="cls-2" d="M213.09,73.6v-1.51h7.92c.73,0,1.3-.18,1.72-.55s.63-.86.63-1.5c0-.6-.21-1.06-.63-1.4s-.99-.5-1.72-.5h-4.26c-.69,0-1.21-.16-1.57-.49-.36-.33-.55-.73-.59-1.22-.04-.49.07-.96.31-1.43l1.2-2.41,1.54.42-1.12,2.16c-.09.21-.15.42-.18.66-.03.23.03.43.18.6s.41.25.78.25h3.92c1.16,0,2.08.29,2.77.87.69.58,1.04,1.41,1.04,2.49,0,.71-.16,1.33-.48,1.86-.32.53-.77.95-1.34,1.25-.58.3-1.27.45-2.07.45h-8.06ZM219.22,64.02c-1.08,0-2.05-.21-2.9-.62-.85-.41-1.52-.98-2-1.71-.49-.73-.73-1.55-.73-2.46v-.25c0-.91.24-1.72.73-2.42.49-.7,1.15-1.25,2-1.64.85-.39,1.82-.59,2.9-.59s2.08.2,2.93.59c.85.39,1.51.93,1.99,1.61.48.68.71,1.47.71,2.37v.34c0,.92-.24,1.74-.71,2.46-.48.73-1.14,1.3-1.99,1.71-.85.41-1.83.62-2.93.62ZM219.22,62.6c1.14,0,2.07-.32,2.8-.95.73-.63,1.09-1.44,1.09-2.41v-.25c0-.93-.36-1.69-1.09-2.28-.73-.59-1.66-.88-2.8-.88s-2.07.3-2.8.9c-.73.6-1.09,1.37-1.09,2.32v.2c0,.97.36,1.77,1.09,2.41.73.63,1.66.95,2.8.95ZM219.45,55.51l1.99-4.06h1.79l-2.16,4.06h-1.62Z"/>
    <path class="cls-2" d="M228.24,68v-13.38h1.74v3.19l-.28-.03c.17-.86.44-1.52.83-1.97.38-.46.85-.77,1.4-.95.55-.18,1.15-.27,1.81-.27h1.15v1.76h-1.29c-1.1,0-1.97.28-2.6.84s-.95,1.46-.95,2.69v8.12h-1.79Z"/>
    <path class="cls-2" d="M241.12,68.28c-1.57,0-2.81-.36-3.74-1.08-.92-.72-1.39-1.67-1.39-2.84,0-.77.21-1.45.62-2.06.41-.61,1.02-1.09,1.82-1.44.8-.35,1.76-.53,2.88-.53,1.55,0,2.75.35,3.6,1.04.85.69,1.27,1.61,1.27,2.74h-.34c0,1.31-.39,2.33-1.18,3.07-.78.74-1.97,1.11-3.56,1.11ZM245.24,68l-.03-4.87-.2-.53v-3.28c0-1.16-.29-2.01-.87-2.55-.58-.54-1.42-.81-2.52-.81-.73,0-1.48.14-2.25.42-.77.28-1.45.71-2.03,1.29l-.87-1.26c.63-.69,1.41-1.21,2.34-1.55.92-.35,1.88-.52,2.87-.52s1.89.18,2.66.55c.77.36,1.36.91,1.79,1.64.43.73.64,1.65.64,2.77v4.26c0,.75,0,1.49.01,2.23,0,.74.03,1.48.07,2.23h-1.62ZM241.46,66.91c1.12,0,1.99-.24,2.62-.71.62-.48.94-1.1.94-1.86s-.31-1.4-.94-1.86c-.63-.46-1.51-.69-2.65-.69s-2.01.23-2.66.69c-.65.46-.98,1.08-.98,1.86s.33,1.39.98,1.86c.65.48,1.55.71,2.69.71Z"/>
    <path class="cls-2" d="M251.06,68v-13.38h1.71v3.44l-.42-.03c.28-.93.68-1.67,1.2-2.2s1.11-.91,1.75-1.15c.64-.23,1.27-.35,1.89-.35,1.18,0,2.17.31,2.98.92.81.62,1.36,1.57,1.64,2.86h-.64c.32-.97.76-1.73,1.33-2.28.57-.55,1.19-.94,1.86-1.16.67-.22,1.31-.34,1.9-.34,1.47,0,2.66.47,3.56,1.41.9.94,1.34,2.4,1.34,4.38v7.87h-1.74v-7.67c0-1.55-.33-2.66-.98-3.33s-1.51-1.01-2.58-1.01-2,.37-2.74,1.11c-.75.74-1.12,1.81-1.12,3.21v7.7h-1.76v-7.67c0-1.55-.32-2.66-.97-3.33-.64-.67-1.5-1.01-2.56-1.01s-2.03.37-2.77,1.11c-.75.74-1.12,1.81-1.12,3.21v7.7h-1.76Z"/>
  </g>
</svg>