<?xml version="1.0" encoding="UTF-8"?>
<svg id="Layer_1" data-name="Layer 1" xmlns="http://www.w3.org/2000/svg" viewBox="0 0 247.6 134.65">
  <defs>
    <style>
      .cls-1 {
        fill: #30ba78;
      }

      .cls-2 {
        fill: #efefef;
      }
    </style>
  </defs>
  <g>
    <path class="cls-2" d="M1.4,82.97l3.04-3.04c2.16,2.2,4.16,3.12,6.52,3.12,3.16,0,5.04-1.6,5.04-3.96,0-6.44-13.96-2.8-13.96-12.48,0-5.2,3.88-8.52,9.76-8.52,3.6,0,6.6,1.4,8.48,3.52l-3.12,3.12c-1.6-1.64-3.24-2.48-5.36-2.48-2.96,0-4.88,1.52-4.88,3.88,0,6.08,14.08,2.12,14.08,12.24,0,5.36-4.12,8.84-10.2,8.84-4.2,0-7.24-1.68-9.4-4.24Z"/>
    <path class="cls-2" d="M25.48,76.97v-18.32h4.92v17.92c0,4.08,2.36,6.08,5.96,6.08s5.92-2,5.92-6.08v-17.92h4.92v18.32c0,6.84-4.32,10.24-10.84,10.24s-10.88-3.4-10.88-10.24Z"/>
    <path class="cls-2" d="M51.68,82.97l3.04-3.04c2.16,2.2,4.16,3.12,6.52,3.12,3.16,0,5.04-1.6,5.04-3.96,0-6.44-13.96-2.8-13.96-12.48,0-5.2,3.88-8.52,9.76-8.52,3.6,0,6.6,1.4,8.48,3.52l-3.12,3.12c-1.6-1.64-3.24-2.48-5.36-2.48-2.96,0-4.88,1.52-4.88,3.88,0,6.08,14.08,2.12,14.08,12.24,0,5.36-4.12,8.84-10.2,8.84-4.2,0-7.24-1.68-9.4-4.24Z"/>
    <path class="cls-2" d="M75.44,81.97v-18.64c0-2.72,1.96-4.68,4.68-4.68h13.6v4.48h-11.96c-.84,0-1.48.64-1.48,1.44v5.88h12.6v4.28h-12.6v6c0,.8.64,1.44,1.48,1.44h11.96v4.48h-13.6c-2.72,0-4.68-1.96-4.68-4.68Z"/>
    <path class="cls-2" d="M108.64,58.65h8.48c5.56,0,9.2,2.8,9.2,8.16,0,4.88-2.68,7.4-6.96,8l7.8,11.84h-3.12l-7.6-11.68h-5.16v11.68h-2.64v-28ZM117.04,72.65c3.92,0,6.56-1.72,6.56-5.8,0-3.84-2.64-5.88-6.56-5.88h-5.76v11.68h5.76Z"/>
    <path class="cls-2" d="M143.76,84.53c-1.04,1.64-3.04,2.52-5.88,2.52-4.52,0-7.32-2.24-7.32-5.6s2.76-5.76,7.56-5.76c2.32,0,4.08.56,5.28,1.6v-3.04c0-3.28-1.68-4.8-4.84-4.8-2.08,0-4.48.76-6.08,2.4l-1.24-1.76c1.68-2,4.6-2.96,7.4-2.96,4.36,0,7.28,2.32,7.28,7.08v6.08c0,2.12.04,4.24.12,6.36h-2.28v-2.12ZM138.32,85.09c3.2,0,5.08-1.48,5.08-3.68s-1.84-3.64-5.08-3.64-5.2,1.44-5.2,3.64,2,3.68,5.2,3.68Z"/>
    <path class="cls-2" d="M152.52,67.53h2.44v3.4c1.52-2.88,4.44-3.8,6.6-3.8,4.28,0,7.32,2.72,7.32,8.36v11.16h-2.56v-10.84c0-4.48-2.28-6.32-5.32-6.32-3.2,0-5.92,2.16-5.92,6.36v10.8h-2.56v-19.12Z"/>
    <path class="cls-2" d="M173.84,77.33v-.48c0-5.76,4.12-9.72,9.72-9.72,2.76,0,5.08,1.04,6.64,2.8l-1.56,1.64c-1.32-1.36-2.96-2.08-5.08-2.08-4.16,0-7.2,2.96-7.2,7.36v.48c0,4.4,3.04,7.36,7.24,7.36,2.08,0,3.72-.68,5.08-2.04l1.56,1.6c-1.56,1.8-3.92,2.8-6.68,2.8-5.64,0-9.72-4-9.72-9.72Z"/>
    <path class="cls-2" d="M195.32,57.45h2.44v13.48c1.52-2.88,4.44-3.8,6.6-3.8,4.28,0,7.32,2.72,7.32,8.36v11.16h-2.56v-10.84c0-4.48-2.28-6.32-5.32-6.32-3.2,0-5.92,2.16-5.92,6.36v10.8h-2.56v-29.2Z"/>
    <path class="cls-2" d="M216.64,77.17v-.4c0-5.56,3.56-9.64,8.88-9.64s8.64,4.28,7.92,10.64h-14.28c.28,4.08,3,6.92,7.12,6.92,2.04,0,3.76-.52,4.92-1.56l1.44,1.64c-1.4,1.44-3.8,2.28-6.48,2.28-5.64,0-9.52-4.04-9.52-9.88ZM231.03,75.65c.08-3.92-2.24-6.28-5.52-6.28-3.56,0-5.92,2.48-6.32,6.28h11.84Z"/>
    <path class="cls-2" d="M238.08,67.53h2.48v3.16c.92-2.48,3-3.2,5.36-3.2h1.68v2.48h-1.88c-3.2,0-5.08,1.6-5.08,5.08v11.6h-2.56v-19.12Z"/>
    <path class="cls-2" d="M1.68,123.29l1.64-1.72c1.88,2.16,4.24,3.24,7.08,3.24,4.08,0,6.6-2.24,6.6-5.6,0-8-14.8-3.4-14.8-13.08,0-4.8,3.64-7.96,9.16-7.96,3.2,0,5.76,1.12,7.48,2.96l-1.76,1.76c-1.52-1.56-3.36-2.4-5.76-2.4-3.88,0-6.44,2.16-6.44,5.4,0,7.6,14.84,2.8,14.84,12.96,0,5.08-3.84,8.28-9.4,8.28-3.8,0-6.72-1.48-8.64-3.84Z"/>
    <path class="cls-2" d="M23.44,117.17v-.4c0-5.56,3.56-9.64,8.88-9.64s8.64,4.28,7.92,10.64h-14.28c.28,4.08,3,6.92,7.12,6.92,2.04,0,3.76-.52,4.92-1.56l1.44,1.64c-1.4,1.44-3.8,2.28-6.48,2.28-5.64,0-9.52-4.04-9.52-9.88ZM37.84,115.65c.08-3.92-2.24-6.28-5.52-6.28-3.56,0-5.92,2.48-6.32,6.28h11.84Z"/>
    <path class="cls-2" d="M43.4,117.33v-.48c0-5.76,4.12-9.72,9.72-9.72,2.76,0,5.08,1.04,6.64,2.8l-1.56,1.64c-1.32-1.36-2.96-2.08-5.08-2.08-4.16,0-7.2,2.96-7.2,7.36v.48c0,4.4,3.04,7.36,7.24,7.36,2.08,0,3.72-.68,5.08-2.04l1.56,1.6c-1.56,1.8-3.92,2.8-6.68,2.8-5.64,0-9.72-4-9.72-9.72Z"/>
    <path class="cls-2" d="M64.72,119.09v-11.56h2.48v11.16c0,4.48,2.32,6,5.32,6,3.16,0,5.84-2.08,5.84-6.28v-10.88h2.48v19.12h-2.2v-3.32c-1.52,2.8-4.36,3.72-6.56,3.72-4.24,0-7.36-2.32-7.36-7.96Z"/>
    <path class="cls-2" d="M87.52,107.53h2.48v3.16c.92-2.48,3-3.2,5.36-3.2h1.68v2.48h-1.88c-3.2,0-5.08,1.6-5.08,5.08v11.6h-2.56v-19.12Z"/>
    <path class="cls-2" d="M102.72,109.77h-3.84v-2.24h6.36v19.12h-2.52v-16.88ZM102.64,98.77h2.72v4.36h-2.72v-4.36Z"/>
    <path class="cls-2" d="M112.64,121.81v-12.04h-3.6v-2.24h3.6v-4.76h2.52v4.76h5.28v2.24h-5.28v12.2c0,1.4,1.04,2.48,2.44,2.48h2.84v2.2h-2.84c-2.56,0-4.96-1.48-4.96-4.84Z"/>
    <path class="cls-2" d="M122.52,132.45h3.6c1.36,0,2.04-1.08,2.56-2.32l1.48-3.36-7.92-19.24h2.76l6.52,16.16,6.24-16.16h2.8l-9.32,22.68c-.88,2.12-2.12,4.44-5.24,4.44h-3.48v-2.2Z"/>
    <path class="cls-2" d="M157.84,101.13h-8.68v-2.48h20.08v2.48h-8.72v25.52h-2.68v-25.52Z"/>
    <path class="cls-2" d="M166.88,117.17v-.4c0-5.56,3.56-9.64,8.88-9.64s8.64,4.28,7.92,10.64h-14.28c.28,4.08,3,6.92,7.12,6.92,2.04,0,3.76-.52,4.92-1.56l1.44,1.64c-1.4,1.44-3.8,2.28-6.48,2.28-5.64,0-9.52-4.04-9.52-9.88ZM181.28,115.65c.08-3.92-2.24-6.28-5.52-6.28-3.56,0-5.92,2.48-6.32,6.28h11.84Z"/>
    <path class="cls-2" d="M200.2,124.53c-1.04,1.64-3.04,2.52-5.88,2.52-4.52,0-7.32-2.24-7.32-5.6s2.76-5.76,7.56-5.76c2.32,0,4.08.56,5.28,1.6v-3.04c0-3.28-1.68-4.8-4.84-4.8-2.08,0-4.48.76-6.08,2.4l-1.24-1.76c1.68-2,4.6-2.96,7.4-2.96,4.36,0,7.28,2.32,7.28,7.08v6.08c0,2.12.04,4.24.12,6.36h-2.28v-2.12ZM194.76,125.09c3.2,0,5.08-1.48,5.08-3.68s-1.84-3.64-5.08-3.64-5.2,1.44-5.2,3.64,2,3.68,5.2,3.68Z"/>
    <path class="cls-2" d="M208.96,107.53h2.44v3.32c1.48-2.8,4.04-3.72,6.28-3.72,2.96,0,5.2,1.32,6.28,4.12,1.52-3.12,4.44-4.12,6.72-4.12,4.2,0,7,2.64,7,8.24v11.28h-2.48v-10.96c0-4.36-2.04-6.2-5.08-6.2s-5.52,2.16-5.52,6.16v11h-2.52v-10.96c0-4.36-2-6.2-5.04-6.2s-5.56,2.16-5.56,6.16v11h-2.52v-19.12Z"/>
  </g>
  <g id="Layer_1-2" data-name="Layer 1">
    <path class="cls-1" d="M87.61,14.16c-.58-.6-1.54-.6-2.13,0-.66.65-.58,1.78.24,2.32.5.33,1.16.33,1.66,0,.81-.54.89-1.67.24-2.32M85.67,9.05c-4.02-.94-7.63,2.67-6.69,6.69.48,2.05,2.11,3.67,4.15,4.15,4.02.95,7.64-2.67,6.69-6.69-.48-2.05-2.11-3.67-4.15-4.15M59.12,31.69c-2.62-.97-3.63-.78-6.98-.73-2.32.03-2.41-.05-5.06-.05-.82,0-1.12,3.92,1.84,4.74,1.3.36,2.7.58,3.67,1.58.43.44.68,1.1-.32,1.1h-7.35c-1.29,0-2.5.03-3.49-.8-1.49-1.25-2.18-2.98-2.92-4.7-.77-1.78-1.6-3.54-2.58-5.21-1.94-3.34-4.51-6.36-7.96-8.21-4.3-2.31-11.6-3.45-17.38.99-6.09,4.68-4.78,13.44.54,17.73,2.1,1.69,4.85,2.4,7.54,2.24,5.27-.31,9.15-4.19,8.19-8.97-.32-1.6-1.26-3.11-2.66-3.94-1-.58-2.18-.79-3.34-.8-1.24,0-2.57.25-3.46,1.12-1.06,1.03-1.23,2.83-.38,4.04.47.67,1.23,1.23,1.1,2.1-.09.59-.57,1.03-1.16,1.16-.99.22-1.89-.34-2.56-1.03-1.71-1.76-2.25-4.57-1.31-6.84,1.23-2.97,4.66-4.61,7.88-4.5,4.15.14,8.06,2.88,9.76,6.66,1.7,3.79,1.19,8.44-1.15,11.86-5.21,7.61-18.07,6.71-24.05.29C1.78,37.5-.26,33.59.03,26.32c.2-5.14,3.17-10.21,6.95-13.77C13.14,6.74,21.26,2.76,29.52,1.05,34.54.02,39.72-.23,44.81.28c4.49.45,8.96,1.27,13.27,2.61,2.14.67,4.25,1.46,6.29,2.4,1.8.83,4.16,1.73,5.56,3.15,0-2.58-.1-5.42-.1-7.39,0-.75.79-1.26,1.47-.94,2.92,1.36,9.84,4.63,14.46,6.74,6.18,2.82,6.62,9.49,6.84,15.4,0,.13.01.27-.05.38-.2.41-1.24.3-1.62.3-.74,0-1.86,0-2.59.03-1.48.07-2.91.04-4.39-.03-2.73-.13-5.37-1.35-7.14-2.83-.17-.15-.75-.31-1.01-.03-.28.29-.18.74-.03.89,1.01,1.02,2.11,1.68,3.39,2.35,1.63.83,3.39,1.04,5.19,1.15,1.92.11,3.86.09,5.78-.11,1.6-.16,2.01-.27.43.9-1.39,1.03-3,1.77-4.63,2.32-2.34.8-4.82,1.19-7.29,1.26-1.5.04-3-.04-4.48-.23-.77-.1-1.53-.24-2.3-.31-.63-.06-1.27-.18-1.9-.05-.57.12-1.09.43-1.45.89-.49.64-.66,2.39-.37,3.15.55,1.47,1.75,2.33,3.01,3.08,1.37.82,3.18,1.09,3.53,2.65.07.32-2.84.33-3.17.33h-3.88s-2.11.05-2.93-.25c-.03,0-.05-.02-.07-.03-.45-.24-.64-.84-.79-1.29-.22-.64-.6-1.28-1.06-1.94-.88-1.25-2.22-2.62-3.63-3.14M88.5,14.46c0,2.28-1.84,4.12-4.11,4.12s-4.11-1.84-4.11-4.12,1.84-4.11,4.11-4.11,4.11,1.84,4.11,4.11"/>
  </g>
</svg>