<?xml version="1.0" encoding="UTF-8"?>
<svg id="Layer_1" data-name="Layer 1" xmlns="http://www.w3.org/2000/svg" viewBox="0 0 360.87 36.56">
  <defs>
    <style>
      .cls-1 {
        fill: #42b077;
      }

      .cls-2 {
        fill: #0b3835;
      }
    </style>
  </defs>
  <g id="Layer_1-2" data-name="Layer 1">
    <path class="cls-1" d="M66.12,12.51c-.38.25-.88.25-1.25,0-.62-.41-.68-1.26-.18-1.76.44-.46,1.17-.46,1.61,0,.49.49.44,1.35-.18,1.76M67.91,10.02c.72,3.04-2.02,5.78-5.06,5.06-1.55-.36-2.78-1.59-3.14-3.14-.71-3.04,2.02-5.77,5.06-5.06,1.55.36,2.78,1.59,3.14,3.14M47.44,26.38c.35.5.64.98.8,1.46.11.34.26.79.6.98.02.01.04.02.06.03.62.23,2.21.19,2.21.19h2.93c.25,0,2.45,0,2.4-.25-.26-1.18-1.63-1.39-2.67-2.01-.96-.57-1.86-1.22-2.28-2.33-.21-.57-.09-1.9.28-2.38.27-.35.67-.58,1.09-.67.47-.1.96-.01,1.44.03.58.06,1.16.16,1.74.24,1.12.15,2.26.2,3.39.17,1.87-.05,3.74-.35,5.51-.95,1.24-.41,2.45-.98,3.5-1.76,1.19-.89.88-.8-.33-.68-1.45.15-2.91.17-4.37.08-1.36-.08-2.7-.24-3.92-.87-.97-.5-1.8-1-2.56-1.77-.11-.12-.19-.46.02-.68.2-.21.64-.09.77.02,1.34,1.12,3.33,2.04,5.4,2.14,1.12.06,2.2.08,3.32.03.56-.03,1.4-.02,1.96-.03.29,0,1.08.08,1.22-.23.05-.09.04-.19.04-.29-.16-4.47-.49-9.51-5.17-11.64-3.49-1.6-8.72-4.07-10.93-5.09-.51-.24-1.11.14-1.11.71,0,1.49.08,3.64.08,5.59-1.06-1.08-2.84-1.76-4.2-2.38-1.54-.71-3.13-1.31-4.75-1.81-3.26-1.01-6.64-1.63-10.03-1.97-3.85-.38-7.77-.2-11.56.58-6.25,1.29-12.38,4.3-17.04,8.69C2.42,12.23.17,16.06.02,19.94c-.22,5.5,1.33,8.46,4.16,11.5,4.52,4.85,14.24,5.53,18.18-.22,1.77-2.59,2.16-6.1.87-8.97-1.29-2.86-4.24-4.93-7.38-5.04-2.43-.08-5.02,1.16-5.95,3.41-.71,1.72-.31,3.84.99,5.17.5.52,1.19.95,1.94.78.44-.1.81-.43.87-.88.1-.66-.48-1.09-.83-1.59-.64-.91-.51-2.28.29-3.06.68-.65,1.68-.85,2.62-.85.88,0,1.77.16,2.53.6,1.06.62,1.77,1.77,2.01,2.98.73,3.61-2.21,6.55-6.19,6.78-2.04.12-4.11-.41-5.7-1.69-4.03-3.24-5.01-9.87-.41-13.4,4.37-3.36,9.89-2.49,13.14-.75,2.6,1.4,4.55,3.68,6.01,6.2.74,1.27,1.37,2.6,1.95,3.94.56,1.3,1.09,2.6,2.21,3.55.74.63,1.66.61,2.64.61h5.56c.75,0,.57-.5.24-.84-.74-.75-1.8-.92-2.78-1.19-2.24-.62-2.01-3.58-1.39-3.58,2,0,2.07.06,3.82.04,2.53-.04,3.3-.18,5.28.55,1.06.39,2.08,1.43,2.74,2.37"/>
  </g>
  <g>
    <path class="cls-2" d="M88.15,29.12c-2.08,0-3.89-.39-5.44-1.16-1.55-.77-2.87-1.8-3.96-3.08l3.04-3.04c1.09,1.12,2.16,1.92,3.2,2.4s2.15.72,3.32.72c1.57,0,2.81-.37,3.7-1.1.89-.73,1.34-1.69,1.34-2.86,0-.91-.25-1.65-.76-2.22-.51-.57-1.17-1.04-2-1.4-.83-.36-1.74-.68-2.74-.96-1-.28-1.99-.59-2.98-.94-.99-.35-1.89-.8-2.72-1.36-.83-.56-1.49-1.29-2-2.2-.51-.91-.76-2.04-.76-3.4,0-1.76.4-3.27,1.2-4.54.8-1.27,1.94-2.25,3.42-2.94,1.48-.69,3.19-1.04,5.14-1.04,1.81,0,3.45.32,4.9.96,1.45.64,2.65,1.49,3.58,2.56l-3.12,3.12c-.8-.83-1.63-1.45-2.48-1.86-.85-.41-1.83-.62-2.92-.62-1.47,0-2.64.35-3.52,1.06s-1.32,1.65-1.32,2.82c0,.85.25,1.55.76,2.08.51.53,1.18.95,2.02,1.26.84.31,1.76.59,2.76.84s2.01.55,3.02.9c1.01.35,1.93.8,2.76,1.36.83.56,1.49,1.31,2,2.24.51.93.76,2.12.76,3.56,0,1.79-.43,3.34-1.28,4.66-.85,1.32-2.05,2.35-3.58,3.08-1.53.73-3.31,1.1-5.34,1.1Z"/>
    <path class="cls-2" d="M113.51,29.12c-3.28,0-5.91-.85-7.88-2.54-1.97-1.69-2.96-4.26-2.96-7.7V.56h4.92v17.92c0,2.03.53,3.55,1.6,4.56,1.07,1.01,2.51,1.52,4.32,1.52s3.26-.51,4.34-1.52c1.08-1.01,1.62-2.53,1.62-4.56V.56h4.92v18.32c0,2.27-.45,4.16-1.36,5.68-.91,1.52-2.17,2.66-3.8,3.42-1.63.76-3.53,1.14-5.72,1.14Z"/>
    <path class="cls-2" d="M137.91,29.12c-2.08,0-3.89-.39-5.44-1.16-1.55-.77-2.87-1.8-3.96-3.08l3.04-3.04c1.09,1.12,2.16,1.92,3.2,2.4s2.15.72,3.32.72c1.57,0,2.81-.37,3.7-1.1.89-.73,1.34-1.69,1.34-2.86,0-.91-.25-1.65-.76-2.22-.51-.57-1.17-1.04-2-1.4-.83-.36-1.74-.68-2.74-.96-1-.28-1.99-.59-2.98-.94-.99-.35-1.89-.8-2.72-1.36-.83-.56-1.49-1.29-2-2.2-.51-.91-.76-2.04-.76-3.4,0-1.76.4-3.27,1.2-4.54.8-1.27,1.94-2.25,3.42-2.94,1.48-.69,3.19-1.04,5.14-1.04,1.81,0,3.45.32,4.9.96,1.45.64,2.65,1.49,3.58,2.56l-3.12,3.12c-.8-.83-1.63-1.45-2.48-1.86-.85-.41-1.83-.62-2.92-.62-1.47,0-2.64.35-3.52,1.06s-1.32,1.65-1.32,2.82c0,.85.25,1.55.76,2.08.51.53,1.18.95,2.02,1.26.84.31,1.76.59,2.76.84s2.01.55,3.02.9c1.01.35,1.93.8,2.76,1.36.83.56,1.49,1.31,2,2.24.51.93.76,2.12.76,3.56,0,1.79-.43,3.34-1.28,4.66-.85,1.32-2.05,2.35-3.58,3.08-1.53.73-3.31,1.1-5.34,1.1Z"/>
    <path class="cls-2" d="M157.07,28.56c-1.36,0-2.47-.44-3.34-1.32-.87-.88-1.3-2-1.3-3.36V5.24c0-1.36.43-2.48,1.3-3.36.87-.88,1.98-1.32,3.34-1.32h13.64v4.48h-12c-.4,0-.74.14-1.02.42s-.42.62-.42,1.02v16.16c0,.4.14.74.42,1.02s.62.42,1.02.42h12v4.48h-13.64ZM154.79,16.64v-4.28h15.08v4.28h-15.08Z"/>
    <path class="cls-2" d="M182.59,28.56L193.43.56h3.16l10.88,28h-2.76l-9.92-25.92h.52l-10,25.92h-2.72ZM186.95,20.56l.92-2.32h14.36l.92,2.32h-16.2Z"/>
    <path class="cls-2" d="M209.51,3V.56h12.84v2.44h-12.84ZM209.51,28.56v-2.44h12.84v2.44h-12.84ZM214.55,27.72V1.4h2.68v26.32h-2.68Z"/>
    <path class="cls-2" d="M236.95,28.56V4.88c0-1.23.41-2.25,1.22-3.08s1.85-1.24,3.1-1.24h12.36v2.44h-11.56c-.69,0-1.28.24-1.76.72s-.72,1.07-.72,1.76v23.08h-2.64ZM238.35,16.56v-2.44h14.44v2.44h-14.44Z"/>
    <path class="cls-2" d="M262.71,28.96c-2.24,0-4.02-.51-5.34-1.54-1.32-1.03-1.98-2.38-1.98-4.06,0-1.09.29-2.07.88-2.94.59-.87,1.45-1.55,2.6-2.06,1.15-.51,2.52-.76,4.12-.76,2.21,0,3.93.49,5.14,1.48,1.21.99,1.82,2.29,1.82,3.92h-.48c0,1.87-.56,3.33-1.68,4.38-1.12,1.05-2.81,1.58-5.08,1.58ZM268.59,28.56l-.04-6.96-.28-.76v-4.68c0-1.65-.41-2.87-1.24-3.64-.83-.77-2.03-1.16-3.6-1.16-1.04,0-2.11.2-3.22.6-1.11.4-2.07,1.01-2.9,1.84l-1.24-1.8c.91-.99,2.02-1.73,3.34-2.22,1.32-.49,2.69-.74,4.1-.74s2.71.26,3.8.78c1.09.52,1.95,1.3,2.56,2.34.61,1.04.92,2.36.92,3.96v6.08c0,1.07,0,2.13.02,3.18.01,1.05.05,2.11.1,3.18h-2.32ZM263.19,27c1.6,0,2.85-.34,3.74-1.02.89-.68,1.34-1.57,1.34-2.66s-.45-2.01-1.34-2.66c-.89-.65-2.15-.98-3.78-.98s-2.87.33-3.8.98c-.93.65-1.4,1.54-1.4,2.66s.47,1.98,1.4,2.66c.93.68,2.21,1.02,3.84,1.02Z"/>
    <path class="cls-2" d="M285.31,28.96c-1.89,0-3.57-.41-5.02-1.24-1.45-.83-2.6-1.97-3.44-3.44-.84-1.47-1.26-3.15-1.26-5.04v-.52c0-1.89.42-3.57,1.26-5.02.84-1.45,1.99-2.59,3.44-3.42,1.45-.83,3.13-1.24,5.02-1.24,1.39,0,2.64.24,3.76.72,1.12.48,2.08,1.17,2.88,2.08l-1.6,1.6c-.64-.64-1.38-1.14-2.22-1.5-.84-.36-1.79-.54-2.86-.54-1.36,0-2.59.31-3.68.92-1.09.61-1.95,1.47-2.56,2.58-.61,1.11-.92,2.38-.92,3.82v.52c0,1.47.31,2.75.94,3.84.63,1.09,1.48,1.95,2.56,2.58,1.08.63,2.31.94,3.7.94,1.04,0,1.99-.17,2.84-.5.85-.33,1.61-.85,2.28-1.54l1.56,1.6c-.8.88-1.77,1.57-2.9,2.06-1.13.49-2.39.74-3.78.74Z"/>
    <path class="cls-2" d="M293.99,11.68v-2.24h11.4v2.24h-11.4ZM302.55,28.56c-.64,0-1.26-.09-1.86-.28s-1.13-.48-1.6-.88c-.47-.4-.83-.9-1.1-1.5-.27-.6-.4-1.33-.4-2.18V4.68h2.52v19.2c0,.72.24,1.31.72,1.78.48.47,1.05.7,1.72.7h2.84v2.2h-2.84Z"/>
    <path class="cls-2" d="M317.27,28.96c-1.81,0-3.43-.42-4.84-1.26-1.41-.84-2.52-2-3.32-3.48s-1.2-3.19-1.2-5.14v-.36c0-1.89.4-3.57,1.2-5.02.8-1.45,1.91-2.59,3.32-3.42,1.41-.83,3.03-1.24,4.84-1.24s3.39.41,4.8,1.22c1.41.81,2.52,1.95,3.32,3.4.8,1.45,1.2,3.11,1.2,4.98v.44c0,1.95-.4,3.66-1.2,5.14-.8,1.48-1.91,2.64-3.32,3.48-1.41.84-3.01,1.26-4.8,1.26ZM317.27,26.68c1.33,0,2.51-.33,3.54-.98,1.03-.65,1.83-1.55,2.4-2.68.57-1.13.86-2.45.86-3.94v-.44c0-1.44-.29-2.71-.86-3.8-.57-1.09-1.37-1.95-2.4-2.58-1.03-.63-2.21-.94-3.54-.94s-2.51.32-3.54.96c-1.03.64-1.83,1.51-2.42,2.62-.59,1.11-.88,2.38-.88,3.82v.36c0,1.49.29,2.81.88,3.94.59,1.13,1.39,2.03,2.42,2.68,1.03.65,2.21.98,3.54.98Z"/>
    <path class="cls-2" d="M331.59,28.56V9.44h2.48v4.56l-.4-.04c.24-1.23.63-2.17,1.18-2.82.55-.65,1.21-1.11,2-1.36.79-.25,1.65-.38,2.58-.38h1.64v2.52h-1.84c-1.57,0-2.81.4-3.72,1.2-.91.8-1.36,2.08-1.36,3.84v11.6h-2.56Z"/>
    <path class="cls-2" d="M350.83,29.64l-8.32-20.2h2.8l7.04,17.48-1.52,2.72ZM342.79,36.56v-2.2h3.64c.67,0,1.19-.23,1.58-.7.39-.47.7-1.01.94-1.62l2.52-5.56,6.6-17.04h2.8l-9.32,22.68c-.29.72-.65,1.42-1.06,2.1-.41.68-.95,1.24-1.62,1.68-.67.44-1.52.66-2.56.66h-3.52Z"/>
  </g>
</svg>