<?xml version="1.0" encoding="UTF-8"?>
<svg id="Layer_1" data-name="Layer 1" xmlns="http://www.w3.org/2000/svg" viewBox="0 0 143.6 129.06">
  <defs>
    <style>
      .cls-1 {
        fill: #42b177;
      }

      .cls-2 {
        fill: #f2f2f2;
      }
    </style>
  </defs>
  <g>
    <path class="cls-2" d="M9.4,81.62c-2.08,0-3.89-.39-5.44-1.16-1.55-.77-2.87-1.8-3.96-3.08l3.04-3.04c1.09,1.12,2.16,1.92,3.2,2.4s2.15.72,3.32.72c1.57,0,2.81-.37,3.7-1.1.89-.73,1.34-1.69,1.34-2.86,0-.91-.25-1.65-.76-2.22-.51-.57-1.17-1.04-2-1.4-.83-.36-1.74-.68-2.74-.96-1-.28-1.99-.59-2.98-.94-.99-.35-1.89-.8-2.72-1.36-.83-.56-1.49-1.29-2-2.2-.51-.91-.76-2.04-.76-3.4,0-1.76.4-3.27,1.2-4.54.8-1.27,1.94-2.25,3.42-2.94,1.48-.69,3.19-1.04,5.14-1.04,1.81,0,3.45.32,4.9.96,1.45.64,2.65,1.49,3.58,2.56l-3.12,3.12c-.8-.83-1.63-1.45-2.48-1.86-.85-.41-1.83-.62-2.92-.62-1.47,0-2.64.35-3.52,1.06s-1.32,1.65-1.32,2.82c0,.85.25,1.55.76,2.08.51.53,1.18.95,2.02,1.26.84.31,1.76.59,2.76.84s2.01.55,3.02.9c1.01.35,1.93.8,2.76,1.36.83.56,1.49,1.31,2,2.24.51.93.76,2.12.76,3.56,0,1.79-.43,3.34-1.28,4.66-.85,1.32-2.05,2.35-3.58,3.08-1.53.73-3.31,1.1-5.34,1.1Z"/>
    <path class="cls-2" d="M34.76,81.62c-3.28,0-5.91-.85-7.88-2.54-1.97-1.69-2.96-4.26-2.96-7.7v-18.32h4.92v17.92c0,2.03.53,3.55,1.6,4.56,1.07,1.01,2.51,1.52,4.32,1.52s3.26-.51,4.34-1.52c1.08-1.01,1.62-2.53,1.62-4.56v-17.92h4.92v18.32c0,2.27-.45,4.16-1.36,5.68-.91,1.52-2.17,2.66-3.8,3.42-1.63.76-3.53,1.14-5.72,1.14Z"/>
    <path class="cls-2" d="M59.16,81.62c-2.08,0-3.89-.39-5.44-1.16-1.55-.77-2.87-1.8-3.96-3.08l3.04-3.04c1.09,1.12,2.16,1.92,3.2,2.4s2.15.72,3.32.72c1.57,0,2.81-.37,3.7-1.1.89-.73,1.34-1.69,1.34-2.86,0-.91-.25-1.65-.76-2.22-.51-.57-1.17-1.04-2-1.4-.83-.36-1.74-.68-2.74-.96-1-.28-1.99-.59-2.98-.94-.99-.35-1.89-.8-2.72-1.36-.83-.56-1.49-1.29-2-2.2-.51-.91-.76-2.04-.76-3.4,0-1.76.4-3.27,1.2-4.54.8-1.27,1.94-2.25,3.42-2.94,1.48-.69,3.19-1.04,5.14-1.04,1.81,0,3.45.32,4.9.96,1.45.64,2.65,1.49,3.58,2.56l-3.12,3.12c-.8-.83-1.63-1.45-2.48-1.86-.85-.41-1.83-.62-2.92-.62-1.47,0-2.64.35-3.52,1.06s-1.32,1.65-1.32,2.82c0,.85.25,1.55.76,2.08.51.53,1.18.95,2.02,1.26.84.31,1.76.59,2.76.84s2.01.55,3.02.9c1.01.35,1.93.8,2.76,1.36.83.56,1.49,1.31,2,2.24.51.93.76,2.12.76,3.56,0,1.79-.43,3.34-1.28,4.66-.85,1.32-2.05,2.35-3.58,3.08-1.53.73-3.31,1.1-5.34,1.1Z"/>
    <path class="cls-2" d="M78.32,81.06c-1.36,0-2.47-.44-3.34-1.32-.87-.88-1.3-2-1.3-3.36v-18.64c0-1.36.43-2.48,1.3-3.36.87-.88,1.98-1.32,3.34-1.32h13.64v4.48h-12c-.4,0-.74.14-1.02.42s-.42.62-.42,1.02v16.16c0,.4.14.74.42,1.02s.62.42,1.02.42h12v4.48h-13.64ZM76.04,69.14v-4.28h15.08v4.28h-15.08Z"/>
    <path class="cls-2" d="M103.84,81.06l10.84-28h3.16l10.88,28h-2.76l-9.92-25.92h.52l-10,25.92h-2.72ZM108.2,73.06l.92-2.32h14.36l.92,2.32h-16.2Z"/>
    <path class="cls-2" d="M130.76,55.5v-2.44h12.84v2.44h-12.84ZM130.76,81.06v-2.44h12.84v2.44h-12.84ZM135.8,80.22v-26.32h2.68v26.32h-2.68Z"/>
    <path class="cls-2" d="M2.32,121.06v-23.68c0-1.23.41-2.25,1.22-3.08s1.85-1.24,3.1-1.24h12.36v2.44H7.44c-.69,0-1.28.24-1.76.72s-.72,1.07-.72,1.76v23.08h-2.64ZM3.72,109.06v-2.44h14.44v2.44H3.72Z"/>
    <path class="cls-2" d="M28.08,121.46c-2.24,0-4.02-.51-5.34-1.54-1.32-1.03-1.98-2.38-1.98-4.06,0-1.09.29-2.07.88-2.94.59-.87,1.45-1.55,2.6-2.06,1.15-.51,2.52-.76,4.12-.76,2.21,0,3.93.49,5.14,1.48,1.21.99,1.82,2.29,1.82,3.92h-.48c0,1.87-.56,3.33-1.68,4.38-1.12,1.05-2.81,1.58-5.08,1.58ZM33.96,121.06l-.04-6.96-.28-.76v-4.68c0-1.65-.41-2.87-1.24-3.64-.83-.77-2.03-1.16-3.6-1.16-1.04,0-2.11.2-3.22.6-1.11.4-2.07,1.01-2.9,1.84l-1.24-1.8c.91-.99,2.02-1.73,3.34-2.22,1.32-.49,2.69-.74,4.1-.74s2.71.26,3.8.78c1.09.52,1.95,1.3,2.56,2.34.61,1.04.92,2.36.92,3.96v6.08c0,1.07,0,2.13.02,3.18.01,1.05.05,2.11.1,3.18h-2.32ZM28.56,119.5c1.6,0,2.85-.34,3.74-1.02.89-.68,1.34-1.57,1.34-2.66s-.45-2.01-1.34-2.66c-.89-.65-2.15-.98-3.78-.98s-2.87.33-3.8.98c-.93.65-1.4,1.54-1.4,2.66s.47,1.98,1.4,2.66c.93.68,2.21,1.02,3.84,1.02Z"/>
    <path class="cls-2" d="M50.68,121.46c-1.89,0-3.57-.41-5.02-1.24-1.45-.83-2.6-1.97-3.44-3.44-.84-1.47-1.26-3.15-1.26-5.04v-.52c0-1.89.42-3.57,1.26-5.02.84-1.45,1.99-2.59,3.44-3.42,1.45-.83,3.13-1.24,5.02-1.24,1.39,0,2.64.24,3.76.72,1.12.48,2.08,1.17,2.88,2.08l-1.6,1.6c-.64-.64-1.38-1.14-2.22-1.5-.84-.36-1.79-.54-2.86-.54-1.36,0-2.59.31-3.68.92-1.09.61-1.95,1.47-2.56,2.58-.61,1.11-.92,2.38-.92,3.82v.52c0,1.47.31,2.75.94,3.84.63,1.09,1.48,1.95,2.56,2.58,1.08.63,2.31.94,3.7.94,1.04,0,1.99-.17,2.84-.5.85-.33,1.61-.85,2.28-1.54l1.56,1.6c-.8.88-1.77,1.57-2.9,2.06-1.13.49-2.39.74-3.78.74Z"/>
    <path class="cls-2" d="M59.36,104.18v-2.24h11.4v2.24h-11.4ZM67.92,121.06c-.64,0-1.26-.09-1.86-.28s-1.13-.48-1.6-.88c-.47-.4-.83-.9-1.1-1.5-.27-.6-.4-1.33-.4-2.18v-19.04h2.52v19.2c0,.72.24,1.31.72,1.78.48.47,1.05.7,1.72.7h2.84v2.2h-2.84Z"/>
    <path class="cls-2" d="M82.64,121.46c-1.81,0-3.43-.42-4.84-1.26-1.41-.84-2.52-2-3.32-3.48s-1.2-3.19-1.2-5.14v-.36c0-1.89.4-3.57,1.2-5.02.8-1.45,1.91-2.59,3.32-3.42,1.41-.83,3.03-1.24,4.84-1.24s3.39.41,4.8,1.22c1.41.81,2.52,1.95,3.32,3.4.8,1.45,1.2,3.11,1.2,4.98v.44c0,1.95-.4,3.66-1.2,5.14-.8,1.48-1.91,2.64-3.32,3.48-1.41.84-3.01,1.26-4.8,1.26ZM82.64,119.18c1.33,0,2.51-.33,3.54-.98,1.03-.65,1.83-1.55,2.4-2.68.57-1.13.86-2.45.86-3.94v-.44c0-1.44-.29-2.71-.86-3.8-.57-1.09-1.37-1.95-2.4-2.58-1.03-.63-2.21-.94-3.54-.94s-2.51.32-3.54.96c-1.03.64-1.83,1.51-2.42,2.62-.59,1.11-.88,2.38-.88,3.82v.36c0,1.49.29,2.81.88,3.94.59,1.13,1.39,2.03,2.42,2.68,1.03.65,2.21.98,3.54.98Z"/>
    <path class="cls-2" d="M96.96,121.06v-19.12h2.48v4.56l-.4-.04c.24-1.23.63-2.17,1.18-2.82.55-.65,1.21-1.11,2-1.36.79-.25,1.65-.38,2.58-.38h1.64v2.52h-1.84c-1.57,0-2.81.4-3.72,1.2-.91.8-1.36,2.08-1.36,3.84v11.6h-2.56Z"/>
    <path class="cls-2" d="M116.2,122.14l-8.32-20.2h2.8l7.04,17.48-1.52,2.72ZM108.16,129.06v-2.2h3.64c.67,0,1.19-.23,1.58-.7.39-.47.7-1.01.94-1.62l2.52-5.56,6.6-17.04h2.8l-9.32,22.68c-.29.72-.65,1.42-1.06,2.1-.41.68-.95,1.24-1.62,1.68-.67.44-1.52.66-2.56.66h-3.52Z"/>
  </g>
  <g id="Layer_1-2" data-name="Layer 1">
    <path class="cls-1" d="M84.52,13.66c-.56-.58-1.49-.58-2.05,0-.63.63-.56,1.72.23,2.24.48.32,1.12.32,1.6,0,.78-.52.86-1.61.23-2.24M82.64,8.73c-3.88-.91-7.36,2.58-6.45,6.45.46,1.98,2.03,3.54,4.01,4.01,3.88.91,7.37-2.58,6.45-6.46-.47-1.98-2.03-3.54-4.01-4M57.03,30.57c-2.53-.94-3.51-.75-6.74-.7-2.24.03-2.32-.05-4.88-.05-.79,0-1.08,3.79,1.78,4.57,1.25.35,2.6.56,3.54,1.53.42.42.65,1.07-.31,1.07h-7.09c-1.24,0-2.41.03-3.36-.77-1.43-1.21-2.1-2.88-2.82-4.53-.74-1.72-1.55-3.41-2.49-5.03-1.87-3.22-4.35-6.13-7.68-7.92-4.15-2.23-11.19-3.33-16.77.95-5.88,4.51-4.62,12.97.52,17.1,2.03,1.63,4.68,2.32,7.28,2.16,5.08-.3,8.83-4.04,7.9-8.65-.31-1.54-1.21-3-2.57-3.8-.96-.56-2.11-.77-3.23-.77-1.2,0-2.48.25-3.34,1.08-1.02.99-1.19,2.73-.37,3.9.45.64,1.19,1.19,1.06,2.03-.09.57-.55.99-1.12,1.12-.95.21-1.83-.33-2.47-.99-1.65-1.7-2.17-4.41-1.26-6.6,1.19-2.87,4.5-4.45,7.6-4.35,4,.13,7.77,2.77,9.41,6.43,1.64,3.65,1.15,8.14-1.11,11.44-5.03,7.34-17.43,6.48-23.2.28C1.72,36.18-.25,32.41.03,25.39c.19-4.96,3.06-9.85,6.71-13.29C12.68,6.5,20.51,2.67,28.48,1.01,33.32.01,38.31-.22,43.22.27c4.33.43,8.64,1.23,12.8,2.51,2.07.64,4.1,1.41,6.07,2.31,1.73.8,4.01,1.66,5.36,3.04,0-2.49-.1-5.23-.1-7.13,0-.73.76-1.22,1.42-.91,2.82,1.31,9.49,4.46,13.94,6.5,5.97,2.72,6.39,9.16,6.6,14.86,0,.13.01.26-.05.37-.19.39-1.19.29-1.56.29-.71,0-1.79,0-2.5.03-1.42.06-2.81.04-4.24-.03-2.63-.13-5.18-1.3-6.89-2.73-.17-.14-.72-.3-.98-.03-.27.28-.18.71-.03.86.98.99,2.04,1.62,3.27,2.26,1.57.8,3.27,1.01,5.01,1.11,1.85.11,3.72.08,5.58-.11,1.54-.16,1.94-.26.42.87-1.34.99-2.89,1.71-4.47,2.24-2.26.77-4.65,1.15-7.03,1.22-1.44.04-2.89-.04-4.32-.22-.74-.09-1.48-.23-2.22-.3-.6-.06-1.23-.17-1.83-.04-.55.12-1.05.42-1.4.86-.47.61-.63,2.3-.36,3.04.53,1.42,1.68,2.24,2.9,2.97,1.32.79,3.06,1.05,3.4,2.56.07.31-2.74.32-3.06.32h-3.74s-2.04.05-2.83-.24c-.03,0-.05-.02-.07-.03-.43-.23-.62-.81-.76-1.25-.21-.62-.58-1.23-1.02-1.87-.85-1.21-2.15-2.53-3.5-3.03M85.38,13.95c0,2.2-1.77,3.97-3.97,3.97s-3.97-1.78-3.97-3.97,1.78-3.97,3.97-3.97,3.97,1.78,3.97,3.97"/>
  </g>
</svg>