<?xml version="1.0" encoding="UTF-8"?>
<svg id="Layer_2" xmlns="http://www.w3.org/2000/svg" version="1.1" viewBox="0 0 316.9 130">
  <!-- Generator: Adobe Illustrator 29.0.0, SVG Export Plug-In . SVG Version: 2.1.0 Build 186)  -->
  <defs>
    <style>
      .st0 {
        fill: #fff;
      }
    </style>
  </defs>
  <g id="Layer_1-2">
    <path class="st0" d="M0,77.9l3-3c2.2,2.2,4.2,3.1,6.5,3.1s5-1.6,5-4c0-6.4-14-2.8-14-12.5s3.9-8.5,9.8-8.5,6.6,1.4,8.5,3.5l-3.1,3.1c-1.6-1.6-3.2-2.5-5.4-2.5s-4.9,1.5-4.9,3.9c0,6.1,14.1,2.1,14.1,12.2s-4.1,8.8-10.2,8.8-7.2-1.7-9.4-4.2Z"/>
    <path class="st0" d="M24.2,71.9v-18.3h4.9v17.9c0,4.1,2.4,6.1,6,6.1s5.9-2,5.9-6.1v-17.9h4.9v18.3c0,6.8-4.3,10.2-10.8,10.2s-10.9-3.4-10.9-10.2Z"/>
    <path class="st0" d="M50.4,77.9l3-3c2.2,2.2,4.2,3.1,6.5,3.1s5-1.6,5-4c0-6.4-14-2.8-14-12.5s3.9-8.5,9.8-8.5,6.6,1.4,8.5,3.5l-3.1,3.1c-1.6-1.6-3.2-2.5-5.4-2.5s-4.9,1.5-4.9,3.9c0,6.1,14.1,2.1,14.1,12.2s-4.1,8.8-10.2,8.8-7.2-1.7-9.4-4.2Z"/>
    <path class="st0" d="M74.1,76.9v-18.6c0-2.7,2-4.7,4.7-4.7h13.6v4.5h-12c-.8,0-1.5.6-1.5,1.4v5.9h12.6v4.3h-12.6v6c0,.8.6,1.4,1.5,1.4h12v4.5h-13.6c-2.7,0-4.7-2-4.7-4.7Z"/>
    <path class="st0" d="M88.4,14.5c0,2.3-1.8,4.1-4.1,4.1s-4.1-1.8-4.1-4.1,1.8-4.1,4.1-4.1,4.1,1.8,4.1,4.1M59.1,31.7c-2.6-1-3.6-.8-7-.7-2.3,0-2.4,0-5,0s-1.1,3.9,1.8,4.7c1.3.4,2.7.6,3.7,1.6.4.4.7,1.1-.3,1.1h-7.3c-1.3,0-2.5,0-3.5-.8-1.5-1.2-2.2-3-2.9-4.7-.8-1.8-1.6-3.5-2.6-5.2-1.9-3.3-4.5-6.4-8-8.2-4.3-2.3-11.6-3.4-17.4,1-6.1,4.7-4.8,13.4.5,17.7,2.1,1.7,4.8,2.4,7.5,2.2,5.3-.3,9.1-4.2,8.2-9-.3-1.6-1.2-3.1-2.7-3.9-1-.6-2.2-.8-3.3-.8s-2.6.2-3.5,1.1c-1.1,1-1.2,2.8-.4,4,.5.7,1.2,1.2,1.1,2.1,0,.6-.6,1-1.1,1.2-1,.2-1.9-.3-2.6-1-1.7-1.8-2.2-4.6-1.3-6.8,1.2-3,4.7-4.6,7.9-4.5,4.1.1,8,2.9,9.8,6.7,1.7,3.8,1.2,8.4-1.1,11.8-5.2,7.6-18,6.7-24,.3C1.8,37.5-.3,33.6,0,26.3c.2-5.1,3.2-10.2,7-13.8C13.1,6.7,21.2,2.8,29.5,1.1,34.5,0,39.7-.2,44.8.3c4.5.5,9,1.3,13.3,2.6,2.1.7,4.2,1.5,6.3,2.4,1.8.8,4.2,1.7,5.6,3.2,0-2.6,0-5.4,0-7.4s.8-1.3,1.5-.9c2.9,1.4,9.8,4.6,14.4,6.7,6.2,2.8,6.6,9.5,6.8,15.4,0,.1,0,.3,0,.4-.2.4-1.2.3-1.6.3-.7,0-1.8,0-2.6,0-1.5,0-2.9,0-4.4,0-2.7-.1-5.4-1.4-7.1-2.8-.2-.1-.8-.3-1,0-.3.3-.2.7,0,.9,1,1,2.1,1.7,3.4,2.3,1.6.8,3.4,1,5.2,1.1,1.9.1,3.9,0,5.8-.1,1.6-.2,2-.3.4.9-1.4,1-3,1.8-4.6,2.3-2.3.8-4.8,1.2-7.3,1.3-1.5,0-3,0-4.5-.2-.8-.1-1.5-.2-2.3-.3-.6,0-1.3-.2-1.9,0-.6.1-1.1.4-1.4.9-.5.6-.7,2.4-.4,3.2.6,1.5,1.7,2.3,3,3.1,1.4.8,3.2,1.1,3.5,2.7,0,.3-2.8.3-3.2.3h-3.9s-2.1,0-2.9-.2c0,0,0,0,0,0-.4-.2-.6-.8-.8-1.3-.2-.6-.6-1.3-1.1-1.9-.9-1.2-2.2-2.6-3.6-3.1M85.6,9c-4-.9-7.6,2.7-6.7,6.7.5,2,2.1,3.7,4.2,4.1,4,.9,7.6-2.7,6.7-6.7-.5-2.1-2.1-3.7-4.2-4.1M87.5,14.2c-.6-.6-1.5-.6-2.1,0-.7.6-.6,1.8.2,2.3.5.3,1.2.3,1.7,0,.8-.5.9-1.7.2-2.3"/>
  </g>
  <g>
    <path class="st0" d="M2.1,107.6v-.4c0-8.4,5.6-14.1,13.4-14.1s13.4,5.8,13.4,14.1v.4c0,8.5-5.6,14.4-13.4,14.4s-13.4-5.9-13.4-14.4ZM26.2,107.6v-.4c0-6.9-4.4-11.5-10.7-11.5s-10.7,4.6-10.7,11.5v.4c0,7.1,4.4,11.8,10.7,11.8s10.7-4.7,10.7-11.8Z"/>
    <path class="st0" d="M33.8,102.5h2.4v3.8c1.5-2.6,4.1-4.2,7.2-4.2,5.2,0,9,4,9,9.7v.4c0,5.9-3.7,9.9-9,9.9s-5.6-1.6-7-4v11.6h-2.6s0-27.1,0-27.1ZM49.8,112.1v-.4c0-4.4-2.8-7.4-6.7-7.4s-6.9,3.1-6.9,7.7,2.9,7.7,6.9,7.7,6.7-3,6.7-7.6Z"/>
    <path class="st0" d="M56.1,112.1v-.4c0-5.6,3.6-9.6,8.8-9.6s8.7,4.3,8,10.6h-14.3c.3,4.1,3,6.9,7.1,6.9s3.7-.5,4.9-1.6l1.4,1.6c-1.4,1.4-3.8,2.3-6.5,2.3-5.6,0-9.5-4-9.5-9.9ZM58.6,110.6h11.8c0-3.9-2.2-6.3-5.5-6.3s-5.9,2.5-6.3,6.3Z"/>
    <path class="st0" d="M77.8,102.5h2.5v3.1c1-2.4,3-3.2,5.4-3.2h1.6v2.5h-1.8c-3.2,0-5.1,1.6-5.1,5v11.6h-2.6s0-19.1,0-19.1Z"/>
    <path class="st0" d="M88.9,116.4c0-3.2,2.8-5.8,7.6-5.8s4.1.6,5.3,1.6v-3c0-3.3-1.7-4.8-4.8-4.8s-4.5.8-6.1,2.4l-1.2-1.8c1.8-2,4.6-3,7.4-3,4.3,0,7.3,2.3,7.3,7.1v6.1c0,2.1,0,4.2.1,6.4h-2.3v-2.1c-1,1.6-3,2.5-5.9,2.5-4.5,0-7.3-2.2-7.3-5.6ZM101.8,116.3c0-2.2-1.9-3.6-5.1-3.6s-5.2,1.4-5.2,3.6,2,3.7,5.2,3.7,5.1-1.5,5.1-3.7Z"/>
    <path class="st0" d="M111.4,116.7v-12h-3.6v-2.2h3.6v-4.8h2.5v4.8h5.3v2.2h-5.3v12.2c0,1.4,1.1,2.5,2.4,2.5h2.8v2.2h-2.8c-2.6,0-5-1.5-5-4.8Z"/>
    <path class="st0" d="M125.1,104.7h-3.8v-2.2h6.4v19.1h-2.6v-16.9ZM125,93.7h2.8v4.3h-2.8v-4.3Z"/>
    <path class="st0" d="M132.6,112.1v-.4c0-5.7,4-9.7,9.4-9.7s9.3,4,9.3,9.6v.4c0,5.8-3.9,9.9-9.3,9.9s-9.4-4.1-9.4-9.9ZM148.8,112.1v-.4c0-4.3-2.8-7.3-6.8-7.3s-6.8,3.1-6.8,7.4v.4c0,4.5,2.8,7.6,6.8,7.6s6.8-3.1,6.8-7.6Z"/>
    <path class="st0" d="M156.3,102.5h2.4v3.4c1.6-2.9,4.4-3.8,6.6-3.8,4.3,0,7.3,2.7,7.3,8.4v11.2h-2.6v-10.8c0-4.5-2.3-6.3-5.4-6.3s-5.9,2.2-5.9,6.4v10.8h-2.6v-19.1h0Z"/>
    <path class="st0" d="M177,119.6l1.2-1.8c1.4,1.3,3.6,2.1,5.6,2.1s4.4-1.4,4.4-3.4c0-5-10.6-1.8-10.6-8.9s2.7-5.6,6.8-5.6,4.5.8,6,2l-1.2,1.8c-1.3-1-3-1.7-4.9-1.7s-4.3,1.4-4.3,3.3c0,4.9,10.6,1.8,10.6,9s-2.9,5.5-7,5.5-5.3-.9-6.8-2.4h0Z"/>
    <path class="st0" d="M209.9,96h-8.7v-2.4h20v2.4h-8.7v25.6h-2.7v-25.6h0Z"/>
    <path class="st0" d="M219.9,112.1v-.4c0-5.6,3.6-9.6,8.8-9.6s8.7,4.3,8,10.6h-14.3c.3,4.1,3,6.9,7.1,6.9s3.7-.5,4.9-1.6l1.4,1.6c-1.4,1.4-3.8,2.3-6.5,2.3-5.6,0-9.5-4-9.5-9.9ZM222.4,110.6h11.8c0-3.9-2.2-6.3-5.5-6.3s-5.9,2.5-6.3,6.3h0Z"/>
    <path class="st0" d="M240.1,116.4c0-3.2,2.8-5.8,7.6-5.8s4.1.6,5.3,1.6v-3c0-3.3-1.7-4.8-4.8-4.8s-4.5.8-6.1,2.4l-1.2-1.8c1.8-2,4.6-3,7.4-3,4.3,0,7.3,2.3,7.3,7.1v6.1c0,2.1,0,4.2.1,6.4h-2.3v-2.1c-1,1.6-3,2.5-5.9,2.5-4.5,0-7.3-2.2-7.3-5.6h0ZM253,116.3c0-2.2-1.9-3.6-5.1-3.6s-5.2,1.4-5.2,3.6,2,3.7,5.2,3.7,5.1-1.5,5.1-3.7h0Z"/>
    <path class="st0" d="M261.6,102.5h2.4v3.4c1.4-2.8,4-3.8,6.3-3.8s5.2,1.3,6.2,4.1c1.6-3.1,4.5-4.1,6.8-4.1,4.2,0,7,2.6,7,8.3v11.2h-2.5v-11c0-4.4-2-6.2-5.1-6.2s-5.5,2.2-5.5,6.2v11h-2.5v-11c0-4.4-2-6.2-5-6.2s-5.6,2.2-5.6,6.2v11h-2.5v-19.1h0Z"/>
  </g>
  <g>
    <path class="st0" d="M107.1,53.6h8.5c5.6,0,9.2,2.8,9.2,8.2s-2.7,7.4-7,8l7.8,11.8h-3.1l-7.6-11.7h-5.1v11.7h-2.7s0-28,0-28ZM109.8,55.9v11.7h5.8c3.9,0,6.6-1.7,6.6-5.8s-2.6-5.9-6.6-5.9h-5.8Z"/>
    <path class="st0" d="M128.1,72.1v-.4c0-5.6,3.6-9.6,8.8-9.6s8.7,4.3,8,10.6h-14.3c.3,4.1,3,6.9,7.1,6.9s3.7-.5,4.9-1.6l1.4,1.6c-1.4,1.4-3.8,2.3-6.5,2.3-5.6,0-9.5-4-9.5-9.9ZM130.6,70.6h11.8c0-3.9-2.2-6.3-5.5-6.3s-5.9,2.5-6.3,6.3h0Z"/>
    <path class="st0" d="M147,62.5h2.6l6.4,16.1,6.4-16.1h2.6l-7.7,19.1h-2.7s-7.7-19.1-7.7-19.1Z"/>
    <path class="st0" d="M167.2,72.1v-.4c0-5.6,3.6-9.6,8.8-9.6s8.7,4.3,8,10.6h-14.3c.3,4.1,3,6.9,7.1,6.9s3.7-.5,4.9-1.6l1.4,1.6c-1.4,1.4-3.8,2.3-6.5,2.3-5.6,0-9.5-4-9.5-9.9ZM169.8,70.6h11.8c0-3.9-2.2-6.3-5.5-6.3s-5.9,2.5-6.3,6.3h0Z"/>
    <path class="st0" d="M188.9,62.5h2.4v3.4c1.6-2.9,4.4-3.8,6.6-3.8,4.3,0,7.3,2.7,7.3,8.4v11.2h-2.6v-10.8c0-4.5-2.3-6.3-5.4-6.3s-5.9,2.2-5.9,6.4v10.8h-2.6v-19.1h0Z"/>
    <path class="st0" d="M211.1,74v-11.6h2.5v11.2c0,4.5,2.3,6,5.3,6s5.8-2.1,5.8-6.3v-10.9h2.5v19.1h-2.2v-3.3c-1.5,2.8-4.4,3.7-6.5,3.7-4.3,0-7.4-2.3-7.4-8Z"/>
    <path class="st0" d="M232.2,72.1v-.4c0-5.6,3.6-9.6,8.8-9.6s8.7,4.3,8,10.6h-14.3c.3,4.1,3,6.9,7.1,6.9s3.7-.5,4.9-1.6l1.4,1.6c-1.4,1.4-3.8,2.3-6.5,2.3-5.6,0-9.5-4-9.5-9.9ZM234.8,70.6h11.8c0-3.9-2.2-6.3-5.5-6.3s-5.9,2.5-6.3,6.3h0Z"/>
  </g>
</svg>