<?xml version="1.0" encoding="UTF-8"?>
<svg id="Layer_2" data-name="Layer 2" xmlns="http://www.w3.org/2000/svg" viewBox="0 0 316.88 129.97">
  <defs>
    <style>
      .cls-1 {
        fill: #30ba78;
      }

      .cls-2 {
        fill: #fff;
      }
    </style>
  </defs>
  <g id="Layer_1-2" data-name="Layer 1-2">
    <path class="cls-2" d="M.09,77.89l3.04-3.04c2.16,2.2,4.16,3.12,6.52,3.12,3.16,0,5.04-1.6,5.04-3.96,0-6.44-13.96-2.8-13.96-12.48,0-5.2,3.88-8.52,9.76-8.52,3.6,0,6.6,1.4,8.48,3.52l-3.12,3.12c-1.6-1.64-3.24-2.48-5.36-2.48-2.96,0-4.88,1.52-4.88,3.88,0,6.08,14.08,2.12,14.08,12.24,0,5.36-4.12,8.84-10.2,8.84-4.2,0-7.24-1.68-9.4-4.24Z"/>
    <path class="cls-2" d="M24.17,71.89v-18.32h4.92v17.92c0,4.08,2.36,6.08,5.96,6.08s5.92-2,5.92-6.08v-17.92h4.92v18.32c0,6.84-4.32,10.24-10.84,10.24s-10.88-3.4-10.88-10.24Z"/>
    <path class="cls-2" d="M50.37,77.89l3.04-3.04c2.16,2.2,4.16,3.12,6.52,3.12,3.16,0,5.04-1.6,5.04-3.96,0-6.44-13.96-2.8-13.96-12.48,0-5.2,3.88-8.52,9.76-8.52,3.6,0,6.6,1.4,8.48,3.52l-3.12,3.12c-1.6-1.64-3.24-2.48-5.36-2.48-2.96,0-4.88,1.52-4.88,3.88,0,6.08,14.08,2.12,14.08,12.24,0,5.36-4.12,8.84-10.2,8.84-4.2,0-7.24-1.68-9.4-4.24Z"/>
    <path class="cls-2" d="M74.13,76.89v-18.64c0-2.72,1.96-4.68,4.68-4.68h13.6v4.48h-11.96c-.84,0-1.48.64-1.48,1.44v5.88h12.6v4.28h-12.6v6c0,.8.64,1.44,1.48,1.44h11.96v4.48h-13.6c-2.72,0-4.68-1.96-4.68-4.68Z"/>
    <path class="cls-1" d="M88.42,14.46c0,2.27-1.84,4.11-4.11,4.11s-4.11-1.84-4.11-4.11,1.84-4.11,4.11-4.11,4.11,1.84,4.11,4.11M59.06,31.66c-2.62-.97-3.63-.77-6.98-.73-2.32.03-2.4-.05-5.05-.05-.82,0-1.12,3.92,1.84,4.74,1.3.36,2.7.58,3.67,1.58.43.44.67,1.11-.32,1.11h-7.35c-1.29,0-2.5.03-3.48-.8-1.48-1.25-2.18-2.98-2.92-4.69-.77-1.78-1.6-3.53-2.58-5.21-1.94-3.34-4.51-6.35-7.95-8.2-4.3-2.3-11.59-3.45-17.37.99-6.09,4.67-4.78,13.43.54,17.71,2.1,1.69,4.84,2.4,7.54,2.24,5.27-.31,9.15-4.19,8.18-8.96-.32-1.6-1.25-3.11-2.66-3.94-1-.58-2.18-.79-3.34-.79-1.24,0-2.57.25-3.46,1.12-1.06,1.02-1.23,2.83-.38,4.04.47.67,1.23,1.23,1.1,2.1-.09.59-.57,1.03-1.15,1.16-.99.22-1.89-.34-2.56-1.03-1.71-1.76-2.25-4.57-1.31-6.84,1.23-2.97,4.66-4.61,7.87-4.5,4.14.14,8.05,2.87,9.75,6.66,1.7,3.78,1.19,8.43-1.15,11.85-5.2,7.6-18.05,6.71-24.03.29C1.78,37.47-.26,33.57.03,26.3c.2-5.14,3.17-10.2,6.95-13.76C13.13,6.74,21.24,2.77,29.49,1.06,34.51.02,39.68-.22,44.77.29c4.49.45,8.95,1.27,13.26,2.6,2.14.67,4.25,1.46,6.28,2.39,1.8.82,4.15,1.72,5.55,3.15,0-2.58-.1-5.41-.1-7.39,0-.75.79-1.26,1.47-.94,2.92,1.35,9.83,4.62,14.44,6.73,6.18,2.82,6.62,9.48,6.83,15.39,0,.13.01.27-.05.39-.19.4-1.24.29-1.62.3-.74,0-1.85,0-2.59.04-1.47.06-2.91.04-4.39-.04-2.73-.13-5.36-1.35-7.13-2.83-.18-.15-.75-.31-1.01-.03-.28.29-.18.74-.03.89,1.01,1.02,2.11,1.68,3.39,2.34,1.62.83,3.39,1.04,5.18,1.15,1.92.11,3.86.09,5.77-.11,1.6-.16,2.01-.27.44.9-1.39,1.03-3,1.77-4.63,2.32-2.34.8-4.81,1.19-7.28,1.26-1.5.04-2.99-.04-4.48-.23-.77-.1-1.53-.23-2.3-.31-.63-.06-1.27-.18-1.9-.05-.57.12-1.09.43-1.45.89-.49.64-.66,2.39-.37,3.15.55,1.47,1.74,2.32,3.01,3.08,1.37.81,3.17,1.09,3.52,2.65.07.33-2.84.33-3.17.33h-3.88s-2.11.05-2.93-.25c-.03,0-.05-.02-.07-.03-.45-.24-.64-.84-.79-1.29-.22-.64-.6-1.27-1.06-1.93-.88-1.25-2.22-2.62-3.62-3.14M85.59,9.04c-4.02-.94-7.63,2.67-6.68,6.68.48,2.04,2.1,3.67,4.15,4.15,4.02.94,7.63-2.67,6.68-6.69-.48-2.05-2.11-3.67-4.15-4.15M87.53,14.16c-.58-.6-1.54-.6-2.13,0-.66.65-.58,1.78.24,2.32.5.33,1.16.33,1.65,0,.81-.54.89-1.67.24-2.32"/>
  </g>
  <g>
    <path class="cls-2" d="M2.08,107.61v-.36c0-8.36,5.6-14.12,13.4-14.12s13.4,5.76,13.4,14.12v.36c0,8.52-5.6,14.4-13.4,14.4s-13.4-5.88-13.4-14.4ZM26.16,107.61v-.36c0-6.88-4.44-11.52-10.68-11.52s-10.68,4.64-10.68,11.52v.36c0,7.08,4.44,11.8,10.68,11.8s10.68-4.72,10.68-11.8Z"/>
    <path class="cls-2" d="M33.84,102.45h2.4v3.84c1.48-2.6,4.08-4.24,7.2-4.24,5.2,0,8.96,4,8.96,9.68v.36c0,5.88-3.72,9.88-8.96,9.88-3.04,0-5.56-1.56-7.04-4.04v11.64h-2.56v-27.12ZM49.84,112.09v-.36c0-4.4-2.8-7.4-6.72-7.4s-6.88,3.12-6.88,7.68,2.92,7.68,6.88,7.68,6.72-3.04,6.72-7.6Z"/>
    <path class="cls-2" d="M56.08,112.09v-.4c0-5.56,3.56-9.64,8.84-9.64s8.68,4.28,7.96,10.64h-14.28c.28,4.08,3,6.92,7.12,6.92,2.04,0,3.72-.52,4.92-1.56l1.44,1.64c-1.44,1.44-3.8,2.28-6.48,2.28-5.64,0-9.52-4.04-9.52-9.88ZM58.64,110.57h11.84c.08-3.88-2.2-6.28-5.52-6.28-3.56,0-5.92,2.52-6.32,6.28Z"/>
    <path class="cls-2" d="M77.8,102.45h2.48v3.12c.96-2.44,3-3.16,5.36-3.16h1.64v2.52h-1.84c-3.16,0-5.08,1.56-5.08,5.04v11.6h-2.56v-19.12Z"/>
    <path class="cls-2" d="M88.88,116.37c0-3.24,2.76-5.76,7.6-5.76,2.28,0,4.08.56,5.28,1.6v-3.04c0-3.28-1.68-4.8-4.84-4.8-2.08,0-4.48.76-6.12,2.44l-1.24-1.8c1.8-1.96,4.6-2.96,7.44-2.96,4.32,0,7.28,2.32,7.28,7.08v6.08c0,2.12,0,4.24.12,6.36h-2.32v-2.12c-1.04,1.64-3,2.52-5.88,2.52-4.48,0-7.32-2.24-7.32-5.6ZM101.76,116.33c0-2.2-1.88-3.64-5.12-3.64s-5.2,1.44-5.2,3.64,2,3.68,5.24,3.68,5.08-1.48,5.08-3.68Z"/>
    <path class="cls-2" d="M111.36,116.73v-12.04h-3.6v-2.24h3.6v-4.76h2.52v4.76h5.28v2.24h-5.28v12.2c0,1.44,1.08,2.48,2.44,2.48h2.84v2.2h-2.84c-2.56,0-4.96-1.48-4.96-4.84Z"/>
    <path class="cls-2" d="M125.08,104.69h-3.8v-2.24h6.36v19.12h-2.56v-16.88ZM125,93.73h2.76v4.32h-2.76v-4.32Z"/>
    <path class="cls-2" d="M132.64,112.09v-.36c0-5.68,3.96-9.68,9.36-9.68s9.32,4,9.32,9.6v.44c0,5.8-3.92,9.88-9.32,9.88s-9.36-4.08-9.36-9.88ZM148.8,112.09v-.44c0-4.32-2.8-7.32-6.8-7.32s-6.84,3.08-6.84,7.4v.36c0,4.48,2.84,7.6,6.84,7.6s6.8-3.12,6.8-7.6Z"/>
    <path class="cls-2" d="M156.32,102.45h2.44v3.4c1.56-2.88,4.44-3.8,6.6-3.8,4.28,0,7.32,2.72,7.32,8.36v11.16h-2.56v-10.84c0-4.48-2.28-6.32-5.36-6.32s-5.88,2.16-5.88,6.36v10.8h-2.56v-19.12Z"/>
    <path class="cls-2" d="M177,119.57l1.16-1.76c1.4,1.28,3.56,2.08,5.64,2.08,2.64,0,4.44-1.36,4.44-3.36,0-5-10.56-1.8-10.56-8.88,0-3.28,2.68-5.6,6.76-5.6,2.36,0,4.48.8,6,1.96l-1.16,1.8c-1.32-1.04-3-1.68-4.88-1.68-2.56,0-4.28,1.36-4.28,3.32,0,4.92,10.64,1.84,10.64,9,0,3.24-2.88,5.48-6.96,5.48-2.68,0-5.28-.92-6.8-2.36Z"/>
    <path class="cls-2" d="M209.88,96.01h-8.68v-2.44h20.04v2.44h-8.68v25.56h-2.68v-25.56Z"/>
    <path class="cls-2" d="M219.88,112.09v-.4c0-5.56,3.56-9.64,8.84-9.64s8.68,4.28,7.96,10.64h-14.28c.28,4.08,3,6.92,7.12,6.92,2.04,0,3.72-.52,4.92-1.56l1.44,1.64c-1.44,1.44-3.8,2.28-6.48,2.28-5.64,0-9.52-4.04-9.52-9.88ZM222.44,110.57h11.84c.08-3.88-2.2-6.28-5.52-6.28-3.56,0-5.92,2.52-6.32,6.28Z"/>
    <path class="cls-2" d="M240.08,116.37c0-3.24,2.76-5.76,7.6-5.76,2.28,0,4.08.56,5.28,1.6v-3.04c0-3.28-1.68-4.8-4.84-4.8-2.08,0-4.48.76-6.12,2.44l-1.24-1.8c1.8-1.96,4.6-2.96,7.44-2.96,4.32,0,7.28,2.32,7.28,7.08v6.08c0,2.12,0,4.24.12,6.36h-2.32v-2.12c-1.04,1.64-3,2.52-5.88,2.52-4.48,0-7.32-2.24-7.32-5.6ZM252.96,116.33c0-2.2-1.88-3.64-5.12-3.64s-5.2,1.44-5.2,3.64,2,3.68,5.24,3.68,5.08-1.48,5.08-3.68Z"/>
    <path class="cls-2" d="M261.6,102.45h2.44v3.36c1.44-2.8,4.04-3.76,6.32-3.76,2.92,0,5.16,1.32,6.2,4.12,1.56-3.12,4.48-4.12,6.76-4.12,4.2,0,7,2.64,7,8.28v11.24h-2.48v-10.96c0-4.4-2.04-6.2-5.08-6.2s-5.52,2.16-5.52,6.16v11h-2.52v-10.96c0-4.4-2-6.2-5.04-6.2s-5.56,2.16-5.56,6.16v11h-2.52v-19.12Z"/>
  </g>
  <g>
    <path class="cls-2" d="M107.13,53.57h8.52c5.56,0,9.2,2.8,9.2,8.16,0,4.88-2.68,7.4-6.96,8l7.8,11.84h-3.12l-7.64-11.68h-5.12v11.68h-2.68v-28ZM109.81,55.89v11.68h5.76c3.92,0,6.56-1.72,6.56-5.8,0-3.8-2.64-5.88-6.56-5.88h-5.76Z"/>
    <path class="cls-2" d="M128.05,72.09v-.4c0-5.56,3.56-9.64,8.84-9.64s8.68,4.28,7.96,10.64h-14.28c.28,4.08,3,6.92,7.12,6.92,2.04,0,3.72-.52,4.92-1.56l1.44,1.64c-1.44,1.44-3.8,2.28-6.48,2.28-5.64,0-9.52-4.04-9.52-9.88ZM130.61,70.57h11.84c.08-3.88-2.2-6.28-5.52-6.28-3.56,0-5.92,2.52-6.32,6.28Z"/>
    <path class="cls-2" d="M146.97,62.45h2.64l6.4,16.08,6.44-16.08h2.64l-7.72,19.12h-2.68l-7.72-19.12Z"/>
    <path class="cls-2" d="M167.21,72.09v-.4c0-5.56,3.56-9.64,8.84-9.64s8.68,4.28,7.96,10.64h-14.28c.28,4.08,3,6.92,7.12,6.92,2.04,0,3.72-.52,4.92-1.56l1.44,1.64c-1.44,1.44-3.8,2.28-6.48,2.28-5.64,0-9.52-4.04-9.52-9.88ZM169.77,70.57h11.84c.08-3.88-2.2-6.28-5.52-6.28-3.56,0-5.92,2.52-6.32,6.28Z"/>
    <path class="cls-2" d="M188.93,62.45h2.44v3.4c1.56-2.88,4.44-3.8,6.6-3.8,4.28,0,7.32,2.72,7.32,8.36v11.16h-2.56v-10.84c0-4.48-2.28-6.32-5.36-6.32s-5.88,2.16-5.88,6.36v10.8h-2.56v-19.12Z"/>
    <path class="cls-2" d="M211.05,74.01v-11.56h2.52v11.16c0,4.52,2.28,6,5.32,6s5.84-2.08,5.84-6.28v-10.88h2.48v19.12h-2.24v-3.32c-1.52,2.8-4.36,3.72-6.52,3.72-4.28,0-7.4-2.32-7.4-7.96Z"/>
    <path class="cls-2" d="M232.21,72.09v-.4c0-5.56,3.56-9.64,8.84-9.64s8.68,4.28,7.96,10.64h-14.28c.28,4.08,3,6.92,7.12,6.92,2.04,0,3.72-.52,4.92-1.56l1.44,1.64c-1.44,1.44-3.8,2.28-6.48,2.28-5.64,0-9.52-4.04-9.52-9.88ZM234.77,70.57h11.84c.08-3.88-2.2-6.28-5.52-6.28-3.56,0-5.92,2.52-6.32,6.28Z"/>
  </g>
</svg>