<?xml version="1.0" encoding="UTF-8"?>
<svg id="Layer_2" xmlns="http://www.w3.org/2000/svg" version="1.1" viewBox="0 0 639.8 37.9">
  <!-- Generator: Adobe Illustrator 29.0.0, SVG Export Plug-In . SVG Version: 2.1.0 Build 186)  -->
  <defs>
    <style>
      .st0 {
        fill: #fff;
      }
    </style>
  </defs>
  <g>
    <path class="st0" d="M194.7,1.9h8.5c5.6,0,9.2,2.8,9.2,8.2s-2.7,7.4-7,8l7.8,11.8h-3.1l-7.6-11.7h-5.1v11.7h-2.7V1.9h0ZM197.4,4.2v11.7h5.8c3.9,0,6.6-1.7,6.6-5.8s-2.6-5.9-6.6-5.9h-5.8Z"/>
    <path class="st0" d="M215.6,20.4v-.4c0-5.6,3.6-9.6,8.8-9.6s8.7,4.3,8,10.6h-14.3c.3,4.1,3,6.9,7.1,6.9s3.7-.5,4.9-1.6l1.4,1.6c-1.4,1.4-3.8,2.3-6.5,2.3-5.6,0-9.5-4-9.5-9.9ZM218.2,18.9h11.8c0-3.9-2.2-6.3-5.5-6.3s-5.9,2.5-6.3,6.3h0Z"/>
    <path class="st0" d="M234.5,10.8h2.6l6.4,16.1,6.4-16.1h2.6l-7.7,19.1h-2.7l-7.7-19.1Z"/>
    <path class="st0" d="M254.8,20.4v-.4c0-5.6,3.6-9.6,8.8-9.6s8.7,4.3,8,10.6h-14.3c.3,4.1,3,6.9,7.1,6.9s3.7-.5,4.9-1.6l1.4,1.6c-1.4,1.4-3.8,2.3-6.5,2.3-5.6,0-9.5-4-9.5-9.9ZM257.3,18.9h11.8c0-3.9-2.2-6.3-5.5-6.3s-5.9,2.5-6.3,6.3Z"/>
    <path class="st0" d="M276.5,10.8h2.4v3.4c1.6-2.9,4.4-3.8,6.6-3.8,4.3,0,7.3,2.7,7.3,8.4v11.2h-2.6v-10.8c0-4.5-2.3-6.3-5.4-6.3s-5.9,2.2-5.9,6.4v10.8h-2.6V10.8h0Z"/>
    <path class="st0" d="M298.6,22.3v-11.6h2.5v11.2c0,4.5,2.3,6,5.3,6s5.8-2.1,5.8-6.3v-10.9h2.5v19.1h-2.2v-3.3c-1.5,2.8-4.4,3.7-6.5,3.7-4.3,0-7.4-2.3-7.4-8h0Z"/>
    <path class="st0" d="M319.8,20.4v-.4c0-5.6,3.6-9.6,8.8-9.6s8.7,4.3,8,10.6h-14.3c.3,4.1,3,6.9,7.1,6.9s3.7-.5,4.9-1.6l1.4,1.6c-1.4,1.4-3.8,2.3-6.5,2.3-5.6,0-9.5-4-9.5-9.9ZM322.3,18.9h11.8c0-3.9-2.2-6.3-5.5-6.3s-5.9,2.5-6.3,6.3Z"/>
    <path class="st0" d="M349.9,15.9v-.4c0-8.4,5.6-14.1,13.4-14.1s13.4,5.8,13.4,14.1v.4c0,8.5-5.6,14.4-13.4,14.4s-13.4-5.9-13.4-14.4ZM374,15.9v-.4c0-6.9-4.4-11.5-10.7-11.5s-10.7,4.6-10.7,11.5v.4c0,7.1,4.4,11.8,10.7,11.8s10.7-4.7,10.7-11.8Z"/>
    <path class="st0" d="M381.7,10.8h2.4v3.8c1.5-2.6,4.1-4.2,7.2-4.2,5.2,0,9,4,9,9.7v.4c0,5.9-3.7,9.9-9,9.9s-5.6-1.6-7-4v11.6h-2.6V10.8ZM397.7,20.4v-.4c0-4.4-2.8-7.4-6.7-7.4s-6.9,3.1-6.9,7.7,2.9,7.7,6.9,7.7,6.7-3,6.7-7.6Z"/>
    <path class="st0" d="M403.9,20.4v-.4c0-5.6,3.6-9.6,8.8-9.6s8.7,4.3,8,10.6h-14.3c.3,4.1,3,6.9,7.1,6.9s3.7-.5,4.9-1.6l1.4,1.6c-1.4,1.4-3.8,2.3-6.5,2.3-5.6,0-9.5-4-9.5-9.9ZM406.5,18.9h11.8c0-3.9-2.2-6.3-5.5-6.3s-5.9,2.5-6.3,6.3Z"/>
    <path class="st0" d="M425.6,10.8h2.5v3.1c1-2.4,3-3.2,5.4-3.2h1.6v2.5h-1.8c-3.2,0-5.1,1.6-5.1,5v11.6h-2.6V10.8h0Z"/>
    <path class="st0" d="M436.7,24.7c0-3.2,2.8-5.8,7.6-5.8s4.1.6,5.3,1.6v-3c0-3.3-1.7-4.8-4.8-4.8s-4.5.8-6.1,2.4l-1.2-1.8c1.8-2,4.6-3,7.4-3,4.3,0,7.3,2.3,7.3,7.1v6.1c0,2.1,0,4.2.1,6.4h-2.3v-2.1c-1,1.6-3,2.5-5.9,2.5-4.5,0-7.3-2.2-7.3-5.6ZM449.6,24.7c0-2.2-1.9-3.6-5.1-3.6s-5.2,1.4-5.2,3.6,2,3.7,5.2,3.7,5.1-1.5,5.1-3.7h0Z"/>
    <path class="st0" d="M459.2,25.1v-12h-3.6v-2.2h3.6v-4.8h2.5v4.8h5.3v2.2h-5.3v12.2c0,1.4,1.1,2.5,2.4,2.5h2.8v2.2h-2.8c-2.6,0-5-1.5-5-4.8Z"/>
    <path class="st0" d="M472.9,13h-3.8v-2.2h6.4v19.1h-2.6V13ZM472.9,2.1h2.8v4.3h-2.8V2.1Z"/>
    <path class="st0" d="M480.5,20.4v-.4c0-5.7,4-9.7,9.4-9.7s9.3,4,9.3,9.6v.4c0,5.8-3.9,9.9-9.3,9.9s-9.4-4.1-9.4-9.9ZM496.6,20.4v-.4c0-4.3-2.8-7.3-6.8-7.3s-6.8,3.1-6.8,7.4v.4c0,4.5,2.8,7.6,6.8,7.6s6.8-3.1,6.8-7.6Z"/>
    <path class="st0" d="M504.2,10.8h2.4v3.4c1.6-2.9,4.4-3.8,6.6-3.8,4.3,0,7.3,2.7,7.3,8.4v11.2h-2.6v-10.8c0-4.5-2.3-6.3-5.4-6.3s-5.9,2.2-5.9,6.4v10.8h-2.6V10.8h0Z"/>
    <path class="st0" d="M524.8,27.9l1.2-1.8c1.4,1.3,3.6,2.1,5.6,2.1s4.4-1.4,4.4-3.4c0-5-10.6-1.8-10.6-8.9s2.7-5.6,6.8-5.6,4.5.8,6,2l-1.2,1.8c-1.3-1-3-1.7-4.9-1.7s-4.3,1.4-4.3,3.3c0,4.9,10.6,1.8,10.6,9s-2.9,5.5-7,5.5-5.3-.9-6.8-2.4Z"/>
    <path class="st0" d="M557.7,4.3h-8.7V1.9h20v2.4h-8.7v25.6h-2.7V4.3Z"/>
    <path class="st0" d="M567.7,20.4v-.4c0-5.6,3.6-9.6,8.8-9.6s8.7,4.3,8,10.6h-14.3c.3,4.1,3,6.9,7.1,6.9s3.7-.5,4.9-1.6l1.4,1.6c-1.4,1.4-3.8,2.3-6.5,2.3-5.6,0-9.5-4-9.5-9.9ZM570.3,18.9h11.8c0-3.9-2.2-6.3-5.5-6.3s-5.9,2.5-6.3,6.3Z"/>
    <path class="st0" d="M587.9,24.7c0-3.2,2.8-5.8,7.6-5.8s4.1.6,5.3,1.6v-3c0-3.3-1.7-4.8-4.8-4.8s-4.5.8-6.1,2.4l-1.2-1.8c1.8-2,4.6-3,7.4-3,4.3,0,7.3,2.3,7.3,7.1v6.1c0,2.1,0,4.2.1,6.4h-2.3v-2.1c-1,1.6-3,2.5-5.9,2.5-4.5,0-7.3-2.2-7.3-5.6ZM600.8,24.7c0-2.2-1.9-3.6-5.1-3.6s-5.2,1.4-5.2,3.6,2,3.7,5.2,3.7,5.1-1.5,5.1-3.7Z"/>
    <path class="st0" d="M609.5,10.8h2.4v3.4c1.4-2.8,4-3.8,6.3-3.8s5.2,1.3,6.2,4.1c1.6-3.1,4.5-4.1,6.8-4.1,4.2,0,7,2.6,7,8.3v11.2h-2.5v-11c0-4.4-2-6.2-5.1-6.2s-5.5,2.2-5.5,6.2v11h-2.5v-11c0-4.4-2-6.2-5-6.2s-5.6,2.2-5.6,6.2v11h-2.5V10.8Z"/>
  </g>
  <g>
    <g>
      <path class="st0" d="M85.4,26.1l3-3c2.2,2.2,4.2,3.1,6.5,3.1s5-1.6,5-4c0-6.4-14-2.8-14-12.5s3.9-8.5,9.8-8.5,6.6,1.4,8.5,3.5l-3.1,3.1c-1.6-1.6-3.2-2.5-5.4-2.5s-4.9,1.5-4.9,3.9c0,6.1,14.1,2.1,14.1,12.2s-4.1,8.8-10.2,8.8-7.2-1.7-9.4-4.2Z"/>
      <path class="st0" d="M109.4,20.1V1.8h4.9v17.9c0,4.1,2.4,6.1,6,6.1s5.9-2,5.9-6.1V1.8h4.9v18.3c0,6.8-4.3,10.2-10.8,10.2s-10.9-3.4-10.9-10.2h0Z"/>
      <path class="st0" d="M135.6,26.1l3-3c2.2,2.2,4.2,3.1,6.5,3.1s5-1.6,5-4c0-6.4-14-2.8-14-12.5s3.9-8.5,9.8-8.5,6.6,1.4,8.5,3.5l-3.1,3.1c-1.6-1.6-3.2-2.5-5.4-2.5s-4.9,1.5-4.9,3.9c0,6.1,14.1,2.1,14.1,12.2s-4.1,8.8-10.2,8.8-7.2-1.7-9.4-4.2h0Z"/>
      <path class="st0" d="M159.4,25.1V6.5c0-2.7,2-4.7,4.7-4.7h13.6v4.5h-12c-.8,0-1.5.6-1.5,1.4v5.9h12.6v4.3h-12.6v6c0,.8.6,1.4,1.5,1.4h12v4.5h-13.6c-2.7,0-4.7-2-4.7-4.7h0Z"/>
    </g>
    <path class="st0" d="M69.4,11.6c0,1.8-1.4,3.2-3.2,3.2s-3.2-1.4-3.2-3.2,1.4-3.2,3.2-3.2,3.2,1.4,3.2,3.2M46.3,25.1c-2-.8-2.8-.6-5.5-.6-1.8,0-1.9,0-4,0s-.9,3.1,1.4,3.7c1,.3,2.1.5,2.9,1.2.3.4.5.9-.2.9h-5.8c-1,0-2,0-2.7-.6-1.2-1-1.7-2.3-2.3-3.7-.6-1.4-1.3-2.8-2-4.1-1.5-2.6-3.5-5-6.2-6.4-3.4-1.8-9.1-2.7-13.6.8-4.8,3.7-3.8,10.5.4,13.9,1.6,1.3,3.8,1.9,5.9,1.8,4.1-.2,7.2-3.3,6.4-7-.2-1.2-1-2.4-2.1-3.1-.8-.5-1.7-.6-2.6-.6s-2,.2-2.7.9c-.8.8-1,2.2-.3,3.2.4.5,1,1,.9,1.6,0,.5-.4.8-.9.9-.8.2-1.5-.3-2-.8-1.3-1.4-1.8-3.6-1-5.4,1-2.3,3.6-3.6,6.2-3.5,3.2.1,6.3,2.2,7.6,5.2s.9,6.6-.9,9.3c-4.1,6-14.2,5.3-18.9.2C1.4,29.7-.2,26.6,0,20.9c.2-4,2.5-8,5.4-10.8C10.3,5.6,16.7,2.5,23.1,1.1c3.9-.8,8-1,12-.6,3.5.4,7,1,10.4,2,1.7.5,3.3,1.1,4.9,1.9,1.4.7,3.3,1.3,4.3,2.5,0-2,0-4.2,0-5.8s.6-1,1.2-.7c2.3,1.1,7.7,3.6,11.3,5.3,4.8,2.2,5.2,7.4,5.4,12.1,0,.1,0,.2,0,.3-.2.3-1,.2-1.3.2-.6,0-1.5,0-2,0-1.2,0-2.3,0-3.4,0-2.1-.1-4.2-1.1-5.6-2.2-.1-.1-.6-.2-.8,0-.2.2-.1.6,0,.7.8.8,1.7,1.3,2.7,1.8,1.3.6,2.7.8,4.1.9,1.5,0,3,0,4.5,0,1.3-.1,1.6-.2.3.7-1.1.8-2.3,1.4-3.6,1.8-1.8.6-3.8.9-5.7,1-1.2,0-2.3,0-3.5-.2-.6,0-1.2-.2-1.8-.2-.5,0-1-.1-1.5,0-.4.1-.8.3-1.1.7-.4.5-.5,1.9-.3,2.5.4,1.1,1.4,1.8,2.4,2.4,1.1.6,2.5.9,2.8,2.1,0,.3-2.2.3-2.5.3h-3s-1.7,0-2.3-.2c0,0,0,0,0,0-.3-.2-.5-.7-.6-1-.2-.5-.5-1-.8-1.5-.7-1-1.7-2-2.8-2.5M67.2,7.4c-3.2-.7-6,2.1-5.2,5.2.4,1.6,1.7,2.9,3.3,3.3,3.2.7,6-2.1,5.2-5.2-.4-1.6-1.7-2.9-3.3-3.2M68.7,11.4c-.5-.5-1.2-.5-1.7,0-.5.5-.4,1.4.2,1.8.4.3.9.3,1.3,0,.6-.4.7-1.3.2-1.8"/>
  </g>
</svg>