<?xml version="1.0" encoding="UTF-8"?>
<svg xmlns="http://www.w3.org/2000/svg" viewBox="0 0 369.039 111.987">
  <g id="Text">
    <g id="Layer_1-3" data-name="Layer 1-3">
      <path d="M76.867,37.037c-.381.251-.884.251-1.257,0-.617-.411-.678-1.273-.183-1.768.442-.457,1.181-.457,1.623,0,.495.495.442,1.356-.183,1.768M78.673,34.53c.724,3.063-2.035,5.814-5.098,5.098-1.562-.366-2.797-1.608-3.162-3.162-.716-3.063,2.035-5.814,5.09-5.098,1.562.366,2.797,1.6,3.162,3.162M58.053,50.997c.351.503.64.991.808,1.471.114.343.267.8.602.983.023.008.038.023.061.023.625.229,2.233.191,2.233.191h2.957c.251,0,2.469,0,2.416-.251-.267-1.189-1.638-1.402-2.682-2.019-.96-.572-1.875-1.227-2.294-2.347-.213-.579-.084-1.913.282-2.4.274-.351.671-.587,1.097-.678.48-.099.968-.015,1.448.038.587.061,1.166.168,1.753.236,1.128.145,2.271.206,3.414.175,1.882-.053,3.764-.351,5.547-.96,1.242-.419,2.469-.983,3.528-1.768,1.204-.892.884-.808-.335-.686-1.463.152-2.934.175-4.404.084-1.364-.076-2.713-.236-3.955-.876-.975-.503-1.814-1.006-2.583-1.783-.114-.114-.191-.465.023-.678.206-.213.64-.091.77.023,1.349,1.128,3.36,2.05,5.433,2.156,1.128.053,2.217.076,3.345.03.564-.023,1.41-.023,1.974-.03.29,0,1.082.084,1.234-.229.046-.091.038-.191.038-.297-.168-4.503-.495-9.578-5.205-11.727-3.513-1.608-8.786-4.1-11.003-5.128-.518-.244-1.12.145-1.12.716,0,1.501.076,3.665.076,5.631-1.067-1.082-2.858-1.768-4.229-2.4-1.554-.716-3.155-1.318-4.785-1.829-3.284-1.021-6.683-1.646-10.104-1.981-3.879-.389-7.818-.198-11.643.587-6.287,1.311-12.466,4.336-17.16,8.755-2.88,2.72-5.136,6.576-5.288,10.493-.221,5.54,1.334,8.519,4.191,11.59,4.549,4.892,14.349,5.57,18.311-.221,1.783-2.606,2.172-6.149.876-9.03-1.295-2.88-4.275-4.968-7.43-5.075-2.454-.084-5.06,1.166-5.997,3.429-.716,1.73-.312,3.863.998,5.212.511.526,1.196.953,1.951.785.442-.099.815-.434.876-.884.099-.663-.48-1.09-.838-1.6-.648-.922-.511-2.301.29-3.079.678-.663,1.692-.853,2.637-.853.884,0,1.783.16,2.545.602,1.067.625,1.783,1.783,2.027,3.002.732,3.642-2.225,6.599-6.241,6.828-2.05.122-4.145-.419-5.746-1.707-4.054-3.261-5.052-9.937-.411-13.495,4.404-3.383,9.959-2.507,13.236-.754,2.621,1.402,4.58,3.703,6.058,6.248.747,1.28,1.379,2.614,1.966,3.97.564,1.303,1.097,2.621,2.225,3.574.747.632,1.676.61,2.652.61h5.601c.762,0,.579-.511.244-.846-.739-.762-1.814-.93-2.797-1.204-2.256-.625-2.027-3.612-1.402-3.612,2.019,0,2.08.061,3.848.038,2.553-.038,3.322-.183,5.319.556,1.067.396,2.096,1.44,2.758,2.393"/>
    </g>
    <g>
      <path d="M99.137,53.613c-2.08,0-3.894-.387-5.439-1.159-1.547-.773-2.867-1.801-3.96-3.08l3.04-3.04c1.093,1.12,2.16,1.92,3.2,2.399,1.039.48,2.146.721,3.319.721,1.573,0,2.807-.366,3.7-1.101.893-.733,1.339-1.687,1.339-2.859,0-.906-.254-1.646-.76-2.221-.506-.573-1.173-1.04-2-1.399-.827-.36-1.74-.681-2.74-.96-1-.28-1.993-.594-2.979-.94-.987-.346-1.895-.8-2.721-1.36-.826-.56-1.493-1.293-2-2.199s-.76-2.04-.76-3.4c0-1.76.4-3.273,1.2-4.54s1.939-2.246,3.42-2.939,3.193-1.04,5.14-1.04c1.813,0,3.446.319,4.9.96,1.453.64,2.646,1.493,3.58,2.56l-3.12,3.12c-.8-.826-1.627-1.446-2.48-1.86-.854-.413-1.826-.62-2.92-.62-1.467,0-2.64.354-3.52,1.061-.88.707-1.32,1.646-1.32,2.82,0,.854.253,1.547.76,2.079.507.534,1.181.954,2.021,1.261s1.76.587,2.76.84c1,.254,2.007.554,3.02.899,1.013.348,1.933.801,2.76,1.36.826.561,1.493,1.307,2,2.24.506.934.76,2.12.76,3.56,0,1.787-.427,3.34-1.28,4.66s-2.047,2.347-3.579,3.08c-1.534.733-3.314,1.1-5.34,1.1Z"/>
      <path d="M124.497,53.613c-3.279,0-5.906-.846-7.88-2.54-1.974-1.692-2.96-4.26-2.96-7.699v-18.32h4.92v17.92c0,2.027.533,3.547,1.601,4.561,1.065,1.014,2.506,1.52,4.319,1.52s3.26-.506,4.34-1.52,1.62-2.533,1.62-4.561v-17.92h4.92v18.32c0,2.267-.453,4.16-1.359,5.68-.907,1.52-2.174,2.66-3.8,3.42-1.627.76-3.534,1.14-5.721,1.14Z"/>
      <path d="M148.896,53.613c-2.08,0-3.894-.387-5.439-1.159-1.547-.773-2.867-1.801-3.96-3.08l3.04-3.04c1.093,1.12,2.16,1.92,3.2,2.399,1.039.48,2.146.721,3.319.721,1.573,0,2.807-.366,3.7-1.101.894-.733,1.34-1.687,1.34-2.859,0-.906-.254-1.646-.76-2.221-.507-.573-1.174-1.04-2-1.399-.827-.36-1.74-.681-2.74-.96-1-.28-1.993-.594-2.979-.94-.987-.346-1.895-.8-2.721-1.36-.826-.56-1.493-1.293-2-2.199s-.76-2.04-.76-3.4c0-1.76.4-3.273,1.2-4.54s1.939-2.246,3.42-2.939,3.193-1.04,5.14-1.04c1.813,0,3.446.319,4.9.96,1.453.64,2.646,1.493,3.58,2.56l-3.12,3.12c-.8-.826-1.627-1.446-2.48-1.86-.854-.413-1.826-.62-2.92-.62-1.467,0-2.64.354-3.52,1.061-.88.707-1.32,1.646-1.32,2.82,0,.854.253,1.547.76,2.079.507.534,1.181.954,2.021,1.261s1.76.587,2.76.84c1,.254,2.007.554,3.021.899,1.013.348,1.933.801,2.76,1.36.826.561,1.493,1.307,2,2.24.506.934.76,2.12.76,3.56,0,1.787-.427,3.34-1.28,4.66s-2.047,2.347-3.579,3.08c-1.534.733-3.314,1.1-5.341,1.1Z"/>
      <path d="M168.055,53.054c-1.359,0-2.474-.44-3.34-1.32s-1.3-2-1.3-3.359v-18.641c0-1.359.434-2.479,1.3-3.359s1.98-1.32,3.34-1.32h13.641v4.48h-12c-.4,0-.74.14-1.021.42s-.42.619-.42,1.02v16.16c0,.4.141.74.42,1.02s.62.42,1.021.42h12v4.48h-13.641ZM165.776,41.134v-4.28h15.08v4.28h-15.08Z"/>
      <path d="M200.295,53.054c-1.279,0-2.34-.42-3.18-1.26s-1.26-1.9-1.26-3.181v-19.119c0-1.28.42-2.341,1.26-3.181s1.9-1.26,3.18-1.26h12.92v3.12h-11.84c-.613,0-1.127.207-1.54.62s-.62.913-.62,1.5v17.52c0,.587.207,1.087.62,1.5.413.414.927.62,1.54.62h11.84v3.12h-12.92ZM197.575,40.534v-3h14.8v3h-14.8Z"/>
      <path d="M215.935,53.054l6.841-9.6-6.641-9.641h3.8l5,7.601,5-7.601h3.721l-6.641,9.641,6.761,9.6h-3.841l-5.119-7.48-5.08,7.48h-3.801Z"/>
      <path d="M245.216,53.454c-1.894,0-3.579-.413-5.06-1.24-1.48-.826-2.646-1.98-3.5-3.46-.854-1.48-1.28-3.181-1.28-5.101v-.479c0-1.92.427-3.613,1.28-5.08.854-1.466,2.02-2.613,3.5-3.44,1.48-.826,3.166-1.239,5.06-1.239,1.413,0,2.7.253,3.86.76s2.14,1.24,2.94,2.2l-2,2c-.614-.641-1.32-1.127-2.12-1.46s-1.694-.5-2.681-.5c-1.253,0-2.387.279-3.399.84-1.014.56-1.807,1.347-2.38,2.359-.574,1.015-.86,2.2-.86,3.561v.479c0,1.36.293,2.547.88,3.561s1.38,1.807,2.38,2.38,2.141.86,3.42.86c.96,0,1.847-.153,2.66-.46s1.54-.794,2.181-1.46l1.96,1.96c-.774.934-1.754,1.659-2.94,2.18-1.187.52-2.487.78-3.9.78Z"/>
      <path d="M256.176,53.054v-29.2h3.12v15.16h-.88c.293-1.093.713-2,1.26-2.72.546-.721,1.16-1.293,1.84-1.721.68-.426,1.38-.726,2.101-.899.72-.173,1.399-.26,2.04-.26,2.159,0,3.913.693,5.26,2.08,1.346,1.387,2.02,3.467,2.02,6.239v11.32h-3.24v-10.84c0-2.054-.46-3.54-1.38-4.46s-2.087-1.38-3.5-1.38c-.986,0-1.887.227-2.699.68-.814.454-1.468,1.113-1.96,1.98-.494.866-.74,1.939-.74,3.22v10.8h-3.24Z"/>
      <path d="M284.615,53.454c-2.267,0-4.066-.521-5.4-1.561-1.333-1.04-2-2.413-2-4.12,0-1.093.301-2.093.9-3,.6-.906,1.48-1.626,2.64-2.16,1.16-.532,2.566-.8,4.221-.8,2.213,0,3.933.5,5.16,1.5,1.226,1,1.84,2.327,1.84,3.98h-.641c0,1.974-.56,3.493-1.68,4.56-1.12,1.067-2.8,1.601-5.04,1.601ZM290.295,53.054v-7.28l-.399-1.08v-4.08c0-1.439-.374-2.513-1.12-3.22-.747-.706-1.867-1.06-3.36-1.06-.986,0-2.026.2-3.12.6-1.094.4-2.066.987-2.92,1.76l-1.52-2.279c.933-.96,2.08-1.7,3.439-2.221,1.36-.52,2.773-.779,4.24-.779,1.493,0,2.807.267,3.94.8,1.133.533,2.02,1.327,2.66,2.38.64,1.054.96,2.38.96,3.979v6.16c0,1.067.006,2.12.02,3.16.013,1.04.046,2.094.1,3.16h-2.92ZM285.215,51.014c1.44,0,2.58-.3,3.421-.9.84-.6,1.26-1.406,1.26-2.42s-.414-1.812-1.24-2.399c-.827-.587-1.974-.88-3.44-.88s-2.626.293-3.479.88-1.28,1.387-1.28,2.399.434,1.82,1.3,2.42c.866.601,2.021.9,3.46.9Z"/>
      <path d="M298.895,53.054v-19.24h3.12v5.2h-.88c.293-1.093.713-2,1.26-2.72.546-.721,1.16-1.293,1.84-1.721.68-.426,1.38-.726,2.101-.899.72-.173,1.399-.26,2.04-.26,2.159,0,3.913.693,5.26,2.08,1.346,1.387,2.02,3.467,2.02,6.239v11.32h-3.24v-10.84c0-2.054-.46-3.54-1.38-4.46s-2.087-1.38-3.5-1.38c-.986,0-1.887.227-2.699.68-.814.454-1.468,1.113-1.96,1.98-.494.866-.74,1.939-.74,3.22v10.8h-3.24Z"/>
      <path d="M319.495,61.054v-2.72h11.479c.906,0,1.613-.221,2.12-.66.507-.44.761-1.061.761-1.86,0-.747-.254-1.326-.761-1.74-.507-.413-1.214-.619-2.12-.619h-6.319c-.987,0-1.747-.24-2.28-.721-.534-.479-.834-1.08-.9-1.8s.087-1.439.46-2.16l1.801-3.6,2.76.72-1.64,3.2c-.107.24-.181.5-.221.78-.04.279.033.514.221.699.186.188.492.28.92.28h5.64c1.653,0,2.979.42,3.979,1.26,1,.841,1.5,2.087,1.5,3.74,0,1.014-.233,1.913-.699,2.7-.467.786-1.12,1.4-1.96,1.84-.841.44-1.834.66-2.98.66h-11.76ZM328.295,47.494c-1.6,0-3.02-.301-4.26-.9s-2.214-1.427-2.92-2.48c-.707-1.053-1.061-2.246-1.061-3.579v-.36c0-1.333.354-2.507,1.061-3.521.706-1.013,1.68-1.806,2.92-2.38,1.24-.573,2.66-.859,4.26-.859s3.021.286,4.26.859c1.24.574,2.214,1.36,2.92,2.36.707,1,1.061,2.153,1.061,3.46v.44c0,1.333-.354,2.526-1.061,3.579-.706,1.054-1.68,1.881-2.92,2.48-1.239.6-2.66.9-4.26.9ZM328.295,44.974c1.493,0,2.713-.42,3.66-1.26.946-.84,1.42-1.9,1.42-3.18v-.32c0-1.227-.474-2.227-1.42-3-.947-.773-2.167-1.16-3.66-1.16s-2.714.394-3.66,1.18c-.946.787-1.42,1.808-1.42,3.061v.24c0,1.279.474,2.34,1.42,3.18.946.84,2.166,1.26,3.66,1.26ZM328.175,35.494l2.96-6.08h3.24l-3.28,6.08h-2.92Z"/>
      <path d="M349.455,53.454c-1.895,0-3.567-.42-5.021-1.261-1.453-.84-2.587-2.006-3.399-3.5-.814-1.493-1.221-3.213-1.221-5.159v-.4c0-1.866.373-3.526,1.12-4.98.746-1.453,1.8-2.605,3.16-3.46,1.36-.853,2.934-1.279,4.72-1.279,1.84,0,3.413.453,4.721,1.359,1.306.907,2.272,2.188,2.899,3.84.626,1.654.807,3.587.54,5.801h-14.84v-2.641h13.12l-1.44,1.4c.187-1.467.087-2.713-.3-3.74-.387-1.026-.979-1.82-1.78-2.38-.8-.56-1.76-.84-2.88-.84-1.227,0-2.273.294-3.14.88-.867.587-1.534,1.394-2,2.42-.467,1.027-.7,2.233-.7,3.62v.4c0,1.333.267,2.526.8,3.579.533,1.054,1.293,1.881,2.28,2.48.986.6,2.16.9,3.52.9,1.014,0,1.906-.127,2.681-.381.772-.253,1.453-.633,2.04-1.14l1.84,2c-.747.8-1.7,1.414-2.86,1.84-1.16.427-2.446.641-3.859.641Z"/>
    </g>
  </g>
  <g id="Location">
    <g>
      <path d="M99.613,87.474c-1.886,0-3.556-.424-5.012-1.273s-2.6-2.021-3.431-3.515c-.83-1.493-1.245-3.22-1.245-5.18v-.477c0-1.978.42-3.714,1.26-5.208.84-1.493,2.002-2.664,3.485-3.514,1.484-.849,3.197-1.273,5.139-1.273,1.138,0,2.212.182,3.22.546,1.008.363,1.923.892,2.744,1.582l-1.26,1.344c-.654-.578-1.387-1.003-2.198-1.274-.812-.271-1.647-.405-2.506-.405-1.55,0-2.926.35-4.13,1.05s-2.143,1.666-2.814,2.897c-.672,1.232-1.008,2.651-1.008,4.256v.477c0,1.605.331,3.023.994,4.256.662,1.232,1.582,2.193,2.758,2.884,1.176.691,2.52,1.036,4.032,1.036,1.082,0,2.048-.205,2.897-.616.85-.41,1.568-.975,2.156-1.693s1.018-1.55,1.288-2.492.359-1.937.266-2.982l.812.616h-6.188v-1.596h7.225c.148,1.493.06,2.879-.267,4.158-.326,1.278-.863,2.398-1.609,3.359-.747.962-1.681,1.708-2.801,2.24-1.119.532-2.39.798-3.808.798Z"/>
      <path d="M117.086,87.334c-1.308,0-2.465-.294-3.473-.882-1.008-.589-1.792-1.4-2.352-2.437-.561-1.036-.84-2.235-.84-3.598v-.28c0-1.307.256-2.464.77-3.472.514-1.009,1.241-1.807,2.185-2.395.942-.588,2.02-.882,3.233-.882,1.251,0,2.324.308,3.22.924.896.616,1.559,1.484,1.988,2.604s.551,2.427.364,3.92h-10.472v-1.484h9.52l-.784.784c.131-1.064.047-1.983-.252-2.758s-.756-1.372-1.372-1.792-1.344-.63-2.184-.63c-.915,0-1.704.22-2.366.657-.663.439-1.176,1.046-1.54,1.82-.364.775-.546,1.676-.546,2.702v.28c0,1.026.205,1.937.616,2.729.41.794.989,1.414,1.735,1.862.747.448,1.624.672,2.633.672.709,0,1.357-.093,1.945-.28.588-.186,1.088-.457,1.498-.812l1.008,1.147c-.504.505-1.147.896-1.932,1.177-.784.279-1.652.42-2.604.42Z"/>
      <path d="M125.625,87.054v-13.384h1.708v3.584h-.476c.205-.746.499-1.367.882-1.862.383-.494.816-.891,1.302-1.189s.98-.509,1.484-.631c.504-.121.979-.182,1.428-.182,1.512,0,2.744.48,3.696,1.442.952.961,1.428,2.432,1.428,4.41v7.812h-1.792v-7.588c0-1.568-.354-2.697-1.063-3.388-.71-.69-1.606-1.036-2.688-1.036-.747,0-1.428.168-2.044.504s-1.115.831-1.498,1.483c-.383.654-.574,1.476-.574,2.465v7.56h-1.792Z"/>
      <path d="M147.045,87.334c-1.307,0-2.464-.294-3.472-.882-1.008-.589-1.792-1.4-2.353-2.437-.56-1.036-.84-2.235-.84-3.598v-.28c0-1.307.257-2.464.771-3.472.513-1.009,1.241-1.807,2.184-2.395s2.021-.882,3.234-.882c1.25,0,2.323.308,3.22.924.896.616,1.559,1.484,1.988,2.604.429,1.12.55,2.427.363,3.92h-10.472v-1.484h9.521l-.784.784c.13-1.064.046-1.983-.252-2.758-.299-.774-.756-1.372-1.372-1.792s-1.344-.63-2.185-.63c-.914,0-1.703.22-2.365.657-.663.439-1.177,1.046-1.54,1.82-.364.775-.547,1.676-.547,2.702v.28c0,1.026.206,1.937.616,2.729.411.794.989,1.414,1.736,1.862.746.448,1.624.672,2.632.672.709,0,1.358-.093,1.946-.28.588-.186,1.087-.457,1.498-.812l1.008,1.147c-.504.505-1.148.896-1.932,1.177-.784.279-1.652.42-2.604.42Z"/>
      <path d="M159.029,87.054l-5.404-13.384h1.848l4.844,12.18h-.699l4.844-12.18h1.848l-5.403,13.384h-1.876Z"/>
      <path d="M172.805,87.334c-1.568,0-2.814-.359-3.738-1.078s-1.386-1.666-1.386-2.842c0-.766.205-1.451.616-2.059.41-.606,1.017-1.087,1.819-1.441.803-.354,1.765-.532,2.885-.532,1.549,0,2.748.346,3.598,1.036s1.274,1.605,1.274,2.744h-.336c0,1.307-.393,2.328-1.177,3.065-.784.738-1.97,1.106-3.556,1.106ZM176.921,87.054l-.028-4.872-.196-.532v-3.275c0-1.157-.289-2.007-.867-2.548-.579-.542-1.419-.812-2.521-.812-.728,0-1.479.14-2.254.42s-1.452.71-2.03,1.288l-.868-1.26c.635-.69,1.414-1.209,2.339-1.555.924-.345,1.88-.518,2.869-.518,1.009,0,1.895.182,2.66.546s1.362.91,1.792,1.638c.43.729.645,1.652.645,2.772v4.256c0,.747.004,1.489.014,2.227.009.737.032,1.479.07,2.226h-1.624ZM173.14,85.962c1.12,0,1.992-.238,2.618-.714.625-.477.938-1.097.938-1.862,0-.784-.312-1.404-.938-1.862-.626-.457-1.508-.686-2.646-.686-1.12,0-2.007.229-2.659.686-.654.458-.98,1.078-.98,1.862,0,.766.326,1.386.98,1.862.652.476,1.549.714,2.688.714Z"/>
    </g>
  </g>
</svg>