<?xml version="1.0" encoding="UTF-8"?><svg id="Layer_2" xmlns="http://www.w3.org/2000/svg" viewBox="0 0 419.62 37.19"><defs><style>.cls-1{fill:#30ba78;}.cls-2{fill:#0c322c;}</style></defs><g id="Layer_1-2"><g id="Layer_1-3"><path class="cls-1" d="M66.89,13.09c-.38.25-.89.25-1.27,0-.62-.41-.68-1.28-.18-1.78.45-.46,1.18-.46,1.63,0,.5.5.44,1.36-.18,1.78M68.7,10.57c.72,3.08-2.04,5.84-5.12,5.12-1.57-.37-2.81-1.61-3.18-3.18-.72-3.07,2.04-5.84,5.12-5.12,1.57.37,2.81,1.61,3.18,3.17M47.99,27.11c.35.51.64.99.81,1.48.11.35.26.8.61.99.02.01.04.02.06.03.63.23,2.24.19,2.24.19h2.97c.25,0,2.48,0,2.43-.25-.27-1.19-1.65-1.41-2.7-2.03-.97-.58-1.88-1.23-2.3-2.36-.22-.58-.09-1.92.29-2.41.27-.35.67-.59,1.11-.68.48-.1.97-.01,1.45.03.59.06,1.17.17,1.76.24,1.14.15,2.28.21,3.43.18,1.89-.05,3.78-.35,5.57-.96,1.25-.42,2.48-.99,3.54-1.78,1.21-.9.89-.81-.33-.69-1.47.15-2.95.17-4.42.09-1.37-.08-2.73-.24-3.97-.88-.98-.5-1.82-1.01-2.59-1.79-.12-.12-.19-.46.02-.68.21-.21.64-.09.78.02,1.35,1.13,3.37,2.06,5.46,2.16,1.13.06,2.23.08,3.36.03.56-.03,1.42-.02,1.98-.03.29,0,1.09.08,1.24-.23.05-.09.04-.19.04-.3-.17-4.52-.5-9.62-5.23-11.78-3.53-1.61-8.82-4.11-11.05-5.15-.52-.25-1.12.14-1.12.72,0,1.51.08,3.68.08,5.65-1.07-1.09-2.87-1.78-4.25-2.41-1.56-.72-3.17-1.32-4.81-1.83-3.3-1.02-6.72-1.65-10.15-1.99-3.89-.39-7.86-.2-11.69.59-6.32,1.31-12.53,4.35-17.24,8.79C2.44,12.8.17,16.67.02,20.61c-.22,5.57,1.34,8.56,4.21,11.64,4.57,4.91,14.41,5.6,18.39-.23,1.79-2.62,2.18-6.18.88-9.07-1.3-2.9-4.29-4.99-7.46-5.1-2.46-.08-5.08,1.17-6.02,3.45-.72,1.74-.31,3.88,1,5.23.51.53,1.2.96,1.96.79.44-.1.82-.43.88-.89.1-.67-.48-1.1-.84-1.61-.65-.92-.52-2.31.29-3.09.68-.66,1.7-.86,2.65-.86.89,0,1.79.16,2.56.61,1.08.63,1.79,1.79,2.04,3.01.74,3.66-2.23,6.63-6.26,6.86-2.06.12-4.16-.42-5.77-1.71-4.07-3.28-5.07-9.98-.41-13.56,4.42-3.4,10-2.52,13.29-.76,2.63,1.41,4.6,3.72,6.08,6.28.75,1.28,1.38,2.63,1.97,3.99.57,1.31,1.1,2.63,2.23,3.59.75.64,1.68.61,2.67.61h5.63c.76,0,.58-.51.25-.85-.75-.76-1.82-.93-2.81-1.21-2.27-.62-2.04-3.63-1.41-3.63,2.03,0,2.09.06,3.87.04,2.56-.04,3.34-.18,5.34.56,1.07.4,2.1,1.44,2.77,2.4"/></g><path class="cls-2" d="M80.34,25.52l3.04-3.04c2.16,2.2,4.16,3.12,6.52,3.12,3.16,0,5.04-1.6,5.04-3.96,0-6.44-13.96-2.8-13.96-12.48,0-5.2,3.88-8.52,9.76-8.52,3.6,0,6.6,1.4,8.48,3.52l-3.12,3.12c-1.6-1.64-3.24-2.48-5.36-2.48-2.96,0-4.88,1.52-4.88,3.88,0,6.08,14.08,2.12,14.08,12.24,0,5.36-4.12,8.84-10.2,8.84-4.2,0-7.24-1.68-9.4-4.24Z"/><path class="cls-2" d="M104.42,19.52V1.2h4.92v17.92c0,4.08,2.36,6.08,5.96,6.08s5.92-2,5.92-6.08V1.2h4.92v18.32c0,6.84-4.32,10.24-10.84,10.24s-10.88-3.4-10.88-10.24Z"/><path class="cls-2" d="M130.62,25.52l3.04-3.04c2.16,2.2,4.16,3.12,6.52,3.12,3.16,0,5.04-1.6,5.04-3.96,0-6.44-13.96-2.8-13.96-12.48,0-5.2,3.88-8.52,9.76-8.52,3.6,0,6.6,1.4,8.48,3.52l-3.12,3.12c-1.6-1.64-3.24-2.48-5.36-2.48-2.96,0-4.88,1.52-4.88,3.88,0,6.08,14.08,2.12,14.08,12.24,0,5.36-4.12,8.84-10.2,8.84-4.2,0-7.24-1.68-9.4-4.24Z"/><path class="cls-2" d="M154.38,24.52V5.88c0-2.72,1.96-4.68,4.68-4.68h13.6v4.48h-11.96c-.84,0-1.48.64-1.48,1.44v5.88h12.6v4.28h-12.6v6c0,.8.64,1.44,1.48,1.44h11.96v4.48h-13.6c-2.72,0-4.68-1.96-4.68-4.68Z"/><path class="cls-2" d="M185.98,15.28v-.36c0-8.44,5.72-14.2,13.52-14.2s13.52,5.76,13.52,14.2v.36c0,8.52-5.68,14.4-13.52,14.4s-13.52-5.88-13.52-14.4ZM199.5,26.36c5.88,0,10.04-4.4,10.04-11.08v-.36c0-6.56-4.16-10.88-10.04-10.88s-10.04,4.32-10.04,10.88v.36c0,6.68,4.2,11.08,10.04,11.08Z"/><path class="cls-2" d="M221.34,25.76v3.44h-2.96V0h3.24v13.12c1.48-2.2,3.84-3.56,6.68-3.56,5.2,0,9.04,4,9.04,9.76v.36c0,5.92-3.76,9.92-9.04,9.92-3,0-5.48-1.44-6.96-3.84ZM227.86,26.71c3.6,0,6.24-2.76,6.24-7.04v-.36c0-4.16-2.64-6.88-6.24-6.88s-6.44,2.84-6.44,7.16,2.76,7.12,6.44,7.12Z"/><path class="cls-2" d="M240.38,27.2l1.44-2.24c1.44,1.24,3.52,2.04,5.6,2.04,2.36,0,4-1.2,4-2.96,0-4.56-10.32-1.56-10.32-8.72,0-3.36,2.76-5.76,7-5.76,2.44,0,4.64.8,6.24,1.96l-1.44,2.24c-1.36-1.04-3.04-1.64-4.84-1.64-2.32,0-3.88,1.2-3.88,2.96,0,4.48,10.44,1.6,10.44,8.8,0,3.36-2.96,5.68-7.2,5.68-2.84,0-5.48-.96-7.04-2.36Z"/><path class="cls-2" d="M257.98,19.68v-.4c0-5.56,3.6-9.72,9-9.72s8.92,4.36,8.16,11h-13.92c.36,3.56,2.8,6.08,6.56,6.08,2,0,3.56-.48,4.72-1.52l1.84,2c-1.48,1.6-3.92,2.48-6.72,2.48-5.72,0-9.64-4.04-9.64-9.92ZM272.06,17.92c-.04-3.52-2.08-5.56-5.04-5.56-3.24,0-5.32,2.2-5.76,5.56h10.8Z"/><path class="cls-2" d="M279.34,9.96h3.16v3.08c.92-2.44,2.96-3.16,5.32-3.16h1.64v3.2h-1.92c-3.12,0-4.96,1.52-4.96,4.72v11.4h-3.24V9.96Z"/><path class="cls-2" d="M291.02,9.96h3.36l6,15.44,5.96-15.44h3.36l-7.6,19.24h-3.4l-7.68-19.24Z"/><path class="cls-2" d="M324.22,27.28c-1.08,1.52-2.96,2.32-5.68,2.32-4.56,0-7.4-2.28-7.4-5.68s2.8-5.96,7.76-5.96c2.08,0,3.72.48,4.92,1.32v-2.52c0-2.88-1.48-4.28-4.48-4.28-2,0-4.36.76-6.04,2.28l-1.52-2.2c1.72-1.96,4.72-3,7.68-3,4.48,0,7.56,2.4,7.56,7.16v6.16c0,2.12,0,4.2.12,6.32h-2.92v-1.92ZM319.14,27.16c2.88,0,4.68-1.28,4.68-3.32s-1.76-3.28-4.68-3.28-4.76,1.28-4.76,3.28,1.88,3.32,4.76,3.32Z"/><path class="cls-2" d="M336.26,25.76v3.44h-2.96V0h3.24v13.12c1.48-2.2,3.84-3.56,6.68-3.56,5.2,0,9.04,4,9.04,9.76v.36c0,5.92-3.76,9.92-9.04,9.92-3,0-5.48-1.44-6.96-3.84ZM342.78,26.71c3.6,0,6.24-2.76,6.24-7.04v-.36c0-4.16-2.64-6.88-6.24-6.88s-6.44,2.84-6.44,7.16,2.76,7.12,6.44,7.12Z"/><path class="cls-2" d="M358.22,12.76h-3.72v-2.8h6.92v19.24h-3.2V12.76ZM358.1,1.08h3.52v4.64h-3.52V1.08Z"/><path class="cls-2" d="M368.98,24.28V2.76h-3.52V0h6.76v24.32c0,1.24.92,2.12,2.12,2.12h1.84v2.76h-2c-3.12,0-5.2-1.92-5.2-4.92Z"/><path class="cls-2" d="M380.46,12.76h-3.72v-2.8h6.92v19.24h-3.2V12.76ZM380.34,1.08h3.52v4.64h-3.52V1.08Z"/><path class="cls-2" d="M390.78,24.08v-11.32h-3.48v-2.8h3.48v-4.76h3.24v4.76h5.04v2.8h-5.04v11.52c0,1.24.92,2.16,2.12,2.16h2.92v2.76h-2.96c-2.64,0-5.32-1.4-5.32-5.12Z"/><path class="cls-2" d="M401.18,34.43h3.8c1.16,0,1.76-.88,2.2-1.96l1.4-3.08-7.96-19.44h3.56l6.08,15.48,5.8-15.48h3.56l-9.2,22.64c-.88,2.2-2.16,4.6-5.6,4.6h-3.64v-2.76Z"/></g></svg>