<?xml version="1.0" encoding="utf-8"?>
<!-- Generator: Adobe Illustrator 28.0.0, SVG Export Plug-In . SVG Version: 6.00 Build 0)  -->
<svg version="1.1" id="Layer_2_00000166652182072323483680000005665875436770510264_"
	 xmlns="http://www.w3.org/2000/svg" xmlns:xlink="http://www.w3.org/1999/xlink" x="0px" y="0px" viewBox="0 0 419.7 37.2"
	 style="enable-background:new 0 0 419.7 37.2;" xml:space="preserve">
<style type="text/css">
	.st0{fill:#FFFFFF;}
</style>
<g id="Layer_1-2">
	<g id="Layer_1-3">
		<path class="st0" d="M67.1,11.3c-0.4-0.5-1.2-0.5-1.6,0c-0.5,0.5-0.4,1.4,0.2,1.8c0.4,0.2,0.9,0.2,1.3,0
			C67.5,12.7,67.6,11.8,67.1,11.3 M65.6,7.4c-3.1-0.7-5.8,2-5.1,5.1c0.4,1.6,1.6,2.8,3.2,3.2c3.1,0.7,5.9-2.1,5.1-5.1
			C68.4,9,67.2,7.8,65.6,7.4 M45.3,24.7c-2-0.7-2.8-0.6-5.3-0.6c-1.8,0-1.8,0-3.9,0c-0.6,0-0.9,3,1.4,3.6c1,0.3,2.1,0.5,2.8,1.2
			c0.3,0.3,0.5,0.9-0.2,0.9h-5.6c-1,0-1.9,0-2.7-0.6c-1.1-1-1.7-2.3-2.2-3.6c-0.6-1.4-1.2-2.7-2-4c-1.5-2.6-3.5-4.9-6.1-6.3
			c-3.3-1.8-8.9-2.6-13.3,0.8c-4.7,3.6-3.7,10.3,0.4,13.6c1.6,1.3,3.7,1.8,5.8,1.7c4-0.2,7-3.2,6.3-6.9c-0.2-1.2-1-2.4-2-3
			c-0.8-0.5-1.7-0.6-2.6-0.6c-0.9,0-2,0.2-2.6,0.9c-0.8,0.8-0.9,2.2-0.3,3.1c0.4,0.5,0.9,0.9,0.8,1.6c-0.1,0.5-0.4,0.8-0.9,0.9
			c-0.8,0.2-1.4-0.3-2-0.8c-1.3-1.4-1.7-3.5-1-5.2c0.9-2.3,3.6-3.5,6-3.5c3.2,0.1,6.2,2.2,7.5,5.1s0.9,6.5-0.9,9.1
			c-4,5.8-13.8,5.1-18.4,0.2C1.4,29.2-0.2,26.2,0,20.6c0.2-3.9,2.4-7.8,5.3-10.6c4.7-4.4,10.9-7.5,17.3-8.8c3.8-0.8,7.8-1,11.7-0.6
			c3.4,0.3,6.9,1,10.2,2c1.6,0.5,3.2,1.1,4.8,1.8c1.4,0.6,3.2,1.3,4.2,2.4c0-2-0.1-4.2-0.1-5.7c0-0.6,0.6-1,1.1-0.7
			c2.2,1,7.5,3.5,11.1,5.2c4.7,2.2,5.1,7.3,5.2,11.8c0,0.1,0,0.2,0,0.3c-0.2,0.3-0.9,0.2-1.2,0.2c-0.6,0-1.4,0-2,0
			c-1.1,0-2.2,0-3.4,0c-2.1-0.1-4.1-1-5.5-2.2c-0.1-0.1-0.6-0.2-0.8,0s-0.1,0.6,0,0.7c0.8,0.8,1.6,1.3,2.6,1.8
			c1.2,0.6,2.6,0.8,4,0.9c1.5,0.1,2.9,0.1,4.4-0.1c1.2-0.1,1.5-0.2,0.3,0.7c-1.1,0.8-2.3,1.4-3.6,1.8c-1.8,0.6-3.7,0.9-5.6,1
			c-1.2,0-2.3,0-3.4-0.2c-0.6-0.1-1.2-0.2-1.8-0.2c-0.5,0-1-0.1-1.5,0c-0.4,0.1-0.8,0.3-1.1,0.7c-0.4,0.5-0.5,1.8-0.3,2.4
			c0.4,1.1,1.3,1.8,2.3,2.4c1,0.6,2.4,0.8,2.7,2c0.1,0.2-2.2,0.3-2.4,0.2h-3c0,0-1.6,0-2.2-0.2c0,0,0,0-0.1,0
			c-0.3-0.2-0.5-0.6-0.6-1c-0.2-0.5-0.5-1-0.8-1.5C47.3,26.2,46.3,25.1,45.3,24.7 M67.8,11.6c0,1.7-1.4,3.2-3.2,3.2
			s-3.2-1.4-3.2-3.1s1.4-3.1,3.2-3.1C66.4,8.4,67.8,9.8,67.8,11.6"/>
	</g>
	<path class="st0" d="M80.4,25.5l3-3c2.2,2.2,4.2,3.1,6.5,3.1c3.2,0,5-1.6,5-4c0-6.4-14-2.8-14-12.5c0-5.2,3.9-8.5,9.8-8.5
		c3.6,0,6.6,1.4,8.5,3.5l-3.1,3.1c-1.6-1.6-3.2-2.5-5.4-2.5c-3,0-4.9,1.5-4.9,3.9c0,6.1,14.1,2.1,14.1,12.2c0,5.4-4.1,8.8-10.2,8.8
		C85.6,29.8,82.6,28.1,80.4,25.5z"/>
	<path class="st0" d="M104.5,19.5V1.2h4.9v17.9c0,4.1,2.4,6.1,6,6.1s5.9-2,5.9-6.1V1.2h4.9v18.3c0,6.8-4.3,10.2-10.8,10.2
		S104.5,26.4,104.5,19.5z"/>
	<path class="st0" d="M130.7,25.5l3-3c2.2,2.2,4.2,3.1,6.5,3.1c3.2,0,5-1.6,5-4c0-6.4-14-2.8-14-12.5c0-5.2,3.9-8.5,9.8-8.5
		c3.6,0,6.6,1.4,8.5,3.5l-3.1,3.1c-1.6-1.6-3.2-2.5-5.4-2.5c-3,0-4.9,1.5-4.9,3.9c0,6.1,14.1,2.1,14.1,12.2c0,5.4-4.1,8.8-10.2,8.8
		C135.9,29.8,132.8,28.1,130.7,25.5L130.7,25.5z"/>
	<path class="st0" d="M154.4,24.5V5.9c0-2.7,2-4.7,4.7-4.7h13.6v4.5h-12c-0.8,0-1.5,0.6-1.5,1.4V13h12.6v4.3h-12.6v6
		c0,0.8,0.6,1.4,1.5,1.4h12v4.5h-13.6C156.4,29.2,154.4,27.2,154.4,24.5z"/>
	<path class="st0" d="M186,15.3v-0.4c0-8.4,5.7-14.2,13.5-14.2s13.5,5.8,13.5,14.2v0.4c0,8.5-5.7,14.4-13.5,14.4S186,23.8,186,15.3z
		 M199.6,26.4c5.9,0,10-4.4,10-11.1v-0.4c0-6.6-4.2-10.9-10-10.9s-10,4.3-10,10.9v0.4C189.5,22,193.7,26.4,199.6,26.4z"/>
	<path class="st0" d="M221.4,25.8v3.4h-3V0h3.2v13.1c1.5-2.2,3.8-3.6,6.7-3.6c5.2,0,9,4,9,9.8v0.4c0,5.9-3.8,9.9-9,9.9
		C225.3,29.6,222.9,28.2,221.4,25.8L221.4,25.8z M227.9,26.7c3.6,0,6.2-2.8,6.2-7v-0.4c0-4.2-2.6-6.9-6.2-6.9s-6.4,2.8-6.4,7.2
		S224.2,26.7,227.9,26.7z"/>
	<path class="st0" d="M240.4,27.2l1.4-2.2c1.4,1.2,3.5,2,5.6,2c2.4,0,4-1.2,4-3c0-4.6-10.3-1.6-10.3-8.7c0-3.4,2.8-5.8,7-5.8
		c2.4,0,4.6,0.8,6.2,2l-1.4,2.2c-1.4-1-3-1.6-4.8-1.6c-2.3,0-3.9,1.2-3.9,3c0,4.5,10.4,1.6,10.4,8.8c0,3.4-3,5.7-7.2,5.7
		C244.6,29.6,242,28.6,240.4,27.2L240.4,27.2z"/>
	<path class="st0" d="M258,19.7v-0.4c0-5.6,3.6-9.7,9-9.7s8.9,4.4,8.2,11h-13.9c0.4,3.6,2.8,6.1,6.6,6.1c2,0,3.6-0.5,4.7-1.5l1.8,2
		c-1.5,1.6-3.9,2.5-6.7,2.5C261.9,29.6,258,25.6,258,19.7L258,19.7z M272.1,17.9c0-3.5-2.1-5.6-5-5.6c-3.2,0-5.3,2.2-5.8,5.6H272.1
		L272.1,17.9z"/>
	<path class="st0" d="M279.4,10h3.2V13c0.9-2.4,3-3.2,5.3-3.2h1.6v3.2h-1.9c-3.1,0-5,1.5-5,4.7v11.4h-3.2L279.4,10L279.4,10z"/>
	<path class="st0" d="M291.1,10h3.4l6,15.4l6-15.4h3.4l-7.6,19.2h-3.4L291.1,10L291.1,10z"/>
	<path class="st0" d="M324.3,27.3c-1.1,1.5-3,2.3-5.7,2.3c-4.6,0-7.4-2.3-7.4-5.7s2.8-6,7.8-6c2.1,0,3.7,0.5,4.9,1.3v-2.5
		c0-2.9-1.5-4.3-4.5-4.3c-2,0-4.4,0.8-6,2.3l-1.5-2.2c1.7-2,4.7-3,7.7-3c4.5,0,7.6,2.4,7.6,7.2v6.2c0,2.1,0,4.2,0.1,6.3h-2.9
		C324.3,29.2,324.3,27.3,324.3,27.3z M319.2,27.2c2.9,0,4.7-1.3,4.7-3.3s-1.8-3.3-4.7-3.3s-4.8,1.3-4.8,3.3S316.3,27.2,319.2,27.2z"
		/>
	<path class="st0" d="M336.3,25.8v3.4h-3V0h3.2v13.1c1.5-2.2,3.8-3.6,6.7-3.6c5.2,0,9,4,9,9.8v0.4c0,5.9-3.8,9.9-9,9.9
		C340.3,29.6,337.8,28.2,336.3,25.8z M342.8,26.7c3.6,0,6.2-2.8,6.2-7v-0.4c0-4.2-2.6-6.9-6.2-6.9s-6.4,2.8-6.4,7.2
		S339.1,26.7,342.8,26.7z"/>
	<path class="st0" d="M358.3,12.8h-3.7V10h6.9v19.2h-3.2V12.8z M358.1,1.1h3.5v4.6h-3.5V1.1z"/>
	<path class="st0" d="M369,24.3V2.8h-3.5V0h6.8v24.3c0,1.2,0.9,2.1,2.1,2.1h1.8v2.8h-2C371.1,29.2,369,27.3,369,24.3z"/>
	<path class="st0" d="M380.5,12.8h-3.7V10h6.9v19.2h-3.2V12.8z M380.4,1.1h3.5v4.6h-3.5V1.1z"/>
	<path class="st0" d="M390.8,24.1V12.8h-3.5V10h3.5V5.2h3.2V10h5v2.8h-5v11.5c0,1.2,0.9,2.2,2.1,2.2h2.9v2.8h-3
		C393.5,29.2,390.8,27.8,390.8,24.1z"/>
	<path class="st0" d="M401.2,34.4h3.8c1.2,0,1.8-0.9,2.2-2l1.4-3.1l-8-19.4h3.6l6.1,15.5l5.8-15.5h3.6l-9.2,22.6
		c-0.9,2.2-2.2,4.6-5.6,4.6h-3.6L401.2,34.4L401.2,34.4z"/>
</g>
</svg>
