<?xml version="1.0" encoding="utf-8"?>
<!-- Generator: Adobe Illustrator 28.0.0, SVG Export Plug-In . SVG Version: 6.00 Build 0)  -->
<svg version="1.1" id="Layer_2_00000111872718414574078440000002080303618802679980_"
	 xmlns="http://www.w3.org/2000/svg" xmlns:xlink="http://www.w3.org/1999/xlink" x="0px" y="0px" viewBox="0 0 234.6 131.1"
	 style="enable-background:new 0 0 234.6 131.1;" xml:space="preserve">
<style type="text/css">
	.st0{fill:#FFFFFF;}
</style>
<g id="Layer_1-2">
	<path class="st0" d="M0,77.8l3-3c2.2,2.2,4.2,3.1,6.5,3.1c3.2,0,5-1.6,5-4c0-6.4-14-2.8-14-12.5c0-5.2,3.9-8.5,9.8-8.5
		c3.6,0,6.6,1.4,8.5,3.5l-3.1,3.1c-1.6-1.6-3.2-2.5-5.4-2.5c-3,0-4.9,1.5-4.9,3.9c0,6.1,14.1,2.1,14.1,12.2c0,5.4-4.1,8.8-10.2,8.8
		C5.2,82,2.2,80.3,0,77.8z"/>
	<path class="st0" d="M24.1,71.8V53.4H29v17.9c0,4.1,2.4,6.1,6,6.1s5.9-2,5.9-6.1V53.4h4.9v18.3C45.8,78.6,41.5,82,35,82
		S24.1,78.6,24.1,71.8z"/>
	<path class="st0" d="M50.3,77.8l3-3c2.2,2.2,4.2,3.1,6.5,3.1c3.2,0,5-1.6,5-4c0-6.4-14-2.8-14-12.5c0-5.2,3.9-8.5,9.8-8.5
		c3.6,0,6.6,1.4,8.5,3.5L66,59.5c-1.6-1.6-3.2-2.5-5.4-2.5c-3,0-4.9,1.5-4.9,3.9c0,6.1,14.1,2.1,14.1,12.2c0,5.4-4.1,8.8-10.2,8.8
		C55.5,82,52.4,80.3,50.3,77.8z"/>
	<path class="st0" d="M74,76.8V58.1c0-2.7,2-4.7,4.7-4.7h13.6v4.5h-12c-0.8,0-1.5,0.6-1.5,1.4v5.9h12.6v4.3H78.9v6
		c0,0.8,0.6,1.4,1.5,1.4h12v4.5H78.7C76,81.4,74,79.5,74,76.8z"/>
	<path class="st0" d="M0.9,109.2v-0.4c0-8.4,5.7-14.2,13.5-14.2S28,100.4,28,108.8v0.4c0,8.5-5.7,14.4-13.5,14.4
		S0.9,117.7,0.9,109.2z M14.4,120.2c5.9,0,10-4.4,10-11.1v-0.4c0-6.6-4.2-10.9-10-10.9s-10,4.3-10,10.9v0.4
		C4.4,115.8,8.6,120.2,14.4,120.2z"/>
	<path class="st0" d="M36.3,119.6v3.4h-3V93.9h3.2V107c1.5-2.2,3.8-3.6,6.7-3.6c5.2,0,9,4,9,9.8v0.4c0,5.9-3.8,9.9-9,9.9
		C40.2,123.5,37.8,122,36.3,119.6z M42.8,120.6c3.6,0,6.2-2.8,6.2-7v-0.4c0-4.2-2.6-6.9-6.2-6.9s-6.4,2.8-6.4,7.2
		S39.1,120.6,42.8,120.6z"/>
	<path class="st0" d="M55.3,121.1l1.4-2.2c1.4,1.2,3.5,2,5.6,2c2.4,0,4-1.2,4-3c0-4.6-10.3-1.6-10.3-8.7c0-3.4,2.8-5.8,7-5.8
		c2.4,0,4.6,0.8,6.2,2l-1.4,2.2c-1.4-1-3-1.6-4.8-1.6c-2.3,0-3.9,1.2-3.9,3c0,4.5,10.4,1.6,10.4,8.8c0,3.4-3,5.7-7.2,5.7
		C59.5,123.4,56.9,122.5,55.3,121.1z"/>
	<path class="st0" d="M72.9,113.6v-0.4c0-5.6,3.6-9.7,9-9.7s8.9,4.4,8.2,11H76.2c0.4,3.6,2.8,6.1,6.6,6.1c2,0,3.6-0.5,4.7-1.5l1.8,2
		c-1.5,1.6-3.9,2.5-6.7,2.5C76.8,123.5,72.9,119.4,72.9,113.6z M87,111.8c0-3.5-2.1-5.6-5-5.6c-3.2,0-5.3,2.2-5.8,5.6H87z"/>
	<path class="st0" d="M94.3,103.8h3.2v3.1c0.9-2.4,3-3.2,5.3-3.2h1.6v3.2h-1.9c-3.1,0-5,1.5-5,4.7v11.4h-3.2
		C94.3,123.1,94.3,103.8,94.3,103.8z"/>
	<path class="st0" d="M106,103.8h3.4l6,15.4l6-15.4h3.4l-7.6,19.2h-3.4L106,103.8z"/>
	<path class="st0" d="M139.2,121.2c-1.1,1.5-3,2.3-5.7,2.3c-4.6,0-7.4-2.3-7.4-5.7s2.8-6,7.8-6c2.1,0,3.7,0.5,4.9,1.3v-2.5
		c0-2.9-1.5-4.3-4.5-4.3c-2,0-4.4,0.8-6,2.3l-1.5-2.2c1.7-2,4.7-3,7.7-3c4.5,0,7.6,2.4,7.6,7.2v6.2c0,2.1,0,4.2,0.1,6.3h-2.9
		L139.2,121.2L139.2,121.2z M134.1,121c2.9,0,4.7-1.3,4.7-3.3s-1.8-3.3-4.7-3.3s-4.8,1.3-4.8,3.3S131.2,121,134.1,121z"/>
	<path class="st0" d="M151.2,119.6v3.4h-3V93.9h3.2V107c1.5-2.2,3.8-3.6,6.7-3.6c5.2,0,9,4,9,9.8v0.4c0,5.9-3.8,9.9-9,9.9
		C155.2,123.5,152.7,122,151.2,119.6L151.2,119.6z M157.7,120.6c3.6,0,6.2-2.8,6.2-7v-0.4c0-4.2-2.6-6.9-6.2-6.9s-6.4,2.8-6.4,7.2
		S154,120.6,157.7,120.6z"/>
	<path class="st0" d="M173.2,106.6h-3.7v-2.8h6.9v19.2h-3.2C173.2,123.1,173.2,106.6,173.2,106.6z M173,95h3.5v4.6H173V95z"/>
	<path class="st0" d="M183.9,118.2V96.6h-3.5v-2.8h6.8v24.3c0,1.2,0.9,2.1,2.1,2.1h1.8v2.8h-2C186,123.1,183.9,121.2,183.9,118.2
		L183.9,118.2z"/>
	<path class="st0" d="M195.4,106.6h-3.7v-2.8h6.9v19.2h-3.2C195.4,123.1,195.4,106.6,195.4,106.6z M195.3,95h3.5v4.6h-3.5V95z"/>
	<path class="st0" d="M205.7,117.9v-11.3h-3.5v-2.8h3.5v-4.8h3.2v4.8h5v2.8h-5v11.5c0,1.2,0.9,2.2,2.1,2.2h2.9v2.8h-3
		C208.4,123.1,205.7,121.7,205.7,117.9L205.7,117.9z"/>
	<path class="st0" d="M216.1,128.3h3.8c1.2,0,1.8-0.9,2.2-2l1.4-3.1l-8-19.4h3.6l6.1,15.5l5.8-15.5h3.6l-9.2,22.6
		c-0.9,2.2-2.2,4.6-5.6,4.6h-3.6L216.1,128.3L216.1,128.3z"/>
	<g id="Layer_1-3">
		<path class="st0" d="M87.5,14.1c-0.6-0.6-1.5-0.6-2.1,0c-0.7,0.6-0.6,1.8,0.2,2.3c0.5,0.3,1.2,0.3,1.6,0
			C88.1,15.8,88.2,14.7,87.5,14.1 M85.6,9c-4-0.9-7.6,2.6-6.6,6.6c0.5,2,2.1,3.6,4.1,4.1c4,0.9,7.6-2.6,6.7-6.6
			C89.3,11.1,87.7,9.5,85.6,9 M59.2,31.5c-2.6-1-3.6-0.8-6.9-0.7c-2.3,0-2.4,0-5,0c-0.8,0-1.1,3.9,1.8,4.7c1.3,0.4,2.7,0.6,3.7,1.6
			c0.4,0.4,0.7,1.1-0.3,1.1h-7.3c-1.3,0-2.5,0-3.5-0.8c-1.5-1.2-2.2-3-2.9-4.7c-0.8-1.8-1.6-3.5-2.6-5.2c-1.9-3.3-4.5-6.3-7.9-8.1
			c-4.3-2.3-11.5-3.4-17.3,1C5,24.9,6.3,33.6,11.6,37.9c2.1,1.7,4.8,2.4,7.5,2.2c5.2-0.3,9.1-4.2,8.1-8.9c-0.3-1.6-1.2-3.1-2.6-3.9
			c-1-0.6-2.2-0.8-3.3-0.8c-1.2,0-2.5,0.2-3.4,1.1c-1,1-1.2,2.8-0.4,4c0.5,0.7,1.2,1.2,1.1,2.1c-0.1,0.6-0.6,1-1.1,1.2
			c-1,0.2-1.9-0.3-2.5-1c-1.7-1.8-2.2-4.5-1.3-6.8c1.2-3,4.6-4.6,7.8-4.5c4.1,0.1,8,2.9,9.7,6.6c1.7,3.8,1.2,8.4-1.1,11.8
			c-5.2,7.6-18,6.7-23.9,0.3c-3.7-4-5.8-7.9-5.5-15.1C0.8,21,3.7,16,7.5,12.5C13.6,6.7,21.6,2.8,29.8,1C34.8,0,40-0.2,45,0.3
			c4.5,0.4,8.9,1.3,13.2,2.6c2.1,0.7,4.2,1.4,6.2,2.4C66.2,6.1,68.6,7,70,8.4C70,5.8,69.9,3,69.9,1c0-0.8,0.8-1.3,1.5-0.9
			c2.9,1.4,9.8,4.6,14.4,6.7c6.1,2.8,6.6,9.4,6.8,15.3c0,0.1,0,0.3-0.1,0.4c-0.2,0.4-1.2,0.3-1.6,0.3c-0.7,0-1.8,0-2.6,0
			c-1.5,0.1-2.9,0-4.4,0c-2.7-0.1-5.3-1.3-7.1-2.8c-0.2-0.1-0.7-0.3-1,0c-0.3,0.3-0.2,0.7,0,0.9c1,1,2.1,1.7,3.4,2.3
			c1.6,0.8,3.4,1,5.2,1.1c1.9,0.1,3.8,0.1,5.7-0.1c1.6-0.2,2-0.3,0.4,0.9c-1.4,1-3,1.8-4.6,2.3c-2.3,0.8-4.8,1.2-7.2,1.2
			c-1.5,0-3,0-4.4-0.2c-0.8-0.1-1.5-0.2-2.3-0.3c-0.6-0.1-1.3-0.2-1.9,0c-0.6,0.1-1.1,0.4-1.4,0.9c-0.5,0.6-0.7,2.4-0.4,3.1
			c0.5,1.5,1.7,2.3,3,3.1c1.4,0.8,3.2,1.1,3.5,2.6c0.1,0.3-2.8,0.3-3.2,0.3h-3.8c0,0-2.1,0-2.9-0.2c0,0-0.1,0-0.1,0
			c-0.4-0.2-0.6-0.8-0.8-1.3c-0.2-0.6-0.6-1.3-1-1.9C62,33.4,60.6,32,59.2,31.5 M88.4,14.4c0,2.3-1.8,4.1-4.1,4.1s-4.1-1.8-4.1-4.1
			s1.8-4.1,4.1-4.1S88.4,12.1,88.4,14.4"/>
	</g>
</g>
</svg>
