<?xml version="1.0" encoding="utf-8"?>
<!-- Generator: Adobe Illustrator 28.0.0, SVG Export Plug-In . SVG Version: 6.00 Build 0)  -->
<svg version="1.1" id="Layer_2_00000020395167994007471560000015486641978324695728_"
	 xmlns="http://www.w3.org/2000/svg" xmlns:xlink="http://www.w3.org/1999/xlink" x="0px" y="0px" viewBox="0 0 231.2 129.6"
	 style="enable-background:new 0 0 231.2 129.6;" xml:space="preserve">
<g id="Layer_1-2">
	<path d="M0.1,77.9l3-3C5.3,77,7.3,78,9.6,78c3.2,0,5-1.6,5-4c0-6.4-14-2.8-14-12.5c0-5.2,3.9-8.5,9.8-8.5c3.6,0,6.6,1.4,8.5,3.5
		l-3.1,3.1c-1.6-1.6-3.2-2.5-5.4-2.5c-3,0-4.9,1.5-4.9,3.9c0,6.1,14.1,2.1,14.1,12.2c0,5.4-4.1,8.8-10.2,8.8
		C5.3,82.1,2.2,80.5,0.1,77.9z"/>
	<path d="M24.2,71.9V53.6h4.9v17.9c0,4.1,2.4,6.1,6,6.1s5.9-2,5.9-6.1V53.6h4.9v18.3c0,6.8-4.3,10.2-10.8,10.2S24.2,78.7,24.2,71.9z
		"/>
	<path d="M50.4,77.9l3-3c2.2,2.2,4.2,3.1,6.5,3.1c3.2,0,5-1.6,5-4c0-6.4-14-2.8-14-12.5c0-5.2,3.9-8.5,9.8-8.5
		c3.6,0,6.6,1.4,8.5,3.5l-3.1,3.1c-1.6-1.6-3.2-2.5-5.4-2.5c-3,0-4.9,1.5-4.9,3.9c0,6.1,14.1,2.1,14.1,12.2c0,5.4-4.1,8.8-10.2,8.8
		C55.6,82.1,52.5,80.5,50.4,77.9z"/>
	<path d="M74.1,76.9V58.2c0-2.7,2-4.7,4.7-4.7h13.6V58h-12c-0.8,0-1.5,0.6-1.5,1.4v5.9h12.6v4.3H79v6c0,0.8,0.6,1.4,1.5,1.4h12v4.5
		H78.8C76.1,81.6,74.1,79.6,74.1,76.9z"/>
	<path d="M1,107.6v-0.4c0-8.4,5.6-14.2,13.4-14.2s13.4,5.8,13.4,14.2v0.4c0,8.5-5.6,14.4-13.4,14.4S1,116.1,1,107.6z M14.4,119.4
		c6.2,0,10.7-4.7,10.7-11.8v-0.4c0-6.9-4.4-11.5-10.7-11.5s-10.7,4.6-10.7,11.5v0.4C3.8,114.7,8.2,119.4,14.4,119.4z"/>
	<path d="M35.8,117.7v3.9h-2.4V92.4H36v13.7c1.4-2.5,4-4,7-4c5.2,0,9,4,9,9.7v0.4c0,5.9-3.7,9.9-9,9.9
		C39.9,122,37.3,120.3,35.8,117.7z M42.7,119.7c3.9,0,6.7-3,6.7-7.6v-0.4c0-4.4-2.8-7.4-6.7-7.4s-6.9,3.1-6.9,7.7
		S38.8,119.7,42.7,119.7z"/>
	<path d="M55.2,119.6l1.2-1.8c1.4,1.2,3.6,2.1,5.7,2.1c2.6,0,4.4-1.4,4.4-3.3c0-5-10.6-1.8-10.6-8.9c0-3.3,2.7-5.6,6.8-5.6
		c2.4,0,4.5,0.8,6,2l-1.2,1.8c-1.3-1-3-1.7-4.9-1.7c-2.5,0-4.3,1.4-4.3,3.4c0,4.9,10.6,1.8,10.6,9c0,3.3-2.8,5.5-6.9,5.5
		C59.3,121.9,56.7,121,55.2,119.6z"/>
	<path d="M72.5,112.1v-0.4c0-5.6,3.6-9.6,8.9-9.6s8.6,4.3,7.9,10.6H75c0.3,4.1,3,6.9,7.1,6.9c2,0,3.8-0.5,4.9-1.6l1.4,1.6
		c-1.4,1.4-3.8,2.3-6.5,2.3C76.4,122,72.5,117.9,72.5,112.1z M86.9,110.6c0.1-3.9-2.2-6.3-5.5-6.3c-3.6,0-5.9,2.5-6.3,6.3H86.9z"/>
	<path d="M93.9,102.4h2.5v3.2c0.9-2.5,3-3.2,5.4-3.2h1.7v2.5h-1.9c-3.2,0-5.1,1.6-5.1,5.1v11.6h-2.6
		C93.9,121.6,93.9,102.5,93.9,102.4z"/>
	<path d="M105.1,102.4h2.6l6.4,16.1l6.4-16.1h2.6l-7.7,19.1h-2.7L105.1,102.4z"/>
	<path d="M138.1,119.4c-1,1.6-3,2.5-5.9,2.5c-4.5,0-7.3-2.2-7.3-5.6s2.8-5.8,7.6-5.8c2.3,0,4.1,0.6,5.3,1.6v-3
		c0-3.3-1.7-4.8-4.8-4.8c-2.1,0-4.5,0.8-6.1,2.4l-1.2-1.8c1.7-2,4.6-3,7.4-3c4.4,0,7.3,2.3,7.3,7.1v6.1c0,2.1,0,4.2,0.1,6.4h-2.3
		C138.1,121.6,138.1,119.4,138.1,119.4z M132.7,120c3.2,0,5.1-1.5,5.1-3.7s-1.8-3.6-5.1-3.6s-5.2,1.4-5.2,3.6S129.5,120,132.7,120z"
		/>
	<path d="M149.2,117.7v3.9h-2.4V92.4h2.6v13.7c1.4-2.5,4-4,7-4c5.2,0,9,4,9,9.7v0.4c0,5.9-3.7,9.9-9,9.9
		C153.3,122,150.7,120.3,149.2,117.7L149.2,117.7z M156.2,119.7c3.9,0,6.7-3,6.7-7.6v-0.4c0-4.4-2.8-7.4-6.7-7.4s-6.9,3.1-6.9,7.7
		S152.2,119.7,156.2,119.7z"/>
	<path d="M171.7,104.7h-3.8v-2.2h6.4v19.1h-2.5C171.7,121.6,171.7,104.7,171.7,104.7z M171.6,93.7h2.7v4.4h-2.7V93.7z"/>
	<path d="M182.1,116.9V94.6h-3.7v-2.2h6.2v24.6c0,1.4,1,2.4,2.4,2.4h1.7v2.2h-1.8C184.1,121.6,182.1,119.7,182.1,116.9L182.1,116.9z
		"/>
	<path d="M193.4,104.7h-3.8v-2.2h6.4v19.1h-2.5C193.4,121.6,193.4,104.7,193.4,104.7z M193.3,93.7h2.7v4.4h-2.7V93.7z"/>
	<path d="M203.3,116.7v-12h-3.6v-2.2h3.6v-4.8h2.5v4.8h5.3v2.2h-5.3v12.2c0,1.4,1,2.5,2.4,2.5h2.8v2.2h-2.8
		C205.7,121.6,203.3,120.1,203.3,116.7z"/>
	<path d="M213.2,127.4h3.6c1.4,0,2-1.1,2.6-2.3l1.5-3.4l-7.9-19.2h2.8l6.5,16.2l6.2-16.2h2.8l-9.3,22.7c-0.9,2.1-2.1,4.4-5.2,4.4
		h-3.5L213.2,127.4L213.2,127.4z"/>
	<g id="Layer_1-3">
		<path d="M87.4,16.5c-0.5,0.3-1.2,0.3-1.7,0c-0.8-0.5-0.9-1.7-0.2-2.3c0.6-0.6,1.6-0.6,2.1,0C88.3,14.8,88.2,15.9,87.4,16.5
			 M89.8,13.2c0.9,4-2.7,7.6-6.7,6.7c-2.1-0.5-3.7-2.1-4.2-4.1c-0.9-4,2.7-7.6,6.7-6.7C87.7,9.5,89.3,11.1,89.8,13.2 M62.7,34.8
			c0.5,0.7,0.8,1.3,1.1,1.9c0.2,0.5,0.3,1,0.8,1.3c0,0,0.1,0,0.1,0c0.8,0.3,2.9,0.2,2.9,0.2h3.9c0.3,0,3.2,0,3.2-0.3
			c-0.3-1.6-2.2-1.8-3.5-2.7c-1.3-0.8-2.5-1.6-3-3.1c-0.3-0.8-0.1-2.5,0.4-3.1c0.4-0.5,0.9-0.8,1.4-0.9c0.6-0.1,1.3,0,1.9,0
			c0.8,0.1,1.5,0.2,2.3,0.3c1.5,0.2,3,0.3,4.5,0.2c2.5-0.1,4.9-0.5,7.3-1.3c1.6-0.5,3.2-1.3,4.6-2.3c1.6-1.2,1.2-1.1-0.4-0.9
			c-1.9,0.2-3.8,0.2-5.8,0.1c-1.8-0.1-3.6-0.3-5.2-1.1c-1.3-0.7-2.4-1.3-3.4-2.3c-0.2-0.1-0.2-0.6,0-0.9c0.3-0.3,0.8-0.1,1,0
			c1.8,1.5,4.4,2.7,7.1,2.8c1.5,0.1,2.9,0.1,4.4,0c0.7,0,1.8,0,2.6,0c0.4,0,1.4,0.1,1.6-0.3c0.1-0.1,0.1-0.2,0.1-0.4
			c-0.2-5.9-0.7-12.6-6.8-15.4c-4.6-2.1-11.5-5.4-14.4-6.7c-0.7-0.3-1.5,0.2-1.5,0.9c0,2,0.1,4.8,0.1,7.4c-1.4-1.4-3.8-2.3-5.6-3.2
			c-2-0.9-4.1-1.7-6.3-2.4c-4.3-1.3-8.8-2.2-13.3-2.6C39.7-0.2,34.5,0,29.5,1C21.2,2.8,13.1,6.7,7,12.5C3.2,16.1,0.2,21.2,0,26.3
			c-0.3,7.3,1.8,11.2,5.5,15.2c6,6.4,18.8,7.3,24-0.3c2.3-3.4,2.8-8.1,1.1-11.9c-1.7-3.8-5.6-6.5-9.8-6.7c-3.2-0.1-6.6,1.5-7.9,4.5
			c-0.9,2.3-0.4,5.1,1.3,6.8c0.7,0.7,1.6,1.2,2.6,1c0.6-0.1,1.1-0.6,1.1-1.2c0.1-0.9-0.6-1.4-1.1-2.1c-0.9-1.2-0.7-3,0.4-4
			c0.9-0.9,2.2-1.1,3.5-1.1c1.2,0,2.3,0.2,3.3,0.8c1.4,0.8,2.3,2.3,2.7,3.9c1,4.8-2.9,8.7-8.2,9c-2.7,0.2-5.4-0.5-7.5-2.2
			c-5.3-4.3-6.6-13-0.5-17.7c5.8-4.4,13.1-3.3,17.4-1c3.4,1.8,6,4.9,8,8.2c1,1.7,1.8,3.4,2.6,5.2c0.7,1.7,1.4,3.4,2.9,4.7
			c1,0.8,2.2,0.8,3.5,0.8h7.3c1,0,0.8-0.7,0.3-1.1c-1-1-2.4-1.2-3.7-1.6c-3-0.8-2.7-4.7-1.8-4.7c2.7,0,2.7,0.1,5,0
			c3.3,0,4.4-0.2,7,0.7C60.5,32.2,61.8,33.5,62.7,34.8"/>
	</g>
</g>
</svg>
