<?xml version="1.0" encoding="UTF-8"?>
<svg id="Layer_2" data-name="Layer 2" xmlns="http://www.w3.org/2000/svg" viewBox="0 0 481.05 37.89">
  <g>
    <path d="M193.09,16.25v-.72c0-8.36,6.28-14.24,14.16-14.24,3.36,0,6.32,1,8.56,2.8l-1.64,2.04c-1.84-1.44-4.28-2.24-6.92-2.24-6.48,0-11.44,4.8-11.44,11.64v.72c0,6.84,4.96,11.64,11.44,11.64,2.68,0,5.12-.84,6.96-2.32l1.68,2.04c-2.28,1.84-5.32,2.88-8.64,2.88-7.88,0-14.16-5.88-14.16-14.24Z"/>
    <path d="M218.93,22.33v-11.56h2.52v11.16c0,4.52,2.28,6,5.32,6s5.84-2.08,5.84-6.28v-10.88h2.48v19.12h-2.24v-3.32c-1.52,2.8-4.36,3.72-6.52,3.72-4.28,0-7.4-2.32-7.4-7.96Z"/>
    <path d="M239.69,27.89l1.16-1.76c1.4,1.28,3.56,2.08,5.64,2.08,2.64,0,4.44-1.36,4.44-3.36,0-5-10.56-1.8-10.56-8.88,0-3.28,2.68-5.6,6.76-5.6,2.36,0,4.48.8,6,1.96l-1.16,1.8c-1.32-1.04-3-1.68-4.88-1.68-2.56,0-4.28,1.36-4.28,3.32,0,4.92,10.64,1.84,10.64,9,0,3.24-2.88,5.48-6.96,5.48-2.68,0-5.28-.92-6.8-2.36Z"/>
    <path d="M259.49,25.05v-12.04h-3.6v-2.24h3.6v-4.76h2.52v4.76h5.28v2.24h-5.28v12.2c0,1.44,1.08,2.48,2.44,2.48h2.84v2.2h-2.84c-2.56,0-4.96-1.48-4.96-4.84Z"/>
    <path d="M269.81,20.41v-.36c0-5.68,3.96-9.68,9.36-9.68s9.32,4,9.32,9.6v.44c0,5.8-3.92,9.88-9.32,9.88s-9.36-4.08-9.36-9.88ZM285.97,20.41v-.44c0-4.32-2.8-7.32-6.8-7.32s-6.84,3.08-6.84,7.4v.36c0,4.48,2.84,7.6,6.84,7.6s6.8-3.12,6.8-7.6Z"/>
    <path d="M293.49,10.77h2.44v3.36c1.44-2.8,4.04-3.76,6.32-3.76,2.92,0,5.16,1.32,6.2,4.12,1.56-3.12,4.48-4.12,6.76-4.12,4.2,0,7,2.64,7,8.28v11.24h-2.48v-10.96c0-4.4-2.04-6.2-5.08-6.2s-5.52,2.16-5.52,6.16v11h-2.52v-10.96c0-4.4-2-6.2-5.04-6.2s-5.56,2.16-5.56,6.16v11h-2.52V10.77Z"/>
    <path d="M326.97,20.41v-.4c0-5.56,3.56-9.64,8.84-9.64s8.68,4.28,7.96,10.64h-14.28c.28,4.08,3,6.92,7.12,6.92,2.04,0,3.72-.52,4.92-1.56l1.44,1.64c-1.44,1.44-3.8,2.28-6.48,2.28-5.64,0-9.52-4.04-9.52-9.88ZM329.53,18.89h11.84c.08-3.88-2.2-6.28-5.52-6.28-3.56,0-5.92,2.52-6.32,6.28Z"/>
    <path d="M348.69,10.77h2.48v3.12c.96-2.44,3-3.16,5.36-3.16h1.64v2.52h-1.84c-3.16,0-5.08,1.56-5.08,5.04v11.6h-2.56V10.77Z"/>
    <path d="M369.69,16.25v-.72c0-8.36,6.28-14.24,14.16-14.24,3.36,0,6.32,1,8.56,2.8l-1.64,2.04c-1.84-1.44-4.28-2.24-6.92-2.24-6.48,0-11.44,4.8-11.44,11.64v.72c0,6.84,4.96,11.64,11.44,11.64,2.68,0,5.12-.84,6.96-2.32l1.68,2.04c-2.28,1.84-5.32,2.88-8.64,2.88-7.88,0-14.16-5.88-14.16-14.24Z"/>
    <path d="M394.57,20.41v-.4c0-5.56,3.56-9.64,8.84-9.64s8.68,4.28,7.96,10.64h-14.28c.28,4.08,3,6.92,7.12,6.92,2.04,0,3.72-.52,4.92-1.56l1.44,1.64c-1.44,1.44-3.8,2.28-6.48,2.28-5.64,0-9.52-4.04-9.52-9.88ZM397.13,18.89h11.84c.08-3.88-2.2-6.28-5.52-6.28-3.56,0-5.92,2.52-6.32,6.28Z"/>
    <path d="M416.29,10.77h2.44v3.4c1.56-2.88,4.44-3.8,6.6-3.8,4.28,0,7.32,2.72,7.32,8.36v11.16h-2.56v-10.84c0-4.48-2.28-6.32-5.36-6.32s-5.88,2.16-5.88,6.36v10.8h-2.56V10.77Z"/>
    <path d="M439.53,25.05v-12.04h-3.6v-2.24h3.6v-4.76h2.52v4.76h5.28v2.24h-5.28v12.2c0,1.44,1.08,2.48,2.44,2.48h2.84v2.2h-2.84c-2.56,0-4.96-1.48-4.96-4.84Z"/>
    <path d="M449.85,20.41v-.4c0-5.56,3.56-9.64,8.84-9.64s8.68,4.28,7.96,10.64h-14.28c.28,4.08,3,6.92,7.12,6.92,2.04,0,3.72-.52,4.92-1.56l1.44,1.64c-1.44,1.44-3.8,2.28-6.48,2.28-5.64,0-9.52-4.04-9.52-9.88ZM452.41,18.89h11.84c.08-3.88-2.2-6.28-5.52-6.28-3.56,0-5.92,2.52-6.32,6.28Z"/>
    <path d="M471.57,10.77h2.48v3.12c.96-2.44,3-3.16,5.36-3.16h1.64v2.52h-1.84c-3.16,0-5.08,1.56-5.08,5.04v11.6h-2.56V10.77Z"/>
  </g>
  <g>
    <g id="Layer_1" data-name="Layer 1">
      <path d="M68.56,13.22c-.39.26-.91.26-1.3,0-.64-.42-.7-1.31-.19-1.82.46-.47,1.21-.47,1.67,0,.51.51.45,1.4-.19,1.82M70.42,10.64c.74,3.15-2.09,5.99-5.25,5.25-1.61-.38-2.88-1.65-3.26-3.26-.74-3.15,2.09-5.98,5.24-5.25,1.61.37,2.88,1.65,3.26,3.25M49.19,27.59c.36.52.66,1.02.83,1.52.12.36.27.82.62,1.01.02.01.04.02.06.03.64.23,2.3.19,2.3.19h3.04c.26,0,2.55,0,2.49-.26-.27-1.22-1.69-1.44-2.77-2.08-.99-.59-1.93-1.26-2.36-2.42-.22-.6-.09-1.97.29-2.47.28-.36.69-.6,1.13-.7.49-.1,1-.01,1.49.04.6.06,1.2.17,1.81.25,1.16.15,2.34.21,3.51.18,1.94-.05,3.88-.36,5.71-.99,1.28-.43,2.54-1.01,3.63-1.82,1.24-.92.91-.83-.34-.71-1.5.15-3.02.18-4.53.09-1.41-.08-2.79-.25-4.07-.9-1-.52-1.86-1.04-2.66-1.84-.12-.12-.19-.48.02-.7.21-.22.66-.09.79.02,1.39,1.16,3.46,2.11,5.6,2.22,1.16.06,2.29.08,3.44.03.58-.03,1.45-.02,2.03-.03.3,0,1.12.08,1.27-.23.05-.09.04-.2.04-.3-.17-4.63-.51-9.86-5.36-12.07-3.62-1.65-9.04-4.22-11.33-5.28-.53-.25-1.15.15-1.15.74,0,1.55.08,3.77.08,5.8-1.1-1.12-2.95-1.82-4.36-2.47-1.6-.73-3.25-1.36-4.93-1.88-3.38-1.05-6.88-1.69-10.4-2.04-3.99-.4-8.05-.21-11.99.6-6.48,1.34-12.84,4.46-17.67,9.01C2.5,12.92.18,16.89.02,20.92c-.22,5.71,1.37,8.77,4.31,11.93,4.69,5.03,14.77,5.74,18.85-.23,1.84-2.69,2.24-6.33.9-9.3-1.33-2.97-4.4-5.11-7.65-5.22-2.52-.08-5.21,1.2-6.17,3.53-.74,1.78-.32,3.98,1.02,5.36.52.54,1.23.98,2.01.81.46-.1.84-.44.91-.91.1-.68-.5-1.13-.86-1.65-.66-.95-.53-2.37.3-3.17.7-.68,1.74-.88,2.72-.88.91,0,1.84.16,2.62.62,1.1.65,1.83,1.83,2.09,3.09.76,3.75-2.29,6.79-6.42,7.03-2.11.13-4.26-.43-5.91-1.76-4.18-3.36-5.2-10.23-.42-13.9,4.53-3.48,10.26-2.58,13.63-.77,2.7,1.45,4.71,3.81,6.24,6.43.77,1.32,1.42,2.69,2.02,4.09.58,1.34,1.13,2.7,2.29,3.68.77.65,1.72.63,2.73.63h5.77c.78,0,.59-.52.25-.87-.76-.78-1.86-.96-2.88-1.24-2.32-.64-2.09-3.72-1.44-3.72,2.08,0,2.14.06,3.96.04,2.63-.04,3.42-.19,5.48.57,1.1.41,2.15,1.48,2.84,2.46"/>
    </g>
    <g>
      <path d="M85.37,26.11l3.04-3.04c2.16,2.2,4.16,3.12,6.52,3.12,3.16,0,5.04-1.6,5.04-3.96,0-6.44-13.96-2.8-13.96-12.48,0-5.2,3.88-8.52,9.76-8.52,3.6,0,6.6,1.4,8.48,3.52l-3.12,3.12c-1.6-1.64-3.24-2.48-5.36-2.48-2.96,0-4.88,1.52-4.88,3.88,0,6.08,14.08,2.12,14.08,12.24,0,5.36-4.12,8.84-10.2,8.84-4.2,0-7.24-1.68-9.4-4.24Z"/>
      <path d="M109.45,20.11V1.8h4.92v17.92c0,4.08,2.36,6.08,5.96,6.08s5.92-2,5.92-6.08V1.8h4.92v18.32c0,6.84-4.32,10.24-10.84,10.24s-10.88-3.4-10.88-10.24Z"/>
      <path d="M135.65,26.11l3.04-3.04c2.16,2.2,4.16,3.12,6.52,3.12,3.16,0,5.04-1.6,5.04-3.96,0-6.44-13.96-2.8-13.96-12.48,0-5.2,3.88-8.52,9.76-8.52,3.6,0,6.6,1.4,8.48,3.52l-3.12,3.12c-1.6-1.64-3.24-2.48-5.36-2.48-2.96,0-4.88,1.52-4.88,3.88,0,6.08,14.08,2.12,14.08,12.24,0,5.36-4.12,8.84-10.2,8.84-4.2,0-7.24-1.68-9.4-4.24Z"/>
      <path d="M159.41,25.11V6.48c0-2.72,1.96-4.68,4.68-4.68h13.6v4.48h-11.96c-.84,0-1.48.64-1.48,1.44v5.88h12.6v4.28h-12.6v6c0,.8.64,1.44,1.48,1.44h11.96v4.48h-13.6c-2.72,0-4.68-1.96-4.68-4.68Z"/>
    </g>
  </g>
</svg>