<?xml version="1.0" encoding="UTF-8"?>
<svg id="Layer_2" data-name="Layer 2" xmlns="http://www.w3.org/2000/svg" viewBox="0 0 481.05 37.89">
  <defs>
    <style>
      .cls-1 {
        fill: #0d322c;
      }

      .cls-2 {
        fill: #30ba78;
      }
    </style>
  </defs>
  <g>
    <path class="cls-1" d="M207.33,30.49c-1.95,0-3.77-.35-5.46-1.04-1.69-.69-3.18-1.67-4.46-2.92-1.28-1.25-2.28-2.75-3-4.48-.72-1.73-1.08-3.64-1.08-5.72v-.88c0-2.08.36-3.98,1.08-5.72.72-1.73,1.72-3.23,3-4.48,1.28-1.25,2.77-2.23,4.46-2.92s3.51-1.04,5.46-1.04c1.57,0,3.05.21,4.44.64,1.39.43,2.61,1.03,3.68,1.8l-.68.92c-2.05-1.47-4.53-2.2-7.44-2.2-1.79,0-3.45.31-5,.94s-2.91,1.52-4.08,2.68c-1.17,1.16-2.09,2.53-2.74,4.12-.65,1.59-.98,3.34-.98,5.26v.88c0,1.92.33,3.67.98,5.26.65,1.59,1.57,2.96,2.74,4.12,1.17,1.16,2.53,2.05,4.08,2.68s3.21.94,5,.94c2.93,0,5.41-.75,7.44-2.24l.72.92c-1.07.8-2.3,1.41-3.7,1.84-1.4.43-2.89.64-4.46.64Z"/>
    <path class="cls-1" d="M226.29,30.29c-1.39,0-2.63-.26-3.74-.78s-1.97-1.37-2.6-2.54c-.63-1.17-.94-2.73-.94-4.68v-11.28h1.12v11.2c0,1.73.27,3.11.82,4.14.55,1.03,1.29,1.75,2.24,2.18.95.43,2.01.64,3.18.64s2.32-.27,3.36-.82c1.04-.54,1.88-1.36,2.52-2.44.64-1.08.96-2.42.96-4.02v-10.88h1.08v18.88h-1.04v-4.96h.32c-.29.96-.71,1.78-1.24,2.46-.53.68-1.14,1.23-1.82,1.66-.68.43-1.38.74-2.1.94-.72.2-1.43.3-2.12.3Z"/>
    <path class="cls-1" d="M245.89,30.29c-1.23,0-2.43-.21-3.6-.62-1.17-.41-2.11-.99-2.8-1.74l.64-.88c.64.67,1.49,1.2,2.56,1.6s2.13.6,3.2.6c1.55,0,2.81-.38,3.78-1.14.97-.76,1.46-1.75,1.46-2.98,0-.99-.27-1.75-.8-2.28-.53-.53-1.22-.94-2.06-1.22-.84-.28-1.73-.53-2.66-.74s-1.82-.49-2.66-.84c-.84-.35-1.53-.84-2.06-1.48-.53-.64-.8-1.53-.8-2.68,0-1.57.58-2.85,1.74-3.82,1.16-.97,2.66-1.46,4.5-1.46,1.12,0,2.16.19,3.12.56s1.79.85,2.48,1.44l-.64.88c-.61-.53-1.34-.97-2.18-1.3-.84-.33-1.77-.5-2.78-.5-1.49,0-2.72.39-3.68,1.16s-1.44,1.76-1.44,2.96c0,.96.27,1.71.8,2.24.53.53,1.22.94,2.06,1.22.84.28,1.73.54,2.68.76.95.23,1.84.51,2.68.86.84.35,1.53.85,2.06,1.5.53.65.8,1.57.8,2.74,0,1.01-.27,1.91-.82,2.68-.55.77-1.3,1.38-2.26,1.82-.96.44-2.07.66-3.32.66Z"/>
    <path class="cls-1" d="M254.93,12.13v-1.12h10.72v1.12h-10.72ZM262.97,29.89c-.59,0-1.14-.1-1.66-.3-.52-.2-.97-.49-1.36-.86-.39-.37-.69-.82-.9-1.34-.21-.52-.32-1.1-.32-1.74V6.25h1.12v19.44c0,.91.3,1.65.9,2.24.6.59,1.34.88,2.22.88h2.68v1.08h-2.68Z"/>
    <path class="cls-1" d="M277.17,30.29c-1.73,0-3.27-.42-4.62-1.26-1.35-.84-2.4-1.99-3.16-3.46-.76-1.47-1.14-3.16-1.14-5.08v-.32c0-1.87.38-3.52,1.14-4.96.76-1.44,1.81-2.57,3.16-3.38,1.35-.81,2.89-1.22,4.62-1.22s3.27.4,4.6,1.2c1.33.8,2.38,1.91,3.14,3.34s1.14,3.06,1.14,4.9v.44c0,1.92-.38,3.61-1.14,5.08s-1.81,2.62-3.14,3.46c-1.33.84-2.87,1.26-4.6,1.26ZM277.17,29.21c1.52,0,2.86-.37,4.02-1.12,1.16-.75,2.07-1.77,2.72-3.08.65-1.31.98-2.81.98-4.52v-.44c0-1.65-.33-3.1-.98-4.34-.65-1.24-1.56-2.21-2.72-2.92-1.16-.71-2.5-1.06-4.02-1.06s-2.83.36-4,1.08c-1.17.72-2.09,1.71-2.76,2.98-.67,1.27-1,2.73-1,4.38v.32c0,1.71.33,3.21,1,4.52.67,1.31,1.59,2.33,2.76,3.08,1.17.75,2.51,1.12,4,1.12Z"/>
    <path class="cls-1" d="M291.65,29.89V11.01h1.08v4.68l-.2-.08c.43-1.22,1.01-2.2,1.76-2.92.75-.72,1.57-1.25,2.48-1.58.91-.33,1.8-.5,2.68-.5,1.73,0,3.19.45,4.36,1.34,1.17.89,1.96,2.3,2.36,4.22h-.32c.4-1.36.99-2.45,1.76-3.26.77-.81,1.64-1.4,2.6-1.76s1.89-.54,2.8-.54c2.11,0,3.79.67,5.04,2,1.25,1.33,1.88,3.47,1.88,6.4v10.88h-1.08v-10.84c0-2.61-.55-4.49-1.64-5.62-1.09-1.13-2.53-1.7-4.32-1.7s-3.35.61-4.62,1.84-1.9,3.04-1.9,5.44v10.88h-1.12v-10.84c0-2.61-.55-4.49-1.64-5.62-1.09-1.13-2.53-1.7-4.32-1.7s-3.35.61-4.62,1.84-1.9,3.04-1.9,5.44v10.88h-1.12Z"/>
    <path class="cls-1" d="M334.57,30.29c-1.81,0-3.43-.42-4.84-1.26-1.41-.84-2.51-1.99-3.3-3.46-.79-1.47-1.18-3.16-1.18-5.08v-.4c0-1.87.36-3.51,1.08-4.92.72-1.41,1.73-2.53,3.02-3.34,1.29-.81,2.78-1.22,4.46-1.22s3.12.42,4.32,1.26c1.2.84,2.09,2,2.68,3.48.59,1.48.77,3.19.56,5.14h-15.28v-1.04h14.6l-.48.6c.19-1.65.03-3.11-.48-4.36-.51-1.25-1.27-2.22-2.3-2.92-1.03-.69-2.23-1.04-3.62-1.04-1.47,0-2.75.35-3.86,1.06-1.11.71-1.97,1.69-2.6,2.94s-.94,2.71-.94,4.36v.4c0,1.71.35,3.21,1.04,4.52.69,1.31,1.65,2.33,2.88,3.06,1.23.73,2.64,1.1,4.24,1.1,1.04,0,2.03-.15,2.98-.46s1.73-.71,2.34-1.22l.68.88c-.67.59-1.53,1.05-2.6,1.4-1.07.35-2.2.52-3.4.52Z"/>
    <path class="cls-1" d="M346.81,29.89V11.01h1.12v3.84l-.24-.08c.32-1.01.76-1.79,1.32-2.32.56-.53,1.21-.91,1.96-1.12s1.55-.32,2.4-.32h1.72v1.16h-1.76c-1.65,0-2.96.45-3.92,1.34-.96.89-1.44,2.35-1.44,4.38v12h-1.16Z"/>
    <path class="cls-1" d="M381.29,30.49c-1.95,0-3.77-.35-5.46-1.04-1.69-.69-3.18-1.67-4.46-2.92-1.28-1.25-2.28-2.75-3-4.48-.72-1.73-1.08-3.64-1.08-5.72v-.88c0-2.08.36-3.98,1.08-5.72.72-1.73,1.72-3.23,3-4.48,1.28-1.25,2.77-2.23,4.46-2.92,1.69-.69,3.51-1.04,5.46-1.04,1.57,0,3.05.21,4.44.64,1.39.43,2.61,1.03,3.68,1.8l-.68.92c-2.05-1.47-4.53-2.2-7.44-2.2-1.79,0-3.45.31-5,.94-1.55.63-2.91,1.52-4.08,2.68-1.17,1.16-2.09,2.53-2.74,4.12-.65,1.59-.98,3.34-.98,5.26v.88c0,1.92.33,3.67.98,5.26.65,1.59,1.57,2.96,2.74,4.12,1.17,1.16,2.53,2.05,4.08,2.68,1.55.63,3.21.94,5,.94,2.93,0,5.41-.75,7.44-2.24l.72.92c-1.07.8-2.3,1.41-3.7,1.84-1.4.43-2.89.64-4.46.64Z"/>
    <path class="cls-1" d="M401.37,30.29c-1.81,0-3.43-.42-4.84-1.26-1.41-.84-2.51-1.99-3.3-3.46-.79-1.47-1.18-3.16-1.18-5.08v-.4c0-1.87.36-3.51,1.08-4.92.72-1.41,1.73-2.53,3.02-3.34,1.29-.81,2.78-1.22,4.46-1.22s3.12.42,4.32,1.26c1.2.84,2.09,2,2.68,3.48.59,1.48.77,3.19.56,5.14h-15.28v-1.04h14.6l-.48.6c.19-1.65.03-3.11-.48-4.36-.51-1.25-1.27-2.22-2.3-2.92-1.03-.69-2.23-1.04-3.62-1.04-1.47,0-2.75.35-3.86,1.06-1.11.71-1.97,1.69-2.6,2.94s-.94,2.71-.94,4.36v.4c0,1.71.35,3.21,1.04,4.52.69,1.31,1.65,2.33,2.88,3.06,1.23.73,2.64,1.1,4.24,1.1,1.04,0,2.03-.15,2.98-.46s1.73-.71,2.34-1.22l.68.88c-.67.59-1.53,1.05-2.6,1.4-1.07.35-2.2.52-3.4.52Z"/>
    <path class="cls-1" d="M413.61,29.89V11.01h1.08v4.96h-.32c.32-.99.75-1.82,1.3-2.5.55-.68,1.17-1.23,1.86-1.66.69-.43,1.41-.73,2.14-.92.73-.19,1.43-.28,2.1-.28,2.13,0,3.89.67,5.26,2,1.37,1.33,2.06,3.47,2.06,6.4v10.88h-1.16v-10.8c0-2.61-.6-4.49-1.8-5.64-1.2-1.14-2.69-1.72-4.48-1.72-1.23,0-2.36.27-3.4.82s-1.88,1.36-2.52,2.44c-.64,1.08-.96,2.43-.96,4.06v10.84h-1.16Z"/>
    <path class="cls-1" d="M432.61,12.13v-1.12h10.72v1.12h-10.72ZM440.65,29.89c-.59,0-1.14-.1-1.66-.3-.52-.2-.97-.49-1.36-.86-.39-.37-.69-.82-.9-1.34-.21-.52-.32-1.1-.32-1.74V6.25h1.12v19.44c0,.91.3,1.65.9,2.24.6.59,1.34.88,2.22.88h2.68v1.08h-2.68Z"/>
    <path class="cls-1" d="M455.25,30.29c-1.81,0-3.43-.42-4.84-1.26-1.41-.84-2.51-1.99-3.3-3.46-.79-1.47-1.18-3.16-1.18-5.08v-.4c0-1.87.36-3.51,1.08-4.92.72-1.41,1.73-2.53,3.02-3.34,1.29-.81,2.78-1.22,4.46-1.22s3.12.42,4.32,1.26c1.2.84,2.09,2,2.68,3.48.59,1.48.77,3.19.56,5.14h-15.28v-1.04h14.6l-.48.6c.19-1.65.03-3.11-.48-4.36-.51-1.25-1.27-2.22-2.3-2.92-1.03-.69-2.23-1.04-3.62-1.04-1.47,0-2.75.35-3.86,1.06-1.11.71-1.97,1.69-2.6,2.94s-.94,2.71-.94,4.36v.4c0,1.71.35,3.21,1.04,4.52.69,1.31,1.65,2.33,2.88,3.06,1.23.73,2.64,1.1,4.24,1.1,1.04,0,2.03-.15,2.98-.46s1.73-.71,2.34-1.22l.68.88c-.67.59-1.53,1.05-2.6,1.4-1.07.35-2.2.52-3.4.52Z"/>
    <path class="cls-1" d="M467.49,29.89V11.01h1.12v3.84l-.24-.08c.32-1.01.76-1.79,1.32-2.32.56-.53,1.21-.91,1.96-1.12s1.55-.32,2.4-.32h1.72v1.16h-1.76c-1.65,0-2.96.45-3.92,1.34-.96.89-1.44,2.35-1.44,4.38v12h-1.16Z"/>
  </g>
  <g>
    <g id="Layer_1" data-name="Layer 1">
      <path class="cls-2" d="M68.56,13.22c-.39.26-.91.26-1.3,0-.64-.42-.7-1.31-.19-1.82.46-.47,1.21-.47,1.67,0,.51.51.45,1.4-.19,1.82M70.42,10.64c.74,3.15-2.09,5.99-5.25,5.25-1.61-.38-2.88-1.65-3.26-3.26-.74-3.15,2.09-5.98,5.24-5.25,1.61.37,2.88,1.65,3.26,3.25M49.19,27.59c.36.52.66,1.02.83,1.52.12.36.27.82.62,1.01.02.01.04.02.06.03.64.23,2.3.19,2.3.19h3.04c.26,0,2.55,0,2.49-.26-.27-1.22-1.69-1.44-2.77-2.08-.99-.59-1.93-1.26-2.36-2.42-.22-.6-.09-1.97.29-2.47.28-.36.69-.6,1.13-.7.49-.1,1-.01,1.49.04.6.06,1.2.17,1.81.25,1.16.15,2.34.21,3.51.18,1.94-.05,3.88-.36,5.71-.99,1.28-.43,2.54-1.01,3.63-1.82,1.24-.92.91-.83-.34-.71-1.5.15-3.02.18-4.53.09-1.41-.08-2.79-.25-4.07-.9-1-.52-1.86-1.04-2.66-1.84-.12-.12-.19-.48.02-.7.21-.22.66-.09.79.02,1.39,1.16,3.46,2.11,5.6,2.22,1.16.06,2.29.08,3.44.03.58-.03,1.45-.02,2.03-.03.3,0,1.12.08,1.27-.23.05-.09.04-.2.04-.3-.17-4.63-.51-9.86-5.36-12.07-3.62-1.65-9.04-4.22-11.33-5.28-.53-.25-1.15.15-1.15.74,0,1.55.08,3.77.08,5.8-1.1-1.12-2.95-1.82-4.36-2.47-1.6-.73-3.25-1.36-4.93-1.88-3.38-1.05-6.88-1.69-10.4-2.04-3.99-.4-8.05-.21-11.99.6-6.48,1.34-12.84,4.46-17.67,9.01C2.5,12.92.18,16.89.02,20.92c-.22,5.71,1.37,8.77,4.31,11.93,4.69,5.03,14.77,5.74,18.85-.23,1.84-2.69,2.24-6.33.9-9.3-1.33-2.97-4.4-5.11-7.65-5.22-2.52-.08-5.21,1.2-6.17,3.53-.74,1.78-.32,3.98,1.02,5.36.52.54,1.23.98,2.01.81.46-.1.84-.44.91-.91.1-.68-.5-1.13-.86-1.65-.66-.95-.53-2.37.3-3.17.7-.68,1.74-.88,2.72-.88.91,0,1.84.16,2.62.62,1.1.65,1.83,1.83,2.09,3.09.76,3.75-2.29,6.79-6.42,7.03-2.11.13-4.26-.43-5.91-1.76-4.18-3.36-5.2-10.23-.42-13.9,4.53-3.48,10.26-2.58,13.63-.77,2.7,1.45,4.71,3.81,6.24,6.43.77,1.32,1.42,2.69,2.02,4.09.58,1.34,1.13,2.7,2.29,3.68.77.65,1.72.63,2.73.63h5.77c.78,0,.59-.52.25-.87-.76-.78-1.86-.96-2.88-1.24-2.32-.64-2.09-3.72-1.44-3.72,2.08,0,2.14.06,3.96.04,2.63-.04,3.42-.19,5.48.57,1.1.41,2.15,1.48,2.84,2.46"/>
    </g>
    <g>
      <path class="cls-1" d="M85.37,26.11l3.04-3.04c2.16,2.2,4.16,3.12,6.52,3.12,3.16,0,5.04-1.6,5.04-3.96,0-6.44-13.96-2.8-13.96-12.48,0-5.2,3.88-8.52,9.76-8.52,3.6,0,6.6,1.4,8.48,3.52l-3.12,3.12c-1.6-1.64-3.24-2.48-5.36-2.48-2.96,0-4.88,1.52-4.88,3.88,0,6.08,14.08,2.12,14.08,12.24,0,5.36-4.12,8.84-10.2,8.84-4.2,0-7.24-1.68-9.4-4.24Z"/>
      <path class="cls-1" d="M109.45,20.11V1.8h4.92v17.92c0,4.08,2.36,6.08,5.96,6.08s5.92-2,5.92-6.08V1.8h4.92v18.32c0,6.84-4.32,10.24-10.84,10.24s-10.88-3.4-10.88-10.24Z"/>
      <path class="cls-1" d="M135.65,26.11l3.04-3.04c2.16,2.2,4.16,3.12,6.52,3.12,3.16,0,5.04-1.6,5.04-3.96,0-6.44-13.96-2.8-13.96-12.48,0-5.2,3.88-8.52,9.76-8.52,3.6,0,6.6,1.4,8.48,3.52l-3.12,3.12c-1.6-1.64-3.24-2.48-5.36-2.48-2.96,0-4.88,1.52-4.88,3.88,0,6.08,14.08,2.12,14.08,12.24,0,5.36-4.12,8.84-10.2,8.84-4.2,0-7.24-1.68-9.4-4.24Z"/>
      <path class="cls-1" d="M159.41,25.11V6.48c0-2.72,1.96-4.68,4.68-4.68h13.6v4.48h-11.96c-.84,0-1.48.64-1.48,1.44v5.88h12.6v4.28h-12.6v6c0,.8.64,1.44,1.48,1.44h11.96v4.48h-13.6c-2.72,0-4.68-1.96-4.68-4.68Z"/>
    </g>
  </g>
</svg>