<?xml version="1.0" encoding="UTF-8"?>
<svg id="Layer_2" data-name="Layer 2" xmlns="http://www.w3.org/2000/svg" viewBox="0 0 481.05 37.89">
  <defs>
    <style>
      .cls-1 {
        fill: #30ba78;
      }

      .cls-2 {
        fill: #fff;
      }
    </style>
  </defs>
  <g>
    <path class="cls-2" d="M193.09,16.25v-.72c0-8.36,6.28-14.24,14.16-14.24,3.36,0,6.32,1,8.56,2.8l-1.64,2.04c-1.84-1.44-4.28-2.24-6.92-2.24-6.48,0-11.44,4.8-11.44,11.64v.72c0,6.84,4.96,11.64,11.44,11.64,2.68,0,5.12-.84,6.96-2.32l1.68,2.04c-2.28,1.84-5.32,2.88-8.64,2.88-7.88,0-14.16-5.88-14.16-14.24Z"/>
    <path class="cls-2" d="M218.93,22.33v-11.56h2.52v11.16c0,4.52,2.28,6,5.32,6s5.84-2.08,5.84-6.28v-10.88h2.48v19.12h-2.24v-3.32c-1.52,2.8-4.36,3.72-6.52,3.72-4.28,0-7.4-2.32-7.4-7.96Z"/>
    <path class="cls-2" d="M239.69,27.89l1.16-1.76c1.4,1.28,3.56,2.08,5.64,2.08,2.64,0,4.44-1.36,4.44-3.36,0-5-10.56-1.8-10.56-8.88,0-3.28,2.68-5.6,6.76-5.6,2.36,0,4.48.8,6,1.96l-1.16,1.8c-1.32-1.04-3-1.68-4.88-1.68-2.56,0-4.28,1.36-4.28,3.32,0,4.92,10.64,1.84,10.64,9,0,3.24-2.88,5.48-6.96,5.48-2.68,0-5.28-.92-6.8-2.36Z"/>
    <path class="cls-2" d="M259.49,25.05v-12.04h-3.6v-2.24h3.6v-4.76h2.52v4.76h5.28v2.24h-5.28v12.2c0,1.44,1.08,2.48,2.44,2.48h2.84v2.2h-2.84c-2.56,0-4.96-1.48-4.96-4.84Z"/>
    <path class="cls-2" d="M269.81,20.41v-.36c0-5.68,3.96-9.68,9.36-9.68s9.32,4,9.32,9.6v.44c0,5.8-3.92,9.88-9.32,9.88s-9.36-4.08-9.36-9.88ZM285.97,20.41v-.44c0-4.32-2.8-7.32-6.8-7.32s-6.84,3.08-6.84,7.4v.36c0,4.48,2.84,7.6,6.84,7.6s6.8-3.12,6.8-7.6Z"/>
    <path class="cls-2" d="M293.49,10.77h2.44v3.36c1.44-2.8,4.04-3.76,6.32-3.76,2.92,0,5.16,1.32,6.2,4.12,1.56-3.12,4.48-4.12,6.76-4.12,4.2,0,7,2.64,7,8.28v11.24h-2.48v-10.96c0-4.4-2.04-6.2-5.08-6.2s-5.52,2.16-5.52,6.16v11h-2.52v-10.96c0-4.4-2-6.2-5.04-6.2s-5.56,2.16-5.56,6.16v11h-2.52V10.77Z"/>
    <path class="cls-2" d="M326.97,20.41v-.4c0-5.56,3.56-9.64,8.84-9.64s8.68,4.28,7.96,10.64h-14.28c.28,4.08,3,6.92,7.12,6.92,2.04,0,3.72-.52,4.92-1.56l1.44,1.64c-1.44,1.44-3.8,2.28-6.48,2.28-5.64,0-9.52-4.04-9.52-9.88ZM329.53,18.89h11.84c.08-3.88-2.2-6.28-5.52-6.28-3.56,0-5.92,2.52-6.32,6.28Z"/>
    <path class="cls-2" d="M348.69,10.77h2.48v3.12c.96-2.44,3-3.16,5.36-3.16h1.64v2.52h-1.84c-3.16,0-5.08,1.56-5.08,5.04v11.6h-2.56V10.77Z"/>
    <path class="cls-2" d="M369.69,16.25v-.72c0-8.36,6.28-14.24,14.16-14.24,3.36,0,6.32,1,8.56,2.8l-1.64,2.04c-1.84-1.44-4.28-2.24-6.92-2.24-6.48,0-11.44,4.8-11.44,11.64v.72c0,6.84,4.96,11.64,11.44,11.64,2.68,0,5.12-.84,6.96-2.32l1.68,2.04c-2.28,1.84-5.32,2.88-8.64,2.88-7.88,0-14.16-5.88-14.16-14.24Z"/>
    <path class="cls-2" d="M394.57,20.41v-.4c0-5.56,3.56-9.64,8.84-9.64s8.68,4.28,7.96,10.64h-14.28c.28,4.08,3,6.92,7.12,6.92,2.04,0,3.72-.52,4.92-1.56l1.44,1.64c-1.44,1.44-3.8,2.28-6.48,2.28-5.64,0-9.52-4.04-9.52-9.88ZM397.13,18.89h11.84c.08-3.88-2.2-6.28-5.52-6.28-3.56,0-5.92,2.52-6.32,6.28Z"/>
    <path class="cls-2" d="M416.29,10.77h2.44v3.4c1.56-2.88,4.44-3.8,6.6-3.8,4.28,0,7.32,2.72,7.32,8.36v11.16h-2.56v-10.84c0-4.48-2.28-6.32-5.36-6.32s-5.88,2.16-5.88,6.36v10.8h-2.56V10.77Z"/>
    <path class="cls-2" d="M439.53,25.05v-12.04h-3.6v-2.24h3.6v-4.76h2.52v4.76h5.28v2.24h-5.28v12.2c0,1.44,1.08,2.48,2.44,2.48h2.84v2.2h-2.84c-2.56,0-4.96-1.48-4.96-4.84Z"/>
    <path class="cls-2" d="M449.85,20.41v-.4c0-5.56,3.56-9.64,8.84-9.64s8.68,4.28,7.96,10.64h-14.28c.28,4.08,3,6.92,7.12,6.92,2.04,0,3.72-.52,4.92-1.56l1.44,1.64c-1.44,1.44-3.8,2.28-6.48,2.28-5.64,0-9.52-4.04-9.52-9.88ZM452.41,18.89h11.84c.08-3.88-2.2-6.28-5.52-6.28-3.56,0-5.92,2.52-6.32,6.28Z"/>
    <path class="cls-2" d="M471.57,10.77h2.48v3.12c.96-2.44,3-3.16,5.36-3.16h1.64v2.52h-1.84c-3.16,0-5.08,1.56-5.08,5.04v11.6h-2.56V10.77Z"/>
  </g>
  <g>
    <g>
      <path class="cls-2" d="M85.37,26.11l3.04-3.04c2.16,2.2,4.16,3.12,6.52,3.12,3.16,0,5.04-1.6,5.04-3.96,0-6.44-13.96-2.8-13.96-12.48,0-5.2,3.88-8.52,9.76-8.52,3.6,0,6.6,1.4,8.48,3.52l-3.12,3.12c-1.6-1.64-3.24-2.48-5.36-2.48-2.96,0-4.88,1.52-4.88,3.88,0,6.08,14.08,2.12,14.08,12.24,0,5.36-4.12,8.84-10.2,8.84-4.2,0-7.24-1.68-9.4-4.24Z"/>
      <path class="cls-2" d="M109.45,20.11V1.8h4.92v17.92c0,4.08,2.36,6.08,5.96,6.08s5.92-2,5.92-6.08V1.8h4.92v18.32c0,6.84-4.32,10.24-10.84,10.24s-10.88-3.4-10.88-10.24Z"/>
      <path class="cls-2" d="M135.65,26.11l3.04-3.04c2.16,2.2,4.16,3.12,6.52,3.12,3.16,0,5.04-1.6,5.04-3.96,0-6.44-13.96-2.8-13.96-12.48,0-5.2,3.88-8.52,9.76-8.52,3.6,0,6.6,1.4,8.48,3.52l-3.12,3.12c-1.6-1.64-3.24-2.48-5.36-2.48-2.96,0-4.88,1.52-4.88,3.88,0,6.08,14.08,2.12,14.08,12.24,0,5.36-4.12,8.84-10.2,8.84-4.2,0-7.24-1.68-9.4-4.24Z"/>
      <path class="cls-2" d="M159.41,25.11V6.48c0-2.72,1.96-4.68,4.68-4.68h13.6v4.48h-11.96c-.84,0-1.48.64-1.48,1.44v5.88h12.6v4.28h-12.6v6c0,.8.64,1.44,1.48,1.44h11.96v4.48h-13.6c-2.72,0-4.68-1.96-4.68-4.68Z"/>
    </g>
    <path class="cls-1" d="M69.39,11.63c0,1.78-1.44,3.23-3.23,3.23s-3.23-1.44-3.23-3.23,1.44-3.23,3.23-3.23,3.23,1.44,3.23,3.23M46.35,25.13c-2.05-.76-2.85-.61-5.48-.57-1.82.02-1.89-.04-3.96-.04-.64,0-.88,3.08,1.44,3.72,1.02.28,2.12.46,2.88,1.24.34.35.53.87-.25.87h-5.77c-1.01,0-1.96.02-2.73-.63-1.16-.98-1.71-2.34-2.29-3.68-.61-1.4-1.26-2.77-2.02-4.09-1.52-2.62-3.54-4.99-6.24-6.43-3.37-1.81-9.1-2.71-13.63.77-4.78,3.67-3.75,10.54.42,13.9,1.65,1.33,3.8,1.88,5.91,1.76,4.13-.24,7.18-3.28,6.42-7.03-.25-1.25-.98-2.44-2.09-3.09-.78-.46-1.71-.62-2.62-.62-.98,0-2.01.2-2.72.88-.83.8-.96,2.22-.3,3.17.37.52.96.97.86,1.65-.07.46-.45.81-.91.91-.77.17-1.48-.27-2.01-.81-1.34-1.38-1.76-3.58-1.02-5.36.97-2.33,3.65-3.62,6.18-3.53,3.25.11,6.32,2.25,7.65,5.22,1.33,2.97.93,6.61-.9,9.3-4.08,5.97-14.17,5.26-18.85.23C1.39,29.69-.2,26.63.02,20.92c.16-4.03,2.48-8,5.45-10.8C10.3,5.57,16.67,2.46,23.14,1.11c3.93-.81,7.99-1,11.99-.6,3.52.35,7.02.99,10.4,2.04,1.68.52,3.33,1.15,4.93,1.88,1.41.65,3.26,1.35,4.35,2.47,0-2.02-.08-4.25-.08-5.8,0-.59.62-.99,1.15-.74,2.29,1.06,7.71,3.63,11.33,5.28,4.85,2.22,5.19,7.44,5.36,12.07,0,.1,0,.21-.04.3-.15.32-.97.23-1.27.23-.58,0-1.46,0-2.03.03-1.16.05-2.28.03-3.44-.03-2.14-.1-4.21-1.06-5.59-2.22-.14-.12-.59-.24-.8-.02-.22.23-.14.58-.03.7.79.8,1.66,1.32,2.66,1.84,1.27.65,2.66.82,4.07.9,1.51.09,3.03.07,4.53-.09,1.26-.13,1.58-.21.34.71-1.09.81-2.35,1.39-3.63,1.82-1.84.63-3.78.93-5.71.99-1.17.03-2.35-.03-3.51-.18-.6-.08-1.2-.18-1.81-.25-.49-.05-1-.14-1.49-.04-.44.1-.85.34-1.13.7-.38.5-.52,1.87-.29,2.47.43,1.15,1.37,1.82,2.36,2.42,1.08.64,2.49.86,2.76,2.08.06.26-2.23.26-2.49.26h-3.04s-1.65.04-2.3-.19c-.02,0-.04-.02-.06-.03-.35-.19-.5-.66-.62-1.01-.17-.5-.47-1-.83-1.52-.69-.98-1.74-2.05-2.84-2.46M67.16,7.38c-3.15-.74-5.99,2.09-5.25,5.25.38,1.6,1.65,2.88,3.26,3.26,3.15.74,5.99-2.09,5.25-5.25-.38-1.61-1.65-2.88-3.26-3.25M68.69,11.39c-.46-.47-1.21-.47-1.67,0-.51.51-.45,1.4.18,1.82.39.26.91.26,1.3,0,.64-.42.7-1.31.18-1.82"/>
  </g>
</svg>