<?xml version="1.0" encoding="UTF-8"?>
<svg id="Layer_1" data-name="Layer 1" xmlns="http://www.w3.org/2000/svg" viewBox="0 0 635.03 42.4">
  <defs>
    <style>
      .cls-1 {
        fill: #42b077;
      }

      .cls-2 {
        fill: #0b3835;
      }
    </style>
  </defs>
  <g id="Layer_1-2" data-name="Layer 1">
    <path class="cls-1" d="M66.12,17.95c-.38.25-.88.25-1.25,0-.62-.41-.68-1.26-.18-1.76.44-.46,1.17-.46,1.61,0,.49.49.44,1.35-.18,1.76M67.91,15.46c.72,3.04-2.02,5.78-5.06,5.06-1.55-.36-2.78-1.59-3.14-3.14-.71-3.04,2.02-5.77,5.06-5.06,1.55.36,2.78,1.59,3.14,3.14M47.44,31.82c.35.5.64.98.8,1.46.11.34.26.79.6.98.02.01.04.02.06.03.62.23,2.21.19,2.21.19h2.93c.25,0,2.45,0,2.4-.25-.26-1.18-1.63-1.39-2.67-2.01-.96-.57-1.86-1.22-2.28-2.33-.21-.57-.09-1.9.28-2.38.27-.35.67-.58,1.09-.67.47-.1.96-.01,1.44.03.58.06,1.16.16,1.74.24,1.12.15,2.26.2,3.39.17,1.87-.05,3.74-.35,5.51-.95,1.24-.41,2.45-.98,3.5-1.76,1.19-.89.88-.8-.33-.68-1.45.15-2.91.17-4.37.08-1.36-.08-2.7-.24-3.92-.87-.97-.5-1.8-1-2.56-1.77-.11-.12-.19-.46.02-.68.2-.21.64-.09.77.02,1.34,1.12,3.33,2.04,5.4,2.14,1.12.06,2.2.08,3.32.03.56-.03,1.4-.02,1.96-.03.29,0,1.08.08,1.22-.23.05-.09.04-.19.04-.29-.16-4.47-.49-9.51-5.17-11.64-3.49-1.6-8.72-4.07-10.93-5.09-.51-.24-1.11.14-1.11.71,0,1.49.08,3.64.08,5.59-1.06-1.08-2.84-1.76-4.2-2.38-1.54-.71-3.13-1.31-4.75-1.81-3.26-1.01-6.64-1.63-10.03-1.97-3.85-.38-7.77-.2-11.56.58-6.25,1.29-12.38,4.3-17.04,8.69C2.42,17.67.17,21.5.02,25.38c-.22,5.5,1.33,8.46,4.16,11.5,4.52,4.85,14.24,5.53,18.18-.22,1.77-2.59,2.16-6.1.87-8.97-1.29-2.86-4.24-4.93-7.38-5.04-2.43-.08-5.02,1.16-5.95,3.41-.71,1.72-.31,3.84.99,5.17.5.52,1.19.95,1.94.78.44-.1.81-.43.87-.88.1-.66-.48-1.09-.83-1.59-.64-.91-.51-2.28.29-3.06.68-.65,1.68-.85,2.62-.85.88,0,1.77.16,2.53.6,1.06.62,1.77,1.77,2.01,2.98.73,3.61-2.21,6.55-6.19,6.78-2.04.12-4.11-.41-5.7-1.69-4.03-3.24-5.01-9.87-.41-13.4,4.37-3.36,9.89-2.49,13.14-.75,2.6,1.4,4.55,3.68,6.01,6.2.74,1.27,1.37,2.6,1.95,3.94.56,1.3,1.09,2.6,2.21,3.55.74.63,1.66.61,2.64.61h5.56c.75,0,.57-.5.24-.84-.74-.75-1.8-.92-2.78-1.19-2.24-.62-2.01-3.58-1.39-3.58,2,0,2.07.06,3.82.04,2.53-.04,3.3-.18,5.28.55,1.06.39,2.08,1.43,2.74,2.37"/>
  </g>
  <g>
    <path class="cls-2" d="M88.15,34.56c-2.08,0-3.89-.39-5.44-1.16-1.55-.77-2.87-1.8-3.96-3.08l3.04-3.04c1.09,1.12,2.16,1.92,3.2,2.4s2.15.72,3.32.72c1.57,0,2.81-.37,3.7-1.1.89-.73,1.34-1.69,1.34-2.86,0-.91-.25-1.65-.76-2.22-.51-.57-1.17-1.04-2-1.4-.83-.36-1.74-.68-2.74-.96-1-.28-1.99-.59-2.98-.94-.99-.35-1.89-.8-2.72-1.36-.83-.56-1.49-1.29-2-2.2-.51-.91-.76-2.04-.76-3.4,0-1.76.4-3.27,1.2-4.54.8-1.27,1.94-2.25,3.42-2.94,1.48-.69,3.19-1.04,5.14-1.04,1.81,0,3.45.32,4.9.96,1.45.64,2.65,1.49,3.58,2.56l-3.12,3.12c-.8-.83-1.63-1.45-2.48-1.86-.85-.41-1.83-.62-2.92-.62-1.47,0-2.64.35-3.52,1.06s-1.32,1.65-1.32,2.82c0,.85.25,1.55.76,2.08.51.53,1.18.95,2.02,1.26.84.31,1.76.59,2.76.84s2.01.55,3.02.9c1.01.35,1.93.8,2.76,1.36.83.56,1.49,1.31,2,2.24.51.93.76,2.12.76,3.56,0,1.79-.43,3.34-1.28,4.66-.85,1.32-2.05,2.35-3.58,3.08-1.53.73-3.31,1.1-5.34,1.1Z"/>
    <path class="cls-2" d="M113.51,34.56c-3.28,0-5.91-.85-7.88-2.54-1.97-1.69-2.96-4.26-2.96-7.7V6h4.92v17.92c0,2.03.53,3.55,1.6,4.56,1.07,1.01,2.51,1.52,4.32,1.52s3.26-.51,4.34-1.52c1.08-1.01,1.62-2.53,1.62-4.56V6h4.92v18.32c0,2.27-.45,4.16-1.36,5.68-.91,1.52-2.17,2.66-3.8,3.42-1.63.76-3.53,1.14-5.72,1.14Z"/>
    <path class="cls-2" d="M137.91,34.56c-2.08,0-3.89-.39-5.44-1.16-1.55-.77-2.87-1.8-3.96-3.08l3.04-3.04c1.09,1.12,2.16,1.92,3.2,2.4s2.15.72,3.32.72c1.57,0,2.81-.37,3.7-1.1.89-.73,1.34-1.69,1.34-2.86,0-.91-.25-1.65-.76-2.22-.51-.57-1.17-1.04-2-1.4-.83-.36-1.74-.68-2.74-.96-1-.28-1.99-.59-2.98-.94-.99-.35-1.89-.8-2.72-1.36-.83-.56-1.49-1.29-2-2.2-.51-.91-.76-2.04-.76-3.4,0-1.76.4-3.27,1.2-4.54.8-1.27,1.94-2.25,3.42-2.94,1.48-.69,3.19-1.04,5.14-1.04,1.81,0,3.45.32,4.9.96,1.45.64,2.65,1.49,3.58,2.56l-3.12,3.12c-.8-.83-1.63-1.45-2.48-1.86-.85-.41-1.83-.62-2.92-.62-1.47,0-2.64.35-3.52,1.06s-1.32,1.65-1.32,2.82c0,.85.25,1.55.76,2.08.51.53,1.18.95,2.02,1.26.84.31,1.76.59,2.76.84s2.01.55,3.02.9c1.01.35,1.93.8,2.76,1.36.83.56,1.49,1.31,2,2.24.51.93.76,2.12.76,3.56,0,1.79-.43,3.34-1.28,4.66-.85,1.32-2.05,2.35-3.58,3.08-1.53.73-3.31,1.1-5.34,1.1Z"/>
    <path class="cls-2" d="M157.07,34c-1.36,0-2.47-.44-3.34-1.32-.87-.88-1.3-2-1.3-3.36V10.68c0-1.36.43-2.48,1.3-3.36.87-.88,1.98-1.32,3.34-1.32h13.64v4.48h-12c-.4,0-.74.14-1.02.42s-.42.62-.42,1.02v16.16c0,.4.14.74.42,1.02s.62.42,1.02.42h12v4.48h-13.64ZM154.79,22.08v-4.28h15.08v4.28h-15.08Z"/>
    <path class="cls-2" d="M185.71,34V6h8.52c2.77,0,5,.69,6.68,2.06,1.68,1.37,2.52,3.41,2.52,6.1,0,2.83-.84,4.89-2.52,6.2-1.68,1.31-3.91,1.96-6.68,1.96h-7.28v-2.32h7.2c1.97,0,3.56-.45,4.76-1.36,1.2-.91,1.8-2.39,1.8-4.44,0-1.89-.6-3.35-1.8-4.36-1.2-1.01-2.79-1.52-4.76-1.52h-6.88l1.12-1.04v26.72h-2.68ZM201.15,34l-8.4-12.84h3.04l8.48,12.84h-3.12Z"/>
    <path class="cls-2" d="M214.43,34.4c-2.24,0-4.02-.51-5.34-1.54-1.32-1.03-1.98-2.38-1.98-4.06,0-1.09.29-2.07.88-2.94.59-.87,1.45-1.55,2.6-2.06,1.15-.51,2.52-.76,4.12-.76,2.21,0,3.93.49,5.14,1.48,1.21.99,1.82,2.29,1.82,3.92h-.48c0,1.87-.56,3.33-1.68,4.38-1.12,1.05-2.81,1.58-5.08,1.58ZM220.31,34l-.04-6.96-.28-.76v-4.68c0-1.65-.41-2.87-1.24-3.64-.83-.77-2.03-1.16-3.6-1.16-1.04,0-2.11.2-3.22.6-1.11.4-2.07,1.01-2.9,1.84l-1.24-1.8c.91-.99,2.02-1.73,3.34-2.22,1.32-.49,2.69-.74,4.1-.74s2.71.26,3.8.78c1.09.52,1.95,1.3,2.56,2.34.61,1.04.92,2.36.92,3.96v6.08c0,1.07,0,2.13.02,3.18.01,1.05.05,2.11.1,3.18h-2.32ZM214.91,32.44c1.6,0,2.85-.34,3.74-1.02.89-.68,1.34-1.57,1.34-2.66s-.45-2.01-1.34-2.66c-.89-.65-2.15-.98-3.78-.98s-2.87.33-3.8.98c-.93.65-1.4,1.54-1.4,2.66s.47,1.98,1.4,2.66c.93.68,2.21,1.02,3.84,1.02Z"/>
    <path class="cls-2" d="M228.63,34V14.88h2.44v5.12h-.68c.29-1.07.71-1.95,1.26-2.66.55-.71,1.17-1.27,1.86-1.7.69-.43,1.4-.73,2.12-.9.72-.17,1.4-.26,2.04-.26,2.16,0,3.92.69,5.28,2.06,1.36,1.37,2.04,3.47,2.04,6.3v11.16h-2.56v-10.84c0-2.24-.51-3.85-1.52-4.84-1.01-.99-2.29-1.48-3.84-1.48-1.07,0-2.04.24-2.92.72-.88.48-1.59,1.19-2.14,2.12-.55.93-.82,2.11-.82,3.52v10.8h-2.56Z"/>
    <path class="cls-2" d="M259.43,34.4c-1.89,0-3.57-.41-5.02-1.24-1.45-.83-2.6-1.97-3.44-3.44-.84-1.47-1.26-3.15-1.26-5.04v-.52c0-1.89.42-3.57,1.26-5.02.84-1.45,1.99-2.59,3.44-3.42,1.45-.83,3.13-1.24,5.02-1.24,1.39,0,2.64.24,3.76.72,1.12.48,2.08,1.17,2.88,2.08l-1.6,1.6c-.64-.64-1.38-1.14-2.22-1.5-.84-.36-1.79-.54-2.86-.54-1.36,0-2.59.31-3.68.92-1.09.61-1.95,1.47-2.56,2.58-.61,1.11-.92,2.38-.92,3.82v.52c0,1.47.31,2.75.94,3.84.63,1.09,1.48,1.95,2.56,2.58,1.08.63,2.31.94,3.7.94,1.04,0,1.99-.17,2.84-.5.85-.33,1.61-.85,2.28-1.54l1.56,1.6c-.8.88-1.77,1.57-2.9,2.06-1.13.49-2.39.74-3.78.74Z"/>
    <path class="cls-2" d="M270.51,34V4.8h2.44v15.2h-.68c.29-1.07.71-1.95,1.26-2.66.55-.71,1.17-1.27,1.86-1.7.69-.43,1.4-.73,2.12-.9.72-.17,1.4-.26,2.04-.26,2.16,0,3.92.69,5.28,2.06,1.36,1.37,2.04,3.47,2.04,6.3v11.16h-2.56v-10.84c0-2.24-.51-3.85-1.52-4.84-1.01-.99-2.29-1.48-3.84-1.48-1.07,0-2.04.24-2.92.72-.88.48-1.59,1.19-2.14,2.12-.55.93-.82,2.11-.82,3.52v10.8h-2.56Z"/>
    <path class="cls-2" d="M301.11,34.4c-1.87,0-3.52-.42-4.96-1.26-1.44-.84-2.56-2-3.36-3.48s-1.2-3.19-1.2-5.14v-.4c0-1.87.37-3.52,1.1-4.96.73-1.44,1.77-2.58,3.12-3.42,1.35-.84,2.89-1.26,4.62-1.26s3.32.44,4.6,1.32c1.28.88,2.23,2.12,2.84,3.72.61,1.6.79,3.47.52,5.6h-14.96v-2.12h13.6l-1.12,1.12c.19-1.52.07-2.83-.36-3.94-.43-1.11-1.08-1.96-1.96-2.56-.88-.6-1.92-.9-3.12-.9-1.31,0-2.43.31-3.38.94-.95.63-1.68,1.49-2.2,2.6-.52,1.11-.78,2.39-.78,3.86v.4c0,1.47.29,2.77.88,3.9.59,1.13,1.41,2.02,2.48,2.66,1.07.64,2.32.96,3.76.96,1.01,0,1.94-.13,2.78-.4.84-.27,1.55-.65,2.14-1.16l1.44,1.64c-.72.72-1.64,1.28-2.76,1.68-1.12.4-2.36.6-3.72.6Z"/>
    <path class="cls-2" d="M313.31,34V14.88h2.48v4.56l-.4-.04c.24-1.23.63-2.17,1.18-2.82.55-.65,1.21-1.11,2-1.36.79-.25,1.65-.38,2.58-.38h1.64v2.52h-1.84c-1.57,0-2.81.4-3.72,1.2-.91.8-1.36,2.08-1.36,3.84v11.6h-2.56Z"/>
    <path class="cls-2" d="M335.91,34V6h9.12c1.95,0,3.75.33,5.4.98,1.65.65,3.09,1.58,4.32,2.78,1.23,1.2,2.18,2.62,2.86,4.26.68,1.64,1.02,3.45,1.02,5.42v.48c0,2.08-.35,3.97-1.04,5.68s-1.65,3.19-2.88,4.46c-1.23,1.27-2.67,2.24-4.32,2.92-1.65.68-3.44,1.02-5.36,1.02h-9.12ZM338.59,32.6l-1.12-1.12h7.4c2.11,0,3.99-.49,5.66-1.48,1.67-.99,2.98-2.35,3.94-4.08.96-1.73,1.44-3.73,1.44-6v-.48c0-2.16-.47-4.06-1.42-5.7-.95-1.64-2.25-2.92-3.92-3.84s-3.57-1.38-5.7-1.38h-7.4l1.12-1.12v25.2Z"/>
    <path class="cls-2" d="M371.99,34.4c-1.87,0-3.52-.42-4.96-1.26-1.44-.84-2.56-2-3.36-3.48s-1.2-3.19-1.2-5.14v-.4c0-1.87.37-3.52,1.1-4.96.73-1.44,1.77-2.58,3.12-3.42,1.35-.84,2.89-1.26,4.62-1.26s3.32.44,4.6,1.32c1.28.88,2.23,2.12,2.84,3.72.61,1.6.79,3.47.52,5.6h-14.96v-2.12h13.6l-1.12,1.12c.19-1.52.07-2.83-.36-3.94-.43-1.11-1.08-1.96-1.96-2.56-.88-.6-1.92-.9-3.12-.9-1.31,0-2.43.31-3.38.94-.95.63-1.68,1.49-2.2,2.6-.52,1.11-.78,2.39-.78,3.86v.4c0,1.47.29,2.77.88,3.9.59,1.13,1.41,2.02,2.48,2.66,1.07.64,2.32.96,3.76.96,1.01,0,1.94-.13,2.78-.4.84-.27,1.55-.65,2.14-1.16l1.44,1.64c-.72.72-1.64,1.28-2.76,1.68-1.12.4-2.36.6-3.72.6Z"/>
    <path class="cls-2" d="M389.11,34l-7.72-19.12h2.64l6.92,17.4h-1l6.92-17.4h2.64l-7.72,19.12h-2.68Z"/>
    <path class="cls-2" d="M411.15,34.4c-1.87,0-3.52-.42-4.96-1.26-1.44-.84-2.56-2-3.36-3.48s-1.2-3.19-1.2-5.14v-.4c0-1.87.37-3.52,1.1-4.96.73-1.44,1.77-2.58,3.12-3.42,1.35-.84,2.89-1.26,4.62-1.26s3.32.44,4.6,1.32c1.28.88,2.23,2.12,2.84,3.72.61,1.6.79,3.47.52,5.6h-14.96v-2.12h13.6l-1.12,1.12c.19-1.52.07-2.83-.36-3.94-.43-1.11-1.08-1.96-1.96-2.56-.88-.6-1.92-.9-3.12-.9-1.31,0-2.43.31-3.38.94-.95.63-1.68,1.49-2.2,2.6-.52,1.11-.78,2.39-.78,3.86v.4c0,1.47.29,2.77.88,3.9.59,1.13,1.41,2.02,2.48,2.66,1.07.64,2.32.96,3.76.96,1.01,0,1.94-.13,2.78-.4.84-.27,1.55-.65,2.14-1.16l1.44,1.64c-.72.72-1.64,1.28-2.76,1.68-1.12.4-2.36.6-3.72.6Z"/>
    <path class="cls-2" d="M428.19,34c-1.44,0-2.61-.43-3.52-1.28-.91-.85-1.36-1.99-1.36-3.4V5.88l1.12,1.12h-4.8v-2.2h6.24v24.56c0,.69.23,1.27.68,1.74.45.47,1.04.7,1.76.7h1.72v2.2h-1.84Z"/>
    <path class="cls-2" d="M441.43,34.4c-1.81,0-3.43-.42-4.84-1.26-1.41-.84-2.52-2-3.32-3.48s-1.2-3.19-1.2-5.14v-.36c0-1.89.4-3.57,1.2-5.02.8-1.45,1.91-2.59,3.32-3.42,1.41-.83,3.03-1.24,4.84-1.24s3.39.41,4.8,1.22c1.41.81,2.52,1.95,3.32,3.4.8,1.45,1.2,3.11,1.2,4.98v.44c0,1.95-.4,3.66-1.2,5.14-.8,1.48-1.91,2.64-3.32,3.48-1.41.84-3.01,1.26-4.8,1.26ZM441.43,32.12c1.33,0,2.51-.33,3.54-.98,1.03-.65,1.83-1.55,2.4-2.68.57-1.13.86-2.45.86-3.94v-.44c0-1.44-.29-2.71-.86-3.8-.57-1.09-1.37-1.95-2.4-2.58-1.03-.63-2.21-.94-3.54-.94s-2.51.32-3.54.96c-1.03.64-1.83,1.51-2.42,2.62-.59,1.11-.88,2.38-.88,3.82v.36c0,1.49.29,2.81.88,3.94.59,1.13,1.39,2.03,2.42,2.68,1.03.65,2.21.98,3.54.98Z"/>
    <path class="cls-2" d="M455.75,42V14.88h2.4v5.28l-.44-.52c.67-1.57,1.67-2.83,3.02-3.76,1.35-.93,2.89-1.4,4.62-1.4s3.27.41,4.62,1.24c1.35.83,2.41,1.97,3.18,3.42.77,1.45,1.16,3.13,1.16,5.02v.36c0,1.95-.38,3.66-1.14,5.14-.76,1.48-1.81,2.64-3.16,3.48-1.35.84-2.9,1.26-4.66,1.26s-3.22-.45-4.54-1.36c-1.32-.91-2.31-2.12-2.98-3.64l.48-.56v13.16h-2.56ZM465.03,32.12c1.31,0,2.47-.32,3.48-.96,1.01-.64,1.81-1.53,2.38-2.66.57-1.13.86-2.46.86-3.98v-.36c0-1.47-.29-2.75-.86-3.86-.57-1.11-1.37-1.97-2.38-2.6-1.01-.63-2.17-.94-3.48-.94s-2.48.33-3.52.98-1.86,1.55-2.46,2.7c-.6,1.15-.9,2.48-.9,4s.3,2.86.9,4.02,1.42,2.06,2.46,2.7c1.04.64,2.21.96,3.52.96Z"/>
    <path class="cls-2" d="M487.51,34.4c-1.87,0-3.52-.42-4.96-1.26-1.44-.84-2.56-2-3.36-3.48s-1.2-3.19-1.2-5.14v-.4c0-1.87.37-3.52,1.1-4.96.73-1.44,1.77-2.58,3.12-3.42,1.35-.84,2.89-1.26,4.62-1.26s3.32.44,4.6,1.32c1.28.88,2.23,2.12,2.84,3.72.61,1.6.79,3.47.52,5.6h-14.96v-2.12h13.6l-1.12,1.12c.19-1.52.07-2.83-.36-3.94-.43-1.11-1.08-1.96-1.96-2.56-.88-.6-1.92-.9-3.12-.9-1.31,0-2.43.31-3.38.94-.95.63-1.68,1.49-2.2,2.6-.52,1.11-.78,2.39-.78,3.86v.4c0,1.47.29,2.77.88,3.9.59,1.13,1.41,2.02,2.48,2.66,1.07.64,2.32.96,3.76.96,1.01,0,1.94-.13,2.78-.4.84-.27,1.55-.65,2.14-1.16l1.44,1.64c-.72.72-1.64,1.28-2.76,1.68-1.12.4-2.36.6-3.72.6Z"/>
    <path class="cls-2" d="M499.71,34V14.88h2.48v4.56l-.4-.04c.24-1.23.63-2.17,1.18-2.82.55-.65,1.21-1.11,2-1.36.79-.25,1.65-.38,2.58-.38h1.64v2.52h-1.84c-1.57,0-2.81.4-3.72,1.2-.91.8-1.36,2.08-1.36,3.84v11.6h-2.56Z"/>
    <path class="cls-2" d="M518.07,34l10.84-28h3.16l10.88,28h-2.76l-9.92-25.92h.52l-10,25.92h-2.72ZM522.43,26l.92-2.32h14.36l.92,2.32h-16.2Z"/>
    <path class="cls-2" d="M554.47,34.4c-1.89,0-3.57-.41-5.02-1.24-1.45-.83-2.6-1.97-3.44-3.44-.84-1.47-1.26-3.15-1.26-5.04v-.52c0-1.89.42-3.57,1.26-5.02.84-1.45,1.99-2.59,3.44-3.42,1.45-.83,3.13-1.24,5.02-1.24,1.39,0,2.64.24,3.76.72,1.12.48,2.08,1.17,2.88,2.08l-1.6,1.6c-.64-.64-1.38-1.14-2.22-1.5-.84-.36-1.79-.54-2.86-.54-1.36,0-2.59.31-3.68.92-1.09.61-1.95,1.47-2.56,2.58-.61,1.11-.92,2.38-.92,3.82v.52c0,1.47.31,2.75.94,3.84.63,1.09,1.48,1.95,2.56,2.58,1.08.63,2.31.94,3.7.94,1.04,0,1.99-.17,2.84-.5.85-.33,1.61-.85,2.28-1.54l1.56,1.6c-.8.88-1.77,1.57-2.9,2.06-1.13.49-2.39.74-3.78.74Z"/>
    <path class="cls-2" d="M573.47,34.4c-1.89,0-3.57-.41-5.02-1.24-1.45-.83-2.6-1.97-3.44-3.44-.84-1.47-1.26-3.15-1.26-5.04v-.52c0-1.89.42-3.57,1.26-5.02.84-1.45,1.99-2.59,3.44-3.42,1.45-.83,3.13-1.24,5.02-1.24,1.39,0,2.64.24,3.76.72,1.12.48,2.08,1.17,2.88,2.08l-1.6,1.6c-.64-.64-1.38-1.14-2.22-1.5-.84-.36-1.79-.54-2.86-.54-1.36,0-2.59.31-3.68.92-1.09.61-1.95,1.47-2.56,2.58-.61,1.11-.92,2.38-.92,3.82v.52c0,1.47.31,2.75.94,3.84.63,1.09,1.48,1.95,2.56,2.58,1.08.63,2.31.94,3.7.94,1.04,0,1.99-.17,2.84-.5.85-.33,1.61-.85,2.28-1.54l1.56,1.6c-.8.88-1.77,1.57-2.9,2.06-1.13.49-2.39.74-3.78.74Z"/>
    <path class="cls-2" d="M592.27,34.4c-1.87,0-3.52-.42-4.96-1.26-1.44-.84-2.56-2-3.36-3.48s-1.2-3.19-1.2-5.14v-.4c0-1.87.37-3.52,1.1-4.96.73-1.44,1.77-2.58,3.12-3.42,1.35-.84,2.89-1.26,4.62-1.26s3.32.44,4.6,1.32c1.28.88,2.23,2.12,2.84,3.72.61,1.6.79,3.47.52,5.6h-14.96v-2.12h13.6l-1.12,1.12c.19-1.52.07-2.83-.36-3.94-.43-1.11-1.08-1.96-1.96-2.56-.88-.6-1.92-.9-3.12-.9-1.31,0-2.43.31-3.38.94-.95.63-1.68,1.49-2.2,2.6-.52,1.11-.78,2.39-.78,3.86v.4c0,1.47.29,2.77.88,3.9.59,1.13,1.41,2.02,2.48,2.66,1.07.64,2.32.96,3.76.96,1.01,0,1.94-.13,2.78-.4.84-.27,1.55-.65,2.14-1.16l1.44,1.64c-.72.72-1.64,1.28-2.76,1.68-1.12.4-2.36.6-3.72.6Z"/>
    <path class="cls-2" d="M609.55,34.36c-1.36,0-2.65-.21-3.86-.64-1.21-.43-2.19-1-2.94-1.72l1.16-1.76c.69.61,1.55,1.11,2.58,1.5,1.03.39,2.05.58,3.06.58,1.31,0,2.37-.31,3.2-.92.83-.61,1.24-1.43,1.24-2.44,0-.83-.26-1.47-.78-1.92-.52-.45-1.18-.8-1.98-1.04-.8-.24-1.65-.47-2.54-.7-.89-.23-1.74-.52-2.54-.88-.8-.36-1.45-.88-1.96-1.56-.51-.68-.76-1.61-.76-2.78,0-1.65.61-3,1.84-4.04,1.23-1.04,2.87-1.56,4.92-1.56,1.17,0,2.28.18,3.32.54s1.93.83,2.68,1.42l-1.16,1.8c-.67-.51-1.41-.91-2.24-1.22-.83-.31-1.71-.46-2.64-.46-1.25,0-2.28.31-3.08.92-.8.61-1.2,1.41-1.2,2.4,0,.83.25,1.46.76,1.9.51.44,1.17.79,1.98,1.04.81.25,1.67.49,2.58.72.91.23,1.77.53,2.58.9.81.37,1.47.91,1.98,1.6.51.69.76,1.64.76,2.84,0,1.07-.29,2.01-.88,2.84-.59.83-1.41,1.47-2.46,1.94-1.05.47-2.26.7-3.62.7Z"/>
    <path class="cls-2" d="M626.39,34.36c-1.36,0-2.65-.21-3.86-.64-1.21-.43-2.19-1-2.94-1.72l1.16-1.76c.69.61,1.55,1.11,2.58,1.5,1.03.39,2.05.58,3.06.58,1.31,0,2.37-.31,3.2-.92.83-.61,1.24-1.43,1.24-2.44,0-.83-.26-1.47-.78-1.92-.52-.45-1.18-.8-1.98-1.04-.8-.24-1.65-.47-2.54-.7-.89-.23-1.74-.52-2.54-.88-.8-.36-1.45-.88-1.96-1.56-.51-.68-.76-1.61-.76-2.78,0-1.65.61-3,1.84-4.04,1.23-1.04,2.87-1.56,4.92-1.56,1.17,0,2.28.18,3.32.54s1.93.83,2.68,1.42l-1.16,1.8c-.67-.51-1.41-.91-2.24-1.22-.83-.31-1.71-.46-2.64-.46-1.25,0-2.28.31-3.08.92-.8.61-1.2,1.41-1.2,2.4,0,.83.25,1.46.76,1.9.51.44,1.17.79,1.98,1.04.81.25,1.67.49,2.58.72.91.23,1.77.53,2.58.9.81.37,1.47.91,1.98,1.6.51.69.76,1.64.76,2.84,0,1.07-.29,2.01-.88,2.84-.59.83-1.41,1.47-2.46,1.94-1.05.47-2.26.7-3.62.7Z"/>
  </g>
</svg>