<?xml version="1.0" encoding="UTF-8"?>
<svg id="Layer_1" data-name="Layer 1" xmlns="http://www.w3.org/2000/svg" viewBox="0 0 302.76 129.46">
  <defs>
    <style>
      .cls-1 {
        fill: #fff;
      }
    </style>
  </defs>
  <g>
    <path class="cls-1" d="M10.64,81.62c-2.08,0-3.89-.39-5.44-1.16-1.55-.77-2.87-1.8-3.96-3.08l3.04-3.04c1.09,1.12,2.16,1.92,3.2,2.4s2.15.72,3.32.72c1.57,0,2.81-.37,3.7-1.1.89-.73,1.34-1.69,1.34-2.86,0-.91-.25-1.65-.76-2.22-.51-.57-1.17-1.04-2-1.4-.83-.36-1.74-.68-2.74-.96-1-.28-1.99-.59-2.98-.94-.99-.35-1.89-.8-2.72-1.36-.83-.56-1.49-1.29-2-2.2-.51-.91-.76-2.04-.76-3.4,0-1.76.4-3.27,1.2-4.54.8-1.27,1.94-2.25,3.42-2.94,1.48-.69,3.19-1.04,5.14-1.04,1.81,0,3.45.32,4.9.96,1.45.64,2.65,1.49,3.58,2.56l-3.12,3.12c-.8-.83-1.63-1.45-2.48-1.86-.85-.41-1.83-.62-2.92-.62-1.47,0-2.64.35-3.52,1.06s-1.32,1.65-1.32,2.82c0,.85.25,1.55.76,2.08.51.53,1.18.95,2.02,1.26.84.31,1.76.59,2.76.84s2.01.55,3.02.9c1.01.35,1.93.8,2.76,1.36.83.56,1.49,1.31,2,2.24.51.93.76,2.12.76,3.56,0,1.79-.43,3.34-1.28,4.66-.85,1.32-2.05,2.35-3.58,3.08-1.53.73-3.31,1.1-5.34,1.1Z"/>
    <path class="cls-1" d="M36,81.62c-3.28,0-5.91-.85-7.88-2.54-1.97-1.69-2.96-4.26-2.96-7.7v-18.32h4.92v17.92c0,2.03.53,3.55,1.6,4.56,1.07,1.01,2.51,1.52,4.32,1.52s3.26-.51,4.34-1.52c1.08-1.01,1.62-2.53,1.62-4.56v-17.92h4.92v18.32c0,2.27-.45,4.16-1.36,5.68-.91,1.52-2.17,2.66-3.8,3.42-1.63.76-3.53,1.14-5.72,1.14Z"/>
    <path class="cls-1" d="M60.4,81.62c-2.08,0-3.89-.39-5.44-1.16-1.55-.77-2.87-1.8-3.96-3.08l3.04-3.04c1.09,1.12,2.16,1.92,3.2,2.4s2.15.72,3.32.72c1.57,0,2.81-.37,3.7-1.1.89-.73,1.34-1.69,1.34-2.86,0-.91-.25-1.65-.76-2.22-.51-.57-1.17-1.04-2-1.4-.83-.36-1.74-.68-2.74-.96-1-.28-1.99-.59-2.98-.94-.99-.35-1.89-.8-2.72-1.36-.83-.56-1.49-1.29-2-2.2-.51-.91-.76-2.04-.76-3.4,0-1.76.4-3.27,1.2-4.54.8-1.27,1.94-2.25,3.42-2.94,1.48-.69,3.19-1.04,5.14-1.04,1.81,0,3.45.32,4.9.96,1.45.64,2.65,1.49,3.58,2.56l-3.12,3.12c-.8-.83-1.63-1.45-2.48-1.86-.85-.41-1.83-.62-2.92-.62-1.47,0-2.64.35-3.52,1.06s-1.32,1.65-1.32,2.82c0,.85.25,1.55.76,2.08.51.53,1.18.95,2.02,1.26.84.31,1.76.59,2.76.84s2.01.55,3.02.9c1.01.35,1.93.8,2.76,1.36.83.56,1.49,1.31,2,2.24.51.93.76,2.12.76,3.56,0,1.79-.43,3.34-1.28,4.66-.85,1.32-2.05,2.35-3.58,3.08-1.53.73-3.31,1.1-5.34,1.1Z"/>
    <path class="cls-1" d="M79.56,81.06c-1.36,0-2.47-.44-3.34-1.32-.87-.88-1.3-2-1.3-3.36v-18.64c0-1.36.43-2.48,1.3-3.36.87-.88,1.98-1.32,3.34-1.32h13.64v4.48h-12c-.4,0-.74.14-1.02.42s-.42.62-.42,1.02v16.16c0,.4.14.74.42,1.02s.62.42,1.02.42h12v4.48h-13.64ZM77.28,69.14v-4.28h15.08v4.28h-15.08Z"/>
    <path class="cls-1" d="M108.2,81.06v-28h8.52c2.77,0,5,.69,6.68,2.06,1.68,1.37,2.52,3.41,2.52,6.1,0,2.83-.84,4.89-2.52,6.2-1.68,1.31-3.91,1.96-6.68,1.96h-7.28v-2.32h7.2c1.97,0,3.56-.45,4.76-1.36,1.2-.91,1.8-2.39,1.8-4.44,0-1.89-.6-3.35-1.8-4.36-1.2-1.01-2.79-1.52-4.76-1.52h-6.88l1.12-1.04v26.72h-2.68ZM123.64,81.06l-8.4-12.84h3.04l8.48,12.84h-3.12Z"/>
    <path class="cls-1" d="M136.92,81.46c-2.24,0-4.02-.51-5.34-1.54-1.32-1.03-1.98-2.38-1.98-4.06,0-1.09.29-2.07.88-2.94.59-.87,1.45-1.55,2.6-2.06,1.15-.51,2.52-.76,4.12-.76,2.21,0,3.93.49,5.14,1.48,1.21.99,1.82,2.29,1.82,3.92h-.48c0,1.87-.56,3.33-1.68,4.38-1.12,1.05-2.81,1.58-5.08,1.58ZM142.8,81.06l-.04-6.96-.28-.76v-4.68c0-1.65-.41-2.87-1.24-3.64-.83-.77-2.03-1.16-3.6-1.16-1.04,0-2.11.2-3.22.6-1.11.4-2.07,1.01-2.9,1.84l-1.24-1.8c.91-.99,2.02-1.73,3.34-2.22,1.32-.49,2.69-.74,4.1-.74s2.71.26,3.8.78c1.09.52,1.95,1.3,2.56,2.34.61,1.04.92,2.36.92,3.96v6.08c0,1.07,0,2.13.02,3.18.01,1.05.05,2.11.1,3.18h-2.32ZM137.4,79.5c1.6,0,2.85-.34,3.74-1.02.89-.68,1.34-1.57,1.34-2.66s-.45-2.01-1.34-2.66c-.89-.65-2.15-.98-3.78-.98s-2.87.33-3.8.98c-.93.65-1.4,1.54-1.4,2.66s.47,1.98,1.4,2.66c.93.68,2.21,1.02,3.84,1.02Z"/>
    <path class="cls-1" d="M151.12,81.06v-19.12h2.44v5.12h-.68c.29-1.07.71-1.95,1.26-2.66.55-.71,1.17-1.27,1.86-1.7.69-.43,1.4-.73,2.12-.9.72-.17,1.4-.26,2.04-.26,2.16,0,3.92.69,5.28,2.06,1.36,1.37,2.04,3.47,2.04,6.3v11.16h-2.56v-10.84c0-2.24-.51-3.85-1.52-4.84-1.01-.99-2.29-1.48-3.84-1.48-1.07,0-2.04.24-2.92.72-.88.48-1.59,1.19-2.14,2.12-.55.93-.82,2.11-.82,3.52v10.8h-2.56Z"/>
    <path class="cls-1" d="M181.92,81.46c-1.89,0-3.57-.41-5.02-1.24-1.45-.83-2.6-1.97-3.44-3.44-.84-1.47-1.26-3.15-1.26-5.04v-.52c0-1.89.42-3.57,1.26-5.02.84-1.45,1.99-2.59,3.44-3.42,1.45-.83,3.13-1.24,5.02-1.24,1.39,0,2.64.24,3.76.72,1.12.48,2.08,1.17,2.88,2.08l-1.6,1.6c-.64-.64-1.38-1.14-2.22-1.5-.84-.36-1.79-.54-2.86-.54-1.36,0-2.59.31-3.68.92-1.09.61-1.95,1.47-2.56,2.58-.61,1.11-.92,2.38-.92,3.82v.52c0,1.47.31,2.75.94,3.84.63,1.09,1.48,1.95,2.56,2.58,1.08.63,2.31.94,3.7.94,1.04,0,1.99-.17,2.84-.5.85-.33,1.61-.85,2.28-1.54l1.56,1.6c-.8.88-1.77,1.57-2.9,2.06-1.13.49-2.39.74-3.78.74Z"/>
    <path class="cls-1" d="M193,81.06v-29.2h2.44v15.2h-.68c.29-1.07.71-1.95,1.26-2.66.55-.71,1.17-1.27,1.86-1.7.69-.43,1.4-.73,2.12-.9.72-.17,1.4-.26,2.04-.26,2.16,0,3.92.69,5.28,2.06,1.36,1.37,2.04,3.47,2.04,6.3v11.16h-2.56v-10.84c0-2.24-.51-3.85-1.52-4.84-1.01-.99-2.29-1.48-3.84-1.48-1.07,0-2.04.24-2.92.72-.88.48-1.59,1.19-2.14,2.12-.55.93-.82,2.11-.82,3.52v10.8h-2.56Z"/>
    <path class="cls-1" d="M223.6,81.46c-1.87,0-3.52-.42-4.96-1.26-1.44-.84-2.56-2-3.36-3.48s-1.2-3.19-1.2-5.14v-.4c0-1.87.37-3.52,1.1-4.96.73-1.44,1.77-2.58,3.12-3.42,1.35-.84,2.89-1.26,4.62-1.26s3.32.44,4.6,1.32c1.28.88,2.23,2.12,2.84,3.72.61,1.6.79,3.47.52,5.6h-14.96v-2.12h13.6l-1.12,1.12c.19-1.52.07-2.83-.36-3.94-.43-1.11-1.08-1.96-1.96-2.56-.88-.6-1.92-.9-3.12-.9-1.31,0-2.43.31-3.38.94-.95.63-1.68,1.49-2.2,2.6-.52,1.11-.78,2.39-.78,3.86v.4c0,1.47.29,2.77.88,3.9.59,1.13,1.41,2.02,2.48,2.66,1.07.64,2.32.96,3.76.96,1.01,0,1.94-.13,2.78-.4.84-.27,1.55-.65,2.14-1.16l1.44,1.64c-.72.72-1.64,1.28-2.76,1.68-1.12.4-2.36.6-3.72.6Z"/>
    <path class="cls-1" d="M235.8,81.06v-19.12h2.48v4.56l-.4-.04c.24-1.23.63-2.17,1.18-2.82.55-.65,1.21-1.11,2-1.36.79-.25,1.65-.38,2.58-.38h1.64v2.52h-1.84c-1.57,0-2.81.4-3.72,1.2-.91.8-1.36,2.08-1.36,3.84v11.6h-2.56Z"/>
    <path class="cls-1" d="M3.64,121.06v-28h9.12c1.95,0,3.75.33,5.4.98,1.65.65,3.09,1.58,4.32,2.78,1.23,1.2,2.18,2.62,2.86,4.26.68,1.64,1.02,3.45,1.02,5.42v.48c0,2.08-.35,3.97-1.04,5.68s-1.65,3.19-2.88,4.46c-1.23,1.27-2.67,2.24-4.32,2.92-1.65.68-3.44,1.02-5.36,1.02H3.64ZM6.32,119.66l-1.12-1.12h7.4c2.11,0,3.99-.49,5.66-1.48,1.67-.99,2.98-2.35,3.94-4.08.96-1.73,1.44-3.73,1.44-6v-.48c0-2.16-.47-4.06-1.42-5.7-.95-1.64-2.25-2.92-3.92-3.84s-3.57-1.38-5.7-1.38h-7.4l1.12-1.12v25.2Z"/>
    <path class="cls-1" d="M39.72,121.46c-1.87,0-3.52-.42-4.96-1.26-1.44-.84-2.56-2-3.36-3.48s-1.2-3.19-1.2-5.14v-.4c0-1.87.37-3.52,1.1-4.96.73-1.44,1.77-2.58,3.12-3.42,1.35-.84,2.89-1.26,4.62-1.26s3.32.44,4.6,1.32c1.28.88,2.23,2.12,2.84,3.72.61,1.6.79,3.47.52,5.6h-14.96v-2.12h13.6l-1.12,1.12c.19-1.52.07-2.83-.36-3.94-.43-1.11-1.08-1.96-1.96-2.56-.88-.6-1.92-.9-3.12-.9-1.31,0-2.43.31-3.38.94-.95.63-1.68,1.49-2.2,2.6-.52,1.11-.78,2.39-.78,3.86v.4c0,1.47.29,2.77.88,3.9.59,1.13,1.41,2.02,2.48,2.66,1.07.64,2.32.96,3.76.96,1.01,0,1.94-.13,2.78-.4.84-.27,1.55-.65,2.14-1.16l1.44,1.64c-.72.72-1.64,1.28-2.76,1.68-1.12.4-2.36.6-3.72.6Z"/>
    <path class="cls-1" d="M56.84,121.06l-7.72-19.12h2.64l6.92,17.4h-1l6.92-17.4h2.64l-7.72,19.12h-2.68Z"/>
    <path class="cls-1" d="M78.88,121.46c-1.87,0-3.52-.42-4.96-1.26-1.44-.84-2.56-2-3.36-3.48s-1.2-3.19-1.2-5.14v-.4c0-1.87.37-3.52,1.1-4.96.73-1.44,1.77-2.58,3.12-3.42,1.35-.84,2.89-1.26,4.62-1.26s3.32.44,4.6,1.32c1.28.88,2.23,2.12,2.84,3.72.61,1.6.79,3.47.52,5.6h-14.96v-2.12h13.6l-1.12,1.12c.19-1.52.07-2.83-.36-3.94-.43-1.11-1.08-1.96-1.96-2.56-.88-.6-1.92-.9-3.12-.9-1.31,0-2.43.31-3.38.94-.95.63-1.68,1.49-2.2,2.6-.52,1.11-.78,2.39-.78,3.86v.4c0,1.47.29,2.77.88,3.9.59,1.13,1.41,2.02,2.48,2.66,1.07.64,2.32.96,3.76.96,1.01,0,1.94-.13,2.78-.4.84-.27,1.55-.65,2.14-1.16l1.44,1.64c-.72.72-1.64,1.28-2.76,1.68-1.12.4-2.36.6-3.72.6Z"/>
    <path class="cls-1" d="M95.92,121.06c-1.44,0-2.61-.43-3.52-1.28-.91-.85-1.36-1.99-1.36-3.4v-23.44l1.12,1.12h-4.8v-2.2h6.24v24.56c0,.69.23,1.27.68,1.74.45.47,1.04.7,1.76.7h1.72v2.2h-1.84Z"/>
    <path class="cls-1" d="M109.16,121.46c-1.81,0-3.43-.42-4.84-1.26-1.41-.84-2.52-2-3.32-3.48s-1.2-3.19-1.2-5.14v-.36c0-1.89.4-3.57,1.2-5.02.8-1.45,1.91-2.59,3.32-3.42,1.41-.83,3.03-1.24,4.84-1.24s3.39.41,4.8,1.22c1.41.81,2.52,1.95,3.32,3.4.8,1.45,1.2,3.11,1.2,4.98v.44c0,1.95-.4,3.66-1.2,5.14-.8,1.48-1.91,2.64-3.32,3.48-1.41.84-3.01,1.26-4.8,1.26ZM109.16,119.18c1.33,0,2.51-.33,3.54-.98,1.03-.65,1.83-1.55,2.4-2.68.57-1.13.86-2.45.86-3.94v-.44c0-1.44-.29-2.71-.86-3.8-.57-1.09-1.37-1.95-2.4-2.58-1.03-.63-2.21-.94-3.54-.94s-2.51.32-3.54.96c-1.03.64-1.83,1.51-2.42,2.62-.59,1.11-.88,2.38-.88,3.82v.36c0,1.49.29,2.81.88,3.94.59,1.13,1.39,2.03,2.42,2.68,1.03.65,2.21.98,3.54.98Z"/>
    <path class="cls-1" d="M123.48,129.06v-27.12h2.4v5.28l-.44-.52c.67-1.57,1.67-2.83,3.02-3.76,1.35-.93,2.89-1.4,4.62-1.4s3.27.41,4.62,1.24c1.35.83,2.41,1.97,3.18,3.42.77,1.45,1.16,3.13,1.16,5.02v.36c0,1.95-.38,3.66-1.14,5.14-.76,1.48-1.81,2.64-3.16,3.48-1.35.84-2.9,1.26-4.66,1.26s-3.22-.45-4.54-1.36c-1.32-.91-2.31-2.12-2.98-3.64l.48-.56v13.16h-2.56ZM132.76,119.18c1.31,0,2.47-.32,3.48-.96,1.01-.64,1.81-1.53,2.38-2.66.57-1.13.86-2.46.86-3.98v-.36c0-1.47-.29-2.75-.86-3.86-.57-1.11-1.37-1.97-2.38-2.6-1.01-.63-2.17-.94-3.48-.94s-2.48.33-3.52.98-1.86,1.55-2.46,2.7c-.6,1.15-.9,2.48-.9,4s.3,2.86.9,4.02,1.42,2.06,2.46,2.7c1.04.64,2.21.96,3.52.96Z"/>
    <path class="cls-1" d="M155.24,121.46c-1.87,0-3.52-.42-4.96-1.26-1.44-.84-2.56-2-3.36-3.48s-1.2-3.19-1.2-5.14v-.4c0-1.87.37-3.52,1.1-4.96.73-1.44,1.77-2.58,3.12-3.42,1.35-.84,2.89-1.26,4.62-1.26s3.32.44,4.6,1.32c1.28.88,2.23,2.12,2.84,3.72.61,1.6.79,3.47.52,5.6h-14.96v-2.12h13.6l-1.12,1.12c.19-1.52.07-2.83-.36-3.94-.43-1.11-1.08-1.96-1.96-2.56-.88-.6-1.92-.9-3.12-.9-1.31,0-2.43.31-3.38.94-.95.63-1.68,1.49-2.2,2.6-.52,1.11-.78,2.39-.78,3.86v.4c0,1.47.29,2.77.88,3.9.59,1.13,1.41,2.02,2.48,2.66,1.07.64,2.32.96,3.76.96,1.01,0,1.94-.13,2.78-.4.84-.27,1.55-.65,2.14-1.16l1.44,1.64c-.72.72-1.64,1.28-2.76,1.68-1.12.4-2.36.6-3.72.6Z"/>
    <path class="cls-1" d="M167.44,121.06v-19.12h2.48v4.56l-.4-.04c.24-1.23.63-2.17,1.18-2.82.55-.65,1.21-1.11,2-1.36.79-.25,1.65-.38,2.58-.38h1.64v2.52h-1.84c-1.57,0-2.81.4-3.72,1.2-.91.8-1.36,2.08-1.36,3.84v11.6h-2.56Z"/>
    <path class="cls-1" d="M185.8,121.06l10.84-28h3.16l10.88,28h-2.76l-9.92-25.92h.52l-10,25.92h-2.72ZM190.16,113.06l.92-2.32h14.36l.92,2.32h-16.2Z"/>
    <path class="cls-1" d="M222.2,121.46c-1.89,0-3.57-.41-5.02-1.24-1.45-.83-2.6-1.97-3.44-3.44-.84-1.47-1.26-3.15-1.26-5.04v-.52c0-1.89.42-3.57,1.26-5.02.84-1.45,1.99-2.59,3.44-3.42,1.45-.83,3.13-1.24,5.02-1.24,1.39,0,2.64.24,3.76.72,1.12.48,2.08,1.17,2.88,2.08l-1.6,1.6c-.64-.64-1.38-1.14-2.22-1.5-.84-.36-1.79-.54-2.86-.54-1.36,0-2.59.31-3.68.92-1.09.61-1.95,1.47-2.56,2.58-.61,1.11-.92,2.38-.92,3.82v.52c0,1.47.31,2.75.94,3.84.63,1.09,1.48,1.95,2.56,2.58,1.08.63,2.31.94,3.7.94,1.04,0,1.99-.17,2.84-.5.85-.33,1.61-.85,2.28-1.54l1.56,1.6c-.8.88-1.77,1.57-2.9,2.06-1.13.49-2.39.74-3.78.74Z"/>
    <path class="cls-1" d="M241.2,121.46c-1.89,0-3.57-.41-5.02-1.24-1.45-.83-2.6-1.97-3.44-3.44-.84-1.47-1.26-3.15-1.26-5.04v-.52c0-1.89.42-3.57,1.26-5.02.84-1.45,1.99-2.59,3.44-3.42,1.45-.83,3.13-1.24,5.02-1.24,1.39,0,2.64.24,3.76.72,1.12.48,2.08,1.17,2.88,2.08l-1.6,1.6c-.64-.64-1.38-1.14-2.22-1.5-.84-.36-1.79-.54-2.86-.54-1.36,0-2.59.31-3.68.92-1.09.61-1.95,1.47-2.56,2.58-.61,1.11-.92,2.38-.92,3.82v.52c0,1.47.31,2.75.94,3.84.63,1.09,1.48,1.95,2.56,2.58,1.08.63,2.31.94,3.7.94,1.04,0,1.99-.17,2.84-.5.85-.33,1.61-.85,2.28-1.54l1.56,1.6c-.8.88-1.77,1.57-2.9,2.06-1.13.49-2.39.74-3.78.74Z"/>
    <path class="cls-1" d="M260,121.46c-1.87,0-3.52-.42-4.96-1.26-1.44-.84-2.56-2-3.36-3.48s-1.2-3.19-1.2-5.14v-.4c0-1.87.37-3.52,1.1-4.96.73-1.44,1.77-2.58,3.12-3.42,1.35-.84,2.89-1.26,4.62-1.26s3.32.44,4.6,1.32c1.28.88,2.23,2.12,2.84,3.72.61,1.6.79,3.47.52,5.6h-14.96v-2.12h13.6l-1.12,1.12c.19-1.52.07-2.83-.36-3.94-.43-1.11-1.08-1.96-1.96-2.56-.88-.6-1.92-.9-3.12-.9-1.31,0-2.43.31-3.38.94-.95.63-1.68,1.49-2.2,2.6-.52,1.11-.78,2.39-.78,3.86v.4c0,1.47.29,2.77.88,3.9.59,1.13,1.41,2.02,2.48,2.66,1.07.64,2.32.96,3.76.96,1.01,0,1.94-.13,2.78-.4.84-.27,1.55-.65,2.14-1.16l1.44,1.64c-.72.72-1.64,1.28-2.76,1.68-1.12.4-2.36.6-3.72.6Z"/>
    <path class="cls-1" d="M277.28,121.42c-1.36,0-2.65-.21-3.86-.64-1.21-.43-2.19-1-2.94-1.72l1.16-1.76c.69.61,1.55,1.11,2.58,1.5,1.03.39,2.05.58,3.06.58,1.31,0,2.37-.31,3.2-.92.83-.61,1.24-1.43,1.24-2.44,0-.83-.26-1.47-.78-1.92-.52-.45-1.18-.8-1.98-1.04-.8-.24-1.65-.47-2.54-.7-.89-.23-1.74-.52-2.54-.88-.8-.36-1.45-.88-1.96-1.56-.51-.68-.76-1.61-.76-2.78,0-1.65.61-3,1.84-4.04,1.23-1.04,2.87-1.56,4.92-1.56,1.17,0,2.28.18,3.32.54s1.93.83,2.68,1.42l-1.16,1.8c-.67-.51-1.41-.91-2.24-1.22-.83-.31-1.71-.46-2.64-.46-1.25,0-2.28.31-3.08.92-.8.61-1.2,1.41-1.2,2.4,0,.83.25,1.46.76,1.9.51.44,1.17.79,1.98,1.04.81.25,1.67.49,2.58.72.91.23,1.77.53,2.58.9.81.37,1.47.91,1.98,1.6.51.69.76,1.64.76,2.84,0,1.07-.29,2.01-.88,2.84-.59.83-1.41,1.47-2.46,1.94-1.05.47-2.26.7-3.62.7Z"/>
    <path class="cls-1" d="M294.12,121.42c-1.36,0-2.65-.21-3.86-.64-1.21-.43-2.19-1-2.94-1.72l1.16-1.76c.69.61,1.55,1.11,2.58,1.5,1.03.39,2.05.58,3.06.58,1.31,0,2.37-.31,3.2-.92.83-.61,1.24-1.43,1.24-2.44,0-.83-.26-1.47-.78-1.92-.52-.45-1.18-.8-1.98-1.04-.8-.24-1.65-.47-2.54-.7-.89-.23-1.74-.52-2.54-.88-.8-.36-1.45-.88-1.96-1.56-.51-.68-.76-1.61-.76-2.78,0-1.65.61-3,1.84-4.04,1.23-1.04,2.87-1.56,4.92-1.56,1.17,0,2.28.18,3.32.54s1.93.83,2.68,1.42l-1.16,1.8c-.67-.51-1.41-.91-2.24-1.22-.83-.31-1.71-.46-2.64-.46-1.25,0-2.28.31-3.08.92-.8.61-1.2,1.41-1.2,2.4,0,.83.25,1.46.76,1.9.51.44,1.17.79,1.98,1.04.81.25,1.67.49,2.58.72.91.23,1.77.53,2.58.9.81.37,1.47.91,1.98,1.6.51.69.76,1.64.76,2.84,0,1.07-.29,2.01-.88,2.84-.59.83-1.41,1.47-2.46,1.94-1.05.47-2.26.7-3.62.7Z"/>
  </g>
  <g id="Layer_1-2" data-name="Layer 1">
    <path class="cls-1" d="M85.76,13.66c-.56-.58-1.49-.58-2.05,0-.63.63-.56,1.72.23,2.24.48.32,1.12.32,1.6,0,.78-.52.86-1.61.23-2.24M83.88,8.73c-3.88-.91-7.36,2.58-6.45,6.45.46,1.98,2.03,3.54,4.01,4.01,3.88.91,7.37-2.58,6.45-6.46-.47-1.98-2.03-3.54-4.01-4M58.27,30.57c-2.53-.94-3.51-.75-6.74-.7-2.24.03-2.32-.05-4.88-.05-.79,0-1.08,3.79,1.78,4.57,1.25.35,2.6.56,3.54,1.53.42.42.65,1.07-.31,1.07h-7.09c-1.24,0-2.41.03-3.36-.77-1.43-1.21-2.1-2.88-2.82-4.53-.74-1.72-1.55-3.41-2.49-5.03-1.87-3.22-4.35-6.13-7.68-7.92-4.15-2.23-11.19-3.33-16.77.95-5.88,4.51-4.62,12.97.52,17.1,2.03,1.63,4.68,2.32,7.28,2.16,5.08-.3,8.83-4.04,7.9-8.65-.31-1.54-1.21-3-2.57-3.8-.96-.56-2.11-.77-3.23-.77-1.2,0-2.48.25-3.34,1.08-1.02.99-1.19,2.73-.37,3.9.45.64,1.19,1.19,1.06,2.03-.09.57-.55.99-1.12,1.12-.95.21-1.83-.33-2.47-.99-1.65-1.7-2.17-4.41-1.26-6.6,1.19-2.87,4.5-4.45,7.6-4.35,4,.13,7.77,2.77,9.41,6.43,1.64,3.65,1.15,8.14-1.11,11.44-5.03,7.34-17.43,6.48-23.2.28-3.62-3.88-5.58-7.66-5.31-14.68.19-4.96,3.06-9.85,6.71-13.29C13.92,6.5,21.75,2.67,29.72,1.01,34.56.01,39.55-.22,44.46.27c4.33.43,8.64,1.23,12.8,2.51,2.07.64,4.1,1.41,6.07,2.31,1.73.8,4.01,1.66,5.36,3.04,0-2.49-.1-5.23-.1-7.13,0-.73.76-1.22,1.42-.91,2.82,1.31,9.49,4.46,13.94,6.5,5.97,2.72,6.39,9.16,6.6,14.86,0,.13.01.26-.05.37-.19.39-1.19.29-1.56.29-.71,0-1.79,0-2.5.03-1.42.06-2.81.04-4.24-.03-2.63-.13-5.18-1.3-6.89-2.73-.17-.14-.72-.3-.98-.03-.27.28-.18.71-.03.86.98.99,2.04,1.62,3.27,2.26,1.57.8,3.27,1.01,5.01,1.11,1.85.11,3.72.08,5.58-.11,1.54-.16,1.94-.26.42.87-1.34.99-2.89,1.71-4.47,2.24-2.26.77-4.65,1.15-7.03,1.22-1.44.04-2.89-.04-4.32-.22-.74-.09-1.48-.23-2.22-.3-.6-.06-1.23-.17-1.83-.04-.55.12-1.05.42-1.4.86-.47.61-.63,2.3-.36,3.04.53,1.42,1.68,2.24,2.9,2.97,1.32.79,3.06,1.05,3.4,2.56.07.31-2.74.32-3.06.32h-3.74s-2.04.05-2.83-.24c-.03,0-.05-.02-.07-.03-.43-.23-.62-.81-.76-1.25-.21-.62-.58-1.23-1.02-1.87-.85-1.21-2.15-2.53-3.5-3.03M86.62,13.95c0,2.2-1.77,3.97-3.97,3.97s-3.97-1.78-3.97-3.97,1.78-3.97,3.97-3.97,3.97,1.78,3.97,3.97"/>
  </g>
</svg>