<?xml version="1.0" encoding="UTF-8"?>
<svg id="Layer_1" data-name="Layer 1" xmlns="http://www.w3.org/2000/svg" viewBox="0 0 385.11 42.4">
  <g id="Layer_1-2" data-name="Layer 1">
    <path d="M66.12,17.95c-.38.25-.88.25-1.25,0-.62-.41-.68-1.26-.18-1.76.44-.46,1.17-.46,1.61,0,.49.49.44,1.35-.18,1.76M67.91,15.46c.72,3.04-2.02,5.78-5.06,5.06-1.55-.36-2.78-1.59-3.14-3.14-.71-3.04,2.02-5.77,5.06-5.06,1.55.36,2.78,1.59,3.14,3.14M47.44,31.82c.35.5.64.98.8,1.46.11.34.26.79.6.98.02.01.04.02.06.03.62.23,2.21.19,2.21.19h2.93c.25,0,2.45,0,2.4-.25-.26-1.18-1.63-1.39-2.67-2.01-.96-.57-1.86-1.22-2.28-2.33-.21-.57-.09-1.9.28-2.38.27-.35.67-.58,1.09-.67.47-.1.96-.01,1.44.03.58.06,1.16.16,1.74.24,1.12.15,2.26.2,3.39.17,1.87-.05,3.74-.35,5.51-.95,1.24-.41,2.45-.98,3.5-1.76,1.19-.89.88-.8-.33-.68-1.45.15-2.91.17-4.37.08-1.36-.08-2.7-.24-3.92-.87-.97-.5-1.8-1-2.56-1.77-.11-.12-.19-.46.02-.68.2-.21.64-.09.77.02,1.34,1.12,3.33,2.04,5.4,2.14,1.12.06,2.2.08,3.32.03.56-.03,1.4-.02,1.96-.03.29,0,1.08.08,1.22-.23.05-.09.04-.19.04-.29-.16-4.47-.49-9.51-5.17-11.64-3.49-1.6-8.72-4.07-10.93-5.09-.51-.24-1.11.14-1.11.71,0,1.49.08,3.64.08,5.59-1.06-1.08-2.84-1.76-4.2-2.38-1.54-.71-3.13-1.31-4.75-1.81-3.26-1.01-6.64-1.63-10.03-1.97-3.85-.38-7.77-.2-11.56.58-6.25,1.29-12.38,4.3-17.04,8.69C2.42,17.67.17,21.5.02,25.38c-.22,5.5,1.33,8.46,4.16,11.5,4.52,4.85,14.24,5.53,18.18-.22,1.77-2.59,2.16-6.1.87-8.97-1.29-2.86-4.24-4.93-7.38-5.04-2.43-.08-5.02,1.16-5.95,3.41-.71,1.72-.31,3.84.99,5.17.5.52,1.19.95,1.94.78.44-.1.81-.43.87-.88.1-.66-.48-1.09-.83-1.59-.64-.91-.51-2.28.29-3.06.68-.65,1.68-.85,2.62-.85.88,0,1.77.16,2.53.6,1.06.62,1.77,1.77,2.01,2.98.73,3.61-2.21,6.55-6.19,6.78-2.04.12-4.11-.41-5.7-1.69-4.03-3.24-5.01-9.87-.41-13.4,4.37-3.36,9.89-2.49,13.14-.75,2.6,1.4,4.55,3.68,6.01,6.2.74,1.27,1.37,2.6,1.95,3.94.56,1.3,1.09,2.6,2.21,3.55.74.63,1.66.61,2.64.61h5.56c.75,0,.57-.5.24-.84-.74-.75-1.8-.92-2.78-1.19-2.24-.62-2.01-3.58-1.39-3.58,2,0,2.07.06,3.82.04,2.53-.04,3.3-.18,5.28.55,1.06.39,2.08,1.43,2.74,2.37"/>
  </g>
  <g>
    <path d="M88.15,34.56c-2.08,0-3.89-.39-5.44-1.16-1.55-.77-2.87-1.8-3.96-3.08l3.04-3.04c1.09,1.12,2.16,1.92,3.2,2.4s2.15.72,3.32.72c1.57,0,2.81-.37,3.7-1.1.89-.73,1.34-1.69,1.34-2.86,0-.91-.25-1.65-.76-2.22-.51-.57-1.17-1.04-2-1.4-.83-.36-1.74-.68-2.74-.96-1-.28-1.99-.59-2.98-.94-.99-.35-1.89-.8-2.72-1.36-.83-.56-1.49-1.29-2-2.2-.51-.91-.76-2.04-.76-3.4,0-1.76.4-3.27,1.2-4.54.8-1.27,1.94-2.25,3.42-2.94,1.48-.69,3.19-1.04,5.14-1.04,1.81,0,3.45.32,4.9.96,1.45.64,2.65,1.49,3.58,2.56l-3.12,3.12c-.8-.83-1.63-1.45-2.48-1.86-.85-.41-1.83-.62-2.92-.62-1.47,0-2.64.35-3.52,1.06s-1.32,1.65-1.32,2.82c0,.85.25,1.55.76,2.08.51.53,1.18.95,2.02,1.26.84.31,1.76.59,2.76.84s2.01.55,3.02.9c1.01.35,1.93.8,2.76,1.36.83.56,1.49,1.31,2,2.24.51.93.76,2.12.76,3.56,0,1.79-.43,3.34-1.28,4.66-.85,1.32-2.05,2.35-3.58,3.08-1.53.73-3.31,1.1-5.34,1.1Z"/>
    <path d="M113.51,34.56c-3.28,0-5.91-.85-7.88-2.54-1.97-1.69-2.96-4.26-2.96-7.7V6h4.92v17.92c0,2.03.53,3.55,1.6,4.56,1.07,1.01,2.51,1.52,4.32,1.52s3.26-.51,4.34-1.52c1.08-1.01,1.62-2.53,1.62-4.56V6h4.92v18.32c0,2.27-.45,4.16-1.36,5.68-.91,1.52-2.17,2.66-3.8,3.42-1.63.76-3.53,1.14-5.72,1.14Z"/>
    <path d="M137.91,34.56c-2.08,0-3.89-.39-5.44-1.16-1.55-.77-2.87-1.8-3.96-3.08l3.04-3.04c1.09,1.12,2.16,1.92,3.2,2.4s2.15.72,3.32.72c1.57,0,2.81-.37,3.7-1.1.89-.73,1.34-1.69,1.34-2.86,0-.91-.25-1.65-.76-2.22-.51-.57-1.17-1.04-2-1.4-.83-.36-1.74-.68-2.74-.96-1-.28-1.99-.59-2.98-.94-.99-.35-1.89-.8-2.72-1.36-.83-.56-1.49-1.29-2-2.2-.51-.91-.76-2.04-.76-3.4,0-1.76.4-3.27,1.2-4.54.8-1.27,1.94-2.25,3.42-2.94,1.48-.69,3.19-1.04,5.14-1.04,1.81,0,3.45.32,4.9.96,1.45.64,2.65,1.49,3.58,2.56l-3.12,3.12c-.8-.83-1.63-1.45-2.48-1.86-.85-.41-1.83-.62-2.92-.62-1.47,0-2.64.35-3.52,1.06s-1.32,1.65-1.32,2.82c0,.85.25,1.55.76,2.08.51.53,1.18.95,2.02,1.26.84.31,1.76.59,2.76.84s2.01.55,3.02.9c1.01.35,1.93.8,2.76,1.36.83.56,1.49,1.31,2,2.24.51.93.76,2.12.76,3.56,0,1.79-.43,3.34-1.28,4.66-.85,1.32-2.05,2.35-3.58,3.08-1.53.73-3.31,1.1-5.34,1.1Z"/>
    <path d="M157.07,34c-1.36,0-2.47-.44-3.34-1.32-.87-.88-1.3-2-1.3-3.36V10.68c0-1.36.43-2.48,1.3-3.36.87-.88,1.98-1.32,3.34-1.32h13.64v4.48h-12c-.4,0-.74.14-1.02.42s-.42.62-.42,1.02v16.16c0,.4.14.74.42,1.02s.62.42,1.02.42h12v4.48h-13.64ZM154.79,22.08v-4.28h15.08v4.28h-15.08Z"/>
    <path d="M182.63,8.44v-2.44h20.04v2.44h-20.04ZM191.31,34V7.16h2.68v26.84h-2.68Z"/>
    <path d="M210.83,34.4c-1.87,0-3.52-.42-4.96-1.26-1.44-.84-2.56-2-3.36-3.48s-1.2-3.19-1.2-5.14v-.4c0-1.87.37-3.52,1.1-4.96.73-1.44,1.77-2.58,3.12-3.42,1.35-.84,2.89-1.26,4.62-1.26s3.32.44,4.6,1.32c1.28.88,2.23,2.12,2.84,3.72.61,1.6.79,3.47.52,5.6h-14.96v-2.12h13.6l-1.12,1.12c.19-1.52.07-2.83-.36-3.94-.43-1.11-1.08-1.96-1.96-2.56-.88-.6-1.92-.9-3.12-.9-1.31,0-2.43.31-3.38.94-.95.63-1.68,1.49-2.2,2.6-.52,1.11-.78,2.39-.78,3.86v.4c0,1.47.29,2.77.88,3.9.59,1.13,1.41,2.02,2.48,2.66,1.07.64,2.32.96,3.76.96,1.01,0,1.94-.13,2.78-.4.84-.27,1.55-.65,2.14-1.16l1.44,1.64c-.72.72-1.64,1.28-2.76,1.68-1.12.4-2.36.6-3.72.6Z"/>
    <path d="M227.87,34c-1.44,0-2.61-.43-3.52-1.28-.91-.85-1.36-1.99-1.36-3.4V5.88l1.12,1.12h-4.8v-2.2h6.24v24.56c0,.69.23,1.27.68,1.74.45.47,1.04.7,1.76.7h1.72v2.2h-1.84Z"/>
    <path d="M241.47,34.4c-1.89,0-3.57-.41-5.02-1.24-1.45-.83-2.6-1.97-3.44-3.44-.84-1.47-1.26-3.15-1.26-5.04v-.52c0-1.89.42-3.57,1.26-5.02.84-1.45,1.99-2.59,3.44-3.42,1.45-.83,3.13-1.24,5.02-1.24,1.39,0,2.64.24,3.76.72,1.12.48,2.08,1.17,2.88,2.08l-1.6,1.6c-.64-.64-1.38-1.14-2.22-1.5-.84-.36-1.79-.54-2.86-.54-1.36,0-2.59.31-3.68.92-1.09.61-1.95,1.47-2.56,2.58-.61,1.11-.92,2.38-.92,3.82v.52c0,1.47.31,2.75.94,3.84.63,1.09,1.48,1.95,2.56,2.58,1.08.63,2.31.94,3.7.94,1.04,0,1.99-.17,2.84-.5.85-.33,1.61-.85,2.28-1.54l1.56,1.6c-.8.88-1.77,1.57-2.9,2.06-1.13.49-2.39.74-3.78.74Z"/>
    <path d="M260.11,34.4c-1.81,0-3.43-.42-4.84-1.26-1.41-.84-2.52-2-3.32-3.48s-1.2-3.19-1.2-5.14v-.36c0-1.89.4-3.57,1.2-5.02.8-1.45,1.91-2.59,3.32-3.42,1.41-.83,3.03-1.24,4.84-1.24s3.39.41,4.8,1.22c1.41.81,2.52,1.95,3.32,3.4.8,1.45,1.2,3.11,1.2,4.98v.44c0,1.95-.4,3.66-1.2,5.14-.8,1.48-1.91,2.64-3.32,3.48-1.41.84-3.01,1.26-4.8,1.26ZM260.11,32.12c1.33,0,2.51-.33,3.54-.98,1.03-.65,1.83-1.55,2.4-2.68.57-1.13.86-2.45.86-3.94v-.44c0-1.44-.29-2.71-.86-3.8-.57-1.09-1.37-1.95-2.4-2.58-1.03-.63-2.21-.94-3.54-.94s-2.51.32-3.54.96c-1.03.64-1.83,1.51-2.42,2.62-.59,1.11-.88,2.38-.88,3.82v.36c0,1.49.29,2.81.88,3.94.59,1.13,1.39,2.03,2.42,2.68,1.03.65,2.21.98,3.54.98Z"/>
    <path d="M296.99,34.6c-1.97,0-3.82-.35-5.54-1.04-1.72-.69-3.23-1.67-4.52-2.94-1.29-1.27-2.3-2.77-3.02-4.5-.72-1.73-1.08-3.65-1.08-5.76v-.72c0-2.11.36-4.03,1.08-5.76.72-1.73,1.73-3.23,3.02-4.5,1.29-1.27,2.8-2.25,4.52-2.94,1.72-.69,3.57-1.04,5.54-1.04,1.68,0,3.25.25,4.7.74,1.45.49,2.74,1.18,3.86,2.06l-1.64,2.04c-1.92-1.49-4.23-2.24-6.92-2.24-1.6,0-3.09.28-4.48.84-1.39.56-2.61,1.36-3.66,2.4-1.05,1.04-1.87,2.27-2.44,3.68-.57,1.41-.86,2.99-.86,4.72v.72c0,1.73.29,3.31.86,4.72.57,1.41,1.39,2.64,2.44,3.68,1.05,1.04,2.27,1.84,3.66,2.4,1.39.56,2.88.84,4.48.84,2.75,0,5.07-.77,6.96-2.32l1.68,2.04c-1.12.91-2.42,1.61-3.9,2.12-1.48.51-3.06.76-4.74.76Z"/>
    <path d="M314.95,34c-1.44,0-2.61-.43-3.52-1.28-.91-.85-1.36-1.99-1.36-3.4V5.88l1.12,1.12h-4.8v-2.2h6.24v24.56c0,.69.23,1.27.68,1.74.45.47,1.04.7,1.76.7h1.72v2.2h-1.84Z"/>
    <path d="M328.19,34.4c-1.81,0-3.43-.42-4.84-1.26-1.41-.84-2.52-2-3.32-3.48s-1.2-3.19-1.2-5.14v-.36c0-1.89.4-3.57,1.2-5.02.8-1.45,1.91-2.59,3.32-3.42,1.41-.83,3.03-1.24,4.84-1.24s3.39.41,4.8,1.22c1.41.81,2.52,1.95,3.32,3.4.8,1.45,1.2,3.11,1.2,4.98v.44c0,1.95-.4,3.66-1.2,5.14-.8,1.48-1.91,2.64-3.32,3.48-1.41.84-3.01,1.26-4.8,1.26ZM328.19,32.12c1.33,0,2.51-.33,3.54-.98,1.03-.65,1.83-1.55,2.4-2.68.57-1.13.86-2.45.86-3.94v-.44c0-1.44-.29-2.71-.86-3.8-.57-1.09-1.37-1.95-2.4-2.58-1.03-.63-2.21-.94-3.54-.94s-2.51.32-3.54.96c-1.03.64-1.83,1.51-2.42,2.62-.59,1.11-.88,2.38-.88,3.82v.36c0,1.49.29,2.81.88,3.94.59,1.13,1.39,2.03,2.42,2.68,1.03.65,2.21.98,3.54.98Z"/>
    <path d="M349.63,34.4c-1.41,0-2.68-.27-3.8-.82s-2-1.4-2.64-2.56c-.64-1.16-.96-2.69-.96-4.58v-11.56h2.52v11.16c0,1.49.23,2.68.7,3.56.47.88,1.1,1.51,1.9,1.88.8.37,1.71.56,2.72.56s2-.23,2.88-.7c.88-.47,1.59-1.17,2.14-2.1.55-.93.82-2.09.82-3.48v-10.88h2.48v19.12h-2.24v-5.12h.72c-.29,1.04-.71,1.91-1.24,2.62-.53.71-1.15,1.27-1.84,1.7-.69.43-1.4.73-2.12.92-.72.19-1.4.28-2.04.28Z"/>
    <path d="M372.35,34.4c-1.73,0-3.28-.42-4.64-1.26-1.36-.84-2.42-2-3.18-3.48-.76-1.48-1.14-3.19-1.14-5.14v-.36c0-1.89.39-3.57,1.16-5.02.77-1.45,1.83-2.59,3.18-3.42,1.35-.83,2.89-1.24,4.62-1.24s3.25.45,4.56,1.36c1.31.91,2.29,2.12,2.96,3.64l-.48.6V4.8h2.56v29.2h-2.32v-5.36l.44.52c-.69,1.63-1.71,2.91-3.04,3.84-1.33.93-2.89,1.4-4.68,1.4ZM372.67,32.12c1.33,0,2.52-.32,3.56-.96,1.04-.64,1.85-1.54,2.44-2.7.59-1.16.88-2.5.88-4.02s-.29-2.85-.88-4c-.59-1.15-1.4-2.05-2.44-2.7s-2.23-.98-3.56-.98-2.47.31-3.5.94c-1.03.63-1.82,1.49-2.38,2.6-.56,1.11-.84,2.39-.84,3.86v.36c0,1.52.28,2.85.84,3.98.56,1.13,1.35,2.02,2.38,2.66,1.03.64,2.19.96,3.5.96Z"/>
  </g>
</svg>