<?xml version="1.0" encoding="UTF-8"?>
<svg id="Layer_1" data-name="Layer 1" xmlns="http://www.w3.org/2000/svg" viewBox="0 0 260.07 57.75">
  <g id="Layer_1-2" data-name="Layer 1-2">
    <path d="M54.52,10.3c-.31.2-.72.2-1.03,0-.51-.34-.56-1.04-.15-1.45.36-.38.96-.38,1.33,0,.41.41.36,1.11-.15,1.45M56,8.25c.59,2.51-1.66,4.76-4.17,4.17-1.28-.3-2.29-1.31-2.59-2.59-.59-2.51,1.66-4.76,4.17-4.17,1.28.3,2.29,1.31,2.59,2.59M39.12,21.73c.29.41.52.81.66,1.21.09.28.22.66.49.8.02,0,.03.02.05.02.51.19,1.83.15,1.83.15h2.42c.21,0,2.02,0,1.98-.21-.22-.97-1.34-1.15-2.2-1.65-.79-.47-1.54-1-1.88-1.92-.18-.47-.07-1.57.23-1.96.22-.29.55-.48.9-.56.39-.08.79-.01,1.18.03.48.05.96.14,1.44.2.93.12,1.86.17,2.79.14,1.54-.04,3.08-.29,4.54-.79,1.02-.34,2.02-.8,2.89-1.45.98-.73.73-.66-.27-.56-1.2.12-2.4.14-3.6.07-1.12-.06-2.22-.2-3.23-.72-.8-.41-1.48-.82-2.11-1.46-.09-.1-.15-.38.02-.56.17-.17.52-.07.63.02,1.1.92,2.75,1.68,4.45,1.76.92.05,1.82.06,2.74.02.46-.02,1.16-.02,1.62-.02.24,0,.89.07,1.01-.19.04-.07.03-.16.03-.24-.14-3.68-.41-7.84-4.26-9.6-2.88-1.32-7.19-3.35-9.01-4.2-.42-.2-.92.12-.92.59,0,1.23.06,3,.06,4.61-.87-.89-2.34-1.45-3.46-1.96-1.27-.58-2.58-1.08-3.92-1.49-2.69-.83-5.47-1.35-8.27-1.62-3.17-.32-6.4-.16-9.53.48-5.15,1.07-10.21,3.54-14.05,7.16C2,10.06.15,13.22.02,16.43c-.18,4.54,1.09,6.97,3.43,9.49,3.73,4,11.74,4.56,14.99-.18,1.46-2.14,1.78-5.03.72-7.39-1.06-2.36-3.5-4.07-6.08-4.15-2.01-.07-4.14.95-4.91,2.81-.59,1.42-.25,3.17.81,4.26.42.43.98.78,1.6.64.36-.08.67-.35.72-.72.08-.54-.39-.89-.69-1.31-.53-.75-.42-1.88.24-2.52.56-.54,1.38-.7,2.16-.7.72,0,1.46.13,2.08.5.88.51,1.46,1.46,1.66,2.46.6,2.98-1.82,5.4-5.11,5.59-1.68.1-3.39-.34-4.7-1.4-3.32-2.67-4.14-8.13-.34-11.05,3.6-2.77,8.15-2.05,10.84-.62,2.15,1.15,3.75,3.03,4.96,5.12.61,1.05,1.13,2.14,1.61,3.25.46,1.07.9,2.14,1.82,2.93.61.52,1.37.5,2.17.5h4.59c.62,0,.47-.42.2-.69-.61-.62-1.48-.76-2.29-.98-1.85-.51-1.66-2.95-1.15-2.95,1.65,0,1.7.05,3.15.03,2.09-.03,2.72-.15,4.35.45.87.32,1.71,1.18,2.26,1.96"/>
  </g>
  <g>
    <path d="M65.49,20.43l2.48-2.48c1.76,1.79,3.39,2.54,5.31,2.54,2.58,0,4.11-1.3,4.11-3.23,0-5.25-11.38-2.28-11.38-10.17,0-4.24,3.16-6.95,7.96-6.95,2.94,0,5.38,1.14,6.91,2.87l-2.54,2.54c-1.3-1.34-2.64-2.02-4.37-2.02-2.41,0-3.98,1.24-3.98,3.16,0,4.96,11.48,1.73,11.48,9.98,0,4.37-3.36,7.21-8.31,7.21-3.42,0-5.9-1.37-7.66-3.46h0Z"/>
    <path d="M85.12,15.54V.6h4.01v14.61c0,3.33,1.92,4.96,4.86,4.96s4.83-1.63,4.83-4.96V.6h4.01v14.93c0,5.58-3.52,8.35-8.84,8.35s-8.87-2.77-8.87-8.35h0Z"/>
    <path d="M106.47,20.43l2.48-2.48c1.76,1.79,3.39,2.54,5.31,2.54,2.58,0,4.11-1.3,4.11-3.23,0-5.25-11.38-2.28-11.38-10.17,0-4.24,3.16-6.95,7.96-6.95,2.94,0,5.38,1.14,6.91,2.87l-2.54,2.54c-1.3-1.34-2.64-2.02-4.37-2.02-2.41,0-3.98,1.24-3.98,3.16,0,4.96,11.48,1.73,11.48,9.98,0,4.37-3.36,7.21-8.31,7.21-3.42,0-5.9-1.37-7.66-3.46h0Z"/>
    <path d="M125.84,19.61V4.42c0-2.22,1.6-3.82,3.81-3.82h11.09v3.65h-9.75c-.68,0-1.21.52-1.21,1.17v4.79h10.27v3.49h-10.27v4.89c0,.65.52,1.17,1.21,1.17h9.75v3.65h-11.09c-2.22,0-3.81-1.6-3.81-3.81h0Z"/>
    <path d="M157.3,2.62h-7.08V.6h16.37v2.02h-7.11v20.8h-2.18V2.62Z"/>
    <path d="M165.68,7.84h2.02v2.58c.75-2.02,2.45-2.61,4.37-2.61h1.37v2.02h-1.53c-2.61,0-4.14,1.3-4.14,4.14v9.46h-2.09V7.84Z"/>
    <path d="M186.52,21.7c-.85,1.34-2.48,2.05-4.79,2.05-3.68,0-5.97-1.83-5.97-4.57s2.25-4.7,6.16-4.7c1.89,0,3.33.46,4.3,1.3v-2.48c0-2.67-1.37-3.91-3.95-3.91-1.7,0-3.65.62-4.96,1.96l-1.01-1.43c1.37-1.63,3.75-2.41,6.03-2.41,3.55,0,5.93,1.89,5.93,5.77v4.96c0,1.73.03,3.46.1,5.18h-1.86v-1.73h.02ZM182.08,22.15c2.61,0,4.14-1.21,4.14-3s-1.5-2.97-4.14-2.97-4.24,1.17-4.24,2.97,1.63,3,4.24,3Z"/>
    <path d="M194.37,9.67h-3.13v-1.83h5.18v15.59h-2.05v-13.76h0ZM194.31.7h2.22v3.55h-2.22V.7Z"/>
    <path d="M201.87,7.84h1.99v2.77c1.24-2.35,3.62-3.1,5.38-3.1,3.49,0,5.97,2.22,5.97,6.81v9.1h-2.09v-8.84c0-3.65-1.86-5.15-4.34-5.15-2.61,0-4.83,1.76-4.83,5.18v8.8h-2.09V7.84h0Z"/>
    <path d="M221.33,9.67h-3.13v-1.83h5.18v15.59h-2.05v-13.76h0ZM221.27.7h2.22v3.55h-2.22V.7Z"/>
    <path d="M228.83,7.84h1.99v2.77c1.24-2.35,3.62-3.1,5.38-3.1,3.49,0,5.97,2.22,5.97,6.81v9.1h-2.09v-8.84c0-3.65-1.86-5.15-4.34-5.15-2.61,0-4.83,1.76-4.83,5.18v8.8h-2.09V7.84h0Z"/>
    <path d="M246.14,28.19h9.23c1.7,0,2.74-.88,2.74-2.38,0-1.4-1.04-2.22-2.74-2.22h-5.05c-2.45,0-2.9-1.99-2.05-3.65l1.11-2.15c-1.66-.98-2.64-2.58-2.64-4.57v-.29c0-3.16,2.71-5.41,6.55-5.41.33,0,.62,0,.91.03l1.66-3.39h2.09l-1.99,3.75c2.38.78,3.88,2.61,3.88,4.92v.39c0,3.26-2.71,5.58-6.55,5.58-.81,0-1.6-.1-2.28-.29l-.85,1.63c-.36.72-.42,1.76.95,1.76h4.53c2.67,0,4.43,1.37,4.43,3.91s-1.79,4.14-4.53,4.14h-9.39v-1.76h0ZM253.29,17.13c2.67,0,4.53-1.6,4.53-3.91v-.29c0-2.18-1.86-3.68-4.53-3.68s-4.53,1.57-4.53,3.75v.23c0,2.32,1.86,3.91,4.53,3.91h0Z"/>
    <path d="M65.72,54.63l1.34-1.4c1.53,1.76,3.46,2.64,5.77,2.64,3.33,0,5.38-1.83,5.38-4.56,0-6.52-12.06-2.77-12.06-10.66,0-3.91,2.97-6.49,7.47-6.49,2.61,0,4.7.91,6.1,2.41l-1.43,1.43c-1.24-1.27-2.74-1.96-4.7-1.96-3.16,0-5.25,1.76-5.25,4.4,0,6.2,12.1,2.28,12.1,10.56,0,4.14-3.13,6.75-7.66,6.75-3.1,0-5.48-1.21-7.04-3.13h-.02Z"/>
    <path d="M83.46,49.64v-.33c0-4.53,2.9-7.86,7.24-7.86s7.04,3.49,6.46,8.67h-11.64c.23,3.33,2.45,5.64,5.8,5.64,1.66,0,3.07-.42,4.01-1.27l1.17,1.34c-1.14,1.17-3.1,1.86-5.28,1.86-4.6,0-7.76-3.29-7.76-8.05ZM95.19,48.4c.07-3.2-1.83-5.12-4.5-5.12-2.9,0-4.83,2.02-5.15,5.12h9.65Z"/>
    <path d="M100.93,41.78h2.02v2.58c.75-2.02,2.45-2.61,4.37-2.61h1.37v2.02h-1.53c-2.61,0-4.14,1.3-4.14,4.14v9.46h-2.09s0-15.59,0-15.59Z"/>
    <path d="M110.06,41.78h2.15l5.22,13.14,5.22-13.14h2.15l-6.26,15.59h-2.18l-6.29-15.59h-.01Z"/>
    <path d="M128.71,43.61h-3.13v-1.83h5.18v15.59h-2.05s0-13.76,0-13.76ZM128.64,34.64h2.22v3.55h-2.22v-3.55Z"/>
    <path d="M135,49.77v-.39c0-4.7,3.36-7.92,7.92-7.92,2.25,0,4.14.85,5.41,2.28l-1.27,1.34c-1.08-1.11-2.41-1.7-4.14-1.7-3.39,0-5.87,2.41-5.87,6v.39c0,3.59,2.48,6,5.9,6,1.7,0,3.03-.55,4.14-1.66l1.27,1.3c-1.27,1.47-3.2,2.28-5.45,2.28-4.6,0-7.92-3.26-7.92-7.92h0Z"/>
    <path d="M151.3,49.64v-.33c0-4.53,2.9-7.86,7.24-7.86s7.04,3.49,6.46,8.67h-11.64c.23,3.33,2.45,5.64,5.8,5.64,1.66,0,3.07-.42,4.01-1.27l1.17,1.34c-1.14,1.17-3.1,1.86-5.28,1.86-4.6,0-7.76-3.29-7.76-8.05h0ZM163.04,48.4c.07-3.2-1.83-5.12-4.5-5.12-2.9,0-4.83,2.02-5.15,5.12h9.65Z"/>
    <path d="M167.18,55.74l.95-1.43c1.14,1.01,2.9,1.7,4.63,1.7,2.12,0,3.59-1.11,3.59-2.71,0-4.11-8.61-1.5-8.61-7.27,0-2.67,2.18-4.56,5.51-4.56,1.92,0,3.65.65,4.92,1.63l-.98,1.43c-1.08-.85-2.45-1.4-3.98-1.4-2.05,0-3.49,1.14-3.49,2.74,0,4.01,8.67,1.5,8.67,7.3,0,2.67-2.31,4.5-5.64,4.5-2.22,0-4.34-.75-5.58-1.92h.01Z"/>
  </g>
</svg>