<?xml version="1.0" encoding="UTF-8"?>
<svg id="Layer_2" data-name="Layer 2" xmlns="http://www.w3.org/2000/svg" viewBox="0 0 369.04 111.99">
  <defs>
    <style>
      .cls-1 {
        fill: #fff;
      }
    </style>
  </defs>
  <g>
    <path class="cls-1" d="M111.48,53.61c-2.08,0-3.89-.39-5.44-1.16-1.55-.77-2.87-1.8-3.96-3.08l3.04-3.04c1.09,1.12,2.16,1.92,3.2,2.4,1.04.48,2.14.72,3.32.72,1.57,0,2.81-.37,3.7-1.1.89-.73,1.34-1.69,1.34-2.86,0-.91-.25-1.65-.76-2.22-.51-.57-1.17-1.04-2-1.4-.83-.36-1.74-.68-2.74-.96-1-.28-1.99-.59-2.98-.94-.99-.35-1.89-.8-2.72-1.36-.83-.56-1.49-1.29-2-2.2-.51-.91-.76-2.04-.76-3.4,0-1.76.4-3.27,1.2-4.54.8-1.27,1.94-2.25,3.42-2.94s3.19-1.04,5.14-1.04c1.81,0,3.45.32,4.9.96,1.45.64,2.65,1.49,3.58,2.56l-3.12,3.12c-.8-.83-1.63-1.45-2.48-1.86-.85-.41-1.83-.62-2.92-.62-1.47,0-2.64.35-3.52,1.06-.88.71-1.32,1.65-1.32,2.82,0,.85.25,1.55.76,2.08.51.53,1.18.95,2.02,1.26s1.76.59,2.76.84c1,.25,2.01.55,3.02.9,1.01.35,1.93.8,2.76,1.36.83.56,1.49,1.31,2,2.24.51.93.76,2.12.76,3.56,0,1.79-.43,3.34-1.28,4.66s-2.05,2.35-3.58,3.08c-1.54.73-3.31,1.1-5.34,1.1Z"/>
    <path class="cls-1" d="M136.84,53.61c-3.28,0-5.91-.85-7.88-2.54-1.97-1.69-2.96-4.26-2.96-7.7v-18.32h4.92v17.92c0,2.03.53,3.55,1.6,4.56s2.51,1.52,4.32,1.52,3.26-.51,4.34-1.52,1.62-2.53,1.62-4.56v-17.92h4.92v18.32c0,2.27-.45,4.16-1.36,5.68s-2.17,2.66-3.8,3.42c-1.63.76-3.54,1.14-5.72,1.14Z"/>
    <path class="cls-1" d="M161.24,53.61c-2.08,0-3.89-.39-5.44-1.16-1.55-.77-2.87-1.8-3.96-3.08l3.04-3.04c1.09,1.12,2.16,1.92,3.2,2.4,1.04.48,2.14.72,3.32.72,1.57,0,2.81-.37,3.7-1.1.89-.73,1.34-1.69,1.34-2.86,0-.91-.25-1.65-.76-2.22-.51-.57-1.17-1.04-2-1.4-.83-.36-1.74-.68-2.74-.96-1-.28-1.99-.59-2.98-.94-.99-.35-1.89-.8-2.72-1.36-.83-.56-1.49-1.29-2-2.2-.51-.91-.76-2.04-.76-3.4,0-1.76.4-3.27,1.2-4.54.8-1.27,1.94-2.25,3.42-2.94s3.19-1.04,5.14-1.04c1.81,0,3.45.32,4.9.96,1.45.64,2.65,1.49,3.58,2.56l-3.12,3.12c-.8-.83-1.63-1.45-2.48-1.86-.85-.41-1.83-.62-2.92-.62-1.47,0-2.64.35-3.52,1.06-.88.71-1.32,1.65-1.32,2.82,0,.85.25,1.55.76,2.08.51.53,1.18.95,2.02,1.26s1.76.59,2.76.84c1,.25,2.01.55,3.02.9,1.01.35,1.93.8,2.76,1.36.83.56,1.49,1.31,2,2.24.51.93.76,2.12.76,3.56,0,1.79-.43,3.34-1.28,4.66s-2.05,2.35-3.58,3.08c-1.54.73-3.31,1.1-5.34,1.1Z"/>
    <path class="cls-1" d="M180.4,53.05c-1.36,0-2.47-.44-3.34-1.32-.87-.88-1.3-2-1.3-3.36v-18.64c0-1.36.43-2.48,1.3-3.36.87-.88,1.98-1.32,3.34-1.32h13.64v4.48h-12c-.4,0-.74.14-1.02.42-.28.28-.42.62-.42,1.02v16.16c0,.4.14.74.42,1.02.28.28.62.42,1.02.42h12v4.48h-13.64ZM178.12,41.13v-4.28h15.08v4.28h-15.08Z"/>
    <path class="cls-1" d="M215.4,53.53c-1.97,0-3.7-.35-5.18-1.06-1.48-.71-2.73-1.67-3.74-2.9l2.16-2.16c.99,1.09,2.05,1.9,3.18,2.42,1.13.52,2.37.78,3.7.78,1.87,0,3.34-.47,4.42-1.4s1.62-2.15,1.62-3.64c0-1.07-.26-1.93-.78-2.58s-1.21-1.18-2.08-1.58c-.87-.4-1.81-.74-2.84-1.02-1.03-.28-2.05-.59-3.08-.92-1.03-.33-1.97-.77-2.84-1.3s-1.56-1.23-2.08-2.1c-.52-.87-.78-1.99-.78-3.38,0-1.65.38-3.09,1.16-4.3.77-1.21,1.86-2.15,3.26-2.82,1.4-.67,3.03-1,4.9-1,1.68,0,3.19.27,4.52.82,1.33.55,2.44,1.31,3.32,2.3l-2.2,2.2c-.77-.8-1.62-1.4-2.54-1.8s-1.96-.6-3.1-.6c-1.79,0-3.22.45-4.3,1.34s-1.62,2.07-1.62,3.54c0,1.01.27,1.82.8,2.42.53.6,1.23,1.08,2.08,1.44.85.36,1.8.67,2.84.94,1.04.27,2.08.57,3.12.9,1.04.33,1.99.77,2.86,1.3.87.53,1.57,1.25,2.1,2.16s.8,2.09.8,3.56c0,1.71-.41,3.19-1.22,4.46-.81,1.27-1.95,2.25-3.4,2.94-1.45.69-3.14,1.04-5.06,1.04Z"/>
    <path class="cls-1" d="M236.6,53.45c-1.41,0-2.68-.28-3.8-.84-1.12-.56-2.01-1.42-2.66-2.58-.65-1.16-.98-2.66-.98-4.5v-11.72h3.24v11.16c0,1.36.21,2.45.62,3.26.41.81.99,1.39,1.72,1.74.73.35,1.57.52,2.5.52s1.84-.21,2.64-.64c.8-.43,1.45-1.07,1.94-1.94.49-.87.74-1.94.74-3.22v-10.88h3.2v19.24h-2.84v-5.2h.92c-.29,1.09-.71,2-1.24,2.72-.53.72-1.15,1.29-1.84,1.72s-1.4.73-2.12.9c-.72.17-1.4.26-2.04.26Z"/>
    <path class="cls-1" d="M251.76,53.05v-19.24h3.08v5.04l-.8-.04c.4-1.39.97-2.47,1.72-3.24.75-.77,1.58-1.33,2.5-1.66s1.82-.5,2.7-.5c1.65,0,3.06.43,4.22,1.3,1.16.87,1.94,2.21,2.34,4.02h-1.2c.45-1.39,1.1-2.47,1.94-3.24s1.74-1.31,2.7-1.62c.96-.31,1.85-.46,2.68-.46,2.11,0,3.81.67,5.1,2.02,1.29,1.35,1.94,3.41,1.94,6.18v11.44h-3.16v-11.04c0-2-.43-3.44-1.28-4.32s-1.97-1.32-3.36-1.32-2.64.49-3.6,1.46c-.96.97-1.44,2.37-1.44,4.18v11.04h-3.2v-11.04c0-2-.42-3.44-1.26-4.32s-1.96-1.32-3.34-1.32-2.65.49-3.62,1.46-1.46,2.37-1.46,4.18v11.04h-3.2Z"/>
    <path class="cls-1" d="M286.44,53.05v-19.24h3.08v5.04l-.8-.04c.4-1.39.97-2.47,1.72-3.24.75-.77,1.58-1.33,2.5-1.66s1.82-.5,2.7-.5c1.65,0,3.06.43,4.22,1.3,1.16.87,1.94,2.21,2.34,4.02h-1.2c.45-1.39,1.1-2.47,1.94-3.24s1.74-1.31,2.7-1.62c.96-.31,1.85-.46,2.68-.46,2.11,0,3.81.67,5.1,2.02,1.29,1.35,1.94,3.41,1.94,6.18v11.44h-3.16v-11.04c0-2-.43-3.44-1.28-4.32s-1.97-1.32-3.36-1.32-2.64.49-3.6,1.46c-.96.97-1.44,2.37-1.44,4.18v11.04h-3.2v-11.04c0-2-.42-3.44-1.26-4.32s-1.96-1.32-3.34-1.32-2.65.49-3.62,1.46-1.46,2.37-1.46,4.18v11.04h-3.2Z"/>
    <path class="cls-1" d="M322.28,53.05v-17.88l1.44,1.44h-5.16v-2.8h6.96v19.24h-3.24ZM322.16,29.57v-4.64h3.52v4.64h-3.52Z"/>
    <path class="cls-1" d="M329.28,36.61v-2.8h11.76v2.8h-11.76ZM338.08,53.05c-.64,0-1.28-.09-1.92-.28-.64-.19-1.21-.48-1.72-.88-.51-.4-.91-.93-1.2-1.58-.29-.65-.44-1.45-.44-2.38v-18.88h3.2v19.08c0,.61.21,1.13.62,1.54.41.41.91.62,1.5.62h2.92v2.76h-2.96Z"/>
    <path class="cls-1" d="M108.07,87.36c-1.32,0-2.5-.24-3.51-.71-1.02-.48-1.86-1.12-2.53-1.95l1.18-1.2c.65.75,1.4,1.31,2.23,1.69.83.38,1.74.57,2.73.57,1.42,0,2.54-.36,3.36-1.09.82-.73,1.23-1.67,1.23-2.83,0-.8-.19-1.45-.56-1.93s-.87-.87-1.48-1.16-1.29-.54-2.02-.74c-.73-.21-1.46-.42-2.2-.64-.74-.22-1.41-.52-2.03-.88-.62-.36-1.11-.84-1.48-1.44-.37-.6-.56-1.38-.56-2.35,0-1.12.27-2.09.8-2.93.53-.83,1.27-1.47,2.23-1.93.95-.46,2.07-.69,3.36-.69,1.12,0,2.13.18,3.02.53.9.35,1.63.86,2.21,1.51l-1.2,1.23c-.54-.56-1.14-.98-1.81-1.26-.66-.28-1.4-.42-2.23-.42-1.36,0-2.46.35-3.29,1.05-.83.7-1.25,1.61-1.25,2.73,0,.77.19,1.37.57,1.82.38.45.88.8,1.48,1.06.61.26,1.28.49,2.03.69.75.2,1.49.41,2.23.63.74.22,1.41.52,2.03.9.62.37,1.12.87,1.5,1.5.38.63.57,1.45.57,2.48,0,1.18-.28,2.2-.84,3.07-.56.87-1.34,1.54-2.32,2-.99.47-2.14.7-3.45.7Z"/>
    <path class="cls-1" d="M117.92,87.05v-20.44h1.71v10.64h-.47c.21-.75.5-1.37.88-1.86.38-.49.82-.89,1.3-1.19.48-.3.98-.51,1.48-.63.5-.12.98-.18,1.43-.18,1.51,0,2.74.48,3.7,1.44.95.96,1.43,2.43,1.43,4.41v7.81h-1.79v-7.59c0-1.57-.36-2.7-1.06-3.39s-1.61-1.04-2.69-1.04c-.75,0-1.43.17-2.04.5-.62.34-1.12.83-1.5,1.48-.38.65-.57,1.48-.57,2.46v7.56h-1.79Z"/>
    <path class="cls-1" d="M137.69,87.33c-1.57,0-2.81-.36-3.74-1.08s-1.39-1.67-1.39-2.84c0-.77.21-1.45.62-2.06.41-.61,1.02-1.09,1.82-1.44.8-.35,1.76-.53,2.88-.53,1.55,0,2.75.35,3.6,1.04s1.28,1.61,1.28,2.74h-.34c0,1.31-.39,2.33-1.18,3.07-.79.74-1.97,1.11-3.56,1.11ZM141.81,87.05l-.03-4.87-.2-.53v-3.28c0-1.16-.29-2.01-.87-2.55-.58-.54-1.42-.81-2.52-.81-.73,0-1.48.14-2.25.42-.78.28-1.45.71-2.03,1.29l-.87-1.26c.63-.69,1.41-1.21,2.34-1.55.92-.34,1.88-.52,2.87-.52s1.89.18,2.66.55,1.36.91,1.79,1.64c.43.73.64,1.65.64,2.77v4.26c0,.75,0,1.49.01,2.23s.03,1.48.07,2.23h-1.62ZM138.03,85.96c1.12,0,1.99-.24,2.62-.71.62-.48.94-1.1.94-1.86s-.31-1.4-.94-1.86c-.62-.46-1.51-.69-2.64-.69s-2.01.23-2.66.69c-.65.46-.98,1.08-.98,1.86s.33,1.39.98,1.86c.65.48,1.55.71,2.69.71Z"/>
    <path class="cls-1" d="M147.63,87.05v-13.38h1.71v3.58h-.48c.21-.75.5-1.37.88-1.86.38-.49.82-.89,1.3-1.19.49-.3.98-.51,1.48-.63.5-.12.98-.18,1.43-.18,1.51,0,2.74.48,3.7,1.44.95.96,1.43,2.43,1.43,4.41v7.81h-1.79v-7.59c0-1.57-.35-2.7-1.06-3.39-.71-.69-1.61-1.04-2.69-1.04-.75,0-1.43.17-2.04.5-.62.34-1.12.83-1.5,1.48-.38.65-.57,1.48-.57,2.46v7.56h-1.79Z"/>
    <path class="cls-1" d="M161.85,92.65v-1.51h7.92c.73,0,1.3-.18,1.72-.55s.63-.86.63-1.5c0-.6-.21-1.06-.63-1.4-.42-.34-.99-.5-1.72-.5h-4.26c-.69,0-1.21-.16-1.57-.49-.36-.33-.55-.73-.59-1.22-.04-.48.06-.96.31-1.43l1.2-2.41,1.54.42-1.12,2.16c-.09.21-.15.42-.18.66s.03.43.18.6c.15.17.41.25.79.25h3.92c1.16,0,2.08.29,2.77.87.69.58,1.04,1.41,1.04,2.49,0,.71-.16,1.33-.47,1.86-.32.53-.77.95-1.35,1.25-.58.3-1.27.45-2.07.45h-8.06ZM167.99,83.08c-1.08,0-2.05-.21-2.9-.62-.85-.41-1.52-.98-2-1.71-.49-.73-.73-1.55-.73-2.46v-.25c0-.92.24-1.72.73-2.42.48-.7,1.15-1.25,2-1.64.85-.39,1.81-.59,2.9-.59s2.08.2,2.93.59c.85.39,1.51.93,1.99,1.61.48.68.71,1.47.71,2.37v.34c0,.91-.24,1.74-.71,2.46-.47.73-1.14,1.3-1.99,1.71-.85.41-1.83.62-2.93.62ZM167.99,81.65c1.14,0,2.07-.32,2.8-.95.73-.63,1.09-1.44,1.09-2.41v-.25c0-.93-.36-1.69-1.09-2.28s-1.66-.88-2.8-.88-2.07.3-2.8.9c-.73.6-1.09,1.37-1.09,2.32v.2c0,.97.36,1.77,1.09,2.41.73.64,1.66.95,2.8.95ZM168.21,74.57l1.99-4.06h1.79l-2.15,4.06h-1.62Z"/>
    <path class="cls-1" d="M177,87.05v-20.44h1.71v10.64h-.47c.21-.75.5-1.37.88-1.86.38-.49.82-.89,1.3-1.19.48-.3.98-.51,1.48-.63.5-.12.98-.18,1.43-.18,1.51,0,2.74.48,3.7,1.44.95.96,1.43,2.43,1.43,4.41v7.81h-1.79v-7.59c0-1.57-.36-2.7-1.06-3.39s-1.61-1.04-2.69-1.04c-.75,0-1.43.17-2.04.5-.62.34-1.12.83-1.5,1.48-.38.65-.57,1.48-.57,2.46v7.56h-1.79Z"/>
    <path class="cls-1" d="M196.77,87.33c-1.57,0-2.81-.36-3.74-1.08s-1.39-1.67-1.39-2.84c0-.77.21-1.45.62-2.06.41-.61,1.02-1.09,1.82-1.44.8-.35,1.76-.53,2.88-.53,1.55,0,2.75.35,3.6,1.04s1.28,1.61,1.28,2.74h-.34c0,1.31-.39,2.33-1.18,3.07-.79.74-1.97,1.11-3.56,1.11ZM200.89,87.05l-.03-4.87-.2-.53v-3.28c0-1.16-.29-2.01-.87-2.55-.58-.54-1.42-.81-2.52-.81-.73,0-1.48.14-2.25.42-.78.28-1.45.71-2.03,1.29l-.87-1.26c.63-.69,1.41-1.21,2.34-1.55.92-.34,1.88-.52,2.87-.52s1.89.18,2.66.55,1.36.91,1.79,1.64c.43.73.64,1.65.64,2.77v4.26c0,.75,0,1.49.01,2.23s.03,1.48.07,2.23h-1.62ZM197.11,85.96c1.12,0,1.99-.24,2.62-.71.62-.48.94-1.1.94-1.86s-.31-1.4-.94-1.86c-.62-.46-1.51-.69-2.64-.69s-2.01.23-2.66.69c-.65.46-.98,1.08-.98,1.86s.33,1.39.98,1.86c.65.48,1.55.71,2.69.71Z"/>
    <path class="cls-1" d="M207.52,87.05v-12.6l.81.78h-3.47v-1.57h4.45v13.38h-1.79ZM207.47,70.59v-3.02h1.9v3.02h-1.9Z"/>
  </g>
  <g id="Layer_1" data-name="Layer 1">
    <path class="cls-1" d="M89.32,35.28c-.44-.46-1.17-.46-1.62,0-.5.5-.44,1.36.18,1.77.38.25.88.25,1.26,0,.62-.41.68-1.27.18-1.77M87.84,31.38c-3.06-.72-5.81,2.03-5.09,5.09.36,1.56,1.6,2.8,3.16,3.16,3.06.72,5.81-2.03,5.09-5.1-.37-1.56-1.6-2.8-3.16-3.16M67.63,48.62c-2-.74-2.77-.59-5.32-.56-1.77.02-1.83-.04-3.85-.04-.62,0-.85,2.99,1.4,3.61.99.27,2.05.44,2.8,1.2.33.33.51.84-.25.84h-5.6c-.98,0-1.91.02-2.65-.61-1.13-.95-1.66-2.27-2.22-3.57-.59-1.36-1.22-2.69-1.96-3.97-1.48-2.54-3.43-4.84-6.06-6.25-3.27-1.76-8.83-2.63-13.23.75-4.64,3.56-3.64,10.23.41,13.49,1.6,1.29,3.69,1.83,5.74,1.71,4.01-.23,6.97-3.19,6.23-6.83-.24-1.22-.96-2.37-2.03-3-.76-.44-1.66-.6-2.55-.61-.95,0-1.95.19-2.64.85-.81.78-.94,2.16-.29,3.08.36.51.94.94.84,1.6-.07.45-.44.78-.88.88-.75.17-1.44-.26-1.95-.78-1.31-1.34-1.71-3.48-1-5.21.94-2.26,3.55-3.51,6-3.43,3.16.11,6.13,2.19,7.43,5.07,1.3,2.88.91,6.42-.88,9.03-3.97,5.8-13.76,5.11-18.31.22-2.85-3.07-4.41-6.04-4.19-11.58.15-3.92,2.41-7.77,5.29-10.49,4.69-4.42,10.87-7.45,17.16-8.75,3.82-.79,7.76-.97,11.64-.59,3.42.34,6.82.97,10.1,1.98,1.63.51,3.23,1.11,4.79,1.82,1.37.63,3.16,1.31,4.23,2.4,0-1.96-.08-4.12-.08-5.63,0-.57.6-.96,1.12-.72,2.22,1.03,7.49,3.52,11,5.13,4.71,2.15,5.04,7.23,5.21,11.73,0,.1,0,.2-.04.29-.15.31-.94.23-1.23.23-.56,0-1.41,0-1.97.03-1.12.05-2.22.03-3.34-.03-2.08-.1-4.09-1.03-5.43-2.15-.13-.11-.57-.24-.77-.02-.21.22-.14.56-.02.68.77.78,1.61,1.28,2.58,1.79,1.24.63,2.58.8,3.95.87,1.46.09,2.94.07,4.4-.08,1.22-.12,1.53-.21.33.69-1.06.79-2.28,1.35-3.53,1.77-1.78.61-3.67.91-5.55.96-1.14.03-2.28-.03-3.41-.18-.58-.07-1.17-.18-1.75-.24-.48-.05-.97-.14-1.45-.04-.43.09-.83.33-1.1.68-.37.48-.5,1.82-.29,2.4.42,1.12,1.33,1.77,2.29,2.34,1.05.62,2.42.83,2.69,2.02.06.25-2.16.25-2.42.25h-2.95s-1.61.04-2.23-.19c-.02,0-.04-.02-.06-.02-.34-.18-.49-.64-.6-.98-.17-.49-.45-.97-.81-1.48-.67-.95-1.69-1.99-2.76-2.39M90,35.51c0,1.73-1.4,3.13-3.13,3.13s-3.13-1.4-3.13-3.13,1.4-3.13,3.13-3.13,3.13,1.4,3.13,3.13"/>
  </g>
</svg>