<?xml version="1.0" encoding="utf-8"?>
<!-- Generator: Adobe Illustrator 28.0.0, SVG Export Plug-In . SVG Version: 6.00 Build 0)  -->
<svg version="1.1" id="Layer_2_00000091721585328983233400000001611073521416524184_"
	 xmlns="http://www.w3.org/2000/svg" xmlns:xlink="http://www.w3.org/1999/xlink" x="0px" y="0px" viewBox="0 0 131.4 131.1"
	 style="enable-background:new 0 0 131.4 131.1;" xml:space="preserve">
<style type="text/css">
	.st0{fill:#FFFFFF;}
</style>
<g id="Layer_1-2">
	<path class="st0" d="M0,77.8l3-3c2.2,2.2,4.2,3.1,6.5,3.1c3.2,0,5-1.6,5-4c0-6.4-14-2.8-14-12.5c0-5.2,3.9-8.5,9.8-8.5
		c3.6,0,6.6,1.4,8.5,3.5l-3.1,3.1c-1.6-1.6-3.2-2.5-5.4-2.5c-3,0-4.9,1.5-4.9,3.9c0,6.1,14.1,2.1,14.1,12.2c0,5.4-4.1,8.8-10.2,8.8
		C5.2,82,2.2,80.3,0,77.8z"/>
	<path class="st0" d="M24.1,71.8V53.4H29v17.9c0,4.1,2.4,6.1,6,6.1s5.9-2,5.9-6.1V53.4h4.9v18.3C45.8,78.6,41.5,82,35,82
		S24.1,78.6,24.1,71.8z"/>
	<path class="st0" d="M50.3,77.8l3-3c2.2,2.2,4.2,3.1,6.5,3.1c3.2,0,5-1.6,5-4c0-6.4-14-2.8-14-12.5c0-5.2,3.9-8.5,9.8-8.5
		c3.6,0,6.6,1.4,8.5,3.5L66,59.5c-1.6-1.6-3.2-2.5-5.4-2.5c-3,0-4.9,1.5-4.9,3.9c0,6.1,14.1,2.1,14.1,12.2c0,5.4-4.1,8.8-10.2,8.8
		C55.5,82,52.4,80.3,50.3,77.8z"/>
	<path class="st0" d="M74,76.8V58.1c0-2.7,2-4.7,4.7-4.7h13.6v4.5h-12c-0.8,0-1.5,0.6-1.5,1.4v5.9h12.6v4.3H78.9v6
		c0,0.8,0.6,1.4,1.5,1.4h12v4.5H78.7C76,81.4,74,79.5,74,76.8z"/>
	<path class="st0" d="M0.2,119.6l2.1-2.2c2,2.2,4.2,3.2,6.9,3.2c3.8,0,6.1-2,6.1-5c0-7.5-14.5-3.2-14.5-12.9c0-5,3.7-8.1,9.4-8.1
		c3.3,0,6,1.2,7.8,3.1l-2.2,2.2c-1.6-1.6-3.3-2.4-5.6-2.4c-3.6,0-5.9,2-5.9,4.9c0,7.1,14.6,2.6,14.6,12.7c0,5.2-4,8.4-9.7,8.4
		C5.2,123.5,2.2,122,0.2,119.6z"/>
	<path class="st0" d="M24.3,117.9v-11.3h-3.5v-2.8h3.5v-4.8h3.2v4.8h5v2.8h-5v11.5c0,1.2,0.9,2.2,2.1,2.2h2.9v2.8h-3
		C27,123.1,24.3,121.7,24.3,117.9z"/>
	<path class="st0" d="M35,113.6v-0.4c0-5.7,4.1-9.8,9.6-9.8s9.5,4,9.5,9.7v0.4c0,5.8-4,9.9-9.5,9.9S35,119.4,35,113.6z M44.6,120.6
		c3.7,0,6.3-2.9,6.3-7v-0.4c0-4-2.6-6.8-6.3-6.8s-6.4,2.8-6.4,6.9v0.4C38.2,117.7,40.8,120.6,44.6,120.6z"/>
	<path class="st0" d="M59,103.8h3.2v3.1c0.9-2.4,3-3.2,5.3-3.2h1.6v3.2h-1.9c-3.1,0-5,1.5-5,4.7v11.4H59C59,123.1,59,103.8,59,103.8
		z"/>
	<path class="st0" d="M84.9,121.2c-1.1,1.5-3,2.3-5.7,2.3c-4.6,0-7.4-2.3-7.4-5.7s2.8-6,7.8-6c2.1,0,3.7,0.5,4.9,1.3v-2.5
		c0-2.9-1.5-4.3-4.5-4.3c-2,0-4.4,0.8-6,2.3l-1.5-2.2c1.7-2,4.7-3,7.7-3c4.5,0,7.6,2.4,7.6,7.2v6.2c0,2.1,0,4.2,0.1,6.3h-2.9V121.2
		L84.9,121.2z M79.8,121c2.9,0,4.7-1.3,4.7-3.3s-1.8-3.3-4.7-3.3s-4.8,1.3-4.8,3.3S77,121,79.8,121z"/>
	<path class="st0" d="M92.6,128.4h11.5c1.8,0,2.9-0.9,2.9-2.5c0-1.5-1.1-2.4-2.9-2.4h-6.5c-3,0-3.6-2.5-2.5-4.7l1.3-2.6
		c-2-1.2-3.2-3.2-3.2-5.6v-0.4c0-4,3.4-6.8,8.2-6.8c0.3,0,0.6,0,0.9,0l1.9-4h3.3L105,104c2.8,1,4.6,3.2,4.6,6.1v0.4
		c0,4.1-3.4,7-8.2,7c-0.9,0-1.7-0.1-2.5-0.3l-1,1.9c-0.4,0.7-0.4,1.8,0.9,1.8h5.6c3.3,0,5.5,1.7,5.5,5c0,3.1-2.3,5.2-5.6,5.2H92.6
		L92.6,128.4L92.6,128.4z M101.4,115c3,0,5-1.8,5-4.4v-0.3c0-2.4-2.1-4.2-5-4.2s-5.1,1.8-5.1,4.2v0.2C96.3,113.1,98.4,115,101.4,115
		z"/>
	<path class="st0" d="M114.2,113.6v-0.4c0-5.6,3.6-9.7,9-9.7c5.4,0,8.9,4.4,8.2,11h-13.9c0.4,3.6,2.8,6.1,6.6,6.1
		c2,0,3.6-0.5,4.7-1.5l1.8,2c-1.5,1.6-3.9,2.5-6.7,2.5C118.1,123.5,114.2,119.4,114.2,113.6z M128.2,111.8c0-3.5-2.1-5.6-5-5.6
		c-3.2,0-5.3,2.2-5.8,5.6H128.2z"/>
	<g id="Layer_1-3">
		<path class="st0" d="M87.5,14.1c-0.6-0.6-1.5-0.6-2.1,0c-0.7,0.6-0.6,1.8,0.2,2.3c0.5,0.3,1.2,0.3,1.6,0
			C88.1,15.8,88.2,14.7,87.5,14.1 M85.6,9c-4-0.9-7.6,2.6-6.6,6.6c0.5,2,2.1,3.6,4.1,4.1c4,0.9,7.6-2.6,6.7-6.6
			C89.3,11.1,87.7,9.5,85.6,9 M59.2,31.5c-2.6-1-3.6-0.8-6.9-0.7c-2.3,0-2.4,0-5,0c-0.8,0-1.1,3.9,1.8,4.7c1.3,0.4,2.7,0.6,3.7,1.6
			c0.4,0.4,0.7,1.1-0.3,1.1h-7.3c-1.3,0-2.5,0-3.5-0.8c-1.5-1.2-2.2-3-2.9-4.7c-0.8-1.8-1.6-3.5-2.6-5.2c-1.9-3.3-4.5-6.3-7.9-8.1
			c-4.3-2.3-11.5-3.4-17.3,1C5,24.9,6.3,33.6,11.6,37.9c2.1,1.7,4.8,2.4,7.5,2.2c5.2-0.3,9.1-4.2,8.1-8.9c-0.3-1.6-1.2-3.1-2.6-3.9
			c-1-0.6-2.2-0.8-3.3-0.8c-1.2,0-2.5,0.2-3.4,1.1c-1,1-1.2,2.8-0.4,4c0.5,0.7,1.2,1.2,1.1,2.1c-0.1,0.6-0.6,1-1.1,1.2
			c-1,0.2-1.9-0.3-2.5-1c-1.7-1.8-2.2-4.5-1.3-6.8c1.2-3,4.6-4.6,7.8-4.5c4.1,0.1,8,2.9,9.7,6.6c1.7,3.8,1.2,8.4-1.1,11.8
			c-5.2,7.6-18,6.7-23.9,0.3c-3.7-4-5.8-7.9-5.5-15.1C0.8,21,3.7,16,7.5,12.5C13.6,6.7,21.6,2.8,29.8,1C34.8,0,40-0.2,45,0.3
			c4.5,0.4,8.9,1.3,13.2,2.6c2.1,0.7,4.2,1.4,6.2,2.4C66.2,6.1,68.6,7,70,8.4C70,5.8,69.9,3,69.9,1c0-0.8,0.8-1.3,1.5-0.9
			c2.9,1.4,9.8,4.6,14.4,6.7c6.1,2.8,6.6,9.4,6.8,15.3c0,0.1,0,0.3-0.1,0.4c-0.2,0.4-1.2,0.3-1.6,0.3c-0.7,0-1.8,0-2.6,0
			c-1.5,0.1-2.9,0-4.4,0c-2.7-0.1-5.3-1.3-7.1-2.8c-0.2-0.1-0.7-0.3-1,0c-0.3,0.3-0.2,0.7,0,0.9c1,1,2.1,1.7,3.4,2.3
			c1.6,0.8,3.4,1,5.2,1.1c1.9,0.1,3.8,0.1,5.7-0.1c1.6-0.2,2-0.3,0.4,0.9c-1.4,1-3,1.8-4.6,2.3c-2.3,0.8-4.8,1.2-7.2,1.2
			c-1.5,0-3,0-4.4-0.2c-0.8-0.1-1.5-0.2-2.3-0.3c-0.6-0.1-1.3-0.2-1.9,0c-0.6,0.1-1.1,0.4-1.4,0.9c-0.5,0.6-0.7,2.4-0.4,3.1
			c0.5,1.5,1.7,2.3,3,3.1c1.4,0.8,3.2,1.1,3.5,2.6c0.1,0.3-2.8,0.3-3.2,0.3h-3.8c0,0-2.1,0-2.9-0.2c0,0-0.1,0-0.1,0
			c-0.4-0.2-0.6-0.8-0.8-1.3c-0.2-0.6-0.6-1.3-1-1.9C62,33.4,60.6,32,59.2,31.5 M88.4,14.4c0,2.3-1.8,4.1-4.1,4.1s-4.1-1.8-4.1-4.1
			s1.8-4.1,4.1-4.1S88.4,12.1,88.4,14.4"/>
	</g>
</g>
</svg>
