<?xml version="1.0" encoding="UTF-8"?><svg id="Layer_2" xmlns="http://www.w3.org/2000/svg" viewBox="0 0 131.42 131.07"><defs><style>.cls-1{fill:#30ba78;}.cls-2{fill:#efefef;}</style></defs><g id="Layer_1-2"><path class="cls-2" d="M0,77.75l3.04-3.04c2.16,2.2,4.16,3.12,6.52,3.12,3.16,0,5.04-1.6,5.04-3.96,0-6.44-13.96-2.8-13.96-12.48,0-5.2,3.88-8.52,9.76-8.52,3.6,0,6.6,1.4,8.48,3.52l-3.12,3.12c-1.6-1.64-3.24-2.48-5.36-2.48-2.96,0-4.88,1.52-4.88,3.88,0,6.08,14.08,2.12,14.08,12.24,0,5.36-4.12,8.84-10.2,8.84-4.2,0-7.24-1.68-9.4-4.24Z"/><path class="cls-2" d="M24.08,71.75v-18.32h4.92v17.92c0,4.08,2.36,6.08,5.96,6.08s5.92-2,5.92-6.08v-17.92h4.92v18.32c0,6.84-4.32,10.24-10.84,10.24s-10.88-3.4-10.88-10.24Z"/><path class="cls-2" d="M50.28,77.75l3.04-3.04c2.16,2.2,4.16,3.12,6.52,3.12,3.16,0,5.04-1.6,5.04-3.96,0-6.44-13.96-2.8-13.96-12.48,0-5.2,3.88-8.52,9.76-8.52,3.6,0,6.6,1.4,8.48,3.52l-3.12,3.12c-1.6-1.64-3.24-2.48-5.36-2.48-2.96,0-4.88,1.52-4.88,3.88,0,6.08,14.08,2.12,14.08,12.24,0,5.36-4.12,8.84-10.2,8.84-4.2,0-7.24-1.68-9.4-4.24Z"/><path class="cls-2" d="M74.04,76.75v-18.64c0-2.72,1.96-4.68,4.68-4.68h13.6v4.48h-11.96c-.84,0-1.48.64-1.48,1.44v5.88h12.6v4.28h-12.6v6c0,.8.64,1.44,1.48,1.44h11.96v4.48h-13.6c-2.72,0-4.68-1.96-4.68-4.68Z"/><path class="cls-2" d="M.2,119.59l2.12-2.16c1.96,2.2,4.2,3.2,6.88,3.2,3.76,0,6.08-2.04,6.08-5.04,0-7.48-14.52-3.2-14.52-12.88,0-4.96,3.68-8.12,9.36-8.12,3.32,0,6.04,1.2,7.8,3.12l-2.2,2.2c-1.56-1.6-3.32-2.4-5.64-2.4-3.56,0-5.92,1.96-5.92,4.88,0,7.12,14.6,2.56,14.6,12.72,0,5.16-3.96,8.44-9.68,8.44-3.92,0-6.88-1.52-8.88-3.96Z"/><path class="cls-2" d="M24.28,117.95v-11.32h-3.48v-2.8h3.48v-4.76h3.24v4.76h5.04v2.8h-5.04v11.52c0,1.24.92,2.16,2.12,2.16h2.92v2.76h-2.96c-2.64,0-5.32-1.4-5.32-5.12Z"/><path class="cls-2" d="M35,113.56v-.36c0-5.72,4.08-9.76,9.6-9.76s9.52,4.04,9.52,9.68v.44c0,5.84-4.04,9.92-9.52,9.92s-9.6-4.08-9.6-9.92ZM44.6,120.59c3.72,0,6.32-2.88,6.32-7.04v-.44c0-4-2.6-6.8-6.32-6.8s-6.36,2.84-6.36,6.88v.36c0,4.16,2.6,7.04,6.36,7.04Z"/><path class="cls-2" d="M59.04,103.84h3.16v3.08c.92-2.44,2.96-3.16,5.32-3.16h1.64v3.2h-1.92c-3.12,0-4.96,1.52-4.96,4.72v11.4h-3.24v-19.24Z"/><path class="cls-2" d="M84.92,121.15c-1.08,1.52-2.96,2.32-5.68,2.32-4.56,0-7.4-2.28-7.4-5.68s2.8-5.96,7.76-5.96c2.08,0,3.72.48,4.92,1.32v-2.52c0-2.88-1.48-4.28-4.48-4.28-2,0-4.36.76-6.04,2.28l-1.52-2.2c1.72-1.96,4.72-3,7.68-3,4.48,0,7.56,2.4,7.56,7.16v6.16c0,2.12,0,4.2.12,6.32h-2.92v-1.92ZM79.84,121.03c2.88,0,4.68-1.28,4.68-3.32s-1.76-3.28-4.68-3.28-4.76,1.28-4.76,3.28,1.88,3.32,4.76,3.32Z"/><path class="cls-2" d="M92.6,128.35h11.48c1.8,0,2.88-.92,2.88-2.52,0-1.48-1.08-2.36-2.88-2.36h-6.52c-3,0-3.64-2.52-2.52-4.68l1.28-2.6c-1.96-1.24-3.16-3.24-3.16-5.64v-.36c0-3.96,3.4-6.76,8.24-6.76.28,0,.6,0,.88.04l1.92-4.04h3.28l-2.48,4.6c2.84,1,4.64,3.24,4.64,6.08v.44c0,4.08-3.4,6.96-8.24,6.96-.88,0-1.72-.08-2.48-.28l-.96,1.88c-.4.72-.44,1.76.92,1.76h5.6c3.32,0,5.52,1.68,5.52,5,0,3.08-2.28,5.2-5.64,5.2h-11.76v-2.72ZM101.4,114.99c2.96,0,5.04-1.84,5.04-4.44v-.32c0-2.44-2.08-4.16-5.04-4.16s-5.08,1.76-5.08,4.24v.24c0,2.6,2.08,4.44,5.08,4.44Z"/><path class="cls-2" d="M114.16,113.56v-.4c0-5.56,3.6-9.72,9-9.72s8.92,4.36,8.16,11h-13.92c.36,3.56,2.8,6.08,6.56,6.08,2,0,3.56-.48,4.72-1.52l1.84,2c-1.48,1.6-3.92,2.48-6.72,2.48-5.72,0-9.64-4.04-9.64-9.92ZM128.24,111.8c-.04-3.52-2.08-5.56-5.04-5.56-3.24,0-5.32,2.2-5.76,5.56h10.8Z"/><g id="Layer_1-3"><path class="cls-1" d="M87.54,14.07c-.58-.6-1.53-.6-2.11,0-.65.65-.57,1.77.23,2.31.49.33,1.15.33,1.64,0,.81-.54.89-1.66.23-2.31M85.61,8.98c-3.99-.94-7.58,2.65-6.64,6.65.47,2.03,2.09,3.65,4.12,4.12,3.99.94,7.58-2.65,6.65-6.65-.48-2.03-2.09-3.65-4.13-4.12M59.24,31.47c-2.6-.96-3.61-.77-6.94-.72-2.31.03-2.39-.05-5.02-.05-.81,0-1.11,3.9,1.83,4.71,1.29.36,2.68.58,3.65,1.57.43.44.67,1.1-.32,1.1h-7.3c-1.28,0-2.49.03-3.46-.8-1.48-1.25-2.16-2.96-2.9-4.66-.77-1.77-1.59-3.51-2.56-5.18-1.93-3.32-4.48-6.32-7.9-8.15-4.27-2.29-11.52-3.43-17.26.98-6.05,4.65-4.75,13.35.54,17.61,2.09,1.68,4.81,2.39,7.49,2.23,5.23-.31,9.09-4.16,8.13-8.91-.32-1.59-1.25-3.09-2.64-3.91-.99-.58-2.17-.79-3.32-.79-1.24,0-2.55.25-3.44,1.11-1.05,1.02-1.22,2.81-.38,4.02.47.66,1.22,1.22,1.09,2.09-.09.59-.57,1.02-1.15,1.15-.98.22-1.88-.34-2.54-1.02-1.7-1.75-2.24-4.54-1.3-6.8,1.22-2.95,4.63-4.58,7.82-4.47,4.12.14,8,2.86,9.69,6.62,1.69,3.76,1.18,8.38-1.14,11.78-5.17,7.56-17.95,6.67-23.89.29-3.72-4-5.75-7.88-5.46-15.11.2-5.11,3.15-10.14,6.9-13.68C13.57,6.69,21.63,2.75,29.84,1.04,34.82.01,39.97-.23,45.02.28c4.46.44,8.9,1.26,13.18,2.59,2.13.66,4.22,1.45,6.25,2.38,1.79.82,4.13,1.71,5.52,3.13,0-2.56-.1-5.38-.1-7.34,0-.75.79-1.26,1.46-.94,2.9,1.35,9.77,4.59,14.36,6.69,6.14,2.81,6.58,9.43,6.79,15.3,0,.13.01.27-.05.38-.19.4-1.23.29-1.61.3-.73,0-1.84,0-2.58.03-1.47.07-2.9.04-4.36-.03-2.71-.13-5.33-1.34-7.09-2.81-.17-.15-.74-.31-1.01-.03-.28.29-.18.73-.03.89,1.01,1.02,2.1,1.67,3.37,2.33,1.61.83,3.37,1.04,5.16,1.14,1.91.11,3.83.09,5.74-.11,1.59-.16,2-.27.43.9-1.38,1.02-2.98,1.76-4.6,2.31-2.33.79-4.79,1.18-7.24,1.25-1.49.04-2.98-.04-4.45-.23-.76-.09-1.52-.23-2.29-.31-.62-.06-1.27-.18-1.89-.05-.56.12-1.08.43-1.44.89-.49.63-.65,2.37-.37,3.13.54,1.46,1.73,2.31,2.99,3.06,1.36.81,3.16,1.09,3.5,2.64.07.32-2.82.33-3.15.32h-3.85s-2.1.05-2.91-.25c-.03,0-.05-.02-.07-.03-.44-.24-.64-.83-.79-1.28-.22-.63-.59-1.27-1.05-1.93-.87-1.24-2.21-2.6-3.6-3.12M88.42,14.37c0,2.26-1.83,4.09-4.09,4.09s-4.09-1.83-4.09-4.09,1.83-4.09,4.09-4.09,4.09,1.83,4.09,4.09"/></g></g></svg>