<?xml version="1.0" encoding="UTF-8"?>
<svg id="Layer_2" data-name="Layer 2" xmlns="http://www.w3.org/2000/svg" viewBox="0 0 537.97 37.5">
  <g id="Layer_1-2" data-name="Layer 1-2">
    <g id="Layer_1-3" data-name="Layer 1-3">
      <path d="M68.56,12.93c-.39.26-.91.26-1.3,0-.64-.42-.7-1.31-.19-1.82.46-.47,1.21-.47,1.67,0,.51.51.45,1.4-.19,1.82M70.42,10.34c.74,3.15-2.09,5.99-5.25,5.25-1.61-.38-2.88-1.65-3.26-3.26-.74-3.15,2.09-5.98,5.24-5.25,1.61.37,2.88,1.65,3.26,3.25M49.19,27.3c.36.52.66,1.02.83,1.52.12.36.27.82.62,1.01l.06.03c.64.23,2.3.19,2.3.19h3.04c.26,0,2.55,0,2.49-.26-.27-1.22-1.69-1.44-2.77-2.08-.99-.59-1.93-1.26-2.36-2.42-.22-.6-.09-1.97.29-2.47.28-.36.69-.6,1.13-.7.49-.1,1-.01,1.49.04.6.06,1.2.17,1.81.25,1.16.15,2.34.21,3.51.18,1.94-.05,3.88-.36,5.71-.99,1.28-.43,2.54-1.01,3.63-1.82,1.24-.92.91-.83-.34-.71-1.5.15-3.02.18-4.53.09-1.41-.08-2.79-.25-4.07-.9-1-.52-1.86-1.04-2.66-1.84-.12-.12-.19-.48.02-.7s.66-.09.79.02c1.39,1.16,3.46,2.11,5.6,2.22,1.16.06,2.29.08,3.44.03.58-.03,1.45-.02,2.03-.03.3,0,1.12.08,1.27-.23.05-.09.04-.2.04-.3-.17-4.63-.51-9.86-5.36-12.07-3.62-1.65-9.04-4.22-11.33-5.28-.53-.25-1.15.15-1.15.74,0,1.55.08,3.77.08,5.8-1.1-1.12-2.95-1.82-4.36-2.47-1.6-.73-3.25-1.36-4.93-1.88-3.38-1.05-6.88-1.69-10.4-2.04-3.99-.4-8.05-.21-11.99.6-6.48,1.34-12.84,4.46-17.67,9.01C2.5,12.63.18,16.6.02,20.63c-.22,5.71,1.37,8.77,4.31,11.93,4.69,5.03,14.77,5.74,18.85-.23,1.84-2.69,2.24-6.33.9-9.3-1.33-2.97-4.4-5.11-7.65-5.22-2.52-.08-5.21,1.2-6.17,3.53-.74,1.78-.32,3.98,1.02,5.36.52.54,1.23.98,2.01.81.46-.1.84-.44.91-.91.1-.68-.5-1.13-.86-1.65-.66-.95-.53-2.37.3-3.17.7-.68,1.74-.88,2.72-.88.91,0,1.84.16,2.62.62,1.1.65,1.83,1.83,2.09,3.09.76,3.75-2.29,6.79-6.42,7.03-2.11.13-4.26-.43-5.91-1.76-4.18-3.36-5.2-10.23-.42-13.9,4.53-3.48,10.26-2.58,13.63-.77,2.7,1.45,4.71,3.81,6.24,6.43.77,1.32,1.42,2.69,2.02,4.09.58,1.34,1.13,2.7,2.29,3.68.77.65,1.72.63,2.73.63h5.77c.78,0,.59-.52.25-.87-.76-.78-1.86-.96-2.88-1.24-2.32-.64-2.09-3.72-1.44-3.72,2.08,0,2.14.06,3.96.04,2.63-.04,3.42-.19,5.48.57,1.1.41,2.15,1.48,2.84,2.46"/>
    </g>
    <path d="M85.37,25.82l3.04-3.04c2.16,2.2,4.16,3.12,6.52,3.12,3.16,0,5.04-1.6,5.04-3.96,0-6.44-13.96-2.8-13.96-12.48,0-5.2,3.88-8.52,9.76-8.52,3.6,0,6.6,1.4,8.48,3.52l-3.12,3.12c-1.6-1.64-3.24-2.48-5.36-2.48-2.96,0-4.88,1.52-4.88,3.88,0,6.08,14.08,2.12,14.08,12.24,0,5.36-4.12,8.84-10.2,8.84-4.2,0-7.24-1.68-9.4-4.24Z"/>
    <path d="M109.45,19.82V1.51h4.92v17.92c0,4.08,2.36,6.08,5.96,6.08s5.92-2,5.92-6.08V1.51h4.92v18.32c0,6.84-4.32,10.24-10.84,10.24s-10.88-3.4-10.88-10.24h0Z"/>
    <path d="M135.65,25.82l3.04-3.04c2.16,2.2,4.16,3.12,6.52,3.12,3.16,0,5.04-1.6,5.04-3.96,0-6.44-13.96-2.8-13.96-12.48,0-5.2,3.88-8.52,9.76-8.52,3.6,0,6.6,1.4,8.48,3.52l-3.12,3.12c-1.6-1.64-3.24-2.48-5.36-2.48-2.96,0-4.88,1.52-4.88,3.88,0,6.08,14.08,2.12,14.08,12.24,0,5.36-4.12,8.84-10.2,8.84-4.2,0-7.24-1.68-9.4-4.24h0Z"/>
    <path d="M159.41,24.82V6.18c0-2.72,1.96-4.68,4.68-4.68h13.6v4.48h-11.96c-.84,0-1.48.64-1.48,1.44v5.88h12.6v4.28h-12.6v6c0,.8.64,1.44,1.48,1.44h11.96v4.48h-13.6c-2.72,0-4.68-1.96-4.68-4.68Z"/>
    <path d="M191.05,15.86v-.72c0-8.36,6.28-14.24,14.16-14.24,3.36,0,6.32,1,8.6,2.8l-1.68,2.04c-1.84-1.44-4.24-2.24-6.92-2.24-6.44,0-11.44,4.8-11.44,11.64v.72c0,6.84,5,11.64,11.44,11.64,2.68,0,5.12-.84,7-2.32l1.64,2.04c-2.28,1.84-5.28,2.88-8.64,2.88-7.88,0-14.16-5.88-14.16-14.24h0Z"/>
    <path d="M219.89,24.82V2.5h-3.72V.31h6.24v24.56c0,1.4,1.04,2.44,2.44,2.44h1.72v2.2h-1.84c-2.88,0-4.84-1.88-4.84-4.68h0Z"/>
    <path d="M228.81,20.02v-.32c0-5.72,3.96-9.72,9.36-9.72s9.32,4,9.32,9.6v.44c0,5.8-3.92,9.88-9.32,9.88s-9.36-4.08-9.36-9.88h0ZM238.17,27.62c4,0,6.8-3.12,6.8-7.6v-.44c0-4.28-2.8-7.32-6.8-7.32s-6.8,3.08-6.8,7.44v.32c0,4.48,2.8,7.6,6.8,7.6Z"/>
    <path d="M252.53,21.94v-11.56h2.48v11.16c0,4.48,2.32,6,5.32,6,3.16,0,5.84-2.08,5.84-6.28v-10.88h2.48v19.12h-2.2v-3.32c-1.52,2.8-4.36,3.72-6.56,3.72-4.24,0-7.36-2.32-7.36-7.96h0Z"/>
    <path d="M273.85,20.02v-.36c0-5.68,3.76-9.68,8.96-9.68,3.08,0,5.6,1.56,7.04,4.04V.31h2.56v29.2h-2.32v-3.96c-1.48,2.68-4.12,4.36-7.28,4.36-5.24,0-8.96-4-8.96-9.88h0ZM283.13,27.62c3.96,0,6.88-3.08,6.88-7.68s-2.92-7.68-6.88-7.68-6.72,3-6.72,7.4v.36c0,4.56,2.8,7.6,6.72,7.6Z"/>
    <path d="M307.81,15.54v-.36c0-8.36,5.64-14.16,13.4-14.16s13.4,5.8,13.4,14.16v.36c0,8.52-5.6,14.44-13.4,14.44s-13.4-5.92-13.4-14.44ZM321.21,27.34c6.24,0,10.68-4.72,10.68-11.8v-.36c0-6.88-4.44-11.52-10.68-11.52s-10.68,4.64-10.68,11.52v.36c0,7.08,4.44,11.8,10.68,11.8Z"/>
    <path d="M342.57,25.58v3.92h-2.36V.31h2.56v13.72c1.44-2.48,3.96-4.04,7.04-4.04,5.2,0,8.96,4,8.96,9.68v.36c0,5.88-3.72,9.88-8.96,9.88-3.16,0-5.8-1.64-7.24-4.32h0ZM349.49,27.62c3.92,0,6.72-3.04,6.72-7.6v-.36c0-4.4-2.8-7.4-6.72-7.4s-6.88,3.08-6.88,7.68,2.92,7.68,6.88,7.68Z"/>
    <path d="M361.97,27.5l1.16-1.76c1.4,1.24,3.56,2.08,5.68,2.08,2.6,0,4.4-1.36,4.4-3.32,0-5.04-10.56-1.84-10.56-8.92,0-3.28,2.68-5.6,6.76-5.6,2.36,0,4.48.8,6.04,2l-1.2,1.76c-1.32-1.04-3-1.72-4.88-1.72-2.52,0-4.28,1.4-4.28,3.36,0,4.92,10.64,1.84,10.64,8.96,0,3.28-2.84,5.52-6.92,5.52-2.72,0-5.32-.92-6.84-2.36Z"/>
    <path d="M379.25,20.02v-.4c0-5.56,3.56-9.64,8.88-9.64s8.64,4.28,7.92,10.64h-14.28c.28,4.08,3,6.92,7.12,6.92,2.04,0,3.76-.52,4.92-1.56l1.44,1.64c-1.4,1.44-3.8,2.28-6.48,2.28-5.64,0-9.52-4.04-9.52-9.88h0ZM393.65,18.5c.08-3.92-2.24-6.28-5.52-6.28-3.56,0-5.92,2.48-6.32,6.28h11.84Z"/>
    <path d="M400.69,10.38h2.48v3.16c.92-2.48,3-3.2,5.36-3.2h1.68v2.48h-1.88c-3.2,0-5.08,1.6-5.08,5.08v11.6h-2.56V10.38Z"/>
    <path d="M411.89,10.38h2.64l6.4,16.12,6.4-16.12h2.64l-7.68,19.12h-2.68l-7.72-19.12h0Z"/>
    <path d="M444.89,27.38c-1.04,1.64-3.04,2.52-5.88,2.52-4.52,0-7.32-2.24-7.32-5.6s2.76-5.76,7.56-5.76c2.32,0,4.08.56,5.28,1.6v-3.04c0-3.28-1.68-4.8-4.84-4.8-2.08,0-4.48.76-6.08,2.4l-1.24-1.76c1.68-2,4.6-2.96,7.4-2.96,4.36,0,7.28,2.32,7.28,7.08v6.08c0,2.12.04,4.24.12,6.36h-2.28s0-2.12,0-2.12ZM439.45,27.94c3.2,0,5.08-1.48,5.08-3.68s-1.84-3.64-5.08-3.64-5.2,1.44-5.2,3.64,2,3.68,5.2,3.68Z"/>
    <path d="M456.01,25.58v3.92h-2.36V.31h2.56v13.72c1.44-2.48,3.96-4.04,7.04-4.04,5.2,0,8.96,4,8.96,9.68v.36c0,5.88-3.72,9.88-8.96,9.88-3.16,0-5.8-1.64-7.24-4.32h0ZM462.93,27.62c3.92,0,6.72-3.04,6.72-7.6v-.36c0-4.4-2.8-7.4-6.72-7.4s-6.88,3.08-6.88,7.68,2.92,7.68,6.88,7.68Z"/>
    <path d="M478.45,12.62h-3.84v-2.24h6.36v19.12h-2.52V12.62ZM478.37,1.63h2.72v4.36h-2.72V1.63Z"/>
    <path d="M488.85,24.82V2.5h-3.72V.31h6.24v24.56c0,1.4,1.04,2.44,2.44,2.44h1.72v2.2h-1.84c-2.88,0-4.84-1.88-4.84-4.68h0Z"/>
    <path d="M500.13,12.62h-3.84v-2.24h6.36v19.12h-2.52V12.62ZM500.05,1.63h2.72v4.36h-2.72V1.63Z"/>
    <path d="M510.05,24.66v-12.04h-3.6v-2.24h3.6v-4.76h2.52v4.76h5.28v2.24h-5.28v12.2c0,1.4,1.04,2.48,2.44,2.48h2.84v2.2h-2.84c-2.56,0-4.96-1.48-4.96-4.84h0Z"/>
    <path d="M519.93,35.3h3.6c1.36,0,2.04-1.08,2.56-2.32l1.48-3.36-7.92-19.24h2.76l6.52,16.16,6.24-16.16h2.8l-9.32,22.68c-.88,2.12-2.12,4.44-5.24,4.44h-3.48s0-2.2,0-2.2Z"/>
  </g>
</svg>