<?xml version="1.0" encoding="utf-8"?>
<!-- Generator: Adobe Illustrator 28.0.0, SVG Export Plug-In . SVG Version: 6.00 Build 0)  -->
<svg version="1.1" id="Layer_2_00000009582741260796269400000006273062562225258423_"
	 xmlns="http://www.w3.org/2000/svg" xmlns:xlink="http://www.w3.org/1999/xlink" x="0px" y="0px" viewBox="0 0 537 37.2"
	 style="enable-background:new 0 0 537 37.2;" xml:space="preserve">
<g id="Layer_1-2">
	<g id="Layer_1-3">
		<path d="M66.9,13.1c-0.4,0.2-0.9,0.2-1.3,0c-0.6-0.4-0.7-1.3-0.2-1.8c0.4-0.5,1.2-0.5,1.6,0C67.6,11.8,67.5,12.7,66.9,13.1
			 M68.7,10.6c0.7,3.1-2,5.8-5.1,5.1c-1.6-0.4-2.8-1.6-3.2-3.2c-0.7-3.1,2-5.8,5.1-5.1C67.1,7.8,68.3,9,68.7,10.6 M48,27.1
			c0.3,0.5,0.6,1,0.8,1.5c0.1,0.4,0.3,0.8,0.6,1c0,0,0,0,0.1,0c0.6,0.2,2.2,0.2,2.2,0.2h3c0.2,0,2.5,0,2.4-0.2
			c-0.3-1.2-1.7-1.4-2.7-2c-1-0.6-1.9-1.2-2.3-2.4c-0.2-0.6-0.1-1.9,0.3-2.4c0.3-0.4,0.7-0.6,1.1-0.7c0.5-0.1,1,0,1.5,0
			c0.6,0.1,1.2,0.2,1.8,0.2c1.1,0.1,2.3,0.2,3.4,0.2c1.9,0,3.8-0.4,5.6-1c1.2-0.4,2.5-1,3.5-1.8c1.2-0.9,0.9-0.8-0.3-0.7
			c-1.5,0.1-2.9,0.2-4.4,0.1c-1.4-0.1-2.7-0.2-4-0.9c-1-0.5-1.8-1-2.6-1.8c-0.1-0.1-0.2-0.5,0-0.7c0.2-0.2,0.6-0.1,0.8,0
			c1.3,1.1,3.4,2.1,5.5,2.2c1.1,0.1,2.2,0.1,3.4,0c0.6,0,1.4,0,2,0c0.3,0,1.1,0.1,1.2-0.2c0.1-0.1,0-0.2,0-0.3
			c-0.2-4.5-0.5-9.6-5.2-11.8c-3.5-1.6-8.8-4.1-11-5.2c-0.5-0.2-1.1,0.1-1.1,0.7c0,1.5,0.1,3.7,0.1,5.7c-1.1-1.1-2.9-1.8-4.2-2.4
			c-1.6-0.7-3.2-1.3-4.8-1.8c-3.3-1-6.7-1.6-10.1-2c-3.9-0.4-7.9-0.2-11.7,0.6c-6.3,1.3-12.5,4.3-17.2,8.8C2.4,12.8,0.2,16.7,0,20.6
			c-0.2,5.6,1.3,8.6,4.2,11.6c4.6,4.9,14.4,5.6,18.4-0.2c1.8-2.6,2.2-6.2,0.9-9.1c-1.3-2.9-4.3-5-7.5-5.1c-2.5-0.1-5.1,1.2-6,3.5
			c-0.7,1.7-0.3,3.9,1,5.2c0.5,0.5,1.2,1,2,0.8c0.4-0.1,0.8-0.4,0.9-0.9c0.1-0.7-0.5-1.1-0.8-1.6c-0.6-0.9-0.5-2.3,0.3-3.1
			c0.7-0.7,1.7-0.9,2.7-0.9c0.9,0,1.8,0.2,2.6,0.6c1.1,0.6,1.8,1.8,2,3c0.7,3.7-2.2,6.6-6.3,6.9c-2.1,0.1-4.2-0.4-5.8-1.7
			c-4.1-3.3-5.1-10-0.4-13.6c4.4-3.4,10-2.5,13.3-0.8c2.6,1.4,4.6,3.7,6.1,6.3c0.8,1.3,1.4,2.6,2,4c0.6,1.3,1.1,2.6,2.2,3.6
			c0.8,0.6,1.7,0.6,2.7,0.6H40c0.8,0,0.6-0.5,0.2-0.9c-0.8-0.8-1.8-0.9-2.8-1.2c-2.3-0.6-2-3.6-1.4-3.6c2,0,2.1,0.1,3.9,0
			c2.6,0,3.3-0.2,5.3,0.6C46.3,25.1,47.3,26.1,48,27.1"/>
	</g>
	<path d="M80.3,25.5l3-3c2.2,2.2,4.2,3.1,6.5,3.1c3.2,0,5-1.6,5-4c0-6.4-14-2.8-14-12.5c0-5.2,3.9-8.5,9.8-8.5
		c3.6,0,6.6,1.4,8.5,3.5l-3.1,3.1c-1.6-1.6-3.2-2.5-5.4-2.5c-3,0-4.9,1.5-4.9,3.9c0,6.1,14.1,2.1,14.1,12.2c0,5.4-4.1,8.8-10.2,8.8
		C85.5,29.8,82.5,28.1,80.3,25.5z"/>
	<path d="M104.4,19.5V1.2h4.9v17.9c0,4.1,2.4,6.1,6,6.1s5.9-2,5.9-6.1V1.2h4.9v18.3c0,6.8-4.3,10.2-10.8,10.2S104.4,26.4,104.4,19.5
		z"/>
	<path d="M130.6,25.5l3-3c2.2,2.2,4.2,3.1,6.5,3.1c3.2,0,5-1.6,5-4c0-6.4-14-2.8-14-12.5c0-5.2,3.9-8.5,9.8-8.5
		c3.6,0,6.6,1.4,8.5,3.5l-3.1,3.1c-1.6-1.6-3.2-2.5-5.4-2.5c-3,0-4.9,1.5-4.9,3.9c0,6.1,14.1,2.1,14.1,12.2c0,5.4-4.1,8.8-10.2,8.8
		C135.8,29.8,132.8,28.1,130.6,25.5L130.6,25.5z"/>
	<path d="M154.4,24.5V5.9c0-2.7,2-4.7,4.7-4.7h13.6v4.5h-12c-0.8,0-1.5,0.6-1.5,1.4V13h12.6v4.3h-12.6v6c0,0.8,0.6,1.4,1.5,1.4h12
		v4.5h-13.6C156.3,29.2,154.4,27.2,154.4,24.5z"/>
	<path d="M187.5,1.2h4.6l8.1,16.8l8-16.8h4.6v28h-3.3V5.6l-8,16.9h-2.7l-8-16.9v23.6h-3.3L187.5,1.2L187.5,1.2z"/>
	<path d="M219.4,21.7V10h3.2v11.2c0,4.1,2.1,5.5,4.8,5.5c2.9,0,5.3-1.9,5.3-5.8V10h3.2v19.2h-2.8v-3c-1.6,2.6-4.3,3.4-6.4,3.4
		C222.5,29.6,219.4,27.2,219.4,21.7z"/>
	<path d="M242.9,24.3V2.8h-3.5V0h6.8v24.3c0,1.2,0.9,2.1,2.1,2.1h1.8v2.8h-2C245,29.2,242.9,27.3,242.9,24.3L242.9,24.3z"/>
	<path d="M254.4,24.1V12.8h-3.5V10h3.5V5.2h3.2V10h5v2.8h-5v11.5c0,1.2,0.9,2.2,2.1,2.2h2.9v2.8h-3
		C257.1,29.2,254.4,27.8,254.4,24.1z"/>
	<path d="M268.1,12.8h-3.7V10h6.9v19.2h-3.2V12.8z M268,1.1h3.5v4.6H268V1.1z"/>
	<path d="M276.1,16.4h12.3v3.2h-12.3V16.4z"/>
	<path d="M293.6,24.8V1.2h3.4v22.6c0,1.2,0.9,2.1,2.1,2.1h11.2v3.2h-12.2C295.5,29.2,293.6,27.3,293.6,24.8z"/>
	<path d="M314.8,12.8h-3.7V10h6.9v19.2h-3.2V12.8z M314.7,1.1h3.5v4.6h-3.5V1.1z"/>
	<path d="M324.4,10h3.1v3c1.6-2.6,4.3-3.4,6.4-3.4c4.3,0,7.3,2.8,7.3,8.3v11.3h-3.2V18.4c0-4.1-2.1-5.8-4.9-5.8c-3,0-5.4,2-5.4,5.9
		v10.8h-3.2L324.4,10L324.4,10z"/>
	<path d="M347.1,21.7V10h3.2v11.2c0,4.1,2.1,5.5,4.8,5.5c2.9,0,5.3-1.9,5.3-5.8V10h3.2v19.2h-2.8v-3c-1.6,2.6-4.3,3.4-6.4,3.4
		C350.3,29.6,347.1,27.2,347.1,21.7L347.1,21.7z"/>
	<path d="M374.1,19.6l-6.6-9.6h3.8l5,7.6l5-7.6h3.7l-6.6,9.6l6.8,9.6h-3.9l-5.1-7.5l-5.1,7.5h-3.8L374.1,19.6L374.1,19.6z"/>
	<path d="M396.5,25.7l2.1-2.2c2,2.2,4.2,3.2,6.9,3.2c3.8,0,6.1-2,6.1-5c0-7.5-14.5-3.2-14.5-12.9c0-5,3.7-8.1,9.4-8.1
		c3.3,0,6,1.2,7.8,3.1L412.1,6c-1.6-1.6-3.3-2.4-5.6-2.4c-3.6,0-5.9,2-5.9,4.9c0,7.1,14.6,2.6,14.6,12.7c0,5.2-4,8.4-9.7,8.4
		C401.5,29.7,398.5,28.2,396.5,25.7L396.5,25.7z"/>
	<path d="M419.8,21.7V10h3.2v11.2c0,4.1,2.1,5.5,4.8,5.5c2.9,0,5.3-1.9,5.3-5.8V10h3.2v19.2h-2.8v-3c-1.6,2.6-4.3,3.4-6.4,3.4
		C423,29.6,419.8,27.2,419.8,21.7L419.8,21.7z"/>
	<path d="M442.7,10h3v3.3c1.5-2.3,4-3.7,6.9-3.7c5.2,0,9,4,9,9.8v0.4c0,5.9-3.8,9.9-9,9.9c-2.8,0-5.2-1.4-6.7-3.5v11.1h-3.2
		L442.7,10L442.7,10z M452.2,26.7c3.6,0,6.2-2.8,6.2-7v-0.4c0-4.2-2.6-6.9-6.2-6.9s-6.4,2.8-6.4,7.2S448.5,26.7,452.2,26.7z"/>
	<path d="M466.6,10h3v3.3c1.5-2.3,4-3.7,6.9-3.7c5.2,0,9,4,9,9.8v0.4c0,5.9-3.8,9.9-9,9.9c-2.8,0-5.2-1.4-6.7-3.5v11.1h-3.2
		L466.6,10L466.6,10z M476.1,26.7c3.6,0,6.2-2.8,6.2-7v-0.4c0-4.2-2.6-6.9-6.2-6.9s-6.4,2.8-6.4,7.2S472.4,26.7,476.1,26.7z"/>
	<path d="M489.1,19.7v-0.4c0-5.7,4.1-9.8,9.6-9.8s9.5,4,9.5,9.7v0.4c0,5.8-4,9.9-9.5,9.9S489.1,25.5,489.1,19.7z M498.7,26.7
		c3.7,0,6.3-2.9,6.3-7v-0.4c0-4-2.6-6.8-6.3-6.8s-6.4,2.8-6.4,6.9v0.4C492.3,23.8,494.9,26.7,498.7,26.7z"/>
	<path d="M513.1,10h3.2V13c0.9-2.4,3-3.2,5.3-3.2h1.6v3.2h-1.9c-3.1,0-5,1.5-5,4.7v11.4h-3.2V10z"/>
	<path d="M528.7,24.1V12.8h-3.5V10h3.5V5.2h3.2V10h5v2.8h-5v11.5c0,1.2,0.9,2.2,2.1,2.2h2.9v2.8h-3
		C531.4,29.2,528.7,27.8,528.7,24.1L528.7,24.1z"/>
</g>
</svg>
