<?xml version="1.0" encoding="utf-8"?>
<!-- Generator: Adobe Illustrator 28.0.0, SVG Export Plug-In . SVG Version: 6.00 Build 0)  -->
<svg version="1.1" id="Layer_2_00000080180087914272657850000005102160972847532731_"
	 xmlns="http://www.w3.org/2000/svg" xmlns:xlink="http://www.w3.org/1999/xlink" x="0px" y="0px" viewBox="0 0 537 37.2"
	 style="enable-background:new 0 0 537 37.2;" xml:space="preserve">
<style type="text/css">
	.st0{fill:#FFFFFF;}
</style>
<g id="Layer_1-2">
	<g id="Layer_1-3">
		<path class="st0" d="M67.1,11.3c-0.4-0.5-1.2-0.5-1.6,0c-0.5,0.5-0.4,1.4,0.2,1.8c0.4,0.2,0.9,0.2,1.3,0
			C67.5,12.7,67.6,11.8,67.1,11.3 M65.6,7.4c-3.1-0.7-5.8,2-5.1,5.1c0.4,1.6,1.6,2.8,3.2,3.2c3.1,0.7,5.9-2.1,5.1-5.1
			C68.4,9,67.2,7.8,65.6,7.4 M45.3,24.7c-2-0.7-2.8-0.6-5.3-0.6c-1.8,0-1.8,0-3.9,0c-0.6,0-0.9,3,1.4,3.6c1,0.3,2.1,0.5,2.8,1.2
			c0.3,0.3,0.5,0.9-0.2,0.9h-5.6c-1,0-1.9,0-2.7-0.6c-1.1-1-1.7-2.3-2.2-3.6c-0.6-1.4-1.2-2.7-2-4c-1.5-2.6-3.5-4.9-6.1-6.3
			c-3.3-1.8-8.9-2.6-13.3,0.8c-4.7,3.6-3.7,10.3,0.4,13.6c1.6,1.3,3.7,1.8,5.8,1.7c4-0.2,7-3.2,6.3-6.9c-0.2-1.2-1-2.4-2-3
			c-0.8-0.5-1.7-0.6-2.6-0.6c-0.9,0-2,0.2-2.6,0.9c-0.8,0.8-0.9,2.2-0.3,3.1c0.4,0.5,0.9,0.9,0.8,1.6c-0.1,0.5-0.4,0.8-0.9,0.9
			c-0.8,0.2-1.4-0.3-2-0.8c-1.3-1.4-1.7-3.5-1-5.2c0.9-2.3,3.6-3.5,6-3.5c3.2,0.1,6.2,2.2,7.5,5.1s0.9,6.5-0.9,9.1
			c-4,5.8-13.8,5.1-18.4,0.2C1.4,29.2-0.2,26.2,0,20.6c0.2-3.9,2.4-7.8,5.3-10.6c4.7-4.4,10.9-7.5,17.3-8.8c3.8-0.8,7.8-1,11.7-0.6
			c3.4,0.3,6.9,1,10.2,2c1.6,0.5,3.2,1.1,4.8,1.8c1.4,0.6,3.2,1.3,4.2,2.4c0-2-0.1-4.2-0.1-5.7c0-0.6,0.6-1,1.1-0.7
			c2.2,1,7.5,3.5,11.1,5.2c4.7,2.2,5.1,7.3,5.2,11.8c0,0.1,0,0.2,0,0.3c-0.2,0.3-0.9,0.2-1.2,0.2c-0.6,0-1.4,0-2,0
			c-1.1,0-2.2,0-3.4,0c-2.1-0.1-4.1-1-5.5-2.2c-0.1-0.1-0.6-0.2-0.8,0s-0.1,0.6,0,0.7c0.8,0.8,1.6,1.3,2.6,1.8
			c1.2,0.6,2.6,0.8,4,0.9c1.5,0.1,2.9,0.1,4.4-0.1c1.2-0.1,1.5-0.2,0.3,0.7c-1.1,0.8-2.3,1.4-3.6,1.8c-1.8,0.6-3.7,0.9-5.6,1
			c-1.2,0-2.3,0-3.4-0.2c-0.6-0.1-1.2-0.2-1.8-0.2c-0.5,0-1-0.1-1.5,0c-0.4,0.1-0.8,0.3-1.1,0.7c-0.4,0.5-0.5,1.8-0.3,2.4
			c0.4,1.1,1.3,1.8,2.3,2.4c1,0.6,2.4,0.8,2.7,2c0.1,0.2-2.2,0.3-2.4,0.2h-3c0,0-1.6,0-2.2-0.2c0,0,0,0-0.1,0
			c-0.3-0.2-0.5-0.6-0.6-1c-0.2-0.5-0.5-1-0.8-1.5C47.3,26.2,46.3,25.1,45.3,24.7 M67.8,11.6c0,1.7-1.4,3.2-3.2,3.2
			s-3.2-1.4-3.2-3.1s1.4-3.1,3.2-3.1C66.4,8.4,67.8,9.8,67.8,11.6"/>
	</g>
	<path class="st0" d="M80.4,25.5l3-3c2.2,2.2,4.2,3.1,6.5,3.1c3.2,0,5-1.6,5-4c0-6.4-14-2.8-14-12.5c0-5.2,3.9-8.5,9.8-8.5
		c3.6,0,6.6,1.4,8.5,3.5l-3.1,3.1c-1.6-1.6-3.2-2.5-5.4-2.5c-3,0-4.9,1.5-4.9,3.9c0,6.1,14.1,2.1,14.1,12.2c0,5.4-4.1,8.8-10.2,8.8
		C85.6,29.8,82.6,28.1,80.4,25.5z"/>
	<path class="st0" d="M104.5,19.5V1.2h4.9v17.9c0,4.1,2.4,6.1,6,6.1s5.9-2,5.9-6.1V1.2h4.9v18.3c0,6.8-4.3,10.2-10.8,10.2
		S104.5,26.4,104.5,19.5z"/>
	<path class="st0" d="M130.7,25.5l3-3c2.2,2.2,4.2,3.1,6.5,3.1c3.2,0,5-1.6,5-4c0-6.4-14-2.8-14-12.5c0-5.2,3.9-8.5,9.8-8.5
		c3.6,0,6.6,1.4,8.5,3.5l-3.1,3.1c-1.6-1.6-3.2-2.5-5.4-2.5c-3,0-4.9,1.5-4.9,3.9c0,6.1,14.1,2.1,14.1,12.2c0,5.4-4.1,8.8-10.2,8.8
		C135.9,29.8,132.8,28.1,130.7,25.5L130.7,25.5z"/>
	<path class="st0" d="M154.4,24.5V5.9c0-2.7,2-4.7,4.7-4.7h13.6v4.5h-12c-0.8,0-1.5,0.6-1.5,1.4V13h12.6v4.3h-12.6v6
		c0,0.8,0.6,1.4,1.5,1.4h12v4.5h-13.6C156.4,29.2,154.4,27.2,154.4,24.5z"/>
	<path class="st0" d="M187.5,1.2h4.6l8.1,16.8l8-16.8h4.6v28h-3.3V5.6l-8,16.9h-2.7l-8-16.9v23.6h-3.3L187.5,1.2L187.5,1.2z"/>
	<path class="st0" d="M219.4,21.7V10h3.2v11.2c0,4.1,2.1,5.5,4.8,5.5c2.9,0,5.3-1.9,5.3-5.8V10h3.2v19.2h-2.8v-3
		c-1.6,2.6-4.3,3.4-6.4,3.4C222.6,29.6,219.4,27.2,219.4,21.7z"/>
	<path class="st0" d="M242.9,24.3V2.8h-3.5V0h6.8v24.3c0,1.2,0.9,2.1,2.1,2.1h1.8v2.8h-2C245,29.2,242.9,27.3,242.9,24.3L242.9,24.3
		z"/>
	<path class="st0" d="M254.4,24.1V12.8h-3.5V10h3.5V5.2h3.2V10h5v2.8h-5v11.5c0,1.2,0.9,2.2,2.1,2.2h2.9v2.8h-3
		C257.1,29.2,254.4,27.8,254.4,24.1z"/>
	<path class="st0" d="M268.1,12.8h-3.7V10h6.9v19.2h-3.2V12.8z M268,1.1h3.5v4.6H268V1.1z"/>
	<path class="st0" d="M276.1,16.4h12.3v3.2h-12.3V16.4z"/>
	<path class="st0" d="M293.7,24.8V1.2h3.4v22.6c0,1.2,0.9,2.1,2.1,2.1h11.2v3.2h-12.2C295.5,29.2,293.7,27.3,293.7,24.8z"/>
	<path class="st0" d="M314.9,12.8h-3.7V10h6.9v19.2h-3.2V12.8z M314.8,1.1h3.5v4.6h-3.5V1.1z"/>
	<path class="st0" d="M324.4,10h3.1v3c1.6-2.6,4.3-3.4,6.4-3.4c4.3,0,7.3,2.8,7.3,8.3v11.3H338V18.4c0-4.1-2.1-5.8-4.9-5.8
		c-3,0-5.4,2-5.4,5.9v10.8h-3.2L324.4,10L324.4,10z"/>
	<path class="st0" d="M347.2,21.7V10h3.2v11.2c0,4.1,2.1,5.5,4.8,5.5c2.9,0,5.3-1.9,5.3-5.8V10h3.2v19.2H361v-3
		c-1.6,2.6-4.3,3.4-6.4,3.4C350.4,29.6,347.2,27.2,347.2,21.7L347.2,21.7z"/>
	<path class="st0" d="M374.1,19.6l-6.6-9.6h3.8l5,7.6l5-7.6h3.7l-6.6,9.6l6.8,9.6h-3.9l-5.1-7.5l-5.1,7.5h-3.8L374.1,19.6
		L374.1,19.6z"/>
	<path class="st0" d="M396.6,25.7l2.1-2.2c2,2.2,4.2,3.2,6.9,3.2c3.8,0,6.1-2,6.1-5c0-7.5-14.5-3.2-14.5-12.9c0-5,3.7-8.1,9.4-8.1
		c3.3,0,6,1.2,7.8,3.1L412.1,6c-1.6-1.6-3.3-2.4-5.6-2.4c-3.6,0-5.9,2-5.9,4.9c0,7.1,14.6,2.6,14.6,12.7c0,5.2-4,8.4-9.7,8.4
		C401.5,29.7,398.6,28.1,396.6,25.7L396.6,25.7z"/>
	<path class="st0" d="M419.9,21.7V10h3.2v11.2c0,4.1,2.1,5.5,4.8,5.5c2.9,0,5.3-1.9,5.3-5.8V10h3.2v19.2h-2.8v-3
		c-1.6,2.6-4.3,3.4-6.4,3.4C423,29.6,419.9,27.2,419.9,21.7L419.9,21.7z"/>
	<path class="st0" d="M442.8,10h3v3.3c1.5-2.3,4-3.7,6.9-3.7c5.2,0,9,4,9,9.8v0.4c0,5.9-3.8,9.9-9,9.9c-2.8,0-5.2-1.4-6.7-3.5v11.1
		h-3.2L442.8,10L442.8,10z M452.3,26.7c3.6,0,6.2-2.8,6.2-7v-0.4c0-4.2-2.6-6.9-6.2-6.9s-6.4,2.8-6.4,7.2S448.6,26.7,452.3,26.7z"/>
	<path class="st0" d="M466.7,10h3v3.3c1.5-2.3,4-3.7,6.9-3.7c5.2,0,9,4,9,9.8v0.4c0,5.9-3.8,9.9-9,9.9c-2.8,0-5.2-1.4-6.7-3.5v11.1
		h-3.2L466.7,10L466.7,10z M476.1,26.7c3.6,0,6.2-2.8,6.2-7v-0.4c0-4.2-2.6-6.9-6.2-6.9s-6.4,2.8-6.4,7.2S472.5,26.7,476.1,26.7z"/>
	<path class="st0" d="M489.1,19.7v-0.4c0-5.7,4.1-9.8,9.6-9.8s9.5,4,9.5,9.7v0.4c0,5.8-4,9.9-9.5,9.9S489.1,25.5,489.1,19.7z
		 M498.8,26.7c3.7,0,6.3-2.9,6.3-7v-0.4c0-4-2.6-6.8-6.3-6.8s-6.4,2.8-6.4,6.9v0.4C492.4,23.8,495,26.7,498.8,26.7z"/>
	<path class="st0" d="M513.2,10h3.2V13c0.9-2.4,3-3.2,5.3-3.2h1.6v3.2h-1.9c-3.1,0-5,1.5-5,4.7v11.4h-3.2V10z"/>
	<path class="st0" d="M528.8,24.1V12.8h-3.5V10h3.5V5.2h3.2V10h5v2.8h-5v11.5c0,1.2,0.9,2.2,2.1,2.2h2.9v2.8h-3
		C531.4,29.2,528.7,27.8,528.8,24.1L528.8,24.1z"/>
</g>
</svg>
