<?xml version="1.0" encoding="utf-8"?>
<!-- Generator: Adobe Illustrator 28.0.0, SVG Export Plug-In . SVG Version: 6.00 Build 0)  -->
<svg version="1.1" id="Layer_2_00000016753476380461906560000015982887547718545551_"
	 xmlns="http://www.w3.org/2000/svg" xmlns:xlink="http://www.w3.org/1999/xlink" x="0px" y="0px" viewBox="0 0 301.9 129.6"
	 style="enable-background:new 0 0 301.9 129.6;" xml:space="preserve">
<g id="Layer_1-2">
	<path d="M0.1,77.9l3-3C5.3,77,7.3,78,9.6,78c3.2,0,5-1.6,5-4c0-6.4-14-2.8-14-12.5c0-5.2,3.9-8.5,9.8-8.5c3.6,0,6.6,1.4,8.5,3.5
		l-3.1,3.1c-1.6-1.6-3.2-2.5-5.4-2.5c-3,0-4.9,1.5-4.9,3.9c0,6.1,14.1,2.1,14.1,12.2c0,5.4-4.1,8.8-10.2,8.8
		C5.3,82.1,2.2,80.5,0.1,77.9z"/>
	<path d="M24.2,71.9V53.6h4.9v17.9c0,4.1,2.4,6.1,6,6.1s5.9-2,5.9-6.1V53.6h4.9v18.3c0,6.8-4.3,10.2-10.8,10.2S24.2,78.7,24.2,71.9z
		"/>
	<path d="M50.4,77.9l3-3c2.2,2.2,4.2,3.1,6.5,3.1c3.2,0,5-1.6,5-4c0-6.4-14-2.8-14-12.5c0-5.2,3.9-8.5,9.8-8.5
		c3.6,0,6.6,1.4,8.5,3.5l-3.1,3.1c-1.6-1.6-3.2-2.5-5.4-2.5c-3,0-4.9,1.5-4.9,3.9c0,6.1,14.1,2.1,14.1,12.2c0,5.4-4.1,8.8-10.2,8.8
		C55.6,82.1,52.5,80.5,50.4,77.9z"/>
	<path d="M74.1,76.9V58.2c0-2.7,2-4.7,4.7-4.7h13.6V58h-12c-0.8,0-1.5,0.6-1.5,1.4v5.9h12.6v4.3H79v6c0,0.8,0.6,1.4,1.5,1.4h12v4.5
		H78.8C76.1,81.6,74.1,79.6,74.1,76.9z"/>
	<path d="M107.3,53.6h3.6l8.6,17.5l8.7-17.5h3.6v28h-2.6V57.1l-8.5,17.4h-2.2l-8.5-17.4v24.5h-2.6C107.3,81.6,107.3,53.6,107.3,53.6
		z"/>
	<path d="M138.7,74V62.5h2.5v11.2c0,4.5,2.3,6,5.3,6c3.2,0,5.8-2.1,5.8-6.3V62.5h2.5v19.1h-2.2v-3.3c-1.5,2.8-4.4,3.7-6.6,3.7
		C141.8,82,138.7,79.7,138.7,74z"/>
	<path d="M162.2,76.9V54.6h-3.7v-2.2h6.2v24.6c0,1.4,1,2.4,2.4,2.4h1.7v2.2h-1.8C164.2,81.6,162.2,79.7,162.2,76.9L162.2,76.9z"/>
	<path d="M173.3,76.7v-12h-3.6v-2.2h3.6v-4.8h2.5v4.8h5.3v2.2h-5.3v12.2c0,1.4,1,2.5,2.4,2.5h2.8v2.2h-2.8
		C175.7,81.6,173.3,80.1,173.3,76.7z"/>
	<path d="M186.8,64.7H183v-2.2h6.4v19.1h-2.5V64.7z M186.7,53.7h2.7V58h-2.7V53.7z"/>
	<path d="M194.3,69.1h12.4v2.6h-12.4V69.1z"/>
	<path d="M212,77.2V53.6h2.6v23c0,1.4,1.1,2.5,2.5,2.5h11.1v2.5h-11.9C213.8,81.6,212,79.7,212,77.2L212,77.2z"/>
	<path d="M233,64.7h-3.8v-2.2h6.4v19.1H233V64.7z M232.9,53.7h2.7V58h-2.7V53.7z"/>
	<path d="M242.2,62.5h2.4v3.4c1.5-2.9,4.4-3.8,6.6-3.8c4.3,0,7.3,2.7,7.3,8.4v11.2H256V70.7c0-4.5-2.3-6.3-5.3-6.3
		c-3.2,0-5.9,2.2-5.9,6.4v10.8h-2.6C242.2,81.6,242.2,62.4,242.2,62.5z"/>
	<path d="M264.8,74V62.5h2.5v11.2c0,4.5,2.3,6,5.3,6c3.2,0,5.8-2.1,5.8-6.3V62.5h2.5v19.1h-2.2v-3.3c-1.5,2.8-4.4,3.7-6.6,3.7
		C267.9,82,264.8,79.7,264.8,74L264.8,74z"/>
	<path d="M291.7,72.1l-6.7-9.6h3l5.4,8l5.4-8h2.9l-6.7,9.6l6.8,9.5h-3l-5.5-7.9l-5.5,7.9h-3L291.7,72.1L291.7,72.1z"/>
	<path d="M0.4,118.2l1.6-1.7c1.9,2.2,4.2,3.2,7.1,3.2c4.1,0,6.6-2.2,6.6-5.6c0-8-14.8-3.4-14.8-13.1c0-4.8,3.6-8,9.2-8
		c3.2,0,5.8,1.1,7.5,3l-1.8,1.8c-1.5-1.6-3.4-2.4-5.8-2.4c-3.9,0-6.4,2.2-6.4,5.4c0,7.6,14.8,2.8,14.8,13c0,5.1-3.8,8.3-9.4,8.3
		C5.2,122,2.3,120.6,0.4,118.2z"/>
	<path d="M23.5,114v-11.6h2.5v11.2c0,4.5,2.3,6,5.3,6c3.2,0,5.8-2.1,5.8-6.3v-10.9h2.5v19.1h-2.2v-3.3c-1.5,2.8-4.4,3.7-6.6,3.7
		C26.6,122,23.4,119.7,23.5,114z"/>
	<path d="M46.2,102.4h2.4v3.9c1.5-2.6,4.1-4.3,7.2-4.3c5.2,0,9,4,9,9.7v0.4c0,5.9-3.7,9.9-9,9.9c-3.1,0-5.6-1.6-7-4.1v11.7h-2.6
		C46.3,129.6,46.3,102.4,46.2,102.4z M55.5,119.7c3.9,0,6.7-3,6.7-7.6v-0.4c0-4.4-2.8-7.4-6.7-7.4s-6.9,3.1-6.9,7.7
		S51.6,119.7,55.5,119.7z"/>
	<path d="M70,102.4h2.4v3.9c1.5-2.6,4.1-4.3,7.2-4.3c5.2,0,9,4,9,9.7v0.4c0,5.9-3.7,9.9-9,9.9c-3.1,0-5.6-1.6-7-4.1v11.7H70
		C70,129.6,70,102.4,70,102.4z M79.2,119.7c3.9,0,6.7-3,6.7-7.6v-0.4c0-4.4-2.8-7.4-6.7-7.4s-6.9,3.1-6.9,7.7S75.3,119.7,79.2,119.7
		z"/>
	<path d="M92.2,112.1v-0.3c0-5.7,4-9.7,9.4-9.7s9.3,4,9.3,9.6v0.4c0,5.8-3.9,9.9-9.3,9.9S92.2,117.9,92.2,112.1z M101.6,119.7
		c4,0,6.8-3.1,6.8-7.6v-0.4c0-4.3-2.8-7.3-6.8-7.3s-6.8,3.1-6.8,7.4v0.3C94.8,116.6,97.6,119.7,101.6,119.7z"/>
	<path d="M116.1,102.4h2.5v3.2c0.9-2.5,3-3.2,5.4-3.2h1.7v2.5h-1.9c-3.2,0-5.1,1.6-5.1,5.1v11.6h-2.6
		C116.1,121.6,116.1,102.5,116.1,102.4z"/>
	<path d="M131.2,116.7v-12h-3.6v-2.2h3.6v-4.8h2.5v4.8h5.3v2.2h-5.3v12.2c0,1.4,1,2.5,2.4,2.5h2.8v2.2h-2.8
		C133.7,121.6,131.2,120.1,131.2,116.7z"/>
	<g id="Layer_1-3">
		<path d="M87.4,16.5c-0.5,0.3-1.2,0.3-1.7,0c-0.8-0.5-0.9-1.7-0.2-2.3c0.6-0.6,1.6-0.6,2.1,0C88.3,14.8,88.2,15.9,87.4,16.5
			 M89.8,13.2c0.9,4-2.7,7.6-6.7,6.7c-2.1-0.5-3.7-2.1-4.2-4.1c-0.9-4,2.7-7.6,6.7-6.7C87.7,9.5,89.3,11.1,89.8,13.2 M62.7,34.8
			c0.5,0.7,0.8,1.3,1.1,1.9c0.2,0.5,0.3,1,0.8,1.3c0,0,0.1,0,0.1,0c0.8,0.3,2.9,0.2,2.9,0.2h3.9c0.3,0,3.2,0,3.2-0.3
			c-0.3-1.6-2.2-1.8-3.5-2.7c-1.3-0.8-2.5-1.6-3-3.1c-0.3-0.8-0.1-2.5,0.4-3.1c0.4-0.5,0.9-0.8,1.4-0.9c0.6-0.1,1.3,0,1.9,0
			c0.8,0.1,1.5,0.2,2.3,0.3c1.5,0.2,3,0.3,4.5,0.2c2.5-0.1,4.9-0.5,7.3-1.3c1.6-0.5,3.2-1.3,4.6-2.3c1.6-1.2,1.2-1.1-0.4-0.9
			c-1.9,0.2-3.8,0.2-5.8,0.1c-1.8-0.1-3.6-0.3-5.2-1.1c-1.3-0.7-2.4-1.3-3.4-2.3c-0.2-0.1-0.2-0.6,0-0.9c0.3-0.3,0.8-0.1,1,0
			c1.8,1.5,4.4,2.7,7.1,2.8c1.5,0.1,2.9,0.1,4.4,0c0.7,0,1.8,0,2.6,0c0.4,0,1.4,0.1,1.6-0.3c0.1-0.1,0.1-0.2,0.1-0.4
			c-0.2-5.9-0.7-12.6-6.8-15.4c-4.6-2.1-11.5-5.4-14.4-6.7c-0.7-0.3-1.5,0.2-1.5,0.9c0,2,0.1,4.8,0.1,7.4c-1.4-1.4-3.8-2.3-5.6-3.2
			c-2-0.9-4.1-1.7-6.3-2.4c-4.3-1.3-8.8-2.2-13.3-2.6C39.7-0.2,34.5,0,29.5,1C21.2,2.8,13.1,6.7,7,12.5C3.2,16.1,0.2,21.2,0,26.3
			c-0.3,7.3,1.8,11.2,5.5,15.2c6,6.4,18.8,7.3,24-0.3c2.3-3.4,2.8-8.1,1.1-11.9c-1.7-3.8-5.6-6.5-9.8-6.7c-3.2-0.1-6.6,1.5-7.9,4.5
			c-0.9,2.3-0.4,5.1,1.3,6.8c0.7,0.7,1.6,1.2,2.6,1c0.6-0.1,1.1-0.6,1.1-1.2c0.1-0.9-0.6-1.4-1.1-2.1c-0.9-1.2-0.7-3,0.4-4
			c0.9-0.9,2.2-1.1,3.5-1.1c1.2,0,2.3,0.2,3.3,0.8c1.4,0.8,2.3,2.3,2.7,3.9c1,4.8-2.9,8.7-8.2,9c-2.7,0.2-5.4-0.5-7.5-2.2
			c-5.3-4.3-6.6-13-0.5-17.7c5.8-4.4,13.1-3.3,17.4-1c3.4,1.8,6,4.9,8,8.2c1,1.7,1.8,3.4,2.6,5.2c0.7,1.7,1.4,3.4,2.9,4.7
			c1,0.8,2.2,0.8,3.5,0.8h7.3c1,0,0.8-0.7,0.3-1.1c-1-1-2.4-1.2-3.7-1.6c-3-0.8-2.7-4.7-1.8-4.7c2.7,0,2.7,0.1,5,0
			c3.3,0,4.4-0.2,7,0.7C60.5,32.2,61.8,33.5,62.7,34.8"/>
	</g>
</g>
</svg>
