<?xml version="1.0" encoding="UTF-8"?>
<svg id="Layer_1" data-name="Layer 1" xmlns="http://www.w3.org/2000/svg" viewBox="0 0 327.82 37.03">
  <defs>
    <style>
      .cls-1 {
        fill: #fff;
      }
    </style>
  </defs>
  <g>
    <path class="cls-1" d="M94.62,30.26c-2.1,0-3.9-.4-5.4-1.2-1.5-.8-2.9-1.8-4-3.1l3-3c1.1,1.1,2.2,1.9,3.2,2.4s2.1.7,3.3.7,2.8-.4,3.7-1.1,1.3-1.7,1.3-2.9-.3-1.6-.8-2.2-1.2-1-2-1.4-1.7-.7-2.7-1-2-.6-3-.9c-1-.3-1.9-.8-2.7-1.4-.8-.6-1.5-1.3-2-2.2s-.8-2-.8-3.4.4-3.3,1.2-4.5,1.9-2.2,3.4-2.9,3.2-1,5.1-1,3.4.3,4.9,1c1.5.6,2.6,1.5,3.6,2.6l-3.1,3.1c-.8-.8-1.6-1.4-2.5-1.9-.9-.4-1.8-.6-2.9-.6s-2.6.4-3.5,1.1-1.3,1.6-1.3,2.8.3,1.5.8,2.1c.5.5,1.2,1,2,1.3s1.8.6,2.8.8c1,.3,2,.6,3,.9,1,.3,1.9.8,2.8,1.4.8.6,1.5,1.3,2,2.2s.8,2.1.8,3.6-.4,3.3-1.3,4.7c-.9,1.3-2,2.3-3.6,3.1-1.5.7-3.3,1.1-5.3,1.1v-.2Z"/>
    <path class="cls-1" d="M120.02,30.26c-3.3,0-5.9-.8-7.9-2.5s-3-4.3-3-7.7V1.76h4.9v17.9c0,2,.5,3.5,1.6,4.6,1.1,1,2.5,1.5,4.3,1.5s3.3-.5,4.3-1.5c1.1-1,1.6-2.5,1.6-4.6V1.76h4.9v18.3c0,2.3-.5,4.2-1.4,5.7s-2.2,2.7-3.8,3.4-3.5,1.1-5.7,1.1h.2Z"/>
    <path class="cls-1" d="M144.42,30.26c-2.1,0-3.9-.4-5.4-1.2-1.5-.8-2.9-1.8-4-3.1l3-3c1.1,1.1,2.2,1.9,3.2,2.4s2.1.7,3.3.7,2.8-.4,3.7-1.1,1.3-1.7,1.3-2.9-.3-1.6-.8-2.2-1.2-1-2-1.4-1.7-.7-2.7-1-2-.6-3-.9-1.9-.8-2.7-1.4c-.8-.6-1.5-1.3-2-2.2s-.8-2-.8-3.4.4-3.3,1.2-4.5c.8-1.3,1.9-2.2,3.4-2.9s3.2-1,5.1-1,3.4.3,4.9,1c1.5.6,2.6,1.5,3.6,2.6l-3.1,3.1c-.8-.8-1.6-1.4-2.5-1.9-.9-.4-1.8-.6-2.9-.6s-2.6.4-3.5,1.1-1.3,1.6-1.3,2.8.3,1.5.8,2.1c.5.5,1.2,1,2,1.3s1.8.6,2.8.8c1,.3,2,.6,3,.9,1,.3,1.9.8,2.8,1.4.8.6,1.5,1.3,2,2.2.5.9.8,2.1.8,3.6s-.4,3.3-1.3,4.7-2,2.3-3.6,3.1-3.3,1.1-5.3,1.1v-.2Z"/>
    <path class="cls-1" d="M163.52,29.76c-1.4,0-2.5-.4-3.3-1.3-.9-.9-1.3-2-1.3-3.4V6.46c0-1.4.4-2.5,1.3-3.4.9-.9,2-1.3,3.3-1.3h13.6v4.5h-12c-.4,0-.7.1-1,.4s-.4.6-.4,1v16.2c0,.4.1.7.4,1s.6.4,1,.4h12v4.5h-13.6ZM161.22,17.86v-4.3h15.1v4.3h-15.1Z"/>
    <path class="cls-1" d="M198.42,30.16c-1.9,0-3.6-.3-5-1-1.5-.7-2.7-1.6-3.6-2.8l1.7-1.7c.9,1.1,2,1.9,3.2,2.4s2.5.8,3.9.8c2,0,3.6-.5,4.8-1.6,1.2-1,1.8-2.4,1.8-4s-.3-2.1-.8-2.8c-.5-.7-1.2-1.2-2.1-1.7-.9-.4-1.8-.8-2.9-1.1s-2.1-.6-3.1-.9c-1.1-.3-2-.7-2.9-1.3-.9-.5-1.6-1.2-2.1-2.1s-.8-2-.8-3.4.4-3,1.1-4.2,1.8-2.1,3.2-2.8c1.4-.7,3-1,4.8-1s3,.3,4.3.8c1.3.5,2.3,1.2,3.2,2.2l-1.7,1.8c-.8-.8-1.6-1.4-2.6-1.8-.9-.4-2-.6-3.2-.6-1.9,0-3.5.5-4.7,1.5s-1.8,2.3-1.8,3.9.3,2,.8,2.6c.5.6,1.3,1.1,2.1,1.5.9.4,1.8.7,2.9,1s2.1.6,3.2.9c1.1.3,2,.7,2.9,1.3.9.5,1.6,1.2,2.1,2.1s.8,2.1.8,3.5-.4,3.1-1.2,4.4c-.8,1.2-1.9,2.2-3.3,2.9-1.4.7-3.1,1-4.9,1l-.1.2Z"/>
    <path class="cls-1" d="M220.82,30.16c-1.9,0-3.5-.4-5-1.3-1.4-.8-2.6-2-3.4-3.5-.8-1.5-1.2-3.2-1.2-5.1v-.4c0-1.9.4-3.5,1.1-5,.7-1.4,1.8-2.6,3.1-3.4,1.3-.8,2.9-1.3,4.6-1.3s3.3.4,4.6,1.3c1.3.9,2.2,2.1,2.8,3.7s.8,3.5.5,5.6h-15v-2.1h13.6l-1.1,1.1c.2-1.5,0-2.8-.4-3.9s-1.1-2-2-2.6-1.9-.9-3.1-.9-2.4.3-3.4.9c-.9.6-1.7,1.5-2.2,2.6s-.8,2.4-.8,3.9v.4c0,1.5.3,2.8.9,3.9.6,1.1,1.4,2,2.5,2.7,1.1.6,2.3,1,3.8,1s1.9-.1,2.8-.4,1.6-.7,2.1-1.2l1.4,1.6c-.7.7-1.6,1.3-2.8,1.7s-2.4.6-3.7.6l.3.1Z"/>
    <path class="cls-1" d="M233.02,29.76V10.66h2.5v4.6h-.4c.2-1.3.6-2.2,1.2-2.9.5-.7,1.2-1.1,2-1.4.8-.3,1.6-.4,2.6-.4h1.6v2.5h-1.8c-1.6,0-2.8.4-3.7,1.2s-1.4,2.1-1.4,3.8v11.6h-2.6v.1Z"/>
    <path class="cls-1" d="M251.72,29.76l-7.7-19.1h2.6l6.9,17.4h-1l6.9-17.4h2.6l-7.7,19.1h-2.7.1Z"/>
    <path class="cls-1" d="M267.32,29.76V11.76l1.2,1.1h-5v-2.2h6.4v19.1h-2.6ZM267.22,6.26V1.86h2.7v4.3h-2.7v.1Z"/>
    <path class="cls-1" d="M284.62,30.16c-1.9,0-3.6-.4-5-1.2-1.5-.8-2.6-2-3.4-3.4-.8-1.5-1.3-3.1-1.3-5v-.5c0-1.9.4-3.6,1.3-5,.8-1.5,2-2.6,3.4-3.4,1.5-.8,3.1-1.2,5-1.2s2.6.2,3.8.7c1.1.5,2.1,1.2,2.9,2.1l-1.6,1.6c-.6-.6-1.4-1.1-2.2-1.5s-1.8-.5-2.9-.5-2.6.3-3.7.9c-1.1.6-1.9,1.5-2.6,2.6s-.9,2.4-.9,3.8v.5c0,1.5.3,2.7.9,3.8.6,1.1,1.5,2,2.6,2.6s2.3.9,3.7.9,2-.2,2.8-.5,1.6-.8,2.3-1.5l1.6,1.6c-.8.9-1.8,1.6-2.9,2.1s-2.4.7-3.8.7v-.2Z"/>
    <path class="cls-1" d="M303.42,30.16c-1.9,0-3.5-.4-5-1.3-1.4-.8-2.6-2-3.4-3.5s-1.2-3.2-1.2-5.1v-.4c0-1.9.4-3.5,1.1-5,.7-1.4,1.8-2.6,3.1-3.4,1.3-.8,2.9-1.3,4.6-1.3s3.3.4,4.6,1.3,2.2,2.1,2.8,3.7c.6,1.6.8,3.5.5,5.6h-15v-2.1h13.6l-1.1,1.1c.2-1.5,0-2.8-.4-3.9s-1.1-2-2-2.6-1.9-.9-3.1-.9-2.4.3-3.4.9-1.7,1.5-2.2,2.6-.8,2.4-.8,3.9v.4c0,1.5.3,2.8.9,3.9s1.4,2,2.5,2.7c1.1.6,2.3,1,3.8,1s1.9-.1,2.8-.4c.8-.3,1.6-.7,2.1-1.2l1.4,1.6c-.7.7-1.6,1.3-2.8,1.7s-2.4.6-3.7.6l.3.1Z"/>
    <path class="cls-1" d="M320.72,30.06c-1.4,0-2.6-.2-3.9-.6-1.2-.4-2.2-1-2.9-1.7l1.2-1.8c.7.6,1.6,1.1,2.6,1.5s2,.6,3.1.6,2.4-.3,3.2-.9c.8-.6,1.2-1.4,1.2-2.4s-.3-1.5-.8-1.9c-.5-.5-1.2-.8-2-1s-1.6-.5-2.5-.7-1.7-.5-2.5-.9-1.5-.9-2-1.6-.8-1.6-.8-2.8.6-3,1.8-4c1.2-1,2.9-1.6,4.9-1.6s2.3.2,3.3.5c1,.4,1.9.8,2.7,1.4l-1.2,1.8c-.7-.5-1.4-.9-2.2-1.2-.8-.3-1.7-.5-2.6-.5s-2.3.3-3.1.9c-.8.6-1.2,1.4-1.2,2.4s.3,1.5.8,1.9,1.2.8,2,1c.8.3,1.7.5,2.6.7s1.8.5,2.6.9c.8.4,1.5.9,2,1.6s.8,1.6.8,2.8-.3,2-.9,2.8-1.4,1.5-2.5,1.9c-1.1.5-2.3.7-3.6.7l-.1.2Z"/>
  </g>
  <g id="Layer_11" data-name="Layer 11">
    <path class="cls-1" d="M68.72,11.36c-.5-.5-1.2-.5-1.7,0s-.5,1.4.2,1.8c.4.3.9.3,1.3,0,.6-.4.7-1.3.2-1.8M67.22,7.36c-3.2-.7-6,2.1-5.2,5.2.4,1.6,1.7,2.9,3.3,3.3,3.2.7,6-2.1,5.2-5.2-.4-1.6-1.7-2.9-3.3-3.3M46.42,25.16c-2.1-.8-2.9-.6-5.5-.6h-4c-2.1,0-.9,3.1,1.4,3.7,1,.3,2.1.5,2.9,1.2.3.3.5.9-.3.9h-5.8c-1,0-2,0-2.7-.6-1.2-1-1.7-2.3-2.3-3.7-.6-1.4-1.3-2.8-2-4.1-1.5-2.6-3.5-5-6.2-6.4-3.4-1.8-9.1-2.7-13.6.8-4.8,3.7-3.8,10.5.4,13.9,1.7,1.3,3.8,1.9,5.9,1.8,4.1-.2,7.2-3.3,6.4-7-.3-1.3-1-2.4-2.1-3.1-.8-.5-1.7-.6-2.6-.6-1,0-2,.2-2.7.9-.8.8-1,2.2-.3,3.2.4.5,1,1,.9,1.6,0,.5-.5.8-.9.9-.8.2-1.5-.3-2-.8-1.3-1.4-1.8-3.6-1-5.4,1-2.3,3.7-3.6,6.2-3.5,3.3.1,6.3,2.3,7.7,5.2,1.3,3,.9,6.6-.9,9.3-4.1,6-14.2,5.3-18.9.2C1.42,29.66-.18,26.66.02,20.86c.2-4,2.5-8,5.5-10.8C10.32,5.56,16.72,2.46,23.22,1.06c3.9-.8,8-1,11.9-.6,3.5.4,7,1,10.4,2,1.7.5,3.3,1.1,4.9,1.9,1.4.6,3.3,1.4,4.4,2.5V1.06c0-1.6.6-1,1.2-.7,2.3,1.1,7.7,3.6,11.3,5.3,4.9,2.2,5.2,7.4,5.4,12.1v.3c-.2.3-1,.2-1.3.2h-5.4c-2.1-.1-4.2-1.1-5.6-2.2-.1-.1-.6-.2-.8,0s-.1.6,0,.7c.8.8,1.7,1.3,2.7,1.8,1.3.7,2.7.8,4.1.9h4.5c1.3-.1,1.6-.2.3.7-1.1.8-2.4,1.4-3.6,1.8-1.8.6-3.8.9-5.7,1-1.2,0-2.3,0-3.5-.2-.6,0-1.2-.2-1.8-.2-.5,0-1-.1-1.5,0-.4,0-.9.3-1.1.7-.4.5-.5,1.9-.3,2.5.4,1.2,1.4,1.8,2.4,2.4,1.1.6,2.5.9,2.8,2.1,0,.3-2.2.3-2.5.3h-3s-1.7,0-2.3-.2h0c-.4-.2-.5-.7-.6-1-.2-.5-.5-1-.8-1.5-.7-1-1.7-2.1-2.8-2.5M69.42,11.56c0,1.8-1.4,3.2-3.2,3.2s-3.2-1.4-3.2-3.2,1.4-3.2,3.2-3.2,3.2,1.4,3.2,3.2"/>
  </g>
</svg>