<?xml version="1.0" encoding="UTF-8"?>
<svg id="Layer_1" data-name="Layer 1" xmlns="http://www.w3.org/2000/svg" viewBox="0 0 328.61 36.57">
  <defs>
    <style>
      .cls-1 {
        fill: #30ba78;
      }

      .cls-2 {
        fill: #0c322c;
      }
    </style>
  </defs>
  <g id="Layer_1-2" data-name="Layer 1">
    <path class="cls-1" d="M68.56,12.93c-.39.26-.91.26-1.3,0-.64-.42-.7-1.31-.19-1.82.46-.47,1.21-.47,1.67,0,.51.51.45,1.4-.19,1.82M70.42,10.34c.74,3.15-2.09,5.99-5.25,5.25-1.61-.38-2.88-1.65-3.26-3.26-.74-3.15,2.09-5.98,5.24-5.25,1.61.37,2.88,1.65,3.26,3.25M49.19,27.3c.36.52.66,1.02.83,1.52.12.36.27.82.62,1.01.02.01.04.02.06.03.64.23,2.3.19,2.3.19h3.04c.26,0,2.55,0,2.49-.26-.27-1.22-1.69-1.44-2.77-2.08-.99-.59-1.93-1.26-2.36-2.42-.22-.6-.09-1.97.29-2.47.28-.36.69-.6,1.13-.7.49-.1,1-.01,1.49.04.6.06,1.2.17,1.81.25,1.16.15,2.34.21,3.51.18,1.94-.05,3.88-.36,5.71-.99,1.28-.43,2.54-1.01,3.63-1.82,1.24-.92.91-.83-.34-.71-1.5.15-3.02.18-4.53.09-1.41-.08-2.79-.25-4.07-.9-1-.52-1.86-1.04-2.66-1.84-.12-.12-.19-.48.02-.7.21-.22.66-.09.79.02,1.39,1.16,3.46,2.11,5.6,2.22,1.16.06,2.29.08,3.44.03.58-.03,1.45-.02,2.03-.03.3,0,1.12.08,1.27-.23.05-.09.04-.2.04-.3-.17-4.63-.51-9.86-5.36-12.07-3.62-1.65-9.04-4.22-11.33-5.28-.53-.25-1.15.15-1.15.74,0,1.55.08,3.77.08,5.8-1.1-1.12-2.95-1.82-4.36-2.47-1.6-.73-3.25-1.36-4.93-1.88-3.38-1.05-6.88-1.69-10.4-2.04-3.99-.4-8.05-.21-11.99.6-6.48,1.34-12.84,4.46-17.67,9.01C2.5,12.63.18,16.6.02,20.63c-.22,5.71,1.37,8.77,4.31,11.93,4.69,5.03,14.77,5.74,18.85-.23,1.84-2.69,2.24-6.33.9-9.3-1.33-2.97-4.4-5.11-7.65-5.22-2.52-.08-5.21,1.2-6.17,3.53-.74,1.78-.32,3.98,1.02,5.36.52.54,1.23.98,2.01.81.46-.1.84-.44.91-.91.1-.68-.5-1.13-.86-1.65-.66-.95-.53-2.37.3-3.17.7-.68,1.74-.88,2.72-.88.91,0,1.84.16,2.62.62,1.1.65,1.83,1.83,2.09,3.09.76,3.75-2.29,6.79-6.42,7.03-2.11.13-4.26-.43-5.91-1.76-4.18-3.36-5.2-10.23-.42-13.9,4.53-3.48,10.26-2.58,13.63-.77,2.7,1.45,4.71,3.81,6.24,6.43.77,1.32,1.42,2.69,2.02,4.09.58,1.34,1.13,2.7,2.29,3.68.77.65,1.72.63,2.73.63h5.77c.78,0,.59-.52.25-.87-.76-.78-1.86-.96-2.88-1.24-2.32-.64-2.09-3.72-1.44-3.72,2.08,0,2.14.06,3.96.04,2.63-.04,3.42-.19,5.48.57,1.1.41,2.15,1.48,2.84,2.46"/>
  </g>
  <g>
    <path class="cls-2" d="M85.37,25.82l3.04-3.04c2.16,2.2,4.16,3.12,6.52,3.12,3.16,0,5.04-1.6,5.04-3.96,0-6.44-13.96-2.8-13.96-12.48,0-5.2,3.88-8.52,9.76-8.52,3.6,0,6.6,1.4,8.48,3.52l-3.12,3.12c-1.6-1.64-3.24-2.48-5.36-2.48-2.96,0-4.88,1.52-4.88,3.88,0,6.08,14.08,2.12,14.08,12.24,0,5.36-4.12,8.84-10.2,8.84-4.2,0-7.24-1.68-9.4-4.24Z"/>
    <path class="cls-2" d="M109.45,19.82V1.5h4.92v17.92c0,4.08,2.36,6.08,5.96,6.08s5.92-2,5.92-6.08V1.5h4.92v18.32c0,6.84-4.32,10.24-10.84,10.24s-10.88-3.4-10.88-10.24Z"/>
    <path class="cls-2" d="M135.65,25.82l3.04-3.04c2.16,2.2,4.16,3.12,6.52,3.12,3.16,0,5.04-1.6,5.04-3.96,0-6.44-13.96-2.8-13.96-12.48,0-5.2,3.88-8.52,9.76-8.52,3.6,0,6.6,1.4,8.48,3.52l-3.12,3.12c-1.6-1.64-3.24-2.48-5.36-2.48-2.96,0-4.88,1.52-4.88,3.88,0,6.08,14.08,2.12,14.08,12.24,0,5.36-4.12,8.84-10.2,8.84-4.2,0-7.24-1.68-9.4-4.24Z"/>
    <path class="cls-2" d="M159.41,24.82V6.18c0-2.72,1.96-4.68,4.68-4.68h13.6v4.48h-11.96c-.84,0-1.48.64-1.48,1.44v5.88h12.6v4.28h-12.6v6c0,.8.64,1.44,1.48,1.44h11.96v4.48h-13.6c-2.72,0-4.68-1.96-4.68-4.68Z"/>
    <path class="cls-2" d="M190.37,26.14l1.64-1.72c1.88,2.16,4.24,3.24,7.08,3.24,4.08,0,6.6-2.24,6.6-5.6,0-8-14.8-3.4-14.8-13.08,0-4.8,3.64-7.96,9.16-7.96,3.2,0,5.76,1.12,7.48,2.96l-1.76,1.76c-1.52-1.56-3.36-2.4-5.76-2.4-3.88,0-6.44,2.16-6.44,5.4,0,7.6,14.84,2.8,14.84,12.96,0,5.08-3.84,8.28-9.4,8.28-3.8,0-6.72-1.48-8.64-3.84Z"/>
    <path class="cls-2" d="M212.13,20.02v-.4c0-5.56,3.56-9.64,8.88-9.64s8.64,4.28,7.92,10.64h-14.28c.28,4.08,3,6.92,7.12,6.92,2.04,0,3.76-.52,4.92-1.56l1.44,1.64c-1.4,1.44-3.8,2.28-6.48,2.28-5.64,0-9.52-4.04-9.52-9.88ZM226.53,18.5c.08-3.92-2.24-6.28-5.52-6.28-3.56,0-5.92,2.48-6.32,6.28h11.84Z"/>
    <path class="cls-2" d="M233.57,10.38h2.48v3.16c.92-2.48,3-3.2,5.36-3.2h1.68v2.48h-1.88c-3.2,0-5.08,1.6-5.08,5.08v11.6h-2.56V10.38Z"/>
    <path class="cls-2" d="M244.77,10.38h2.64l6.4,16.12,6.4-16.12h2.64l-7.68,19.12h-2.68l-7.72-19.12Z"/>
    <path class="cls-2" d="M267.65,12.62h-3.84v-2.24h6.36v19.12h-2.52V12.62ZM267.57,1.62h2.72v4.36h-2.72V1.62Z"/>
    <path class="cls-2" d="M275.37,20.18v-.48c0-5.76,4.12-9.72,9.72-9.72,2.76,0,5.08,1.04,6.64,2.8l-1.56,1.64c-1.32-1.36-2.96-2.08-5.08-2.08-4.16,0-7.2,2.96-7.2,7.36v.48c0,4.4,3.04,7.36,7.24,7.36,2.08,0,3.72-.68,5.08-2.04l1.56,1.6c-1.56,1.8-3.92,2.8-6.68,2.8-5.64,0-9.72-4-9.72-9.72Z"/>
    <path class="cls-2" d="M295.37,20.02v-.4c0-5.56,3.56-9.64,8.88-9.64s8.64,4.28,7.92,10.64h-14.28c.28,4.08,3,6.92,7.12,6.92,2.04,0,3.76-.52,4.92-1.56l1.44,1.64c-1.4,1.44-3.8,2.28-6.48,2.28-5.64,0-9.52-4.04-9.52-9.88ZM309.77,18.5c.08-3.92-2.24-6.28-5.52-6.28-3.56,0-5.92,2.48-6.32,6.28h11.84Z"/>
    <path class="cls-2" d="M314.85,27.5l1.16-1.76c1.4,1.24,3.56,2.08,5.68,2.08,2.6,0,4.4-1.36,4.4-3.32,0-5.04-10.56-1.84-10.56-8.92,0-3.28,2.68-5.6,6.76-5.6,2.36,0,4.48.8,6.04,2l-1.2,1.76c-1.32-1.04-3-1.72-4.88-1.72-2.52,0-4.28,1.4-4.28,3.36,0,4.92,10.64,1.84,10.64,8.96,0,3.28-2.84,5.52-6.92,5.52-2.72,0-5.32-.92-6.84-2.36Z"/>
  </g>
</svg>