<?xml version="1.0" encoding="UTF-8"?><svg id="Layer_2" xmlns="http://www.w3.org/2000/svg" viewBox="0 0 457.66 36.19"><defs><style>.cls-1{fill:#fff;}.cls-2{fill:#42b177;}</style></defs><g id="Layer_1-2"><g id="Layer_1-3"><path class="cls-2" d="M67.08,11.32c-.45-.46-1.18-.46-1.63,0-.5.5-.44,1.37.18,1.78.38.25.89.25,1.27,0,.62-.41.68-1.28.18-1.78M65.59,7.4c-3.08-.72-5.85,2.04-5.12,5.12.37,1.57,1.61,2.81,3.18,3.18,3.08.72,5.85-2.05,5.12-5.12-.37-1.57-1.61-2.81-3.18-3.18M45.26,24.73c-2.01-.74-2.78-.59-5.35-.56-1.78.02-1.84-.04-3.87-.04-.63,0-.86,3,1.41,3.63.99.27,2.07.45,2.81,1.21.33.34.52.85-.25.85h-5.63c-.99,0-1.92.02-2.67-.61-1.14-.96-1.67-2.28-2.24-3.6-.59-1.36-1.23-2.71-1.97-3.99-1.49-2.56-3.45-4.87-6.09-6.28-3.29-1.77-8.88-2.64-13.31.76-4.66,3.58-3.66,10.29.42,13.57,1.61,1.3,3.71,1.84,5.78,1.72,4.03-.24,7.01-3.21,6.27-6.87-.25-1.23-.96-2.38-2.04-3.02-.77-.45-1.67-.61-2.56-.61-.95,0-1.97.2-2.65.86-.81.78-.94,2.17-.29,3.1.36.51.94.94.84,1.61-.07.45-.44.79-.89.89-.76.17-1.45-.26-1.96-.79-1.31-1.35-1.72-3.5-1-5.24.94-2.28,3.57-3.53,6.03-3.45,3.18.11,6.17,2.2,7.47,5.1,1.3,2.9.91,6.46-.88,9.08-3.99,5.83-13.84,5.14-18.41.22C1.36,29.19-.2,26.19.02,20.62c.15-3.94,2.43-7.82,5.32-10.55C10.06,5.63,16.28,2.59,22.6,1.28c3.84-.79,7.81-.98,11.71-.59,3.44.34,6.86.97,10.16,2,1.64.51,3.25,1.12,4.81,1.83,1.38.63,3.18,1.32,4.25,2.41,0-1.98-.08-4.15-.08-5.66,0-.58.61-.97,1.13-.72,2.24,1.04,7.53,3.54,11.07,5.16,4.74,2.16,5.07,7.27,5.24,11.79,0,.1,0,.21-.04.29-.15.31-.95.23-1.24.23-.57,0-1.42,0-1.99.03-1.13.05-2.23.03-3.36-.03-2.09-.1-4.11-1.03-5.47-2.17-.13-.11-.57-.24-.78-.02-.21.22-.14.57-.02.68.78.78,1.62,1.29,2.6,1.8,1.24.64,2.6.8,3.97.88,1.47.09,2.95.07,4.42-.09,1.23-.12,1.54-.21.33.69-1.06.79-2.3,1.36-3.55,1.78-1.79.61-3.69.91-5.58.96-1.15.03-2.29-.03-3.43-.18-.59-.07-1.17-.18-1.76-.24-.48-.05-.98-.14-1.45-.04-.43.09-.83.33-1.11.68-.37.49-.5,1.83-.29,2.41.42,1.13,1.34,1.78,2.3,2.36,1.05.62,2.43.84,2.7,2.03.06.25-2.18.26-2.43.25h-2.97s-1.62.04-2.24-.19c-.02,0-.04-.02-.06-.02-.34-.18-.49-.64-.61-.99-.17-.49-.46-.98-.81-1.48-.67-.96-1.7-2-2.78-2.4M67.76,11.55c0,1.74-1.41,3.15-3.15,3.15s-3.15-1.41-3.15-3.15,1.41-3.15,3.15-3.15,3.15,1.41,3.15,3.15"/></g><path class="cls-1" d="M80.47,25.52l3.04-3.04c2.16,2.2,4.16,3.12,6.52,3.12,3.16,0,5.04-1.6,5.04-3.96,0-6.44-13.96-2.8-13.96-12.48,0-5.2,3.88-8.52,9.76-8.52,3.6,0,6.6,1.4,8.48,3.52l-3.12,3.12c-1.6-1.64-3.24-2.48-5.36-2.48-2.96,0-4.88,1.52-4.88,3.88,0,6.08,14.08,2.12,14.08,12.24,0,5.36-4.12,8.84-10.2,8.84-4.2,0-7.24-1.68-9.4-4.24Z"/><path class="cls-1" d="M104.55,19.52V1.2h4.92v17.92c0,4.08,2.36,6.08,5.96,6.08s5.92-2,5.92-6.08V1.2h4.92v18.32c0,6.84-4.32,10.24-10.84,10.24s-10.88-3.4-10.88-10.24Z"/><path class="cls-1" d="M130.75,25.52l3.04-3.04c2.16,2.2,4.16,3.12,6.52,3.12,3.16,0,5.04-1.6,5.04-3.96,0-6.44-13.96-2.8-13.96-12.48,0-5.2,3.88-8.52,9.76-8.52,3.6,0,6.6,1.4,8.48,3.52l-3.12,3.12c-1.6-1.64-3.24-2.48-5.36-2.48-2.96,0-4.88,1.52-4.88,3.88,0,6.08,14.08,2.12,14.08,12.24,0,5.36-4.12,8.84-10.2,8.84-4.2,0-7.24-1.68-9.4-4.24Z"/><path class="cls-1" d="M154.51,24.52V5.88c0-2.72,1.96-4.68,4.68-4.68h13.6v4.48h-11.96c-.84,0-1.48.64-1.48,1.44v5.88h12.6v4.28h-12.6v6c0,.8.64,1.44,1.48,1.44h11.96v4.48h-13.6c-2.72,0-4.68-1.96-4.68-4.68Z"/><path class="cls-1" d="M187.71,1.2h8.48c5.56,0,9.2,2.8,9.2,8.16,0,4.88-2.68,7.4-6.96,8l7.8,11.84h-3.12l-7.6-11.68h-5.16v11.68h-2.64V1.2ZM196.1,15.2c3.92,0,6.56-1.72,6.56-5.8,0-3.84-2.64-5.88-6.56-5.88h-5.76v11.68h5.76Z"/><path class="cls-1" d="M222.82,27.08c-1.04,1.64-3.04,2.52-5.88,2.52-4.52,0-7.32-2.24-7.32-5.6s2.76-5.76,7.56-5.76c2.32,0,4.08.56,5.28,1.6v-3.04c0-3.28-1.68-4.8-4.84-4.8-2.08,0-4.48.76-6.08,2.4l-1.24-1.76c1.68-2,4.6-2.96,7.4-2.96,4.36,0,7.28,2.32,7.28,7.08v6.08c0,2.12.04,4.24.12,6.36h-2.28v-2.12ZM217.38,27.64c3.2,0,5.08-1.48,5.08-3.68s-1.84-3.64-5.08-3.64-5.2,1.44-5.2,3.64,2,3.68,5.2,3.68Z"/><path class="cls-1" d="M231.59,10.08h2.44v3.4c1.52-2.88,4.44-3.8,6.6-3.8,4.28,0,7.32,2.72,7.32,8.36v11.16h-2.56v-10.84c0-4.48-2.28-6.32-5.32-6.32-3.2,0-5.92,2.16-5.92,6.36v10.8h-2.56V10.08Z"/><path class="cls-1" d="M252.91,19.88v-.48c0-5.76,4.12-9.72,9.72-9.72,2.76,0,5.08,1.04,6.64,2.8l-1.56,1.64c-1.32-1.36-2.96-2.08-5.08-2.08-4.16,0-7.2,2.96-7.2,7.36v.48c0,4.4,3.04,7.36,7.24,7.36,2.08,0,3.72-.68,5.08-2.04l1.56,1.6c-1.56,1.8-3.92,2.8-6.68,2.8-5.64,0-9.72-4-9.72-9.72Z"/><path class="cls-1" d="M274.39,0h2.44v13.48c1.52-2.88,4.44-3.8,6.6-3.8,4.28,0,7.32,2.72,7.32,8.36v11.16h-2.56v-10.84c0-4.48-2.28-6.32-5.32-6.32-3.2,0-5.92,2.16-5.92,6.36v10.8h-2.56V0Z"/><path class="cls-1" d="M295.71,19.72v-.4c0-5.56,3.56-9.64,8.88-9.64s8.64,4.28,7.92,10.64h-14.28c.28,4.08,3,6.92,7.12,6.92,2.04,0,3.76-.52,4.92-1.56l1.44,1.64c-1.4,1.44-3.8,2.28-6.48,2.28-5.64,0-9.52-4.04-9.52-9.88ZM310.1,18.2c.08-3.92-2.24-6.28-5.52-6.28-3.56,0-5.92,2.48-6.32,6.28h11.84Z"/><path class="cls-1" d="M317.15,10.08h2.48v3.16c.92-2.48,3-3.2,5.36-3.2h1.68v2.48h-1.88c-3.2,0-5.08,1.6-5.08,5.08v11.6h-2.56V10.08Z"/><path class="cls-1" d="M359.62,16h-16.24v13.2h-2.68V1.2h2.68v12.36h16.24V1.2h2.68v28h-2.68v-13.2Z"/><path class="cls-1" d="M367.91,19.72v-.32c0-5.72,3.96-9.72,9.36-9.72s9.32,4,9.32,9.6v.44c0,5.8-3.92,9.88-9.32,9.88s-9.36-4.08-9.36-9.88ZM377.26,27.32c4,0,6.8-3.12,6.8-7.6v-.44c0-4.28-2.8-7.32-6.8-7.32s-6.8,3.08-6.8,7.44v.32c0,4.48,2.8,7.6,6.8,7.6Z"/><path class="cls-1" d="M389.83,27.2l1.16-1.76c1.4,1.24,3.56,2.08,5.68,2.08,2.6,0,4.4-1.36,4.4-3.32,0-5.04-10.56-1.84-10.56-8.92,0-3.28,2.68-5.6,6.76-5.6,2.36,0,4.48.8,6.04,2l-1.2,1.76c-1.32-1.04-3-1.72-4.88-1.72-2.52,0-4.28,1.4-4.28,3.36,0,4.92,10.64,1.84,10.64,8.96,0,3.28-2.84,5.52-6.92,5.52-2.72,0-5.32-.92-6.84-2.36Z"/><path class="cls-1" d="M408.83,24.36v-12.04h-3.6v-2.24h3.6v-4.76h2.52v4.76h5.28v2.24h-5.28v12.2c0,1.4,1.04,2.48,2.44,2.48h2.84v2.2h-2.84c-2.56,0-4.96-1.48-4.96-4.84Z"/><path class="cls-1" d="M419.15,19.72v-.4c0-5.56,3.56-9.64,8.88-9.64s8.64,4.28,7.92,10.64h-14.28c.28,4.08,3,6.92,7.12,6.92,2.04,0,3.76-.52,4.92-1.56l1.44,1.64c-1.4,1.44-3.8,2.28-6.48,2.28-5.64,0-9.52-4.04-9.52-9.88ZM433.54,18.2c.08-3.92-2.24-6.28-5.52-6.28-3.56,0-5.92,2.48-6.32,6.28h11.84Z"/><path class="cls-1" d="M439.1,19.72v-.36c0-5.68,3.76-9.68,8.96-9.68,3.08,0,5.6,1.56,7.04,4.04V0h2.56v29.2h-2.32v-3.96c-1.48,2.68-4.12,4.36-7.28,4.36-5.24,0-8.96-4-8.96-9.88ZM448.38,27.32c3.96,0,6.88-3.08,6.88-7.68s-2.92-7.68-6.88-7.68-6.72,3-6.72,7.4v.36c0,4.56,2.8,7.6,6.72,7.6Z"/></g></svg>