<?xml version="1.0" encoding="UTF-8"?><svg id="Layer_2" xmlns="http://www.w3.org/2000/svg" viewBox="0 0 246.2 121.97"><defs><style>.cls-1{fill:#fff;}.cls-2{fill:#42b177;}</style></defs><g id="Layer_1-2"><g id="Layer_1-3"><path class="cls-2" d="M87.28,14.07c-.58-.6-1.53-.6-2.11,0-.65.65-.57,1.77.23,2.31.49.33,1.15.33,1.64,0,.81-.54.89-1.66.23-2.31M85.35,8.98c-3.99-.94-7.58,2.65-6.64,6.65.47,2.03,2.09,3.65,4.12,4.12,3.99.94,7.58-2.65,6.65-6.65-.48-2.03-2.09-3.65-4.13-4.12M58.97,31.47c-2.6-.96-3.61-.77-6.94-.72-2.31.03-2.39-.05-5.02-.05-.81,0-1.11,3.9,1.83,4.71,1.29.36,2.68.58,3.65,1.57.43.44.67,1.1-.32,1.1h-7.3c-1.28,0-2.49.03-3.46-.8-1.48-1.25-2.16-2.96-2.9-4.66-.77-1.77-1.59-3.51-2.56-5.18-1.93-3.32-4.48-6.32-7.9-8.15-4.27-2.29-11.52-3.43-17.26.98-6.05,4.65-4.75,13.35.54,17.61,2.09,1.68,4.81,2.39,7.49,2.23,5.23-.31,9.09-4.16,8.13-8.91-.32-1.59-1.25-3.09-2.64-3.91-.99-.58-2.17-.79-3.32-.79-1.24,0-2.55.25-3.44,1.11-1.05,1.02-1.22,2.81-.38,4.02.47.66,1.22,1.22,1.09,2.09-.09.59-.57,1.02-1.15,1.15-.98.22-1.88-.34-2.54-1.02-1.7-1.75-2.24-4.54-1.3-6.8,1.22-2.95,4.63-4.58,7.82-4.47,4.12.14,8,2.86,9.69,6.62,1.69,3.76,1.18,8.38-1.14,11.78-5.17,7.56-17.95,6.67-23.89.29C2.02,37.25,0,33.37.28,26.14c.2-5.11,3.15-10.14,6.9-13.68C13.31,6.69,21.37,2.75,29.57,1.04,34.56.01,39.7-.23,44.76.28c4.46.44,8.9,1.26,13.18,2.59,2.13.66,4.22,1.45,6.25,2.38,1.79.82,4.13,1.71,5.52,3.13,0-2.56-.1-5.38-.1-7.34,0-.75.79-1.26,1.46-.94,2.9,1.35,9.77,4.59,14.36,6.69,6.14,2.81,6.58,9.43,6.79,15.3,0,.13.01.27-.05.38-.19.4-1.23.29-1.61.3-.73,0-1.84,0-2.58.03-1.47.07-2.9.04-4.36-.03-2.71-.13-5.33-1.34-7.09-2.81-.17-.15-.74-.31-1.01-.03-.28.29-.18.73-.03.89,1.01,1.02,2.1,1.67,3.37,2.33,1.61.83,3.37,1.04,5.16,1.14,1.91.11,3.83.09,5.74-.11,1.59-.16,2-.27.43.9-1.38,1.02-2.98,1.76-4.6,2.31-2.33.79-4.79,1.18-7.24,1.25-1.49.04-2.98-.04-4.45-.23-.76-.09-1.52-.23-2.29-.31-.62-.06-1.27-.18-1.89-.05-.56.12-1.08.43-1.44.89-.49.63-.65,2.37-.37,3.13.54,1.46,1.73,2.31,2.99,3.06,1.36.81,3.16,1.09,3.5,2.64.07.32-2.82.33-3.15.32h-3.85s-2.1.05-2.91-.25c-.03,0-.05-.02-.07-.03-.44-.24-.64-.83-.79-1.28-.22-.63-.59-1.27-1.05-1.93-.87-1.24-2.21-2.6-3.6-3.12M88.16,14.37c0,2.26-1.83,4.09-4.09,4.09s-4.09-1.83-4.09-4.09,1.83-4.09,4.09-4.09,4.09,1.83,4.09,4.09"/></g><path class="cls-1" d="M0,77.89l3.04-3.04c2.16,2.2,4.16,3.12,6.52,3.12,3.16,0,5.04-1.6,5.04-3.96,0-6.44-13.96-2.8-13.96-12.48,0-5.2,3.88-8.52,9.76-8.52,3.6,0,6.6,1.4,8.48,3.52l-3.12,3.12c-1.6-1.64-3.24-2.48-5.36-2.48-2.96,0-4.88,1.52-4.88,3.88,0,6.08,14.08,2.12,14.08,12.24,0,5.36-4.12,8.84-10.2,8.84-4.2,0-7.24-1.68-9.4-4.24Z"/><path class="cls-1" d="M24.08,71.89v-18.32h4.92v17.92c0,4.08,2.36,6.08,5.96,6.08s5.92-2,5.92-6.08v-17.92h4.92v18.32c0,6.84-4.32,10.24-10.84,10.24s-10.88-3.4-10.88-10.24Z"/><path class="cls-1" d="M50.28,77.89l3.04-3.04c2.16,2.2,4.16,3.12,6.52,3.12,3.16,0,5.04-1.6,5.04-3.96,0-6.44-13.96-2.8-13.96-12.48,0-5.2,3.88-8.52,9.76-8.52,3.6,0,6.6,1.4,8.48,3.52l-3.12,3.12c-1.6-1.64-3.24-2.48-5.36-2.48-2.96,0-4.88,1.52-4.88,3.88,0,6.08,14.08,2.12,14.08,12.24,0,5.36-4.12,8.84-10.2,8.84-4.2,0-7.24-1.68-9.4-4.24Z"/><path class="cls-1" d="M74.04,76.89v-18.64c0-2.72,1.96-4.68,4.68-4.68h13.6v4.48h-11.96c-.84,0-1.48.64-1.48,1.44v5.88h12.6v4.28h-12.6v6c0,.8.64,1.44,1.48,1.44h11.96v4.48h-13.6c-2.72,0-4.68-1.96-4.68-4.68Z"/><path class="cls-1" d="M107.24,53.58h8.48c5.56,0,9.2,2.8,9.2,8.16,0,4.88-2.68,7.4-6.96,8l7.8,11.84h-3.12l-7.6-11.68h-5.16v11.68h-2.64v-28ZM115.64,67.57c3.92,0,6.56-1.72,6.56-5.8,0-3.84-2.64-5.88-6.56-5.88h-5.76v11.68h5.76Z"/><path class="cls-1" d="M142.36,79.45c-1.04,1.64-3.04,2.52-5.88,2.52-4.52,0-7.32-2.24-7.32-5.6s2.76-5.76,7.56-5.76c2.32,0,4.08.56,5.28,1.6v-3.04c0-3.28-1.68-4.8-4.84-4.8-2.08,0-4.48.76-6.08,2.4l-1.24-1.76c1.68-2,4.6-2.96,7.4-2.96,4.36,0,7.28,2.32,7.28,7.08v6.08c0,2.12.04,4.24.12,6.36h-2.28v-2.12ZM136.92,80.01c3.2,0,5.08-1.48,5.08-3.68s-1.84-3.64-5.08-3.64-5.2,1.44-5.2,3.64,2,3.68,5.2,3.68Z"/><path class="cls-1" d="M151.12,62.45h2.44v3.4c1.52-2.88,4.44-3.8,6.6-3.8,4.28,0,7.32,2.72,7.32,8.36v11.16h-2.56v-10.84c0-4.48-2.28-6.32-5.32-6.32-3.2,0-5.92,2.16-5.92,6.36v10.8h-2.56v-19.12Z"/><path class="cls-1" d="M172.44,72.25v-.48c0-5.76,4.12-9.72,9.72-9.72,2.76,0,5.08,1.04,6.64,2.8l-1.56,1.64c-1.32-1.36-2.96-2.08-5.08-2.08-4.16,0-7.2,2.96-7.2,7.36v.48c0,4.4,3.04,7.36,7.24,7.36,2.08,0,3.72-.68,5.08-2.04l1.56,1.6c-1.56,1.8-3.92,2.8-6.68,2.8-5.64,0-9.72-4-9.72-9.72Z"/><path class="cls-1" d="M193.92,52.38h2.44v13.48c1.52-2.88,4.44-3.8,6.6-3.8,4.28,0,7.32,2.72,7.32,8.36v11.16h-2.56v-10.84c0-4.48-2.28-6.32-5.32-6.32-3.2,0-5.92,2.16-5.92,6.36v10.8h-2.56v-29.2Z"/><path class="cls-1" d="M215.24,72.09v-.4c0-5.56,3.56-9.64,8.88-9.64s8.64,4.28,7.92,10.64h-14.28c.28,4.08,3,6.92,7.12,6.92,2.04,0,3.76-.52,4.92-1.56l1.44,1.64c-1.4,1.44-3.8,2.28-6.48,2.28-5.64,0-9.52-4.04-9.52-9.88ZM229.63,70.57c.08-3.92-2.24-6.28-5.52-6.28-3.56,0-5.92,2.48-6.32,6.28h11.84Z"/><path class="cls-1" d="M236.68,62.45h2.48v3.16c.92-2.48,3-3.2,5.36-3.2h1.68v2.48h-1.88c-3.2,0-5.08,1.6-5.08,5.08v11.6h-2.56v-19.12Z"/><path class="cls-1" d="M21.44,108.37H5.2v13.2h-2.68v-28h2.68v12.36h16.24v-12.36h2.68v28h-2.68v-13.2Z"/><path class="cls-1" d="M29.72,112.09v-.32c0-5.72,3.96-9.72,9.36-9.72s9.32,4,9.32,9.6v.44c0,5.8-3.92,9.88-9.32,9.88s-9.36-4.08-9.36-9.88ZM39.08,119.69c4,0,6.8-3.12,6.8-7.6v-.44c0-4.28-2.8-7.32-6.8-7.32s-6.8,3.08-6.8,7.44v.32c0,4.48,2.8,7.6,6.8,7.6Z"/><path class="cls-1" d="M51.64,119.57l1.16-1.76c1.4,1.24,3.56,2.08,5.68,2.08,2.6,0,4.4-1.36,4.4-3.32,0-5.04-10.56-1.84-10.56-8.92,0-3.28,2.68-5.6,6.76-5.6,2.36,0,4.48.8,6.04,2l-1.2,1.76c-1.32-1.04-3-1.72-4.88-1.72-2.52,0-4.28,1.4-4.28,3.36,0,4.92,10.64,1.84,10.64,8.96,0,3.28-2.84,5.52-6.92,5.52-2.72,0-5.32-.92-6.84-2.36Z"/><path class="cls-1" d="M70.64,116.73v-12.04h-3.6v-2.24h3.6v-4.76h2.52v4.76h5.28v2.24h-5.28v12.2c0,1.4,1.04,2.48,2.44,2.48h2.84v2.2h-2.84c-2.56,0-4.96-1.48-4.96-4.84Z"/><path class="cls-1" d="M80.96,112.09v-.4c0-5.56,3.56-9.64,8.88-9.64s8.64,4.28,7.92,10.64h-14.28c.28,4.08,3,6.92,7.12,6.92,2.04,0,3.76-.52,4.92-1.56l1.44,1.64c-1.4,1.44-3.8,2.28-6.48,2.28-5.64,0-9.52-4.04-9.52-9.88ZM95.36,110.57c.08-3.92-2.24-6.28-5.52-6.28-3.56,0-5.92,2.48-6.32,6.28h11.84Z"/><path class="cls-1" d="M100.92,112.09v-.36c0-5.68,3.76-9.68,8.96-9.68,3.08,0,5.6,1.56,7.04,4.04v-13.72h2.56v29.2h-2.32v-3.96c-1.48,2.68-4.12,4.36-7.28,4.36-5.24,0-8.96-4-8.96-9.88ZM110.2,119.69c3.96,0,6.88-3.08,6.88-7.68s-2.92-7.68-6.88-7.68-6.72,3-6.72,7.4v.36c0,4.56,2.8,7.6,6.72,7.6Z"/></g></svg>