<?xml version="1.0" encoding="UTF-8"?>
<svg id="Layer_1" data-name="Layer 1" xmlns="http://www.w3.org/2000/svg" viewBox="0 0 400 116.38">
  <defs>
    <style>
      .cls-1 {
        fill: #fff;
      }
    </style>
  </defs>
  <g>
    <g>
      <path class="cls-1" d="M106.14,52.36l2.95-2.95c2.09,2.13,4.03,3.03,6.32,3.03,3.06,0,4.89-1.55,4.89-3.84,0-6.24-13.54-2.71-13.54-12.1,0-5.04,3.76-8.26,9.46-8.26,3.49,0,6.4,1.36,8.22,3.41l-3.03,3.03c-1.55-1.59-3.14-2.41-5.2-2.41-2.87,0-4.73,1.47-4.73,3.76,0,5.9,13.65,2.06,13.65,11.87,0,5.2-3.99,8.57-9.89,8.57-4.07,0-7.02-1.63-9.12-4.11Z"/>
      <path class="cls-1" d="M129.49,46.54v-17.77h4.77v17.38c0,3.96,2.29,5.9,5.78,5.9s5.74-1.94,5.74-5.9v-17.38h4.77v17.77c0,6.63-4.19,9.93-10.51,9.93s-10.55-3.3-10.55-9.93Z"/>
      <path class="cls-1" d="M154.89,52.36l2.95-2.95c2.09,2.13,4.03,3.03,6.32,3.03,3.06,0,4.89-1.55,4.89-3.84,0-6.24-13.54-2.71-13.54-12.1,0-5.04,3.76-8.26,9.46-8.26,3.49,0,6.4,1.36,8.22,3.41l-3.03,3.03c-1.55-1.59-3.14-2.41-5.2-2.41-2.87,0-4.73,1.47-4.73,3.76,0,5.9,13.65,2.06,13.65,11.87,0,5.2-3.99,8.57-9.89,8.57-4.07,0-7.02-1.63-9.12-4.11Z"/>
      <path class="cls-1" d="M177.93,51.39v-18.08c0-2.64,1.9-4.54,4.54-4.54h13.19v4.34h-11.6c-.81,0-1.44.62-1.44,1.4v5.7h12.22v4.15h-12.22v5.82c0,.78.62,1.4,1.44,1.4h11.6v4.34h-13.19c-2.64,0-4.54-1.9-4.54-4.54Z"/>
      <path class="cls-1" d="M208.56,42.67v-.62c0-8.15,6.13-13.85,13.81-13.85,3.37,0,6.28,1.05,8.53,2.91l-2.09,2.48c-1.71-1.4-3.92-2.17-6.44-2.17-5.9,0-10.43,4.38-10.43,10.63v.62c0,6.25,4.54,10.63,10.43,10.63,2.56,0,4.81-.81,6.56-2.29l2.1,2.52c-2.29,1.9-5.28,2.99-8.65,2.99-7.68,0-13.81-5.7-13.81-13.85Z"/>
      <path class="cls-1" d="M235.71,48.64v-11.37h3.1v10.82c0,4,2.02,5.35,4.69,5.35,2.83,0,5.16-1.86,5.16-5.62v-10.55h3.1v18.66h-2.72v-2.91c-1.55,2.52-4.15,3.3-6.17,3.3-4.11,0-7.18-2.33-7.18-7.68Z"/>
      <path class="cls-1" d="M256.11,53.99l1.4-2.17c1.4,1.2,3.41,1.98,5.43,1.98,2.29,0,3.88-1.16,3.88-2.87,0-4.42-10.01-1.51-10.01-8.46,0-3.26,2.68-5.59,6.79-5.59,2.37,0,4.5.78,6.05,1.9l-1.4,2.17c-1.32-1.01-2.95-1.59-4.69-1.59-2.25,0-3.76,1.16-3.76,2.87,0,4.34,10.12,1.55,10.12,8.53,0,3.26-2.87,5.51-6.98,5.51-2.75,0-5.31-.93-6.83-2.29Z"/>
      <path class="cls-1" d="M274.84,50.97v-10.98h-3.37v-2.72h3.37v-4.62h3.14v4.62h4.89v2.72h-4.89v11.17c0,1.2.89,2.09,2.06,2.09h2.83v2.68h-2.87c-2.56,0-5.16-1.36-5.16-4.96Z"/>
      <path class="cls-1" d="M285.24,46.7v-.35c0-5.55,3.96-9.46,9.31-9.46s9.23,3.92,9.23,9.39v.43c0,5.66-3.92,9.62-9.23,9.62s-9.31-3.96-9.31-9.62ZM294.55,53.53c3.61,0,6.13-2.79,6.13-6.83v-.43c0-3.88-2.52-6.59-6.13-6.59s-6.17,2.75-6.17,6.67v.35c0,4.03,2.52,6.83,6.17,6.83Z"/>
      <path class="cls-1" d="M308.54,37.27h3.03v2.91c1.44-2.48,3.84-3.3,5.9-3.3,2.72,0,4.81,1.2,5.9,3.65,1.55-2.79,4.34-3.65,6.4-3.65,4.07,0,6.87,2.6,6.87,7.95v11.09h-3.1v-10.71c0-3.84-1.78-5.47-4.5-5.47s-4.85,1.94-4.85,5.47v10.71h-3.14v-10.71c0-3.84-1.78-5.47-4.46-5.47s-4.89,1.94-4.89,5.47v10.71h-3.14v-18.66Z"/>
      <path class="cls-1" d="M341.24,46.7v-.39c0-5.39,3.49-9.43,8.73-9.43s8.65,4.23,7.91,10.67h-13.5c.35,3.45,2.71,5.9,6.36,5.9,1.94,0,3.45-.47,4.58-1.47l1.78,1.94c-1.44,1.55-3.8,2.41-6.52,2.41-5.55,0-9.35-3.92-9.35-9.62ZM354.89,44.99c-.04-3.41-2.02-5.39-4.89-5.39-3.14,0-5.16,2.13-5.59,5.39h10.47Z"/>
      <path class="cls-1" d="M361.95,37.27h3.06v2.99c.89-2.37,2.87-3.06,5.16-3.06h1.59v3.1h-1.86c-3.03,0-4.81,1.47-4.81,4.58v11.05h-3.14v-18.66Z"/>
    </g>
    <g>
      <path class="cls-1" d="M106.5,63.7h5.76c3.77,0,6.25,1.9,6.25,5.54,0,3.31-1.82,5.02-4.72,5.43l5.29,8.04h-2.12l-5.16-7.93h-3.5v7.93h-1.79v-19.01ZM112.2,73.21c2.66,0,4.45-1.17,4.45-3.94,0-2.61-1.79-3.99-4.45-3.99h-3.91v7.93h3.91Z"/>
      <path class="cls-1" d="M120.89,76.27v-.27c0-3.77,2.42-6.54,6.03-6.54s5.87,2.91,5.38,7.22h-9.69c.19,2.77,2.04,4.7,4.83,4.7,1.39,0,2.55-.35,3.34-1.06l.98,1.11c-.95.98-2.58,1.55-4.4,1.55-3.83,0-6.46-2.74-6.46-6.71ZM130.67,75.24c.05-2.66-1.52-4.26-3.75-4.26-2.42,0-4.02,1.68-4.29,4.26h8.04Z"/>
      <path class="cls-1" d="M139.35,62.89h2.15v1.49h-2.15c-.95,0-1.68.71-1.68,1.66v3.69h3.83v1.52h-3.83v11.46h-1.71v-11.46h-2.47v-1.52h2.47v-3.58c0-1.96,1.38-3.26,3.39-3.26Z"/>
      <path class="cls-1" d="M142.47,76.27v-.27c0-3.77,2.42-6.54,6.03-6.54s5.87,2.91,5.38,7.22h-9.69c.19,2.77,2.04,4.7,4.83,4.7,1.39,0,2.55-.35,3.34-1.06l.98,1.11c-.95.98-2.58,1.55-4.4,1.55-3.83,0-6.46-2.74-6.46-6.71ZM152.25,75.24c.05-2.66-1.52-4.26-3.75-4.26-2.42,0-4.02,1.68-4.29,4.26h8.04Z"/>
      <path class="cls-1" d="M157.02,69.73h1.68v2.15c.62-1.68,2.04-2.17,3.64-2.17h1.14v1.68h-1.28c-2.17,0-3.45,1.09-3.45,3.45v7.87h-1.74v-12.98Z"/>
      <path class="cls-1" d="M165.25,76.27v-.27c0-3.77,2.42-6.54,6.03-6.54s5.87,2.91,5.38,7.22h-9.69c.19,2.77,2.04,4.7,4.83,4.7,1.38,0,2.55-.35,3.34-1.06l.98,1.11c-.95.98-2.58,1.55-4.4,1.55-3.83,0-6.46-2.74-6.46-6.71ZM175.03,75.24c.05-2.66-1.52-4.26-3.75-4.26-2.42,0-4.02,1.68-4.29,4.26h8.04Z"/>
      <path class="cls-1" d="M179.8,69.73h1.66v2.31c1.03-1.96,3.01-2.58,4.48-2.58,2.91,0,4.97,1.85,4.97,5.68v7.58h-1.74v-7.36c0-3.04-1.55-4.29-3.61-4.29-2.17,0-4.02,1.47-4.02,4.32v7.33h-1.74v-12.98Z"/>
      <path class="cls-1" d="M194.27,76.38v-.33c0-3.91,2.8-6.6,6.6-6.6,1.87,0,3.45.71,4.51,1.9l-1.06,1.11c-.9-.92-2.01-1.41-3.45-1.41-2.82,0-4.89,2.01-4.89,5v.33c0,2.99,2.06,5,4.91,5,1.41,0,2.53-.46,3.45-1.38l1.06,1.09c-1.06,1.22-2.66,1.9-4.53,1.9-3.83,0-6.6-2.72-6.6-6.6Z"/>
      <path class="cls-1" d="M207.84,76.27v-.27c0-3.77,2.42-6.54,6.03-6.54s5.87,2.91,5.38,7.22h-9.69c.19,2.77,2.04,4.7,4.83,4.7,1.38,0,2.55-.35,3.34-1.06l.98,1.11c-.95.98-2.58,1.55-4.4,1.55-3.83,0-6.46-2.74-6.46-6.71ZM217.62,75.24c.05-2.66-1.52-4.26-3.75-4.26-2.42,0-4.02,1.68-4.29,4.26h8.04Z"/>
      <path class="cls-1" d="M229.4,63.7h5.65c3.69,0,6.19,2.06,6.19,5.59s-2.5,5.59-6.19,5.59h-3.86v7.82h-1.79v-19.01ZM235.13,73.34c2.55,0,4.32-1.55,4.32-4.05s-1.77-4.02-4.32-4.02h-3.94v8.06h3.94Z"/>
      <path class="cls-1" d="M244.09,69.73h1.68v2.15c.62-1.68,2.04-2.17,3.64-2.17h1.14v1.68h-1.28c-2.17,0-3.45,1.09-3.45,3.45v7.87h-1.74v-12.98Z"/>
      <path class="cls-1" d="M252.31,76.27v-.22c0-3.88,2.69-6.6,6.35-6.6s6.33,2.72,6.33,6.52v.3c0,3.94-2.66,6.71-6.33,6.71s-6.35-2.77-6.35-6.71ZM258.67,81.43c2.72,0,4.62-2.12,4.62-5.16v-.3c0-2.91-1.9-4.97-4.62-4.97s-4.62,2.09-4.62,5.05v.22c0,3.04,1.9,5.16,4.62,5.16Z"/>
      <path class="cls-1" d="M267.46,86.67h7.68c1.41,0,2.28-.73,2.28-1.98,0-1.17-.87-1.85-2.28-1.85h-4.21c-2.04,0-2.42-1.66-1.71-3.04l.92-1.79c-1.38-.81-2.2-2.15-2.2-3.8v-.24c0-2.63,2.25-4.51,5.46-4.51.27,0,.52,0,.76.03l1.38-2.82h1.74l-1.66,3.12c1.98.65,3.23,2.17,3.23,4.1v.33c0,2.72-2.25,4.64-5.46,4.64-.68,0-1.33-.08-1.9-.24l-.71,1.36c-.3.6-.35,1.47.79,1.47h3.77c2.23,0,3.69,1.14,3.69,3.26s-1.49,3.45-3.77,3.45h-7.82v-1.47ZM273.41,77.47c2.23,0,3.77-1.33,3.77-3.26v-.24c0-1.82-1.55-3.07-3.77-3.07s-3.77,1.3-3.77,3.12v.19c0,1.93,1.55,3.26,3.77,3.26Z"/>
      <path class="cls-1" d="M283.48,69.73h1.68v2.15c.62-1.68,2.04-2.17,3.64-2.17h1.14v1.68h-1.28c-2.17,0-3.45,1.09-3.45,3.45v7.87h-1.74v-12.98Z"/>
      <path class="cls-1" d="M300.83,81.27c-.71,1.11-2.06,1.71-3.99,1.71-3.07,0-4.97-1.52-4.97-3.8s1.87-3.91,5.13-3.91c1.58,0,2.77.38,3.58,1.09v-2.06c0-2.23-1.14-3.26-3.29-3.26-1.41,0-3.04.52-4.13,1.63l-.84-1.19c1.14-1.36,3.12-2.01,5.02-2.01,2.96,0,4.94,1.58,4.94,4.81v4.13c0,1.44.03,2.88.08,4.32h-1.55v-1.44ZM297.14,81.65c2.17,0,3.45-1,3.45-2.5s-1.25-2.47-3.45-2.47-3.53.98-3.53,2.47,1.36,2.5,3.53,2.5Z"/>
      <path class="cls-1" d="M306.77,69.73h1.66v2.25c1-1.9,2.74-2.53,4.26-2.53,2.01,0,3.53.9,4.26,2.8,1.03-2.12,3.01-2.8,4.56-2.8,2.85,0,4.75,1.79,4.75,5.59v7.66h-1.68v-7.44c0-2.96-1.38-4.21-3.45-4.21s-3.75,1.47-3.75,4.18v7.47h-1.71v-7.44c0-2.96-1.36-4.21-3.42-4.21s-3.77,1.47-3.77,4.18v7.47h-1.71v-12.98Z"/>
    </g>
  </g>
  <g id="Layer_1-2" data-name="Layer 1">
    <path class="cls-1" d="M93.21,38.59c-.43-.45-1.14-.45-1.58,0-.49.48-.43,1.32.18,1.72.37.25.86.24,1.23,0,.6-.4.66-1.24.17-1.72M91.77,34.8c-2.98-.7-5.66,1.98-4.96,4.96.35,1.52,1.56,2.72,3.08,3.08,2.98.7,5.66-1.98,4.96-4.96-.36-1.52-1.56-2.72-3.08-3.08M72.08,51.59c-1.94-.72-2.69-.57-5.18-.54-1.72.02-1.78-.04-3.75-.04-.61,0-.83,2.91,1.37,3.51.96.27,2,.43,2.72,1.17.32.33.5.82-.24.82h-5.45c-.96,0-1.86.02-2.59-.59-1.1-.93-1.62-2.21-2.17-3.48-.57-1.32-1.19-2.62-1.91-3.87-1.44-2.48-3.34-4.72-5.9-6.09-3.19-1.71-8.6-2.56-12.89.73-4.52,3.47-3.55,9.97.4,13.15,1.56,1.26,3.59,1.78,5.59,1.66,3.91-.23,6.79-3.11,6.07-6.65-.24-1.19-.93-2.31-1.97-2.92-.74-.43-1.62-.59-2.48-.59-.92,0-1.9.19-2.57.83-.78.76-.91,2.1-.29,3,.35.49.91.91.82,1.56-.07.44-.43.76-.86.86-.73.16-1.4-.25-1.9-.76-1.27-1.31-1.67-3.39-.97-5.08.91-2.21,3.46-3.42,5.84-3.34,3.08.1,5.98,2.13,7.24,4.94,1.26,2.81.88,6.26-.85,8.8-3.86,5.65-13.4,4.98-17.83.22-2.78-2.99-4.29-5.89-4.08-11.28.15-3.81,2.35-7.57,5.16-10.21,4.57-4.31,10.59-7.25,16.72-8.52,3.72-.77,7.56-.95,11.34-.57,3.33.33,6.64.94,9.84,1.93,1.59.49,3.15,1.08,4.66,1.78,1.33.61,3.08,1.28,4.12,2.34,0-1.91-.08-4.02-.08-5.48,0-.56.59-.94,1.09-.7,2.17,1.01,7.3,3.43,10.72,5,4.59,2.09,4.91,7.04,5.07,11.42,0,.1,0,.2-.04.29-.15.3-.92.22-1.2.22-.55,0-1.38,0-1.92.03-1.1.05-2.16.03-3.26-.03-2.03-.1-3.98-1-5.29-2.1-.13-.11-.55-.23-.75-.02-.21.21-.14.55-.02.66.75.76,1.57,1.25,2.51,1.74,1.21.62,2.52.77,3.85.85,1.43.08,2.86.06,4.29-.08,1.19-.12,1.49-.2.32.67-1.03.76-2.23,1.32-3.44,1.72-1.74.59-3.57.88-5.4.93-1.11.03-2.22-.03-3.32-.17-.57-.07-1.14-.18-1.71-.23-.46-.05-.95-.13-1.41-.03-.42.09-.81.32-1.07.66-.36.47-.49,1.77-.28,2.34.41,1.09,1.29,1.72,2.23,2.28,1.02.6,2.36.81,2.62,1.97.05.24-2.11.25-2.35.24h-2.88s-1.56.04-2.17-.18c-.02,0-.04-.02-.06-.02-.33-.18-.48-.62-.59-.96-.16-.47-.44-.95-.78-1.44-.65-.93-1.65-1.94-2.69-2.33M93.87,38.81c0,1.69-1.36,3.05-3.05,3.05s-3.05-1.37-3.05-3.05,1.37-3.05,3.05-3.05,3.05,1.37,3.05,3.05"/>
  </g>
</svg>