<?xml version="1.0" encoding="utf-8"?>
<!-- Generator: Adobe Illustrator 28.0.0, SVG Export Plug-In . SVG Version: 6.00 Build 0)  -->
<svg version="1.1" id="Layer_2_00000177473416404694260440000002246683798330047897_"
	 xmlns="http://www.w3.org/2000/svg" xmlns:xlink="http://www.w3.org/1999/xlink" x="0px" y="0px" viewBox="0 0 326.1 36.7"
	 style="enable-background:new 0 0 326.1 36.7;" xml:space="preserve">
<g id="Layer_1-2">
	<g id="Layer_1-3">
		<path d="M66.9,12.6c-0.4,0.2-0.9,0.2-1.3,0c-0.6-0.4-0.7-1.3-0.2-1.8c0.4-0.5,1.2-0.5,1.6,0C67.6,11.3,67.5,12.2,66.9,12.6
			 M68.7,10.1c0.7,3.1-2,5.8-5.1,5.1c-1.6-0.4-2.8-1.6-3.2-3.2c-0.7-3.1,2-5.8,5.1-5.1C67.1,7.3,68.3,8.5,68.7,10.1 M48,26.6
			c0.3,0.5,0.6,1,0.8,1.5c0.1,0.4,0.3,0.8,0.6,1c0,0,0,0,0.1,0c0.6,0.2,2.2,0.2,2.2,0.2h3c0.2,0,2.5,0,2.4-0.2
			c-0.3-1.2-1.7-1.4-2.7-2c-1-0.6-1.9-1.2-2.3-2.4c-0.2-0.6-0.1-1.9,0.3-2.4c0.3-0.4,0.7-0.6,1.1-0.7c0.5-0.1,1,0,1.5,0
			c0.6,0.1,1.2,0.2,1.8,0.2c1.1,0.1,2.3,0.2,3.4,0.2c1.9,0,3.8-0.4,5.6-1c1.2-0.4,2.5-1,3.5-1.8c1.2-0.9,0.9-0.8-0.3-0.7
			c-1.5,0.1-2.9,0.2-4.4,0.1c-1.4-0.1-2.7-0.2-4-0.9c-1-0.5-1.8-1-2.6-1.8c-0.1-0.1-0.2-0.5,0-0.7c0.2-0.2,0.6-0.1,0.8,0
			c1.3,1.1,3.4,2.1,5.5,2.2c1.1,0.1,2.2,0.1,3.4,0c0.6,0,1.4,0,2,0c0.3,0,1.1,0.1,1.2-0.2c0.1-0.1,0-0.2,0-0.3
			c-0.2-4.5-0.5-9.6-5.2-11.8c-3.5-1.6-8.8-4.1-11-5.2c-0.5-0.2-1.1,0.1-1.1,0.7c0,1.5,0.1,3.7,0.1,5.7c-1.1-1.1-2.9-1.8-4.2-2.4
			c-1.6-0.7-3.2-1.3-4.8-1.8c-3.3-1-6.7-1.6-10.1-2C30.4-0.2,26.4,0,22.6,0.8C16.3,2.1,10.1,5.2,5.4,9.6C2.4,12.3,0.2,16.2,0,20.1
			c-0.2,5.6,1.3,8.6,4.2,11.6c4.6,4.9,14.4,5.6,18.4-0.2c1.8-2.6,2.2-6.2,0.9-9.1c-1.3-2.9-4.3-5-7.5-5.1c-2.5-0.1-5.1,1.2-6,3.5
			c-0.7,1.7-0.3,3.9,1,5.2c0.5,0.5,1.2,1,2,0.8c0.4-0.1,0.8-0.4,0.9-0.9c0.1-0.7-0.5-1.1-0.8-1.6c-0.6-0.9-0.5-2.3,0.3-3.1
			c0.7-0.7,1.7-0.9,2.7-0.9c0.9,0,1.8,0.2,2.6,0.6c1.1,0.6,1.8,1.8,2,3c0.7,3.7-2.2,6.6-6.3,6.9c-2.1,0.1-4.2-0.4-5.8-1.7
			c-4.1-3.3-5.1-10-0.4-13.6c4.4-3.4,10-2.5,13.3-0.8c2.6,1.4,4.6,3.7,6.1,6.3c0.8,1.3,1.4,2.6,2,4c0.6,1.3,1.1,2.6,2.2,3.6
			c0.8,0.6,1.7,0.6,2.7,0.6H40c0.8,0,0.6-0.5,0.2-0.9c-0.8-0.8-1.8-0.9-2.8-1.2c-2.3-0.6-2-3.6-1.4-3.6c2,0,2.1,0.1,3.9,0
			c2.6,0,3.3-0.2,5.3,0.6C46.3,24.6,47.3,25.7,48,26.6"/>
	</g>
	<path d="M80.3,25l3-3c2.2,2.2,4.2,3.1,6.5,3.1c3.2,0,5-1.6,5-4c0-6.4-14-2.8-14-12.5c0-5.2,3.9-8.5,9.8-8.5c3.6,0,6.6,1.4,8.5,3.5
		l-3.1,3.1c-1.6-1.6-3.2-2.5-5.4-2.5c-3,0-4.9,1.5-4.9,3.9c0,6.1,14.1,2.1,14.1,12.2c0,5.4-4.1,8.8-10.2,8.8
		C85.5,29.3,82.5,27.6,80.3,25z"/>
	<path d="M104.4,19V0.7h4.9v17.9c0,4.1,2.4,6.1,6,6.1s5.9-2,5.9-6.1V0.7h4.9V19c0,6.8-4.3,10.2-10.8,10.2S104.4,25.9,104.4,19z"/>
	<path d="M130.6,25l3-3c2.2,2.2,4.2,3.1,6.5,3.1c3.2,0,5-1.6,5-4c0-6.4-14-2.8-14-12.5c0-5.2,3.9-8.5,9.8-8.5c3.6,0,6.6,1.4,8.5,3.5
		l-3.1,3.1c-1.6-1.6-3.2-2.5-5.4-2.5c-3,0-4.9,1.5-4.9,3.9c0,6.1,14.1,2.1,14.1,12.2c0,5.4-4.1,8.8-10.2,8.8
		C135.8,29.3,132.8,27.6,130.6,25L130.6,25z"/>
	<path d="M154.4,24V5.4c0-2.7,2-4.7,4.7-4.7h13.6v4.5h-12c-0.8,0-1.5,0.6-1.5,1.4v5.9h12.6v4.3h-12.6v6c0,0.8,0.6,1.4,1.5,1.4h12
		v4.5h-13.6C156.3,28.7,154.4,26.8,154.4,24z"/>
	<path d="M185.3,25.2l2.1-2.2c2,2.2,4.2,3.2,6.9,3.2c3.8,0,6.1-2,6.1-5c0-7.5-14.5-3.2-14.5-12.9c0-5,3.7-8.1,9.4-8.1
		c3.3,0,6,1.2,7.8,3.1l-2.2,2.2c-1.6-1.6-3.3-2.4-5.6-2.4c-3.6,0-5.9,2-5.9,4.9c0,7.1,14.6,2.6,14.6,12.7c0,5.2-4,8.4-9.7,8.4
		C190.2,29.2,187.3,27.7,185.3,25.2L185.3,25.2z"/>
	<path d="M207.3,19.2v-0.4c0-5.6,3.6-9.7,9-9.7s8.9,4.4,8.2,11h-13.9c0.4,3.6,2.8,6.1,6.6,6.1c2,0,3.6-0.5,4.7-1.5l1.8,2
		c-1.5,1.6-3.9,2.5-6.7,2.5C211.2,29.1,207.3,25.1,207.3,19.2z M221.4,17.4c0-3.5-2.1-5.6-5-5.6c-3.2,0-5.3,2.2-5.8,5.6H221.4
		L221.4,17.4z"/>
	<path d="M227.3,19.3v-0.5c0-5.8,4.2-9.8,9.9-9.8c2.8,0,5.2,1.1,6.8,3l-2,2c-1.2-1.3-2.8-2-4.8-2c-3.8,0-6.7,2.7-6.7,6.8v0.5
		c0,4.1,2.8,6.8,6.7,6.8c1.9,0,3.5-0.6,4.8-1.9l2,2c-1.6,1.9-4.1,3-6.8,3C231.4,29.1,227.3,25.1,227.3,19.3L227.3,19.3z"/>
	<path d="M248.5,21.2V9.5h3.2v11.2c0,4.1,2.1,5.5,4.8,5.5c2.9,0,5.3-1.9,5.3-5.8V9.5h3.2v19.2h-2.8v-3c-1.6,2.6-4.3,3.4-6.4,3.4
		C251.6,29.1,248.5,26.7,248.5,21.2L248.5,21.2z"/>
	<path d="M271.4,9.5h3.2v3.1c0.9-2.4,3-3.2,5.3-3.2h1.6v3.2h-1.9c-3.1,0-5,1.5-5,4.7v11.4h-3.2L271.4,9.5L271.4,9.5z"/>
	<path d="M286.9,12.3h-3.7V9.5h6.9v19.2h-3.2V12.3z M286.8,0.6h3.5v4.6h-3.5V0.6z"/>
	<path d="M297.3,23.6V12.3h-3.5V9.5h3.5V4.7h3.2v4.8h5v2.8h-5v11.5c0,1.2,0.9,2.2,2.1,2.2h2.9v2.8h-3
		C299.9,28.7,297.3,27.3,297.3,23.6z"/>
	<path d="M307.7,34h3.8c1.2,0,1.8-0.9,2.2-2l1.4-3.1l-8-19.4h3.6l6.1,15.5l5.8-15.5h3.6l-9.2,22.6c-0.9,2.2-2.2,4.6-5.6,4.6h-3.6
		L307.7,34L307.7,34z"/>
</g>
</svg>
