<?xml version="1.0" encoding="UTF-8"?><svg id="Layer_2" xmlns="http://www.w3.org/2000/svg" viewBox="0 0 326.15 36.72"><defs><style>.cls-1{fill:#30ba78;}.cls-2{fill:#efefef;}</style></defs><g id="Layer_1-2"><g id="Layer_1-3"><path class="cls-1" d="M67.08,10.84c-.45-.46-1.18-.46-1.63,0-.5.5-.44,1.37.18,1.78.38.25.89.25,1.27,0,.62-.41.68-1.28.18-1.78M65.59,6.93c-3.08-.72-5.85,2.04-5.12,5.12.37,1.57,1.61,2.81,3.18,3.18,3.08.72,5.85-2.05,5.12-5.12-.37-1.57-1.61-2.81-3.18-3.18M45.26,24.26c-2.01-.74-2.78-.59-5.35-.56-1.78.02-1.84-.04-3.87-.04-.63,0-.86,3,1.41,3.63.99.27,2.07.45,2.81,1.21.33.34.52.85-.25.85h-5.63c-.99,0-1.92.02-2.67-.61-1.14-.96-1.67-2.28-2.24-3.6-.59-1.36-1.23-2.71-1.97-3.99-1.49-2.56-3.45-4.87-6.09-6.28-3.29-1.77-8.88-2.64-13.31.76-4.66,3.58-3.66,10.29.42,13.57,1.61,1.3,3.71,1.84,5.78,1.72,4.03-.24,7.01-3.21,6.27-6.87-.25-1.23-.96-2.38-2.04-3.02-.77-.45-1.67-.61-2.56-.61-.95,0-1.97.2-2.65.86-.81.78-.94,2.17-.29,3.1.36.51.94.94.84,1.61-.07.45-.44.79-.89.89-.76.17-1.45-.26-1.96-.79-1.31-1.35-1.72-3.5-1-5.24.94-2.28,3.57-3.53,6.03-3.45,3.18.11,6.17,2.2,7.47,5.1,1.3,2.9.91,6.46-.88,9.08-3.99,5.83-13.84,5.14-18.41.22C1.36,28.72-.2,25.72.02,20.15c.15-3.94,2.43-7.82,5.32-10.55C10.06,5.16,16.28,2.12,22.6.8,26.44.01,30.41-.18,34.31.21c3.44.34,6.86.97,10.16,2,1.64.51,3.25,1.12,4.81,1.83,1.38.63,3.18,1.32,4.25,2.41,0-1.98-.08-4.15-.08-5.66,0-.58.61-.97,1.13-.72,2.24,1.04,7.53,3.54,11.07,5.16,4.74,2.16,5.07,7.27,5.24,11.79,0,.1,0,.21-.04.29-.15.31-.95.23-1.24.23-.57,0-1.42,0-1.99.03-1.13.05-2.23.03-3.36-.03-2.09-.1-4.11-1.03-5.47-2.17-.13-.11-.57-.24-.78-.02-.21.22-.14.57-.02.68.78.78,1.62,1.29,2.6,1.8,1.24.64,2.6.8,3.97.88,1.47.09,2.95.07,4.42-.09,1.23-.12,1.54-.21.33.69-1.06.79-2.3,1.36-3.55,1.78-1.79.61-3.69.91-5.58.96-1.15.03-2.29-.03-3.43-.18-.59-.07-1.17-.18-1.76-.24-.48-.05-.98-.14-1.45-.04-.43.09-.83.33-1.11.68-.37.49-.5,1.83-.29,2.41.42,1.13,1.34,1.78,2.3,2.36,1.05.62,2.43.84,2.7,2.03.06.25-2.18.26-2.43.25h-2.97s-1.62.04-2.24-.19c-.02,0-.04-.02-.06-.02-.34-.18-.49-.64-.61-.99-.17-.49-.46-.98-.81-1.48-.67-.96-1.7-2-2.78-2.4M67.76,11.07c0,1.74-1.41,3.15-3.15,3.15s-3.15-1.41-3.15-3.15,1.41-3.15,3.15-3.15,3.15,1.41,3.15,3.15"/></g><path class="cls-2" d="M80.39,25.04l3.04-3.04c2.16,2.2,4.16,3.12,6.52,3.12,3.16,0,5.04-1.6,5.04-3.96,0-6.44-13.96-2.8-13.96-12.48,0-5.2,3.88-8.52,9.76-8.52,3.6,0,6.6,1.4,8.48,3.52l-3.12,3.12c-1.6-1.64-3.24-2.48-5.36-2.48-2.96,0-4.88,1.52-4.88,3.88,0,6.08,14.08,2.12,14.08,12.24,0,5.36-4.12,8.84-10.2,8.84-4.2,0-7.24-1.68-9.4-4.24Z"/><path class="cls-2" d="M104.47,19.04V.73h4.92v17.92c0,4.08,2.36,6.08,5.96,6.08s5.92-2,5.92-6.08V.73h4.92v18.32c0,6.84-4.32,10.24-10.84,10.24s-10.88-3.4-10.88-10.24Z"/><path class="cls-2" d="M130.67,25.04l3.04-3.04c2.16,2.2,4.16,3.12,6.52,3.12,3.16,0,5.04-1.6,5.04-3.96,0-6.44-13.96-2.8-13.96-12.48,0-5.2,3.88-8.52,9.76-8.52,3.6,0,6.6,1.4,8.48,3.52l-3.12,3.12c-1.6-1.64-3.24-2.48-5.36-2.48-2.96,0-4.88,1.52-4.88,3.88,0,6.08,14.08,2.12,14.08,12.24,0,5.36-4.12,8.84-10.2,8.84-4.2,0-7.24-1.68-9.4-4.24Z"/><path class="cls-2" d="M154.43,24.04V5.41c0-2.72,1.96-4.68,4.68-4.68h13.6v4.48h-11.96c-.84,0-1.48.64-1.48,1.44v5.88h12.6v4.28h-12.6v6c0,.8.64,1.44,1.48,1.44h11.96v4.48h-13.6c-2.72,0-4.68-1.96-4.68-4.68Z"/><path class="cls-2" d="M185.31,25.24l2.12-2.16c1.96,2.2,4.2,3.2,6.88,3.2,3.76,0,6.08-2.04,6.08-5.04,0-7.48-14.52-3.2-14.52-12.88,0-4.96,3.68-8.12,9.36-8.12,3.32,0,6.04,1.2,7.8,3.12l-2.2,2.2c-1.56-1.6-3.32-2.4-5.64-2.4-3.56,0-5.92,1.96-5.92,4.88,0,7.12,14.6,2.56,14.6,12.72,0,5.16-3.96,8.44-9.68,8.44-3.92,0-6.88-1.52-8.88-3.96Z"/><path class="cls-2" d="M207.35,19.2v-.4c0-5.56,3.6-9.72,9-9.72s8.92,4.36,8.16,11h-13.92c.36,3.56,2.8,6.08,6.56,6.08,2,0,3.56-.48,4.72-1.52l1.84,2c-1.48,1.6-3.92,2.48-6.72,2.48-5.72,0-9.64-4.04-9.64-9.92ZM221.43,17.44c-.04-3.52-2.08-5.56-5.04-5.56-3.24,0-5.32,2.2-5.76,5.56h10.8Z"/><path class="cls-2" d="M227.31,19.32v-.48c0-5.76,4.2-9.76,9.88-9.76,2.76,0,5.2,1.08,6.76,2.96l-2,2c-1.2-1.28-2.8-1.96-4.76-1.96-3.84,0-6.68,2.68-6.68,6.76v.48c0,4.08,2.84,6.8,6.72,6.8,1.92,0,3.52-.6,4.84-1.92l1.96,1.96c-1.6,1.88-4.08,2.96-6.84,2.96-5.72,0-9.88-4.04-9.88-9.8Z"/><path class="cls-2" d="M248.51,21.2v-11.72h3.2v11.16c0,4.12,2.08,5.52,4.84,5.52,2.92,0,5.32-1.92,5.32-5.8v-10.88h3.2v19.24h-2.8v-3c-1.6,2.6-4.28,3.4-6.36,3.4-4.24,0-7.4-2.4-7.4-7.92Z"/><path class="cls-2" d="M271.43,9.49h3.16v3.08c.92-2.44,2.96-3.16,5.32-3.16h1.64v3.2h-1.92c-3.12,0-4.96,1.52-4.96,4.72v11.4h-3.24V9.49Z"/><path class="cls-2" d="M286.99,12.29h-3.72v-2.8h6.92v19.24h-3.2V12.29ZM286.87.61h3.52v4.64h-3.52V.61Z"/><path class="cls-2" d="M297.31,23.6v-11.32h-3.48v-2.8h3.48v-4.76h3.24v4.76h5.04v2.8h-5.04v11.52c0,1.24.92,2.16,2.12,2.16h2.92v2.76h-2.96c-2.64,0-5.32-1.4-5.32-5.12Z"/><path class="cls-2" d="M307.71,33.96h3.8c1.16,0,1.76-.88,2.2-1.96l1.4-3.08-7.96-19.44h3.56l6.08,15.48,5.8-15.48h3.56l-9.2,22.64c-.88,2.2-2.16,4.6-5.6,4.6h-3.64v-2.76Z"/></g></svg>