<?xml version="1.0" encoding="UTF-8"?>
<svg id="Layer_1" data-name="Layer 1" xmlns="http://www.w3.org/2000/svg" viewBox="0 0 269.96 170">
  <defs>
    <style>
      .cls-1 {
        fill: #0c322c;
      }
    </style>
  </defs>
  <g id="Layer_1-2" data-name="Layer 1">
    <path class="cls-1" d="M107.41,39.84c-.5.33-1.16.33-1.66,0-.81-.54-.89-1.67-.24-2.32.58-.6,1.55-.6,2.13,0,.65.65.58,1.78-.24,2.32M109.78,36.55c.95,4.02-2.67,7.64-6.69,6.69-2.05-.48-3.67-2.11-4.15-4.15-.94-4.02,2.67-7.63,6.69-6.69,2.05.48,3.67,2.1,4.15,4.15M82.71,58.18c.46.66.84,1.3,1.06,1.94.15.45.35,1.05.79,1.29.03.01.05.03.08.03.82.3,2.93.25,2.93.25h3.88c.33,0,3.25,0,3.17-.33-.35-1.56-2.15-1.84-3.53-2.65-1.27-.75-2.46-1.61-3.01-3.08-.28-.76-.11-2.51.37-3.15.36-.46.88-.77,1.45-.89.63-.13,1.27-.02,1.9.05.77.08,1.53.22,2.3.31,1.49.19,2.98.27,4.48.23,2.47-.07,4.94-.46,7.29-1.26,1.63-.55,3.25-1.29,4.63-2.32,1.58-1.17,1.16-1.06-.44-.9-1.92.2-3.86.23-5.78.11-1.79-.1-3.57-.31-5.19-1.15-1.28-.66-2.38-1.32-3.39-2.34-.15-.15-.25-.61.03-.89.27-.28.84-.12,1.01.03,1.77,1.48,4.41,2.7,7.14,2.83,1.48.07,2.91.1,4.39.04.74-.03,1.86-.03,2.6-.04.38,0,1.42.11,1.62-.3.06-.12.05-.25.05-.39-.22-5.91-.65-12.58-6.84-15.4-4.61-2.11-11.53-5.38-14.45-6.73-.68-.32-1.47.19-1.47.94,0,1.97.1,4.81.1,7.39-1.4-1.43-3.76-2.33-5.56-3.15-2.04-.94-4.15-1.73-6.29-2.4-4.31-1.34-8.78-2.16-13.27-2.6-5.09-.51-10.27-.26-15.29.77-8.26,1.71-16.38,5.68-22.54,11.49-3.78,3.57-6.75,8.63-6.95,13.77-.29,7.28,1.75,11.19,5.5,15.22,5.98,6.42,18.84,7.32,24.05-.3,2.34-3.43,2.85-8.07,1.15-11.86-1.7-3.79-5.61-6.52-9.76-6.66-3.22-.11-6.64,1.53-7.88,4.51-.94,2.27-.41,5.08,1.31,6.84.67.69,1.57,1.25,2.56,1.03.58-.13,1.07-.57,1.15-1.16.13-.87-.63-1.44-1.1-2.1-.85-1.21-.67-3.02.38-4.04.9-.87,2.22-1.12,3.46-1.12,1.16,0,2.34.21,3.34.79,1.41.83,2.34,2.34,2.66,3.94.97,4.78-2.92,8.66-8.19,8.97-2.7.16-5.44-.55-7.54-2.24-5.33-4.29-6.63-13.05-.54-17.73,5.78-4.44,13.08-3.29,17.38-.99,3.45,1.85,6.01,4.87,7.96,8.21.98,1.68,1.81,3.43,2.58,5.21.74,1.71,1.44,3.44,2.92,4.7.98.83,2.2.8,3.49.8h7.36c1,0,.76-.67.32-1.11-.97-1-2.38-1.22-3.67-1.58-2.96-.82-2.66-4.74-1.84-4.74,2.65,0,2.73.08,5.06.05,3.35-.05,4.36-.24,6.99.73,1.4.52,2.75,1.89,3.63,3.14"/>
  </g>
  <g>
    <path class="cls-1" d="M30.6,110.56c-2.08,0-3.89-.39-5.44-1.16-1.55-.77-2.87-1.8-3.96-3.08l3.04-3.04c1.09,1.12,2.16,1.92,3.2,2.4s2.15.72,3.32.72c1.57,0,2.81-.37,3.7-1.1.89-.73,1.34-1.69,1.34-2.86,0-.91-.25-1.65-.76-2.22-.51-.57-1.17-1.04-2-1.4-.83-.36-1.74-.68-2.74-.96s-1.99-.59-2.98-.94c-.99-.35-1.89-.8-2.72-1.36-.83-.56-1.49-1.29-2-2.2-.51-.91-.76-2.04-.76-3.4,0-1.76.4-3.27,1.2-4.54.8-1.27,1.94-2.25,3.42-2.94,1.48-.69,3.19-1.04,5.14-1.04,1.81,0,3.45.32,4.9.96,1.45.64,2.65,1.49,3.58,2.56l-3.12,3.12c-.8-.83-1.63-1.45-2.48-1.86s-1.83-.62-2.92-.62c-1.47,0-2.64.35-3.52,1.06-.88.71-1.32,1.65-1.32,2.82,0,.85.25,1.55.76,2.08s1.18.95,2.02,1.26,1.76.59,2.76.84c1,.25,2.01.55,3.02.9,1.01.35,1.93.8,2.76,1.36.83.56,1.49,1.31,2,2.24.51.93.76,2.12.76,3.56,0,1.79-.43,3.34-1.28,4.66s-2.05,2.35-3.58,3.08c-1.53.73-3.31,1.1-5.34,1.1Z"/>
    <path class="cls-1" d="M55.96,110.56c-3.28,0-5.91-.85-7.88-2.54-1.97-1.69-2.96-4.26-2.96-7.7v-18.32h4.92v17.92c0,2.03.53,3.55,1.6,4.56,1.07,1.01,2.51,1.52,4.32,1.52s3.26-.51,4.34-1.52,1.62-2.53,1.62-4.56v-17.92h4.92v18.32c0,2.27-.45,4.16-1.36,5.68-.91,1.52-2.17,2.66-3.8,3.42-1.63.76-3.53,1.14-5.72,1.14Z"/>
    <path class="cls-1" d="M80.36,110.56c-2.08,0-3.89-.39-5.44-1.16-1.55-.77-2.87-1.8-3.96-3.08l3.04-3.04c1.09,1.12,2.16,1.92,3.2,2.4s2.15.72,3.32.72c1.57,0,2.81-.37,3.7-1.1s1.34-1.69,1.34-2.86c0-.91-.25-1.65-.76-2.22-.51-.57-1.17-1.04-2-1.4-.83-.36-1.74-.68-2.74-.96s-1.99-.59-2.98-.94c-.99-.35-1.89-.8-2.72-1.36-.83-.56-1.49-1.29-2-2.2-.51-.91-.76-2.04-.76-3.4,0-1.76.4-3.27,1.2-4.54.8-1.27,1.94-2.25,3.42-2.94,1.48-.69,3.19-1.04,5.14-1.04,1.81,0,3.45.32,4.9.96s2.65,1.49,3.58,2.56l-3.12,3.12c-.8-.83-1.63-1.45-2.48-1.86-.85-.41-1.83-.62-2.92-.62-1.47,0-2.64.35-3.52,1.06-.88.71-1.32,1.65-1.32,2.82,0,.85.25,1.55.76,2.08.51.53,1.18.95,2.02,1.26s1.76.59,2.76.84c1,.25,2.01.55,3.02.9,1.01.35,1.93.8,2.76,1.36.83.56,1.49,1.31,2,2.24.51.93.76,2.12.76,3.56,0,1.79-.43,3.34-1.28,4.66-.85,1.32-2.05,2.35-3.58,3.08-1.53.73-3.31,1.1-5.34,1.1Z"/>
    <path class="cls-1" d="M99.52,110c-1.36,0-2.47-.44-3.34-1.32-.87-.88-1.3-2-1.3-3.36v-18.64c0-1.36.43-2.48,1.3-3.36.87-.88,1.98-1.32,3.34-1.32h13.64v4.48h-12c-.4,0-.74.14-1.02.42s-.42.62-.42,1.02v16.16c0,.4.14.74.42,1.02.28.28.62.42,1.02.42h12v4.48h-13.64ZM97.24,98.08v-4.28h15.08v4.28h-15.08Z"/>
    <path class="cls-1" d="M127.72,110v-28h9.2c2.67,0,4.75.63,6.26,1.9,1.51,1.27,2.26,2.95,2.26,5.06,0,1.25-.27,2.41-.8,3.46-.53,1.05-1.33,1.89-2.4,2.52-1.07.63-2.4.94-4,.94l.04-.6c1.68,0,3.12.31,4.32.94s2.13,1.47,2.8,2.54c.67,1.07,1,2.25,1,3.56,0,2.32-.78,4.18-2.34,5.58-1.56,1.4-3.85,2.1-6.86,2.1h-9.48ZM130.36,108.72l-1.08-1h7.56c2.27,0,3.97-.51,5.1-1.54,1.13-1.03,1.7-2.38,1.7-4.06,0-1.01-.27-1.93-.8-2.76-.53-.83-1.27-1.47-2.2-1.94-.93-.47-2.05-.7-3.36-.7h-7.88v-2.2h7.56c1.87,0,3.3-.49,4.3-1.48s1.5-2.25,1.5-3.8-.54-2.69-1.62-3.6-2.57-1.36-4.46-1.36h-7.4l1.08-1v25.44Z"/>
    <path class="cls-1" d="M151.32,110v-19.12h2.48v4.56l-.4-.04c.24-1.23.63-2.17,1.18-2.82.55-.65,1.21-1.11,2-1.36.79-.25,1.65-.38,2.58-.38h1.64v2.52h-1.84c-1.57,0-2.81.4-3.72,1.2-.91.8-1.36,2.08-1.36,3.84v11.6h-2.56Z"/>
    <path class="cls-1" d="M169.72,110.4c-2.24,0-4.02-.51-5.34-1.54-1.32-1.03-1.98-2.38-1.98-4.06,0-1.09.29-2.07.88-2.94.59-.87,1.45-1.55,2.6-2.06,1.15-.51,2.52-.76,4.12-.76,2.21,0,3.93.49,5.14,1.48,1.21.99,1.82,2.29,1.82,3.92h-.48c0,1.87-.56,3.33-1.68,4.38-1.12,1.05-2.81,1.58-5.08,1.58ZM175.6,110l-.04-6.96-.28-.76v-4.68c0-1.65-.41-2.87-1.24-3.64-.83-.77-2.03-1.16-3.6-1.16-1.04,0-2.11.2-3.22.6-1.11.4-2.07,1.01-2.9,1.84l-1.24-1.8c.91-.99,2.02-1.73,3.34-2.22,1.32-.49,2.69-.74,4.1-.74s2.71.26,3.8.78c1.09.52,1.95,1.3,2.56,2.34.61,1.04.92,2.36.92,3.96v6.08c0,1.07,0,2.13.02,3.18.01,1.05.05,2.11.1,3.18h-2.32ZM170.2,108.44c1.6,0,2.85-.34,3.74-1.02.89-.68,1.34-1.57,1.34-2.66s-.45-2.01-1.34-2.66-2.15-.98-3.78-.98-2.87.33-3.8.98-1.4,1.54-1.4,2.66.47,1.98,1.4,2.66c.93.68,2.21,1.02,3.84,1.02Z"/>
    <path class="cls-1" d="M183.92,110v-19.12h2.44v5.12h-.68c.29-1.07.71-1.95,1.26-2.66.55-.71,1.17-1.27,1.86-1.7.69-.43,1.4-.73,2.12-.9.72-.17,1.4-.26,2.04-.26,2.16,0,3.92.69,5.28,2.06,1.36,1.37,2.04,3.47,2.04,6.3v11.16h-2.56v-10.84c0-2.24-.51-3.85-1.52-4.84-1.01-.99-2.29-1.48-3.84-1.48-1.07,0-2.04.24-2.92.72-.88.48-1.59,1.19-2.14,2.12-.55.93-.82,2.11-.82,3.52v10.8h-2.56Z"/>
    <path class="cls-1" d="M213.96,110.4c-1.73,0-3.28-.42-4.64-1.26-1.36-.84-2.42-2-3.18-3.48-.76-1.48-1.14-3.19-1.14-5.14v-.36c0-1.89.39-3.57,1.16-5.02.77-1.45,1.83-2.59,3.18-3.42s2.89-1.24,4.62-1.24,3.25.45,4.56,1.36c1.31.91,2.29,2.12,2.96,3.64l-.48.6v-15.28h2.56v29.2h-2.32v-5.36l.44.52c-.69,1.63-1.71,2.91-3.04,3.84-1.33.93-2.89,1.4-4.68,1.4ZM214.28,108.12c1.33,0,2.52-.32,3.56-.96,1.04-.64,1.85-1.54,2.44-2.7.59-1.16.88-2.5.88-4.02s-.29-2.85-.88-4c-.59-1.15-1.4-2.05-2.44-2.7-1.04-.65-2.23-.98-3.56-.98s-2.47.31-3.5.94c-1.03.63-1.82,1.49-2.38,2.6-.56,1.11-.84,2.39-.84,3.86v.36c0,1.52.28,2.85.84,3.98.56,1.13,1.35,2.02,2.38,2.66,1.03.64,2.19.96,3.5.96Z"/>
    <path class="cls-1" d="M29.28,124.48h-8.68v-2.48h20.08v2.48h-8.72v25.52h-2.68v-25.52Z"/>
    <path class="cls-1" d="M38.32,140.52v-.4c0-5.56,3.56-9.64,8.88-9.64s8.64,4.28,7.92,10.64h-14.28c.28,4.08,3,6.92,7.12,6.92,2.04,0,3.76-.52,4.92-1.56l1.44,1.64c-1.4,1.44-3.8,2.28-6.48,2.28-5.64,0-9.52-4.04-9.52-9.88ZM52.72,139c.08-3.92-2.24-6.28-5.52-6.28-3.56,0-5.92,2.48-6.32,6.28h11.84Z"/>
    <path class="cls-1" d="M71.64,147.88c-1.04,1.64-3.04,2.52-5.88,2.52-4.52,0-7.32-2.24-7.32-5.6s2.76-5.76,7.56-5.76c2.32,0,4.08.56,5.28,1.6v-3.04c0-3.28-1.68-4.8-4.84-4.8-2.08,0-4.48.76-6.08,2.4l-1.24-1.76c1.68-2,4.6-2.96,7.4-2.96,4.36,0,7.28,2.32,7.28,7.08v6.08c0,2.12.04,4.24.12,6.36h-2.28v-2.12ZM66.2,148.44c3.2,0,5.08-1.48,5.08-3.68s-1.84-3.64-5.08-3.64-5.2,1.44-5.2,3.64,2,3.68,5.2,3.68Z"/>
    <path class="cls-1" d="M80.4,130.88h2.44v3.32c1.48-2.8,4.04-3.72,6.28-3.72,2.96,0,5.2,1.32,6.28,4.12,1.52-3.12,4.44-4.12,6.72-4.12,4.2,0,7,2.64,7,8.24v11.28h-2.48v-10.96c0-4.36-2.04-6.2-5.08-6.2s-5.52,2.16-5.52,6.16v11h-2.52v-10.96c0-4.36-2-6.2-5.04-6.2s-5.56,2.16-5.56,6.16v11h-2.52v-19.12Z"/>
  </g>
</svg>