<?xml version="1.0" encoding="UTF-8"?>
<svg xmlns="http://www.w3.org/2000/svg" viewBox="0 0 369.039 111.987">
  <g id="Text">
    <g>
      <path d="M99.137,53.613c-2.08,0-3.894-.387-5.439-1.159-1.547-.773-2.867-1.801-3.96-3.08l3.04-3.04c1.093,1.12,2.16,1.92,3.2,2.399,1.039.48,2.146.721,3.319.721,1.573,0,2.807-.366,3.7-1.101.893-.733,1.339-1.687,1.339-2.859,0-.906-.254-1.646-.76-2.221-.506-.573-1.173-1.04-2-1.399-.827-.36-1.74-.681-2.74-.96-1-.28-1.993-.594-2.979-.94-.987-.346-1.895-.8-2.721-1.36-.826-.56-1.493-1.293-2-2.199s-.76-2.04-.76-3.4c0-1.76.4-3.273,1.2-4.54s1.939-2.246,3.42-2.939,3.193-1.04,5.14-1.04c1.813,0,3.446.319,4.9.96,1.453.64,2.646,1.493,3.58,2.56l-3.12,3.12c-.8-.826-1.627-1.446-2.48-1.86-.854-.413-1.826-.62-2.92-.62-1.467,0-2.64.354-3.52,1.061-.88.707-1.32,1.646-1.32,2.82,0,.854.253,1.547.76,2.079.507.534,1.181.954,2.021,1.261s1.76.587,2.76.84c1,.254,2.007.554,3.02.899,1.013.348,1.933.801,2.76,1.36.826.561,1.493,1.307,2,2.24.506.934.76,2.12.76,3.56,0,1.787-.427,3.34-1.28,4.66s-2.047,2.347-3.579,3.08c-1.534.733-3.314,1.1-5.34,1.1Z" style="fill: #f2f2f2;"/>
      <path d="M124.497,53.613c-3.279,0-5.906-.846-7.88-2.54-1.974-1.692-2.96-4.26-2.96-7.699v-18.32h4.92v17.92c0,2.027.533,3.547,1.601,4.561,1.065,1.014,2.506,1.52,4.319,1.52s3.26-.506,4.34-1.52,1.62-2.533,1.62-4.561v-17.92h4.92v18.32c0,2.267-.453,4.16-1.359,5.68-.907,1.52-2.174,2.66-3.8,3.42-1.627.76-3.534,1.14-5.721,1.14Z" style="fill: #f2f2f2;"/>
      <path d="M148.896,53.613c-2.08,0-3.894-.387-5.439-1.159-1.547-.773-2.867-1.801-3.96-3.08l3.04-3.04c1.093,1.12,2.16,1.92,3.2,2.399,1.039.48,2.146.721,3.319.721,1.573,0,2.807-.366,3.7-1.101.894-.733,1.34-1.687,1.34-2.859,0-.906-.254-1.646-.76-2.221-.507-.573-1.174-1.04-2-1.399-.827-.36-1.74-.681-2.74-.96-1-.28-1.993-.594-2.979-.94-.987-.346-1.895-.8-2.721-1.36-.826-.56-1.493-1.293-2-2.199s-.76-2.04-.76-3.4c0-1.76.4-3.273,1.2-4.54s1.939-2.246,3.42-2.939,3.193-1.04,5.14-1.04c1.813,0,3.446.319,4.9.96,1.453.64,2.646,1.493,3.58,2.56l-3.12,3.12c-.8-.826-1.627-1.446-2.48-1.86-.854-.413-1.826-.62-2.92-.62-1.467,0-2.64.354-3.52,1.061-.88.707-1.32,1.646-1.32,2.82,0,.854.253,1.547.76,2.079.507.534,1.181.954,2.021,1.261s1.76.587,2.76.84c1,.254,2.007.554,3.021.899,1.013.348,1.933.801,2.76,1.36.826.561,1.493,1.307,2,2.24.506.934.76,2.12.76,3.56,0,1.787-.427,3.34-1.28,4.66s-2.047,2.347-3.579,3.08c-1.534.733-3.314,1.1-5.341,1.1Z" style="fill: #f2f2f2;"/>
      <path d="M168.055,53.053c-1.359,0-2.474-.44-3.34-1.32s-1.3-2-1.3-3.359v-18.641c0-1.359.434-2.479,1.3-3.359s1.98-1.32,3.34-1.32h13.641v4.48h-12c-.4,0-.74.14-1.021.42s-.42.619-.42,1.02v16.16c0,.4.141.74.42,1.02s.62.42,1.021.42h12v4.48h-13.641ZM165.776,41.134v-4.28h15.08v4.28h-15.08Z" style="fill: #f2f2f2;"/>
      <path d="M200.295,53.053c-1.279,0-2.34-.42-3.18-1.26s-1.26-1.9-1.26-3.181v-19.119c0-1.28.42-2.341,1.26-3.181s1.9-1.26,3.18-1.26h12.92v3.12h-11.84c-.613,0-1.127.207-1.54.62s-.62.913-.62,1.5v17.52c0,.587.207,1.087.62,1.5.413.414.927.62,1.54.62h11.84v3.12h-12.92ZM197.575,40.534v-3h14.8v3h-14.8Z" style="fill: #f2f2f2;"/>
      <path d="M215.935,53.053l6.841-9.6-6.641-9.641h3.8l5,7.601,5-7.601h3.721l-6.641,9.641,6.761,9.6h-3.841l-5.119-7.48-5.08,7.48h-3.801Z" style="fill: #f2f2f2;"/>
      <path d="M245.216,53.454c-1.894,0-3.579-.413-5.06-1.24-1.48-.826-2.646-1.98-3.5-3.46-.854-1.48-1.28-3.181-1.28-5.101v-.479c0-1.92.427-3.613,1.28-5.08.854-1.466,2.02-2.613,3.5-3.44,1.48-.826,3.166-1.239,5.06-1.239,1.413,0,2.7.253,3.86.76s2.14,1.24,2.94,2.2l-2,2c-.614-.641-1.32-1.127-2.12-1.46s-1.694-.5-2.681-.5c-1.253,0-2.387.279-3.399.84-1.014.56-1.807,1.347-2.38,2.359-.574,1.015-.86,2.2-.86,3.561v.479c0,1.36.293,2.547.88,3.561s1.38,1.807,2.38,2.38,2.141.86,3.42.86c.96,0,1.847-.153,2.66-.46s1.54-.794,2.181-1.46l1.96,1.96c-.774.934-1.754,1.659-2.94,2.18-1.187.52-2.487.78-3.9.78Z" style="fill: #f2f2f2;"/>
      <path d="M256.176,53.053v-29.2h3.12v15.16h-.88c.293-1.093.713-2,1.26-2.72.546-.721,1.16-1.293,1.84-1.721.68-.426,1.38-.726,2.101-.899.72-.173,1.399-.26,2.04-.26,2.159,0,3.913.693,5.26,2.08,1.346,1.387,2.02,3.467,2.02,6.239v11.32h-3.24v-10.84c0-2.054-.46-3.54-1.38-4.46s-2.087-1.38-3.5-1.38c-.986,0-1.887.227-2.699.68-.814.454-1.468,1.113-1.96,1.98-.494.866-.74,1.939-.74,3.22v10.8h-3.24Z" style="fill: #f2f2f2;"/>
      <path d="M284.615,53.454c-2.267,0-4.066-.521-5.4-1.561-1.333-1.04-2-2.413-2-4.12,0-1.093.301-2.093.9-3,.6-.906,1.48-1.626,2.64-2.16,1.16-.532,2.566-.8,4.221-.8,2.213,0,3.933.5,5.16,1.5,1.226,1,1.84,2.327,1.84,3.98h-.641c0,1.974-.56,3.493-1.68,4.56-1.12,1.067-2.8,1.601-5.04,1.601ZM290.295,53.053v-7.28l-.399-1.08v-4.08c0-1.439-.374-2.513-1.12-3.22-.747-.706-1.867-1.06-3.36-1.06-.986,0-2.026.2-3.12.6-1.094.4-2.066.987-2.92,1.76l-1.52-2.279c.933-.96,2.08-1.7,3.439-2.221,1.36-.52,2.773-.779,4.24-.779,1.493,0,2.807.267,3.94.8,1.133.533,2.02,1.327,2.66,2.38.64,1.054.96,2.38.96,3.979v6.16c0,1.067.006,2.12.02,3.16.013,1.04.046,2.094.1,3.16h-2.92ZM285.215,51.013c1.44,0,2.58-.3,3.421-.9.84-.6,1.26-1.406,1.26-2.42s-.414-1.812-1.24-2.399c-.827-.587-1.974-.88-3.44-.88s-2.626.293-3.479.88-1.28,1.387-1.28,2.399.434,1.82,1.3,2.42c.866.601,2.021.9,3.46.9Z" style="fill: #f2f2f2;"/>
      <path d="M298.895,53.053v-19.24h3.12v5.2h-.88c.293-1.093.713-2,1.26-2.72.546-.721,1.16-1.293,1.84-1.721.68-.426,1.38-.726,2.101-.899.72-.173,1.399-.26,2.04-.26,2.159,0,3.913.693,5.26,2.08,1.346,1.387,2.02,3.467,2.02,6.239v11.32h-3.24v-10.84c0-2.054-.46-3.54-1.38-4.46s-2.087-1.38-3.5-1.38c-.986,0-1.887.227-2.699.68-.814.454-1.468,1.113-1.96,1.98-.494.866-.74,1.939-.74,3.22v10.8h-3.24Z" style="fill: #f2f2f2;"/>
      <path d="M319.495,61.053v-2.72h11.479c.906,0,1.613-.221,2.12-.66.507-.44.761-1.061.761-1.86,0-.747-.254-1.326-.761-1.74-.507-.413-1.214-.619-2.12-.619h-6.319c-.987,0-1.747-.24-2.28-.721-.534-.479-.834-1.08-.9-1.8s.087-1.439.46-2.16l1.801-3.6,2.76.72-1.64,3.2c-.107.24-.181.5-.221.78-.04.279.033.514.221.699.186.188.492.28.92.28h5.64c1.653,0,2.979.42,3.979,1.26,1,.841,1.5,2.087,1.5,3.74,0,1.014-.233,1.913-.699,2.7-.467.786-1.12,1.4-1.96,1.84-.841.44-1.834.66-2.98.66h-11.76ZM328.295,47.494c-1.6,0-3.02-.301-4.26-.9s-2.214-1.427-2.92-2.48c-.707-1.053-1.061-2.246-1.061-3.579v-.36c0-1.333.354-2.507,1.061-3.521.706-1.013,1.68-1.806,2.92-2.38,1.24-.573,2.66-.859,4.26-.859s3.021.286,4.26.859c1.24.574,2.214,1.36,2.92,2.36.707,1,1.061,2.153,1.061,3.46v.44c0,1.333-.354,2.526-1.061,3.579-.706,1.054-1.68,1.881-2.92,2.48-1.239.6-2.66.9-4.26.9ZM328.295,44.973c1.493,0,2.713-.42,3.66-1.26.946-.84,1.42-1.9,1.42-3.18v-.32c0-1.227-.474-2.227-1.42-3-.947-.773-2.167-1.16-3.66-1.16s-2.714.394-3.66,1.18c-.946.787-1.42,1.808-1.42,3.061v.24c0,1.279.474,2.34,1.42,3.18.946.84,2.166,1.26,3.66,1.26ZM328.175,35.494l2.96-6.08h3.24l-3.28,6.08h-2.92Z" style="fill: #f2f2f2;"/>
      <path d="M349.455,53.454c-1.895,0-3.567-.42-5.021-1.261-1.453-.84-2.587-2.006-3.399-3.5-.814-1.493-1.221-3.213-1.221-5.159v-.4c0-1.866.373-3.526,1.12-4.98.746-1.453,1.8-2.605,3.16-3.46,1.36-.853,2.934-1.279,4.72-1.279,1.84,0,3.413.453,4.721,1.359,1.306.907,2.272,2.188,2.899,3.84.626,1.654.807,3.587.54,5.801h-14.84v-2.641h13.12l-1.44,1.4c.187-1.467.087-2.713-.3-3.74-.387-1.026-.979-1.82-1.78-2.38-.8-.56-1.76-.84-2.88-.84-1.227,0-2.273.294-3.14.88-.867.587-1.534,1.394-2,2.42-.467,1.027-.7,2.233-.7,3.62v.4c0,1.333.267,2.526.8,3.579.533,1.054,1.293,1.881,2.28,2.48.986.6,2.16.9,3.52.9,1.014,0,1.906-.127,2.681-.381.772-.253,1.453-.633,2.04-1.14l1.84,2c-.747.8-1.7,1.414-2.86,1.84-1.16.427-2.446.641-3.859.641Z" style="fill: #f2f2f2;"/>
    </g>
    <g id="Layer_1" data-name="Layer 1">
      <path d="M76.975,35.276c-.443-.46-1.175-.46-1.619,0-.499.498-.44,1.357.18,1.768.379.252.884.251,1.261,0,.618-.41.679-1.27.179-1.769M75.495,31.38c-3.062-.717-5.812,2.032-5.092,5.093.364,1.559,1.603,2.796,3.162,3.162,3.062.72,5.813-2.034,5.093-5.095-.367-1.559-1.605-2.795-3.162-3.16M55.282,48.616c-1.995-.738-2.766-.59-5.317-.556-1.768.023-1.832-.036-3.85-.036-.624,0-.854,2.987,1.402,3.607.987.273,2.054.444,2.796,1.204.33.335.515.841-.246.841h-5.599c-.981,0-1.906.024-2.654-.611-1.131-.955-1.659-2.27-2.225-3.575-.586-1.357-1.22-2.692-1.964-3.97-1.48-2.542-3.434-4.842-6.057-6.247-3.274-1.757-8.832-2.626-13.233.751-4.637,3.562-3.643,10.232.413,13.495,1.602,1.289,3.69,1.829,5.743,1.708,4.011-.234,6.969-3.19,6.235-6.828-.244-1.219-.956-2.371-2.025-2.998-.761-.445-1.663-.604-2.545-.606-.947-.002-1.954.194-2.636.853-.806.78-.936,2.157-.293,3.078.357.508.938.938.839,1.601-.067.449-.437.783-.88.88-.752.168-1.441-.259-1.948-.783-1.305-1.344-1.714-3.481-.996-5.21.938-2.265,3.548-3.509,5.997-3.429,3.157.106,6.135,2.189,7.428,5.071,1.296,2.884.907,6.422-.876,9.032-3.966,5.795-13.759,5.11-18.307.223-2.853-3.066-4.405-6.042-4.187-11.581.153-3.916,2.412-7.772,5.292-10.485,4.692-4.422,10.872-7.446,17.16-8.751,3.82-.788,7.763-.973,11.638-.586,3.419.34,6.818.967,10.104,1.984,1.631.508,3.234,1.111,4.787,1.824,1.369.628,3.163,1.314,4.229,2.399,0-1.964-.077-4.125-.077-5.628,0-.574.603-.962,1.12-.717,2.224,1.033,7.491,3.521,11.004,5.128,4.708,2.15,5.04,7.226,5.205,11.725.004.1.008.204-.036.293-.149.309-.943.226-1.233.229-.562.006-1.413.002-1.975.026-1.124.05-2.219.029-3.342-.026-2.079-.102-4.087-1.027-5.435-2.155-.132-.112-.568-.236-.772-.023-.213.219-.139.562-.024.68.771.779,1.607,1.282,2.581,1.785,1.237.634,2.584.795,3.951.875,1.464.087,2.938.065,4.4-.085,1.219-.124,1.534-.208.331.686-1.057.785-2.284,1.35-3.528,1.769-1.784.606-3.668.907-5.548.959-1.14.031-2.28-.029-3.411-.175-.585-.073-1.165-.18-1.753-.239-.476-.048-.971-.137-1.446-.035-.431.094-.829.328-1.101.679-.372.485-.501,1.819-.285,2.398.416,1.119,1.329,1.771,2.292,2.345,1.045.621,2.418.832,2.685,2.02.056.247-2.164.254-2.416.249h-2.955s-1.606.039-2.231-.188c-.021-.006-.036-.016-.057-.024-.34-.184-.489-.639-.602-.983-.165-.487-.455-.972-.806-1.476-.668-.951-1.693-1.993-2.76-2.389M77.653,35.505c0,1.732-1.4,3.135-3.133,3.135s-3.132-1.402-3.132-3.135,1.401-3.132,3.132-3.132,3.133,1.402,3.133,3.132" style="fill: #30ba78;"/>
    </g>
  </g>
  <g id="Location">
    <g>
      <path d="M91.045,87.053v-19.6h5.824c1.288,0,2.408.229,3.36.686.952.458,1.693,1.115,2.226,1.974.532.859.798,1.896.798,3.108s-.266,2.25-.798,3.108-1.273,1.517-2.226,1.974c-.952.458-2.072.686-3.36.686h-4.928v-1.596h5.012c1.325,0,2.403-.373,3.234-1.12.83-.746,1.246-1.764,1.246-3.052,0-1.27-.416-2.272-1.246-3.01-.831-.737-1.909-1.106-3.234-1.106h-4.815l.783-.756v18.704h-1.876Z" style="fill: #f2f2f2;"/>
      <path d="M110.056,87.334c-1.567,0-2.813-.359-3.737-1.078s-1.387-1.666-1.387-2.842c0-.766.206-1.451.616-2.059.41-.606,1.018-1.087,1.82-1.441s1.764-.532,2.884-.532c1.55,0,2.748.346,3.599,1.036.849.69,1.273,1.605,1.273,2.744h-.336c0,1.307-.392,2.328-1.176,3.065-.784.738-1.97,1.106-3.557,1.106ZM114.173,87.053l-.027-4.872-.196-.532v-3.275c0-1.157-.29-2.007-.868-2.548-.579-.542-1.419-.812-2.52-.812-.729,0-1.48.14-2.255.42s-1.451.71-2.029,1.288l-.868-1.26c.634-.69,1.414-1.209,2.338-1.555.924-.345,1.881-.518,2.87-.518,1.008,0,1.895.182,2.66.546.765.364,1.362.91,1.792,1.638.429.729.644,1.652.644,2.772v4.256c0,.747.005,1.489.015,2.227.009.737.032,1.479.069,2.226h-1.624ZM110.393,85.962c1.119,0,1.992-.238,2.617-.714.626-.477.938-1.097.938-1.862,0-.784-.312-1.404-.938-1.862-.625-.457-1.507-.686-2.646-.686-1.12,0-2.007.229-2.66.686-.653.458-.98,1.078-.98,1.862,0,.766.327,1.386.98,1.862.653.476,1.549.714,2.688.714Z" style="fill: #f2f2f2;"/>
      <path d="M119.997,87.053v-13.384h1.736v3.191l-.28-.027c.168-.858.443-1.517.826-1.975.382-.457.849-.774,1.399-.952.551-.177,1.152-.266,1.807-.266h1.147v1.764h-1.288c-1.102,0-1.97.28-2.604.841-.635.56-.952,1.456-.952,2.688v8.12h-1.792Z" style="fill: #f2f2f2;"/>
      <path d="M130.469,87.053v-12.6l.812.783h-3.473v-1.567h4.452v13.384h-1.792ZM130.413,70.59v-3.024h1.903v3.024h-1.903Z" style="fill: #f2f2f2;"/>
      <path d="M140.241,87.305c-.952,0-1.854-.149-2.702-.448-.85-.298-1.536-.7-2.059-1.204l.812-1.231c.485.43,1.087.779,1.806,1.05s1.433.406,2.143.406c.914,0,1.661-.215,2.239-.645.579-.429.868-.998.868-1.708,0-.578-.182-1.026-.546-1.344-.364-.317-.826-.56-1.386-.728-.561-.168-1.153-.332-1.778-.49s-1.218-.364-1.777-.616c-.561-.252-1.018-.616-1.372-1.092-.355-.477-.532-1.125-.532-1.946,0-1.157.429-2.1,1.288-2.828.858-.728,2.006-1.092,3.443-1.092.821,0,1.597.126,2.324.378.729.252,1.354.584,1.876.994l-.812,1.26c-.467-.354-.99-.639-1.568-.854-.579-.215-1.194-.322-1.848-.322-.878,0-1.597.215-2.156.644-.56.43-.84.99-.84,1.681,0,.578.177,1.021.532,1.33.354.308.816.551,1.386.728.569.178,1.171.346,1.806.504.635.159,1.236.369,1.807.63.568.262,1.031.635,1.386,1.12.354.486.532,1.148.532,1.988,0,.747-.206,1.409-.616,1.988-.411.578-.985,1.031-1.723,1.357s-1.581.49-2.533.49Z" style="fill: #f2f2f2;"/>
    </g>
  </g>
</svg>