<?xml version="1.0" encoding="UTF-8"?>
<svg id="Layer_1" data-name="Layer 1" xmlns="http://www.w3.org/2000/svg" viewBox="0 0 567.386 73.88">
  <g id="Layer_1-2" data-name="Layer 1">
    <path d="M66.118,17.953c-.376.248-.878.248-1.252,0-.616-.409-.676-1.263-.18-1.756.441-.456,1.169-.456,1.61,0,.494.494.435,1.348-.179,1.757M67.91,15.464c.716,3.041-2.017,5.775-5.058,5.061-1.548-.364-2.778-1.593-3.14-3.14-.714-3.039,2.018-5.771,5.057-5.058,1.548.361,2.777,1.589,3.141,3.137M47.437,31.818c.348.5.635.981.799,1.464.113.343.261.794.598.976.02.01.035.019.057.026.62.225,2.215.187,2.215.187h2.934c.25.004,2.455-.002,2.399-.249-.265-1.179-1.629-1.39-2.667-2.006-.956-.57-1.863-1.218-2.275-2.33-.215-.574-.086-1.898.283-2.381.269-.349.666-.58,1.093-.674.473-.101.963-.014,1.436.034.583.06,1.16.165,1.742.237,1.123.146,2.256.205,3.388.175,1.868-.052,3.738-.35,5.51-.954,1.235-.415,2.454-.976,3.504-1.756,1.194-.887.881-.805-.33-.681-1.451.149-2.915.17-4.369.084-1.356-.079-2.695-.238-3.923-.869-.967-.499-1.797-.998-2.564-1.771-.114-.117-.187-.458.024-.676.203-.211.636-.089.767.024,1.338,1.118,3.333,2.038,5.397,2.138,1.117.056,2.204.077,3.319.028.558-.026,1.403-.022,1.962-.028.289-.004,1.077.08,1.224-.226.045-.09.041-.193.037-.293-.165-4.469-.494-9.508-5.17-11.644-3.488-1.595-8.719-4.067-10.928-5.092-.513-.243-1.112.142-1.112.712,0,1.493.076,3.637.077,5.589-1.058-1.078-2.841-1.758-4.2-2.382-1.543-.707-3.134-1.307-4.755-1.812-3.262-1.01-6.638-1.632-10.033-1.969-3.85-.384-7.766-.2-11.558.583-6.245,1.294-12.382,4.298-17.042,8.689C2.415,17.667.172,21.497.02,25.384c-.216,5.504,1.325,8.457,4.158,11.504,4.519,4.854,14.244,5.532,18.181-.223,1.772-2.591,2.157-6.105.871-8.968-1.285-2.863-4.242-4.931-7.378-5.037-2.432-.081-5.023,1.157-5.955,3.406-.713,1.717-.307,3.839.988,5.172.505.52,1.188.946,1.935.78.439-.098.806-.429.873-.875.098-.657-.479-1.085-.832-1.591-.64-.912-.51-2.281.29-3.056.677-.655,1.678-.847,2.619-.845.875.002,1.771.158,2.527.601,1.063.624,1.769,1.769,2.012,2.978.73,3.614-2.208,6.55-6.193,6.781-2.039.121-4.113-.415-5.704-1.694-4.028-3.241-5.015-9.866-.409-13.402,4.37-3.356,9.89-2.491,13.142-.747,2.605,1.395,4.546,3.679,6.015,6.204.739,1.269,1.368,2.595,1.951,3.943.562,1.295,1.086,2.601,2.209,3.551.744.629,1.662.606,2.635.606h5.561c.755,0,.571-.504.244-.837-.737-.754-1.797-.924-2.777-1.194-2.241-.617-2.013-3.583-1.394-3.583,2.004,0,2.068.059,3.823.037,2.533-.035,3.299-.182,5.281.551,1.058.392,2.077,1.428,2.741,2.373"/>
  </g>
  <g>
    <path d="M88.151,34.56c-2.08,0-3.894-.387-5.44-1.16-1.547-.773-2.867-1.8-3.96-3.08l3.04-3.04c1.093,1.12,2.16,1.92,3.2,2.4s2.146.72,3.32.72c1.573,0,2.807-.366,3.7-1.1.893-.733,1.34-1.686,1.34-2.86,0-.906-.253-1.646-.76-2.22-.507-.573-1.174-1.04-2-1.4-.827-.36-1.74-.68-2.74-.96-1-.28-1.994-.593-2.98-.94-.987-.346-1.894-.8-2.72-1.36-.827-.56-1.494-1.293-2-2.2-.507-.906-.76-2.04-.76-3.4,0-1.76.4-3.273,1.2-4.54.8-1.266,1.94-2.246,3.42-2.94,1.48-.693,3.193-1.04,5.14-1.04,1.813,0,3.446.32,4.9.96,1.453.64,2.646,1.494,3.58,2.56l-3.12,3.12c-.8-.826-1.627-1.446-2.48-1.86-.854-.414-1.827-.62-2.92-.62-1.467,0-2.64.354-3.52,1.06s-1.32,1.646-1.32,2.82c0,.854.253,1.547.76,2.08.506.534,1.18.954,2.02,1.26.84.307,1.76.587,2.76.84s2.006.554,3.02.9c1.013.347,1.933.8,2.76,1.36.826.56,1.493,1.307,2,2.24.506.934.76,2.12.76,3.56,0,1.787-.427,3.34-1.28,4.66-.854,1.32-2.047,2.347-3.58,3.08-1.534.733-3.314,1.1-5.34,1.1Z"/>
    <path d="M113.51,34.56c-3.28,0-5.907-.846-7.88-2.54-1.974-1.693-2.96-4.26-2.96-7.7V6h4.92v17.92c0,2.027.533,3.547,1.6,4.56,1.066,1.014,2.506,1.52,4.32,1.52s3.26-.506,4.34-1.52c1.08-1.013,1.62-2.533,1.62-4.56V6h4.92v18.32c0,2.267-.454,4.16-1.36,5.68-.907,1.52-2.173,2.66-3.8,3.42-1.627.76-3.534,1.14-5.72,1.14Z"/>
    <path d="M137.91,34.56c-2.08,0-3.894-.387-5.44-1.16-1.547-.773-2.867-1.8-3.96-3.08l3.04-3.04c1.093,1.12,2.16,1.92,3.2,2.4s2.146.72,3.32.72c1.573,0,2.807-.366,3.7-1.1.893-.733,1.34-1.686,1.34-2.86,0-.906-.253-1.646-.76-2.22-.507-.573-1.174-1.04-2-1.4-.827-.36-1.74-.68-2.74-.96-1-.28-1.994-.593-2.98-.94-.987-.346-1.894-.8-2.72-1.36-.827-.56-1.494-1.293-2-2.2-.507-.906-.76-2.04-.76-3.4,0-1.76.4-3.273,1.2-4.54.8-1.266,1.94-2.246,3.42-2.94,1.48-.693,3.193-1.04,5.14-1.04,1.813,0,3.446.32,4.9.96,1.453.64,2.646,1.494,3.58,2.56l-3.12,3.12c-.8-.826-1.627-1.446-2.48-1.86-.854-.414-1.827-.62-2.92-.62-1.467,0-2.64.354-3.52,1.06s-1.32,1.646-1.32,2.82c0,.854.253,1.547.76,2.08.506.534,1.18.954,2.02,1.26.84.307,1.76.587,2.76.84s2.006.554,3.02.9c1.013.347,1.933.8,2.76,1.36.826.56,1.493,1.307,2,2.24.506.934.76,2.12.76,3.56,0,1.787-.427,3.34-1.28,4.66-.854,1.32-2.047,2.347-3.58,3.08-1.534.733-3.314,1.1-5.34,1.1Z"/>
    <path d="M157.07,34c-1.36,0-2.474-.44-3.34-1.32-.867-.88-1.3-2-1.3-3.36V10.68c0-1.36.433-2.48,1.3-3.36.866-.88,1.98-1.32,3.34-1.32h13.64v4.48h-12c-.4,0-.74.14-1.02.42s-.42.62-.42,1.02v16.16c0,.4.14.74.42,1.02s.62.42,1.02.42h12v4.48h-13.64ZM154.79,22.08v-4.28h15.08v4.28h-15.08Z"/>
    <path d="M189.909,34c-1.307,0-2.374-.42-3.2-1.26-.827-.84-1.24-1.9-1.24-3.18V6h3.4v22.64c0,.614.207,1.12.62,1.52.413.4.913.6,1.5.6h11.16v3.24h-12.24Z"/>
    <path d="M213.069,34.399c-1.894,0-3.567-.42-5.02-1.26-1.454-.84-2.587-2.006-3.4-3.5-.813-1.493-1.22-3.213-1.22-5.16v-.4c0-1.866.373-3.526,1.12-4.98.747-1.453,1.8-2.606,3.16-3.46,1.36-.853,2.933-1.28,4.72-1.28,1.84,0,3.413.454,4.72,1.36,1.306.907,2.273,2.187,2.9,3.84.626,1.654.807,3.587.54,5.8h-14.84v-2.64h13.12l-1.44,1.4c.186-1.466.086-2.713-.3-3.74-.387-1.026-.98-1.82-1.78-2.38-.8-.56-1.76-.84-2.88-.84-1.227,0-2.273.293-3.14.88-.867.587-1.534,1.394-2,2.42-.467,1.027-.7,2.234-.7,3.62v.4c0,1.334.266,2.527.8,3.58.533,1.054,1.293,1.88,2.28,2.48.986.6,2.16.9,3.52.9,1.013,0,1.906-.126,2.68-.38.773-.253,1.453-.633,2.04-1.14l1.84,2c-.747.8-1.7,1.414-2.86,1.84-1.16.426-2.447.64-3.86.64Z"/>
    <path d="M231.149,34.399c-2.267,0-4.067-.52-5.4-1.56-1.334-1.04-2-2.413-2-4.12,0-1.093.3-2.093.9-3,.6-.906,1.48-1.626,2.64-2.16,1.16-.533,2.566-.8,4.22-.8,2.213,0,3.933.5,5.16,1.5,1.226,1,1.84,2.327,1.84,3.98h-.64c0,1.974-.56,3.494-1.68,4.56-1.12,1.067-2.8,1.6-5.04,1.6ZM236.829,34v-7.28l-.4-1.08v-4.08c0-1.44-.374-2.513-1.12-3.22-.747-.706-1.867-1.06-3.36-1.06-.987,0-2.027.2-3.12.6-1.094.4-2.067.987-2.92,1.76l-1.52-2.28c.933-.96,2.08-1.7,3.44-2.22,1.36-.52,2.773-.78,4.24-.78,1.493,0,2.806.267,3.94.8,1.133.534,2.02,1.327,2.66,2.38.64,1.054.96,2.38.96,3.98v6.16c0,1.067.006,2.12.02,3.16.013,1.04.046,2.094.1,3.16h-2.92ZM231.749,31.959c1.44,0,2.58-.3,3.42-.9s1.26-1.406,1.26-2.42-.414-1.813-1.24-2.4c-.827-.586-1.974-.88-3.44-.88s-2.627.294-3.48.88c-.854.586-1.28,1.387-1.28,2.4s.433,1.82,1.3,2.42c.866.6,2.02.9,3.46.9Z"/>
    <path d="M253.189,34.399c-1.733,0-3.287-.42-4.66-1.26-1.374-.84-2.447-2-3.22-3.48s-1.16-3.207-1.16-5.18v-.36c0-1.92.393-3.613,1.18-5.08.786-1.466,1.86-2.613,3.22-3.44,1.36-.826,2.906-1.24,4.64-1.24,1.653,0,3.113.414,4.38,1.24,1.266.827,2.246,1.947,2.94,3.36l-.64.76V4.799h3.24v29.2h-2.92v-5.2l.56.64c-.693,1.547-1.693,2.76-3,3.64s-2.827,1.32-4.56,1.32ZM253.629,31.52c1.253,0,2.366-.293,3.34-.88.973-.586,1.733-1.42,2.28-2.5.546-1.08.82-2.326.82-3.74,0-1.44-.274-2.693-.82-3.76-.547-1.066-1.307-1.9-2.28-2.5-.974-.6-2.087-.9-3.34-.9-1.2,0-2.274.287-3.22.86-.947.574-1.687,1.374-2.22,2.4-.534,1.027-.8,2.234-.8,3.62v.36c0,1.414.266,2.647.8,3.7.533,1.054,1.273,1.874,2.22,2.46.946.587,2.02.88,3.22.88Z"/>
    <path d="M277.469,34.399c-1.894,0-3.567-.42-5.02-1.26-1.454-.84-2.587-2.006-3.4-3.5-.813-1.493-1.22-3.213-1.22-5.16v-.4c0-1.866.373-3.526,1.12-4.98.747-1.453,1.8-2.606,3.16-3.46,1.36-.853,2.933-1.28,4.72-1.28,1.84,0,3.413.454,4.72,1.36,1.306.907,2.273,2.187,2.9,3.84.626,1.654.807,3.587.54,5.8h-14.84v-2.64h13.12l-1.44,1.4c.186-1.466.086-2.713-.3-3.74-.387-1.026-.98-1.82-1.78-2.38-.8-.56-1.76-.84-2.88-.84-1.227,0-2.273.293-3.14.88-.867.587-1.534,1.394-2,2.42-.467,1.027-.7,2.234-.7,3.62v.4c0,1.334.266,2.527.8,3.58.533,1.054,1.293,1.88,2.28,2.48.986.6,2.16.9,3.52.9,1.013,0,1.906-.126,2.68-.38.773-.253,1.453-.633,2.04-1.14l1.84,2c-.747.8-1.7,1.414-2.86,1.84-1.16.426-2.447.64-3.86.64Z"/>
    <path d="M289.628,34V14.759h3.12v4.92l-.44-.04c.186-1.306.553-2.32,1.1-3.04.546-.72,1.22-1.22,2.02-1.5.8-.28,1.68-.42,2.64-.42h1.64v3.2h-1.88c-1.547,0-2.76.38-3.64,1.14-.88.76-1.32,1.954-1.32,3.58v11.4h-3.24Z"/>
    <path d="M308.308,34.359c-1.414,0-2.74-.22-3.98-.66-1.24-.44-2.247-1.006-3.02-1.7l1.44-2.24c.72.614,1.58,1.107,2.58,1.48s1.993.56,2.98.56c1.2,0,2.173-.273,2.92-.82.746-.546,1.12-1.26,1.12-2.14,0-.773-.253-1.36-.76-1.76-.507-.4-1.154-.713-1.94-.94-.787-.227-1.614-.453-2.48-.68-.867-.226-1.694-.526-2.48-.9-.787-.373-1.427-.906-1.92-1.6-.494-.693-.74-1.64-.74-2.84,0-1.707.633-3.093,1.9-4.16,1.266-1.066,2.966-1.6,5.1-1.6,1.2,0,2.34.18,3.42.54s2.02.834,2.82,1.42l-1.44,2.24c-.693-.506-1.447-.906-2.26-1.2-.814-.293-1.674-.44-2.58-.44-1.147,0-2.08.274-2.8.82-.72.547-1.08,1.26-1.08,2.14,0,.747.253,1.32.76,1.72.506.4,1.153.72,1.94.96.787.24,1.626.474,2.52.7.893.227,1.74.534,2.54.92.8.387,1.446.934,1.94,1.64.493.707.74,1.66.74,2.86,0,1.12-.307,2.107-.92,2.96-.614.854-1.467,1.52-2.56,2-1.094.48-2.347.72-3.76.72Z"/>
    <path d="M320.147,34V4.799h3.12v15.16h-.88c.293-1.093.713-2,1.26-2.72.546-.72,1.16-1.293,1.84-1.72.68-.426,1.38-.726,2.1-.9.72-.173,1.4-.26,2.04-.26,2.16,0,3.913.694,5.26,2.08,1.346,1.387,2.02,3.467,2.02,6.24v11.32h-3.24v-10.84c0-2.053-.46-3.54-1.38-4.46-.92-.92-2.087-1.38-3.5-1.38-.987,0-1.887.227-2.7.68-.813.454-1.467,1.114-1.96,1.98-.494.867-.74,1.94-.74,3.22v10.8h-3.24Z"/>
    <path d="M343.788,34v-17.88l1.44,1.44h-5.16v-2.8h6.96v19.24h-3.24ZM343.668,10.52v-4.64h3.52v4.64h-3.52Z"/>
    <path d="M353.028,42V14.759h3.04v5.08l-.6-.68c.693-1.466,1.693-2.633,3-3.5,1.306-.866,2.8-1.3,4.48-1.3,1.733,0,3.28.414,4.64,1.24,1.36.827,2.433,1.974,3.22,3.44.787,1.467,1.18,3.16,1.18,5.08v.36c0,1.974-.387,3.7-1.16,5.18s-1.84,2.64-3.2,3.48c-1.36.84-2.92,1.26-4.68,1.26-1.627,0-3.08-.413-4.36-1.24-1.28-.826-2.267-1.946-2.96-3.36l.64-.72v12.92h-3.24ZM362.468,31.52c1.2,0,2.273-.293,3.22-.88.946-.586,1.693-1.406,2.24-2.46.546-1.053.82-2.287.82-3.7v-.36c0-1.386-.274-2.593-.82-3.62-.547-1.026-1.293-1.826-2.24-2.4-.947-.573-2.02-.86-3.22-.86s-2.287.3-3.26.9c-.974.6-1.74,1.434-2.3,2.5-.56,1.067-.84,2.32-.84,3.76,0,1.414.28,2.66.84,3.74s1.326,1.914,2.3,2.5c.973.587,2.06.88,3.26.88Z"/>
    <path d="M390.707,34c-1.28,0-2.34-.42-3.18-1.26-.84-.84-1.26-1.9-1.26-3.18V10.439c0-1.28.42-2.34,1.26-3.18.84-.84,1.9-1.26,3.18-1.26h12.92v3.12h-11.84c-.613,0-1.126.207-1.54.62-.414.414-.62.914-.62,1.5v17.52c0,.587.206,1.087.62,1.5.413.414.926.62,1.54.62h11.84v3.12h-12.92ZM387.987,21.479v-3h14.8v3h-14.8Z"/>
    <path d="M406.347,34l6.84-9.6-6.64-9.64h3.8l5,7.6,5-7.6h3.72l-6.64,9.64,6.76,9.6h-3.84l-5.12-7.48-5.08,7.48h-3.8Z"/>
    <path d="M435.627,34.399c-1.894,0-3.58-.413-5.06-1.24-1.48-.826-2.647-1.98-3.5-3.46-.854-1.48-1.28-3.18-1.28-5.1v-.48c0-1.92.426-3.613,1.28-5.08.853-1.466,2.02-2.613,3.5-3.44,1.48-.826,3.166-1.24,5.06-1.24,1.413,0,2.7.254,3.86.76,1.16.507,2.14,1.24,2.94,2.2l-2,2c-.614-.64-1.32-1.126-2.12-1.46-.8-.333-1.694-.5-2.68-.5-1.254,0-2.387.28-3.4.84-1.014.56-1.807,1.347-2.38,2.36-.574,1.014-.86,2.2-.86,3.56v.48c0,1.36.293,2.547.88,3.56.586,1.014,1.38,1.807,2.38,2.38,1,.574,2.14.86,3.42.86.96,0,1.846-.153,2.66-.46.813-.306,1.54-.793,2.18-1.46l1.96,1.96c-.773.934-1.753,1.66-2.94,2.18-1.187.52-2.487.78-3.9.78Z"/>
    <path d="M454.427,34.399c-1.894,0-3.567-.42-5.02-1.26-1.454-.84-2.587-2.006-3.4-3.5-.813-1.493-1.22-3.213-1.22-5.16v-.4c0-1.866.373-3.526,1.12-4.98.747-1.453,1.8-2.606,3.16-3.46,1.36-.853,2.933-1.28,4.72-1.28,1.84,0,3.413.454,4.72,1.36,1.306.907,2.273,2.187,2.9,3.84.626,1.654.807,3.587.54,5.8h-14.84v-2.64h13.12l-1.44,1.4c.186-1.466.086-2.713-.3-3.74-.387-1.026-.98-1.82-1.78-2.38-.8-.56-1.76-.84-2.88-.84-1.227,0-2.273.293-3.14.88-.867.587-1.534,1.394-2,2.42-.467,1.027-.7,2.234-.7,3.62v.4c0,1.334.266,2.527.8,3.58.533,1.054,1.293,1.88,2.28,2.48.986.6,2.16.9,3.52.9,1.013,0,1.906-.126,2.68-.38.773-.253,1.453-.633,2.04-1.14l1.84,2c-.747.8-1.7,1.414-2.86,1.84-1.16.426-2.447.64-3.86.64Z"/>
    <path d="M471.747,34c-1.547,0-2.8-.446-3.76-1.34-.96-.893-1.44-2.086-1.44-3.58V6.12l1.44,1.44h-4.96v-2.76h6.76v24.32c0,.614.2,1.12.6,1.52.4.4.906.6,1.52.6h1.84v2.76h-2Z"/>
    <path d="M482.587,34c-1.547,0-2.8-.446-3.76-1.34-.96-.893-1.44-2.086-1.44-3.58V6.12l1.44,1.44h-4.96v-2.76h6.76v24.32c0,.614.2,1.12.6,1.52.4.4.906.6,1.52.6h1.84v2.76h-2Z"/>
    <path d="M496.226,34.399c-1.894,0-3.567-.42-5.02-1.26-1.454-.84-2.587-2.006-3.4-3.5-.813-1.493-1.22-3.213-1.22-5.16v-.4c0-1.866.373-3.526,1.12-4.98.747-1.453,1.8-2.606,3.16-3.46,1.36-.853,2.933-1.28,4.72-1.28,1.84,0,3.413.454,4.72,1.36,1.306.907,2.273,2.187,2.9,3.84.626,1.654.807,3.587.54,5.8h-14.84v-2.64h13.12l-1.44,1.4c.186-1.466.086-2.713-.3-3.74-.387-1.026-.98-1.82-1.78-2.38-.8-.56-1.76-.84-2.88-.84-1.227,0-2.273.293-3.14.88-.867.587-1.534,1.394-2,2.42-.467,1.027-.7,2.234-.7,3.62v.4c0,1.334.266,2.527.8,3.58.533,1.054,1.293,1.88,2.28,2.48.986.6,2.16.9,3.52.9,1.013,0,1.906-.126,2.68-.38.773-.253,1.453-.633,2.04-1.14l1.84,2c-.747.8-1.7,1.414-2.86,1.84-1.16.426-2.447.64-3.86.64Z"/>
    <path d="M508.386,34V14.759h3.12v5.2h-.88c.293-1.093.713-2,1.26-2.72.546-.72,1.16-1.293,1.84-1.72.68-.426,1.38-.726,2.1-.9.72-.173,1.4-.26,2.04-.26,2.16,0,3.913.694,5.26,2.08,1.346,1.387,2.02,3.467,2.02,6.24v11.32h-3.24v-10.84c0-2.053-.46-3.54-1.38-4.46-.92-.92-2.087-1.38-3.5-1.38-.987,0-1.887.227-2.7.68-.813.454-1.467,1.114-1.96,1.98-.494.867-.74,1.94-.74,3.22v10.8h-3.24Z"/>
    <path d="M539.426,34.399c-1.894,0-3.58-.413-5.06-1.24-1.48-.826-2.647-1.98-3.5-3.46-.854-1.48-1.28-3.18-1.28-5.1v-.48c0-1.92.426-3.613,1.28-5.08.853-1.466,2.02-2.613,3.5-3.44,1.48-.826,3.166-1.24,5.06-1.24,1.413,0,2.7.254,3.86.76,1.16.507,2.14,1.24,2.94,2.2l-2,2c-.614-.64-1.32-1.126-2.12-1.46-.8-.333-1.694-.5-2.68-.5-1.254,0-2.387.28-3.4.84-1.014.56-1.807,1.347-2.38,2.36-.574,1.014-.86,2.2-.86,3.56v.48c0,1.36.293,2.547.88,3.56.586,1.014,1.38,1.807,2.38,2.38,1,.574,2.14.86,3.42.86.96,0,1.846-.153,2.66-.46.813-.306,1.54-.793,2.18-1.46l1.96,1.96c-.773.934-1.753,1.66-2.94,2.18-1.187.52-2.487.78-3.9.78Z"/>
    <path d="M558.226,34.399c-1.894,0-3.567-.42-5.02-1.26-1.454-.84-2.587-2.006-3.4-3.5-.813-1.493-1.22-3.213-1.22-5.16v-.4c0-1.866.373-3.526,1.12-4.98.747-1.453,1.8-2.606,3.16-3.46,1.36-.853,2.933-1.28,4.72-1.28,1.84,0,3.413.454,4.72,1.36,1.306.907,2.273,2.187,2.9,3.84.626,1.654.807,3.587.54,5.8h-14.84v-2.64h13.12l-1.44,1.4c.186-1.466.086-2.713-.3-3.74-.387-1.026-.98-1.82-1.78-2.38-.8-.56-1.76-.84-2.88-.84-1.227,0-2.273.293-3.14.88-.867.587-1.534,1.394-2,2.42-.467,1.027-.7,2.234-.7,3.62v.4c0,1.334.266,2.527.8,3.58.533,1.054,1.293,1.88,2.28,2.48.986.6,2.16.9,3.52.9,1.013,0,1.906-.126,2.68-.38.773-.253,1.453-.633,2.04-1.14l1.84,2c-.747.8-1.7,1.414-2.86,1.84-1.16.426-2.447.64-3.86.64Z"/>
    <path d="M80.058,68v-19.6h6.384c1.362,0,2.622.229,3.78.686,1.157.458,2.165,1.106,3.024,1.946.858.84,1.526,1.834,2.002,2.982.476,1.148.714,2.413.714,3.794v.336c0,1.456-.243,2.782-.728,3.976-.486,1.195-1.158,2.235-2.016,3.122-.859.887-1.867,1.568-3.024,2.044-1.158.476-2.408.714-3.752.714h-6.384ZM81.934,67.02l-.784-.784h5.18c1.475,0,2.795-.345,3.962-1.036,1.166-.69,2.086-1.643,2.758-2.856s1.008-2.613,1.008-4.2v-.336c0-1.512-.332-2.842-.994-3.99-.663-1.148-1.578-2.044-2.744-2.688-1.167-.644-2.497-.966-3.99-.966h-5.18l.784-.784v17.64Z"/>
    <path d="M105.315,68.279c-1.307,0-2.464-.294-3.472-.882s-1.792-1.4-2.352-2.436-.84-2.235-.84-3.598v-.28c0-1.306.256-2.464.77-3.472.513-1.008,1.241-1.806,2.184-2.394.942-.588,2.02-.882,3.234-.882,1.25,0,2.324.308,3.22.924.896.616,1.559,1.484,1.988,2.604.429,1.12.55,2.427.364,3.92h-10.472v-1.484h9.52l-.784.784c.13-1.064.046-1.983-.252-2.758-.299-.774-.756-1.372-1.372-1.792-.616-.42-1.344-.63-2.184-.63-.915,0-1.704.22-2.366.658-.663.439-1.176,1.045-1.54,1.82-.364.775-.546,1.676-.546,2.702v.28c0,1.027.206,1.937.616,2.73s.989,1.414,1.736,1.862c.747.448,1.624.672,2.632.672.709,0,1.358-.093,1.946-.28s1.087-.458,1.498-.812l1.008,1.148c-.504.504-1.148.896-1.932,1.176-.784.28-1.652.42-2.604.42Z"/>
    <path d="M117.299,68l-5.404-13.384h1.848l4.844,12.18h-.7l4.844-12.18h1.848l-5.404,13.384h-1.876Z"/>
    <path d="M132.726,68.279c-1.307,0-2.464-.294-3.472-.882s-1.792-1.4-2.352-2.436-.84-2.235-.84-3.598v-.28c0-1.306.256-2.464.77-3.472.513-1.008,1.241-1.806,2.184-2.394.942-.588,2.02-.882,3.234-.882,1.25,0,2.324.308,3.22.924.896.616,1.559,1.484,1.988,2.604.429,1.12.55,2.427.364,3.92h-10.472v-1.484h9.52l-.784.784c.13-1.064.046-1.983-.252-2.758-.299-.774-.756-1.372-1.372-1.792-.616-.42-1.344-.63-2.184-.63-.915,0-1.704.22-2.366.658-.663.439-1.176,1.045-1.54,1.82-.364.775-.546,1.676-.546,2.702v.28c0,1.027.206,1.937.616,2.73s.989,1.414,1.736,1.862c.747.448,1.624.672,2.632.672.709,0,1.358-.093,1.946-.28s1.087-.458,1.498-.812l1.008,1.148c-.504.504-1.148.896-1.932,1.176-.784.28-1.652.42-2.604.42Z"/>
    <path d="M144.654,68c-1.008,0-1.83-.298-2.464-.896-.635-.597-.952-1.39-.952-2.38v-16.408l.784.784h-3.36v-1.54h4.368v17.192c0,.486.158.892.476,1.218.317.327.728.49,1.232.49h1.204v1.54h-1.288Z"/>
    <path d="M153.922,68.279c-1.27,0-2.398-.294-3.388-.882-.99-.588-1.764-1.4-2.324-2.436s-.84-2.235-.84-3.598v-.252c0-1.325.28-2.496.84-3.514.56-1.017,1.334-1.815,2.324-2.394.989-.579,2.118-.868,3.388-.868,1.25,0,2.371.285,3.36.854.989.57,1.764,1.363,2.324,2.38.56,1.018.84,2.18.84,3.486v.308c0,1.363-.28,2.562-.84,3.598s-1.335,1.848-2.324,2.436c-.99.588-2.11.882-3.36.882ZM153.922,66.684c.933,0,1.759-.229,2.478-.686.718-.457,1.278-1.083,1.68-1.876.401-.793.602-1.712.602-2.758v-.308c0-1.008-.201-1.895-.602-2.66-.402-.765-.962-1.367-1.68-1.806-.719-.438-1.545-.658-2.478-.658s-1.759.224-2.478.672c-.719.448-1.283,1.06-1.694,1.834-.411.775-.616,1.666-.616,2.674v.252c0,1.046.206,1.965.616,2.758s.975,1.419,1.694,1.876c.719.458,1.544.686,2.478.686Z"/>
    <path d="M163.946,73.6v-18.984h1.68v3.696l-.308-.364c.466-1.102,1.171-1.979,2.114-2.632.942-.653,2.02-.98,3.234-.98s2.291.29,3.234.868c.942.579,1.685,1.377,2.226,2.394.541,1.018.812,2.188.812,3.514v.252c0,1.363-.266,2.562-.798,3.598-.532,1.036-1.27,1.848-2.212,2.436-.943.588-2.03.882-3.262.882-1.195,0-2.254-.317-3.178-.952-.924-.634-1.62-1.484-2.086-2.548l.336-.392v9.212h-1.792ZM170.442,66.684c.915,0,1.727-.224,2.436-.672.709-.448,1.264-1.068,1.666-1.862.401-.793.602-1.722.602-2.786v-.252c0-1.026-.201-1.927-.602-2.702-.402-.774-.957-1.381-1.666-1.82-.709-.438-1.521-.658-2.436-.658s-1.736.229-2.464.686-1.302,1.087-1.722,1.89c-.42.803-.63,1.736-.63,2.8s.21,2.002.63,2.814.994,1.442,1.722,1.89c.728.448,1.549.672,2.464.672Z"/>
    <path d="M180.437,68v-13.384h1.708v3.444l-.42-.028c.28-.934.681-1.666,1.204-2.198.522-.532,1.106-.915,1.75-1.148s1.274-.35,1.89-.35c1.176,0,2.17.308,2.982.924.812.616,1.358,1.568,1.638,2.856h-.644c.317-.971.761-1.731,1.33-2.282.569-.55,1.19-.938,1.862-1.162.672-.224,1.306-.336,1.904-.336,1.474,0,2.66.472,3.556,1.414.896.943,1.344,2.404,1.344,4.382v7.868h-1.736v-7.672c0-1.549-.327-2.66-.98-3.332-.654-.672-1.512-1.008-2.576-1.008-1.083,0-1.998.369-2.744,1.106s-1.12,1.806-1.12,3.206v7.7h-1.764v-7.672c0-1.549-.322-2.66-.966-3.332s-1.498-1.008-2.562-1.008c-1.102,0-2.026.369-2.772,1.106-.747.737-1.12,1.806-1.12,3.206v7.7h-1.764Z"/>
    <path d="M210.537,68.279c-1.307,0-2.464-.294-3.472-.882s-1.792-1.4-2.352-2.436-.84-2.235-.84-3.598v-.28c0-1.306.256-2.464.77-3.472.513-1.008,1.241-1.806,2.184-2.394.942-.588,2.02-.882,3.234-.882,1.25,0,2.324.308,3.22.924.896.616,1.559,1.484,1.988,2.604.429,1.12.55,2.427.364,3.92h-10.472v-1.484h9.52l-.784.784c.13-1.064.046-1.983-.252-2.758-.299-.774-.756-1.372-1.372-1.792-.616-.42-1.344-.63-2.184-.63-.915,0-1.704.22-2.366.658-.663.439-1.176,1.045-1.54,1.82-.364.775-.546,1.676-.546,2.702v.28c0,1.027.206,1.937.616,2.73s.989,1.414,1.736,1.862c.747.448,1.624.672,2.632.672.709,0,1.358-.093,1.946-.28s1.087-.458,1.498-.812l1.008,1.148c-.504.504-1.148.896-1.932,1.176-.784.28-1.652.42-2.604.42Z"/>
    <path d="M219.077,68v-13.384h1.708v3.584h-.476c.206-.747.5-1.367.882-1.862.382-.494.816-.891,1.302-1.19.485-.298.98-.508,1.484-.63.504-.121.98-.182,1.428-.182,1.512,0,2.744.481,3.696,1.442.952.962,1.428,2.432,1.428,4.41v7.812h-1.792v-7.588c0-1.568-.355-2.697-1.064-3.388-.71-.69-1.606-1.036-2.688-1.036-.747,0-1.428.168-2.044.504-.616.336-1.116.831-1.498,1.484-.383.653-.574,1.475-.574,2.464v7.56h-1.792Z"/>
    <path d="M232.826,56.184v-1.568h7.98v1.568h-7.98ZM238.817,68c-.448,0-.882-.065-1.302-.196-.42-.13-.794-.336-1.12-.616-.327-.28-.583-.63-.77-1.05-.187-.42-.28-.929-.28-1.526v-13.328h1.764v13.44c0,.504.168.919.504,1.246s.737.49,1.204.49h1.988v1.54h-1.988Z"/>
    <path d="M250.941,68v-19.6h5.824c1.288,0,2.408.229,3.36.686.952.458,1.694,1.116,2.226,1.974.532.859.798,1.895.798,3.108s-.266,2.25-.798,3.108c-.532.859-1.274,1.517-2.226,1.974-.952.458-2.072.686-3.36.686h-4.928v-1.596h5.012c1.325,0,2.403-.373,3.234-1.12s1.246-1.764,1.246-3.052c0-1.269-.416-2.272-1.246-3.01s-1.909-1.106-3.234-1.106h-4.816l.784-.756v18.704h-1.876Z"/>
    <path d="M266.005,68v-13.384h1.736v3.192l-.28-.028c.168-.858.443-1.516.826-1.974.382-.458.849-.774,1.4-.952.55-.177,1.152-.266,1.806-.266h1.148v1.764h-1.288c-1.102,0-1.97.28-2.604.84-.635.56-.952,1.456-.952,2.688v8.12h-1.792Z"/>
    <path d="M280.341,68.279c-1.27,0-2.398-.294-3.388-.882-.99-.588-1.764-1.4-2.324-2.436s-.84-2.235-.84-3.598v-.252c0-1.325.28-2.496.84-3.514.56-1.017,1.334-1.815,2.324-2.394.989-.579,2.118-.868,3.388-.868,1.25,0,2.371.285,3.36.854.989.57,1.764,1.363,2.324,2.38.56,1.018.84,2.18.84,3.486v.308c0,1.363-.28,2.562-.84,3.598s-1.335,1.848-2.324,2.436c-.99.588-2.11.882-3.36.882ZM280.341,66.684c.933,0,1.759-.229,2.478-.686.718-.457,1.278-1.083,1.68-1.876.401-.793.602-1.712.602-2.758v-.308c0-1.008-.201-1.895-.602-2.66-.402-.765-.962-1.367-1.68-1.806-.719-.438-1.545-.658-2.478-.658s-1.759.224-2.478.672c-.719.448-1.283,1.06-1.694,1.834-.411.775-.616,1.666-.616,2.674v.252c0,1.046.206,1.965.616,2.758s.975,1.419,1.694,1.876c.719.458,1.544.686,2.478.686Z"/>
    <path d="M288.909,73.6v-1.512h7.924c.728,0,1.302-.182,1.722-.546s.63-.864.63-1.498c0-.598-.21-1.064-.63-1.4s-.994-.504-1.722-.504h-4.256c-.69,0-1.213-.163-1.568-.49-.355-.326-.551-.732-.588-1.218-.038-.485.065-.961.308-1.428l1.204-2.408,1.54.42-1.12,2.156c-.094.206-.154.425-.182.658s.032.434.182.602c.149.168.41.252.784.252h3.92c1.157,0,2.082.29,2.772.868.69.579,1.036,1.41,1.036,2.492,0,.709-.159,1.33-.476,1.862-.317.532-.766.947-1.344,1.246-.579.298-1.27.448-2.072.448h-8.064ZM295.041,64.023c-1.083,0-2.049-.205-2.898-.616-.85-.411-1.517-.98-2.002-1.708s-.728-1.549-.728-2.464v-.252c0-.914.243-1.722.728-2.422s1.152-1.246,2.002-1.638c.849-.392,1.815-.588,2.898-.588,1.101,0,2.076.196,2.926.588.849.392,1.512.929,1.988,1.61.476.682.714,1.47.714,2.366v.336c0,.915-.238,1.736-.714,2.464-.476.728-1.139,1.297-1.988,1.708-.85.411-1.825.616-2.926.616ZM295.041,62.596c1.138,0,2.072-.317,2.8-.952.728-.634,1.092-1.437,1.092-2.408v-.252c0-.933-.364-1.694-1.092-2.282-.728-.588-1.662-.882-2.8-.882s-2.072.299-2.8.896c-.728.598-1.092,1.372-1.092,2.324v.196c0,.971.364,1.774,1.092,2.408.728.635,1.661.952,2.8.952ZM295.264,55.512l1.988-4.06h1.792l-2.156,4.06h-1.624Z"/>
    <path d="M304.056,68v-13.384h1.736v3.192l-.28-.028c.168-.858.443-1.516.826-1.974.382-.458.849-.774,1.4-.952.55-.177,1.152-.266,1.806-.266h1.148v1.764h-1.288c-1.102,0-1.97.28-2.604.84-.635.56-.952,1.456-.952,2.688v8.12h-1.792Z"/>
    <path d="M316.937,68.279c-1.568,0-2.814-.359-3.738-1.078s-1.386-1.666-1.386-2.842c0-.765.206-1.451.616-2.058.41-.606,1.017-1.087,1.82-1.442.803-.354,1.764-.532,2.884-.532,1.549,0,2.748.346,3.598,1.036.849.691,1.274,1.606,1.274,2.744h-.336c0,1.307-.392,2.329-1.176,3.066-.784.738-1.97,1.106-3.556,1.106ZM321.053,68l-.028-4.872-.196-.532v-3.276c0-1.157-.29-2.006-.868-2.548-.579-.541-1.419-.812-2.52-.812-.728,0-1.48.14-2.254.42-.774.28-1.452.71-2.03,1.288l-.868-1.26c.634-.69,1.414-1.208,2.338-1.554.924-.345,1.88-.518,2.87-.518,1.008,0,1.895.182,2.66.546.765.364,1.362.91,1.792,1.638.429.728.644,1.652.644,2.772v4.256c0,.747.004,1.489.014,2.226.009.738.032,1.479.07,2.226h-1.624ZM317.273,66.908c1.12,0,1.992-.238,2.618-.714s.938-1.096.938-1.862c0-.784-.312-1.404-.938-1.862s-1.507-.686-2.646-.686c-1.12,0-2.007.229-2.66.686-.654.458-.98,1.078-.98,1.862,0,.766.327,1.386.98,1.862.653.476,1.549.714,2.688.714Z"/>
    <path d="M326.877,68v-13.384h1.708v3.444l-.42-.028c.28-.934.681-1.666,1.204-2.198.522-.532,1.106-.915,1.75-1.148s1.274-.35,1.89-.35c1.176,0,2.17.308,2.982.924.812.616,1.358,1.568,1.638,2.856h-.644c.317-.971.761-1.731,1.33-2.282.569-.55,1.19-.938,1.862-1.162.672-.224,1.306-.336,1.904-.336,1.474,0,2.66.472,3.556,1.414.896.943,1.344,2.404,1.344,4.382v7.868h-1.736v-7.672c0-1.549-.327-2.66-.98-3.332-.654-.672-1.512-1.008-2.576-1.008-1.083,0-1.998.369-2.744,1.106s-1.12,1.806-1.12,3.206v7.7h-1.764v-7.672c0-1.549-.322-2.66-.966-3.332s-1.498-1.008-2.562-1.008c-1.102,0-2.026.369-2.772,1.106-.747.737-1.12,1.806-1.12,3.206v7.7h-1.764Z"/>
  </g>
</svg>