<?xml version="1.0" encoding="UTF-8"?>
<svg id="Layer_1" data-name="Layer 1" xmlns="http://www.w3.org/2000/svg" viewBox="0 0 566.944 73.88">
  <g id="Layer_1-2" data-name="Layer 1">
    <path d="M66.24,16.12c-.44-.462-1.167-.462-1.608,0-.495.501-.437,1.365.179,1.778.376.253.878.252,1.252,0,.614-.413.674-1.277.178-1.779M64.77,12.203c-3.041-.721-5.772,2.044-5.057,5.123.361,1.568,1.592,2.812,3.14,3.18,3.041.724,5.773-2.046,5.058-5.124-.365-1.568-1.594-2.811-3.141-3.178M44.696,29.538c-1.982-.743-2.747-.594-5.281-.559-1.756.023-1.819-.037-3.823-.037-.619,0-.848,3.004,1.393,3.628.981.275,2.04.446,2.777,1.211.328.337.511.846-.244.846h-5.56c-.974,0-1.893.024-2.636-.614-1.123-.96-1.647-2.283-2.209-3.595-.582-1.364-1.212-2.707-1.95-3.993-1.469-2.556-3.41-4.869-6.016-6.283-3.252-1.767-8.771-2.641-13.142.756-4.606,3.583-3.618,10.291.41,13.572,1.591,1.297,3.665,1.84,5.704,1.718,3.983-.235,6.921-3.208,6.192-6.868-.243-1.226-.949-2.385-2.011-3.016-.756-.447-1.652-.608-2.528-.61-.941-.002-1.941.195-2.618.858-.8.785-.93,2.17-.291,3.095.355.511.931.943.833,1.61-.067.452-.434.788-.874.885-.747.169-1.431-.261-1.934-.788-1.296-1.351-1.702-3.501-.989-5.24.931-2.278,3.523-3.529,5.956-3.449,3.135.107,6.093,2.202,7.377,5.1,1.287,2.9.901,6.459-.87,9.083-3.939,5.829-13.664,5.14-18.182.224C1.345,33.992-.197,30.999.02,25.427c.152-3.938,2.395-7.817,5.256-10.545,4.66-4.447,10.797-7.488,17.042-8.801,3.794-.792,7.709-.979,11.558-.59,3.395.342,6.771.972,10.034,1.995,1.619.511,3.212,1.118,4.754,1.834,1.359.632,3.142,1.321,4.2,2.413,0-1.976-.077-4.148-.077-5.66,0-.578.599-.968,1.112-.721,2.208,1.039,7.44,3.542,10.929,5.157,4.676,2.162,5.006,7.267,5.17,11.792.004.1.008.205-.036.294-.148.31-.936.227-1.225.231-.558.006-1.404.002-1.961.026-1.117.051-2.204.029-3.319-.026-2.065-.102-4.059-1.033-5.397-2.167-.131-.113-.564-.237-.767-.023-.211.22-.138.565-.024.684.766.783,1.596,1.289,2.563,1.796,1.229.638,2.567.8,3.924.88,1.454.087,2.918.066,4.369-.085,1.21-.125,1.523-.209.329.69-1.05.79-2.269,1.358-3.504,1.779-1.771.61-3.643.912-5.51.965-1.132.031-2.265-.029-3.388-.176-.581-.073-1.157-.181-1.741-.24-.473-.049-.964-.138-1.436-.036-.428.095-.823.33-1.094.683-.369.488-.497,1.829-.283,2.412.413,1.125,1.319,1.781,2.276,2.358,1.038.625,2.402.836,2.667,2.032.056.248-2.149.255-2.399.25h-2.934s-1.595.039-2.216-.189c-.021-.006-.036-.016-.056-.024-.338-.185-.485-.642-.598-.988-.164-.489-.452-.978-.8-1.484-.663-.956-1.682-2.005-2.741-2.402M66.913,16.351c0,1.742-1.391,3.153-3.111,3.153s-3.11-1.41-3.11-3.153,1.392-3.15,3.11-3.15,3.111,1.41,3.111,3.15" style="fill: #30ba78;"/>
  </g>
  <g>
    <path d="M88.15,34.56c-2.08,0-3.895-.387-5.44-1.16-1.547-.773-2.867-1.8-3.96-3.08l3.04-3.04c1.093,1.12,2.16,1.92,3.2,2.4s2.146.72,3.319.72c1.573,0,2.807-.366,3.7-1.1.894-.733,1.34-1.686,1.34-2.86,0-.906-.253-1.646-.76-2.22-.507-.573-1.174-1.04-2-1.4-.827-.36-1.74-.68-2.74-.96-1-.28-1.993-.593-2.979-.94-.987-.346-1.894-.8-2.72-1.36-.827-.56-1.494-1.293-2-2.2-.507-.906-.761-2.04-.761-3.4,0-1.76.4-3.273,1.2-4.54.8-1.266,1.94-2.246,3.42-2.94,1.48-.693,3.193-1.04,5.141-1.04,1.812,0,3.446.32,4.899.96s2.646,1.494,3.58,2.56l-3.12,3.12c-.8-.826-1.627-1.446-2.479-1.86-.854-.414-1.827-.62-2.92-.62-1.467,0-2.641.354-3.521,1.06s-1.32,1.646-1.32,2.82c0,.854.254,1.547.761,2.08.506.534,1.18.954,2.02,1.26.84.307,1.76.587,2.76.84s2.007.554,3.021.9c1.013.347,1.933.8,2.76,1.36.826.56,1.493,1.307,2,2.24.507.934.76,2.12.76,3.56,0,1.787-.427,3.34-1.279,4.66-.854,1.32-2.047,2.347-3.58,3.08-1.534.733-3.314,1.1-5.34,1.1Z" style="fill: #f2f2f2;"/>
    <path d="M113.51,34.56c-3.279,0-5.906-.846-7.88-2.54-1.974-1.693-2.96-4.26-2.96-7.7V6h4.92v17.92c0,2.027.533,3.547,1.601,4.56,1.066,1.014,2.506,1.52,4.319,1.52s3.261-.506,4.341-1.52c1.08-1.013,1.62-2.533,1.62-4.56V6h4.92v18.32c0,2.267-.454,4.16-1.36,5.68-.907,1.52-2.174,2.66-3.8,3.42-1.627.76-3.534,1.14-5.721,1.14Z" style="fill: #f2f2f2;"/>
    <path d="M137.91,34.56c-2.08,0-3.895-.387-5.44-1.16-1.547-.773-2.867-1.8-3.96-3.08l3.04-3.04c1.093,1.12,2.16,1.92,3.2,2.4s2.146.72,3.319.72c1.573,0,2.807-.366,3.7-1.1.894-.733,1.34-1.686,1.34-2.86,0-.906-.253-1.646-.76-2.22-.507-.573-1.174-1.04-2-1.4-.827-.36-1.74-.68-2.74-.96-1-.28-1.993-.593-2.979-.94-.987-.346-1.894-.8-2.72-1.36-.827-.56-1.494-1.293-2-2.2-.507-.906-.761-2.04-.761-3.4,0-1.76.4-3.273,1.2-4.54.8-1.266,1.94-2.246,3.42-2.94,1.48-.693,3.193-1.04,5.141-1.04,1.812,0,3.446.32,4.899.96s2.646,1.494,3.58,2.56l-3.12,3.12c-.8-.826-1.627-1.446-2.479-1.86-.854-.414-1.827-.62-2.92-.62-1.467,0-2.641.354-3.521,1.06s-1.32,1.646-1.32,2.82c0,.854.254,1.547.761,2.08.506.534,1.18.954,2.02,1.26.84.307,1.76.587,2.76.84s2.007.554,3.021.9c1.013.347,1.933.8,2.76,1.36.826.56,1.493,1.307,2,2.24.507.934.76,2.12.76,3.56,0,1.787-.427,3.34-1.279,4.66-.854,1.32-2.047,2.347-3.58,3.08-1.534.733-3.314,1.1-5.34,1.1Z" style="fill: #f2f2f2;"/>
    <path d="M157.069,34c-1.359,0-2.474-.44-3.34-1.32-.867-.88-1.3-2-1.3-3.36V10.68c0-1.36.433-2.48,1.3-3.36.866-.88,1.98-1.32,3.34-1.32h13.641v4.48h-12c-.4,0-.74.14-1.021.42-.28.28-.42.62-.42,1.02v16.16c0,.4.14.74.42,1.02.28.28.62.42,1.021.42h12v4.48h-13.641ZM154.789,22.08v-4.28h15.08v4.28h-15.08Z" style="fill: #f2f2f2;"/>
    <path d="M189.469,34c-1.307,0-2.374-.42-3.2-1.26-.827-.84-1.24-1.9-1.24-3.18V6h3.4v22.64c0,.614.206,1.12.62,1.52.413.4.913.6,1.5.6h11.16v3.24h-12.24Z" style="fill: #f2f2f2;"/>
    <path d="M212.629,34.399c-1.895,0-3.567-.42-5.021-1.26-1.453-.84-2.587-2.006-3.399-3.5-.813-1.493-1.22-3.213-1.22-5.16v-.4c0-1.866.373-3.526,1.119-4.98.747-1.453,1.801-2.606,3.16-3.46,1.36-.853,2.934-1.28,4.72-1.28,1.84,0,3.413.454,4.721,1.36,1.306.907,2.272,2.187,2.899,3.84.626,1.654.807,3.587.54,5.8h-14.84v-2.64h13.12l-1.44,1.4c.187-1.466.087-2.713-.3-3.74-.387-1.026-.979-1.82-1.78-2.38-.8-.56-1.76-.84-2.88-.84-1.227,0-2.273.293-3.14.88-.867.587-1.534,1.394-2,2.42-.467,1.027-.7,2.234-.7,3.62v.4c0,1.334.267,2.527.8,3.58.533,1.054,1.293,1.88,2.28,2.48.986.6,2.16.9,3.52.9,1.014,0,1.906-.126,2.681-.38.772-.253,1.453-.633,2.04-1.14l1.84,2c-.747.8-1.7,1.414-2.86,1.84-1.16.426-2.446.64-3.859.64Z" style="fill: #f2f2f2;"/>
    <path d="M230.708,34.399c-2.267,0-4.066-.52-5.4-1.56-1.333-1.04-2-2.413-2-4.12,0-1.093.301-2.093.9-3,.6-.906,1.48-1.626,2.64-2.16,1.16-.533,2.566-.8,4.221-.8,2.213,0,3.933.5,5.16,1.5,1.226,1,1.84,2.327,1.84,3.98h-.641c0,1.974-.56,3.494-1.68,4.56-1.12,1.067-2.8,1.6-5.04,1.6ZM236.388,34v-7.28l-.399-1.08v-4.08c0-1.44-.374-2.513-1.12-3.22-.747-.706-1.867-1.06-3.36-1.06-.986,0-2.026.2-3.12.6s-2.066.987-2.92,1.76l-1.52-2.28c.933-.96,2.08-1.7,3.439-2.22,1.36-.52,2.773-.78,4.24-.78,1.493,0,2.807.267,3.94.8,1.133.534,2.02,1.327,2.66,2.38.64,1.054.96,2.38.96,3.98v6.16c0,1.067.006,2.12.02,3.16.013,1.04.046,2.094.1,3.16h-2.92ZM231.308,31.959c1.44,0,2.58-.3,3.421-.9.84-.6,1.26-1.406,1.26-2.42s-.414-1.813-1.24-2.4c-.827-.586-1.974-.88-3.44-.88s-2.626.294-3.479.88-1.28,1.387-1.28,2.4.434,1.82,1.3,2.42,2.021.9,3.46.9Z" style="fill: #f2f2f2;"/>
    <path d="M252.748,34.399c-1.733,0-3.287-.42-4.66-1.26-1.373-.84-2.446-2-3.22-3.48s-1.16-3.207-1.16-5.18v-.36c0-1.92.394-3.613,1.181-5.08.786-1.466,1.859-2.613,3.22-3.44,1.36-.826,2.906-1.24,4.64-1.24,1.653,0,3.113.414,4.38,1.24,1.267.827,2.247,1.947,2.94,3.36l-.64.76V4.799h3.239v29.2h-2.92v-5.2l.561.64c-.694,1.547-1.694,2.76-3,3.64-1.308.88-2.827,1.32-4.561,1.32ZM253.188,31.52c1.253,0,2.366-.293,3.34-.88.973-.586,1.733-1.42,2.28-2.5.546-1.08.819-2.326.819-3.74,0-1.44-.273-2.693-.819-3.76-.547-1.066-1.308-1.9-2.28-2.5-.974-.6-2.087-.9-3.34-.9-1.2,0-2.274.287-3.22.86-.947.574-1.688,1.374-2.221,2.4-.533,1.027-.8,2.234-.8,3.62v.36c0,1.414.267,2.647.8,3.7.533,1.054,1.273,1.874,2.221,2.46.945.587,2.02.88,3.22.88Z" style="fill: #f2f2f2;"/>
    <path d="M277.028,34.399c-1.895,0-3.567-.42-5.021-1.26-1.453-.84-2.587-2.006-3.399-3.5-.814-1.493-1.221-3.213-1.221-5.16v-.4c0-1.866.373-3.526,1.12-4.98.746-1.453,1.8-2.606,3.16-3.46,1.36-.853,2.934-1.28,4.72-1.28,1.84,0,3.413.454,4.721,1.36,1.306.907,2.272,2.187,2.899,3.84.626,1.654.807,3.587.54,5.8h-14.84v-2.64h13.12l-1.44,1.4c.187-1.466.087-2.713-.3-3.74-.387-1.026-.979-1.82-1.78-2.38-.8-.56-1.76-.84-2.88-.84-1.227,0-2.273.293-3.14.88-.867.587-1.534,1.394-2,2.42-.467,1.027-.7,2.234-.7,3.62v.4c0,1.334.267,2.527.8,3.58.533,1.054,1.293,1.88,2.28,2.48.986.6,2.16.9,3.52.9,1.014,0,1.906-.126,2.681-.38.772-.253,1.453-.633,2.04-1.14l1.84,2c-.747.8-1.7,1.414-2.86,1.84-1.16.426-2.446.64-3.859.64Z" style="fill: #f2f2f2;"/>
    <path d="M289.188,34V14.759h3.12v4.92l-.44-.04c.187-1.306.554-2.32,1.101-3.04.546-.72,1.22-1.22,2.02-1.5.8-.28,1.681-.42,2.641-.42h1.64v3.2h-1.88c-1.547,0-2.76.38-3.641,1.14-.88.76-1.319,1.954-1.319,3.58v11.4h-3.24Z" style="fill: #f2f2f2;"/>
    <path d="M307.867,34.359c-1.414,0-2.74-.22-3.98-.66-1.24-.44-2.247-1.006-3.02-1.7l1.439-2.24c.721.614,1.58,1.107,2.58,1.48s1.993.56,2.98.56c1.199,0,2.173-.273,2.92-.82.746-.546,1.12-1.26,1.12-2.14,0-.773-.254-1.36-.761-1.76s-1.153-.713-1.939-.94c-.787-.227-1.614-.453-2.48-.68-.866-.226-1.693-.526-2.479-.9-.787-.373-1.427-.906-1.92-1.6-.494-.693-.74-1.64-.74-2.84,0-1.707.633-3.093,1.9-4.16,1.266-1.066,2.966-1.6,5.1-1.6,1.2,0,2.34.18,3.42.54s2.021.834,2.82,1.42l-1.44,2.24c-.693-.506-1.446-.906-2.26-1.2-.813-.293-1.674-.44-2.58-.44-1.146,0-2.08.274-2.8.82-.72.547-1.08,1.26-1.08,2.14,0,.747.253,1.32.76,1.72s1.153.72,1.94.96c.786.24,1.626.474,2.52.7.894.227,1.74.534,2.54.92.8.387,1.446.934,1.94,1.64.493.707.739,1.66.739,2.86,0,1.12-.307,2.107-.92,2.96-.613.854-1.467,1.52-2.56,2-1.094.48-2.347.72-3.76.72Z" style="fill: #f2f2f2;"/>
    <path d="M319.707,34V4.799h3.12v15.16h-.88c.293-1.093.713-2,1.26-2.72.546-.72,1.16-1.293,1.84-1.72.68-.426,1.38-.726,2.101-.9.72-.173,1.399-.26,2.04-.26,2.159,0,3.913.694,5.26,2.08,1.346,1.387,2.02,3.467,2.02,6.24v11.32h-3.24v-10.84c0-2.053-.46-3.54-1.38-4.46-.92-.92-2.087-1.38-3.5-1.38-.986,0-1.887.227-2.699.68-.814.454-1.468,1.114-1.96,1.98-.494.867-.74,1.94-.74,3.22v10.8h-3.24Z" style="fill: #f2f2f2;"/>
    <path d="M343.347,34v-17.88l1.44,1.44h-5.16v-2.8h6.96v19.24h-3.24ZM343.228,10.52v-4.64h3.52v4.64h-3.52Z" style="fill: #f2f2f2;"/>
    <path d="M352.587,42V14.759h3.04v5.08l-.6-.68c.692-1.466,1.692-2.633,3-3.5,1.306-.866,2.8-1.3,4.479-1.3,1.733,0,3.28.414,4.64,1.24,1.36.827,2.434,1.974,3.221,3.44.786,1.467,1.18,3.16,1.18,5.08v.36c0,1.974-.387,3.7-1.16,5.18s-1.84,2.64-3.2,3.48c-1.359.84-2.92,1.26-4.68,1.26-1.627,0-3.08-.413-4.36-1.24-1.279-.826-2.267-1.946-2.96-3.36l.641-.72v12.92h-3.24ZM362.027,31.52c1.199,0,2.272-.293,3.22-.88.946-.586,1.693-1.406,2.24-2.46.546-1.053.819-2.287.819-3.7v-.36c0-1.386-.273-2.593-.819-3.62-.547-1.026-1.294-1.826-2.24-2.4-.947-.573-2.021-.86-3.22-.86s-2.287.3-3.261.9-1.739,1.434-2.3,2.5c-.56,1.067-.84,2.32-.84,3.76,0,1.414.28,2.66.84,3.74.561,1.08,1.326,1.914,2.3,2.5.974.587,2.061.88,3.261.88Z" style="fill: #f2f2f2;"/>
    <path d="M390.266,34c-1.279,0-2.34-.42-3.18-1.26-.84-.84-1.26-1.9-1.26-3.18V10.439c0-1.28.42-2.34,1.26-3.18.84-.84,1.9-1.26,3.18-1.26h12.92v3.12h-11.84c-.613,0-1.127.207-1.54.62s-.62.914-.62,1.5v17.52c0,.587.207,1.087.62,1.5.413.414.927.62,1.54.62h11.84v3.12h-12.92ZM387.546,21.479v-3h14.8v3h-14.8Z" style="fill: #f2f2f2;"/>
    <path d="M405.905,34l6.841-9.6-6.641-9.64h3.8l5,7.6,5-7.6h3.721l-6.641,9.64,6.761,9.6h-3.841l-5.119-7.48-5.08,7.48h-3.801Z" style="fill: #f2f2f2;"/>
    <path d="M435.186,34.399c-1.894,0-3.579-.413-5.06-1.24-1.48-.826-2.646-1.98-3.5-3.46s-1.28-3.18-1.28-5.1v-.48c0-1.92.427-3.613,1.28-5.08.854-1.466,2.02-2.613,3.5-3.44,1.48-.826,3.166-1.24,5.06-1.24,1.413,0,2.7.254,3.86.76,1.16.507,2.14,1.24,2.94,2.2l-2,2c-.614-.64-1.32-1.126-2.12-1.46-.8-.333-1.694-.5-2.681-.5-1.253,0-2.387.28-3.399.84-1.014.56-1.807,1.347-2.38,2.36-.574,1.014-.86,2.2-.86,3.56v.48c0,1.36.293,2.547.88,3.56.587,1.014,1.38,1.807,2.38,2.38,1,.574,2.141.86,3.42.86.96,0,1.847-.153,2.66-.46.813-.306,1.54-.793,2.181-1.46l1.96,1.96c-.774.934-1.754,1.66-2.94,2.18s-2.487.78-3.9.78Z" style="fill: #f2f2f2;"/>
    <path d="M453.986,34.399c-1.895,0-3.567-.42-5.021-1.26-1.453-.84-2.587-2.006-3.399-3.5-.814-1.493-1.221-3.213-1.221-5.16v-.4c0-1.866.373-3.526,1.12-4.98.746-1.453,1.8-2.606,3.16-3.46,1.36-.853,2.934-1.28,4.72-1.28,1.84,0,3.413.454,4.721,1.36,1.306.907,2.272,2.187,2.899,3.84.626,1.654.807,3.587.54,5.8h-14.84v-2.64h13.12l-1.44,1.4c.187-1.466.087-2.713-.3-3.74-.387-1.026-.979-1.82-1.78-2.38-.8-.56-1.76-.84-2.88-.84-1.227,0-2.273.293-3.14.88-.867.587-1.534,1.394-2,2.42-.467,1.027-.7,2.234-.7,3.62v.4c0,1.334.267,2.527.8,3.58.533,1.054,1.293,1.88,2.28,2.48.986.6,2.16.9,3.52.9,1.014,0,1.906-.126,2.681-.38.772-.253,1.453-.633,2.04-1.14l1.84,2c-.747.8-1.7,1.414-2.86,1.84-1.16.426-2.446.64-3.859.64Z" style="fill: #f2f2f2;"/>
    <path d="M471.306,34c-1.547,0-2.8-.446-3.76-1.34-.96-.893-1.44-2.086-1.44-3.58V6.12l1.44,1.44h-4.96v-2.76h6.76v24.32c0,.614.2,1.12.6,1.52.4.4.906.6,1.521.6h1.84v2.76h-2Z" style="fill: #f2f2f2;"/>
    <path d="M482.146,34c-1.547,0-2.8-.446-3.76-1.34-.96-.893-1.44-2.086-1.44-3.58V6.12l1.44,1.44h-4.96v-2.76h6.76v24.32c0,.614.2,1.12.6,1.52.4.4.906.6,1.521.6h1.84v2.76h-2Z" style="fill: #f2f2f2;"/>
    <path d="M495.786,34.399c-1.895,0-3.567-.42-5.021-1.26-1.453-.84-2.587-2.006-3.399-3.5-.814-1.493-1.221-3.213-1.221-5.16v-.4c0-1.866.373-3.526,1.12-4.98.746-1.453,1.8-2.606,3.16-3.46,1.36-.853,2.934-1.28,4.72-1.28,1.84,0,3.413.454,4.721,1.36,1.306.907,2.272,2.187,2.899,3.84.626,1.654.807,3.587.54,5.8h-14.84v-2.64h13.12l-1.44,1.4c.187-1.466.087-2.713-.3-3.74-.387-1.026-.979-1.82-1.78-2.38-.8-.56-1.76-.84-2.88-.84-1.227,0-2.273.293-3.14.88-.867.587-1.534,1.394-2,2.42-.467,1.027-.7,2.234-.7,3.62v.4c0,1.334.267,2.527.8,3.58.533,1.054,1.293,1.88,2.28,2.48.986.6,2.16.9,3.52.9,1.014,0,1.906-.126,2.681-.38.772-.253,1.453-.633,2.04-1.14l1.84,2c-.747.8-1.7,1.414-2.86,1.84-1.16.426-2.446.64-3.859.64Z" style="fill: #f2f2f2;"/>
    <path d="M507.945,34V14.759h3.12v5.2h-.88c.293-1.093.713-2,1.26-2.72.546-.72,1.16-1.293,1.84-1.72.68-.426,1.38-.726,2.101-.9.72-.173,1.399-.26,2.04-.26,2.159,0,3.913.694,5.26,2.08,1.346,1.387,2.02,3.467,2.02,6.24v11.32h-3.24v-10.84c0-2.053-.46-3.54-1.38-4.46-.92-.92-2.087-1.38-3.5-1.38-.986,0-1.887.227-2.699.68-.814.454-1.468,1.114-1.96,1.98-.494.867-.74,1.94-.74,3.22v10.8h-3.24Z" style="fill: #f2f2f2;"/>
    <path d="M538.984,34.399c-1.894,0-3.579-.413-5.06-1.24-1.48-.826-2.646-1.98-3.5-3.46s-1.28-3.18-1.28-5.1v-.48c0-1.92.427-3.613,1.28-5.08.854-1.466,2.02-2.613,3.5-3.44,1.48-.826,3.166-1.24,5.06-1.24,1.413,0,2.7.254,3.86.76,1.16.507,2.14,1.24,2.94,2.2l-2,2c-.614-.64-1.32-1.126-2.12-1.46-.8-.333-1.694-.5-2.681-.5-1.253,0-2.387.28-3.399.84-1.014.56-1.807,1.347-2.38,2.36-.574,1.014-.86,2.2-.86,3.56v.48c0,1.36.293,2.547.88,3.56.587,1.014,1.38,1.807,2.38,2.38,1,.574,2.141.86,3.42.86.96,0,1.847-.153,2.66-.46.813-.306,1.54-.793,2.181-1.46l1.96,1.96c-.774.934-1.754,1.66-2.94,2.18s-2.487.78-3.9.78Z" style="fill: #f2f2f2;"/>
    <path d="M557.785,34.399c-1.895,0-3.567-.42-5.021-1.26-1.453-.84-2.587-2.006-3.399-3.5-.814-1.493-1.221-3.213-1.221-5.16v-.4c0-1.866.373-3.526,1.12-4.98.746-1.453,1.8-2.606,3.16-3.46,1.36-.853,2.934-1.28,4.72-1.28,1.84,0,3.413.454,4.721,1.36,1.306.907,2.272,2.187,2.899,3.84.626,1.654.807,3.587.54,5.8h-14.84v-2.64h13.12l-1.44,1.4c.187-1.466.087-2.713-.3-3.74-.387-1.026-.979-1.82-1.78-2.38-.8-.56-1.76-.84-2.88-.84-1.227,0-2.273.293-3.14.88-.867.587-1.534,1.394-2,2.42-.467,1.027-.7,2.234-.7,3.62v.4c0,1.334.267,2.527.8,3.58.533,1.054,1.293,1.88,2.28,2.48.986.6,2.16.9,3.52.9,1.014,0,1.906-.126,2.681-.38.772-.253,1.453-.633,2.04-1.14l1.84,2c-.747.8-1.7,1.414-2.86,1.84-1.16.426-2.446.64-3.859.64Z" style="fill: #f2f2f2;"/>
    <path d="M80.058,68v-19.6h6.385c1.362,0,2.622.229,3.779.686,1.157.458,2.165,1.106,3.024,1.946.858.84,1.526,1.834,2.002,2.982s.714,2.413.714,3.794v.336c0,1.456-.243,2.782-.728,3.976-.486,1.195-1.158,2.235-2.017,3.122s-1.866,1.568-3.023,2.044c-1.158.476-2.408.714-3.752.714h-6.385ZM81.934,67.02l-.783-.784h5.18c1.475,0,2.795-.345,3.962-1.036,1.166-.69,2.086-1.643,2.758-2.856s1.008-2.613,1.008-4.2v-.336c0-1.512-.331-2.842-.993-3.99-.663-1.148-1.578-2.044-2.744-2.688-1.167-.644-2.497-.966-3.99-.966h-5.18l.783-.784v17.64Z" style="fill: #f2f2f2;"/>
    <path d="M105.314,68.279c-1.308,0-2.465-.294-3.473-.882s-1.792-1.4-2.352-2.436c-.561-1.036-.84-2.235-.84-3.598v-.28c0-1.306.256-2.464.77-3.472.514-1.008,1.241-1.806,2.185-2.394.942-.588,2.02-.882,3.233-.882,1.251,0,2.324.308,3.22.924.896.616,1.559,1.484,1.988,2.604.43,1.12.551,2.427.364,3.92h-10.472v-1.484h9.52l-.784.784c.131-1.064.047-1.983-.252-2.758s-.756-1.372-1.372-1.792c-.616-.42-1.344-.63-2.184-.63-.915,0-1.704.22-2.366.658-.663.439-1.176,1.045-1.54,1.82-.364.775-.546,1.676-.546,2.702v.28c0,1.027.205,1.937.616,2.73.41.793.989,1.414,1.735,1.862.747.448,1.624.672,2.633.672.709,0,1.357-.093,1.945-.28s1.088-.458,1.498-.812l1.008,1.148c-.504.504-1.147.896-1.932,1.176-.784.28-1.652.42-2.604.42Z" style="fill: #f2f2f2;"/>
    <path d="M117.298,68l-5.404-13.384h1.849l4.844,12.18h-.7l4.844-12.18h1.849l-5.404,13.384h-1.876Z" style="fill: #f2f2f2;"/>
    <path d="M132.726,68.279c-1.307,0-2.464-.294-3.472-.882s-1.792-1.4-2.353-2.436c-.56-1.036-.84-2.235-.84-3.598v-.28c0-1.306.257-2.464.771-3.472.513-1.008,1.241-1.806,2.184-2.394.942-.588,2.021-.882,3.234-.882,1.25,0,2.323.308,3.22.924.896.616,1.559,1.484,1.988,2.604.429,1.12.55,2.427.363,3.92h-10.472v-1.484h9.521l-.784.784c.13-1.064.046-1.983-.252-2.758-.299-.774-.756-1.372-1.372-1.792-.616-.42-1.344-.63-2.185-.63-.914,0-1.703.22-2.365.658-.663.439-1.177,1.045-1.54,1.82-.364.775-.547,1.676-.547,2.702v.28c0,1.027.206,1.937.616,2.73.411.793.989,1.414,1.736,1.862.746.448,1.624.672,2.632.672.709,0,1.358-.093,1.946-.28s1.087-.458,1.498-.812l1.008,1.148c-.504.504-1.148.896-1.932,1.176-.784.28-1.652.42-2.604.42Z" style="fill: #f2f2f2;"/>
    <path d="M144.653,68c-1.008,0-1.829-.298-2.464-.896-.635-.597-.952-1.39-.952-2.38v-16.408l.784.784h-3.36v-1.54h4.368v17.192c0,.486.158.892.477,1.218.316.327.728.49,1.231.49h1.204v1.54h-1.288Z" style="fill: #f2f2f2;"/>
    <path d="M153.921,68.279c-1.27,0-2.398-.294-3.388-.882s-1.764-1.4-2.324-2.436c-.56-1.036-.84-2.235-.84-3.598v-.252c0-1.325.28-2.496.84-3.514.561-1.017,1.335-1.815,2.324-2.394s2.118-.868,3.388-.868c1.251,0,2.371.285,3.36.854.989.57,1.764,1.363,2.324,2.38.56,1.018.84,2.18.84,3.486v.308c0,1.363-.28,2.562-.84,3.598-.561,1.036-1.335,1.848-2.324,2.436s-2.109.882-3.36.882ZM153.921,66.684c.934,0,1.76-.229,2.479-.686.718-.457,1.278-1.083,1.68-1.876s.603-1.712.603-2.758v-.308c0-1.008-.201-1.895-.603-2.66-.401-.765-.962-1.367-1.68-1.806-.719-.438-1.545-.658-2.479-.658s-1.759.224-2.478.672c-.719.448-1.283,1.06-1.694,1.834-.41.775-.616,1.666-.616,2.674v.252c0,1.046.206,1.965.616,2.758.411.793.976,1.419,1.694,1.876.719.458,1.544.686,2.478.686Z" style="fill: #f2f2f2;"/>
    <path d="M163.945,73.6v-18.984h1.68v3.696l-.308-.364c.466-1.102,1.171-1.979,2.114-2.632.941-.653,2.02-.98,3.233-.98s2.291.29,3.234.868c.942.579,1.685,1.377,2.226,2.394.541,1.018.812,2.188.812,3.514v.252c0,1.363-.267,2.562-.799,3.598-.531,1.036-1.27,1.848-2.212,2.436s-2.029.882-3.262.882c-1.194,0-2.254-.317-3.178-.952-.924-.634-1.62-1.484-2.086-2.548l.336-.392v9.212h-1.792ZM170.441,66.684c.914,0,1.727-.224,2.436-.672.709-.448,1.265-1.068,1.666-1.862.401-.793.603-1.722.603-2.786v-.252c0-1.026-.201-1.927-.603-2.702s-.957-1.381-1.666-1.82c-.709-.438-1.521-.658-2.436-.658s-1.736.229-2.464.686c-.729.458-1.303,1.087-1.723,1.89-.42.803-.63,1.736-.63,2.8s.21,2.002.63,2.814.994,1.442,1.723,1.89c.728.448,1.549.672,2.464.672Z" style="fill: #f2f2f2;"/>
    <path d="M180.437,68v-13.384h1.708v3.444l-.42-.028c.28-.934.682-1.666,1.204-2.198s1.106-.915,1.75-1.148c.645-.233,1.274-.35,1.891-.35,1.176,0,2.17.308,2.981.924.812.616,1.358,1.568,1.638,2.856h-.644c.317-.971.761-1.731,1.33-2.282.569-.55,1.189-.938,1.862-1.162.672-.224,1.306-.336,1.903-.336,1.475,0,2.66.472,3.557,1.414.896.943,1.344,2.404,1.344,4.382v7.868h-1.736v-7.672c0-1.549-.326-2.66-.979-3.332-.654-.672-1.513-1.008-2.576-1.008-1.083,0-1.998.369-2.744,1.106-.747.737-1.12,1.806-1.12,3.206v7.7h-1.764v-7.672c0-1.549-.322-2.66-.966-3.332-.645-.672-1.498-1.008-2.562-1.008-1.102,0-2.025.369-2.771,1.106-.747.737-1.12,1.806-1.12,3.206v7.7h-1.765Z" style="fill: #f2f2f2;"/>
    <path d="M210.537,68.279c-1.307,0-2.465-.294-3.473-.882s-1.792-1.4-2.352-2.436c-.561-1.036-.84-2.235-.84-3.598v-.28c0-1.306.256-2.464.77-3.472.514-1.008,1.241-1.806,2.184-2.394.943-.588,2.021-.882,3.234-.882,1.25,0,2.324.308,3.221.924.895.616,1.557,1.484,1.986,2.604.43,1.12.551,2.427.365,3.92h-10.472v-1.484h9.519l-.783.784c.131-1.064.047-1.983-.252-2.758s-.756-1.372-1.371-1.792c-.617-.42-1.346-.63-2.186-.63-.914,0-1.703.22-2.365.658-.662.439-1.176,1.045-1.54,1.82-.364.775-.546,1.676-.546,2.702v.28c0,1.027.205,1.937.616,2.73.409.793.989,1.414,1.735,1.862.746.448,1.625.672,2.633.672.709,0,1.357-.093,1.945-.28s1.088-.458,1.498-.812l1.008,1.148c-.504.504-1.148.896-1.932,1.176-.783.28-1.652.42-2.604.42Z" style="fill: #f2f2f2;"/>
    <path d="M219.076,68v-13.384h1.708v3.584h-.476c.205-.747.499-1.367.882-1.862.382-.494.816-.891,1.302-1.19.485-.298.98-.508,1.484-.63.504-.121.979-.182,1.428-.182,1.512,0,2.744.481,3.696,1.442.952.962,1.428,2.432,1.428,4.41v7.812h-1.792v-7.588c0-1.568-.354-2.697-1.064-3.388-.709-.69-1.605-1.036-2.688-1.036-.747,0-1.428.168-2.044.504-.616.336-1.116.831-1.498,1.484-.383.653-.574,1.475-.574,2.464v7.56h-1.792Z" style="fill: #f2f2f2;"/>
    <path d="M232.825,56.184v-1.568h7.979v1.568h-7.979ZM238.817,68c-.448,0-.883-.065-1.303-.196s-.793-.336-1.12-.616c-.326-.28-.583-.63-.77-1.05-.187-.42-.28-.929-.28-1.526v-13.328h1.765v13.44c0,.504.168.919.504,1.246s.737.49,1.204.49h1.987v1.54h-1.987Z" style="fill: #f2f2f2;"/>
    <path d="M250.939,68v-19.6h5.824c1.288,0,2.408.229,3.36.686.951.458,1.693,1.116,2.226,1.974.532.859.798,1.895.798,3.108s-.266,2.25-.798,3.108c-.532.859-1.274,1.517-2.226,1.974-.952.458-2.072.686-3.36.686h-4.928v-1.596h5.012c1.325,0,2.403-.373,3.234-1.12.83-.747,1.245-1.764,1.245-3.052,0-1.269-.415-2.272-1.245-3.01-.831-.737-1.909-1.106-3.234-1.106h-4.816l.784-.756v18.704h-1.876Z" style="fill: #f2f2f2;"/>
    <path d="M266.004,68v-13.384h1.736v3.192l-.28-.028c.168-.858.443-1.516.826-1.974.382-.458.849-.774,1.399-.952.551-.177,1.152-.266,1.807-.266h1.147v1.764h-1.288c-1.102,0-1.969.28-2.604.84s-.952,1.456-.952,2.688v8.12h-1.792Z" style="fill: #f2f2f2;"/>
    <path d="M280.34,68.279c-1.27,0-2.398-.294-3.388-.882-.99-.588-1.764-1.4-2.324-2.436-.56-1.036-.84-2.235-.84-3.598v-.252c0-1.325.28-2.496.84-3.514.561-1.017,1.334-1.815,2.324-2.394.989-.579,2.118-.868,3.388-.868,1.251,0,2.37.285,3.36.854.989.57,1.764,1.363,2.324,2.38.56,1.018.84,2.18.84,3.486v.308c0,1.363-.28,2.562-.84,3.598-.561,1.036-1.335,1.848-2.324,2.436-.99.588-2.109.882-3.36.882ZM280.34,66.684c.934,0,1.76-.229,2.479-.686.718-.457,1.278-1.083,1.68-1.876s.602-1.712.602-2.758v-.308c0-1.008-.2-1.895-.602-2.66-.401-.765-.962-1.367-1.68-1.806-.719-.438-1.545-.658-2.479-.658s-1.76.224-2.478.672c-.719.448-1.284,1.06-1.694,1.834-.411.775-.616,1.666-.616,2.674v.252c0,1.046.205,1.965.616,2.758.41.793.976,1.419,1.694,1.876.718.458,1.544.686,2.478.686Z" style="fill: #f2f2f2;"/>
    <path d="M288.908,73.6v-1.512h7.924c.729,0,1.303-.182,1.723-.546s.63-.864.63-1.498c0-.598-.21-1.064-.63-1.4s-.994-.504-1.723-.504h-4.256c-.69,0-1.214-.163-1.567-.49-.355-.326-.551-.732-.589-1.218-.037-.485.065-.961.309-1.428l1.204-2.408,1.54.42-1.12,2.156c-.094.206-.154.425-.183.658-.027.233.033.434.183.602s.41.252.784.252h3.92c1.157,0,2.081.29,2.771.868.69.579,1.036,1.41,1.036,2.492,0,.709-.159,1.33-.476,1.862-.318.532-.766.947-1.345,1.246-.578.298-1.27.448-2.071.448h-8.064ZM295.04,64.023c-1.082,0-2.049-.205-2.897-.616-.85-.411-1.517-.98-2.002-1.708-.486-.728-.729-1.549-.729-2.464v-.252c0-.914.242-1.722.729-2.422.485-.7,1.152-1.246,2.002-1.638.849-.392,1.815-.588,2.897-.588,1.102,0,2.077.196,2.927.588.849.392,1.512.929,1.987,1.61.477.682.714,1.47.714,2.366v.336c0,.915-.237,1.736-.714,2.464-.476.728-1.139,1.297-1.987,1.708-.85.411-1.825.616-2.927.616ZM295.04,62.596c1.139,0,2.072-.317,2.801-.952.728-.634,1.092-1.437,1.092-2.408v-.252c0-.933-.364-1.694-1.092-2.282-.729-.588-1.662-.882-2.801-.882s-2.071.299-2.8.896c-.728.598-1.092,1.372-1.092,2.324v.196c0,.971.364,1.774,1.092,2.408.729.635,1.661.952,2.8.952ZM295.265,55.512l1.987-4.06h1.792l-2.155,4.06h-1.624Z" style="fill: #f2f2f2;"/>
    <path d="M304.056,68v-13.384h1.736v3.192l-.28-.028c.168-.858.443-1.516.826-1.974.382-.458.849-.774,1.399-.952.551-.177,1.152-.266,1.807-.266h1.147v1.764h-1.288c-1.102,0-1.969.28-2.604.84s-.952,1.456-.952,2.688v8.12h-1.792Z" style="fill: #f2f2f2;"/>
    <path d="M316.936,68.279c-1.567,0-2.813-.359-3.738-1.078-.924-.719-1.386-1.666-1.386-2.842,0-.765.205-1.451.616-2.058.41-.606,1.018-1.087,1.82-1.442.802-.354,1.764-.532,2.884-.532,1.549,0,2.748.346,3.598,1.036.85.691,1.274,1.606,1.274,2.744h-.336c0,1.307-.393,2.329-1.176,3.066-.784.738-1.97,1.106-3.557,1.106ZM321.052,68l-.028-4.872-.195-.532v-3.276c0-1.157-.29-2.006-.868-2.548-.579-.541-1.419-.812-2.521-.812-.728,0-1.479.14-2.254.42-.774.28-1.451.71-2.03,1.288l-.867-1.26c.634-.69,1.414-1.208,2.338-1.554.924-.345,1.88-.518,2.87-.518,1.008,0,1.894.182,2.659.546.766.364,1.363.91,1.792,1.638.43.728.645,1.652.645,2.772v4.256c0,.747.004,1.489.014,2.226.01.738.032,1.479.07,2.226h-1.624ZM317.272,66.908c1.12,0,1.992-.238,2.618-.714.625-.476.938-1.096.938-1.862,0-.784-.313-1.404-.938-1.862-.626-.458-1.508-.686-2.646-.686-1.12,0-2.007.229-2.66.686-.654.458-.98,1.078-.98,1.862,0,.766.326,1.386.98,1.862.653.476,1.549.714,2.688.714Z" style="fill: #f2f2f2;"/>
    <path d="M326.876,68v-13.384h1.708v3.444l-.42-.028c.28-.934.682-1.666,1.204-2.198s1.105-.915,1.75-1.148c.644-.233,1.273-.35,1.89-.35,1.176,0,2.17.308,2.982.924.812.616,1.357,1.568,1.638,2.856h-.644c.316-.971.76-1.731,1.33-2.282.568-.55,1.189-.938,1.861-1.162.672-.224,1.307-.336,1.904-.336,1.475,0,2.66.472,3.556,1.414.896.943,1.345,2.404,1.345,4.382v7.868h-1.736v-7.672c0-1.549-.327-2.66-.98-3.332s-1.512-1.008-2.575-1.008c-1.083,0-1.998.369-2.744,1.106-.747.737-1.12,1.806-1.12,3.206v7.7h-1.764v-7.672c0-1.549-.322-2.66-.967-3.332-.644-.672-1.498-1.008-2.562-1.008-1.102,0-2.025.369-2.772,1.106-.746.737-1.12,1.806-1.12,3.206v7.7h-1.764Z" style="fill: #f2f2f2;"/>
  </g>
</svg>