<?xml version="1.0" standalone="no"?>
<svg xmlns="http://www.w3.org/2000/svg" width="1200px" height="800px" viewBox="0 0 1200 800"><defs><linearGradient id="svggrad-1" gradientUnits="userSpaceOnUse" x1="99.99999999999994" y1="-100" x2="1100" y2="900"><stop offset="0.00%" stop-color="rgb(26, 92, 58) 0%"/><stop offset="100.00%" stop-color="rgb(12, 50, 44) 100%"/></linearGradient></defs><g><g><g><rect x="0" y="0" width="1200" height="800" fill="url(#svggrad-1)"/><g><rect x="56" y="226.4375" width="1088" height="347.125" rx="12" ry="12" fill="rgb(12,50,44)"/><g><rect x="56" y="226.4375" width="1088" height="42" fill="rgb(9,43,35)"/><rect x="56" y="267.4375" width="1088" height="1" fill="rgb(255,255,255)"/><g><g><rect x="76" y="240.4375" width="13" height="13" rx="6.5" ry="6.5" fill="rgb(255,95,87)"/></g><g><rect x="96" y="240.4375" width="13" height="13" rx="6.5" ry="6.5" fill="rgb(255,189,46)"/></g><g><rect x="116" y="240.4375" width="13" height="13" rx="6.5" ry="6.5" fill="rgb(40,200,64)"/></g></g></g><g><g opacity="0.3000"><rect x="56" y="268.4375" width="52.609375" height="305.125" fill="rgb(9,43,35)"/><rect x="107.609375" y="268.4375" width="1" height="305.125" fill="rgb(255,255,255)"/><path d="M2.29,0L2.29,-2.03L7.07,-2.03L7.07,-14.87Q7.07,-15.44 6.72,-15.81Q6.37,-16.17 5.8,-16.17L2.34,-16.17L2.34,-18.2L6.34,-18.2Q7.62,-18.2 8.42,-17.38Q9.23,-16.56 9.23,-15.31L9.23,-2.03L13.96,-2.03L13.96,0L2.29,0Z" transform="translate(76,319.44)" fill="rgb(212,237,225)"/><path d="M1.77,0L1.77,-1.64L8.48,-8.4Q9.88,-9.83 10.37,-10.88Q10.87,-11.93 10.87,-12.92Q10.87,-14.53 9.92,-15.46Q8.97,-16.38 7.36,-16.38Q6.11,-16.38 5.02,-15.69Q3.93,-15 3.09,-13.75L1.66,-15.13Q2.65,-16.67 4.16,-17.56Q5.67,-18.46 7.44,-18.46Q9.15,-18.46 10.43,-17.8Q11.7,-17.13 12.4,-15.92Q13.1,-14.72 13.1,-13.13Q13.1,-11.8 12.47,-10.37Q11.83,-8.94 10.01,-7.12L4.94,-2L13.83,-2L13.83,0L1.77,0Z" transform="translate(76,363.63)" fill="rgb(212,237,225)"/><path d="M7.2,0.26Q5.23,0.26 3.8,-0.36Q2.37,-0.99 1.33,-1.98L2.6,-3.46Q3.41,-2.68 4.52,-2.14Q5.64,-1.61 7.23,-1.61Q9.15,-1.61 10.32,-2.55Q11.49,-3.48 11.49,-4.99Q11.49,-6.42 10.36,-7.31Q9.23,-8.19 7.31,-8.19L4.71,-8.19L4.71,-10.11L7.15,-10.11Q8.97,-10.11 10,-11.06Q11.02,-12.01 11.02,-13.39Q11.02,-14.85 9.98,-15.69Q8.94,-16.54 7.23,-16.54Q5.77,-16.54 4.73,-16.03Q3.69,-15.52 3.04,-14.85L1.79,-16.38Q2.68,-17.24 4.08,-17.85Q5.49,-18.46 7.28,-18.46Q9.02,-18.46 10.36,-17.87Q11.7,-17.29 12.44,-16.2Q13.18,-15.11 13.18,-13.65Q13.18,-12.25 12.47,-11.09Q11.75,-9.93 10.4,-9.31Q12.04,-8.71 12.84,-7.54Q13.65,-6.37 13.65,-4.89Q13.65,-3.35 12.82,-2.2Q11.99,-1.04 10.53,-0.39Q9.07,0.26 7.2,0.26Z" transform="translate(76,407.81)" fill="rgb(212,237,225)"/><path d="M1.2,-4.42L1.2,-6.24L7.25,-18.2L9.49,-18.2L3.59,-6.4L9.59,-6.4L9.59,-11.28L11.73,-11.28L11.73,-6.4L14.59,-6.4L14.59,-4.42L11.73,-4.42L11.73,0L9.59,0L9.59,-4.42L1.2,-4.42Z" transform="translate(76,452)" fill="rgb(212,237,225)"/><path d="M7.28,0.26Q5.38,0.26 3.94,-0.38Q2.5,-1.01 1.51,-1.98L2.76,-3.46Q3.54,-2.7 4.67,-2.16Q5.8,-1.61 7.31,-1.61Q9.36,-1.61 10.56,-2.73Q11.75,-3.85 11.75,-5.75Q11.75,-7.41 10.79,-8.46Q9.83,-9.52 8.03,-9.52Q6.68,-9.52 5.75,-8.87Q4.81,-8.22 4.39,-7.15L2.6,-7.15L2.89,-15.6Q2.91,-16.74 3.72,-17.47Q4.52,-18.2 5.69,-18.2L13.05,-18.2L13.05,-16.22L6.11,-16.22Q5.64,-16.22 5.29,-15.94Q4.94,-15.65 4.91,-15.18L4.71,-9.93Q5.33,-10.61 6.28,-11.01Q7.23,-11.41 8.48,-11.41Q10.14,-11.41 11.36,-10.71Q12.58,-10.01 13.25,-8.75Q13.91,-7.49 13.91,-5.85Q13.91,-3.93 13.07,-2.56Q12.22,-1.2 10.71,-0.47Q9.2,0.26 7.28,0.26Z" transform="translate(76,496.19)" fill="rgb(212,237,225)"/><path d="M7.96,0.26Q6.01,0.26 4.58,-0.49Q3.15,-1.25 2.37,-2.64Q1.59,-4.03 1.59,-5.9Q1.59,-7.12 2.04,-8.29Q2.5,-9.46 3.28,-10.61L8.58,-18.2L11.26,-18.2L6.21,-11.36Q7.23,-11.78 8.4,-11.78Q10.14,-11.78 11.48,-11.01Q12.82,-10.24 13.57,-8.89Q14.33,-7.54 14.33,-5.8Q14.33,-3.98 13.52,-2.61Q12.71,-1.25 11.27,-0.49Q9.83,0.26 7.96,0.26ZM7.93,-1.66Q9.75,-1.66 10.92,-2.81Q12.09,-3.95 12.09,-5.77Q12.09,-7.59 10.93,-8.76Q9.78,-9.93 7.98,-9.93Q6.08,-9.93 4.94,-8.77Q3.8,-7.62 3.8,-5.77Q3.8,-3.93 4.93,-2.79Q6.06,-1.66 7.93,-1.66Z" transform="translate(76,540.38)" fill="rgb(212,237,225)"/></g><g><rect x="108.609375" y="268.4375" width="1035.390625" height="305.125" fill="rgb(12,50,44)"/><text x="132.61" y="295.44" dominant-baseline="text-before-edge" font-size="26px" font-weight="400" font-style="normal" font-family="monospace" fill="rgb(48,186,120)">const</text><text x="226.22" y="295.44" dominant-baseline="text-before-edge" font-size="26px" font-weight="400" font-style="normal" font-family="monospace" fill="rgb(212,237,225)">greet</text><text x="319.84" y="295.44" dominant-baseline="text-before-edge" font-size="26px" font-weight="400" font-style="normal" font-family="monospace" fill="rgb(48,186,120)">=</text><text x="351.05" y="295.44" dominant-baseline="text-before-edge" font-size="26px" font-weight="400" font-style="normal" font-family="monospace" fill="rgb(212,237,225)">(name)</text><text x="460.28" y="295.44" dominant-baseline="text-before-edge" font-size="26px" font-weight="400" font-style="normal" font-family="monospace" fill="rgb(48,186,120)">=</text><text x="475.89" y="295.44" dominant-baseline="text-before-edge" font-size="26px" font-weight="400" font-style="normal" font-family="monospace" fill="rgb(48,186,120)">&gt;</text><text x="507.09" y="295.44" dominant-baseline="text-before-edge" font-size="26px" font-weight="400" font-style="normal" font-family="monospace" fill="rgb(212,237,225)">{</text><text x="163.81" y="339.63" dominant-baseline="text-before-edge" font-size="26px" font-weight="400" font-style="normal" font-family="monospace" fill="rgb(212,237,225)">console.</text><text x="288.64" y="339.63" dominant-baseline="text-before-edge" font-size="26px" font-weight="400" font-style="normal" font-family="monospace" fill="rgb(94,207,148)">log</text><text x="335.45" y="339.63" dominant-baseline="text-before-edge" font-size="26px" font-weight="400" font-style="normal" font-family="monospace" fill="rgb(212,237,225)">(</text><text x="351.06" y="339.63" dominant-baseline="text-before-edge" font-size="26px" font-weight="400" font-style="normal" font-family="monospace" fill="rgb(125,211,168)">`Hello, ${name}!`</text><text x="616.31" y="339.63" dominant-baseline="text-before-edge" font-size="26px" font-weight="400" font-style="normal" font-family="monospace" fill="rgb(212,237,225)">);</text><text x="163.83" y="383.81" dominant-baseline="text-before-edge" font-size="26px" font-weight="400" font-style="normal" font-family="monospace" fill="rgb(48,186,120)">return</text><text x="273.05" y="383.81" dominant-baseline="text-before-edge" font-size="26px" font-weight="400" font-style="normal" font-family="monospace" fill="rgb(212,237,225)">name;</text><text x="132.61" y="428" dominant-baseline="text-before-edge" font-size="26px" font-weight="400" font-style="normal" font-family="monospace" fill="rgb(212,237,225)">};</text><text x="132.61" y="516.38" dominant-baseline="text-before-edge" font-size="26px" font-weight="400" font-style="normal" font-family="monospace" fill="rgb(94,207,148)">greet</text><text x="210.63" y="516.38" dominant-baseline="text-before-edge" font-size="26px" font-weight="400" font-style="normal" font-family="monospace" fill="rgb(212,237,225)">(</text><text x="226.23" y="516.38" dominant-baseline="text-before-edge" font-size="26px" font-weight="400" font-style="normal" font-family="monospace" fill="rgb(125,211,168)">'World'</text><text x="335.45" y="516.38" dominant-baseline="text-before-edge" font-size="26px" font-weight="400" font-style="normal" font-family="monospace" fill="rgb(212,237,225)">);</text></g></g></g></g></g></g></svg>