<?xml version="1.0" encoding="UTF-8"?>
<svg id="Layer_2" data-name="Layer 2" xmlns="http://www.w3.org/2000/svg" viewBox="0 0 329.28 67.2">
  <defs>
    <style>
      .cls-1 {
        fill: #0d322c;
      }

      .cls-2 {
        fill: #37b678;
      }
    </style>
  </defs>
  <g>
    <path class="cls-1" d="M79.6,31.56l3.12-3.12c2.09,2.3,4.26,3.36,6.68,3.36,3.12,0,5.17-1.72,5.17-4.22,0-6.6-14.31-2.87-14.31-12.79,0-5.33,3.98-8.73,9.96-8.73,3.77,0,6.81,1.44,8.73,3.61l-3.08,3.07c-1.64-1.68-3.44-2.58-5.66-2.58-3.03,0-4.96,1.6-4.96,4.06,0,6.44,14.43,2.21,14.43,12.59,0,5.54-4.22,9.1-10.46,9.1-4.31,0-7.42-1.72-9.64-4.35Z"/>
    <path class="cls-1" d="M104.65,25.41V6.63h5.04v18.74c0,4.18,1.56,6.19,4.76,6.19s4.76-2.01,4.76-6.19V6.63h5.04v18.78c0,7.13-3.24,10.5-9.8,10.5s-9.8-3.36-9.8-10.5Z"/>
    <path class="cls-1" d="M128.8,31.56l3.12-3.12c2.09,2.3,4.26,3.36,6.68,3.36,3.12,0,5.17-1.72,5.17-4.22,0-6.6-14.31-2.87-14.31-12.79,0-5.33,3.98-8.73,9.96-8.73,3.77,0,6.81,1.44,8.73,3.61l-3.08,3.07c-1.64-1.68-3.44-2.58-5.66-2.58-3.03,0-4.96,1.6-4.96,4.06,0,6.44,14.43,2.21,14.43,12.59,0,5.54-4.22,9.1-10.46,9.1-4.31,0-7.42-1.72-9.64-4.35Z"/>
    <path class="cls-1" d="M154.83,30.53V11.43c0-2.79,2.01-4.8,4.8-4.8h13.37v4.26h-11.69c-.86,0-1.48.7-1.48,1.52v6.48h12.3v4.06h-12.3v6.6c0,.82.61,1.52,1.48,1.52h11.69v4.26h-13.37c-2.79,0-4.8-2.01-4.8-4.8Z"/>
    <path class="cls-1" d="M188.78,6.63h8.73c5.7,0,9.43,2.87,9.43,8.36,0,5-2.79,7.58-7.13,8.2l8,12.14h-3.2l-7.83-11.97h-5.25v11.97h-2.75V6.63ZM197.43,20.98c4.02,0,6.72-1.76,6.72-5.95,0-3.9-2.71-6.03-6.72-6.03h-5.9v11.97h5.9Z"/>
    <path class="cls-1" d="M224.24,33.16c-1.07,1.64-3.08,2.58-6.03,2.58-4.59,0-7.5-2.3-7.5-5.74s2.83-5.9,7.79-5.9c2.38,0,4.22.61,5.41,1.64v-3.12c0-3.36-1.72-4.92-4.96-4.92-2.13,0-4.59.78-6.27,2.5l-1.27-1.85c1.84-2.01,4.71-3.03,7.63-3.03,4.43,0,7.46,2.38,7.46,7.26v6.23c0,2.17,0,4.31.12,6.52h-2.38v-2.17ZM223.92,29.96c0-2.25-1.93-3.73-5.25-3.73s-5.33,1.48-5.33,3.73,2.05,3.77,5.37,3.77,5.21-1.52,5.21-3.77Z"/>
    <path class="cls-1" d="M232.77,15.73h2.5v3.48c1.56-2.91,4.55-3.9,6.76-3.9,4.39,0,7.5,2.79,7.5,8.57v11.44h-2.62v-11.11c0-4.59-2.34-6.48-5.49-6.48s-6.03,2.21-6.03,6.52v11.07h-2.62V15.73Z"/>
    <path class="cls-1" d="M254.38,25.78v-.53c0-5.82,4.18-9.92,9.96-9.92,2.83,0,5.17,1.02,6.81,2.87l-1.64,1.64c-1.31-1.35-3.03-2.09-5.21-2.09-4.26,0-7.34,3.03-7.34,7.5v.53c0,4.47,3.12,7.54,7.38,7.54,2.13,0,3.85-.7,5.25-2.09l1.6,1.64c-1.64,1.84-4.02,2.87-6.85,2.87-5.82,0-9.96-4.1-9.96-9.96Z"/>
    <path class="cls-1" d="M275.7,5.4h2.5v13.82c1.56-2.91,4.55-3.9,6.76-3.9,4.39,0,7.5,2.79,7.5,8.57v11.44h-2.62v-11.11c0-4.59-2.34-6.48-5.49-6.48s-6.03,2.21-6.03,6.52v11.07h-2.62V5.4Z"/>
    <path class="cls-1" d="M297.3,25.61v-.41c0-5.7,3.65-9.88,9.06-9.88s8.9,4.35,8.16,10.91h-14.64c.25,4.14,3.08,7.09,7.3,7.09,2.09,0,3.81-.53,5.04-1.6l1.48,1.68c-1.39,1.39-3.89,2.34-6.64,2.34-5.78,0-9.76-4.14-9.76-10.13ZM312.07,24.06c.08-4.02-2.3-6.44-5.66-6.44-3.65,0-6.07,2.54-6.48,6.44h12.14Z"/>
    <path class="cls-1" d="M319.57,15.73h2.54v3.16c.98-2.5,3.08-3.2,5.49-3.2h1.68v2.58h-1.89c-3.24,0-5.21,1.6-5.21,5.17v11.89h-2.62V15.73Z"/>
  </g>
  <g>
    <path class="cls-1" d="M82.29,54.51h-2.69v-.78h2.69v-4.26c0-1.74,1.26-2.97,3-2.97h2.13v.76h-2.13c-1.26,0-2.18.92-2.18,2.18v4.28h4.31v.78h-4.31v12.43h-.81v-12.43Z"/>
    <path class="cls-1" d="M88.44,60.36v-.22c0-3.92,2.6-6.69,6.24-6.69s6.22,2.74,6.22,6.61v.31c0,4.03-2.58,6.86-6.22,6.86s-6.24-2.83-6.24-6.86ZM100.09,60.36v-.31c0-3.44-2.21-5.82-5.4-5.82s-5.43,2.44-5.43,5.91v.22c0,3.58,2.27,6.1,5.43,6.1s5.4-2.52,5.4-6.1Z"/>
    <path class="cls-1" d="M104.82,53.72h.78v2.16c.73-1.71,2.16-2.16,3.81-2.16h1.2v.81h-1.23c-2.32,0-3.75,1.18-3.75,4v8.4h-.81v-13.22Z"/>
    <path class="cls-1" d="M125.15,47.34h.87l7.9,19.6h-.87l-2.46-6.13h-10l-2.46,6.13h-.84l7.87-19.6ZM130.28,60.02l-4.68-11.68-4.68,11.68h9.35Z"/>
    <path class="cls-1" d="M133.86,47.34h.84l5.68,18.42,5.91-18.42h.87l5.94,18.42,5.66-18.42h.84l-6.1,19.6h-.81l-5.94-18.37-5.94,18.37h-.84l-6.1-19.6Z"/>
    <path class="cls-1" d="M161.3,64.73l.53-.59c1.18,1.48,3.02,2.32,5.21,2.32,3.28,0,5.35-1.88,5.35-4.68,0-6.33-10.72-2.69-10.72-9.41,0-3.22,2.41-5.32,6.1-5.32,2.04,0,3.67.64,4.73,1.79l-.53.59c-1.04-1.06-2.44-1.62-4.23-1.62-3.19,0-5.26,1.82-5.26,4.48,0,6.05,10.75,2.27,10.75,9.41,0,3.44-2.55,5.52-6.22,5.52-2.46,0-4.48-.92-5.71-2.49Z"/>
  </g>
  <path class="cls-2" d="M65.86,16.12c-.44-.45-1.16-.45-1.59,0-.49.49-.43,1.34.17,1.74.37.25.87.25,1.24,0,.61-.41.66-1.25.17-1.74"/>
  <path class="cls-2" d="M64.47,10.62c-3.46-1.58-8.65-4.03-10.84-5.05-.51-.24-1.1.14-1.1.71,0,1.48.07,3.61.07,5.54-1.05-1.07-2.81-1.74-4.16-2.36-1.53-.71-3.1-1.3-4.71-1.8-3.24-1-6.59-1.62-9.95-1.95-3.82-.38-7.71-.2-11.46.58-6.2,1.29-12.28,4.26-16.9,8.62C2.57,17.58.35,21.38.2,25.23c-.22,5.46,1.31,8.39,4.12,11.41,4.48,4.81,14.13,5.48,18.03-.22,1.76-2.56,2.14-6.06.86-8.89s-4.21-4.89-7.32-4.99c-2.41-.08-4.99,1.14-5.91,3.38-.71,1.71-.31,3.82.98,5.13.5.51,1.18.94,1.92.77.43-.1.8-.43.86-.87.09-.66-.48-1.08-.83-1.58-.63-.9-.51-2.26.29-3.03.67-.65,1.67-.84,2.6-.84.87,0,1.76.16,2.51.6,1.06.61,1.76,1.75,2,2.95.73,3.58-2.19,6.49-6.14,6.73-2.02.12-4.08-.41-5.66-1.68-4-3.21-4.98-9.78-.41-13.29,4.33-3.33,9.8-2.47,13.03-.74,2.58,1.39,4.5,3.65,5.96,6.15.73,1.25,1.35,2.57,1.93,3.91.56,1.28,1.08,2.58,2.19,3.52.74.63,1.65.61,2.61.61h5.52c.75,0,.56-.5.24-.83-.73-.75-1.78-.92-2.75-1.19-2.21-.61-1.99-3.56-1.38-3.56,1.98,0,2.05.07,3.79.04,2.51-.03,3.27-.18,5.23.55h0c1.05.39,2.07,1.42,2.72,2.36.35.5.63.97.8,1.45.12.34.27.79.6.97.02,0,.04.02.06.02.61.22,2.2.18,2.2.18h2.91c.25,0,2.44,0,2.38-.25-.27-1.17-1.62-1.38-2.65-1.99-.95-.56-1.85-1.2-2.26-2.31-.21-.57-.08-1.88.28-2.36.27-.35.66-.58,1.09-.67.47-.1.95-.02,1.43.03.58.06,1.14.16,1.73.23,1.11.15,2.24.21,3.36.17,1.85-.05,3.71-.35,5.47-.95,1.23-.41,2.43-.97,3.48-1.74,1.19-.88.88-.8-.32-.67-1.43.15-2.89.17-4.33.08-1.34-.07-2.67-.24-3.89-.86-.96-.5-1.78-1-2.55-1.76-.12-.12-.18-.46.02-.67.2-.21.63-.09.76.02,1.33,1.11,3.3,2.02,5.35,2.12,1.11.05,2.19.07,3.29.02.56-.02,1.39-.02,1.95-.02.28,0,1.06.08,1.21-.22.03-.09.03-.19.03-.29-.16-4.43-.49-9.43-5.13-11.55ZM62.5,20.41c-1.54-.36-2.76-1.58-3.12-3.11-.71-3.01,2-5.72,5.02-5.02,1.53.36,2.75,1.58,3.12,3.11.71,3.02-2,5.72-5.02,5.02Z"/>
</svg>