<?xml version="1.0" encoding="UTF-8"?>
<svg id="Layer_1" data-name="Layer 1" xmlns="http://www.w3.org/2000/svg" viewBox="0 0 244.75 113.34">
  <defs>
    <style>
      .cls-1 {
        fill: #42b077;
      }

      .cls-2 {
        fill: #0b3835;
      }
    </style>
  </defs>
  <g id="Layer_1-2" data-name="Layer 1">
    <path class="cls-1" d="M85.07,15.9c-.48.32-1.12.32-1.6,0-.79-.52-.86-1.61-.23-2.24.56-.58,1.49-.58,2.05,0,.63.63.56,1.72-.23,2.24M87.35,12.73c.91,3.88-2.57,7.37-6.45,6.46-1.98-.46-3.54-2.03-4.01-4.01-.91-3.88,2.57-7.36,6.45-6.45,1.98.46,3.54,2.03,4.01,4M61.23,33.59c.44.64.81,1.25,1.02,1.87.14.44.33,1.01.76,1.25.03.01.04.02.07.03.79.29,2.83.24,2.83.24h3.74c.32,0,3.13,0,3.06-.32-.34-1.5-2.08-1.77-3.4-2.56-1.22-.73-2.38-1.55-2.9-2.97-.27-.73-.11-2.42.36-3.04.34-.45.85-.74,1.39-.86.6-.13,1.23-.02,1.83.04.74.08,1.48.21,2.22.3,1.43.19,2.88.26,4.32.22,2.38-.07,4.77-.45,7.03-1.22,1.58-.53,3.13-1.25,4.47-2.24,1.52-1.13,1.12-1.03-.42-.87-1.85.19-3.72.22-5.58.11-1.73-.1-3.44-.3-5.01-1.11-1.23-.64-2.29-1.27-3.27-2.26-.15-.15-.24-.58.03-.86.26-.27.81-.11.98.03,1.71,1.43,4.25,2.6,6.89,2.73,1.42.07,2.81.1,4.24.04.71-.03,1.79-.03,2.5-.04.37,0,1.37.1,1.56-.29.06-.11.05-.25.05-.37-.21-5.7-.63-12.13-6.6-14.86-4.45-2.04-11.13-5.19-13.94-6.5-.65-.31-1.42.18-1.42.91,0,1.9.1,4.64.1,7.13-1.35-1.38-3.62-2.24-5.36-3.04-1.97-.9-4-1.67-6.07-2.31-4.16-1.29-8.47-2.08-12.8-2.51-4.91-.49-9.91-.26-14.75.74-7.97,1.65-15.8,5.48-21.74,11.09C3.79,15.54.93,20.43.73,25.39c-.28,7.02,1.69,10.79,5.31,14.68,5.77,6.19,18.17,7.06,23.2-.28,2.26-3.31,2.75-7.79,1.11-11.44-1.64-3.65-5.41-6.29-9.41-6.43-3.1-.1-6.41,1.48-7.6,4.35-.91,2.19-.39,4.9,1.26,6.6.64.66,1.52,1.21,2.47.99.56-.13,1.03-.55,1.11-1.12.13-.84-.61-1.38-1.06-2.03-.82-1.16-.65-2.91.37-3.9.86-.84,2.14-1.08,3.34-1.08,1.12,0,2.26.2,3.22.77,1.36.8,2.26,2.26,2.57,3.8.93,4.61-2.82,8.36-7.9,8.65-2.6.15-5.25-.53-7.28-2.16-5.14-4.13-6.4-12.59-.52-17.1,5.58-4.28,12.62-3.18,16.77-.95,3.32,1.78,5.8,4.69,7.67,7.92.94,1.62,1.74,3.31,2.49,5.03.72,1.65,1.39,3.32,2.82,4.53.95.8,2.12.77,3.36.77h7.1c.96,0,.73-.64.31-1.07-.94-.96-2.29-1.18-3.54-1.52-2.86-.79-2.57-4.57-1.78-4.57,2.56,0,2.64.08,4.88.05,3.23-.04,4.21-.23,6.74.7,1.35.5,2.65,1.82,3.5,3.03"/>
  </g>
  <g>
    <path class="cls-2" d="M10.11,81.62c-2.08,0-3.89-.39-5.44-1.16-1.55-.77-2.87-1.8-3.96-3.08l3.04-3.04c1.09,1.12,2.16,1.92,3.2,2.4s2.15.72,3.32.72c1.57,0,2.81-.37,3.7-1.1.89-.73,1.34-1.69,1.34-2.86,0-.91-.25-1.65-.76-2.22-.51-.57-1.17-1.04-2-1.4-.83-.36-1.74-.68-2.74-.96-1-.28-1.99-.59-2.98-.94-.99-.35-1.89-.8-2.72-1.36-.83-.56-1.49-1.29-2-2.2-.51-.91-.76-2.04-.76-3.4,0-1.76.4-3.27,1.2-4.54.8-1.27,1.94-2.25,3.42-2.94,1.48-.69,3.19-1.04,5.14-1.04,1.81,0,3.45.32,4.9.96,1.45.64,2.65,1.49,3.58,2.56l-3.12,3.12c-.8-.83-1.63-1.45-2.48-1.86-.85-.41-1.83-.62-2.92-.62-1.47,0-2.64.35-3.52,1.06s-1.32,1.65-1.32,2.82c0,.85.25,1.55.76,2.08.51.53,1.18.95,2.02,1.26.84.31,1.76.59,2.76.84s2.01.55,3.02.9c1.01.35,1.93.8,2.76,1.36.83.56,1.49,1.31,2,2.24.51.93.76,2.12.76,3.56,0,1.79-.43,3.34-1.28,4.66-.85,1.32-2.05,2.35-3.58,3.08-1.53.73-3.31,1.1-5.34,1.1Z"/>
    <path class="cls-2" d="M35.47,81.62c-3.28,0-5.91-.85-7.88-2.54-1.97-1.69-2.96-4.26-2.96-7.7v-18.32h4.92v17.92c0,2.03.53,3.55,1.6,4.56,1.07,1.01,2.51,1.52,4.32,1.52s3.26-.51,4.34-1.52c1.08-1.01,1.62-2.53,1.62-4.56v-17.92h4.92v18.32c0,2.27-.45,4.16-1.36,5.68-.91,1.52-2.17,2.66-3.8,3.42-1.63.76-3.53,1.14-5.72,1.14Z"/>
    <path class="cls-2" d="M59.87,81.62c-2.08,0-3.89-.39-5.44-1.16-1.55-.77-2.87-1.8-3.96-3.08l3.04-3.04c1.09,1.12,2.16,1.92,3.2,2.4s2.15.72,3.32.72c1.57,0,2.81-.37,3.7-1.1.89-.73,1.34-1.69,1.34-2.86,0-.91-.25-1.65-.76-2.22-.51-.57-1.17-1.04-2-1.4-.83-.36-1.74-.68-2.74-.96-1-.28-1.99-.59-2.98-.94-.99-.35-1.89-.8-2.72-1.36-.83-.56-1.49-1.29-2-2.2-.51-.91-.76-2.04-.76-3.4,0-1.76.4-3.27,1.2-4.54.8-1.27,1.94-2.25,3.42-2.94,1.48-.69,3.19-1.04,5.14-1.04,1.81,0,3.45.32,4.9.96,1.45.64,2.65,1.49,3.58,2.56l-3.12,3.12c-.8-.83-1.63-1.45-2.48-1.86-.85-.41-1.83-.62-2.92-.62-1.47,0-2.64.35-3.52,1.06s-1.32,1.65-1.32,2.82c0,.85.25,1.55.76,2.08.51.53,1.18.95,2.02,1.26.84.31,1.76.59,2.76.84s2.01.55,3.02.9c1.01.35,1.93.8,2.76,1.36.83.56,1.49,1.31,2,2.24.51.93.76,2.12.76,3.56,0,1.79-.43,3.34-1.28,4.66-.85,1.32-2.05,2.35-3.58,3.08-1.53.73-3.31,1.1-5.34,1.1Z"/>
    <path class="cls-2" d="M79.03,81.06c-1.36,0-2.47-.44-3.34-1.32-.87-.88-1.3-2-1.3-3.36v-18.64c0-1.36.43-2.48,1.3-3.36.87-.88,1.98-1.32,3.34-1.32h13.64v4.48h-12c-.4,0-.74.14-1.02.42s-.42.62-.42,1.02v16.16c0,.4.14.74.42,1.02s.62.42,1.02.42h12v4.48h-13.64ZM76.75,69.14v-4.28h15.08v4.28h-15.08Z"/>
    <path class="cls-2" d="M107.67,81.06v-28h8.52c2.77,0,5,.69,6.68,2.06,1.68,1.37,2.52,3.41,2.52,6.1,0,2.83-.84,4.89-2.52,6.2-1.68,1.31-3.91,1.96-6.68,1.96h-7.28v-2.32h7.2c1.97,0,3.56-.45,4.76-1.36,1.2-.91,1.8-2.39,1.8-4.44,0-1.89-.6-3.35-1.8-4.36-1.2-1.01-2.79-1.52-4.76-1.52h-6.88l1.12-1.04v26.72h-2.68ZM123.11,81.06l-8.4-12.84h3.04l8.48,12.84h-3.12Z"/>
    <path class="cls-2" d="M136.39,81.46c-2.24,0-4.02-.51-5.34-1.54-1.32-1.03-1.98-2.38-1.98-4.06,0-1.09.29-2.07.88-2.94.59-.87,1.45-1.55,2.6-2.06,1.15-.51,2.52-.76,4.12-.76,2.21,0,3.93.49,5.14,1.48,1.21.99,1.82,2.29,1.82,3.92h-.48c0,1.87-.56,3.33-1.68,4.38-1.12,1.05-2.81,1.58-5.08,1.58ZM142.27,81.06l-.04-6.96-.28-.76v-4.68c0-1.65-.41-2.87-1.24-3.64-.83-.77-2.03-1.16-3.6-1.16-1.04,0-2.11.2-3.22.6-1.11.4-2.07,1.01-2.9,1.84l-1.24-1.8c.91-.99,2.02-1.73,3.34-2.22,1.32-.49,2.69-.74,4.1-.74s2.71.26,3.8.78c1.09.52,1.95,1.3,2.56,2.34.61,1.04.92,2.36.92,3.96v6.08c0,1.07,0,2.13.02,3.18.01,1.05.05,2.11.1,3.18h-2.32ZM136.87,79.5c1.6,0,2.85-.34,3.74-1.02.89-.68,1.34-1.57,1.34-2.66s-.45-2.01-1.34-2.66c-.89-.65-2.15-.98-3.78-.98s-2.87.33-3.8.98c-.93.65-1.4,1.54-1.4,2.66s.47,1.98,1.4,2.66c.93.68,2.21,1.02,3.84,1.02Z"/>
    <path class="cls-2" d="M150.59,81.06v-19.12h2.44v5.12h-.68c.29-1.07.71-1.95,1.26-2.66.55-.71,1.17-1.27,1.86-1.7.69-.43,1.4-.73,2.12-.9.72-.17,1.4-.26,2.04-.26,2.16,0,3.92.69,5.28,2.06,1.36,1.37,2.04,3.47,2.04,6.3v11.16h-2.56v-10.84c0-2.24-.51-3.85-1.52-4.84-1.01-.99-2.29-1.48-3.84-1.48-1.07,0-2.04.24-2.92.72-.88.48-1.59,1.19-2.14,2.12-.55.93-.82,2.11-.82,3.52v10.8h-2.56Z"/>
    <path class="cls-2" d="M181.39,81.46c-1.89,0-3.57-.41-5.02-1.24-1.45-.83-2.6-1.97-3.44-3.44-.84-1.47-1.26-3.15-1.26-5.04v-.52c0-1.89.42-3.57,1.26-5.02.84-1.45,1.99-2.59,3.44-3.42,1.45-.83,3.13-1.24,5.02-1.24,1.39,0,2.64.24,3.76.72,1.12.48,2.08,1.17,2.88,2.08l-1.6,1.6c-.64-.64-1.38-1.14-2.22-1.5-.84-.36-1.79-.54-2.86-.54-1.36,0-2.59.31-3.68.92-1.09.61-1.95,1.47-2.56,2.58-.61,1.11-.92,2.38-.92,3.82v.52c0,1.47.31,2.75.94,3.84.63,1.09,1.48,1.95,2.56,2.58,1.08.63,2.31.94,3.7.94,1.04,0,1.99-.17,2.84-.5.85-.33,1.61-.85,2.28-1.54l1.56,1.6c-.8.88-1.77,1.57-2.9,2.06-1.13.49-2.39.74-3.78.74Z"/>
    <path class="cls-2" d="M192.47,81.06v-29.2h2.44v15.2h-.68c.29-1.07.71-1.95,1.26-2.66.55-.71,1.17-1.27,1.86-1.7.69-.43,1.4-.73,2.12-.9.72-.17,1.4-.26,2.04-.26,2.16,0,3.92.69,5.28,2.06,1.36,1.37,2.04,3.47,2.04,6.3v11.16h-2.56v-10.84c0-2.24-.51-3.85-1.52-4.84-1.01-.99-2.29-1.48-3.84-1.48-1.07,0-2.04.24-2.92.72-.88.48-1.59,1.19-2.14,2.12-.55.93-.82,2.11-.82,3.52v10.8h-2.56Z"/>
    <path class="cls-2" d="M223.07,81.46c-1.87,0-3.52-.42-4.96-1.26-1.44-.84-2.56-2-3.36-3.48s-1.2-3.19-1.2-5.14v-.4c0-1.87.37-3.52,1.1-4.96.73-1.44,1.77-2.58,3.12-3.42,1.35-.84,2.89-1.26,4.62-1.26s3.32.44,4.6,1.32c1.28.88,2.23,2.12,2.84,3.72.61,1.6.79,3.47.52,5.6h-14.96v-2.12h13.6l-1.12,1.12c.19-1.52.07-2.83-.36-3.94-.43-1.11-1.08-1.96-1.96-2.56-.88-.6-1.92-.9-3.12-.9-1.31,0-2.43.31-3.38.94-.95.63-1.68,1.49-2.2,2.6-.52,1.11-.78,2.39-.78,3.86v.4c0,1.47.29,2.77.88,3.9.59,1.13,1.41,2.02,2.48,2.66,1.07.64,2.32.96,3.76.96,1.01,0,1.94-.13,2.78-.4.84-.27,1.55-.65,2.14-1.16l1.44,1.64c-.72.72-1.64,1.28-2.76,1.68-1.12.4-2.36.6-3.72.6Z"/>
    <path class="cls-2" d="M235.27,81.06v-19.12h2.48v4.56l-.4-.04c.24-1.23.63-2.17,1.18-2.82.55-.65,1.21-1.11,2-1.36.79-.25,1.65-.38,2.58-.38h1.64v2.52h-1.84c-1.57,0-2.81.4-3.72,1.2-.91.8-1.36,2.08-1.36,3.84v11.6h-2.56Z"/>
    <path class="cls-2" d="M0,100.63v-.78h7.81v.78H0ZM2.69,113.06v-17.47c0-.88.28-1.59.85-2.14.57-.55,1.28-.83,2.14-.83h2.13v.76h-2.13c-.63,0-1.16.21-1.57.62s-.62.93-.62,1.57v17.5h-.81Z"/>
    <path class="cls-2" d="M15.09,113.34c-1.21,0-2.29-.29-3.23-.88-.94-.59-1.68-1.4-2.21-2.42-.53-1.03-.8-2.21-.8-3.56v-.22c0-1.31.27-2.46.8-3.47.53-1.01,1.27-1.8,2.21-2.37.94-.57,2.02-.85,3.23-.85s2.29.28,3.22.84c.93.56,1.67,1.34,2.2,2.34.53,1,.8,2.14.8,3.43v.31c0,1.34-.27,2.53-.8,3.56-.53,1.03-1.27,1.83-2.2,2.42-.93.59-2.01.88-3.22.88ZM15.09,112.58c1.06,0,2-.26,2.81-.78s1.45-1.24,1.9-2.16c.46-.91.69-1.97.69-3.16v-.31c0-1.16-.23-2.17-.69-3.04-.46-.87-1.09-1.55-1.9-2.04-.81-.49-1.75-.74-2.81-.74s-1.98.25-2.8.76-1.47,1.2-1.93,2.09c-.47.89-.7,1.91-.7,3.07v.22c0,1.19.23,2.25.7,3.16.47.92,1.11,1.63,1.93,2.16s1.75.78,2.8.78Z"/>
    <path class="cls-2" d="M25.23,113.06v-13.22h.78v2.69l-.17-.06c.22-.71.53-1.25.92-1.62.39-.37.85-.63,1.37-.78.52-.15,1.08-.22,1.68-.22h1.2v.81h-1.23c-1.16,0-2.07.31-2.74.94-.67.63-1.01,1.65-1.01,3.07v8.4h-.81Z"/>
    <path class="cls-2" d="M37.69,113.06l7.87-19.6h.87l7.9,19.6h-.87l-7.56-18.9h.25l-7.62,18.9h-.84ZM40.66,106.93l.34-.78h10.02l.34.78h-10.7Z"/>
    <path class="cls-2" d="M60.37,113.06l-6.1-19.6h.84l5.8,18.82h-.25l6.05-18.82h.87l6.05,18.79h-.22l5.77-18.79h.84l-6.1,19.6h-.81l-6.08-18.76h.25l-6.05,18.76h-.84Z"/>
    <path class="cls-2" d="M87.42,113.34c-1.23,0-2.34-.22-3.32-.66s-1.78-1.05-2.39-1.83l.53-.59c.6.75,1.34,1.32,2.24,1.72.9.4,1.89.6,2.97.6,1.64,0,2.94-.43,3.91-1.29.96-.86,1.44-1.99,1.44-3.39,0-.9-.2-1.62-.59-2.17s-.91-.98-1.54-1.3c-.63-.32-1.33-.58-2.09-.78-.76-.21-1.52-.41-2.28-.62-.77-.21-1.47-.48-2.1-.83-.63-.35-1.15-.81-1.54-1.4-.39-.59-.59-1.36-.59-2.31,0-1.08.25-2.02.76-2.81.5-.79,1.21-1.41,2.13-1.85.91-.44,1.99-.66,3.22-.66,1.03,0,1.94.15,2.74.46.8.31,1.47.75,1.99,1.33l-.53.59c-.52-.54-1.13-.95-1.83-1.22-.7-.27-1.5-.41-2.39-.41-1.59,0-2.86.42-3.82,1.25-.96.83-1.44,1.91-1.44,3.23,0,.86.2,1.54.59,2.06.39.51.9.91,1.54,1.2s1.33.53,2.1.73c.77.2,1.53.4,2.3.62.77.21,1.47.5,2.1.87.63.36,1.15.85,1.54,1.47.39.62.59,1.44.59,2.46,0,1.14-.26,2.12-.78,2.95-.52.83-1.25,1.47-2.18,1.9-.93.44-2.02.66-3.25.66Z"/>
  </g>
</svg>