<?xml version="1.0" standalone="no"?>
<svg xmlns="http://www.w3.org/2000/svg" width="760px" height="460px" viewBox="0 0 760 460"><defs><filter id="shadow-1" filterUnits="userSpaceOnUse" x="53" y="126.6875" width="654" height="210.609375"><feGaussianBlur in="SourceGraphic" stdDeviation="3"/></filter><filter id="shadow-2" filterUnits="userSpaceOnUse" x="-13" y="76.6875" width="786" height="342.609375"><feGaussianBlur in="SourceGraphic" stdDeviation="25"/></filter><linearGradient id="svggrad-3" gradientUnits="userSpaceOnUse" x1="99.89888712180534" y1="130.80519504997778" x2="172.10111287819467" y2="329.1791799500222"><stop offset="0.00%" stop-color="rgb(48, 186, 120) 0%"/><stop offset="100.00%" stop-color="rgb(12, 159, 106) 100%"/></linearGradient></defs><g><g><g><rect x="0" y="0" width="760" height="460" fill="rgb(243,245,244)"/><g><rect x="70" y="143.6875" width="620" height="176.609375" rx="18" ry="18" fill="rgba(12,50,44,0.08)" filter="url(#shadow-1)"/><rect x="70" y="159.6875" width="620" height="176.609375" rx="18" ry="18" fill="rgba(12,50,44,0.16)" filter="url(#shadow-2)"/><rect x="70" y="141.6875" width="620" height="176.609375" rx="18" ry="18" fill="rgb(255,255,255)"/><g><rect x="70" y="141.6875" width="132" height="176.609375" fill="url(#svggrad-3)"/><g><text x="117.53" y="176.98" dominant-baseline="text-before-edge" font-size="16px" font-weight="600" font-style="normal" font-family="SUSE, system-ui, -apple-system, &quot;Segoe UI&quot;, Roboto, sans-serif" letter-spacing="2.56px" fill="rgb(255,255,255)">JUN</text></g><g><path d="M3.36,0L3.36,-6.03L17.28,-20.01Q19.55,-22.27 20.53,-24.24Q21.52,-26.22 21.52,-28.25Q21.52,-30.57 20.04,-32.04Q18.56,-33.52 16.01,-33.52Q13.57,-33.52 11.6,-32.22Q9.63,-30.91 7.83,-28.36L2.61,-33.47Q4.99,-37.06 8.44,-39.12Q11.89,-41.18 16.3,-41.18Q20.24,-41.18 23.32,-39.64Q26.39,-38.11 28.13,-35.38Q29.87,-32.65 29.87,-29.06Q29.87,-25.75 28.22,-22.39Q26.56,-19.02 22.97,-15.37L14.91,-7.31L31.55,-7.31L31.55,0L3.36,0ZM52.2,0.58Q47.5,0.58 44.02,-0.87Q40.54,-2.32 38.63,-4.99Q36.71,-7.66 36.71,-11.31Q36.71,-14.73 38.43,-17.31Q40.14,-19.89 43.27,-21.11Q40.77,-22.45 39.38,-24.79Q37.99,-27.14 37.99,-30.1Q37.99,-33.47 39.73,-35.93Q41.47,-38.4 44.66,-39.79Q47.85,-41.18 52.2,-41.18Q56.49,-41.18 59.68,-39.82Q62.87,-38.45 64.64,-35.99Q66.41,-33.52 66.41,-30.16Q66.41,-27.26 65.02,-24.88Q63.63,-22.5 61.13,-21.17Q64.21,-19.89 65.95,-17.34Q67.69,-14.79 67.69,-11.37Q67.69,-7.66 65.77,-4.99Q63.86,-2.32 60.38,-0.87Q56.9,0.58 52.2,0.58ZM52.26,-23.95Q55.1,-23.95 56.78,-25.32Q58.46,-26.68 58.46,-29Q58.46,-31.38 56.75,-32.77Q55.04,-34.16 52.2,-34.16Q49.36,-34.16 47.68,-32.77Q45.99,-31.38 45.99,-29Q45.99,-26.68 47.68,-25.32Q49.36,-23.95 52.26,-23.95ZM52.2,-6.38Q55.45,-6.38 57.36,-7.95Q59.28,-9.51 59.28,-12.06Q59.28,-14.67 57.36,-16.18Q55.45,-17.69 52.26,-17.69Q49.01,-17.69 47.07,-16.18Q45.12,-14.67 45.12,-12.06Q45.12,-9.51 47.04,-7.95Q48.95,-6.38 52.2,-6.38Z" transform="translate(101.19,251.98)" fill="rgb(255,255,255)"/></g><g opacity="0.9000"><text x="114.92" y="267.98" dominant-baseline="text-before-edge" font-size="12px" font-weight="500" font-style="normal" font-family="SUSE, system-ui, -apple-system, &quot;Segoe UI&quot;, Roboto, sans-serif" letter-spacing="0.48px" fill="rgb(255,255,255)">Sunday</text></g></g><g><g><text x="230" y="169.69" dominant-baseline="text-before-edge" font-size="11px" font-weight="600" font-style="normal" font-family="SUSE, system-ui, -apple-system, &quot;Segoe UI&quot;, Roboto, sans-serif" letter-spacing="1.54px" fill="rgb(107,124,119)">CALENDAR EVENT</text><text x="361.13" y="169.69" dominant-baseline="text-before-edge" font-size="11px" font-weight="600" font-style="normal" font-family="SUSE, system-ui, -apple-system, &quot;Segoe UI&quot;, Roboto, sans-serif" letter-spacing="0.66px" fill="rgb(12,159,106)">.ICS</text></g><g><path d="M5.62,0L5.62,-15.44L0.38,-15.44L0.38,-18.9L14.74,-18.9L14.74,-15.44L9.45,-15.44L9.45,0L5.62,0ZM20.22,0.27Q18.2,0.27 16.69,-0.58Q15.17,-1.43 14.32,-2.96Q13.47,-4.48 13.47,-6.53L13.47,-6.8Q13.47,-8.67 14.27,-10.19Q15.07,-11.72 16.5,-12.61Q17.93,-13.5 19.87,-13.5Q21.9,-13.5 23.33,-12.51Q24.76,-11.53 25.42,-9.73Q26.08,-7.94 25.79,-5.51L17.06,-5.51Q17.2,-4.29 18.05,-3.52Q18.9,-2.75 20.38,-2.75Q21.38,-2.75 22.02,-3.05Q22.65,-3.35 23.19,-3.89L25.25,-1.78Q24.44,-0.76 23.14,-0.24Q21.84,0.27 20.22,0.27ZM19.87,-10.69Q18.66,-10.69 17.98,-9.92Q17.31,-9.15 17.09,-7.91L22.36,-7.91Q22.3,-9.26 21.61,-9.98Q20.93,-10.69 19.87,-10.69ZM32.35,0.27Q30.13,0.27 28.8,-0.82Q27.46,-1.92 27.46,-3.67Q27.46,-5.45 28.89,-6.59Q30.32,-7.72 32.86,-7.72Q34.51,-7.72 35.64,-7.21L35.64,-8.29Q35.64,-9.45 34.96,-9.92Q34.29,-10.39 33.26,-10.39Q32.29,-10.39 31.24,-10.03Q30.19,-9.67 29.43,-8.99L27.84,-11.37Q28.73,-12.34 30.25,-12.92Q31.78,-13.5 33.51,-13.5Q35.99,-13.5 37.58,-12.22Q39.18,-10.93 39.18,-8.51L39.18,-4.21Q39.18,-3.16 39.18,-2.11Q39.18,-1.05 39.26,0L36.07,0L36.07,-1.38Q35.02,0.27 32.35,0.27ZM33.35,-2.32Q34.4,-2.32 35.03,-2.74Q35.67,-3.16 35.67,-3.83Q35.67,-4.51 35.03,-4.91Q34.4,-5.32 33.35,-5.32Q32.32,-5.32 31.68,-4.91Q31.05,-4.51 31.05,-3.83Q31.05,-3.19 31.68,-2.75Q32.32,-2.32 33.35,-2.32ZM42.42,0L42.42,-13.23L45.87,-13.23L45.87,-11.77Q46.63,-12.8 47.64,-13.15Q48.65,-13.5 49.57,-13.5Q50.79,-13.5 51.75,-13.01Q52.7,-12.53 53.3,-11.56Q53.89,-12.34 54.66,-12.76Q55.43,-13.18 56.17,-13.34Q56.92,-13.5 57.51,-13.5Q59.64,-13.5 61.01,-12.12Q62.37,-10.75 62.37,-8.1L62.37,0L58.81,0L58.81,-7.56Q58.81,-8.96 58.2,-9.6Q57.59,-10.23 56.57,-10.23Q55.54,-10.23 54.86,-9.53Q54.19,-8.83 54.19,-7.59L54.19,0L50.6,0L50.6,-7.56Q50.6,-8.96 50,-9.6Q49.41,-10.23 48.41,-10.23Q47.36,-10.23 46.67,-9.53Q45.98,-8.83 45.98,-7.59L45.98,0L42.42,0ZM71.42,0L71.42,-13.23L74.87,-13.23L74.87,-11.77Q75.63,-12.8 76.64,-13.15Q77.65,-13.5 78.57,-13.5Q79.79,-13.5 80.74,-13.01Q81.7,-12.53 82.3,-11.56Q82.89,-12.34 83.66,-12.76Q84.43,-13.18 85.17,-13.34Q85.91,-13.5 86.51,-13.5Q88.64,-13.5 90,-12.12Q91.37,-10.75 91.37,-8.1L91.37,0L87.8,0L87.8,-7.56Q87.8,-8.96 87.2,-9.6Q86.59,-10.23 85.56,-10.23Q84.54,-10.23 83.86,-9.53Q83.19,-8.83 83.19,-7.59L83.19,0L79.6,0L79.6,-7.56Q79.6,-8.96 79,-9.6Q78.41,-10.23 77.41,-10.23Q76.36,-10.23 75.67,-9.53Q74.98,-8.83 74.98,-7.59L74.98,0L71.42,0ZM100.55,0.27Q98.52,0.27 97.01,-0.58Q95.5,-1.43 94.65,-2.96Q93.8,-4.48 93.8,-6.53L93.8,-6.8Q93.8,-8.67 94.59,-10.19Q95.39,-11.72 96.82,-12.61Q98.25,-13.5 100.2,-13.5Q102.22,-13.5 103.65,-12.51Q105.08,-11.53 105.75,-9.73Q106.41,-7.94 106.11,-5.51L97.39,-5.51Q97.52,-4.29 98.37,-3.52Q99.23,-2.75 100.71,-2.75Q101.71,-2.75 102.34,-3.05Q102.98,-3.35 103.52,-3.89L105.57,-1.78Q104.76,-0.76 103.46,-0.24Q102.17,0.27 100.55,0.27ZM100.2,-10.69Q98.98,-10.69 98.31,-9.92Q97.63,-9.15 97.42,-7.91L102.68,-7.91Q102.63,-9.26 101.94,-9.98Q101.25,-10.69 100.2,-10.69ZM114.7,0.27Q112.67,0.27 111.16,-0.58Q109.65,-1.43 108.8,-2.96Q107.95,-4.48 107.95,-6.53L107.95,-6.8Q107.95,-8.67 108.74,-10.19Q109.54,-11.72 110.97,-12.61Q112.4,-13.5 114.35,-13.5Q116.37,-13.5 117.8,-12.51Q119.23,-11.53 119.89,-9.73Q120.56,-7.94 120.26,-5.51L111.54,-5.51Q111.67,-4.29 112.52,-3.52Q113.37,-2.75 114.86,-2.75Q115.86,-2.75 116.49,-3.05Q117.13,-3.35 117.67,-3.89L119.72,-1.78Q118.91,-0.76 117.61,-0.24Q116.32,0.27 114.7,0.27ZM114.35,-10.69Q113.13,-10.69 112.46,-9.92Q111.78,-9.15 111.56,-7.91L116.83,-7.91Q116.78,-9.26 116.09,-9.98Q115.4,-10.69 114.35,-10.69ZM128.01,0Q127.04,0 126.05,-0.32Q125.06,-0.65 124.39,-1.53Q123.71,-2.4 123.71,-4.08L123.71,-10.21L121.58,-10.21L121.58,-13.23L123.71,-13.23L123.71,-16.44L127.31,-16.44L127.31,-13.23L130.19,-13.23L130.19,-10.21L127.31,-10.21L127.31,-3.78Q127.31,-3.46 127.52,-3.24Q127.74,-3.02 128.06,-3.02L130.19,-3.02L130.19,0L128.01,0ZM134,0L134,-10.21L131.71,-10.21L131.71,-13.23L137.59,-13.23L137.59,0L134,0ZM133.84,-15.74L133.84,-19.52L137.81,-19.52L137.81,-15.74L133.84,-15.74ZM140.94,0L140.94,-13.23L144.4,-13.23L144.4,-11.74Q145.21,-12.8 146.29,-13.15Q147.37,-13.5 148.2,-13.5Q150.44,-13.5 151.78,-12.03Q153.12,-10.56 153.12,-7.91L153.12,0L149.53,0L149.53,-7.34Q149.53,-8.86 148.88,-9.54Q148.23,-10.23 147.18,-10.23Q146.04,-10.23 145.29,-9.48Q144.53,-8.72 144.53,-7.24L144.53,0L140.94,0ZM155.44,5.4L155.44,2.46L163.51,2.46Q164.51,2.46 164.51,1.57Q164.51,0.68 163.51,0.68L158.76,0.68Q157.73,0.68 157.14,0.15Q156.55,-0.38 156.45,-1.2Q156.36,-2.02 156.79,-2.92L157.6,-4.56Q156.63,-5.24 156.07,-6.22Q155.52,-7.21 155.52,-8.42L155.52,-8.69Q155.52,-10.1 156.28,-11.18Q157.03,-12.26 158.38,-12.88Q159.73,-13.5 161.46,-13.5Q161.51,-13.5 161.57,-13.5L162.7,-15.98L166.32,-15.98L164.59,-12.85Q165.89,-12.26 166.64,-11.18Q167.4,-10.1 167.4,-8.72L167.4,-8.42Q167.4,-6.99 166.64,-5.87Q165.89,-4.75 164.55,-4.13Q163.22,-3.51 161.46,-3.51Q160.95,-3.51 160.46,-3.56L159.95,-2.54Q159.87,-2.38 159.91,-2.24Q159.95,-2.11 160.16,-2.11L164.05,-2.11Q165.73,-2.11 166.79,-1.22Q167.86,-0.32 167.86,1.59Q167.86,3.24 166.75,4.32Q165.65,5.4 163.89,5.4L155.44,5.4ZM161.46,-6.21Q162.03,-6.21 162.59,-6.43Q163.16,-6.64 163.53,-7.14Q163.89,-7.64 163.89,-8.53Q163.89,-9.48 163.22,-10.06Q162.54,-10.64 161.46,-10.64Q160.38,-10.64 159.7,-10.06Q159.03,-9.48 159.03,-8.53Q159.03,-7.64 159.41,-7.14Q159.79,-6.64 160.34,-6.43Q160.89,-6.21 161.46,-6.21Z" transform="translate(230,220.19)" fill="rgb(12,50,44)"/></g><g><path d="M3.95,0.2Q2.81,0.2 1.96,-0.22Q1.11,-0.64 0.53,-1.33L1.49,-2.31Q2.07,-1.69 2.69,-1.41Q3.3,-1.12 4.01,-1.12Q4.98,-1.12 5.54,-1.6Q6.09,-2.07 6.09,-2.82Q6.09,-3.37 5.8,-3.72Q5.51,-4.06 5.03,-4.27Q4.56,-4.48 3.99,-4.64Q3.42,-4.8 2.85,-4.99Q2.28,-5.19 1.81,-5.5Q1.34,-5.8 1.04,-6.3Q0.75,-6.79 0.75,-7.57Q0.75,-8.53 1.19,-9.23Q1.64,-9.93 2.44,-10.31Q3.26,-10.69 4.34,-10.69Q5.31,-10.69 6.09,-10.36Q6.87,-10.02 7.38,-9.45L6.39,-8.44Q5.94,-8.91 5.44,-9.14Q4.95,-9.37 4.32,-9.37Q3.41,-9.37 2.85,-8.92Q2.3,-8.46 2.3,-7.72Q2.3,-7.2 2.59,-6.88Q2.88,-6.57 3.36,-6.37Q3.84,-6.18 4.42,-6.04Q5,-5.89 5.57,-5.71Q6.14,-5.52 6.61,-5.2Q7.1,-4.89 7.39,-4.37Q7.68,-3.85 7.68,-3.04Q7.68,-2.05 7.21,-1.33Q6.74,-0.6 5.9,-0.2Q5.06,0.2 3.95,0.2ZM11.94,0.15Q10.74,0.15 9.95,-0.57Q9.15,-1.29 9.15,-2.82L9.15,-7.26L10.61,-7.26L10.61,-3.09Q10.61,-2.02 11.07,-1.61Q11.54,-1.2 12.26,-1.2Q13.01,-1.2 13.53,-1.69Q14.06,-2.17 14.06,-3.16L14.06,-7.26L15.51,-7.26L15.51,0L14.22,0L14.22,-0.99Q13.77,-0.31 13.13,-0.08Q12.48,0.15 11.94,0.15ZM17.64,0L17.64,-7.26L19.05,-7.26L19.05,-6.22Q19.5,-6.91 20.15,-7.16Q20.81,-7.41 21.35,-7.41Q22.58,-7.41 23.33,-6.61Q24.08,-5.82 24.08,-4.29L24.08,0L22.61,0L22.61,-4.06Q22.61,-5.13 22.14,-5.59Q21.68,-6.06 20.96,-6.06Q20.19,-6.06 19.65,-5.55Q19.11,-5.04 19.11,-4.03L19.11,0L17.64,0ZM29.07,0.15Q28.08,0.15 27.31,-0.31Q26.54,-0.78 26.09,-1.62Q25.65,-2.46 25.65,-3.57L25.65,-3.72Q25.65,-4.81 26.1,-5.65Q26.55,-6.48 27.32,-6.94Q28.1,-7.41 29.08,-7.41Q29.82,-7.41 30.42,-7.11Q31.02,-6.81 31.44,-6.27L31.44,-10.95L32.91,-10.95L32.91,0L31.58,0L31.58,-1.14Q31.15,-0.52 30.51,-0.19Q29.87,0.15 29.07,0.15ZM29.3,-1.14Q30.26,-1.14 30.89,-1.81Q31.53,-2.49 31.53,-3.63Q31.53,-4.77 30.89,-5.44Q30.26,-6.1 29.3,-6.1Q28.37,-6.1 27.74,-5.46Q27.12,-4.81 27.12,-3.72L27.12,-3.57Q27.12,-2.46 27.74,-1.8Q28.37,-1.14 29.3,-1.14ZM37.21,0.15Q35.99,0.15 35.24,-0.46Q34.5,-1.06 34.5,-2.02Q34.5,-2.65 34.88,-3.16Q35.25,-3.66 35.9,-3.95Q36.56,-4.24 37.41,-4.24Q38.5,-4.24 39.2,-3.82L39.2,-4.62Q39.2,-5.41 38.76,-5.76Q38.32,-6.1 37.62,-6.1Q37.05,-6.1 36.45,-5.89Q35.85,-5.68 35.42,-5.25L34.74,-6.27Q35.24,-6.81 36.04,-7.11Q36.84,-7.41 37.71,-7.41Q39.02,-7.41 39.83,-6.72Q40.65,-6.03 40.65,-4.69L40.65,-2.35Q40.65,-1.77 40.66,-1.18Q40.67,-0.58 40.7,0L39.38,0L39.38,-0.73Q38.73,0.15 37.21,0.15ZM37.62,-0.94Q38.35,-0.94 38.78,-1.25Q39.21,-1.56 39.21,-2.05Q39.21,-2.53 38.78,-2.84Q38.35,-3.15 37.6,-3.15Q36.87,-3.15 36.43,-2.84Q35.99,-2.53 35.99,-2.05Q35.99,-1.57 36.43,-1.26Q36.87,-0.94 37.62,-0.94ZM41.9,3L41.9,1.74L43.41,1.74Q43.67,1.74 43.82,1.58Q43.98,1.41 44.09,1.17L44.58,0.11L41.6,-7.26L43.23,-7.26L45.36,-1.69L47.34,-7.26L48.98,-7.26L45.56,1.23Q45.39,1.64 45.14,2.05Q44.9,2.46 44.47,2.73Q44.04,3 43.34,3L41.9,3ZM49.01,0L49.01,-1.84L50.78,-1.84L50.78,0.96Q50.78,1.45 50.58,1.73Q50.39,2 50.09,2.1Q49.79,2.21 49.49,2.21L48.95,2.21L48.95,1.35L49.49,1.35Q49.67,1.35 49.76,1.23Q49.86,1.11 49.86,0.95L49.86,0L49.01,0ZM55.56,0L55.56,-1.15L59.33,-4.96Q60.08,-5.7 60.35,-6.28Q60.61,-6.85 60.61,-7.41Q60.61,-8.22 60.13,-8.7Q59.64,-9.18 58.8,-9.18Q58.11,-9.18 57.52,-8.8Q56.93,-8.43 56.46,-7.72L55.44,-8.7Q56.04,-9.61 56.92,-10.13Q57.79,-10.65 58.85,-10.65Q59.85,-10.65 60.61,-10.26Q61.36,-9.87 61.79,-9.17Q62.21,-8.47 62.21,-7.56Q62.21,-6.76 61.82,-5.92Q61.43,-5.08 60.42,-4.06L57.77,-1.39L62.63,-1.39L62.63,0L55.56,0ZM68.08,0.15Q66.91,0.15 66.05,-0.22Q65.18,-0.6 64.69,-1.28Q64.22,-1.96 64.22,-2.88Q64.22,-3.82 64.72,-4.5Q65.24,-5.17 66.12,-5.49Q65.4,-5.8 64.99,-6.43Q64.58,-7.05 64.58,-7.86Q64.58,-8.7 65.01,-9.33Q65.44,-9.96 66.23,-10.3Q67.02,-10.65 68.08,-10.65Q69.15,-10.65 69.94,-10.3Q70.72,-9.96 71.16,-9.34Q71.6,-8.71 71.6,-7.87Q71.6,-7.06 71.18,-6.43Q70.77,-5.8 70.05,-5.49Q70.94,-5.19 71.44,-4.51Q71.96,-3.82 71.96,-2.89Q71.96,-1.96 71.47,-1.28Q70.99,-0.6 70.12,-0.22Q69.24,0.15 68.08,0.15ZM68.1,-6.04Q69,-6.04 69.54,-6.49Q70.08,-6.93 70.08,-7.66Q70.08,-8.4 69.53,-8.85Q68.99,-9.3 68.08,-9.3Q67.19,-9.3 66.65,-8.85Q66.11,-8.4 66.11,-7.66Q66.11,-6.93 66.65,-6.49Q67.19,-6.04 68.1,-6.04ZM68.08,-1.18Q69.11,-1.18 69.74,-1.69Q70.36,-2.2 70.36,-3.03Q70.36,-3.85 69.74,-4.34Q69.11,-4.83 68.1,-4.83Q67.08,-4.83 66.44,-4.34Q65.8,-3.85 65.8,-3.03Q65.8,-2.2 66.44,-1.69Q67.07,-1.18 68.08,-1.18ZM76.36,0L76.36,-1.42L78.58,-1.42Q78.99,-1.42 79.26,-1.69Q79.53,-1.96 79.53,-2.37L79.53,-9.07L76.86,-9.07L76.86,-10.5L81.11,-10.5L81.11,-2.52Q81.11,-1.29 80.42,-0.64Q79.74,0 78.45,0L76.36,0ZM85.88,0.15Q84.68,0.15 83.88,-0.57Q83.09,-1.29 83.09,-2.82L83.09,-7.26L84.54,-7.26L84.54,-3.09Q84.54,-2.02 85.01,-1.61Q85.47,-1.2 86.19,-1.2Q86.94,-1.2 87.47,-1.69Q87.99,-2.17 87.99,-3.16L87.99,-7.26L89.45,-7.26L89.45,0L88.16,0L88.16,-0.99Q87.71,-0.31 87.06,-0.08Q86.42,0.15 85.88,0.15ZM91.58,0L91.58,-7.26L92.99,-7.26L92.99,-6.22Q93.44,-6.91 94.09,-7.16Q94.74,-7.41 95.28,-7.41Q96.51,-7.41 97.26,-6.61Q98.01,-5.82 98.01,-4.29L98.01,0L96.54,0L96.54,-4.06Q96.54,-5.13 96.08,-5.59Q95.61,-6.06 94.89,-6.06Q94.13,-6.06 93.59,-5.55Q93.05,-5.04 93.05,-4.03L93.05,0L91.58,0ZM103.24,0.15Q102.15,0.15 101.33,-0.32Q100.5,-0.79 100.04,-1.63Q99.59,-2.47 99.59,-3.58L99.59,-3.73Q99.59,-4.78 100.01,-5.62Q100.44,-6.45 101.21,-6.93Q101.99,-7.41 103.02,-7.41Q104.09,-7.41 104.84,-6.88Q105.6,-6.36 105.95,-5.41Q106.31,-4.47 106.16,-3.18L101.04,-3.18Q101.13,-2.31 101.72,-1.73Q102.32,-1.15 103.31,-1.15Q104.39,-1.15 105.02,-1.74L105.85,-0.85Q105.42,-0.36 104.74,-0.1Q104.07,0.15 103.24,0.15ZM103.02,-6.19Q102.18,-6.19 101.69,-5.67Q101.19,-5.14 101.07,-4.29L104.74,-4.29Q104.73,-5.19 104.25,-5.69Q103.77,-6.19 103.02,-6.19ZM111.12,0L111.12,-1.15L114.89,-4.96Q115.64,-5.7 115.91,-6.28Q116.18,-6.85 116.18,-7.41Q116.18,-8.22 115.69,-8.7Q115.2,-9.18 114.36,-9.18Q113.67,-9.18 113.08,-8.8Q112.49,-8.43 112.02,-7.72L111,-8.7Q111.6,-9.61 112.48,-10.13Q113.35,-10.65 114.41,-10.65Q115.41,-10.65 116.17,-10.26Q116.93,-9.87 117.35,-9.17Q117.77,-8.47 117.77,-7.56Q117.77,-6.76 117.38,-5.92Q116.99,-5.08 115.98,-4.06L113.33,-1.39L118.19,-1.39L118.19,0L111.12,0ZM123.65,0.15Q121.83,0.15 120.8,-1.27Q119.76,-2.68 119.76,-5.23Q119.76,-7.8 120.8,-9.22Q121.83,-10.65 123.65,-10.65Q125.48,-10.65 126.5,-9.22Q127.53,-7.8 127.53,-5.23Q127.53,-2.68 126.5,-1.27Q125.48,0.15 123.65,0.15ZM123.65,-1.26Q124.76,-1.26 125.36,-2.28Q125.97,-3.3 125.97,-5.23Q125.97,-7.18 125.36,-8.21Q124.76,-9.24 123.65,-9.24Q122.54,-9.24 121.93,-8.21Q121.32,-7.18 121.32,-5.23Q121.32,-3.3 121.93,-2.28Q122.54,-1.26 123.65,-1.26ZM129.12,0L129.12,-1.15L132.89,-4.96Q133.64,-5.7 133.91,-6.28Q134.17,-6.85 134.17,-7.41Q134.17,-8.22 133.69,-8.7Q133.2,-9.18 132.36,-9.18Q131.67,-9.18 131.08,-8.8Q130.48,-8.43 130.02,-7.72L129,-8.7Q129.6,-9.61 130.48,-10.13Q131.35,-10.65 132.41,-10.65Q133.41,-10.65 134.17,-10.26Q134.92,-9.87 135.35,-9.17Q135.76,-8.47 135.76,-7.56Q135.76,-6.76 135.38,-5.92Q134.98,-5.08 133.98,-4.06L131.32,-1.39L136.19,-1.39L136.19,0L129.12,0ZM141.73,0.15Q140.58,0.15 139.73,-0.29Q138.89,-0.73 138.42,-1.54Q137.95,-2.35 137.95,-3.45Q137.95,-4.17 138.24,-4.88Q138.53,-5.59 139.02,-6.31L141.93,-10.5L143.79,-10.5L140.95,-6.64Q141.47,-6.84 142.05,-6.84Q143.06,-6.84 143.83,-6.39Q144.6,-5.94 145.04,-5.16Q145.47,-4.38 145.47,-3.36Q145.47,-2.29 145,-1.51Q144.53,-0.72 143.69,-0.28Q142.85,0.15 141.73,0.15ZM141.7,-1.2Q142.68,-1.2 143.29,-1.8Q143.89,-2.4 143.89,-3.36Q143.89,-4.32 143.29,-4.93Q142.68,-5.53 141.73,-5.53Q140.75,-5.53 140.14,-4.93Q139.53,-4.32 139.53,-3.36Q139.53,-2.38 140.13,-1.79Q140.73,-1.2 141.7,-1.2Z" transform="translate(230,248.05)" fill="rgb(60,84,78)"/></g><g><g><g><svg viewBox="0 0 24 24" aria-hidden="true" x="230" y="272.421875" width="18" height="18"><circle cx="12" cy="12" r="9"/><path d="M12 7.5V12l3 2"/></svg></g><g><path d="M2.42,0L5.23,-3.81Q4.67,-3.58 4.02,-3.58Q3.05,-3.58 2.3,-4.01Q1.55,-4.44 1.13,-5.19Q0.71,-5.94 0.71,-6.92Q0.71,-7.93 1.16,-8.69Q1.61,-9.45 2.41,-9.87Q3.22,-10.29 4.26,-10.29Q5.35,-10.29 6.15,-9.87Q6.95,-9.45 7.38,-8.69Q7.82,-7.92 7.82,-6.86Q7.82,-6.18 7.56,-5.52Q7.31,-4.87 6.87,-4.23L3.92,0L2.42,0ZM4.25,-4.61Q5.29,-4.61 5.94,-5.26Q6.58,-5.9 6.58,-6.93Q6.58,-7.96 5.95,-8.59Q5.32,-9.22 4.28,-9.22Q3.26,-9.22 2.61,-8.58Q1.96,-7.95 1.96,-6.93Q1.96,-5.92 2.6,-5.26Q3.25,-4.61 4.25,-4.61ZM9.54,-5.38L9.54,-6.97L10.99,-6.97L10.99,-5.38L9.54,-5.38ZM9.54,0L9.54,-1.59L10.99,-1.59L10.99,0L9.54,0ZM16.2,0.15Q14.47,0.15 13.49,-1.23Q12.5,-2.61 12.5,-5.06Q12.5,-6.7 12.94,-7.87Q13.38,-9.05 14.21,-9.67Q15.04,-10.29 16.2,-10.29Q17.34,-10.29 18.18,-9.67Q19.01,-9.05 19.45,-7.87Q19.89,-6.7 19.89,-5.06Q19.89,-2.61 18.91,-1.23Q17.92,0.15 16.2,0.15ZM16.2,-0.97Q17.36,-0.97 18.01,-2.04Q18.66,-3.1 18.66,-5.06Q18.66,-7.03 18.01,-8.11Q17.36,-9.18 16.2,-9.18Q15.04,-9.18 14.38,-8.11Q13.73,-7.03 13.73,-5.06Q13.73,-3.1 14.38,-2.04Q15.04,-0.97 16.2,-0.97ZM24.9,0.15Q23.17,0.15 22.19,-1.23Q21.2,-2.61 21.2,-5.06Q21.2,-6.7 21.64,-7.87Q22.08,-9.05 22.91,-9.67Q23.74,-10.29 24.9,-10.29Q26.04,-10.29 26.88,-9.67Q27.71,-9.05 28.15,-7.87Q28.59,-6.7 28.59,-5.06Q28.59,-2.61 27.61,-1.23Q26.62,0.15 24.9,0.15ZM24.9,-0.97Q26.06,-0.97 26.71,-2.04Q27.36,-3.1 27.36,-5.06Q27.36,-7.03 26.71,-8.11Q26.06,-9.18 24.9,-9.18Q23.74,-9.18 23.08,-8.11Q22.43,-7.03 22.43,-5.06Q22.43,-3.1 23.08,-2.04Q23.74,-0.97 24.9,-0.97ZM32.39,0L36.25,-10.15L37.74,-10.15L41.6,0L40.32,0L39.3,-2.77L34.7,-2.77L33.65,0L32.39,0ZM35.09,-3.83L38.89,-3.83L37,-8.92L35.09,-3.83ZM43.01,0L43.01,-10.15L44.66,-10.15L47.59,-4.07L50.5,-10.15L52.16,-10.15L52.16,0L50.95,0L50.95,-8.55L48.07,-2.42L47.1,-2.42L44.23,-8.55L44.23,0L43.01,0ZM57.52,-3.49L57.52,-4.6L63.32,-4.6L63.32,-3.49L57.52,-3.49ZM68.7,0L68.7,-1.13L71.37,-1.13L71.37,-8.29Q71.37,-8.61 71.17,-8.82Q70.98,-9.02 70.66,-9.02L68.73,-9.02L68.73,-10.15L70.96,-10.15Q71.67,-10.15 72.12,-9.69Q72.57,-9.24 72.57,-8.54L72.57,-1.13L75.21,-1.13L75.21,0L68.7,0ZM80.48,0.15Q78.75,0.15 77.76,-1.23Q76.78,-2.61 76.78,-5.06Q76.78,-6.7 77.22,-7.87Q77.66,-9.05 78.49,-9.67Q79.32,-10.29 80.48,-10.29Q81.62,-10.29 82.45,-9.67Q83.29,-9.05 83.73,-7.87Q84.17,-6.7 84.17,-5.06Q84.17,-2.61 83.19,-1.23Q82.2,0.15 80.48,0.15ZM80.48,-0.97Q81.64,-0.97 82.29,-2.04Q82.94,-3.1 82.94,-5.06Q82.94,-7.03 82.29,-8.11Q81.64,-9.18 80.48,-9.18Q79.32,-9.18 78.66,-8.11Q78.01,-7.03 78.01,-5.06Q78.01,-3.1 78.66,-2.04Q79.32,-0.97 80.48,-0.97ZM85.67,-5.38L85.67,-6.97L87.12,-6.97L87.12,-5.38L85.67,-5.38ZM85.67,0L85.67,-1.59L87.12,-1.59L87.12,0L85.67,0ZM92.32,0.15Q90.6,0.15 89.61,-1.23Q88.62,-2.61 88.62,-5.06Q88.62,-6.7 89.07,-7.87Q89.51,-9.05 90.34,-9.67Q91.16,-10.29 92.32,-10.29Q93.47,-10.29 94.3,-9.67Q95.13,-9.05 95.58,-7.87Q96.02,-6.7 96.02,-5.06Q96.02,-2.61 95.03,-1.23Q94.05,0.15 92.32,0.15ZM92.32,-0.97Q93.48,-0.97 94.13,-2.04Q94.79,-3.1 94.79,-5.06Q94.79,-7.03 94.13,-8.11Q93.48,-9.18 92.32,-9.18Q91.16,-9.18 90.51,-8.11Q89.86,-7.03 89.86,-5.06Q89.86,-3.1 90.51,-2.04Q91.16,-0.97 92.32,-0.97ZM101.02,0.15Q99.3,0.15 98.31,-1.23Q97.32,-2.61 97.32,-5.06Q97.32,-6.7 97.77,-7.87Q98.21,-9.05 99.04,-9.67Q99.86,-10.29 101.02,-10.29Q102.17,-10.29 103,-9.67Q103.83,-9.05 104.28,-7.87Q104.72,-6.7 104.72,-5.06Q104.72,-2.61 103.73,-1.23Q102.75,0.15 101.02,0.15ZM101.02,-0.97Q102.18,-0.97 102.83,-2.04Q103.49,-3.1 103.49,-5.06Q103.49,-7.03 102.83,-8.11Q102.18,-9.18 101.02,-9.18Q99.86,-9.18 99.21,-8.11Q98.56,-7.03 98.56,-5.06Q98.56,-3.1 99.21,-2.04Q99.86,-0.97 101.02,-0.97ZM108.52,0L112.38,-10.15L113.87,-10.15L117.73,0L116.45,0L115.42,-2.77L110.82,-2.77L109.78,0L108.52,0ZM111.22,-3.83L115.01,-3.83L113.13,-8.92L111.22,-3.83ZM119.13,0L119.13,-10.15L120.79,-10.15L123.71,-4.07L126.63,-10.15L128.28,-10.15L128.28,0L127.08,0L127.08,-8.55L124.19,-2.42L123.22,-2.42L120.35,-8.55L120.35,0L119.13,0Z" transform="translate(258,285.55)" fill="rgb(41,70,64)"/></g></g></g></g></g></g></g></g></svg>