<?xml version="1.0" standalone="no"?>
<svg xmlns="http://www.w3.org/2000/svg" width="760px" height="460px" viewBox="0 0 760 460"><defs><linearGradient id="svggrad-1" gradientUnits="userSpaceOnUse" x1="99.89888712180534" y1="130.80519504997778" x2="172.10111287819467" y2="329.1791799500222"><stop offset="0.00%" stop-color="rgb(48, 186, 120) 0%"/><stop offset="100.00%" stop-color="rgb(12, 159, 106) 100%"/></linearGradient></defs><g><g><g><rect x="0" y="0" width="760" height="460" fill="rgb(243,245,244)"/><g><rect x="70" y="141.6875" width="620" height="176.609375" rx="18" ry="18" fill="rgb(255,255,255)"/><g><rect x="70" y="141.6875" width="132" height="176.609375" fill="url(#svggrad-1)"/><g><text x="117.53" y="176.98" dominant-baseline="text-before-edge" font-size="16px" font-weight="600" font-style="normal" font-family="SUSE, system-ui, -apple-system, &quot;Segoe UI&quot;, Roboto, sans-serif" letter-spacing="2.56px" fill="rgb(255,255,255)">JUN</text></g><g><path d="M3.36,0L3.36,-6.03L17.28,-20.01Q19.55,-22.27 20.53,-24.24Q21.52,-26.22 21.52,-28.25Q21.52,-30.57 20.04,-32.04Q18.56,-33.52 16.01,-33.52Q13.57,-33.52 11.6,-32.22Q9.63,-30.91 7.83,-28.36L2.61,-33.47Q4.99,-37.06 8.44,-39.12Q11.89,-41.18 16.3,-41.18Q20.24,-41.18 23.32,-39.64Q26.39,-38.11 28.13,-35.38Q29.87,-32.65 29.87,-29.06Q29.87,-25.75 28.22,-22.39Q26.56,-19.02 22.97,-15.37L14.91,-7.31L31.55,-7.31L31.55,0L3.36,0ZM40.66,0L57.65,-33.35L37.87,-33.35L37.87,-40.6L66.58,-40.6L66.58,-34.97L49.71,0L40.66,0Z" transform="translate(101.19,251.98)" fill="rgb(255,255,255)"/></g><g opacity="0.9000"><text x="110.64" y="267.98" dominant-baseline="text-before-edge" font-size="12px" font-weight="500" font-style="normal" font-family="SUSE, system-ui, -apple-system, &quot;Segoe UI&quot;, Roboto, sans-serif" letter-spacing="0.48px" fill="rgb(255,255,255)">Saturday</text></g></g><g><g><text x="230" y="169.69" dominant-baseline="text-before-edge" font-size="11px" font-weight="600" font-style="normal" font-family="SUSE, system-ui, -apple-system, &quot;Segoe UI&quot;, Roboto, sans-serif" letter-spacing="1.54px" fill="rgb(107,124,119)">Calendar event</text><text x="361.13" y="169.69" dominant-baseline="text-before-edge" font-size="11px" font-weight="600" font-style="normal" font-family="SUSE, system-ui, -apple-system, &quot;Segoe UI&quot;, Roboto, sans-serif" letter-spacing="0.66px" fill="rgb(12,159,106)">.ics</text></g><g><path d="M5.62,0L5.62,-15.44L0.38,-15.44L0.38,-18.9L14.74,-18.9L14.74,-15.44L9.45,-15.44L9.45,0L5.62,0ZM20.22,0.27Q18.2,0.27 16.69,-0.58Q15.17,-1.43 14.32,-2.96Q13.47,-4.48 13.47,-6.53L13.47,-6.8Q13.47,-8.67 14.27,-10.19Q15.07,-11.72 16.5,-12.61Q17.93,-13.5 19.87,-13.5Q21.9,-13.5 23.33,-12.51Q24.76,-11.53 25.42,-9.73Q26.08,-7.94 25.79,-5.51L17.06,-5.51Q17.2,-4.29 18.05,-3.52Q18.9,-2.75 20.38,-2.75Q21.38,-2.75 22.02,-3.05Q22.65,-3.35 23.19,-3.89L25.25,-1.78Q24.44,-0.76 23.14,-0.24Q21.84,0.27 20.22,0.27ZM19.87,-10.69Q18.66,-10.69 17.98,-9.92Q17.31,-9.15 17.09,-7.91L22.36,-7.91Q22.3,-9.26 21.61,-9.98Q20.93,-10.69 19.87,-10.69ZM32.35,0.27Q30.13,0.27 28.8,-0.82Q27.46,-1.92 27.46,-3.67Q27.46,-5.45 28.89,-6.59Q30.32,-7.72 32.86,-7.72Q34.51,-7.72 35.64,-7.21L35.64,-8.29Q35.64,-9.45 34.96,-9.92Q34.29,-10.39 33.26,-10.39Q32.29,-10.39 31.24,-10.03Q30.19,-9.67 29.43,-8.99L27.84,-11.37Q28.73,-12.34 30.25,-12.92Q31.78,-13.5 33.51,-13.5Q35.99,-13.5 37.58,-12.22Q39.18,-10.93 39.18,-8.51L39.18,-4.21Q39.18,-3.16 39.18,-2.11Q39.18,-1.05 39.26,0L36.07,0L36.07,-1.38Q35.02,0.27 32.35,0.27ZM33.35,-2.32Q34.4,-2.32 35.03,-2.74Q35.67,-3.16 35.67,-3.83Q35.67,-4.51 35.03,-4.91Q34.4,-5.32 33.35,-5.32Q32.32,-5.32 31.68,-4.91Q31.05,-4.51 31.05,-3.83Q31.05,-3.19 31.68,-2.75Q32.32,-2.32 33.35,-2.32ZM42.42,0L42.42,-13.23L45.87,-13.23L45.87,-11.77Q46.63,-12.8 47.64,-13.15Q48.65,-13.5 49.57,-13.5Q50.79,-13.5 51.75,-13.01Q52.7,-12.53 53.3,-11.56Q53.89,-12.34 54.66,-12.76Q55.43,-13.18 56.17,-13.34Q56.92,-13.5 57.51,-13.5Q59.64,-13.5 61.01,-12.12Q62.37,-10.75 62.37,-8.1L62.37,0L58.81,0L58.81,-7.56Q58.81,-8.96 58.2,-9.6Q57.59,-10.23 56.57,-10.23Q55.54,-10.23 54.86,-9.53Q54.19,-8.83 54.19,-7.59L54.19,0L50.6,0L50.6,-7.56Q50.6,-8.96 50,-9.6Q49.41,-10.23 48.41,-10.23Q47.36,-10.23 46.67,-9.53Q45.98,-8.83 45.98,-7.59L45.98,0L42.42,0ZM71.42,0L71.42,-13.23L74.87,-13.23L74.87,-11.77Q75.63,-12.8 76.64,-13.15Q77.65,-13.5 78.57,-13.5Q79.79,-13.5 80.74,-13.01Q81.7,-12.53 82.3,-11.56Q82.89,-12.34 83.66,-12.76Q84.43,-13.18 85.17,-13.34Q85.91,-13.5 86.51,-13.5Q88.64,-13.5 90,-12.12Q91.37,-10.75 91.37,-8.1L91.37,0L87.8,0L87.8,-7.56Q87.8,-8.96 87.2,-9.6Q86.59,-10.23 85.56,-10.23Q84.54,-10.23 83.86,-9.53Q83.19,-8.83 83.19,-7.59L83.19,0L79.6,0L79.6,-7.56Q79.6,-8.96 79,-9.6Q78.41,-10.23 77.41,-10.23Q76.36,-10.23 75.67,-9.53Q74.98,-8.83 74.98,-7.59L74.98,0L71.42,0ZM100.55,0.27Q98.52,0.27 97.01,-0.58Q95.5,-1.43 94.65,-2.96Q93.8,-4.48 93.8,-6.53L93.8,-6.8Q93.8,-8.67 94.59,-10.19Q95.39,-11.72 96.82,-12.61Q98.25,-13.5 100.2,-13.5Q102.22,-13.5 103.65,-12.51Q105.08,-11.53 105.75,-9.73Q106.41,-7.94 106.11,-5.51L97.39,-5.51Q97.52,-4.29 98.37,-3.52Q99.23,-2.75 100.71,-2.75Q101.71,-2.75 102.34,-3.05Q102.98,-3.35 103.52,-3.89L105.57,-1.78Q104.76,-0.76 103.46,-0.24Q102.17,0.27 100.55,0.27ZM100.2,-10.69Q98.98,-10.69 98.31,-9.92Q97.63,-9.15 97.42,-7.91L102.68,-7.91Q102.63,-9.26 101.94,-9.98Q101.25,-10.69 100.2,-10.69ZM114.7,0.27Q112.67,0.27 111.16,-0.58Q109.65,-1.43 108.8,-2.96Q107.95,-4.48 107.95,-6.53L107.95,-6.8Q107.95,-8.67 108.74,-10.19Q109.54,-11.72 110.97,-12.61Q112.4,-13.5 114.35,-13.5Q116.37,-13.5 117.8,-12.51Q119.23,-11.53 119.89,-9.73Q120.56,-7.94 120.26,-5.51L111.54,-5.51Q111.67,-4.29 112.52,-3.52Q113.37,-2.75 114.86,-2.75Q115.86,-2.75 116.49,-3.05Q117.13,-3.35 117.67,-3.89L119.72,-1.78Q118.91,-0.76 117.61,-0.24Q116.32,0.27 114.7,0.27ZM114.35,-10.69Q113.13,-10.69 112.46,-9.92Q111.78,-9.15 111.56,-7.91L116.83,-7.91Q116.78,-9.26 116.09,-9.98Q115.4,-10.69 114.35,-10.69ZM128.01,0Q127.04,0 126.05,-0.32Q125.06,-0.65 124.39,-1.53Q123.71,-2.4 123.71,-4.08L123.71,-10.21L121.58,-10.21L121.58,-13.23L123.71,-13.23L123.71,-16.44L127.31,-16.44L127.31,-13.23L130.19,-13.23L130.19,-10.21L127.31,-10.21L127.31,-3.78Q127.31,-3.46 127.52,-3.24Q127.74,-3.02 128.06,-3.02L130.19,-3.02L130.19,0L128.01,0ZM134,0L134,-10.21L131.71,-10.21L131.71,-13.23L137.59,-13.23L137.59,0L134,0ZM133.84,-15.74L133.84,-19.52L137.81,-19.52L137.81,-15.74L133.84,-15.74ZM140.94,0L140.94,-13.23L144.4,-13.23L144.4,-11.74Q145.21,-12.8 146.29,-13.15Q147.37,-13.5 148.2,-13.5Q150.44,-13.5 151.78,-12.03Q153.12,-10.56 153.12,-7.91L153.12,0L149.53,0L149.53,-7.34Q149.53,-8.86 148.88,-9.54Q148.23,-10.23 147.18,-10.23Q146.04,-10.23 145.29,-9.48Q144.53,-8.72 144.53,-7.24L144.53,0L140.94,0ZM155.44,5.4L155.44,2.46L163.51,2.46Q164.51,2.46 164.51,1.57Q164.51,0.68 163.51,0.68L158.76,0.68Q157.73,0.68 157.14,0.15Q156.55,-0.38 156.45,-1.2Q156.36,-2.02 156.79,-2.92L157.6,-4.56Q156.63,-5.24 156.07,-6.22Q155.52,-7.21 155.52,-8.42L155.52,-8.69Q155.52,-10.1 156.28,-11.18Q157.03,-12.26 158.38,-12.88Q159.73,-13.5 161.46,-13.5Q161.51,-13.5 161.57,-13.5L162.7,-15.98L166.32,-15.98L164.59,-12.85Q165.89,-12.26 166.64,-11.18Q167.4,-10.1 167.4,-8.72L167.4,-8.42Q167.4,-6.99 166.64,-5.87Q165.89,-4.75 164.55,-4.13Q163.22,-3.51 161.46,-3.51Q160.95,-3.51 160.46,-3.56L159.95,-2.54Q159.87,-2.38 159.91,-2.24Q159.95,-2.11 160.16,-2.11L164.05,-2.11Q165.73,-2.11 166.79,-1.22Q167.86,-0.32 167.86,1.59Q167.86,3.24 166.75,4.32Q165.65,5.4 163.89,5.4L155.44,5.4ZM161.46,-6.21Q162.03,-6.21 162.59,-6.43Q163.16,-6.64 163.53,-7.14Q163.89,-7.64 163.89,-8.53Q163.89,-9.48 163.22,-10.06Q162.54,-10.64 161.46,-10.64Q160.38,-10.64 159.7,-10.06Q159.03,-9.48 159.03,-8.53Q159.03,-7.64 159.41,-7.14Q159.79,-6.64 160.34,-6.43Q160.89,-6.21 161.46,-6.21Z" transform="translate(230,220.19)" fill="rgb(12,50,44)"/></g><g><path d="M3.95,0.2Q2.81,0.2 1.96,-0.22Q1.11,-0.64 0.53,-1.33L1.49,-2.31Q2.07,-1.69 2.69,-1.41Q3.3,-1.12 4.01,-1.12Q4.98,-1.12 5.54,-1.6Q6.09,-2.07 6.09,-2.82Q6.09,-3.37 5.8,-3.72Q5.51,-4.06 5.03,-4.27Q4.56,-4.48 3.99,-4.64Q3.42,-4.8 2.85,-4.99Q2.28,-5.19 1.81,-5.5Q1.34,-5.8 1.04,-6.3Q0.75,-6.79 0.75,-7.57Q0.75,-8.53 1.19,-9.23Q1.64,-9.93 2.44,-10.31Q3.26,-10.69 4.34,-10.69Q5.31,-10.69 6.09,-10.36Q6.87,-10.02 7.38,-9.45L6.39,-8.44Q5.94,-8.91 5.44,-9.14Q4.95,-9.37 4.32,-9.37Q3.41,-9.37 2.85,-8.92Q2.3,-8.46 2.3,-7.72Q2.3,-7.2 2.59,-6.88Q2.88,-6.57 3.36,-6.37Q3.84,-6.18 4.42,-6.04Q5,-5.89 5.57,-5.71Q6.14,-5.52 6.61,-5.2Q7.1,-4.89 7.39,-4.37Q7.68,-3.85 7.68,-3.04Q7.68,-2.05 7.21,-1.33Q6.74,-0.6 5.9,-0.2Q5.06,0.2 3.95,0.2ZM11.45,0.15Q10.22,0.15 9.47,-0.46Q8.73,-1.06 8.73,-2.02Q8.73,-2.65 9.11,-3.16Q9.48,-3.66 10.13,-3.95Q10.79,-4.24 11.64,-4.24Q12.74,-4.24 13.43,-3.82L13.43,-4.62Q13.43,-5.41 12.99,-5.76Q12.56,-6.1 11.85,-6.1Q11.28,-6.1 10.68,-5.89Q10.08,-5.68 9.65,-5.25L8.97,-6.27Q9.47,-6.81 10.27,-7.11Q11.07,-7.41 11.94,-7.41Q13.25,-7.41 14.06,-6.72Q14.88,-6.03 14.88,-4.69L14.88,-2.35Q14.88,-1.77 14.89,-1.18Q14.9,-0.58 14.93,0L13.6,0L13.6,-0.73Q12.96,0.15 11.45,0.15ZM11.85,-0.94Q12.59,-0.94 13.01,-1.25Q13.44,-1.56 13.44,-2.05Q13.44,-2.53 13.01,-2.84Q12.59,-3.15 11.84,-3.15Q11.1,-3.15 10.66,-2.84Q10.22,-2.53 10.22,-2.05Q10.22,-1.57 10.66,-1.26Q11.1,-0.94 11.85,-0.94ZM19.47,0Q18.96,0 18.47,-0.19Q17.99,-0.37 17.67,-0.82Q17.36,-1.26 17.36,-2.04L17.36,-6L16.08,-6L16.08,-7.26L17.36,-7.26L17.36,-9.04L18.83,-9.04L18.83,-7.26L20.61,-7.26L20.61,-6L18.83,-6L18.83,-1.92Q18.83,-1.63 19.02,-1.45Q19.22,-1.26 19.49,-1.26L20.61,-1.26L20.61,0L19.47,0ZM24.89,0.15Q23.69,0.15 22.89,-0.57Q22.1,-1.29 22.1,-2.82L22.1,-7.26L23.55,-7.26L23.55,-3.09Q23.55,-2.02 24.02,-1.61Q24.48,-1.2 25.2,-1.2Q25.95,-1.2 26.48,-1.69Q27,-2.17 27,-3.16L27,-7.26L28.46,-7.26L28.46,0L27.17,0L27.17,-0.99Q26.72,-0.31 26.07,-0.08Q25.43,0.15 24.89,0.15ZM30.58,0L30.58,-7.26L32.01,-7.26L32.01,-6.15Q32.27,-6.81 32.8,-7.06Q33.33,-7.3 33.99,-7.3L34.59,-7.3L34.59,-5.85L33.87,-5.85Q33,-5.85 32.53,-5.44Q32.06,-5.02 32.06,-4.2L32.06,0L30.58,0ZM38.57,0.15Q37.57,0.15 36.8,-0.31Q36.03,-0.78 35.59,-1.62Q35.14,-2.46 35.14,-3.57L35.14,-3.72Q35.14,-4.81 35.6,-5.65Q36.05,-6.48 36.82,-6.94Q37.59,-7.41 38.58,-7.41Q39.32,-7.41 39.92,-7.11Q40.52,-6.81 40.93,-6.27L40.93,-10.95L42.41,-10.95L42.41,0L41.07,0L41.07,-1.14Q40.65,-0.52 40,-0.19Q39.36,0.15 38.57,0.15ZM38.79,-1.14Q39.75,-1.14 40.39,-1.81Q41.03,-2.49 41.03,-3.63Q41.03,-4.77 40.39,-5.44Q39.75,-6.1 38.79,-6.1Q37.86,-6.1 37.24,-5.46Q36.62,-4.81 36.62,-3.72L36.62,-3.57Q36.62,-2.46 37.24,-1.8Q37.86,-1.14 38.79,-1.14ZM46.71,0.15Q45.48,0.15 44.74,-0.46Q44,-1.06 44,-2.02Q44,-2.65 44.37,-3.16Q44.75,-3.66 45.4,-3.95Q46.05,-4.24 46.91,-4.24Q48,-4.24 48.69,-3.82L48.69,-4.62Q48.69,-5.41 48.26,-5.76Q47.82,-6.1 47.11,-6.1Q46.55,-6.1 45.95,-5.89Q45.35,-5.68 44.91,-5.25L44.24,-6.27Q44.73,-6.81 45.53,-7.11Q46.34,-7.41 47.21,-7.41Q48.51,-7.41 49.33,-6.72Q50.15,-6.03 50.15,-4.69L50.15,-2.35Q50.15,-1.77 50.15,-1.18Q50.16,-0.58 50.19,0L48.87,0L48.87,-0.73Q48.23,0.15 46.71,0.15ZM47.11,-0.94Q47.85,-0.94 48.28,-1.25Q48.71,-1.56 48.71,-2.05Q48.71,-2.53 48.28,-2.84Q47.85,-3.15 47.1,-3.15Q46.36,-3.15 45.92,-2.84Q45.48,-2.53 45.48,-2.05Q45.48,-1.57 45.92,-1.26Q46.36,-0.94 47.11,-0.94ZM51.39,3L51.39,1.74L52.91,1.74Q53.16,1.74 53.32,1.58Q53.48,1.41 53.58,1.17L54.08,0.11L51.09,-7.26L52.73,-7.26L54.86,-1.69L56.84,-7.26L58.47,-7.26L55.05,1.23Q54.89,1.64 54.64,2.05Q54.39,2.46 53.96,2.73Q53.54,3 52.83,3L51.39,3ZM58.5,0L58.5,-1.84L60.27,-1.84L60.27,0.96Q60.27,1.45 60.08,1.73Q59.88,2 59.58,2.1Q59.28,2.21 58.98,2.21L58.44,2.21L58.44,1.35L58.98,1.35Q59.16,1.35 59.26,1.23Q59.36,1.11 59.36,0.95L59.36,0L58.5,0ZM65.05,0L65.05,-1.15L68.82,-4.96Q69.57,-5.7 69.84,-6.28Q70.11,-6.85 70.11,-7.41Q70.11,-8.22 69.62,-8.7Q69.13,-9.18 68.3,-9.18Q67.61,-9.18 67.01,-8.8Q66.42,-8.43 65.96,-7.72L64.94,-8.7Q65.54,-9.61 66.41,-10.13Q67.29,-10.65 68.34,-10.65Q69.35,-10.65 70.1,-10.26Q70.86,-9.87 71.28,-9.17Q71.7,-8.47 71.7,-7.56Q71.7,-6.76 71.31,-5.92Q70.92,-5.08 69.91,-4.06L67.26,-1.39L72.12,-1.39L72.12,0L65.05,0ZM74.83,0L79.52,-9.1L73.94,-9.1L73.94,-10.5L81.22,-10.5L81.22,-9.43L76.58,0L74.83,0ZM85.86,0L85.86,-1.42L88.08,-1.42Q88.49,-1.42 88.76,-1.69Q89.03,-1.96 89.03,-2.37L89.03,-9.07L86.35,-9.07L86.35,-10.5L90.6,-10.5L90.6,-2.52Q90.6,-1.29 89.92,-0.64Q89.24,0 87.95,0L85.86,0ZM95.37,0.15Q94.17,0.15 93.38,-0.57Q92.58,-1.29 92.58,-2.82L92.58,-7.26L94.04,-7.26L94.04,-3.09Q94.04,-2.02 94.5,-1.61Q94.97,-1.2 95.69,-1.2Q96.44,-1.2 96.96,-1.69Q97.49,-2.17 97.49,-3.16L97.49,-7.26L98.94,-7.26L98.94,0L97.65,0L97.65,-0.99Q97.2,-0.31 96.56,-0.08Q95.91,0.15 95.37,0.15ZM101.07,0L101.07,-7.26L102.48,-7.26L102.48,-6.22Q102.93,-6.91 103.58,-7.16Q104.24,-7.41 104.78,-7.41Q106.01,-7.41 106.76,-6.61Q107.51,-5.82 107.51,-4.29L107.51,0L106.04,0L106.04,-4.06Q106.04,-5.13 105.57,-5.59Q105.1,-6.06 104.39,-6.06Q103.62,-6.06 103.08,-5.55Q102.54,-5.04 102.54,-4.03L102.54,0L101.07,0ZM112.74,0.15Q111.65,0.15 110.82,-0.32Q109.99,-0.79 109.54,-1.63Q109.08,-2.47 109.08,-3.58L109.08,-3.73Q109.08,-4.78 109.51,-5.62Q109.94,-6.45 110.71,-6.93Q111.48,-7.41 112.52,-7.41Q113.58,-7.41 114.34,-6.88Q115.1,-6.36 115.45,-5.41Q115.8,-4.47 115.65,-3.18L110.54,-3.18Q110.63,-2.31 111.22,-1.73Q111.81,-1.15 112.8,-1.15Q113.88,-1.15 114.51,-1.74L115.35,-0.85Q114.92,-0.36 114.24,-0.1Q113.57,0.15 112.74,0.15ZM112.52,-6.19Q111.68,-6.19 111.18,-5.67Q110.69,-5.14 110.57,-4.29L114.24,-4.29Q114.23,-5.19 113.74,-5.69Q113.27,-6.19 112.52,-6.19ZM120.62,0L120.62,-1.15L124.38,-4.96Q125.13,-5.7 125.4,-6.28Q125.67,-6.85 125.67,-7.41Q125.67,-8.22 125.18,-8.7Q124.7,-9.18 123.85,-9.18Q123.17,-9.18 122.57,-8.8Q121.98,-8.43 121.52,-7.72L120.49,-8.7Q121.1,-9.61 121.97,-10.13Q122.85,-10.65 123.9,-10.65Q124.91,-10.65 125.66,-10.26Q126.42,-9.87 126.84,-9.17Q127.26,-8.47 127.26,-7.56Q127.26,-6.76 126.87,-5.92Q126.48,-5.08 125.48,-4.06L122.82,-1.39L127.68,-1.39L127.68,0L120.62,0ZM133.14,0.15Q131.32,0.15 130.29,-1.27Q129.26,-2.68 129.26,-5.23Q129.26,-7.8 130.29,-9.22Q131.32,-10.65 133.14,-10.65Q134.97,-10.65 136,-9.22Q137.03,-7.8 137.03,-5.23Q137.03,-2.68 136,-1.27Q134.97,0.15 133.14,0.15ZM133.14,-1.26Q134.25,-1.26 134.86,-2.28Q135.47,-3.3 135.47,-5.23Q135.47,-7.18 134.86,-8.21Q134.25,-9.24 133.14,-9.24Q132.03,-9.24 131.42,-8.21Q130.82,-7.18 130.82,-5.23Q130.82,-3.3 131.42,-2.28Q132.03,-1.26 133.14,-1.26ZM138.61,0L138.61,-1.15L142.38,-4.96Q143.13,-5.7 143.4,-6.28Q143.67,-6.85 143.67,-7.41Q143.67,-8.22 143.18,-8.7Q142.7,-9.18 141.85,-9.18Q141.17,-9.18 140.57,-8.8Q139.98,-8.43 139.51,-7.72L138.5,-8.7Q139.1,-9.61 139.97,-10.13Q140.85,-10.65 141.9,-10.65Q142.91,-10.65 143.66,-10.26Q144.42,-9.87 144.84,-9.17Q145.26,-8.47 145.26,-7.56Q145.26,-6.76 144.87,-5.92Q144.48,-5.08 143.48,-4.06L140.82,-1.39L145.68,-1.39L145.68,0L138.61,0ZM151.23,0.15Q150.07,0.15 149.23,-0.29Q148.38,-0.73 147.92,-1.54Q147.45,-2.35 147.45,-3.45Q147.45,-4.17 147.73,-4.88Q148.02,-5.59 148.51,-6.31L151.42,-10.5L153.29,-10.5L150.45,-6.64Q150.96,-6.84 151.54,-6.84Q152.55,-6.84 153.32,-6.39Q154.1,-5.94 154.53,-5.16Q154.97,-4.38 154.97,-3.36Q154.97,-2.29 154.49,-1.51Q154.02,-0.72 153.18,-0.28Q152.34,0.15 151.23,0.15ZM151.2,-1.2Q152.17,-1.2 152.78,-1.8Q153.39,-2.4 153.39,-3.36Q153.39,-4.32 152.78,-4.93Q152.17,-5.53 151.23,-5.53Q150.24,-5.53 149.63,-4.93Q149.03,-4.32 149.03,-3.36Q149.03,-2.38 149.63,-1.79Q150.23,-1.2 151.2,-1.2Z" transform="translate(230,248.05)" fill="rgb(60,84,78)"/></g><g><g><g><svg viewBox="0 0 24 24" aria-hidden="true" x="230" y="272.421875" width="18" height="18"><circle cx="12" cy="12" r="9"/><path d="M12 7.5V12l3 2"/></svg></g><g><path d="M2.42,0L5.23,-3.81Q4.67,-3.58 4.02,-3.58Q3.05,-3.58 2.3,-4.01Q1.55,-4.44 1.13,-5.19Q0.71,-5.94 0.71,-6.92Q0.71,-7.93 1.16,-8.69Q1.61,-9.45 2.41,-9.87Q3.22,-10.29 4.26,-10.29Q5.35,-10.29 6.15,-9.87Q6.95,-9.45 7.38,-8.69Q7.82,-7.92 7.82,-6.86Q7.82,-6.18 7.56,-5.52Q7.31,-4.87 6.87,-4.23L3.92,0L2.42,0ZM4.25,-4.61Q5.29,-4.61 5.94,-5.26Q6.58,-5.9 6.58,-6.93Q6.58,-7.96 5.95,-8.59Q5.32,-9.22 4.28,-9.22Q3.26,-9.22 2.61,-8.58Q1.96,-7.95 1.96,-6.93Q1.96,-5.92 2.6,-5.26Q3.25,-4.61 4.25,-4.61ZM9.54,-5.38L9.54,-6.97L10.99,-6.97L10.99,-5.38L9.54,-5.38ZM9.54,0L9.54,-1.59L10.99,-1.59L10.99,0L9.54,0ZM16.2,0.15Q14.47,0.15 13.49,-1.23Q12.5,-2.61 12.5,-5.06Q12.5,-6.7 12.94,-7.87Q13.38,-9.05 14.21,-9.67Q15.04,-10.29 16.2,-10.29Q17.34,-10.29 18.18,-9.67Q19.01,-9.05 19.45,-7.87Q19.89,-6.7 19.89,-5.06Q19.89,-2.61 18.91,-1.23Q17.92,0.15 16.2,0.15ZM16.2,-0.97Q17.36,-0.97 18.01,-2.04Q18.66,-3.1 18.66,-5.06Q18.66,-7.03 18.01,-8.11Q17.36,-9.18 16.2,-9.18Q15.04,-9.18 14.38,-8.11Q13.73,-7.03 13.73,-5.06Q13.73,-3.1 14.38,-2.04Q15.04,-0.97 16.2,-0.97ZM24.9,0.15Q23.17,0.15 22.19,-1.23Q21.2,-2.61 21.2,-5.06Q21.2,-6.7 21.64,-7.87Q22.08,-9.05 22.91,-9.67Q23.74,-10.29 24.9,-10.29Q26.04,-10.29 26.88,-9.67Q27.71,-9.05 28.15,-7.87Q28.59,-6.7 28.59,-5.06Q28.59,-2.61 27.61,-1.23Q26.62,0.15 24.9,0.15ZM24.9,-0.97Q26.06,-0.97 26.71,-2.04Q27.36,-3.1 27.36,-5.06Q27.36,-7.03 26.71,-8.11Q26.06,-9.18 24.9,-9.18Q23.74,-9.18 23.08,-8.11Q22.43,-7.03 22.43,-5.06Q22.43,-3.1 23.08,-2.04Q23.74,-0.97 24.9,-0.97ZM32.39,0L36.25,-10.15L37.74,-10.15L41.6,0L40.32,0L39.3,-2.77L34.7,-2.77L33.65,0L32.39,0ZM35.09,-3.83L38.89,-3.83L37,-8.92L35.09,-3.83ZM43.01,0L43.01,-10.15L44.66,-10.15L47.59,-4.07L50.5,-10.15L52.16,-10.15L52.16,0L50.95,0L50.95,-8.55L48.07,-2.42L47.1,-2.42L44.23,-8.55L44.23,0L43.01,0ZM57.52,-3.49L57.52,-4.6L63.32,-4.6L63.32,-3.49L57.52,-3.49ZM68.7,0L68.7,-1.13L71.37,-1.13L71.37,-8.29Q71.37,-8.61 71.17,-8.82Q70.98,-9.02 70.66,-9.02L68.73,-9.02L68.73,-10.15L70.96,-10.15Q71.67,-10.15 72.12,-9.69Q72.57,-9.24 72.57,-8.54L72.57,-1.13L75.21,-1.13L75.21,0L68.7,0ZM80.48,0.15Q78.75,0.15 77.76,-1.23Q76.78,-2.61 76.78,-5.06Q76.78,-6.7 77.22,-7.87Q77.66,-9.05 78.49,-9.67Q79.32,-10.29 80.48,-10.29Q81.62,-10.29 82.45,-9.67Q83.29,-9.05 83.73,-7.87Q84.17,-6.7 84.17,-5.06Q84.17,-2.61 83.19,-1.23Q82.2,0.15 80.48,0.15ZM80.48,-0.97Q81.64,-0.97 82.29,-2.04Q82.94,-3.1 82.94,-5.06Q82.94,-7.03 82.29,-8.11Q81.64,-9.18 80.48,-9.18Q79.32,-9.18 78.66,-8.11Q78.01,-7.03 78.01,-5.06Q78.01,-3.1 78.66,-2.04Q79.32,-0.97 80.48,-0.97ZM85.67,-5.38L85.67,-6.97L87.12,-6.97L87.12,-5.38L85.67,-5.38ZM85.67,0L85.67,-1.59L87.12,-1.59L87.12,0L85.67,0ZM92.32,0.15Q90.6,0.15 89.61,-1.23Q88.62,-2.61 88.62,-5.06Q88.62,-6.7 89.07,-7.87Q89.51,-9.05 90.34,-9.67Q91.16,-10.29 92.32,-10.29Q93.47,-10.29 94.3,-9.67Q95.13,-9.05 95.58,-7.87Q96.02,-6.7 96.02,-5.06Q96.02,-2.61 95.03,-1.23Q94.05,0.15 92.32,0.15ZM92.32,-0.97Q93.48,-0.97 94.13,-2.04Q94.79,-3.1 94.79,-5.06Q94.79,-7.03 94.13,-8.11Q93.48,-9.18 92.32,-9.18Q91.16,-9.18 90.51,-8.11Q89.86,-7.03 89.86,-5.06Q89.86,-3.1 90.51,-2.04Q91.16,-0.97 92.32,-0.97ZM101.02,0.15Q99.3,0.15 98.31,-1.23Q97.32,-2.61 97.32,-5.06Q97.32,-6.7 97.77,-7.87Q98.21,-9.05 99.04,-9.67Q99.86,-10.29 101.02,-10.29Q102.17,-10.29 103,-9.67Q103.83,-9.05 104.28,-7.87Q104.72,-6.7 104.72,-5.06Q104.72,-2.61 103.73,-1.23Q102.75,0.15 101.02,0.15ZM101.02,-0.97Q102.18,-0.97 102.83,-2.04Q103.49,-3.1 103.49,-5.06Q103.49,-7.03 102.83,-8.11Q102.18,-9.18 101.02,-9.18Q99.86,-9.18 99.21,-8.11Q98.56,-7.03 98.56,-5.06Q98.56,-3.1 99.21,-2.04Q99.86,-0.97 101.02,-0.97ZM108.52,0L112.38,-10.15L113.87,-10.15L117.73,0L116.45,0L115.42,-2.77L110.82,-2.77L109.78,0L108.52,0ZM111.22,-3.83L115.01,-3.83L113.13,-8.92L111.22,-3.83ZM119.13,0L119.13,-10.15L120.79,-10.15L123.71,-4.07L126.63,-10.15L128.28,-10.15L128.28,0L127.08,0L127.08,-8.55L124.19,-2.42L123.22,-2.42L120.35,-8.55L120.35,0L119.13,0Z" transform="translate(258,285.55)" fill="rgb(41,70,64)"/></g></g></g></g></g></g></g></g></svg>