<?xml version="1.0" encoding="UTF-8"?><svg id="Layer_2" xmlns="http://www.w3.org/2000/svg" viewBox="0 0 225.26 127.2"><defs><style>.cls-1{fill:#fff;stroke-width:0px;}</style></defs><g id="Layer_1-2"><path class="cls-1" d="M1.36,82.93l3.04-3.04c2.16,2.2,4.16,3.12,6.52,3.12,3.16,0,5.04-1.6,5.04-3.96,0-6.44-13.96-2.8-13.96-12.48,0-5.2,3.88-8.52,9.76-8.52,3.6,0,6.6,1.4,8.48,3.52l-3.12,3.12c-1.6-1.64-3.24-2.48-5.36-2.48-2.96,0-4.88,1.52-4.88,3.88,0,6.08,14.08,2.12,14.08,12.24,0,5.36-4.12,8.84-10.2,8.84-4.2,0-7.24-1.68-9.4-4.24Z"/><path class="cls-1" d="M25.44,76.93v-18.32h4.92v17.92c0,4.08,2.36,6.08,5.96,6.08s5.92-2,5.92-6.08v-17.92h4.92v18.32c0,6.84-4.32,10.24-10.84,10.24s-10.88-3.4-10.88-10.24Z"/><path class="cls-1" d="M51.64,82.93l3.04-3.04c2.16,2.2,4.16,3.12,6.52,3.12,3.16,0,5.04-1.6,5.04-3.96,0-6.44-13.96-2.8-13.96-12.48,0-5.2,3.88-8.52,9.76-8.52,3.6,0,6.6,1.4,8.48,3.52l-3.12,3.12c-1.6-1.64-3.24-2.48-5.36-2.48-2.96,0-4.88,1.52-4.88,3.88,0,6.08,14.08,2.12,14.08,12.24,0,5.36-4.12,8.84-10.2,8.84-4.2,0-7.24-1.68-9.4-4.24Z"/><path class="cls-1" d="M75.4,81.93v-18.64c0-2.72,1.96-4.68,4.68-4.68h13.6v4.48h-11.96c-.84,0-1.48.64-1.48,1.44v5.88h12.6v4.28h-12.6v6c0,.8.64,1.44,1.48,1.44h11.96v4.48h-13.6c-2.72,0-4.68-1.96-4.68-4.68Z"/><path class="cls-1" d="M2.32,112.97v-.72c0-8.36,6.28-14.24,14.16-14.24,3.36,0,6.32,1,8.6,2.8l-1.68,2.04c-1.84-1.44-4.24-2.24-6.92-2.24-6.44,0-11.44,4.8-11.44,11.64v.72c0,6.84,5,11.64,11.44,11.64,2.68,0,5.12-.84,7-2.32l1.64,2.04c-2.28,1.84-5.28,2.88-8.64,2.88-7.88,0-14.16-5.88-14.16-14.24Z"/><path class="cls-1" d="M31.16,121.92v-22.32h-3.72v-2.2h6.24v24.56c0,1.4,1.04,2.44,2.44,2.44h1.72v2.2h-1.84c-2.88,0-4.84-1.88-4.84-4.68Z"/><path class="cls-1" d="M40.08,117.13v-.32c0-5.72,3.96-9.72,9.36-9.72s9.32,4,9.32,9.6v.44c0,5.8-3.92,9.88-9.32,9.88s-9.36-4.08-9.36-9.88ZM49.44,124.72c4,0,6.8-3.12,6.8-7.6v-.44c0-4.28-2.8-7.32-6.8-7.32s-6.8,3.08-6.8,7.44v.32c0,4.48,2.8,7.6,6.8,7.6Z"/><path class="cls-1" d="M63.8,119.05v-11.56h2.48v11.16c0,4.48,2.32,6,5.32,6,3.16,0,5.84-2.08,5.84-6.28v-10.88h2.48v19.12h-2.2v-3.32c-1.52,2.8-4.36,3.72-6.56,3.72-4.24,0-7.36-2.32-7.36-7.96Z"/><path class="cls-1" d="M85.12,117.13v-.36c0-5.68,3.76-9.68,8.96-9.68,3.08,0,5.6,1.56,7.04,4.04v-13.72h2.56v29.2h-2.32v-3.96c-1.48,2.68-4.12,4.36-7.28,4.36-5.24,0-8.96-4-8.96-9.88ZM94.4,124.72c3.96,0,6.88-3.08,6.88-7.68s-2.92-7.68-6.88-7.68-6.72,3-6.72,7.4v.36c0,4.56,2.8,7.6,6.72,7.6Z"/><path class="cls-1" d="M120.64,98.61h2.52l15.16,23.4v-23.4h2.64v28h-2.52l-15.16-23.44v23.44h-2.64v-28Z"/><path class="cls-1" d="M160,124.48c-1.04,1.64-3.04,2.52-5.88,2.52-4.52,0-7.32-2.24-7.32-5.6s2.76-5.76,7.56-5.76c2.32,0,4.08.56,5.28,1.6v-3.04c0-3.28-1.68-4.8-4.84-4.8-2.08,0-4.48.76-6.08,2.4l-1.24-1.76c1.68-2,4.6-2.96,7.4-2.96,4.36,0,7.28,2.32,7.28,7.08v6.08c0,2.12.04,4.24.12,6.36h-2.28v-2.12ZM154.56,125.04c3.2,0,5.08-1.48,5.08-3.68s-1.84-3.64-5.08-3.64-5.2,1.44-5.2,3.64,2,3.68,5.2,3.68Z"/><path class="cls-1" d="M169,121.77v-12.04h-3.6v-2.24h3.6v-4.76h2.52v4.76h5.28v2.24h-5.28v12.2c0,1.4,1.04,2.48,2.44,2.48h2.84v2.2h-2.84c-2.56,0-4.96-1.48-4.96-4.84Z"/><path class="cls-1" d="M182.48,109.73h-3.84v-2.24h6.36v19.12h-2.52v-16.88ZM182.4,98.73h2.72v4.36h-2.72v-4.36Z"/><path class="cls-1" d="M188.76,107.49h2.64l6.4,16.12,6.4-16.12h2.64l-7.68,19.12h-2.68l-7.72-19.12Z"/><path class="cls-1" d="M208.36,117.13v-.4c0-5.56,3.56-9.64,8.88-9.64s8.64,4.28,7.92,10.64h-14.28c.28,4.08,3,6.92,7.12,6.92,2.04,0,3.76-.52,4.92-1.56l1.44,1.64c-1.4,1.44-3.8,2.28-6.48,2.28-5.64,0-9.52-4.04-9.52-9.88ZM222.76,115.61c.08-3.92-2.24-6.28-5.52-6.28-3.56,0-5.92,2.48-6.32,6.28h11.84Z"/><g id="Layer_1-3"><path class="cls-1" d="M87.59,14.16c-.58-.6-1.54-.6-2.13,0-.66.65-.58,1.78.24,2.32.5.33,1.16.33,1.66,0,.81-.54.89-1.67.24-2.32M85.64,9.04c-4.02-.94-7.63,2.67-6.69,6.69.48,2.05,2.1,3.67,4.15,4.15,4.02.95,7.63-2.67,6.69-6.69-.48-2.05-2.11-3.67-4.15-4.15M59.1,31.68c-2.62-.97-3.63-.78-6.98-.73-2.32.03-2.41-.05-5.06-.05-.82,0-1.12,3.92,1.84,4.74,1.3.36,2.7.58,3.67,1.58.43.44.68,1.1-.32,1.1h-7.35c-1.29,0-2.5.03-3.49-.8-1.49-1.25-2.18-2.98-2.92-4.69-.77-1.78-1.6-3.53-2.58-5.21-1.94-3.34-4.51-6.36-7.95-8.2-4.3-2.31-11.6-3.45-17.38.99-6.09,4.68-4.78,13.44.54,17.72,2.1,1.69,4.85,2.4,7.54,2.24,5.27-.31,9.15-4.19,8.19-8.97-.32-1.6-1.25-3.11-2.66-3.94-1-.58-2.18-.79-3.34-.8-1.24,0-2.57.25-3.46,1.12-1.06,1.02-1.23,2.83-.38,4.04.47.67,1.23,1.23,1.1,2.1-.09.59-.57,1.03-1.16,1.16-.99.22-1.89-.34-2.56-1.03-1.71-1.76-2.25-4.57-1.31-6.84,1.23-2.97,4.66-4.61,7.88-4.5,4.15.14,8.06,2.87,9.75,6.66,1.7,3.79,1.19,8.43-1.15,11.86-5.21,7.61-18.07,6.71-24.04.29C1.78,37.49-.26,33.59.03,26.31c.2-5.14,3.17-10.21,6.95-13.77C13.14,6.73,21.25,2.76,29.51,1.05,34.53.02,39.7-.23,44.79.28c4.49.45,8.95,1.27,13.27,2.61,2.14.67,4.25,1.46,6.29,2.39,1.8.83,4.15,1.73,5.55,3.15,0-2.58-.1-5.42-.1-7.39,0-.75.79-1.26,1.47-.94,2.92,1.36,9.84,4.62,14.45,6.73,6.18,2.82,6.62,9.49,6.84,15.4,0,.13.01.27-.05.38-.2.41-1.24.3-1.62.3-.74,0-1.86,0-2.59.03-1.48.07-2.91.04-4.39-.03-2.73-.13-5.37-1.35-7.14-2.83-.17-.15-.75-.31-1.01-.03-.28.29-.18.74-.03.89,1.01,1.02,2.11,1.68,3.39,2.34,1.62.83,3.39,1.04,5.19,1.15,1.92.11,3.86.09,5.78-.11,1.6-.16,2.01-.27.43.9-1.39,1.03-3,1.77-4.63,2.32-2.34.8-4.82,1.19-7.29,1.26-1.5.04-2.99-.04-4.48-.23-.77-.1-1.53-.24-2.3-.31-.63-.06-1.27-.18-1.9-.05-.57.12-1.09.43-1.45.89-.49.64-.66,2.39-.37,3.15.55,1.47,1.74,2.33,3.01,3.08,1.37.82,3.18,1.09,3.53,2.65.07.32-2.84.33-3.17.33h-3.88s-2.11.05-2.93-.25c-.03,0-.05-.02-.07-.03-.45-.24-.64-.84-.79-1.29-.22-.64-.6-1.28-1.06-1.94-.88-1.25-2.22-2.62-3.62-3.14M88.48,14.46c0,2.27-1.84,4.12-4.11,4.12s-4.11-1.84-4.11-4.12,1.84-4.11,4.11-4.11,4.11,1.84,4.11,4.11"/></g></g></svg>