<?xml version="1.0" encoding="UTF-8"?><svg id="Layer_2" xmlns="http://www.w3.org/2000/svg" viewBox="0 0 225.29 127.25"><defs><style>.cls-1{fill:#30ba78;}.cls-1,.cls-2{stroke-width:0px;}.cls-2{fill:#0c322c;}</style></defs><g id="Layer_1-2"><g id="Layer_1-3"><path class="cls-1" d="M87.45,16.49c-.5.33-1.16.33-1.66,0-.81-.54-.89-1.67-.24-2.32.58-.6,1.55-.6,2.13,0,.65.65.58,1.78-.24,2.32M89.82,13.19c.95,4.02-2.67,7.64-6.69,6.69-2.05-.48-3.67-2.11-4.15-4.15-.94-4.02,2.67-7.63,6.69-6.69,2.05.48,3.67,2.1,4.15,4.15M62.74,34.82c.46.66.84,1.3,1.06,1.94.15.45.35,1.05.79,1.29.03.01.05.03.08.03.82.3,2.93.25,2.93.25h3.88c.33,0,3.25,0,3.17-.33-.35-1.56-2.15-1.84-3.53-2.65-1.27-.75-2.46-1.61-3.01-3.08-.28-.76-.11-2.51.37-3.15.36-.46.88-.77,1.45-.89.63-.13,1.27-.02,1.9.05.77.08,1.53.22,2.3.31,1.49.19,2.98.27,4.48.23,2.47-.07,4.94-.46,7.29-1.26,1.63-.55,3.25-1.29,4.63-2.32,1.58-1.17,1.16-1.06-.44-.9-1.92.2-3.86.23-5.78.11-1.79-.1-3.57-.31-5.19-1.15-1.28-.66-2.38-1.32-3.39-2.34-.15-.15-.25-.61.03-.89.27-.28.84-.12,1.01.03,1.77,1.48,4.41,2.7,7.14,2.83,1.48.07,2.91.1,4.39.04.74-.03,1.86-.03,2.6-.04.38,0,1.42.11,1.62-.3.06-.12.05-.25.05-.39-.22-5.91-.65-12.58-6.84-15.4-4.61-2.11-11.53-5.38-14.45-6.73-.68-.32-1.47.19-1.47.94,0,1.97.1,4.81.1,7.39-1.4-1.43-3.76-2.33-5.56-3.15-2.04-.94-4.15-1.73-6.29-2.4-4.31-1.34-8.78-2.16-13.27-2.6-5.09-.51-10.27-.26-15.29.77C21.26,2.76,13.14,6.74,6.98,12.54,3.19,16.11.23,21.17.03,26.32c-.29,7.28,1.75,11.19,5.5,15.22,5.98,6.42,18.84,7.32,24.05-.3,2.34-3.43,2.85-8.07,1.15-11.86-1.7-3.79-5.61-6.52-9.76-6.66-3.22-.11-6.64,1.53-7.88,4.51-.94,2.27-.41,5.08,1.31,6.84.67.69,1.57,1.25,2.56,1.03.58-.13,1.07-.57,1.15-1.16.13-.87-.63-1.44-1.1-2.1-.85-1.21-.67-3.02.38-4.04.9-.87,2.22-1.12,3.46-1.12,1.16,0,2.34.21,3.34.79,1.41.83,2.34,2.34,2.66,3.94.97,4.78-2.92,8.66-8.19,8.97-2.7.16-5.44-.55-7.54-2.24-5.33-4.29-6.63-13.05-.54-17.73,5.78-4.44,13.08-3.29,17.38-.99,3.45,1.85,6.01,4.87,7.96,8.21.98,1.68,1.81,3.43,2.58,5.21.74,1.71,1.44,3.44,2.92,4.7.98.83,2.2.8,3.49.8h7.36c1,0,.76-.67.32-1.11-.97-1-2.38-1.22-3.67-1.58-2.96-.82-2.66-4.74-1.84-4.74,2.65,0,2.73.08,5.06.05,3.35-.05,4.36-.24,6.99.73,1.4.52,2.75,1.89,3.63,3.14"/></g><path class="cls-2" d="M1.4,82.97l3.04-3.04c2.16,2.2,4.16,3.12,6.52,3.12,3.16,0,5.04-1.6,5.04-3.96,0-6.44-13.96-2.8-13.96-12.48,0-5.2,3.88-8.52,9.76-8.52,3.6,0,6.6,1.4,8.48,3.52l-3.12,3.12c-1.6-1.64-3.24-2.48-5.36-2.48-2.96,0-4.88,1.52-4.88,3.88,0,6.08,14.08,2.12,14.08,12.24,0,5.36-4.12,8.84-10.2,8.84-4.2,0-7.24-1.68-9.4-4.24Z"/><path class="cls-2" d="M25.48,76.97v-18.32h4.92v17.92c0,4.08,2.36,6.08,5.96,6.08s5.92-2,5.92-6.08v-17.92h4.92v18.32c0,6.84-4.32,10.24-10.84,10.24s-10.88-3.4-10.88-10.24Z"/><path class="cls-2" d="M51.68,82.97l3.04-3.04c2.16,2.2,4.16,3.12,6.52,3.12,3.16,0,5.04-1.6,5.04-3.96,0-6.44-13.96-2.8-13.96-12.48,0-5.2,3.88-8.52,9.76-8.52,3.6,0,6.6,1.4,8.48,3.52l-3.12,3.12c-1.6-1.64-3.24-2.48-5.36-2.48-2.96,0-4.88,1.52-4.88,3.88,0,6.08,14.08,2.12,14.08,12.24,0,5.36-4.12,8.84-10.2,8.84-4.2,0-7.24-1.68-9.4-4.24Z"/><path class="cls-2" d="M75.44,81.97v-18.64c0-2.72,1.96-4.68,4.68-4.68h13.6v4.48h-11.96c-.84,0-1.48.64-1.48,1.44v5.88h12.6v4.28h-12.6v6c0,.8.64,1.44,1.48,1.44h11.96v4.48h-13.6c-2.72,0-4.68-1.96-4.68-4.68Z"/><path class="cls-2" d="M2.36,113.01v-.72c0-8.36,6.28-14.24,14.16-14.24,3.36,0,6.32,1,8.6,2.8l-1.68,2.04c-1.84-1.44-4.24-2.24-6.92-2.24-6.44,0-11.44,4.8-11.44,11.64v.72c0,6.84,5,11.64,11.44,11.64,2.68,0,5.12-.84,7-2.32l1.64,2.04c-2.28,1.84-5.28,2.88-8.64,2.88-7.88,0-14.16-5.88-14.16-14.24Z"/><path class="cls-2" d="M31.2,121.97v-22.32h-3.72v-2.2h6.24v24.56c0,1.4,1.04,2.44,2.44,2.44h1.72v2.2h-1.84c-2.88,0-4.84-1.88-4.84-4.68Z"/><path class="cls-2" d="M40.12,117.17v-.32c0-5.72,3.96-9.72,9.36-9.72s9.32,4,9.32,9.6v.44c0,5.8-3.92,9.88-9.32,9.88s-9.36-4.08-9.36-9.88ZM49.48,124.77c4,0,6.8-3.12,6.8-7.6v-.44c0-4.28-2.8-7.32-6.8-7.32s-6.8,3.08-6.8,7.44v.32c0,4.48,2.8,7.6,6.8,7.6Z"/><path class="cls-2" d="M63.84,119.09v-11.56h2.48v11.16c0,4.48,2.32,6,5.32,6,3.16,0,5.84-2.08,5.84-6.28v-10.88h2.48v19.12h-2.2v-3.32c-1.52,2.8-4.36,3.72-6.56,3.72-4.24,0-7.36-2.32-7.36-7.96Z"/><path class="cls-2" d="M85.16,117.17v-.36c0-5.68,3.76-9.68,8.96-9.68,3.08,0,5.6,1.56,7.04,4.04v-13.72h2.56v29.2h-2.32v-3.96c-1.48,2.68-4.12,4.36-7.28,4.36-5.24,0-8.96-4-8.96-9.88ZM94.44,124.77c3.96,0,6.88-3.08,6.88-7.68s-2.92-7.68-6.88-7.68-6.72,3-6.72,7.4v.36c0,4.56,2.8,7.6,6.72,7.6Z"/><path class="cls-2" d="M120.68,98.65h2.52l15.16,23.4v-23.4h2.64v28h-2.52l-15.16-23.44v23.44h-2.64v-28Z"/><path class="cls-2" d="M160.04,124.53c-1.04,1.64-3.04,2.52-5.88,2.52-4.52,0-7.32-2.24-7.32-5.6s2.76-5.76,7.56-5.76c2.32,0,4.08.56,5.28,1.6v-3.04c0-3.28-1.68-4.8-4.84-4.8-2.08,0-4.48.76-6.08,2.4l-1.24-1.76c1.68-2,4.6-2.96,7.4-2.96,4.36,0,7.28,2.32,7.28,7.08v6.08c0,2.12.04,4.24.12,6.36h-2.28v-2.12ZM154.6,125.09c3.2,0,5.08-1.48,5.08-3.68s-1.84-3.64-5.08-3.64-5.2,1.44-5.2,3.64,2,3.68,5.2,3.68Z"/><path class="cls-2" d="M169.04,121.81v-12.04h-3.6v-2.24h3.6v-4.76h2.52v4.76h5.28v2.24h-5.28v12.2c0,1.4,1.04,2.48,2.44,2.48h2.84v2.2h-2.84c-2.56,0-4.96-1.48-4.96-4.84Z"/><path class="cls-2" d="M182.52,109.77h-3.84v-2.24h6.36v19.12h-2.52v-16.88ZM182.44,98.77h2.72v4.36h-2.72v-4.36Z"/><path class="cls-2" d="M188.8,107.53h2.64l6.4,16.12,6.4-16.12h2.64l-7.68,19.12h-2.68l-7.72-19.12Z"/><path class="cls-2" d="M208.4,117.17v-.4c0-5.56,3.56-9.64,8.88-9.64s8.64,4.28,7.92,10.64h-14.28c.28,4.08,3,6.92,7.12,6.92,2.04,0,3.76-.52,4.92-1.56l1.44,1.64c-1.4,1.44-3.8,2.28-6.48,2.28-5.64,0-9.52-4.04-9.52-9.88ZM222.79,115.65c.08-3.92-2.24-6.28-5.52-6.28-3.56,0-5.92,2.48-6.32,6.28h11.84Z"/></g></svg>