<?xml version="1.0" encoding="UTF-8"?>
<svg id="Layer_2" data-name="Layer 2" xmlns="http://www.w3.org/2000/svg" viewBox="0 0 369.04 111.99">
  <defs>
    <style>
      .cls-1 {
        fill: #0d322c;
      }

      .cls-2 {
        fill: #30ba78;
      }
    </style>
  </defs>
  <g id="Layer_1-3" data-name="Layer 1-3">
    <path class="cls-2" d="M90.39,36.97c-.38.25-.88.25-1.26,0-.62-.41-.68-1.27-.18-1.77.44-.46,1.18-.46,1.62,0,.5.5.44,1.36-.18,1.77M92.2,34.46c.72,3.06-2.03,5.81-5.1,5.1-1.56-.37-2.8-1.61-3.16-3.16-.72-3.06,2.03-5.81,5.09-5.1,1.56.37,2.8,1.6,3.16,3.16M71.58,50.93c.35.5.64.99.81,1.47.11.34.27.8.6.98.02,0,.04.02.06.02.62.23,2.23.19,2.23.19h2.96c.25,0,2.47,0,2.42-.25-.27-1.19-1.64-1.4-2.68-2.02-.96-.57-1.87-1.23-2.29-2.35-.21-.58-.08-1.91.28-2.4.27-.35.67-.59,1.1-.68.48-.1.97-.02,1.45.04.59.06,1.17.17,1.75.24,1.13.14,2.27.21,3.41.18,1.88-.05,3.76-.35,5.55-.96,1.24-.42,2.47-.98,3.53-1.77,1.2-.89.88-.81-.34-.69-1.46.15-2.93.18-4.4.08-1.36-.08-2.71-.24-3.95-.88-.98-.5-1.81-1.01-2.58-1.78-.11-.11-.19-.46.02-.68.21-.21.64-.09.77.02,1.35,1.13,3.36,2.05,5.43,2.16,1.13.05,2.22.08,3.35.03.56-.02,1.41-.02,1.97-.03.29,0,1.08.08,1.23-.23.05-.09.04-.19.04-.3-.17-4.5-.5-9.58-5.2-11.73-3.51-1.61-8.79-4.1-11-5.13-.52-.24-1.12.14-1.12.72,0,1.5.08,3.67.08,5.63-1.07-1.08-2.86-1.77-4.23-2.4-1.55-.72-3.15-1.32-4.79-1.83-3.28-1.02-6.68-1.65-10.1-1.98-3.88-.39-7.82-.2-11.64.59-6.29,1.31-12.47,4.34-17.16,8.76-2.88,2.72-5.14,6.58-5.29,10.49-.22,5.54,1.33,8.52,4.19,11.59,4.55,4.89,14.35,5.57,18.31-.22,1.78-2.61,2.17-6.15.88-9.03-1.3-2.88-4.27-4.97-7.43-5.07-2.45-.08-5.06,1.17-6,3.43-.72,1.73-.31,3.86,1,5.21.51.53,1.2.95,1.95.78.44-.1.82-.43.88-.88.1-.66-.48-1.09-.84-1.6-.65-.92-.51-2.3.29-3.08.68-.66,1.69-.85,2.64-.85.88,0,1.78.16,2.55.6,1.07.62,1.78,1.78,2.03,3,.73,3.64-2.23,6.6-6.24,6.83-2.05.12-4.15-.42-5.75-1.71-4.05-3.26-5.05-9.94-.41-13.5,4.4-3.38,9.96-2.51,13.24-.75,2.62,1.4,4.58,3.7,6.06,6.25.75,1.28,1.38,2.61,1.97,3.97.56,1.3,1.1,2.62,2.23,3.57.75.63,1.68.61,2.65.61h5.6c.76,0,.58-.51.24-.85-.74-.76-1.81-.93-2.8-1.2-2.26-.62-2.03-3.61-1.4-3.61,2.02,0,2.08.06,3.85.04,2.55-.04,3.32-.18,5.32.56,1.07.4,2.1,1.44,2.76,2.39"/>
  </g>
  <g>
    <path class="cls-1" d="M112.66,53.55c-2.08,0-3.89-.39-5.44-1.16-1.55-.77-2.87-1.8-3.96-3.08l3.04-3.04c1.09,1.12,2.16,1.92,3.2,2.4,1.04.48,2.15.72,3.32.72,1.57,0,2.81-.37,3.7-1.1.89-.73,1.34-1.69,1.34-2.86,0-.91-.25-1.65-.76-2.22-.51-.57-1.17-1.04-2-1.4-.83-.36-1.74-.68-2.74-.96-1-.28-1.99-.59-2.98-.94-.99-.35-1.89-.8-2.72-1.36-.83-.56-1.49-1.29-2-2.2s-.76-2.04-.76-3.4c0-1.76.4-3.27,1.2-4.54s1.94-2.25,3.42-2.94,3.19-1.04,5.14-1.04c1.81,0,3.45.32,4.9.96,1.45.64,2.65,1.49,3.58,2.56l-3.12,3.12c-.8-.83-1.63-1.45-2.48-1.86-.85-.41-1.83-.62-2.92-.62-1.47,0-2.64.35-3.52,1.06-.88.71-1.32,1.65-1.32,2.82,0,.85.25,1.55.76,2.08.51.53,1.18.95,2.02,1.26s1.76.59,2.76.84c1,.25,2.01.55,3.02.9,1.01.35,1.93.8,2.76,1.36.83.56,1.49,1.31,2,2.24.51.93.76,2.12.76,3.56,0,1.79-.43,3.34-1.28,4.66s-2.05,2.35-3.58,3.08c-1.53.73-3.31,1.1-5.34,1.1Z"/>
    <path class="cls-1" d="M138.03,53.55c-3.28,0-5.91-.85-7.88-2.54-1.97-1.69-2.96-4.26-2.96-7.7v-18.32h4.92v17.92c0,2.03.53,3.55,1.6,4.56,1.07,1.01,2.51,1.52,4.32,1.52s3.26-.51,4.34-1.52,1.62-2.53,1.62-4.56v-17.92h4.92v18.32c0,2.27-.45,4.16-1.36,5.68-.91,1.52-2.17,2.66-3.8,3.42-1.63.76-3.53,1.14-5.72,1.14Z"/>
    <path class="cls-1" d="M162.42,53.55c-2.08,0-3.89-.39-5.44-1.16-1.55-.77-2.87-1.8-3.96-3.08l3.04-3.04c1.09,1.12,2.16,1.92,3.2,2.4,1.04.48,2.15.72,3.32.72,1.57,0,2.81-.37,3.7-1.1.89-.73,1.34-1.69,1.34-2.86,0-.91-.25-1.65-.76-2.22-.51-.57-1.17-1.04-2-1.4-.83-.36-1.74-.68-2.74-.96-1-.28-1.99-.59-2.98-.94-.99-.35-1.89-.8-2.72-1.36-.83-.56-1.49-1.29-2-2.2s-.76-2.04-.76-3.4c0-1.76.4-3.27,1.2-4.54s1.94-2.25,3.42-2.94,3.19-1.04,5.14-1.04c1.81,0,3.45.32,4.9.96,1.45.64,2.65,1.49,3.58,2.56l-3.12,3.12c-.8-.83-1.63-1.45-2.48-1.86-.85-.41-1.83-.62-2.92-.62-1.47,0-2.64.35-3.52,1.06-.88.71-1.32,1.65-1.32,2.82,0,.85.25,1.55.76,2.08.51.53,1.18.95,2.02,1.26s1.76.59,2.76.84c1,.25,2.01.55,3.02.9,1.01.35,1.93.8,2.76,1.36.83.56,1.49,1.31,2,2.24.51.93.76,2.12.76,3.56,0,1.79-.43,3.34-1.28,4.66s-2.05,2.35-3.58,3.08c-1.53.73-3.31,1.1-5.34,1.1Z"/>
    <path class="cls-1" d="M181.58,52.99c-1.36,0-2.47-.44-3.34-1.32s-1.3-2-1.3-3.36v-18.64c0-1.36.43-2.48,1.3-3.36s1.98-1.32,3.34-1.32h13.64v4.48h-12c-.4,0-.74.14-1.02.42s-.42.62-.42,1.02v16.16c0,.4.14.74.42,1.02s.62.42,1.02.42h12v4.48h-13.64ZM179.3,41.07v-4.28h15.08v4.28h-15.08Z"/>
    <path class="cls-1" d="M216.58,53.47c-1.97,0-3.7-.35-5.18-1.06-1.48-.71-2.73-1.67-3.74-2.9l2.16-2.16c.99,1.09,2.05,1.9,3.18,2.42,1.13.52,2.37.78,3.7.78,1.87,0,3.34-.47,4.42-1.4,1.08-.93,1.62-2.15,1.62-3.64,0-1.07-.26-1.93-.78-2.58-.52-.65-1.21-1.18-2.08-1.58-.87-.4-1.81-.74-2.84-1.02-1.03-.28-2.05-.59-3.08-.92-1.03-.33-1.97-.77-2.84-1.3-.87-.53-1.56-1.23-2.08-2.1-.52-.87-.78-1.99-.78-3.38,0-1.65.39-3.09,1.16-4.3.77-1.21,1.86-2.15,3.26-2.82,1.4-.67,3.03-1,4.9-1,1.68,0,3.19.27,4.52.82,1.33.55,2.44,1.31,3.32,2.3l-2.2,2.2c-.77-.8-1.62-1.4-2.54-1.8s-1.95-.6-3.1-.6c-1.79,0-3.22.45-4.3,1.34s-1.62,2.07-1.62,3.54c0,1.01.27,1.82.8,2.42.53.6,1.23,1.08,2.08,1.44.85.36,1.8.67,2.84.94s2.08.57,3.12.9c1.04.33,1.99.77,2.86,1.3s1.57,1.25,2.1,2.16c.53.91.8,2.09.8,3.56,0,1.71-.41,3.19-1.22,4.46-.81,1.27-1.95,2.25-3.4,2.94-1.45.69-3.14,1.04-5.06,1.04Z"/>
    <path class="cls-1" d="M237.78,53.39c-1.41,0-2.68-.28-3.8-.84-1.12-.56-2.01-1.42-2.66-2.58-.65-1.16-.98-2.66-.98-4.5v-11.72h3.24v11.16c0,1.36.21,2.45.62,3.26.41.81.99,1.39,1.72,1.74.73.35,1.57.52,2.5.52s1.84-.21,2.64-.64c.8-.43,1.45-1.07,1.94-1.94s.74-1.94.74-3.22v-10.88h3.2v19.24h-2.84v-5.2h.92c-.29,1.09-.71,2-1.24,2.72-.53.72-1.15,1.29-1.84,1.72-.69.43-1.4.73-2.12.9-.72.17-1.4.26-2.04.26Z"/>
    <path class="cls-1" d="M252.94,52.99v-19.24h3.08v5.04l-.8-.04c.4-1.39.97-2.47,1.72-3.24.75-.77,1.58-1.33,2.5-1.66s1.82-.5,2.7-.5c1.65,0,3.06.43,4.22,1.3,1.16.87,1.94,2.21,2.34,4.02h-1.2c.45-1.39,1.1-2.47,1.94-3.24s1.74-1.31,2.7-1.62,1.85-.46,2.68-.46c2.11,0,3.81.67,5.1,2.02,1.29,1.35,1.94,3.41,1.94,6.18v11.44h-3.16v-11.04c0-2-.43-3.44-1.28-4.32-.85-.88-1.97-1.32-3.36-1.32s-2.64.49-3.6,1.46c-.96.97-1.44,2.37-1.44,4.18v11.04h-3.2v-11.04c0-2-.42-3.44-1.26-4.32s-1.95-1.32-3.34-1.32-2.65.49-3.62,1.46c-.97.97-1.46,2.37-1.46,4.18v11.04h-3.2Z"/>
    <path class="cls-1" d="M287.62,52.99v-19.24h3.08v5.04l-.8-.04c.4-1.39.97-2.47,1.72-3.24.75-.77,1.58-1.33,2.5-1.66s1.82-.5,2.7-.5c1.65,0,3.06.43,4.22,1.3,1.16.87,1.94,2.21,2.34,4.02h-1.2c.45-1.39,1.1-2.47,1.94-3.24s1.74-1.31,2.7-1.62,1.85-.46,2.68-.46c2.11,0,3.81.67,5.1,2.02,1.29,1.35,1.94,3.41,1.94,6.18v11.44h-3.16v-11.04c0-2-.43-3.44-1.28-4.32-.85-.88-1.97-1.32-3.36-1.32s-2.64.49-3.6,1.46c-.96.97-1.44,2.37-1.44,4.18v11.04h-3.2v-11.04c0-2-.42-3.44-1.26-4.32s-1.95-1.32-3.34-1.32-2.65.49-3.62,1.46c-.97.97-1.46,2.37-1.46,4.18v11.04h-3.2Z"/>
    <path class="cls-1" d="M323.46,52.99v-17.88l1.44,1.44h-5.16v-2.8h6.96v19.24h-3.24ZM323.34,29.51v-4.64h3.52v4.64h-3.52Z"/>
    <path class="cls-1" d="M330.46,36.55v-2.8h11.76v2.8h-11.76ZM339.26,52.99c-.64,0-1.28-.09-1.92-.28-.64-.19-1.21-.48-1.72-.88-.51-.4-.91-.93-1.2-1.58-.29-.65-.44-1.45-.44-2.38v-18.88h3.2v19.08c0,.61.21,1.13.62,1.54.41.41.91.62,1.5.62h2.92v2.76h-2.96Z"/>
    <path class="cls-1" d="M104.57,86.99v-19.6h2.49l6.5,13.08h-.84l6.47-13.08h2.49v19.6h-1.82v-18.37h.59l-6.55,13.44h-1.54l-6.52-13.44h.59v18.37h-1.85Z"/>
    <path class="cls-1" d="M131.17,87.27c-.99,0-1.88-.19-2.66-.57-.78-.38-1.4-.98-1.85-1.79-.45-.81-.67-1.88-.67-3.21v-8.09h1.76v7.81c0,1.05.16,1.88.49,2.49.33.62.77,1.05,1.33,1.32.56.26,1.19.39,1.9.39s1.4-.16,2.02-.49c.62-.33,1.12-.82,1.5-1.47s.57-1.46.57-2.44v-7.62h1.74v13.38h-1.57v-3.58h.5c-.21.73-.49,1.34-.87,1.83-.37.5-.8.89-1.29,1.19-.49.3-.98.51-1.48.64-.5.13-.98.2-1.43.2Z"/>
    <path class="cls-1" d="M141.73,86.99v-13.38h1.71v3.44l-.42-.03c.28-.93.68-1.67,1.2-2.2s1.11-.91,1.75-1.15c.64-.23,1.27-.35,1.89-.35,1.18,0,2.17.31,2.98.92.81.62,1.36,1.57,1.64,2.86h-.64c.32-.97.76-1.73,1.33-2.28.57-.55,1.19-.94,1.86-1.16.67-.22,1.31-.34,1.9-.34,1.47,0,2.66.47,3.56,1.41.9.94,1.34,2.4,1.34,4.38v7.87h-1.74v-7.67c0-1.55-.33-2.66-.98-3.33s-1.51-1.01-2.58-1.01-2,.37-2.74,1.11c-.75.74-1.12,1.81-1.12,3.21v7.7h-1.76v-7.67c0-1.55-.32-2.66-.97-3.33-.64-.67-1.5-1.01-2.56-1.01s-2.03.37-2.77,1.11c-.75.74-1.12,1.81-1.12,3.21v7.7h-1.76Z"/>
    <path class="cls-1" d="M172.81,87.27c-1.23,0-2.32-.33-3.26-.98-.94-.65-1.65-1.55-2.11-2.69l.31-.36v3.75h-1.65v-20.44h1.79v10.7l-.34-.42c.47-1.06,1.16-1.91,2.09-2.55s1.98-.95,3.18-.95,2.29.29,3.23.87c.94.58,1.68,1.38,2.23,2.39.54,1.02.81,2.19.81,3.51v.25c0,1.36-.27,2.56-.8,3.6s-1.27,1.85-2.21,2.44c-.94.59-2.03.88-3.26.88ZM172.58,85.67c.91,0,1.73-.22,2.44-.67.71-.45,1.26-1.07,1.67-1.86.4-.79.6-1.72.6-2.79v-.25c0-1.03-.2-1.93-.6-2.7s-.96-1.38-1.67-1.82c-.71-.44-1.52-.66-2.44-.66s-1.74.23-2.46.69c-.73.46-1.3,1.09-1.72,1.89-.42.8-.63,1.74-.63,2.8s.21,2,.63,2.81c.42.81.99,1.44,1.72,1.89.73.45,1.55.67,2.46.67Z"/>
    <path class="cls-1" d="M186.67,87.27c-1.57,0-2.81-.36-3.74-1.08-.92-.72-1.39-1.67-1.39-2.84,0-.77.21-1.45.62-2.06.41-.61,1.02-1.09,1.82-1.44.8-.35,1.76-.53,2.88-.53,1.55,0,2.75.35,3.6,1.04s1.27,1.61,1.27,2.74h-.34c0,1.31-.39,2.33-1.18,3.07-.78.74-1.97,1.11-3.56,1.11ZM190.78,86.99l-.03-4.87-.2-.53v-3.28c0-1.16-.29-2.01-.87-2.55-.58-.54-1.42-.81-2.52-.81-.73,0-1.48.14-2.25.42s-1.45.71-2.03,1.29l-.87-1.26c.63-.69,1.41-1.21,2.34-1.55.92-.34,1.88-.52,2.87-.52s1.89.18,2.66.55,1.36.91,1.79,1.64c.43.73.64,1.65.64,2.77v4.26c0,.75,0,1.49.01,2.23s.03,1.48.07,2.23h-1.62ZM187,85.9c1.12,0,1.99-.24,2.62-.71.62-.48.94-1.1.94-1.86s-.31-1.4-.94-1.86c-.63-.46-1.51-.69-2.65-.69s-2.01.23-2.66.69c-.65.46-.98,1.08-.98,1.86s.33,1.39.98,1.86c.65.48,1.55.71,2.69.71Z"/>
    <path class="cls-1" d="M197.42,86.99v-12.6l.81.78h-3.47v-1.57h4.45v13.38h-1.79ZM197.37,70.52v-3.02h1.9v3.02h-1.9Z"/>
  </g>
</svg>