<?xml version="1.0" encoding="UTF-8"?>
<svg id="Layer_2" data-name="Layer 2" xmlns="http://www.w3.org/2000/svg" viewBox="0 0 572.51 37.2">
  <defs>
    <style>
      .cls-1 {
        fill: #30ba78;
      }

      .cls-1, .cls-2 {
        stroke-width: 0px;
      }

      .cls-2 {
        fill: #efefef;
      }
    </style>
  </defs>
  <g id="Layer_1-2" data-name="Layer 1">
    <g>
      <g id="Layer_1-3" data-name="Layer 1">
        <path class="cls-1" d="m67.08,11.32c-.45-.46-1.18-.46-1.63,0-.5.5-.44,1.37.18,1.78.38.25.89.25,1.27,0,.62-.41.68-1.28.18-1.78m-1.49-3.92c-3.08-.72-5.85,2.04-5.12,5.12.37,1.57,1.61,2.81,3.18,3.18,3.08.72,5.85-2.05,5.12-5.12-.37-1.57-1.61-2.81-3.18-3.18m-20.33,17.34c-2.01-.74-2.78-.59-5.35-.56-1.78.02-1.84-.04-3.87-.04-.63,0-.86,3,1.41,3.63.99.27,2.07.45,2.81,1.21.33.34.52.85-.25.85h-5.63c-.99,0-1.92.02-2.67-.61-1.14-.96-1.67-2.28-2.24-3.6-.59-1.36-1.23-2.71-1.97-3.99-1.49-2.56-3.45-4.87-6.09-6.28-3.29-1.77-8.88-2.64-13.31.76-4.66,3.58-3.66,10.29.42,13.57,1.61,1.3,3.71,1.84,5.78,1.72,4.03-.24,7.01-3.21,6.27-6.87-.25-1.23-.96-2.38-2.04-3.02-.77-.45-1.67-.61-2.56-.61-.95,0-1.97.2-2.65.86-.81.78-.94,2.17-.29,3.1.36.51.94.94.84,1.61-.07.45-.44.79-.89.89-.76.17-1.45-.26-1.96-.79-1.31-1.35-1.72-3.5-1-5.24.94-2.28,3.57-3.53,6.03-3.45,3.18.11,6.17,2.2,7.47,5.1,1.3,2.9.91,6.46-.88,9.08-3.99,5.83-13.84,5.14-18.41.22C1.36,29.19-.2,26.2.02,20.63c.15-3.94,2.43-7.82,5.32-10.55C10.06,5.63,16.28,2.59,22.6,1.28c3.84-.79,7.81-.98,11.71-.59,3.44.34,6.86.97,10.16,2,1.64.51,3.25,1.12,4.81,1.83,1.38.63,3.18,1.32,4.25,2.41,0-1.98-.08-4.15-.08-5.66,0-.58.61-.97,1.13-.72,2.24,1.04,7.53,3.54,11.07,5.16,4.74,2.16,5.07,7.27,5.24,11.79,0,.1,0,.21-.04.29-.15.31-.95.23-1.24.23-.57,0-1.42,0-1.99.03-1.13.05-2.23.03-3.36-.03-2.09-.1-4.11-1.03-5.47-2.17-.13-.11-.57-.24-.78-.02-.21.22-.14.57-.02.68.78.78,1.62,1.29,2.6,1.8,1.24.64,2.6.8,3.97.88,1.47.09,2.95.07,4.42-.09,1.23-.12,1.54-.21.33.69-1.06.79-2.3,1.36-3.55,1.78-1.79.61-3.69.91-5.58.96-1.15.03-2.29-.03-3.43-.18-.59-.07-1.17-.18-1.76-.24-.48-.05-.98-.14-1.45-.04-.43.09-.83.33-1.11.68-.37.49-.5,1.83-.29,2.41.42,1.13,1.34,1.78,2.3,2.36,1.05.62,2.43.84,2.7,2.03.06.25-2.18.26-2.43.25h-2.97s-1.62.04-2.24-.19c-.02,0-.04-.02-.06-.02-.34-.18-.49-.64-.61-.99-.17-.49-.46-.98-.81-1.48-.67-.96-1.7-2-2.78-2.4m22.5-13.19c0,1.74-1.41,3.15-3.15,3.15s-3.15-1.41-3.15-3.15,1.41-3.15,3.15-3.15,3.15,1.41,3.15,3.15"/>
      </g>
      <g>
        <path class="cls-2" d="m89.64,29.76c-2.08,0-3.89-.39-5.44-1.16-1.55-.77-2.87-1.8-3.96-3.08l3.04-3.04c1.09,1.12,2.16,1.92,3.2,2.4s2.15.72,3.32.72c1.57,0,2.81-.37,3.7-1.1.89-.73,1.34-1.69,1.34-2.86,0-.91-.25-1.65-.76-2.22-.51-.57-1.17-1.04-2-1.4-.83-.36-1.74-.68-2.74-.96s-1.99-.59-2.98-.94c-.99-.35-1.89-.8-2.72-1.36-.83-.56-1.49-1.29-2-2.2-.51-.91-.76-2.04-.76-3.4,0-1.76.4-3.27,1.2-4.54.8-1.27,1.94-2.25,3.42-2.94s3.19-1.04,5.14-1.04c1.81,0,3.45.32,4.9.96,1.45.64,2.65,1.49,3.58,2.56l-3.12,3.12c-.8-.83-1.63-1.45-2.48-1.86-.85-.41-1.83-.62-2.92-.62-1.47,0-2.64.35-3.52,1.06-.88.71-1.32,1.65-1.32,2.82,0,.85.25,1.55.76,2.08.51.53,1.18.95,2.02,1.26s1.76.59,2.76.84c1,.25,2.01.55,3.02.9,1.01.35,1.93.8,2.76,1.36.83.56,1.49,1.31,2,2.24.51.93.76,2.12.76,3.56,0,1.79-.43,3.34-1.28,4.66-.85,1.32-2.05,2.35-3.58,3.08-1.53.73-3.31,1.1-5.34,1.1Z"/>
        <path class="cls-2" d="m115,29.76c-3.28,0-5.91-.85-7.88-2.54-1.97-1.69-2.96-4.26-2.96-7.7V1.2h4.92v17.92c0,2.03.53,3.55,1.6,4.56,1.07,1.01,2.51,1.52,4.32,1.52s3.26-.51,4.34-1.52,1.62-2.53,1.62-4.56V1.2h4.92v18.32c0,2.27-.45,4.16-1.36,5.68-.91,1.52-2.17,2.66-3.8,3.42-1.63.76-3.53,1.14-5.72,1.14Z"/>
        <path class="cls-2" d="m139.39,29.76c-2.08,0-3.89-.39-5.44-1.16-1.55-.77-2.87-1.8-3.96-3.08l3.04-3.04c1.09,1.12,2.16,1.92,3.2,2.4s2.15.72,3.32.72c1.57,0,2.81-.37,3.7-1.1.89-.73,1.34-1.69,1.34-2.86,0-.91-.25-1.65-.76-2.22-.51-.57-1.17-1.04-2-1.4-.83-.36-1.74-.68-2.74-.96s-1.99-.59-2.98-.94c-.99-.35-1.89-.8-2.72-1.36-.83-.56-1.49-1.29-2-2.2-.51-.91-.76-2.04-.76-3.4,0-1.76.4-3.27,1.2-4.54.8-1.27,1.94-2.25,3.42-2.94s3.19-1.04,5.14-1.04c1.81,0,3.45.32,4.9.96,1.45.64,2.65,1.49,3.58,2.56l-3.12,3.12c-.8-.83-1.63-1.45-2.48-1.86-.85-.41-1.83-.62-2.92-.62-1.47,0-2.64.35-3.52,1.06-.88.71-1.32,1.65-1.32,2.82,0,.85.25,1.55.76,2.08.51.53,1.18.95,2.02,1.26s1.76.59,2.76.84c1,.25,2.01.55,3.02.9,1.01.35,1.93.8,2.76,1.36.83.56,1.49,1.31,2,2.24.51.93.76,2.12.76,3.56,0,1.79-.43,3.34-1.28,4.66-.85,1.32-2.05,2.35-3.58,3.08-1.53.73-3.31,1.1-5.34,1.1Z"/>
        <path class="cls-2" d="m158.55,29.2c-1.36,0-2.47-.44-3.34-1.32-.87-.88-1.3-2-1.3-3.36V5.88c0-1.36.43-2.48,1.3-3.36.87-.88,1.98-1.32,3.34-1.32h13.64v4.48h-12c-.4,0-.74.14-1.02.42-.28.28-.42.62-.42,1.02v16.16c0,.4.14.74.42,1.02.28.28.62.42,1.02.42h12v4.48h-13.64Zm-2.28-11.92v-4.28h15.08v4.28h-15.08Z"/>
        <path class="cls-2" d="m183.55,29.2l10.64-28h4.12l10.64,28h-3.52l-9.44-25.36h.56l-9.52,25.36h-3.48Zm4.4-7.64l1.12-2.92h14.4l1.16,2.92h-16.68Z"/>
        <path class="cls-2" d="m212.39,37.2V9.96h3.04v5.08l-.6-.68c.69-1.47,1.69-2.63,3-3.5,1.31-.87,2.8-1.3,4.48-1.3s3.28.41,4.64,1.24c1.36.83,2.43,1.97,3.22,3.44.79,1.47,1.18,3.16,1.18,5.08v.36c0,1.97-.39,3.7-1.16,5.18-.77,1.48-1.84,2.64-3.2,3.48-1.36.84-2.92,1.26-4.68,1.26-1.63,0-3.08-.41-4.36-1.24-1.28-.83-2.27-1.95-2.96-3.36l.64-.72v12.92h-3.24Zm9.44-10.48c1.2,0,2.27-.29,3.22-.88.95-.59,1.69-1.41,2.24-2.46.55-1.05.82-2.29.82-3.7v-.36c0-1.39-.27-2.59-.82-3.62-.55-1.03-1.29-1.83-2.24-2.4-.95-.57-2.02-.86-3.22-.86s-2.29.3-3.26.9-1.74,1.43-2.3,2.5c-.56,1.07-.84,2.32-.84,3.76s.28,2.66.84,3.74c.56,1.08,1.33,1.91,2.3,2.5.97.59,2.06.88,3.26.88Z"/>
        <path class="cls-2" d="m236.07,37.2V9.96h3.04v5.08l-.6-.68c.69-1.47,1.69-2.63,3-3.5,1.31-.87,2.8-1.3,4.48-1.3s3.28.41,4.64,1.24c1.36.83,2.43,1.97,3.22,3.44.79,1.47,1.18,3.16,1.18,5.08v.36c0,1.97-.39,3.7-1.16,5.18-.77,1.48-1.84,2.64-3.2,3.48-1.36.84-2.92,1.26-4.68,1.26-1.63,0-3.08-.41-4.36-1.24-1.28-.83-2.27-1.95-2.96-3.36l.64-.72v12.92h-3.24Zm9.44-10.48c1.2,0,2.27-.29,3.22-.88.95-.59,1.69-1.41,2.24-2.46.55-1.05.82-2.29.82-3.7v-.36c0-1.39-.27-2.59-.82-3.62-.55-1.03-1.29-1.83-2.24-2.4-.95-.57-2.02-.86-3.22-.86s-2.29.3-3.26.9-1.74,1.43-2.3,2.5c-.56,1.07-.84,2.32-.84,3.76s.28,2.66.84,3.74c.56,1.08,1.33,1.91,2.3,2.5.97.59,2.06.88,3.26.88Z"/>
        <path class="cls-2" d="m264.91,29.2c-1.55,0-2.8-.45-3.76-1.34-.96-.89-1.44-2.09-1.44-3.58V1.32l1.44,1.44h-4.96V0h6.76v24.32c0,.61.2,1.12.6,1.52.4.4.91.6,1.52.6h1.84v2.76h-2Z"/>
        <path class="cls-2" d="m271.87,29.2V11.32l1.44,1.44h-5.16v-2.8h6.96v19.24h-3.24Zm-.12-23.48V1.08h3.52v4.64h-3.52Z"/>
        <path class="cls-2" d="m289.67,29.6c-1.89,0-3.58-.41-5.06-1.24-1.48-.83-2.65-1.98-3.5-3.46-.85-1.48-1.28-3.18-1.28-5.1v-.48c0-1.92.43-3.61,1.28-5.08s2.02-2.61,3.5-3.44c1.48-.83,3.17-1.24,5.06-1.24,1.41,0,2.7.25,3.86.76,1.16.51,2.14,1.24,2.94,2.2l-2,2c-.61-.64-1.32-1.13-2.12-1.46-.8-.33-1.69-.5-2.68-.5-1.25,0-2.39.28-3.4.84-1.01.56-1.81,1.35-2.38,2.36-.57,1.01-.86,2.2-.86,3.56v.48c0,1.36.29,2.55.88,3.56.59,1.01,1.38,1.81,2.38,2.38,1,.57,2.14.86,3.42.86.96,0,1.85-.15,2.66-.46.81-.31,1.54-.79,2.18-1.46l1.96,1.96c-.77.93-1.75,1.66-2.94,2.18-1.19.52-2.49.78-3.9.78Z"/>
        <path class="cls-2" d="m306.59,29.6c-2.27,0-4.07-.52-5.4-1.56-1.33-1.04-2-2.41-2-4.12,0-1.09.3-2.09.9-3s1.48-1.63,2.64-2.16c1.16-.53,2.57-.8,4.22-.8,2.21,0,3.93.5,5.16,1.5,1.23,1,1.84,2.33,1.84,3.98h-.64c0,1.97-.56,3.49-1.68,4.56s-2.8,1.6-5.04,1.6Zm5.68-.4v-7.28l-.4-1.08v-4.08c0-1.44-.37-2.51-1.12-3.22-.75-.71-1.87-1.06-3.36-1.06-.99,0-2.03.2-3.12.6-1.09.4-2.07.99-2.92,1.76l-1.52-2.28c.93-.96,2.08-1.7,3.44-2.22,1.36-.52,2.77-.78,4.24-.78s2.81.27,3.94.8c1.13.53,2.02,1.33,2.66,2.38.64,1.05.96,2.38.96,3.98v6.16c0,1.07,0,2.12.02,3.16.01,1.04.05,2.09.1,3.16h-2.92Zm-5.08-2.04c1.44,0,2.58-.3,3.42-.9.84-.6,1.26-1.41,1.26-2.42s-.41-1.81-1.24-2.4c-.83-.59-1.97-.88-3.44-.88s-2.63.29-3.48.88c-.85.59-1.28,1.39-1.28,2.4s.43,1.82,1.3,2.42,2.02.9,3.46.9Z"/>
        <path class="cls-2" d="m318.35,12.76v-2.8h11.76v2.8h-11.76Zm8.8,16.44c-.64,0-1.28-.09-1.92-.28-.64-.19-1.21-.48-1.72-.88-.51-.4-.91-.93-1.2-1.58-.29-.65-.44-1.45-.44-2.38V5.2h3.2v19.08c0,.61.21,1.13.62,1.54.41.41.91.62,1.5.62h2.92v2.76h-2.96Z"/>
        <path class="cls-2" d="m335.95,29.2V11.32l1.44,1.44h-5.16v-2.8h6.96v19.24h-3.24Zm-.12-23.48V1.08h3.52v4.64h-3.52Z"/>
        <path class="cls-2" d="m353.47,29.6c-1.84,0-3.48-.42-4.92-1.26-1.44-.84-2.57-2.01-3.4-3.5-.83-1.49-1.24-3.21-1.24-5.16v-.36c0-1.92.41-3.61,1.24-5.08.83-1.47,1.96-2.61,3.4-3.44,1.44-.83,3.08-1.24,4.92-1.24s3.48.41,4.92,1.24c1.44.83,2.57,1.97,3.4,3.42.83,1.45,1.24,3.13,1.24,5.02v.44c0,1.95-.41,3.67-1.24,5.16-.83,1.49-1.96,2.66-3.4,3.5-1.44.84-3.08,1.26-4.92,1.26Zm0-2.88c1.25,0,2.36-.3,3.32-.9.96-.6,1.71-1.43,2.24-2.48.53-1.05.8-2.27.8-3.66v-.44c0-1.33-.27-2.51-.8-3.52-.53-1.01-1.28-1.81-2.24-2.4-.96-.59-2.07-.88-3.32-.88s-2.32.29-3.28.88c-.96.59-1.71,1.4-2.26,2.44-.55,1.04-.82,2.23-.82,3.56v.36c0,1.39.27,2.61.82,3.66.55,1.05,1.3,1.88,2.26,2.48.96.6,2.05.9,3.28.9Z"/>
        <path class="cls-2" d="m367.75,29.2V9.96h3.12v5.2h-.88c.29-1.09.71-2,1.26-2.72.55-.72,1.16-1.29,1.84-1.72s1.38-.73,2.1-.9c.72-.17,1.4-.26,2.04-.26,2.16,0,3.91.69,5.26,2.08,1.35,1.39,2.02,3.47,2.02,6.24v11.32h-3.24v-10.84c0-2.05-.46-3.54-1.38-4.46-.92-.92-2.09-1.38-3.5-1.38-.99,0-1.89.23-2.7.68-.81.45-1.47,1.11-1.96,1.98-.49.87-.74,1.94-.74,3.22v10.8h-3.24Z"/>
        <path class="cls-2" d="m412.71,29.8c-1.97,0-3.83-.35-5.56-1.04s-3.25-1.67-4.56-2.94c-1.31-1.27-2.32-2.77-3.04-4.52s-1.08-3.67-1.08-5.78v-.64c0-2.11.36-4.03,1.08-5.78.72-1.75,1.73-3.25,3.04-4.52s2.83-2.25,4.56-2.94c1.73-.69,3.59-1.04,5.56-1.04,1.73,0,3.34.26,4.82.78,1.48.52,2.81,1.26,3.98,2.22l-2.16,2.56c-1.84-1.49-4.05-2.24-6.64-2.24-1.52,0-2.93.27-4.24.8-1.31.53-2.45,1.29-3.44,2.26-.99.97-1.75,2.13-2.28,3.46-.53,1.33-.8,2.81-.8,4.44v.64c0,1.63.27,3.11.8,4.44.53,1.33,1.29,2.49,2.28,3.46.99.97,2.13,1.73,3.44,2.26s2.72.8,4.24.8c2.64,0,4.88-.79,6.72-2.36l2.16,2.6c-1.15.96-2.48,1.71-4,2.26-1.52.55-3.15.82-4.88.82Z"/>
        <path class="cls-2" d="m433.07,29.6c-1.84,0-3.48-.42-4.92-1.26-1.44-.84-2.57-2.01-3.4-3.5-.83-1.49-1.24-3.21-1.24-5.16v-.36c0-1.92.41-3.61,1.24-5.08.83-1.47,1.96-2.61,3.4-3.44,1.44-.83,3.08-1.24,4.92-1.24s3.48.41,4.92,1.24c1.44.83,2.57,1.97,3.4,3.42.83,1.45,1.24,3.13,1.24,5.02v.44c0,1.95-.41,3.67-1.24,5.16-.83,1.49-1.96,2.66-3.4,3.5-1.44.84-3.08,1.26-4.92,1.26Zm0-2.88c1.25,0,2.36-.3,3.32-.9.96-.6,1.71-1.43,2.24-2.48.53-1.05.8-2.27.8-3.66v-.44c0-1.33-.27-2.51-.8-3.52-.53-1.01-1.28-1.81-2.24-2.4-.96-.59-2.07-.88-3.32-.88s-2.32.29-3.28.88c-.96.59-1.71,1.4-2.26,2.44-.55,1.04-.82,2.23-.82,3.56v.36c0,1.39.27,2.61.82,3.66.55,1.05,1.3,1.88,2.26,2.48.96.6,2.05.9,3.28.9Z"/>
        <path class="cls-2" d="m452.51,29.2c-1.55,0-2.8-.45-3.76-1.34-.96-.89-1.44-2.09-1.44-3.58V1.32l1.44,1.44h-4.96V0h6.76v24.32c0,.61.2,1.12.6,1.52.4.4.91.6,1.52.6h1.84v2.76h-2Z"/>
        <path class="cls-2" d="m463.35,29.2c-1.55,0-2.8-.45-3.76-1.34-.96-.89-1.44-2.09-1.44-3.58V1.32l1.44,1.44h-4.96V0h6.76v24.32c0,.61.2,1.12.6,1.52.4.4.91.6,1.52.6h1.84v2.76h-2Z"/>
        <path class="cls-2" d="m476.91,29.6c-1.89,0-3.57-.42-5.02-1.26s-2.59-2.01-3.4-3.5c-.81-1.49-1.22-3.21-1.22-5.16v-.4c0-1.87.37-3.53,1.12-4.98.75-1.45,1.8-2.61,3.16-3.46s2.93-1.28,4.72-1.28,3.41.45,4.72,1.36c1.31.91,2.27,2.19,2.9,3.84.63,1.65.81,3.59.54,5.8h-14.84v-2.64h13.12l-1.44,1.4c.19-1.47.09-2.71-.3-3.74-.39-1.03-.98-1.82-1.78-2.38-.8-.56-1.76-.84-2.88-.84-1.23,0-2.27.29-3.14.88-.87.59-1.53,1.39-2,2.42-.47,1.03-.7,2.23-.7,3.62v.4c0,1.33.27,2.53.8,3.58.53,1.05,1.29,1.88,2.28,2.48.99.6,2.16.9,3.52.9,1.01,0,1.91-.13,2.68-.38.77-.25,1.45-.63,2.04-1.14l1.84,2c-.75.8-1.7,1.41-2.86,1.84-1.16.43-2.45.64-3.86.64Z"/>
        <path class="cls-2" d="m497.63,29.6c-1.89,0-3.58-.41-5.06-1.24-1.48-.83-2.65-1.98-3.5-3.46-.85-1.48-1.28-3.18-1.28-5.1v-.48c0-1.92.43-3.61,1.28-5.08s2.02-2.61,3.5-3.44c1.48-.83,3.17-1.24,5.06-1.24,1.41,0,2.7.25,3.86.76,1.16.51,2.14,1.24,2.94,2.2l-2,2c-.61-.64-1.32-1.13-2.12-1.46-.8-.33-1.69-.5-2.68-.5-1.25,0-2.39.28-3.4.84-1.01.56-1.81,1.35-2.38,2.36-.57,1.01-.86,2.2-.86,3.56v.48c0,1.36.29,2.55.88,3.56.59,1.01,1.38,1.81,2.38,2.38,1,.57,2.14.86,3.42.86.96,0,1.85-.15,2.66-.46.81-.31,1.54-.79,2.18-1.46l1.96,1.96c-.77.93-1.75,1.66-2.94,2.18-1.19.52-2.49.78-3.9.78Z"/>
        <path class="cls-2" d="m506.35,12.76v-2.8h11.76v2.8h-11.76Zm8.8,16.44c-.64,0-1.28-.09-1.92-.28-.64-.19-1.21-.48-1.72-.88-.51-.4-.91-.93-1.2-1.58-.29-.65-.44-1.45-.44-2.38V5.2h3.2v19.08c0,.61.21,1.13.62,1.54.41.41.91.62,1.5.62h2.92v2.76h-2.96Z"/>
        <path class="cls-2" d="m523.95,29.2V11.32l1.44,1.44h-5.16v-2.8h6.96v19.24h-3.24Zm-.12-23.48V1.08h3.52v4.64h-3.52Z"/>
        <path class="cls-2" d="m541.47,29.6c-1.84,0-3.48-.42-4.92-1.26-1.44-.84-2.57-2.01-3.4-3.5-.83-1.49-1.24-3.21-1.24-5.16v-.36c0-1.92.41-3.61,1.24-5.08.83-1.47,1.96-2.61,3.4-3.44,1.44-.83,3.08-1.24,4.92-1.24s3.48.41,4.92,1.24c1.44.83,2.57,1.97,3.4,3.42.83,1.45,1.24,3.13,1.24,5.02v.44c0,1.95-.41,3.67-1.24,5.16-.83,1.49-1.96,2.66-3.4,3.5-1.44.84-3.08,1.26-4.92,1.26Zm0-2.88c1.25,0,2.36-.3,3.32-.9.96-.6,1.71-1.43,2.24-2.48.53-1.05.8-2.27.8-3.66v-.44c0-1.33-.27-2.51-.8-3.52-.53-1.01-1.28-1.81-2.24-2.4-.96-.59-2.07-.88-3.32-.88s-2.32.29-3.28.88c-.96.59-1.71,1.4-2.26,2.44-.55,1.04-.82,2.23-.82,3.56v.36c0,1.39.27,2.61.82,3.66.55,1.05,1.3,1.88,2.26,2.48.96.6,2.05.9,3.28.9Z"/>
        <path class="cls-2" d="m555.75,29.2V9.96h3.12v5.2h-.88c.29-1.09.71-2,1.26-2.72.55-.72,1.16-1.29,1.84-1.72s1.38-.73,2.1-.9c.72-.17,1.4-.26,2.04-.26,2.16,0,3.91.69,5.26,2.08,1.35,1.39,2.02,3.47,2.02,6.24v11.32h-3.24v-10.84c0-2.05-.46-3.54-1.38-4.46-.92-.92-2.09-1.38-3.5-1.38-.99,0-1.89.23-2.7.68-.81.45-1.47,1.11-1.96,1.98-.49.87-.74,1.94-.74,3.22v10.8h-3.24Z"/>
      </g>
    </g>
  </g>
</svg>