<?xml version="1.0" encoding="UTF-8"?>
<svg id="Layer_2" data-name="Layer 2" xmlns="http://www.w3.org/2000/svg" viewBox="0 0 301.4 122.03">
  <defs>
    <style>
      .cls-1 {
        fill: #30ba78;
      }

      .cls-1, .cls-2 {
        stroke-width: 0px;
      }

      .cls-2 {
        fill: #efefef;
      }
    </style>
  </defs>
  <g id="Layer_1-2" data-name="Layer 1">
    <g>
      <g>
        <path class="cls-2" d="m9.4,81.99c-2.08,0-3.89-.39-5.44-1.16-1.55-.77-2.87-1.8-3.96-3.08l3.04-3.04c1.09,1.12,2.16,1.92,3.2,2.4,1.04.48,2.15.72,3.32.72,1.57,0,2.81-.37,3.7-1.1.89-.73,1.34-1.69,1.34-2.86,0-.91-.25-1.65-.76-2.22-.51-.57-1.17-1.04-2-1.4-.83-.36-1.74-.68-2.74-.96s-1.99-.59-2.98-.94c-.99-.35-1.89-.8-2.72-1.36-.83-.56-1.49-1.29-2-2.2-.51-.91-.76-2.04-.76-3.4,0-1.76.4-3.27,1.2-4.54.8-1.27,1.94-2.25,3.42-2.94s3.19-1.04,5.14-1.04c1.81,0,3.45.32,4.9.96,1.45.64,2.65,1.49,3.58,2.56l-3.12,3.12c-.8-.83-1.63-1.45-2.48-1.86-.85-.41-1.83-.62-2.92-.62-1.47,0-2.64.35-3.52,1.06-.88.71-1.32,1.65-1.32,2.82,0,.85.25,1.55.76,2.08s1.18.95,2.02,1.26,1.76.59,2.76.84c1,.25,2.01.55,3.02.9,1.01.35,1.93.8,2.76,1.36.83.56,1.49,1.31,2,2.24.51.93.76,2.12.76,3.56,0,1.79-.43,3.34-1.28,4.66-.85,1.32-2.05,2.35-3.58,3.08-1.53.73-3.31,1.1-5.34,1.1Z"/>
        <path class="cls-2" d="m34.76,81.99c-3.28,0-5.91-.85-7.88-2.54s-2.96-4.26-2.96-7.7v-18.32h4.92v17.92c0,2.03.53,3.55,1.6,4.56,1.07,1.01,2.51,1.52,4.32,1.52s3.26-.51,4.34-1.52,1.62-2.53,1.62-4.56v-17.92h4.92v18.32c0,2.27-.45,4.16-1.36,5.68-.91,1.52-2.17,2.66-3.8,3.42-1.63.76-3.53,1.14-5.72,1.14Z"/>
        <path class="cls-2" d="m59.16,81.99c-2.08,0-3.89-.39-5.44-1.16-1.55-.77-2.87-1.8-3.96-3.08l3.04-3.04c1.09,1.12,2.16,1.92,3.2,2.4,1.04.48,2.15.72,3.32.72,1.57,0,2.81-.37,3.7-1.1.89-.73,1.34-1.69,1.34-2.86,0-.91-.25-1.65-.76-2.22-.51-.57-1.17-1.04-2-1.4-.83-.36-1.74-.68-2.74-.96s-1.99-.59-2.98-.94c-.99-.35-1.89-.8-2.72-1.36-.83-.56-1.49-1.29-2-2.2-.51-.91-.76-2.04-.76-3.4,0-1.76.4-3.27,1.2-4.54.8-1.27,1.94-2.25,3.42-2.94s3.19-1.04,5.14-1.04c1.81,0,3.45.32,4.9.96,1.45.64,2.65,1.49,3.58,2.56l-3.12,3.12c-.8-.83-1.63-1.45-2.48-1.86-.85-.41-1.83-.62-2.92-.62-1.47,0-2.64.35-3.52,1.06-.88.71-1.32,1.65-1.32,2.82,0,.85.25,1.55.76,2.08s1.18.95,2.02,1.26,1.76.59,2.76.84c1,.25,2.01.55,3.02.9,1.01.35,1.93.8,2.76,1.36.83.56,1.49,1.31,2,2.24.51.93.76,2.12.76,3.56,0,1.79-.43,3.34-1.28,4.66-.85,1.32-2.05,2.35-3.58,3.08-1.53.73-3.31,1.1-5.34,1.1Z"/>
        <path class="cls-2" d="m78.32,81.43c-1.36,0-2.47-.44-3.34-1.32-.87-.88-1.3-2-1.3-3.36v-18.64c0-1.36.43-2.48,1.3-3.36s1.98-1.32,3.34-1.32h13.64v4.48h-12c-.4,0-.74.14-1.02.42-.28.28-.42.62-.42,1.02v16.16c0,.4.14.74.42,1.02.28.28.62.42,1.02.42h12v4.48h-13.64Zm-2.28-11.92v-4.28h15.08v4.28h-15.08Z"/>
        <path class="cls-2" d="m103.4,81.43l10.84-28h3.16l10.88,28h-2.76l-9.92-25.92h.52l-10,25.92h-2.72Zm4.36-8l.92-2.32h14.36l.92,2.32h-16.2Z"/>
        <path class="cls-2" d="m131.96,89.43v-27.12h2.4v5.28l-.44-.52c.67-1.57,1.67-2.83,3.02-3.76,1.35-.93,2.89-1.4,4.62-1.4s3.27.41,4.62,1.24c1.35.83,2.41,1.97,3.18,3.42s1.16,3.13,1.16,5.02v.36c0,1.95-.38,3.66-1.14,5.14-.76,1.48-1.81,2.64-3.16,3.48-1.35.84-2.9,1.26-4.66,1.26s-3.22-.45-4.54-1.36c-1.32-.91-2.31-2.12-2.98-3.64l.48-.56v13.16h-2.56Zm9.28-9.88c1.31,0,2.47-.32,3.48-.96s1.81-1.53,2.38-2.66c.57-1.13.86-2.46.86-3.98v-.36c0-1.47-.29-2.75-.86-3.86-.57-1.11-1.37-1.97-2.38-2.6-1.01-.63-2.17-.94-3.48-.94s-2.48.33-3.52.98-1.86,1.55-2.46,2.7-.9,2.48-.9,4,.3,2.86.9,4.02,1.42,2.06,2.46,2.7,2.21.96,3.52.96Z"/>
        <path class="cls-2" d="m155.52,89.43v-27.12h2.4v5.28l-.44-.52c.67-1.57,1.67-2.83,3.02-3.76,1.35-.93,2.89-1.4,4.62-1.4s3.27.41,4.62,1.24c1.35.83,2.41,1.97,3.18,3.42s1.16,3.13,1.16,5.02v.36c0,1.95-.38,3.66-1.14,5.14-.76,1.48-1.81,2.64-3.16,3.48-1.35.84-2.9,1.26-4.66,1.26s-3.22-.45-4.54-1.36c-1.32-.91-2.31-2.12-2.98-3.64l.48-.56v13.16h-2.56Zm9.28-9.88c1.31,0,2.47-.32,3.48-.96s1.81-1.53,2.38-2.66c.57-1.13.86-2.46.86-3.98v-.36c0-1.47-.29-2.75-.86-3.86-.57-1.11-1.37-1.97-2.38-2.6-1.01-.63-2.17-.94-3.48-.94s-2.48.33-3.52.98-1.86,1.55-2.46,2.7-.9,2.48-.9,4,.3,2.86.9,4.02,1.42,2.06,2.46,2.7,2.21.96,3.52.96Z"/>
        <path class="cls-2" d="m183.92,81.43c-1.44,0-2.61-.43-3.52-1.28-.91-.85-1.36-1.99-1.36-3.4v-23.44l1.12,1.12h-4.8v-2.2h6.24v24.56c0,.69.23,1.27.68,1.74.45.47,1.04.7,1.76.7h1.72v2.2h-1.84Z"/>
        <path class="cls-2" d="m190.76,81.43v-18l1.16,1.12h-4.96v-2.24h6.36v19.12h-2.56Zm-.08-23.52v-4.32h2.72v4.32h-2.72Z"/>
        <path class="cls-2" d="m208.04,81.83c-1.89,0-3.57-.41-5.02-1.24-1.45-.83-2.6-1.97-3.44-3.44-.84-1.47-1.26-3.15-1.26-5.04v-.52c0-1.89.42-3.57,1.26-5.02.84-1.45,1.99-2.59,3.44-3.42,1.45-.83,3.13-1.24,5.02-1.24,1.39,0,2.64.24,3.76.72,1.12.48,2.08,1.17,2.88,2.08l-1.6,1.6c-.64-.64-1.38-1.14-2.22-1.5-.84-.36-1.79-.54-2.86-.54-1.36,0-2.59.31-3.68.92-1.09.61-1.95,1.47-2.56,2.58-.61,1.11-.92,2.38-.92,3.82v.52c0,1.47.31,2.75.94,3.84.63,1.09,1.48,1.95,2.56,2.58s2.31.94,3.7.94c1.04,0,1.99-.17,2.84-.5.85-.33,1.61-.85,2.28-1.54l1.56,1.6c-.8.88-1.77,1.57-2.9,2.06-1.13.49-2.39.74-3.78.74Z"/>
        <path class="cls-2" d="m224.96,81.83c-2.24,0-4.02-.51-5.34-1.54s-1.98-2.38-1.98-4.06c0-1.09.29-2.07.88-2.94.59-.87,1.45-1.55,2.6-2.06,1.15-.51,2.52-.76,4.12-.76,2.21,0,3.93.49,5.14,1.48,1.21.99,1.82,2.29,1.82,3.92h-.48c0,1.87-.56,3.33-1.68,4.38-1.12,1.05-2.81,1.58-5.08,1.58Zm5.88-.4l-.04-6.96-.28-.76v-4.68c0-1.65-.41-2.87-1.24-3.64-.83-.77-2.03-1.16-3.6-1.16-1.04,0-2.11.2-3.22.6-1.11.4-2.07,1.01-2.9,1.84l-1.24-1.8c.91-.99,2.02-1.73,3.34-2.22,1.32-.49,2.69-.74,4.1-.74s2.71.26,3.8.78c1.09.52,1.95,1.3,2.56,2.34.61,1.04.92,2.36.92,3.96v6.08c0,1.07,0,2.13.02,3.18.01,1.05.05,2.11.1,3.18h-2.32Zm-5.4-1.56c1.6,0,2.85-.34,3.74-1.02.89-.68,1.34-1.57,1.34-2.66s-.45-2.01-1.34-2.66-2.15-.98-3.78-.98-2.87.33-3.8.98-1.4,1.54-1.4,2.66.47,1.98,1.4,2.66c.93.68,2.21,1.02,3.84,1.02Z"/>
        <path class="cls-2" d="m236.48,64.55v-2.24h11.4v2.24h-11.4Zm8.56,16.88c-.64,0-1.26-.09-1.86-.28s-1.13-.48-1.6-.88c-.47-.4-.83-.9-1.1-1.5-.27-.6-.4-1.33-.4-2.18v-19.04h2.52v19.2c0,.72.24,1.31.72,1.78.48.47,1.05.7,1.72.7h2.84v2.2h-2.84Z"/>
        <path class="cls-2" d="m253.8,81.43v-18l1.16,1.12h-4.96v-2.24h6.36v19.12h-2.56Zm-.08-23.52v-4.32h2.72v4.32h-2.72Z"/>
        <path class="cls-2" d="m270.72,81.83c-1.81,0-3.43-.42-4.84-1.26-1.41-.84-2.52-2-3.32-3.48-.8-1.48-1.2-3.19-1.2-5.14v-.36c0-1.89.4-3.57,1.2-5.02s1.91-2.59,3.32-3.42c1.41-.83,3.03-1.24,4.84-1.24s3.39.41,4.8,1.22c1.41.81,2.52,1.95,3.32,3.4.8,1.45,1.2,3.11,1.2,4.98v.44c0,1.95-.4,3.66-1.2,5.14-.8,1.48-1.91,2.64-3.32,3.48-1.41.84-3.01,1.26-4.8,1.26Zm0-2.28c1.33,0,2.51-.33,3.54-.98,1.03-.65,1.83-1.55,2.4-2.68.57-1.13.86-2.45.86-3.94v-.44c0-1.44-.29-2.71-.86-3.8-.57-1.09-1.37-1.95-2.4-2.58-1.03-.63-2.21-.94-3.54-.94s-2.51.32-3.54.96c-1.03.64-1.83,1.51-2.42,2.62-.59,1.11-.88,2.38-.88,3.82v.36c0,1.49.29,2.81.88,3.94.59,1.13,1.39,2.03,2.42,2.68,1.03.65,2.21.98,3.54.98Z"/>
        <path class="cls-2" d="m285.04,81.43v-19.12h2.44v5.12h-.68c.29-1.07.71-1.95,1.26-2.66.55-.71,1.17-1.27,1.86-1.7s1.4-.73,2.12-.9c.72-.17,1.4-.26,2.04-.26,2.16,0,3.92.69,5.28,2.06,1.36,1.37,2.04,3.47,2.04,6.3v11.16h-2.56v-10.84c0-2.24-.51-3.85-1.52-4.84-1.01-.99-2.29-1.48-3.84-1.48-1.07,0-2.04.24-2.92.72-.88.48-1.59,1.19-2.14,2.12-.55.93-.82,2.11-.82,3.52v10.8h-2.56Z"/>
        <path class="cls-2" d="m14.96,122.03c-1.97,0-3.82-.35-5.54-1.04-1.72-.69-3.23-1.67-4.52-2.94-1.29-1.27-2.3-2.77-3.02-4.5s-1.08-3.65-1.08-5.76v-.72c0-2.11.36-4.03,1.08-5.76.72-1.73,1.73-3.23,3.02-4.5,1.29-1.27,2.8-2.25,4.52-2.94s3.57-1.04,5.54-1.04c1.68,0,3.25.25,4.7.74,1.45.49,2.74,1.18,3.86,2.06l-1.64,2.04c-1.92-1.49-4.23-2.24-6.92-2.24-1.6,0-3.09.28-4.48.84-1.39.56-2.61,1.36-3.66,2.4s-1.87,2.27-2.44,3.68c-.57,1.41-.86,2.99-.86,4.72v.72c0,1.73.29,3.31.86,4.72.57,1.41,1.39,2.64,2.44,3.68,1.05,1.04,2.27,1.84,3.66,2.4,1.39.56,2.88.84,4.48.84,2.75,0,5.07-.77,6.96-2.32l1.68,2.04c-1.12.91-2.42,1.61-3.9,2.12-1.48.51-3.06.76-4.74.76Z"/>
        <path class="cls-2" d="m35.12,121.83c-1.81,0-3.43-.42-4.84-1.26-1.41-.84-2.52-2-3.32-3.48-.8-1.48-1.2-3.19-1.2-5.14v-.36c0-1.89.4-3.57,1.2-5.02s1.91-2.59,3.32-3.42c1.41-.83,3.03-1.24,4.84-1.24s3.39.41,4.8,1.22c1.41.81,2.52,1.95,3.32,3.4.8,1.45,1.2,3.11,1.2,4.98v.44c0,1.95-.4,3.66-1.2,5.14-.8,1.48-1.91,2.64-3.32,3.48-1.41.84-3.01,1.26-4.8,1.26Zm0-2.28c1.33,0,2.51-.33,3.54-.98,1.03-.65,1.83-1.55,2.4-2.68.57-1.13.86-2.45.86-3.94v-.44c0-1.44-.29-2.71-.86-3.8-.57-1.09-1.37-1.95-2.4-2.58-1.03-.63-2.21-.94-3.54-.94s-2.51.32-3.54.96c-1.03.64-1.83,1.51-2.42,2.62-.59,1.11-.88,2.38-.88,3.82v.36c0,1.49.29,2.81.88,3.94.59,1.13,1.39,2.03,2.42,2.68,1.03.65,2.21.98,3.54.98Z"/>
        <path class="cls-2" d="m54.28,121.43c-1.44,0-2.61-.43-3.52-1.28-.91-.85-1.36-1.99-1.36-3.4v-23.44l1.12,1.12h-4.8v-2.2h6.24v24.56c0,.69.23,1.27.68,1.74.45.47,1.04.7,1.76.7h1.72v2.2h-1.84Z"/>
        <path class="cls-2" d="m64.76,121.43c-1.44,0-2.61-.43-3.52-1.28-.91-.85-1.36-1.99-1.36-3.4v-23.44l1.12,1.12h-4.8v-2.2h6.24v24.56c0,.69.23,1.27.68,1.74.45.47,1.04.7,1.76.7h1.72v2.2h-1.84Z"/>
        <path class="cls-2" d="m78.12,121.83c-1.87,0-3.52-.42-4.96-1.26-1.44-.84-2.56-2-3.36-3.48-.8-1.48-1.2-3.19-1.2-5.14v-.4c0-1.87.37-3.52,1.1-4.96.73-1.44,1.77-2.58,3.12-3.42s2.89-1.26,4.62-1.26,3.32.44,4.6,1.32c1.28.88,2.23,2.12,2.84,3.72.61,1.6.79,3.47.52,5.6h-14.96v-2.12h13.6l-1.12,1.12c.19-1.52.07-2.83-.36-3.94s-1.08-1.96-1.96-2.56c-.88-.6-1.92-.9-3.12-.9-1.31,0-2.43.31-3.38.94-.95.63-1.68,1.49-2.2,2.6-.52,1.11-.78,2.39-.78,3.86v.4c0,1.47.29,2.77.88,3.9.59,1.13,1.41,2.02,2.48,2.66,1.07.64,2.32.96,3.76.96,1.01,0,1.94-.13,2.78-.4s1.55-.65,2.14-1.16l1.44,1.64c-.72.72-1.64,1.28-2.76,1.68-1.12.4-2.36.6-3.72.6Z"/>
        <path class="cls-2" d="m98.72,121.83c-1.89,0-3.57-.41-5.02-1.24-1.45-.83-2.6-1.97-3.44-3.44-.84-1.47-1.26-3.15-1.26-5.04v-.52c0-1.89.42-3.57,1.26-5.02.84-1.45,1.99-2.59,3.44-3.42,1.45-.83,3.13-1.24,5.02-1.24,1.39,0,2.64.24,3.76.72,1.12.48,2.08,1.17,2.88,2.08l-1.6,1.6c-.64-.64-1.38-1.14-2.22-1.5-.84-.36-1.79-.54-2.86-.54-1.36,0-2.59.31-3.68.92-1.09.61-1.95,1.47-2.56,2.58-.61,1.11-.92,2.38-.92,3.82v.52c0,1.47.31,2.75.94,3.84.63,1.09,1.48,1.95,2.56,2.58s2.31.94,3.7.94c1.04,0,1.99-.17,2.84-.5.85-.33,1.61-.85,2.28-1.54l1.56,1.6c-.8.88-1.77,1.57-2.9,2.06-1.13.49-2.39.74-3.78.74Z"/>
        <path class="cls-2" d="m107.4,104.55v-2.24h11.4v2.24h-11.4Zm8.56,16.88c-.64,0-1.26-.09-1.86-.28s-1.13-.48-1.6-.88c-.47-.4-.83-.9-1.1-1.5-.27-.6-.4-1.33-.4-2.18v-19.04h2.52v19.2c0,.72.24,1.31.72,1.78.48.47,1.05.7,1.72.7h2.84v2.2h-2.84Z"/>
        <path class="cls-2" d="m124.72,121.43v-18l1.16,1.12h-4.96v-2.24h6.36v19.12h-2.56Zm-.08-23.52v-4.32h2.72v4.32h-2.72Z"/>
        <path class="cls-2" d="m141.64,121.83c-1.81,0-3.43-.42-4.84-1.26-1.41-.84-2.52-2-3.32-3.48-.8-1.48-1.2-3.19-1.2-5.14v-.36c0-1.89.4-3.57,1.2-5.02s1.91-2.59,3.32-3.42c1.41-.83,3.03-1.24,4.84-1.24s3.39.41,4.8,1.22c1.41.81,2.52,1.95,3.32,3.4.8,1.45,1.2,3.11,1.2,4.98v.44c0,1.95-.4,3.66-1.2,5.14-.8,1.48-1.91,2.64-3.32,3.48-1.41.84-3.01,1.26-4.8,1.26Zm0-2.28c1.33,0,2.51-.33,3.54-.98,1.03-.65,1.83-1.55,2.4-2.68.57-1.13.86-2.45.86-3.94v-.44c0-1.44-.29-2.71-.86-3.8-.57-1.09-1.37-1.95-2.4-2.58-1.03-.63-2.21-.94-3.54-.94s-2.51.32-3.54.96c-1.03.64-1.83,1.51-2.42,2.62-.59,1.11-.88,2.38-.88,3.82v.36c0,1.49.29,2.81.88,3.94.59,1.13,1.39,2.03,2.42,2.68,1.03.65,2.21.98,3.54.98Z"/>
        <path class="cls-2" d="m155.96,121.43v-19.12h2.44v5.12h-.68c.29-1.07.71-1.95,1.26-2.66.55-.71,1.17-1.27,1.86-1.7s1.4-.73,2.12-.9c.72-.17,1.4-.26,2.04-.26,2.16,0,3.92.69,5.28,2.06,1.36,1.37,2.04,3.47,2.04,6.3v11.16h-2.56v-10.84c0-2.24-.51-3.85-1.52-4.84-1.01-.99-2.29-1.48-3.84-1.48-1.07,0-2.04.24-2.92.72-.88.48-1.59,1.19-2.14,2.12-.55.93-.82,2.11-.82,3.52v10.8h-2.56Z"/>
      </g>
      <g id="Layer_1-3" data-name="Layer 1">
        <path class="cls-1" d="m87.7,14.07c-.58-.6-1.53-.6-2.11,0-.65.65-.57,1.77.23,2.31.49.33,1.15.33,1.64,0,.81-.54.89-1.66.23-2.31m-1.93-5.08c-3.99-.94-7.58,2.65-6.64,6.65.47,2.03,2.09,3.65,4.12,4.12,3.99.94,7.58-2.65,6.65-6.65-.48-2.03-2.09-3.65-4.13-4.12m-26.37,22.49c-2.6-.96-3.61-.77-6.94-.72-2.31.03-2.39-.05-5.02-.05-.81,0-1.11,3.9,1.83,4.71,1.29.36,2.68.58,3.65,1.57.43.44.67,1.1-.32,1.1h-7.3c-1.28,0-2.49.03-3.46-.8-1.48-1.25-2.16-2.96-2.9-4.66-.77-1.77-1.59-3.51-2.56-5.18-1.93-3.32-4.48-6.32-7.9-8.15-4.27-2.29-11.52-3.43-17.26.98-6.05,4.65-4.75,13.35.54,17.61,2.09,1.68,4.81,2.39,7.49,2.23,5.23-.31,9.09-4.16,8.13-8.91-.32-1.59-1.25-3.09-2.64-3.91-.99-.58-2.17-.79-3.32-.79-1.24,0-2.55.25-3.44,1.11-1.05,1.02-1.22,2.81-.38,4.02.47.66,1.22,1.22,1.09,2.09-.09.59-.57,1.02-1.15,1.15-.98.22-1.88-.34-2.54-1.02-1.7-1.75-2.24-4.54-1.3-6.8,1.22-2.95,4.63-4.58,7.82-4.47,4.12.14,8,2.86,9.69,6.62,1.69,3.76,1.18,8.38-1.14,11.78-5.17,7.56-17.95,6.67-23.89.29-3.72-4-5.75-7.88-5.46-15.11.2-5.11,3.15-10.14,6.9-13.68C13.73,6.69,21.79,2.75,30,1.04,34.98.01,40.12-.23,45.18.28c4.46.44,8.9,1.26,13.18,2.59,2.13.66,4.22,1.45,6.25,2.38,1.79.82,4.13,1.71,5.52,3.13,0-2.56-.1-5.38-.1-7.34,0-.75.79-1.26,1.46-.94,2.9,1.35,9.77,4.59,14.36,6.69,6.14,2.81,6.58,9.43,6.79,15.3,0,.13.01.27-.05.38-.19.4-1.23.29-1.61.3-.73,0-1.84,0-2.58.03-1.47.07-2.9.04-4.36-.03-2.71-.13-5.33-1.34-7.09-2.81-.17-.15-.74-.31-1.01-.03-.28.29-.18.73-.03.89,1.01,1.02,2.1,1.67,3.37,2.33,1.61.83,3.37,1.04,5.16,1.14,1.91.11,3.83.09,5.74-.11,1.59-.16,2-.27.43.9-1.38,1.02-2.98,1.76-4.6,2.31-2.33.79-4.79,1.18-7.24,1.25-1.49.04-2.98-.04-4.45-.23-.76-.09-1.52-.23-2.29-.31-.62-.06-1.27-.18-1.89-.05-.56.12-1.08.43-1.44.89-.49.63-.65,2.37-.37,3.13.54,1.46,1.73,2.31,2.99,3.06,1.36.81,3.16,1.09,3.5,2.64.07.32-2.82.33-3.15.32h-3.85s-2.1.05-2.91-.25c-.03,0-.05-.02-.07-.03-.44-.24-.64-.83-.79-1.28-.22-.63-.59-1.27-1.05-1.93-.87-1.24-2.21-2.6-3.6-3.12m29.19-17.11c0,2.26-1.83,4.09-4.09,4.09s-4.09-1.83-4.09-4.09,1.83-4.09,4.09-4.09,4.09,1.83,4.09,4.09"/>
      </g>
    </g>
  </g>
</svg>