<?xml version="1.0" encoding="UTF-8"?>
<svg id="Layer_1" data-name="Layer 1" xmlns="http://www.w3.org/2000/svg" viewBox="0 0 349.19 82.4">
  <g id="Layer_1-2" data-name="Layer 1">
    <path d="M66.12,17.95c-.38.25-.88.25-1.25,0-.62-.41-.68-1.26-.18-1.76.44-.46,1.17-.46,1.61,0,.49.49.44,1.35-.18,1.76M67.91,15.46c.72,3.04-2.02,5.78-5.06,5.06-1.55-.36-2.78-1.59-3.14-3.14-.71-3.04,2.02-5.77,5.06-5.06,1.55.36,2.78,1.59,3.14,3.14M47.44,31.82c.35.5.64.98.8,1.46.11.34.26.79.6.98.02.01.04.02.06.03.62.23,2.21.19,2.21.19h2.93c.25,0,2.45,0,2.4-.25-.26-1.18-1.63-1.39-2.67-2.01-.96-.57-1.86-1.22-2.28-2.33-.21-.57-.09-1.9.28-2.38.27-.35.67-.58,1.09-.67.47-.1.96-.01,1.44.03.58.06,1.16.16,1.74.24,1.12.15,2.26.2,3.39.17,1.87-.05,3.74-.35,5.51-.95,1.24-.41,2.45-.98,3.5-1.76,1.19-.89.88-.8-.33-.68-1.45.15-2.91.17-4.37.08-1.36-.08-2.7-.24-3.92-.87-.97-.5-1.8-1-2.56-1.77-.11-.12-.19-.46.02-.68.2-.21.64-.09.77.02,1.34,1.12,3.33,2.04,5.4,2.14,1.12.06,2.2.08,3.32.03.56-.03,1.4-.02,1.96-.03.29,0,1.08.08,1.22-.23.05-.09.04-.19.04-.29-.16-4.47-.49-9.51-5.17-11.64-3.49-1.6-8.72-4.07-10.93-5.09-.51-.24-1.11.14-1.11.71,0,1.49.08,3.64.08,5.59-1.06-1.08-2.84-1.76-4.2-2.38-1.54-.71-3.13-1.31-4.75-1.81-3.26-1.01-6.64-1.63-10.03-1.97-3.85-.38-7.77-.2-11.56.58-6.25,1.29-12.38,4.3-17.04,8.69C2.42,17.67.17,21.5.02,25.38c-.22,5.5,1.33,8.46,4.16,11.5,4.52,4.85,14.24,5.53,18.18-.22,1.77-2.59,2.16-6.1.87-8.97-1.29-2.86-4.24-4.93-7.38-5.04-2.43-.08-5.02,1.16-5.95,3.41-.71,1.72-.31,3.84.99,5.17.5.52,1.19.95,1.94.78.44-.1.81-.43.87-.88.1-.66-.48-1.09-.83-1.59-.64-.91-.51-2.28.29-3.06.68-.65,1.68-.85,2.62-.85.88,0,1.77.16,2.53.6,1.06.62,1.77,1.77,2.01,2.98.73,3.61-2.21,6.55-6.19,6.78-2.04.12-4.11-.41-5.7-1.69-4.03-3.24-5.01-9.87-.41-13.4,4.37-3.36,9.89-2.49,13.14-.75,2.6,1.4,4.55,3.68,6.01,6.2.74,1.27,1.37,2.6,1.95,3.94.56,1.3,1.09,2.6,2.21,3.55.74.63,1.66.61,2.64.61h5.56c.75,0,.57-.5.24-.84-.74-.75-1.8-.92-2.78-1.19-2.24-.62-2.01-3.58-1.39-3.58,2,0,2.07.06,3.82.04,2.53-.04,3.3-.18,5.28.55,1.06.39,2.08,1.43,2.74,2.37"/>
  </g>
  <g>
    <path d="M88.15,34.56c-2.08,0-3.89-.39-5.44-1.16-1.55-.77-2.87-1.8-3.96-3.08l3.04-3.04c1.09,1.12,2.16,1.92,3.2,2.4,1.04.48,2.15.72,3.32.72,1.57,0,2.81-.37,3.7-1.1.89-.73,1.34-1.69,1.34-2.86,0-.91-.25-1.65-.76-2.22-.51-.57-1.17-1.04-2-1.4-.83-.36-1.74-.68-2.74-.96-1-.28-1.99-.59-2.98-.94-.99-.35-1.89-.8-2.72-1.36-.83-.56-1.49-1.29-2-2.2-.51-.91-.76-2.04-.76-3.4,0-1.76.4-3.27,1.2-4.54.8-1.27,1.94-2.25,3.42-2.94,1.48-.69,3.19-1.04,5.14-1.04,1.81,0,3.45.32,4.9.96,1.45.64,2.65,1.49,3.58,2.56l-3.12,3.12c-.8-.83-1.63-1.45-2.48-1.86-.85-.41-1.83-.62-2.92-.62-1.47,0-2.64.35-3.52,1.06-.88.71-1.32,1.65-1.32,2.82,0,.85.25,1.55.76,2.08.51.53,1.18.95,2.02,1.26.84.31,1.76.59,2.76.84,1,.25,2.01.55,3.02.9,1.01.35,1.93.8,2.76,1.36.83.56,1.49,1.31,2,2.24.51.93.76,2.12.76,3.56,0,1.79-.43,3.34-1.28,4.66-.85,1.32-2.05,2.35-3.58,3.08-1.53.73-3.31,1.1-5.34,1.1Z"/>
    <path d="M113.51,34.56c-3.28,0-5.91-.85-7.88-2.54-1.97-1.69-2.96-4.26-2.96-7.7V6h4.92v17.92c0,2.03.53,3.55,1.6,4.56,1.07,1.01,2.51,1.52,4.32,1.52s3.26-.51,4.34-1.52c1.08-1.01,1.62-2.53,1.62-4.56V6h4.92v18.32c0,2.27-.45,4.16-1.36,5.68-.91,1.52-2.17,2.66-3.8,3.42-1.63.76-3.53,1.14-5.72,1.14Z"/>
    <path d="M137.91,34.56c-2.08,0-3.89-.39-5.44-1.16-1.55-.77-2.87-1.8-3.96-3.08l3.04-3.04c1.09,1.12,2.16,1.92,3.2,2.4,1.04.48,2.15.72,3.32.72,1.57,0,2.81-.37,3.7-1.1.89-.73,1.34-1.69,1.34-2.86,0-.91-.25-1.65-.76-2.22-.51-.57-1.17-1.04-2-1.4-.83-.36-1.74-.68-2.74-.96-1-.28-1.99-.59-2.98-.94-.99-.35-1.89-.8-2.72-1.36-.83-.56-1.49-1.29-2-2.2-.51-.91-.76-2.04-.76-3.4,0-1.76.4-3.27,1.2-4.54.8-1.27,1.94-2.25,3.42-2.94,1.48-.69,3.19-1.04,5.14-1.04,1.81,0,3.45.32,4.9.96,1.45.64,2.65,1.49,3.58,2.56l-3.12,3.12c-.8-.83-1.63-1.45-2.48-1.86-.85-.41-1.83-.62-2.92-.62-1.47,0-2.64.35-3.52,1.06-.88.71-1.32,1.65-1.32,2.82,0,.85.25,1.55.76,2.08.51.53,1.18.95,2.02,1.26.84.31,1.76.59,2.76.84,1,.25,2.01.55,3.02.9,1.01.35,1.93.8,2.76,1.36.83.56,1.49,1.31,2,2.24.51.93.76,2.12.76,3.56,0,1.79-.43,3.34-1.28,4.66-.85,1.32-2.05,2.35-3.58,3.08-1.53.73-3.31,1.1-5.34,1.1Z"/>
    <path d="M157.07,34c-1.36,0-2.47-.44-3.34-1.32-.87-.88-1.3-2-1.3-3.36V10.68c0-1.36.43-2.48,1.3-3.36.87-.88,1.98-1.32,3.34-1.32h13.64v4.48h-12c-.4,0-.74.14-1.02.42-.28.28-.42.62-.42,1.02v16.16c0,.4.14.74.42,1.02.28.28.62.42,1.02.42h12v4.48h-13.64ZM154.79,22.08v-4.28h15.08v4.28h-15.08Z"/>
    <path d="M192.39,34.44c-1.89,0-3.57-.34-5.02-1.02-1.45-.68-2.66-1.61-3.62-2.78l1.68-1.72c.93,1.07,1.99,1.87,3.18,2.42,1.19.55,2.49.82,3.9.82,2.03,0,3.63-.52,4.8-1.56,1.17-1.04,1.76-2.39,1.76-4.04,0-1.15-.27-2.07-.8-2.76-.53-.69-1.24-1.25-2.12-1.66-.88-.41-1.84-.77-2.88-1.06s-2.09-.6-3.14-.92c-1.05-.32-2.02-.74-2.9-1.26-.88-.52-1.59-1.21-2.12-2.06-.53-.85-.8-1.97-.8-3.36,0-1.6.38-2.99,1.14-4.18.76-1.19,1.82-2.11,3.18-2.76s2.96-.98,4.8-.98c1.6,0,3.04.25,4.32.76,1.28.51,2.33,1.23,3.16,2.16l-1.72,1.76c-.77-.8-1.63-1.4-2.58-1.8-.95-.4-2.01-.6-3.18-.6-1.95,0-3.51.5-4.7,1.5-1.19,1-1.78,2.3-1.78,3.9,0,1.09.27,1.96.82,2.6.55.64,1.25,1.15,2.12,1.52.87.37,1.83.7,2.9.98,1.07.28,2.13.58,3.18.9,1.05.32,2.02.75,2.9,1.28.88.53,1.59,1.25,2.14,2.14.55.89.82,2.07.82,3.54,0,1.68-.4,3.14-1.2,4.38-.8,1.24-1.91,2.19-3.32,2.86-1.41.67-3.05,1-4.92,1Z"/>
    <path d="M213.59,34.4c-1.41,0-2.68-.27-3.8-.82-1.12-.55-2-1.4-2.64-2.56-.64-1.16-.96-2.69-.96-4.58v-11.56h2.52v11.16c0,1.49.23,2.68.7,3.56.47.88,1.1,1.51,1.9,1.88.8.37,1.71.56,2.72.56s2-.23,2.88-.7,1.59-1.17,2.14-2.1c.55-.93.82-2.09.82-3.48v-10.88h2.48v19.12h-2.24v-5.12h.72c-.29,1.04-.71,1.91-1.24,2.62-.53.71-1.15,1.27-1.84,1.7-.69.43-1.4.73-2.12.92-.72.19-1.4.28-2.04.28Z"/>
    <path d="M228.67,42V14.88h2.4v5.28l-.44-.52c.67-1.57,1.67-2.83,3.02-3.76,1.35-.93,2.89-1.4,4.62-1.4s3.27.41,4.62,1.24c1.35.83,2.41,1.97,3.18,3.42.77,1.45,1.16,3.13,1.16,5.02v.36c0,1.95-.38,3.66-1.14,5.14-.76,1.48-1.81,2.64-3.16,3.48-1.35.84-2.9,1.26-4.66,1.26s-3.22-.45-4.54-1.36c-1.32-.91-2.31-2.12-2.98-3.64l.48-.56v13.16h-2.56ZM237.95,32.12c1.31,0,2.47-.32,3.48-.96,1.01-.64,1.81-1.53,2.38-2.66.57-1.13.86-2.46.86-3.98v-.36c0-1.47-.29-2.75-.86-3.86-.57-1.11-1.37-1.97-2.38-2.6-1.01-.63-2.17-.94-3.48-.94s-2.48.33-3.52.98-1.86,1.55-2.46,2.7c-.6,1.15-.9,2.48-.9,4s.3,2.86.9,4.02,1.42,2.06,2.46,2.7c1.04.64,2.21.96,3.52.96Z"/>
    <path d="M252.23,42V14.88h2.4v5.28l-.44-.52c.67-1.57,1.67-2.83,3.02-3.76,1.35-.93,2.89-1.4,4.62-1.4s3.27.41,4.62,1.24c1.35.83,2.41,1.97,3.18,3.42.77,1.45,1.16,3.13,1.16,5.02v.36c0,1.95-.38,3.66-1.14,5.14-.76,1.48-1.81,2.64-3.16,3.48-1.35.84-2.9,1.26-4.66,1.26s-3.22-.45-4.54-1.36c-1.32-.91-2.31-2.12-2.98-3.64l.48-.56v13.16h-2.56ZM261.51,32.12c1.31,0,2.47-.32,3.48-.96,1.01-.64,1.81-1.53,2.38-2.66.57-1.13.86-2.46.86-3.98v-.36c0-1.47-.29-2.75-.86-3.86-.57-1.11-1.37-1.97-2.38-2.6-1.01-.63-2.17-.94-3.48-.94s-2.48.33-3.52.98-1.86,1.55-2.46,2.7c-.6,1.15-.9,2.48-.9,4s.3,2.86.9,4.02,1.42,2.06,2.46,2.7c1.04.64,2.21.96,3.52.96Z"/>
    <path d="M283.83,34.4c-1.81,0-3.43-.42-4.84-1.26-1.41-.84-2.52-2-3.32-3.48-.8-1.48-1.2-3.19-1.2-5.14v-.36c0-1.89.4-3.57,1.2-5.02.8-1.45,1.91-2.59,3.32-3.42,1.41-.83,3.03-1.24,4.84-1.24s3.39.41,4.8,1.22c1.41.81,2.52,1.95,3.32,3.4.8,1.45,1.2,3.11,1.2,4.98v.44c0,1.95-.4,3.66-1.2,5.14-.8,1.48-1.91,2.64-3.32,3.48-1.41.84-3.01,1.26-4.8,1.26ZM283.83,32.12c1.33,0,2.51-.33,3.54-.98,1.03-.65,1.83-1.55,2.4-2.68.57-1.13.86-2.45.86-3.94v-.44c0-1.44-.29-2.71-.86-3.8-.57-1.09-1.37-1.95-2.4-2.58-1.03-.63-2.21-.94-3.54-.94s-2.51.32-3.54.96c-1.03.64-1.83,1.51-2.42,2.62-.59,1.11-.88,2.38-.88,3.82v.36c0,1.49.29,2.81.88,3.94.59,1.13,1.39,2.03,2.42,2.68,1.03.65,2.21.98,3.54.98Z"/>
    <path d="M298.15,34V14.88h2.48v4.56l-.4-.04c.24-1.23.63-2.17,1.18-2.82.55-.65,1.21-1.11,2-1.36.79-.25,1.65-.38,2.58-.38h1.64v2.52h-1.84c-1.57,0-2.81.4-3.72,1.2-.91.8-1.36,2.08-1.36,3.84v11.6h-2.56Z"/>
    <path d="M309.27,17.12v-2.24h11.4v2.24h-11.4ZM317.83,34c-.64,0-1.26-.09-1.86-.28s-1.13-.48-1.6-.88c-.47-.4-.83-.9-1.1-1.5s-.4-1.33-.4-2.18V10.12h2.52v19.2c0,.72.24,1.31.72,1.78.48.47,1.05.7,1.72.7h2.84v2.2h-2.84Z"/>
    <path d="M93.71,74.6c-1.97,0-3.82-.35-5.54-1.04-1.72-.69-3.23-1.67-4.52-2.94-1.29-1.27-2.3-2.77-3.02-4.5-.72-1.73-1.08-3.65-1.08-5.76v-.72c0-2.11.36-4.03,1.08-5.76.72-1.73,1.73-3.23,3.02-4.5,1.29-1.27,2.8-2.25,4.52-2.94,1.72-.69,3.57-1.04,5.54-1.04,1.68,0,3.25.25,4.7.74,1.45.49,2.74,1.18,3.86,2.06l-1.64,2.04c-1.92-1.49-4.23-2.24-6.92-2.24-1.6,0-3.09.28-4.48.84-1.39.56-2.61,1.36-3.66,2.4-1.05,1.04-1.87,2.27-2.44,3.68-.57,1.41-.86,2.99-.86,4.72v.72c0,1.73.29,3.31.86,4.72.57,1.41,1.39,2.64,2.44,3.68,1.05,1.04,2.27,1.84,3.66,2.4,1.39.56,2.88.84,4.48.84,2.75,0,5.07-.77,6.96-2.32l1.68,2.04c-1.12.91-2.42,1.61-3.9,2.12s-3.06.76-4.74.76Z"/>
    <path d="M113.95,74.4c-1.87,0-3.52-.42-4.96-1.26s-2.56-2-3.36-3.48c-.8-1.48-1.2-3.19-1.2-5.14v-.4c0-1.87.37-3.52,1.1-4.96.73-1.44,1.77-2.58,3.12-3.42,1.35-.84,2.89-1.26,4.62-1.26s3.32.44,4.6,1.32c1.28.88,2.23,2.12,2.84,3.72.61,1.6.79,3.47.52,5.6h-14.96v-2.12h13.6l-1.12,1.12c.19-1.52.07-2.83-.36-3.94-.43-1.11-1.08-1.96-1.96-2.56-.88-.6-1.92-.9-3.12-.9-1.31,0-2.43.31-3.38.94-.95.63-1.68,1.49-2.2,2.6s-.78,2.39-.78,3.86v.4c0,1.47.29,2.77.88,3.9.59,1.13,1.41,2.02,2.48,2.66,1.07.64,2.32.96,3.76.96,1.01,0,1.94-.13,2.78-.4.84-.27,1.55-.65,2.14-1.16l1.44,1.64c-.72.72-1.64,1.28-2.76,1.68s-2.36.6-3.72.6Z"/>
    <path d="M126.15,74v-19.12h2.44v5.12h-.68c.29-1.07.71-1.95,1.26-2.66.55-.71,1.17-1.27,1.86-1.7.69-.43,1.4-.73,2.12-.9.72-.17,1.4-.26,2.04-.26,2.16,0,3.92.69,5.28,2.06s2.04,3.47,2.04,6.3v11.16h-2.56v-10.84c0-2.24-.51-3.85-1.52-4.84-1.01-.99-2.29-1.48-3.84-1.48-1.07,0-2.04.24-2.92.72-.88.48-1.59,1.19-2.14,2.12-.55.93-.82,2.11-.82,3.52v10.8h-2.56Z"/>
    <path d="M145.79,57.12v-2.24h11.4v2.24h-11.4ZM154.35,74c-.64,0-1.26-.09-1.86-.28s-1.13-.48-1.6-.88c-.47-.4-.83-.9-1.1-1.5s-.4-1.33-.4-2.18v-19.04h2.52v19.2c0,.72.24,1.31.72,1.78.48.47,1.05.7,1.72.7h2.84v2.2h-2.84Z"/>
    <path d="M169.23,74.4c-1.87,0-3.52-.42-4.96-1.26s-2.56-2-3.36-3.48c-.8-1.48-1.2-3.19-1.2-5.14v-.4c0-1.87.37-3.52,1.1-4.96.73-1.44,1.77-2.58,3.12-3.42,1.35-.84,2.89-1.26,4.62-1.26s3.32.44,4.6,1.32c1.28.88,2.23,2.12,2.84,3.72.61,1.6.79,3.47.52,5.6h-14.96v-2.12h13.6l-1.12,1.12c.19-1.52.07-2.83-.36-3.94-.43-1.11-1.08-1.96-1.96-2.56-.88-.6-1.92-.9-3.12-.9-1.31,0-2.43.31-3.38.94-.95.63-1.68,1.49-2.2,2.6s-.78,2.39-.78,3.86v.4c0,1.47.29,2.77.88,3.9.59,1.13,1.41,2.02,2.48,2.66,1.07.64,2.32.96,3.76.96,1.01,0,1.94-.13,2.78-.4.84-.27,1.55-.65,2.14-1.16l1.44,1.64c-.72.72-1.64,1.28-2.76,1.68s-2.36.6-3.72.6Z"/>
    <path d="M181.43,74v-19.12h2.48v4.56l-.4-.04c.24-1.23.63-2.17,1.18-2.82.55-.65,1.21-1.11,2-1.36.79-.25,1.65-.38,2.58-.38h1.64v2.52h-1.84c-1.57,0-2.81.4-3.72,1.2-.91.8-1.36,2.08-1.36,3.84v11.6h-2.56Z"/>
  </g>
</svg>