<?xml version="1.0" encoding="UTF-8"?>
<svg id="Layer_2" data-name="Layer 2" xmlns="http://www.w3.org/2000/svg" viewBox="0 0 413.71 142.42">
  <defs>
    <style>
      .cls-1 {
        fill: #30ba78;
      }

      .cls-2 {
        fill: #f2f2f2;
      }
    </style>
  </defs>
  <g>
    <path class="cls-2" d="M120.97,49.25c-2.08,0-3.89-.39-5.44-1.16-1.55-.77-2.87-1.8-3.96-3.08l3.04-3.04c1.09,1.12,2.16,1.92,3.2,2.4,1.04.48,2.15.72,3.32.72,1.57,0,2.81-.37,3.7-1.1.89-.73,1.34-1.69,1.34-2.86,0-.91-.25-1.65-.76-2.22-.51-.57-1.17-1.04-2-1.4-.83-.36-1.74-.68-2.74-.96-1-.28-1.99-.59-2.98-.94-.99-.35-1.89-.8-2.72-1.36-.83-.56-1.49-1.29-2-2.2s-.76-2.04-.76-3.4c0-1.76.4-3.27,1.2-4.54s1.94-2.25,3.42-2.94,3.19-1.04,5.14-1.04c1.81,0,3.45.32,4.9.96,1.45.64,2.65,1.49,3.58,2.56l-3.12,3.12c-.8-.83-1.63-1.45-2.48-1.86-.85-.41-1.83-.62-2.92-.62-1.47,0-2.64.35-3.52,1.06-.88.71-1.32,1.65-1.32,2.82,0,.85.25,1.55.76,2.08.51.53,1.18.95,2.02,1.26s1.76.59,2.76.84c1,.25,2.01.55,3.02.9,1.01.35,1.93.8,2.76,1.36.83.56,1.49,1.31,2,2.24.51.93.76,2.12.76,3.56,0,1.79-.43,3.34-1.28,4.66s-2.05,2.35-3.58,3.08c-1.53.73-3.31,1.1-5.34,1.1Z"/>
    <path class="cls-2" d="M146.33,49.25c-3.28,0-5.91-.85-7.88-2.54-1.97-1.69-2.96-4.26-2.96-7.7v-18.32h4.92v17.92c0,2.03.53,3.55,1.6,4.56,1.07,1.01,2.51,1.52,4.32,1.52s3.26-.51,4.34-1.52,1.62-2.53,1.62-4.56v-17.92h4.92v18.32c0,2.27-.45,4.16-1.36,5.68-.91,1.52-2.17,2.66-3.8,3.42-1.63.76-3.53,1.14-5.72,1.14Z"/>
    <path class="cls-2" d="M170.73,49.25c-2.08,0-3.89-.39-5.44-1.16-1.55-.77-2.87-1.8-3.96-3.08l3.04-3.04c1.09,1.12,2.16,1.92,3.2,2.4,1.04.48,2.15.72,3.32.72,1.57,0,2.81-.37,3.7-1.1.89-.73,1.34-1.69,1.34-2.86,0-.91-.25-1.65-.76-2.22-.51-.57-1.17-1.04-2-1.4-.83-.36-1.74-.68-2.74-.96-1-.28-1.99-.59-2.98-.94-.99-.35-1.89-.8-2.72-1.36-.83-.56-1.49-1.29-2-2.2s-.76-2.04-.76-3.4c0-1.76.4-3.27,1.2-4.54s1.94-2.25,3.42-2.94,3.19-1.04,5.14-1.04c1.81,0,3.45.32,4.9.96,1.45.64,2.65,1.49,3.58,2.56l-3.12,3.12c-.8-.83-1.63-1.45-2.48-1.86-.85-.41-1.83-.62-2.92-.62-1.47,0-2.64.35-3.52,1.06-.88.71-1.32,1.65-1.32,2.82,0,.85.25,1.55.76,2.08.51.53,1.18.95,2.02,1.26s1.76.59,2.76.84c1,.25,2.01.55,3.02.9,1.01.35,1.93.8,2.76,1.36.83.56,1.49,1.31,2,2.24.51.93.76,2.12.76,3.56,0,1.79-.43,3.34-1.28,4.66s-2.05,2.35-3.58,3.08c-1.53.73-3.31,1.1-5.34,1.1Z"/>
    <path class="cls-2" d="M189.89,48.69c-1.36,0-2.47-.44-3.34-1.32s-1.3-2-1.3-3.36v-18.64c0-1.36.43-2.48,1.3-3.36s1.98-1.32,3.34-1.32h13.64v4.48h-12c-.4,0-.74.14-1.02.42s-.42.62-.42,1.02v16.16c0,.4.14.74.42,1.02s.62.42,1.02.42h12v4.48h-13.64ZM187.61,36.77v-4.28h15.08v4.28h-15.08Z"/>
    <path class="cls-2" d="M224.89,49.17c-1.97,0-3.7-.35-5.18-1.06-1.48-.71-2.73-1.67-3.74-2.9l2.16-2.16c.99,1.09,2.05,1.9,3.18,2.42,1.13.52,2.37.78,3.7.78,1.87,0,3.34-.47,4.42-1.4,1.08-.93,1.62-2.15,1.62-3.64,0-1.07-.26-1.93-.78-2.58-.52-.65-1.21-1.18-2.08-1.58-.87-.4-1.81-.74-2.84-1.02-1.03-.28-2.05-.59-3.08-.92-1.03-.33-1.97-.77-2.84-1.3-.87-.53-1.56-1.23-2.08-2.1-.52-.87-.78-1.99-.78-3.38,0-1.65.39-3.09,1.16-4.3.77-1.21,1.86-2.15,3.26-2.82,1.4-.67,3.03-1,4.9-1,1.68,0,3.19.27,4.52.82,1.33.55,2.44,1.31,3.32,2.3l-2.2,2.2c-.77-.8-1.62-1.4-2.54-1.8s-1.95-.6-3.1-.6c-1.79,0-3.22.45-4.3,1.34s-1.62,2.07-1.62,3.54c0,1.01.27,1.82.8,2.42.53.6,1.23,1.08,2.08,1.44.85.36,1.8.67,2.84.94s2.08.57,3.12.9c1.04.33,1.99.77,2.86,1.3s1.57,1.25,2.1,2.16c.53.91.8,2.09.8,3.56,0,1.71-.41,3.19-1.22,4.46-.81,1.27-1.95,2.25-3.4,2.94-1.45.69-3.14,1.04-5.06,1.04Z"/>
    <path class="cls-2" d="M247.37,49.09c-1.84,0-3.48-.42-4.92-1.26-1.44-.84-2.57-2.01-3.4-3.5-.83-1.49-1.24-3.21-1.24-5.16v-.36c0-1.92.41-3.61,1.24-5.08.83-1.47,1.96-2.61,3.4-3.44,1.44-.83,3.08-1.24,4.92-1.24s3.48.41,4.92,1.24c1.44.83,2.57,1.97,3.4,3.42.83,1.45,1.24,3.13,1.24,5.02v.44c0,1.95-.41,3.67-1.24,5.16-.83,1.49-1.96,2.66-3.4,3.5-1.44.84-3.08,1.26-4.92,1.26ZM247.37,46.21c1.25,0,2.36-.3,3.32-.9.96-.6,1.71-1.43,2.24-2.48.53-1.05.8-2.27.8-3.66v-.44c0-1.33-.27-2.51-.8-3.52-.53-1.01-1.28-1.81-2.24-2.4-.96-.59-2.07-.88-3.32-.88s-2.32.29-3.28.88c-.96.59-1.71,1.4-2.26,2.44-.55,1.04-.82,2.23-.82,3.56v.36c0,1.39.27,2.61.82,3.66.55,1.05,1.3,1.88,2.26,2.48.96.6,2.05.9,3.28.9Z"/>
    <path class="cls-2" d="M266.41,48.69l-7.64-19.24h3.36l6.6,17.08h-1.24l6.6-17.08h3.36l-7.64,19.24h-3.4Z"/>
    <path class="cls-2" d="M288.93,49.09c-1.89,0-3.57-.42-5.02-1.26-1.45-.84-2.59-2.01-3.4-3.5-.81-1.49-1.22-3.21-1.22-5.16v-.4c0-1.87.37-3.53,1.12-4.98.75-1.45,1.8-2.61,3.16-3.46,1.36-.85,2.93-1.28,4.72-1.28s3.41.45,4.72,1.36c1.31.91,2.27,2.19,2.9,3.84.63,1.65.81,3.59.54,5.8h-14.84v-2.64h13.12l-1.44,1.4c.19-1.47.09-2.71-.3-3.74-.39-1.03-.98-1.82-1.78-2.38-.8-.56-1.76-.84-2.88-.84-1.23,0-2.27.29-3.14.88-.87.59-1.53,1.39-2,2.42-.47,1.03-.7,2.23-.7,3.62v.4c0,1.33.27,2.53.8,3.58.53,1.05,1.29,1.88,2.28,2.48.99.6,2.16.9,3.52.9,1.01,0,1.91-.13,2.68-.38.77-.25,1.45-.63,2.04-1.14l1.84,2c-.75.8-1.7,1.41-2.86,1.84-1.16.43-2.45.64-3.86.64Z"/>
    <path class="cls-2" d="M301.09,48.69v-19.24h3.12v4.92l-.44-.04c.19-1.31.55-2.32,1.1-3.04.55-.72,1.22-1.22,2.02-1.5.8-.28,1.68-.42,2.64-.42h1.64v3.2h-1.88c-1.55,0-2.76.38-3.64,1.14-.88.76-1.32,1.95-1.32,3.58v11.4h-3.24Z"/>
    <path class="cls-2" d="M322.37,49.09c-1.89,0-3.57-.42-5.02-1.26-1.45-.84-2.59-2.01-3.4-3.5-.81-1.49-1.22-3.21-1.22-5.16v-.4c0-1.87.37-3.53,1.12-4.98.75-1.45,1.8-2.61,3.16-3.46,1.36-.85,2.93-1.28,4.72-1.28s3.41.45,4.72,1.36c1.31.91,2.27,2.19,2.9,3.84.63,1.65.81,3.59.54,5.8h-14.84v-2.64h13.12l-1.44,1.4c.19-1.47.09-2.71-.3-3.74-.39-1.03-.98-1.82-1.78-2.38-.8-.56-1.76-.84-2.88-.84-1.23,0-2.27.29-3.14.88-.87.59-1.53,1.39-2,2.42-.47,1.03-.7,2.23-.7,3.62v.4c0,1.33.27,2.53.8,3.58.53,1.05,1.29,1.88,2.28,2.48.99.6,2.16.9,3.52.9,1.01,0,1.91-.13,2.68-.38.77-.25,1.45-.63,2.04-1.14l1.84,2c-.75.8-1.7,1.41-2.86,1.84-1.16.43-2.45.64-3.86.64Z"/>
    <path class="cls-2" d="M335.85,48.69v-17.88l1.44,1.44h-5.16v-2.8h6.96v19.24h-3.24ZM335.73,25.21v-4.64h3.52v4.64h-3.52Z"/>
    <path class="cls-2" d="M343.21,56.69v-2.72h11.48c.91,0,1.61-.22,2.12-.66.51-.44.76-1.06.76-1.86,0-.75-.25-1.33-.76-1.74-.51-.41-1.21-.62-2.12-.62h-6.32c-.99,0-1.75-.24-2.28-.72-.53-.48-.83-1.08-.9-1.8s.09-1.44.46-2.16l1.8-3.6,2.76.72-1.64,3.2c-.11.24-.18.5-.22.78-.04.28.03.51.22.7.19.19.49.28.92.28h5.64c1.65,0,2.98.42,3.98,1.26,1,.84,1.5,2.09,1.5,3.74,0,1.01-.23,1.91-.7,2.7-.47.79-1.12,1.4-1.96,1.84-.84.44-1.83.66-2.98.66h-11.76ZM352.01,43.13c-1.6,0-3.02-.3-4.26-.9s-2.21-1.43-2.92-2.48c-.71-1.05-1.06-2.25-1.06-3.58v-.36c0-1.33.35-2.51,1.06-3.52.71-1.01,1.68-1.81,2.92-2.38,1.24-.57,2.66-.86,4.26-.86s3.02.29,4.26.86c1.24.57,2.21,1.36,2.92,2.36.71,1,1.06,2.15,1.06,3.46v.44c0,1.33-.35,2.53-1.06,3.58-.71,1.05-1.68,1.88-2.92,2.48-1.24.6-2.66.9-4.26.9ZM352.01,40.61c1.49,0,2.71-.42,3.66-1.26.95-.84,1.42-1.9,1.42-3.18v-.32c0-1.23-.47-2.23-1.42-3-.95-.77-2.17-1.16-3.66-1.16s-2.71.39-3.66,1.18c-.95.79-1.42,1.81-1.42,3.06v.24c0,1.28.47,2.34,1.42,3.18s2.17,1.26,3.66,1.26ZM351.89,31.13l2.96-6.08h3.24l-3.28,6.08h-2.92Z"/>
    <path class="cls-2" d="M364.85,48.69v-19.24h3.12v5.2h-.88c.29-1.09.71-2,1.26-2.72.55-.72,1.16-1.29,1.84-1.72.68-.43,1.38-.73,2.1-.9.72-.17,1.4-.26,2.04-.26,2.16,0,3.91.69,5.26,2.08,1.35,1.39,2.02,3.47,2.02,6.24v11.32h-3.24v-10.84c0-2.05-.46-3.54-1.38-4.46s-2.09-1.38-3.5-1.38c-.99,0-1.89.23-2.7.68-.81.45-1.47,1.11-1.96,1.98-.49.87-.74,1.94-.74,3.22v10.8h-3.24Z"/>
    <path class="cls-2" d="M120.77,83.17c-1.97,0-3.7-.35-5.18-1.06-1.48-.71-2.73-1.67-3.74-2.9l2.16-2.16c.99,1.09,2.05,1.9,3.18,2.42,1.13.52,2.37.78,3.7.78,1.87,0,3.34-.47,4.42-1.4,1.08-.93,1.62-2.15,1.62-3.64,0-1.07-.26-1.93-.78-2.58-.52-.65-1.21-1.18-2.08-1.58-.87-.4-1.81-.74-2.84-1.02-1.03-.28-2.05-.59-3.08-.92-1.03-.33-1.97-.77-2.84-1.3-.87-.53-1.56-1.23-2.08-2.1-.52-.87-.78-1.99-.78-3.38,0-1.65.39-3.09,1.16-4.3.77-1.21,1.86-2.15,3.26-2.82,1.4-.67,3.03-1,4.9-1,1.68,0,3.19.27,4.52.82,1.33.55,2.44,1.31,3.32,2.3l-2.2,2.2c-.77-.8-1.62-1.4-2.54-1.8s-1.95-.6-3.1-.6c-1.79,0-3.22.45-4.3,1.34s-1.62,2.07-1.62,3.54c0,1.01.27,1.82.8,2.42.53.6,1.23,1.08,2.08,1.44.85.36,1.8.67,2.84.94s2.08.57,3.12.9c1.04.33,1.99.77,2.86,1.3s1.57,1.25,2.1,2.16c.53.91.8,2.09.8,3.56,0,1.71-.41,3.19-1.22,4.46-.81,1.27-1.95,2.25-3.4,2.94-1.45.69-3.14,1.04-5.06,1.04Z"/>
    <path class="cls-2" d="M141.97,83.09c-1.41,0-2.68-.28-3.8-.84-1.12-.56-2.01-1.42-2.66-2.58-.65-1.16-.98-2.66-.98-4.5v-11.72h3.24v11.16c0,1.36.21,2.45.62,3.26.41.81.99,1.39,1.72,1.74.73.35,1.57.52,2.5.52s1.84-.21,2.64-.64c.8-.43,1.45-1.07,1.94-1.94s.74-1.94.74-3.22v-10.88h3.2v19.24h-2.84v-5.2h.92c-.29,1.09-.71,2-1.24,2.72-.53.72-1.15,1.29-1.84,1.72-.69.43-1.4.73-2.12.9-.72.17-1.4.26-2.04.26Z"/>
    <path class="cls-2" d="M157.13,82.69v-19.24h3.08v5.04l-.8-.04c.4-1.39.97-2.47,1.72-3.24.75-.77,1.58-1.33,2.5-1.66s1.82-.5,2.7-.5c1.65,0,3.06.43,4.22,1.3,1.16.87,1.94,2.21,2.34,4.02h-1.2c.45-1.39,1.1-2.47,1.94-3.24s1.74-1.31,2.7-1.62,1.85-.46,2.68-.46c2.11,0,3.81.67,5.1,2.02,1.29,1.35,1.94,3.41,1.94,6.18v11.44h-3.16v-11.04c0-2-.43-3.44-1.28-4.32-.85-.88-1.97-1.32-3.36-1.32s-2.64.49-3.6,1.46c-.96.97-1.44,2.37-1.44,4.18v11.04h-3.2v-11.04c0-2-.42-3.44-1.26-4.32s-1.95-1.32-3.34-1.32-2.65.49-3.62,1.46c-.97.97-1.46,2.37-1.46,4.18v11.04h-3.2Z"/>
    <path class="cls-2" d="M191.81,82.69v-19.24h3.08v5.04l-.8-.04c.4-1.39.97-2.47,1.72-3.24.75-.77,1.58-1.33,2.5-1.66s1.82-.5,2.7-.5c1.65,0,3.06.43,4.22,1.3,1.16.87,1.94,2.21,2.34,4.02h-1.2c.45-1.39,1.1-2.47,1.94-3.24s1.74-1.31,2.7-1.62,1.85-.46,2.68-.46c2.11,0,3.81.67,5.1,2.02,1.29,1.35,1.94,3.41,1.94,6.18v11.44h-3.16v-11.04c0-2-.43-3.44-1.28-4.32-.85-.88-1.97-1.32-3.36-1.32s-2.64.49-3.6,1.46c-.96.97-1.44,2.37-1.44,4.18v11.04h-3.2v-11.04c0-2-.42-3.44-1.26-4.32s-1.95-1.32-3.34-1.32-2.65.49-3.62,1.46c-.97.97-1.46,2.37-1.46,4.18v11.04h-3.2Z"/>
    <path class="cls-2" d="M227.65,82.69v-17.88l1.44,1.44h-5.16v-2.8h6.96v19.24h-3.24ZM227.53,59.21v-4.64h3.52v4.64h-3.52Z"/>
    <path class="cls-2" d="M234.65,66.25v-2.8h11.76v2.8h-11.76ZM243.45,82.69c-.64,0-1.28-.09-1.92-.28-.64-.19-1.21-.48-1.72-.88-.51-.4-.91-.93-1.2-1.58-.29-.65-.44-1.45-.44-2.38v-18.88h3.2v19.08c0,.61.21,1.13.62,1.54.41.41.91.62,1.5.62h2.92v2.76h-2.96Z"/>
    <path class="cls-2" d="M112.88,116.69v-19.6h5.82c1.29,0,2.41.23,3.36.69.95.46,1.69,1.12,2.23,1.97.53.86.8,1.9.8,3.11s-.27,2.25-.8,3.11-1.27,1.52-2.23,1.97c-.95.46-2.07.69-3.36.69h-4.93v-1.6h5.01c1.33,0,2.4-.37,3.23-1.12.83-.75,1.25-1.76,1.25-3.05s-.42-2.27-1.25-3.01c-.83-.74-1.91-1.11-3.23-1.11h-4.82l.78-.76v18.7h-1.88Z"/>
    <path class="cls-2" d="M127.94,116.69v-13.38h1.74v3.19l-.28-.03c.17-.86.44-1.52.83-1.97.38-.46.85-.77,1.4-.95.55-.18,1.15-.27,1.81-.27h1.15v1.76h-1.29c-1.1,0-1.97.28-2.6.84-.63.56-.95,1.46-.95,2.69v8.12h-1.79Z"/>
    <path class="cls-2" d="M140.82,116.97c-1.57,0-2.81-.36-3.74-1.08-.92-.72-1.39-1.67-1.39-2.84,0-.77.21-1.45.62-2.06.41-.61,1.02-1.09,1.82-1.44.8-.35,1.76-.53,2.88-.53,1.55,0,2.75.35,3.6,1.04s1.27,1.61,1.27,2.74h-.34c0,1.31-.39,2.33-1.18,3.07-.78.74-1.97,1.11-3.56,1.11ZM144.94,116.69l-.03-4.87-.2-.53v-3.28c0-1.16-.29-2.01-.87-2.55-.58-.54-1.42-.81-2.52-.81-.73,0-1.48.14-2.25.42s-1.45.71-2.03,1.29l-.87-1.26c.63-.69,1.41-1.21,2.34-1.55.92-.34,1.88-.52,2.87-.52s1.89.18,2.66.55,1.36.91,1.79,1.64c.43.73.64,1.65.64,2.77v4.26c0,.75,0,1.49.01,2.23s.03,1.48.07,2.23h-1.62ZM141.16,115.6c1.12,0,1.99-.24,2.62-.71.62-.48.94-1.1.94-1.86s-.31-1.4-.94-1.86c-.63-.46-1.51-.69-2.65-.69s-2.01.23-2.66.69c-.65.46-.98,1.08-.98,1.86s.33,1.39.98,1.86c.65.48,1.55.71,2.69.71Z"/>
    <path class="cls-2" d="M149.3,122.29v-1.51h7.92c.73,0,1.3-.18,1.72-.55s.63-.86.63-1.5c0-.6-.21-1.06-.63-1.4-.42-.34-.99-.5-1.72-.5h-4.26c-.69,0-1.21-.16-1.57-.49-.36-.33-.55-.73-.59-1.22-.04-.48.07-.96.31-1.43l1.2-2.41,1.54.42-1.12,2.16c-.09.21-.15.42-.18.66-.03.23.03.43.18.6s.41.25.78.25h3.92c1.16,0,2.08.29,2.77.87.69.58,1.04,1.41,1.04,2.49,0,.71-.16,1.33-.48,1.86-.32.53-.77.95-1.34,1.25-.58.3-1.27.45-2.07.45h-8.06ZM155.43,112.72c-1.08,0-2.05-.21-2.9-.62-.85-.41-1.52-.98-2-1.71-.49-.73-.73-1.55-.73-2.46v-.25c0-.92.24-1.72.73-2.42.49-.7,1.15-1.25,2-1.64.85-.39,1.82-.59,2.9-.59s2.08.2,2.93.59c.85.39,1.51.93,1.99,1.61.48.68.71,1.47.71,2.37v.34c0,.91-.24,1.74-.71,2.46-.48.73-1.14,1.3-1.99,1.71-.85.41-1.83.62-2.93.62ZM155.43,111.29c1.14,0,2.07-.32,2.8-.95.73-.63,1.09-1.44,1.09-2.41v-.25c0-.93-.36-1.69-1.09-2.28-.73-.59-1.66-.88-2.8-.88s-2.07.3-2.8.9c-.73.6-1.09,1.37-1.09,2.32v.2c0,.97.36,1.77,1.09,2.41.73.64,1.66.95,2.8.95ZM155.66,104.2l1.99-4.06h1.79l-2.16,4.06h-1.62Z"/>
    <path class="cls-2" d="M169.44,116.97c-.99,0-1.88-.19-2.66-.57-.78-.38-1.4-.98-1.85-1.79-.45-.81-.67-1.88-.67-3.21v-8.09h1.76v7.81c0,1.05.16,1.88.49,2.49.33.62.77,1.05,1.33,1.32.56.26,1.19.39,1.9.39s1.4-.16,2.02-.49c.62-.33,1.12-.82,1.5-1.47s.57-1.46.57-2.44v-7.62h1.74v13.38h-1.57v-3.58h.5c-.21.73-.49,1.34-.87,1.83-.37.5-.8.89-1.29,1.19-.49.3-.98.51-1.48.64-.5.13-.98.2-1.43.2Z"/>
    <path class="cls-2" d="M185.73,116.97c-1.31,0-2.46-.29-3.47-.88-1.01-.59-1.79-1.4-2.35-2.44-.56-1.04-.84-2.24-.84-3.6v-.28c0-1.31.26-2.46.77-3.47.51-1.01,1.24-1.81,2.18-2.39.94-.59,2.02-.88,3.23-.88s2.32.31,3.22.92c.9.62,1.56,1.48,1.99,2.6s.55,2.43.36,3.92h-10.47v-1.48h9.52l-.78.78c.13-1.06.05-1.98-.25-2.76s-.76-1.37-1.37-1.79c-.62-.42-1.34-.63-2.18-.63-.92,0-1.7.22-2.37.66-.66.44-1.18,1.05-1.54,1.82-.36.78-.55,1.68-.55,2.7v.28c0,1.03.21,1.94.62,2.73.41.79.99,1.41,1.74,1.86.75.45,1.62.67,2.63.67.71,0,1.36-.09,1.95-.28.59-.19,1.09-.46,1.5-.81l1.01,1.15c-.5.5-1.15.9-1.93,1.18-.78.28-1.65.42-2.6.42Z"/>
  </g>
  <g id="Layer_1" data-name="Layer 1">
    <path class="cls-1" d="M98.81,30.91c-.44-.46-1.17-.46-1.62,0-.5.5-.44,1.36.18,1.77.38.25.88.25,1.26,0,.62-.41.68-1.27.18-1.77M97.33,27.02c-3.06-.72-5.81,2.03-5.09,5.09.36,1.56,1.6,2.8,3.16,3.16,3.06.72,5.81-2.03,5.09-5.1-.37-1.56-1.6-2.8-3.16-3.16M77.11,44.26c-2-.74-2.77-.59-5.32-.56-1.77.02-1.83-.04-3.85-.04-.62,0-.85,2.99,1.4,3.61.99.27,2.05.44,2.8,1.2.33.33.51.84-.25.84h-5.6c-.98,0-1.91.02-2.65-.61-1.13-.95-1.66-2.27-2.22-3.57-.59-1.36-1.22-2.69-1.96-3.97-1.48-2.54-3.43-4.84-6.06-6.25-3.27-1.76-8.83-2.63-13.23.75-4.64,3.56-3.64,10.23.41,13.49,1.6,1.29,3.69,1.83,5.74,1.71,4.01-.23,6.97-3.19,6.23-6.83-.24-1.22-.96-2.37-2.03-3-.76-.44-1.66-.6-2.55-.61-.95,0-1.95.19-2.64.85-.81.78-.94,2.16-.29,3.08.36.51.94.94.84,1.6-.07.45-.44.78-.88.88-.75.17-1.44-.26-1.95-.78-1.31-1.34-1.71-3.48-1-5.21.94-2.26,3.55-3.51,6-3.43,3.16.11,6.13,2.19,7.43,5.07,1.3,2.88.91,6.42-.88,9.03-3.97,5.8-13.76,5.11-18.31.22-2.85-3.07-4.41-6.04-4.19-11.58.15-3.92,2.41-7.77,5.29-10.49,4.69-4.42,10.87-7.45,17.16-8.75,3.82-.79,7.76-.97,11.64-.59,3.42.34,6.82.97,10.1,1.98,1.63.51,3.23,1.11,4.79,1.82,1.37.63,3.16,1.31,4.23,2.4,0-1.96-.08-4.12-.08-5.63,0-.57.6-.96,1.12-.72,2.22,1.03,7.49,3.52,11,5.13,4.71,2.15,5.04,7.23,5.21,11.73,0,.1,0,.2-.04.29-.15.31-.94.23-1.23.23-.56,0-1.41,0-1.97.03-1.12.05-2.22.03-3.34-.03-2.08-.1-4.09-1.03-5.43-2.15-.13-.11-.57-.24-.77-.02-.21.22-.14.56-.02.68.77.78,1.61,1.28,2.58,1.79,1.24.63,2.58.8,3.95.87,1.46.09,2.94.07,4.4-.08,1.22-.12,1.53-.21.33.69-1.06.79-2.28,1.35-3.53,1.77-1.78.61-3.67.91-5.55.96-1.14.03-2.28-.03-3.41-.18-.58-.07-1.17-.18-1.75-.24-.48-.05-.97-.14-1.45-.04-.43.09-.83.33-1.1.68-.37.48-.5,1.82-.29,2.4.42,1.12,1.33,1.77,2.29,2.34,1.05.62,2.42.83,2.69,2.02.06.25-2.16.25-2.42.25h-2.95s-1.61.04-2.23-.19c-.02,0-.04-.02-.06-.02-.34-.18-.49-.64-.6-.98-.17-.49-.45-.97-.81-1.48-.67-.95-1.69-1.99-2.76-2.39M99.48,31.14c0,1.73-1.4,3.13-3.13,3.13s-3.13-1.4-3.13-3.13,1.4-3.13,3.13-3.13,3.13,1.4,3.13,3.13"/>
  </g>
</svg>