<?xml version="1.0" encoding="UTF-8"?>
<svg xmlns="http://www.w3.org/2000/svg" viewBox="0 0 369.04 111.99">
  <defs>
    <style>
      .cls-1 {
        fill: #30ba78;
      }

      .cls-2 {
        fill: #f2f2f2;
      }
    </style>
  </defs>
  <g id="Text">
    <g>
      <path class="cls-2" d="M99.14,53.61c-2.08,0-3.89-.39-5.44-1.16-1.55-.77-2.87-1.8-3.96-3.08l3.04-3.04c1.09,1.12,2.16,1.92,3.2,2.4,1.04.48,2.15.72,3.32.72,1.57,0,2.81-.37,3.7-1.1.89-.73,1.34-1.69,1.34-2.86,0-.91-.25-1.65-.76-2.22-.51-.57-1.17-1.04-2-1.4-.83-.36-1.74-.68-2.74-.96-1-.28-1.99-.59-2.98-.94-.99-.35-1.89-.8-2.72-1.36-.83-.56-1.49-1.29-2-2.2s-.76-2.04-.76-3.4c0-1.76.4-3.27,1.2-4.54s1.94-2.25,3.42-2.94,3.19-1.04,5.14-1.04c1.81,0,3.45.32,4.9.96,1.45.64,2.65,1.49,3.58,2.56l-3.12,3.12c-.8-.83-1.63-1.45-2.48-1.86-.85-.41-1.83-.62-2.92-.62-1.47,0-2.64.35-3.52,1.06-.88.71-1.32,1.65-1.32,2.82,0,.85.25,1.55.76,2.08.51.53,1.18.95,2.02,1.26s1.76.59,2.76.84c1,.25,2.01.55,3.02.9,1.01.35,1.93.8,2.76,1.36.83.56,1.49,1.31,2,2.24.51.93.76,2.12.76,3.56,0,1.79-.43,3.34-1.28,4.66s-2.05,2.35-3.58,3.08c-1.53.73-3.31,1.1-5.34,1.1Z"/>
      <path class="cls-2" d="M124.5,53.61c-3.28,0-5.91-.85-7.88-2.54-1.97-1.69-2.96-4.26-2.96-7.7v-18.32h4.92v17.92c0,2.03.53,3.55,1.6,4.56,1.07,1.01,2.51,1.52,4.32,1.52s3.26-.51,4.34-1.52,1.62-2.53,1.62-4.56v-17.92h4.92v18.32c0,2.27-.45,4.16-1.36,5.68-.91,1.52-2.17,2.66-3.8,3.42-1.63.76-3.53,1.14-5.72,1.14Z"/>
      <path class="cls-2" d="M148.9,53.61c-2.08,0-3.89-.39-5.44-1.16-1.55-.77-2.87-1.8-3.96-3.08l3.04-3.04c1.09,1.12,2.16,1.92,3.2,2.4,1.04.48,2.15.72,3.32.72,1.57,0,2.81-.37,3.7-1.1.89-.73,1.34-1.69,1.34-2.86,0-.91-.25-1.65-.76-2.22-.51-.57-1.17-1.04-2-1.4-.83-.36-1.74-.68-2.74-.96-1-.28-1.99-.59-2.98-.94-.99-.35-1.89-.8-2.72-1.36-.83-.56-1.49-1.29-2-2.2s-.76-2.04-.76-3.4c0-1.76.4-3.27,1.2-4.54s1.94-2.25,3.42-2.94,3.19-1.04,5.14-1.04c1.81,0,3.45.32,4.9.96,1.45.64,2.65,1.49,3.58,2.56l-3.12,3.12c-.8-.83-1.63-1.45-2.48-1.86-.85-.41-1.83-.62-2.92-.62-1.47,0-2.64.35-3.52,1.06-.88.71-1.32,1.65-1.32,2.82,0,.85.25,1.55.76,2.08.51.53,1.18.95,2.02,1.26s1.76.59,2.76.84c1,.25,2.01.55,3.02.9,1.01.35,1.93.8,2.76,1.36.83.56,1.49,1.31,2,2.24.51.93.76,2.12.76,3.56,0,1.79-.43,3.34-1.28,4.66s-2.05,2.35-3.58,3.08c-1.53.73-3.31,1.1-5.34,1.1Z"/>
      <path class="cls-2" d="M168.06,53.05c-1.36,0-2.47-.44-3.34-1.32s-1.3-2-1.3-3.36v-18.64c0-1.36.43-2.48,1.3-3.36s1.98-1.32,3.34-1.32h13.64v4.48h-12c-.4,0-.74.14-1.02.42s-.42.62-.42,1.02v16.16c0,.4.14.74.42,1.02s.62.42,1.02.42h12v4.48h-13.64ZM165.78,41.13v-4.28h15.08v4.28h-15.08Z"/>
      <path class="cls-2" d="M200.29,53.05c-1.28,0-2.34-.42-3.18-1.26s-1.26-1.9-1.26-3.18v-19.12c0-1.28.42-2.34,1.26-3.18s1.9-1.26,3.18-1.26h12.92v3.12h-11.84c-.61,0-1.13.21-1.54.62s-.62.91-.62,1.5v17.52c0,.59.21,1.09.62,1.5.41.41.93.62,1.54.62h11.84v3.12h-12.92ZM197.58,40.53v-3h14.8v3h-14.8Z"/>
      <path class="cls-2" d="M215.94,53.05l6.84-9.6-6.64-9.64h3.8l5,7.6,5-7.6h3.72l-6.64,9.64,6.76,9.6h-3.84l-5.12-7.48-5.08,7.48h-3.8Z"/>
      <path class="cls-2" d="M245.22,53.45c-1.89,0-3.58-.41-5.06-1.24-1.48-.83-2.65-1.98-3.5-3.46-.85-1.48-1.28-3.18-1.28-5.1v-.48c0-1.92.43-3.61,1.28-5.08.85-1.47,2.02-2.61,3.5-3.44,1.48-.83,3.17-1.24,5.06-1.24,1.41,0,2.7.25,3.86.76s2.14,1.24,2.94,2.2l-2,2c-.61-.64-1.32-1.13-2.12-1.46s-1.69-.5-2.68-.5c-1.25,0-2.39.28-3.4.84-1.01.56-1.81,1.35-2.38,2.36-.57,1.01-.86,2.2-.86,3.56v.48c0,1.36.29,2.55.88,3.56s1.38,1.81,2.38,2.38,2.14.86,3.42.86c.96,0,1.85-.15,2.66-.46s1.54-.79,2.18-1.46l1.96,1.96c-.77.93-1.75,1.66-2.94,2.18-1.19.52-2.49.78-3.9.78Z"/>
      <path class="cls-2" d="M256.18,53.05v-29.2h3.12v15.16h-.88c.29-1.09.71-2,1.26-2.72.55-.72,1.16-1.29,1.84-1.72.68-.43,1.38-.73,2.1-.9.72-.17,1.4-.26,2.04-.26,2.16,0,3.91.69,5.26,2.08,1.35,1.39,2.02,3.47,2.02,6.24v11.32h-3.24v-10.84c0-2.05-.46-3.54-1.38-4.46s-2.09-1.38-3.5-1.38c-.99,0-1.89.23-2.7.68-.81.45-1.47,1.11-1.96,1.98-.49.87-.74,1.94-.74,3.22v10.8h-3.24Z"/>
      <path class="cls-2" d="M284.62,53.45c-2.27,0-4.07-.52-5.4-1.56-1.33-1.04-2-2.41-2-4.12,0-1.09.3-2.09.9-3,.6-.91,1.48-1.63,2.64-2.16,1.16-.53,2.57-.8,4.22-.8,2.21,0,3.93.5,5.16,1.5,1.23,1,1.84,2.33,1.84,3.98h-.64c0,1.97-.56,3.49-1.68,4.56-1.12,1.07-2.8,1.6-5.04,1.6ZM290.29,53.05v-7.28l-.4-1.08v-4.08c0-1.44-.37-2.51-1.12-3.22-.75-.71-1.87-1.06-3.36-1.06-.99,0-2.03.2-3.12.6-1.09.4-2.07.99-2.92,1.76l-1.52-2.28c.93-.96,2.08-1.7,3.44-2.22,1.36-.52,2.77-.78,4.24-.78s2.81.27,3.94.8c1.13.53,2.02,1.33,2.66,2.38.64,1.05.96,2.38.96,3.98v6.16c0,1.07,0,2.12.02,3.16.01,1.04.05,2.09.1,3.16h-2.92ZM285.21,51.01c1.44,0,2.58-.3,3.42-.9.84-.6,1.26-1.41,1.26-2.42s-.41-1.81-1.24-2.4c-.83-.59-1.97-.88-3.44-.88s-2.63.29-3.48.88-1.28,1.39-1.28,2.4.43,1.82,1.3,2.42c.87.6,2.02.9,3.46.9Z"/>
      <path class="cls-2" d="M298.9,53.05v-19.24h3.12v5.2h-.88c.29-1.09.71-2,1.26-2.72.55-.72,1.16-1.29,1.84-1.72.68-.43,1.38-.73,2.1-.9.72-.17,1.4-.26,2.04-.26,2.16,0,3.91.69,5.26,2.08,1.35,1.39,2.02,3.47,2.02,6.24v11.32h-3.24v-10.84c0-2.05-.46-3.54-1.38-4.46s-2.09-1.38-3.5-1.38c-.99,0-1.89.23-2.7.68-.81.45-1.47,1.11-1.96,1.98-.49.87-.74,1.94-.74,3.22v10.8h-3.24Z"/>
      <path class="cls-2" d="M319.49,61.05v-2.72h11.48c.91,0,1.61-.22,2.12-.66.51-.44.76-1.06.76-1.86,0-.75-.25-1.33-.76-1.74-.51-.41-1.21-.62-2.12-.62h-6.32c-.99,0-1.75-.24-2.28-.72-.53-.48-.83-1.08-.9-1.8s.09-1.44.46-2.16l1.8-3.6,2.76.72-1.64,3.2c-.11.24-.18.5-.22.78-.04.28.03.51.22.7.19.19.49.28.92.28h5.64c1.65,0,2.98.42,3.98,1.26,1,.84,1.5,2.09,1.5,3.74,0,1.01-.23,1.91-.7,2.7-.47.79-1.12,1.4-1.96,1.84-.84.44-1.83.66-2.98.66h-11.76ZM328.29,47.49c-1.6,0-3.02-.3-4.26-.9s-2.21-1.43-2.92-2.48c-.71-1.05-1.06-2.25-1.06-3.58v-.36c0-1.33.35-2.51,1.06-3.52.71-1.01,1.68-1.81,2.92-2.38,1.24-.57,2.66-.86,4.26-.86s3.02.29,4.26.86c1.24.57,2.21,1.36,2.92,2.36.71,1,1.06,2.15,1.06,3.46v.44c0,1.33-.35,2.53-1.06,3.58-.71,1.05-1.68,1.88-2.92,2.48-1.24.6-2.66.9-4.26.9ZM328.29,44.97c1.49,0,2.71-.42,3.66-1.26.95-.84,1.42-1.9,1.42-3.18v-.32c0-1.23-.47-2.23-1.42-3-.95-.77-2.17-1.16-3.66-1.16s-2.71.39-3.66,1.18c-.95.79-1.42,1.81-1.42,3.06v.24c0,1.28.47,2.34,1.42,3.18.95.84,2.17,1.26,3.66,1.26ZM328.17,35.49l2.96-6.08h3.24l-3.28,6.08h-2.92Z"/>
      <path class="cls-2" d="M349.45,53.45c-1.89,0-3.57-.42-5.02-1.26-1.45-.84-2.59-2.01-3.4-3.5-.81-1.49-1.22-3.21-1.22-5.16v-.4c0-1.87.37-3.53,1.12-4.98.75-1.45,1.8-2.61,3.16-3.46,1.36-.85,2.93-1.28,4.72-1.28s3.41.45,4.72,1.36c1.31.91,2.27,2.19,2.9,3.84.63,1.65.81,3.59.54,5.8h-14.84v-2.64h13.12l-1.44,1.4c.19-1.47.09-2.71-.3-3.74-.39-1.03-.98-1.82-1.78-2.38-.8-.56-1.76-.84-2.88-.84-1.23,0-2.27.29-3.14.88-.87.59-1.53,1.39-2,2.42-.47,1.03-.7,2.23-.7,3.62v.4c0,1.33.27,2.53.8,3.58.53,1.05,1.29,1.88,2.28,2.48.99.6,2.16.9,3.52.9,1.01,0,1.91-.13,2.68-.38.77-.25,1.45-.63,2.04-1.14l1.84,2c-.75.8-1.7,1.41-2.86,1.84-1.16.43-2.45.64-3.86.64Z"/>
    </g>
    <g id="Layer_1" data-name="Layer 1">
      <path class="cls-1" d="M76.98,35.28c-.44-.46-1.17-.46-1.62,0-.5.5-.44,1.36.18,1.77.38.25.88.25,1.26,0,.62-.41.68-1.27.18-1.77M75.49,31.38c-3.06-.72-5.81,2.03-5.09,5.09.36,1.56,1.6,2.8,3.16,3.16,3.06.72,5.81-2.03,5.09-5.1-.37-1.56-1.6-2.8-3.16-3.16M55.28,48.62c-2-.74-2.77-.59-5.32-.56-1.77.02-1.83-.04-3.85-.04-.62,0-.85,2.99,1.4,3.61.99.27,2.05.44,2.8,1.2.33.33.51.84-.25.84h-5.6c-.98,0-1.91.02-2.65-.61-1.13-.95-1.66-2.27-2.22-3.57-.59-1.36-1.22-2.69-1.96-3.97-1.48-2.54-3.43-4.84-6.06-6.25-3.27-1.76-8.83-2.63-13.23.75-4.64,3.56-3.64,10.23.41,13.49,1.6,1.29,3.69,1.83,5.74,1.71,4.01-.23,6.97-3.19,6.23-6.83-.24-1.22-.96-2.37-2.03-3-.76-.44-1.66-.6-2.55-.61-.95,0-1.95.19-2.64.85-.81.78-.94,2.16-.29,3.08.36.51.94.94.84,1.6-.07.45-.44.78-.88.88-.75.17-1.44-.26-1.95-.78-1.31-1.34-1.71-3.48-1-5.21.94-2.26,3.55-3.51,6-3.43,3.16.11,6.13,2.19,7.43,5.07,1.3,2.88.91,6.42-.88,9.03-3.97,5.8-13.76,5.11-18.31.22-2.85-3.07-4.41-6.04-4.19-11.58.15-3.92,2.41-7.77,5.29-10.49,4.69-4.42,10.87-7.45,17.16-8.75,3.82-.79,7.76-.97,11.64-.59,3.42.34,6.82.97,10.1,1.98,1.63.51,3.23,1.11,4.79,1.82,1.37.63,3.16,1.31,4.23,2.4,0-1.96-.08-4.12-.08-5.63,0-.57.6-.96,1.12-.72,2.22,1.03,7.49,3.52,11,5.13,4.71,2.15,5.04,7.23,5.21,11.73,0,.1,0,.2-.04.29-.15.31-.94.23-1.23.23-.56,0-1.41,0-1.97.03-1.12.05-2.22.03-3.34-.03-2.08-.1-4.09-1.03-5.43-2.15-.13-.11-.57-.24-.77-.02-.21.22-.14.56-.02.68.77.78,1.61,1.28,2.58,1.79,1.24.63,2.58.8,3.95.87,1.46.09,2.94.07,4.4-.08,1.22-.12,1.53-.21.33.69-1.06.79-2.28,1.35-3.53,1.77-1.78.61-3.67.91-5.55.96-1.14.03-2.28-.03-3.41-.18-.58-.07-1.17-.18-1.75-.24-.48-.05-.97-.14-1.45-.04-.43.09-.83.33-1.1.68-.37.48-.5,1.82-.29,2.4.42,1.12,1.33,1.77,2.29,2.34,1.05.62,2.42.83,2.69,2.02.06.25-2.16.25-2.42.25h-2.95s-1.61.04-2.23-.19c-.02,0-.04-.02-.06-.02-.34-.18-.49-.64-.6-.98-.17-.49-.45-.97-.81-1.48-.67-.95-1.69-1.99-2.76-2.39M77.65,35.51c0,1.73-1.4,3.13-3.13,3.13s-3.13-1.4-3.13-3.13,1.4-3.13,3.13-3.13,3.13,1.4,3.13,3.13"/>
    </g>
  </g>
  <g id="Location">
    <g>
      <path class="cls-2" d="M94.96,87.05l-5.88-19.6h1.9l5.26,18.03h-.67l5.66-18.03h2.04l5.68,18h-.67l5.24-18h1.9l-5.88,19.6h-1.9l-5.66-18.06h.53l-5.63,18.06h-1.93Z"/>
      <path class="cls-2" d="M120.95,87.33c-1.57,0-2.81-.36-3.74-1.08s-1.39-1.67-1.39-2.84c0-.77.21-1.45.62-2.06.41-.61,1.02-1.09,1.82-1.44.8-.35,1.76-.53,2.88-.53,1.55,0,2.75.35,3.6,1.04s1.27,1.61,1.27,2.74h-.34c0,1.31-.39,2.33-1.18,3.07-.78.74-1.97,1.11-3.56,1.11ZM125.07,87.05l-.03-4.87-.2-.53v-3.28c0-1.16-.29-2.01-.87-2.55-.58-.54-1.42-.81-2.52-.81-.73,0-1.48.14-2.25.42s-1.45.71-2.03,1.29l-.87-1.26c.63-.69,1.41-1.21,2.34-1.55.92-.34,1.88-.52,2.87-.52s1.89.18,2.66.55,1.36.91,1.79,1.64c.43.73.64,1.65.64,2.77v4.26c0,.75,0,1.49.01,2.23,0,.74.03,1.48.07,2.23h-1.62ZM121.28,85.96c1.12,0,1.99-.24,2.62-.71.62-.48.94-1.1.94-1.86s-.31-1.4-.94-1.86c-.63-.46-1.51-.69-2.65-.69s-2.01.23-2.66.69c-.65.46-.98,1.08-.98,1.86s.33,1.39.98,1.86c.65.48,1.55.71,2.69.71Z"/>
      <path class="cls-2" d="M130.89,87.05v-13.38h1.74v3.19l-.28-.03c.17-.86.44-1.52.83-1.97.38-.46.85-.77,1.4-.95.55-.18,1.15-.27,1.81-.27h1.15v1.76h-1.29c-1.1,0-1.97.28-2.6.84-.63.56-.95,1.46-.95,2.69v8.12h-1.79Z"/>
      <path class="cls-2" d="M143.49,87.31c-.95,0-1.85-.15-2.7-.45-.85-.3-1.54-.7-2.06-1.2l.81-1.23c.49.43,1.09.78,1.81,1.05s1.43.41,2.14.41c.91,0,1.66-.21,2.24-.64.58-.43.87-1,.87-1.71,0-.58-.18-1.03-.55-1.34s-.83-.56-1.39-.73c-.56-.17-1.15-.33-1.78-.49s-1.22-.36-1.78-.62c-.56-.25-1.02-.62-1.37-1.09-.36-.48-.53-1.12-.53-1.95,0-1.16.43-2.1,1.29-2.83.86-.73,2.01-1.09,3.44-1.09.82,0,1.6.13,2.32.38.73.25,1.35.58,1.88.99l-.81,1.26c-.47-.35-.99-.64-1.57-.85-.58-.21-1.19-.32-1.85-.32-.88,0-1.6.21-2.16.64-.56.43-.84.99-.84,1.68,0,.58.18,1.02.53,1.33.35.31.82.55,1.39.73.57.18,1.17.35,1.81.5.63.16,1.24.37,1.81.63.57.26,1.03.63,1.39,1.12.35.49.53,1.15.53,1.99,0,.75-.21,1.41-.62,1.99-.41.58-.99,1.03-1.72,1.36s-1.58.49-2.53.49Z"/>
      <path class="cls-2" d="M155.84,87.33c-1.57,0-2.81-.36-3.74-1.08s-1.39-1.67-1.39-2.84c0-.77.21-1.45.62-2.06.41-.61,1.02-1.09,1.82-1.44s1.76-.53,2.88-.53c1.55,0,2.75.35,3.6,1.04s1.27,1.61,1.27,2.74h-.34c0,1.31-.39,2.33-1.18,3.07-.78.74-1.97,1.11-3.56,1.11ZM159.95,87.05l-.03-4.87-.2-.53v-3.28c0-1.16-.29-2.01-.87-2.55-.58-.54-1.42-.81-2.52-.81-.73,0-1.48.14-2.25.42s-1.45.71-2.03,1.29l-.87-1.26c.63-.69,1.41-1.21,2.34-1.55.92-.34,1.88-.52,2.87-.52s1.89.18,2.66.55,1.36.91,1.79,1.64c.43.73.64,1.65.64,2.77v4.26c0,.75,0,1.49.01,2.23,0,.74.03,1.48.07,2.23h-1.62ZM156.17,85.96c1.12,0,1.99-.24,2.62-.71.62-.48.94-1.1.94-1.86s-.31-1.4-.94-1.86c-.63-.46-1.51-.69-2.65-.69s-2.01.23-2.66.69c-.65.46-.98,1.08-.98,1.86s.33,1.39.98,1.86c.65.48,1.55.71,2.69.71Z"/>
      <path class="cls-2" d="M168.18,87.05l-3.98-13.38h1.76l3.47,12.18h-.36l3.58-12.18h1.88l3.56,12.15-.34-.03,3.47-12.12h1.76l-3.98,13.38h-2.02l-3.72-12.74h.62l-3.7,12.74h-2.02Z"/>
    </g>
  </g>
</svg>