<?xml version="1.0" encoding="UTF-8"?>
<svg id="Layer_1" data-name="Layer 1" xmlns="http://www.w3.org/2000/svg" viewBox="0 0 234.48 135.05">
  <g id="Layer_1-2" data-name="Layer 1">
    <path d="M87.45,16.49c-.5.33-1.16.33-1.66,0-.81-.54-.89-1.67-.24-2.32.58-.6,1.55-.6,2.13,0,.65.65.58,1.78-.24,2.32M89.82,13.19c.95,4.02-2.67,7.64-6.69,6.69-2.05-.48-3.67-2.11-4.15-4.15-.94-4.02,2.67-7.63,6.69-6.69,2.05.48,3.67,2.1,4.15,4.15M62.74,34.82c.46.66.84,1.3,1.06,1.94.15.45.35,1.05.79,1.29.03.01.05.03.08.03.82.3,2.93.25,2.93.25h3.88c.33,0,3.25,0,3.17-.33-.35-1.56-2.15-1.84-3.53-2.65-1.27-.75-2.46-1.61-3.01-3.08-.28-.76-.11-2.51.37-3.15.36-.46.88-.77,1.45-.89.63-.13,1.27-.02,1.9.05.77.08,1.53.22,2.3.31,1.49.19,2.98.27,4.48.23,2.47-.07,4.94-.46,7.29-1.26,1.63-.55,3.25-1.29,4.63-2.32,1.58-1.17,1.16-1.06-.44-.9-1.92.2-3.86.23-5.78.11-1.79-.1-3.57-.31-5.19-1.15-1.28-.66-2.38-1.32-3.39-2.34-.15-.15-.25-.61.03-.89.27-.28.84-.12,1.01.03,1.77,1.48,4.41,2.7,7.14,2.83,1.48.07,2.91.1,4.39.04.74-.03,1.86-.03,2.6-.04.38,0,1.42.11,1.62-.3.06-.12.05-.25.05-.39-.22-5.91-.65-12.58-6.84-15.4-4.61-2.11-11.53-5.38-14.45-6.73-.68-.32-1.47.19-1.47.94,0,1.97.1,4.81.1,7.39-1.4-1.43-3.76-2.33-5.56-3.15-2.04-.94-4.15-1.73-6.29-2.4-4.31-1.34-8.78-2.16-13.27-2.6-5.09-.51-10.27-.26-15.29.77C21.26,2.76,13.14,6.74,6.98,12.54,3.19,16.11.23,21.17.03,26.32c-.29,7.28,1.75,11.19,5.5,15.22,5.98,6.42,18.84,7.32,24.05-.3,2.34-3.43,2.85-8.07,1.15-11.86-1.7-3.79-5.61-6.52-9.76-6.66-3.22-.11-6.64,1.53-7.88,4.51-.94,2.27-.41,5.08,1.31,6.84.67.69,1.57,1.25,2.56,1.03.58-.13,1.07-.57,1.15-1.16.13-.87-.63-1.44-1.1-2.1-.85-1.21-.67-3.02.38-4.04.9-.87,2.22-1.12,3.46-1.12,1.16,0,2.34.21,3.34.79,1.41.83,2.34,2.34,2.66,3.94.97,4.78-2.92,8.66-8.19,8.97-2.7.16-5.44-.55-7.54-2.24-5.33-4.29-6.63-13.05-.54-17.73,5.78-4.44,13.08-3.29,17.38-.99,3.45,1.85,6.01,4.87,7.96,8.21.98,1.68,1.81,3.43,2.58,5.21.74,1.71,1.44,3.44,2.92,4.7.98.83,2.2.8,3.49.8h7.36c1,0,.76-.67.32-1.11-.97-1-2.38-1.22-3.67-1.58-2.96-.82-2.66-4.74-1.84-4.74,2.65,0,2.73.08,5.06.05,3.35-.05,4.36-.24,6.99.73,1.4.52,2.75,1.89,3.63,3.14"/>
  </g>
  <g>
    <path d="M10.64,87.21c-2.08,0-3.89-.39-5.44-1.16-1.55-.77-2.87-1.8-3.96-3.08l3.04-3.04c1.09,1.12,2.16,1.92,3.2,2.4s2.15.72,3.32.72c1.57,0,2.81-.37,3.7-1.1.89-.73,1.34-1.69,1.34-2.86,0-.91-.25-1.65-.76-2.22-.51-.57-1.17-1.04-2-1.4-.83-.36-1.74-.68-2.74-.96s-1.99-.59-2.98-.94c-.99-.35-1.89-.8-2.72-1.36-.83-.56-1.49-1.29-2-2.2-.51-.91-.76-2.04-.76-3.4,0-1.76.4-3.27,1.2-4.54.8-1.27,1.94-2.25,3.42-2.94,1.48-.69,3.19-1.04,5.14-1.04,1.81,0,3.45.32,4.9.96,1.45.64,2.65,1.49,3.58,2.56l-3.12,3.12c-.8-.83-1.63-1.45-2.48-1.86s-1.83-.62-2.92-.62c-1.47,0-2.64.35-3.52,1.06-.88.71-1.32,1.65-1.32,2.82,0,.85.25,1.55.76,2.08s1.18.95,2.02,1.26,1.76.59,2.76.84c1,.25,2.01.55,3.02.9,1.01.35,1.93.8,2.76,1.36.83.56,1.49,1.31,2,2.24.51.93.76,2.12.76,3.56,0,1.79-.43,3.34-1.28,4.66s-2.05,2.35-3.58,3.08c-1.53.73-3.31,1.1-5.34,1.1Z"/>
    <path d="M36,87.21c-3.28,0-5.91-.85-7.88-2.54-1.97-1.69-2.96-4.26-2.96-7.7v-18.32h4.92v17.92c0,2.03.53,3.55,1.6,4.56,1.07,1.01,2.51,1.52,4.32,1.52s3.26-.51,4.34-1.52,1.62-2.53,1.62-4.56v-17.92h4.92v18.32c0,2.27-.45,4.16-1.36,5.68-.91,1.52-2.17,2.66-3.8,3.42-1.63.76-3.53,1.14-5.72,1.14Z"/>
    <path d="M60.4,87.21c-2.08,0-3.89-.39-5.44-1.16-1.55-.77-2.87-1.8-3.96-3.08l3.04-3.04c1.09,1.12,2.16,1.92,3.2,2.4s2.15.72,3.32.72c1.57,0,2.81-.37,3.7-1.1s1.34-1.69,1.34-2.86c0-.91-.25-1.65-.76-2.22-.51-.57-1.17-1.04-2-1.4-.83-.36-1.74-.68-2.74-.96s-1.99-.59-2.98-.94c-.99-.35-1.89-.8-2.72-1.36-.83-.56-1.49-1.29-2-2.2-.51-.91-.76-2.04-.76-3.4,0-1.76.4-3.27,1.2-4.54.8-1.27,1.94-2.25,3.42-2.94,1.48-.69,3.19-1.04,5.14-1.04,1.81,0,3.45.32,4.9.96s2.65,1.49,3.58,2.56l-3.12,3.12c-.8-.83-1.63-1.45-2.48-1.86-.85-.41-1.83-.62-2.92-.62-1.47,0-2.64.35-3.52,1.06-.88.71-1.32,1.65-1.32,2.82,0,.85.25,1.55.76,2.08.51.53,1.18.95,2.02,1.26s1.76.59,2.76.84c1,.25,2.01.55,3.02.9,1.01.35,1.93.8,2.76,1.36.83.56,1.49,1.31,2,2.24.51.93.76,2.12.76,3.56,0,1.79-.43,3.34-1.28,4.66-.85,1.32-2.05,2.35-3.58,3.08-1.53.73-3.31,1.1-5.34,1.1Z"/>
    <path d="M79.56,86.65c-1.36,0-2.47-.44-3.34-1.32-.87-.88-1.3-2-1.3-3.36v-18.64c0-1.36.43-2.48,1.3-3.36.87-.88,1.98-1.32,3.34-1.32h13.64v4.48h-12c-.4,0-.74.14-1.02.42s-.42.62-.42,1.02v16.16c0,.4.14.74.42,1.02.28.28.62.42,1.02.42h12v4.48h-13.64ZM77.28,74.73v-4.28h15.08v4.28h-15.08Z"/>
    <path d="M105.64,61.09v-2.44h12.84v2.44h-12.84ZM105.64,86.65v-2.44h12.84v2.44h-12.84ZM110.68,85.81v-26.32h2.68v26.32h-2.68Z"/>
    <path d="M120.56,61.09v-2.44h20.04v2.44h-20.04ZM129.24,86.65v-26.84h2.68v26.84h-2.68Z"/>
    <path d="M153,86.65v-28h8.32c1.84,0,3.44.33,4.8.98,1.36.65,2.42,1.59,3.18,2.82s1.14,2.71,1.14,4.44-.38,3.21-1.14,4.44-1.82,2.17-3.18,2.82c-1.36.65-2.96.98-4.8.98h-7.04v-2.28h7.16c1.89,0,3.43-.53,4.62-1.6,1.19-1.07,1.78-2.52,1.78-4.36s-.59-3.25-1.78-4.3-2.73-1.58-4.62-1.58h-6.88l1.12-1.08v26.72h-2.68Z"/>
    <path d="M175.4,86.65v-28h3.56l9.28,18.68h-1.2l9.24-18.68h3.56v28h-2.6v-26.24h.84l-9.36,19.2h-2.2l-9.32-19.2h.84v26.24h-2.64Z"/>
    <path d="M219,87.09c-2.59,0-4.89-.61-6.92-1.82-2.03-1.21-3.61-2.9-4.76-5.06s-1.72-4.67-1.72-7.52v-.36c0-2.8.57-5.26,1.72-7.38,1.15-2.12,2.73-3.77,4.76-4.96,2.03-1.19,4.33-1.78,6.92-1.78s4.93.59,6.94,1.78c2.01,1.19,3.59,2.84,4.74,4.96,1.15,2.12,1.72,4.58,1.72,7.38v.36c0,2.85-.57,5.36-1.72,7.52-1.15,2.16-2.73,3.85-4.74,5.06-2.01,1.21-4.33,1.82-6.94,1.82ZM219,84.49c2.08,0,3.92-.49,5.52-1.48,1.6-.99,2.86-2.36,3.78-4.12.92-1.76,1.38-3.83,1.38-6.2v-.36c0-2.29-.46-4.31-1.38-6.04-.92-1.73-2.18-3.08-3.78-4.04-1.6-.96-3.44-1.44-5.52-1.44s-3.92.48-5.52,1.44c-1.6.96-2.86,2.31-3.78,4.04s-1.38,3.75-1.38,6.04v.36c0,2.37.46,4.44,1.38,6.2s2.18,3.13,3.78,4.12c1.6.99,3.44,1.48,5.52,1.48Z"/>
    <path d="M.56,101.09v-2.44h20.04v2.44H.56ZM9.24,126.65v-26.84h2.68v26.84h-2.68Z"/>
    <path d="M28.76,127.05c-1.87,0-3.52-.42-4.96-1.26-1.44-.84-2.56-2-3.36-3.48-.8-1.48-1.2-3.19-1.2-5.14v-.4c0-1.87.37-3.52,1.1-4.96.73-1.44,1.77-2.58,3.12-3.42,1.35-.84,2.89-1.26,4.62-1.26s3.32.44,4.6,1.32,2.23,2.12,2.84,3.72c.61,1.6.79,3.47.52,5.6h-14.96v-2.12h13.6l-1.12,1.12c.19-1.52.07-2.83-.36-3.94-.43-1.11-1.08-1.96-1.96-2.56-.88-.6-1.92-.9-3.12-.9-1.31,0-2.43.31-3.38.94-.95.63-1.68,1.49-2.2,2.6-.52,1.11-.78,2.39-.78,3.86v.4c0,1.47.29,2.77.88,3.9.59,1.13,1.41,2.02,2.48,2.66,1.07.64,2.32.96,3.76.96,1.01,0,1.94-.13,2.78-.4.84-.27,1.55-.65,2.14-1.16l1.44,1.64c-.72.72-1.64,1.28-2.76,1.68-1.12.4-2.36.6-3.72.6Z"/>
    <path d="M46.76,127.05c-2.24,0-4.02-.51-5.34-1.54s-1.98-2.38-1.98-4.06c0-1.09.29-2.07.88-2.94.59-.87,1.45-1.55,2.6-2.06,1.15-.51,2.52-.76,4.12-.76,2.21,0,3.93.49,5.14,1.48,1.21.99,1.82,2.29,1.82,3.92h-.48c0,1.87-.56,3.33-1.68,4.38s-2.81,1.58-5.08,1.58ZM52.64,126.65l-.04-6.96-.28-.76v-4.68c0-1.65-.41-2.87-1.24-3.64-.83-.77-2.03-1.16-3.6-1.16-1.04,0-2.11.2-3.22.6-1.11.4-2.07,1.01-2.9,1.84l-1.24-1.8c.91-.99,2.02-1.73,3.34-2.22,1.32-.49,2.69-.74,4.1-.74s2.71.26,3.8.78c1.09.52,1.95,1.3,2.56,2.34s.92,2.36.92,3.96v6.08c0,1.07,0,2.13.02,3.18.01,1.05.05,2.11.1,3.18h-2.32ZM47.24,125.09c1.6,0,2.85-.34,3.74-1.02.89-.68,1.34-1.57,1.34-2.66s-.45-2.01-1.34-2.66c-.89-.65-2.15-.98-3.78-.98s-2.87.33-3.8.98c-.93.65-1.4,1.54-1.4,2.66s.47,1.98,1.4,2.66c.93.68,2.21,1.02,3.84,1.02Z"/>
    <path d="M60.96,126.65v-19.12h2.44v4.92l-.6-.04c.4-1.33.97-2.38,1.72-3.14.75-.76,1.58-1.31,2.5-1.64.92-.33,1.82-.5,2.7-.5,1.68,0,3.1.44,4.26,1.32s1.94,2.24,2.34,4.08h-.92c.45-1.39,1.09-2.47,1.9-3.26.81-.79,1.7-1.34,2.66-1.66s1.87-.48,2.72-.48c2.11,0,3.8.67,5.08,2.02s1.92,3.43,1.92,6.26v11.24h-2.48v-10.96c0-2.21-.47-3.8-1.4-4.76-.93-.96-2.16-1.44-3.68-1.44s-2.85.53-3.92,1.58c-1.07,1.05-1.6,2.58-1.6,4.58v11h-2.52v-10.96c0-2.21-.46-3.8-1.38-4.76s-2.14-1.44-3.66-1.44-2.89.53-3.96,1.58c-1.07,1.05-1.6,2.58-1.6,4.58v11h-2.52Z"/>
  </g>
</svg>