<?xml version="1.0" encoding="UTF-8"?>
<svg id="Layer_2" data-name="Layer 2" xmlns="http://www.w3.org/2000/svg" viewBox="0 0 369.04 111.99">
  <defs>
    <style>
      .cls-1 {
        fill: #30ba78;
      }

      .cls-2 {
        fill: #f2f2f2;
      }
    </style>
  </defs>
  <g>
    <path class="cls-2" d="M112.95,53.61c-2.08,0-3.89-.39-5.44-1.16-1.55-.77-2.87-1.8-3.96-3.08l3.04-3.04c1.09,1.12,2.16,1.92,3.2,2.4,1.04.48,2.15.72,3.32.72,1.57,0,2.81-.37,3.7-1.1.89-.73,1.34-1.69,1.34-2.86,0-.91-.25-1.65-.76-2.22-.51-.57-1.17-1.04-2-1.4-.83-.36-1.74-.68-2.74-.96-1-.28-1.99-.59-2.98-.94-.99-.35-1.89-.8-2.72-1.36-.83-.56-1.49-1.29-2-2.2s-.76-2.04-.76-3.4c0-1.76.4-3.27,1.2-4.54s1.94-2.25,3.42-2.94,3.19-1.04,5.14-1.04c1.81,0,3.45.32,4.9.96,1.45.64,2.65,1.49,3.58,2.56l-3.12,3.12c-.8-.83-1.63-1.45-2.48-1.86-.85-.41-1.83-.62-2.92-.62-1.47,0-2.64.35-3.52,1.06-.88.71-1.32,1.65-1.32,2.82,0,.85.25,1.55.76,2.08.51.53,1.18.95,2.02,1.26s1.76.59,2.76.84c1,.25,2.01.55,3.02.9,1.01.35,1.93.8,2.76,1.36.83.56,1.49,1.31,2,2.24.51.93.76,2.12.76,3.56,0,1.79-.43,3.34-1.28,4.66s-2.05,2.35-3.58,3.08c-1.53.73-3.31,1.1-5.34,1.1Z"/>
    <path class="cls-2" d="M138.31,53.61c-3.28,0-5.91-.85-7.88-2.54-1.97-1.69-2.96-4.26-2.96-7.7v-18.32h4.92v17.92c0,2.03.53,3.55,1.6,4.56,1.07,1.01,2.51,1.52,4.32,1.52s3.26-.51,4.34-1.52,1.62-2.53,1.62-4.56v-17.92h4.92v18.32c0,2.27-.45,4.16-1.36,5.68-.91,1.52-2.17,2.66-3.8,3.42-1.63.76-3.53,1.14-5.72,1.14Z"/>
    <path class="cls-2" d="M162.71,53.61c-2.08,0-3.89-.39-5.44-1.16-1.55-.77-2.87-1.8-3.96-3.08l3.04-3.04c1.09,1.12,2.16,1.92,3.2,2.4,1.04.48,2.15.72,3.32.72,1.57,0,2.81-.37,3.7-1.1.89-.73,1.34-1.69,1.34-2.86,0-.91-.25-1.65-.76-2.22-.51-.57-1.17-1.04-2-1.4-.83-.36-1.74-.68-2.74-.96-1-.28-1.99-.59-2.98-.94-.99-.35-1.89-.8-2.72-1.36-.83-.56-1.49-1.29-2-2.2s-.76-2.04-.76-3.4c0-1.76.4-3.27,1.2-4.54s1.94-2.25,3.42-2.94,3.19-1.04,5.14-1.04c1.81,0,3.45.32,4.9.96,1.45.64,2.65,1.49,3.58,2.56l-3.12,3.12c-.8-.83-1.63-1.45-2.48-1.86-.85-.41-1.83-.62-2.92-.62-1.47,0-2.64.35-3.52,1.06-.88.71-1.32,1.65-1.32,2.82,0,.85.25,1.55.76,2.08.51.53,1.18.95,2.02,1.26s1.76.59,2.76.84c1,.25,2.01.55,3.02.9,1.01.35,1.93.8,2.76,1.36.83.56,1.49,1.31,2,2.24.51.93.76,2.12.76,3.56,0,1.79-.43,3.34-1.28,4.66s-2.05,2.35-3.58,3.08c-1.53.73-3.31,1.1-5.34,1.1Z"/>
    <path class="cls-2" d="M181.87,53.05c-1.36,0-2.47-.44-3.34-1.32s-1.3-2-1.3-3.36v-18.64c0-1.36.43-2.48,1.3-3.36s1.98-1.32,3.34-1.32h13.64v4.48h-12c-.4,0-.74.14-1.02.42s-.42.62-.42,1.02v16.16c0,.4.14.74.42,1.02s.62.42,1.02.42h12v4.48h-13.64ZM179.59,41.13v-4.28h15.08v4.28h-15.08Z"/>
    <path class="cls-2" d="M216.87,53.53c-1.97,0-3.7-.35-5.18-1.06-1.48-.71-2.73-1.67-3.74-2.9l2.16-2.16c.99,1.09,2.05,1.9,3.18,2.42,1.13.52,2.37.78,3.7.78,1.87,0,3.34-.47,4.42-1.4,1.08-.93,1.62-2.15,1.62-3.64,0-1.07-.26-1.93-.78-2.58-.52-.65-1.21-1.18-2.08-1.58-.87-.4-1.81-.74-2.84-1.02-1.03-.28-2.05-.59-3.08-.92-1.03-.33-1.97-.77-2.84-1.3-.87-.53-1.56-1.23-2.08-2.1-.52-.87-.78-1.99-.78-3.38,0-1.65.39-3.09,1.16-4.3.77-1.21,1.86-2.15,3.26-2.82,1.4-.67,3.03-1,4.9-1,1.68,0,3.19.27,4.52.82,1.33.55,2.44,1.31,3.32,2.3l-2.2,2.2c-.77-.8-1.62-1.4-2.54-1.8s-1.95-.6-3.1-.6c-1.79,0-3.22.45-4.3,1.34s-1.62,2.07-1.62,3.54c0,1.01.27,1.82.8,2.42.53.6,1.23,1.08,2.08,1.44.85.36,1.8.67,2.84.94s2.08.57,3.12.9c1.04.33,1.99.77,2.86,1.3s1.57,1.25,2.1,2.16c.53.91.8,2.09.8,3.56,0,1.71-.41,3.19-1.22,4.46-.81,1.27-1.95,2.25-3.4,2.94-1.45.69-3.14,1.04-5.06,1.04Z"/>
    <path class="cls-2" d="M238.07,53.45c-1.41,0-2.68-.28-3.8-.84-1.12-.56-2.01-1.42-2.66-2.58-.65-1.16-.98-2.66-.98-4.5v-11.72h3.24v11.16c0,1.36.21,2.45.62,3.26.41.81.99,1.39,1.72,1.74.73.35,1.57.52,2.5.52s1.84-.21,2.64-.64c.8-.43,1.45-1.07,1.94-1.94s.74-1.94.74-3.22v-10.88h3.2v19.24h-2.84v-5.2h.92c-.29,1.09-.71,2-1.24,2.72-.53.72-1.15,1.29-1.84,1.72-.69.43-1.4.73-2.12.9-.72.17-1.4.26-2.04.26Z"/>
    <path class="cls-2" d="M253.23,53.05v-19.24h3.08v5.04l-.8-.04c.4-1.39.97-2.47,1.72-3.24.75-.77,1.58-1.33,2.5-1.66s1.82-.5,2.7-.5c1.65,0,3.06.43,4.22,1.3,1.16.87,1.94,2.21,2.34,4.02h-1.2c.45-1.39,1.1-2.47,1.94-3.24s1.74-1.31,2.7-1.62,1.85-.46,2.68-.46c2.11,0,3.81.67,5.1,2.02,1.29,1.35,1.94,3.41,1.94,6.18v11.44h-3.16v-11.04c0-2-.43-3.44-1.28-4.32-.85-.88-1.97-1.32-3.36-1.32s-2.64.49-3.6,1.46c-.96.97-1.44,2.37-1.44,4.18v11.04h-3.2v-11.04c0-2-.42-3.44-1.26-4.32s-1.95-1.32-3.34-1.32-2.65.49-3.62,1.46c-.97.97-1.46,2.37-1.46,4.18v11.04h-3.2Z"/>
    <path class="cls-2" d="M287.91,53.05v-19.24h3.08v5.04l-.8-.04c.4-1.39.97-2.47,1.72-3.24.75-.77,1.58-1.33,2.5-1.66s1.82-.5,2.7-.5c1.65,0,3.06.43,4.22,1.3,1.16.87,1.94,2.21,2.34,4.02h-1.2c.45-1.39,1.1-2.47,1.94-3.24s1.74-1.31,2.7-1.62,1.85-.46,2.68-.46c2.11,0,3.81.67,5.1,2.02,1.29,1.35,1.94,3.41,1.94,6.18v11.44h-3.16v-11.04c0-2-.43-3.44-1.28-4.32-.85-.88-1.97-1.32-3.36-1.32s-2.64.49-3.6,1.46c-.96.97-1.44,2.37-1.44,4.18v11.04h-3.2v-11.04c0-2-.42-3.44-1.26-4.32s-1.95-1.32-3.34-1.32-2.65.49-3.62,1.46c-.97.97-1.46,2.37-1.46,4.18v11.04h-3.2Z"/>
    <path class="cls-2" d="M323.74,53.05v-17.88l1.44,1.44h-5.16v-2.8h6.96v19.24h-3.24ZM323.63,29.57v-4.64h3.52v4.64h-3.52Z"/>
    <path class="cls-2" d="M330.75,36.61v-2.8h11.76v2.8h-11.76ZM339.55,53.05c-.64,0-1.28-.09-1.92-.28-.64-.19-1.21-.48-1.72-.88-.51-.4-.91-.93-1.2-1.58-.29-.65-.44-1.45-.44-2.38v-18.88h3.2v19.08c0,.61.21,1.13.62,1.54.41.41.91.62,1.5.62h2.92v2.76h-2.96Z"/>
    <path class="cls-2" d="M102.7,69.16v-1.71h14.03v1.71h-14.03ZM108.78,87.05v-18.79h1.88v18.79h-1.88Z"/>
    <path class="cls-2" d="M122.33,87.33c-1.27,0-2.4-.29-3.39-.88-.99-.59-1.76-1.4-2.32-2.44-.56-1.04-.84-2.24-.84-3.6v-.25c0-1.33.28-2.5.84-3.51.56-1.02,1.33-1.81,2.32-2.39.99-.58,2.12-.87,3.39-.87s2.37.29,3.36.85c.99.57,1.76,1.36,2.32,2.38.56,1.02.84,2.18.84,3.49v.31c0,1.36-.28,2.56-.84,3.6-.56,1.04-1.33,1.85-2.32,2.44-.99.59-2.11.88-3.36.88ZM122.33,85.74c.93,0,1.76-.23,2.48-.69.72-.46,1.28-1.08,1.68-1.88.4-.79.6-1.71.6-2.76v-.31c0-1.01-.2-1.89-.6-2.66s-.96-1.37-1.68-1.81c-.72-.44-1.54-.66-2.48-.66s-1.76.22-2.48.67c-.72.45-1.28,1.06-1.69,1.83-.41.77-.62,1.67-.62,2.67v.25c0,1.04.21,1.96.62,2.76.41.79.98,1.42,1.69,1.88.72.46,1.54.69,2.48.69Z"/>
    <path class="cls-2" d="M132.35,87.05v-20.44h1.79v20.44h-1.79ZM133.28,83.69l-.11-2.21,7.73-7.81h2.21l-9.83,10.02ZM141.42,87.05l-5.35-7.56,1.32-1.2,6.24,8.76h-2.21Z"/>
    <path class="cls-2" d="M150.05,87.81l-5.82-14.14h1.96l4.93,12.24-1.06,1.9ZM144.42,92.65v-1.54h2.55c.47,0,.83-.16,1.11-.49.27-.33.49-.71.66-1.13l1.76-3.89,4.62-11.93h1.96l-6.52,15.88c-.21.5-.45.99-.74,1.47-.29.48-.67.87-1.13,1.18-.47.31-1.06.46-1.79.46h-2.46Z"/>
    <path class="cls-2" d="M165.08,87.33c-1.27,0-2.4-.29-3.39-.88-.99-.59-1.76-1.4-2.32-2.44-.56-1.04-.84-2.24-.84-3.6v-.25c0-1.33.28-2.5.84-3.51.56-1.02,1.33-1.81,2.32-2.39.99-.58,2.12-.87,3.39-.87s2.37.29,3.36.85c.99.57,1.76,1.36,2.32,2.38.56,1.02.84,2.18.84,3.49v.31c0,1.36-.28,2.56-.84,3.6-.56,1.04-1.33,1.85-2.32,2.44-.99.59-2.11.88-3.36.88ZM165.08,85.74c.93,0,1.76-.23,2.48-.69.72-.46,1.28-1.08,1.68-1.88.4-.79.6-1.71.6-2.76v-.31c0-1.01-.2-1.89-.6-2.66s-.96-1.37-1.68-1.81c-.72-.44-1.54-.66-2.48-.66s-1.76.22-2.48.67c-.72.45-1.28,1.06-1.69,1.83-.41.77-.62,1.67-.62,2.67v.25c0,1.04.21,1.96.62,2.76.41.79.98,1.42,1.69,1.88.72.46,1.54.69,2.48.69Z"/>
  </g>
  <g id="Layer_1" data-name="Layer 1">
    <path class="cls-1" d="M90.79,35.28c-.44-.46-1.17-.46-1.62,0-.5.5-.44,1.36.18,1.77.38.25.88.25,1.26,0,.62-.41.68-1.27.18-1.77M89.3,31.38c-3.06-.72-5.81,2.03-5.09,5.09.36,1.56,1.6,2.8,3.16,3.16,3.06.72,5.81-2.03,5.09-5.1-.37-1.56-1.6-2.8-3.16-3.16M69.09,48.62c-2-.74-2.77-.59-5.32-.56-1.77.02-1.83-.04-3.85-.04-.62,0-.85,2.99,1.4,3.61.99.27,2.05.44,2.8,1.2.33.33.51.84-.25.84h-5.6c-.98,0-1.91.02-2.65-.61-1.13-.95-1.66-2.27-2.22-3.57-.59-1.36-1.22-2.69-1.96-3.97-1.48-2.54-3.43-4.84-6.06-6.25-3.27-1.76-8.83-2.63-13.23.75-4.64,3.56-3.64,10.23.41,13.49,1.6,1.29,3.69,1.83,5.74,1.71,4.01-.23,6.97-3.19,6.23-6.83-.24-1.22-.96-2.37-2.03-3-.76-.44-1.66-.6-2.55-.61-.95,0-1.95.19-2.64.85-.81.78-.94,2.16-.29,3.08.36.51.94.94.84,1.6-.07.45-.44.78-.88.88-.75.17-1.44-.26-1.95-.78-1.31-1.34-1.71-3.48-1-5.21.94-2.26,3.55-3.51,6-3.43,3.16.11,6.13,2.19,7.43,5.07,1.3,2.88.91,6.42-.88,9.03-3.97,5.8-13.76,5.11-18.31.22-2.85-3.07-4.41-6.04-4.19-11.58.15-3.92,2.41-7.77,5.29-10.49,4.69-4.42,10.87-7.45,17.16-8.75,3.82-.79,7.76-.97,11.64-.59,3.42.34,6.82.97,10.1,1.98,1.63.51,3.23,1.11,4.79,1.82,1.37.63,3.16,1.31,4.23,2.4,0-1.96-.08-4.12-.08-5.63,0-.57.6-.96,1.12-.72,2.22,1.03,7.49,3.52,11,5.13,4.71,2.15,5.04,7.23,5.21,11.73,0,.1,0,.2-.04.29-.15.31-.94.23-1.23.23-.56,0-1.41,0-1.97.03-1.12.05-2.22.03-3.34-.03-2.08-.1-4.09-1.03-5.43-2.15-.13-.11-.57-.24-.77-.02-.21.22-.14.56-.02.68.77.78,1.61,1.28,2.58,1.79,1.24.63,2.58.8,3.95.87,1.46.09,2.94.07,4.4-.08,1.22-.12,1.53-.21.33.69-1.06.79-2.28,1.35-3.53,1.77-1.78.61-3.67.91-5.55.96-1.14.03-2.28-.03-3.41-.18-.58-.07-1.17-.18-1.75-.24-.48-.05-.97-.14-1.45-.04-.43.09-.83.33-1.1.68-.37.48-.5,1.82-.29,2.4.42,1.12,1.33,1.77,2.29,2.34,1.05.62,2.42.83,2.69,2.02.06.25-2.16.25-2.42.25h-2.95s-1.61.04-2.23-.19c-.02,0-.04-.02-.06-.02-.34-.18-.49-.64-.6-.98-.17-.49-.45-.97-.81-1.48-.67-.95-1.69-1.99-2.76-2.39M91.46,35.51c0,1.73-1.4,3.13-3.13,3.13s-3.13-1.4-3.13-3.13,1.4-3.13,3.13-3.13,3.13,1.4,3.13,3.13"/>
  </g>
</svg>