<?xml version="1.0" encoding="UTF-8"?>
<svg xmlns="http://www.w3.org/2000/svg" viewBox="0 0 369.04 111.99">
  <defs>
    <style>
      .cls-1 {
        fill: #0d322c;
      }

      .cls-2 {
        fill: #30ba78;
      }
    </style>
  </defs>
  <g id="Text">
    <g id="Layer_1-3" data-name="Layer 1-3">
      <path class="cls-2" d="M76.87,36.97c-.38.25-.88.25-1.26,0-.62-.41-.68-1.27-.18-1.77.44-.46,1.18-.46,1.62,0,.5.5.44,1.36-.18,1.77M78.67,34.46c.72,3.06-2.03,5.81-5.1,5.1-1.56-.37-2.8-1.61-3.16-3.16-.72-3.06,2.03-5.81,5.09-5.1,1.56.37,2.8,1.6,3.16,3.16M58.05,50.93c.35.5.64.99.81,1.47.11.34.27.8.6.98.02,0,.04.02.06.02.62.23,2.23.19,2.23.19h2.96c.25,0,2.47,0,2.42-.25-.27-1.19-1.64-1.4-2.68-2.02-.96-.57-1.87-1.23-2.29-2.35-.21-.58-.08-1.91.28-2.4.27-.35.67-.59,1.1-.68.48-.1.97-.02,1.45.04.59.06,1.17.17,1.75.24,1.13.14,2.27.21,3.41.18,1.88-.05,3.76-.35,5.55-.96,1.24-.42,2.47-.98,3.53-1.77,1.2-.89.88-.81-.34-.69-1.46.15-2.93.18-4.4.08-1.36-.08-2.71-.24-3.95-.88-.98-.5-1.81-1.01-2.58-1.78-.11-.11-.19-.46.02-.68.21-.21.64-.09.77.02,1.35,1.13,3.36,2.05,5.43,2.16,1.13.05,2.22.08,3.35.03.56-.02,1.41-.02,1.97-.03.29,0,1.08.08,1.23-.23.05-.09.04-.19.04-.3-.17-4.5-.5-9.58-5.2-11.73-3.51-1.61-8.79-4.1-11-5.13-.52-.24-1.12.14-1.12.72,0,1.5.08,3.67.08,5.63-1.07-1.08-2.86-1.77-4.23-2.4-1.55-.72-3.15-1.32-4.79-1.83-3.28-1.02-6.68-1.65-10.1-1.98-3.88-.39-7.82-.2-11.64.59-6.29,1.31-12.47,4.34-17.16,8.76-2.88,2.72-5.14,6.58-5.29,10.49-.22,5.54,1.33,8.52,4.19,11.59,4.55,4.89,14.35,5.57,18.31-.22,1.78-2.61,2.17-6.15.88-9.03-1.3-2.88-4.27-4.97-7.43-5.07-2.45-.08-5.06,1.17-6,3.43-.72,1.73-.31,3.86,1,5.21.51.53,1.2.95,1.95.78.44-.1.82-.43.88-.88.1-.66-.48-1.09-.84-1.6-.65-.92-.51-2.3.29-3.08.68-.66,1.69-.85,2.64-.85.88,0,1.78.16,2.55.6,1.07.62,1.78,1.78,2.03,3,.73,3.64-2.23,6.6-6.24,6.83-2.05.12-4.15-.42-5.75-1.71-4.05-3.26-5.05-9.94-.41-13.5,4.4-3.38,9.96-2.51,13.24-.75,2.62,1.4,4.58,3.7,6.06,6.25.75,1.28,1.38,2.61,1.97,3.97.56,1.3,1.1,2.62,2.23,3.57.75.63,1.68.61,2.65.61h5.6c.76,0,.58-.51.24-.85-.74-.76-1.81-.93-2.8-1.2-2.26-.62-2.03-3.61-1.4-3.61,2.02,0,2.08.06,3.85.04,2.55-.04,3.32-.18,5.32.56,1.07.4,2.1,1.44,2.76,2.39"/>
    </g>
    <g>
      <path class="cls-1" d="M99.14,53.55c-2.08,0-3.89-.39-5.44-1.16-1.55-.77-2.87-1.8-3.96-3.08l3.04-3.04c1.09,1.12,2.16,1.92,3.2,2.4,1.04.48,2.15.72,3.32.72,1.57,0,2.81-.37,3.7-1.1.89-.73,1.34-1.69,1.34-2.86,0-.91-.25-1.65-.76-2.22-.51-.57-1.17-1.04-2-1.4-.83-.36-1.74-.68-2.74-.96-1-.28-1.99-.59-2.98-.94-.99-.35-1.89-.8-2.72-1.36-.83-.56-1.49-1.29-2-2.2s-.76-2.04-.76-3.4c0-1.76.4-3.27,1.2-4.54s1.94-2.25,3.42-2.94,3.19-1.04,5.14-1.04c1.81,0,3.45.32,4.9.96,1.45.64,2.65,1.49,3.58,2.56l-3.12,3.12c-.8-.83-1.63-1.45-2.48-1.86-.85-.41-1.83-.62-2.92-.62-1.47,0-2.64.35-3.52,1.06-.88.71-1.32,1.65-1.32,2.82,0,.85.25,1.55.76,2.08.51.53,1.18.95,2.02,1.26s1.76.59,2.76.84c1,.25,2.01.55,3.02.9,1.01.35,1.93.8,2.76,1.36.83.56,1.49,1.31,2,2.24.51.93.76,2.12.76,3.56,0,1.79-.43,3.34-1.28,4.66s-2.05,2.35-3.58,3.08c-1.53.73-3.31,1.1-5.34,1.1Z"/>
      <path class="cls-1" d="M124.5,53.55c-3.28,0-5.91-.85-7.88-2.54-1.97-1.69-2.96-4.26-2.96-7.7v-18.32h4.92v17.92c0,2.03.53,3.55,1.6,4.56,1.07,1.01,2.51,1.52,4.32,1.52s3.26-.51,4.34-1.52,1.62-2.53,1.62-4.56v-17.92h4.92v18.32c0,2.27-.45,4.16-1.36,5.68-.91,1.52-2.17,2.66-3.8,3.42-1.63.76-3.53,1.14-5.72,1.14Z"/>
      <path class="cls-1" d="M148.9,53.55c-2.08,0-3.89-.39-5.44-1.16-1.55-.77-2.87-1.8-3.96-3.08l3.04-3.04c1.09,1.12,2.16,1.92,3.2,2.4,1.04.48,2.15.72,3.32.72,1.57,0,2.81-.37,3.7-1.1.89-.73,1.34-1.69,1.34-2.86,0-.91-.25-1.65-.76-2.22-.51-.57-1.17-1.04-2-1.4-.83-.36-1.74-.68-2.74-.96-1-.28-1.99-.59-2.98-.94-.99-.35-1.89-.8-2.72-1.36-.83-.56-1.49-1.29-2-2.2s-.76-2.04-.76-3.4c0-1.76.4-3.27,1.2-4.54s1.94-2.25,3.42-2.94,3.19-1.04,5.14-1.04c1.81,0,3.45.32,4.9.96,1.45.64,2.65,1.49,3.58,2.56l-3.12,3.12c-.8-.83-1.63-1.45-2.48-1.86-.85-.41-1.83-.62-2.92-.62-1.47,0-2.64.35-3.52,1.06-.88.71-1.32,1.65-1.32,2.82,0,.85.25,1.55.76,2.08.51.53,1.18.95,2.02,1.26s1.76.59,2.76.84c1,.25,2.01.55,3.02.9,1.01.35,1.93.8,2.76,1.36.83.56,1.49,1.31,2,2.24.51.93.76,2.12.76,3.56,0,1.79-.43,3.34-1.28,4.66s-2.05,2.35-3.58,3.08c-1.53.73-3.31,1.1-5.34,1.1Z"/>
      <path class="cls-1" d="M168.06,52.99c-1.36,0-2.47-.44-3.34-1.32s-1.3-2-1.3-3.36v-18.64c0-1.36.43-2.48,1.3-3.36s1.98-1.32,3.34-1.32h13.64v4.48h-12c-.4,0-.74.14-1.02.42s-.42.62-.42,1.02v16.16c0,.4.14.74.42,1.02s.62.42,1.02.42h12v4.48h-13.64ZM165.78,41.07v-4.28h15.08v4.28h-15.08Z"/>
      <path class="cls-1" d="M200.29,52.99c-1.28,0-2.34-.42-3.18-1.26s-1.26-1.9-1.26-3.18v-19.12c0-1.28.42-2.34,1.26-3.18s1.9-1.26,3.18-1.26h12.92v3.12h-11.84c-.61,0-1.13.21-1.54.62s-.62.91-.62,1.5v17.52c0,.59.21,1.09.62,1.5.41.41.93.62,1.54.62h11.84v3.12h-12.92ZM197.58,40.47v-3h14.8v3h-14.8Z"/>
      <path class="cls-1" d="M215.94,52.99l6.84-9.6-6.64-9.64h3.8l5,7.6,5-7.6h3.72l-6.64,9.64,6.76,9.6h-3.84l-5.12-7.48-5.08,7.48h-3.8Z"/>
      <path class="cls-1" d="M245.22,53.39c-1.89,0-3.58-.41-5.06-1.24-1.48-.83-2.65-1.98-3.5-3.46-.85-1.48-1.28-3.18-1.28-5.1v-.48c0-1.92.43-3.61,1.28-5.08.85-1.47,2.02-2.61,3.5-3.44,1.48-.83,3.17-1.24,5.06-1.24,1.41,0,2.7.25,3.86.76s2.14,1.24,2.94,2.2l-2,2c-.61-.64-1.32-1.13-2.12-1.46s-1.69-.5-2.68-.5c-1.25,0-2.39.28-3.4.84-1.01.56-1.81,1.35-2.38,2.36-.57,1.01-.86,2.2-.86,3.56v.48c0,1.36.29,2.55.88,3.56s1.38,1.81,2.38,2.38,2.14.86,3.42.86c.96,0,1.85-.15,2.66-.46s1.54-.79,2.18-1.46l1.96,1.96c-.77.93-1.75,1.66-2.94,2.18-1.19.52-2.49.78-3.9.78Z"/>
      <path class="cls-1" d="M256.18,52.99v-29.2h3.12v15.16h-.88c.29-1.09.71-2,1.26-2.72.55-.72,1.16-1.29,1.84-1.72.68-.43,1.38-.73,2.1-.9.72-.17,1.4-.26,2.04-.26,2.16,0,3.91.69,5.26,2.08,1.35,1.39,2.02,3.47,2.02,6.24v11.32h-3.24v-10.84c0-2.05-.46-3.54-1.38-4.46s-2.09-1.38-3.5-1.38c-.99,0-1.89.23-2.7.68-.81.45-1.47,1.11-1.96,1.98-.49.87-.74,1.94-.74,3.22v10.8h-3.24Z"/>
      <path class="cls-1" d="M284.62,53.39c-2.27,0-4.07-.52-5.4-1.56-1.33-1.04-2-2.41-2-4.12,0-1.09.3-2.09.9-3,.6-.91,1.48-1.63,2.64-2.16,1.16-.53,2.57-.8,4.22-.8,2.21,0,3.93.5,5.16,1.5,1.23,1,1.84,2.33,1.84,3.98h-.64c0,1.97-.56,3.49-1.68,4.56-1.12,1.07-2.8,1.6-5.04,1.6ZM290.29,52.99v-7.28l-.4-1.08v-4.08c0-1.44-.37-2.51-1.12-3.22-.75-.71-1.87-1.06-3.36-1.06-.99,0-2.03.2-3.12.6-1.09.4-2.07.99-2.92,1.76l-1.52-2.28c.93-.96,2.08-1.7,3.44-2.22,1.36-.52,2.77-.78,4.24-.78s2.81.27,3.94.8c1.13.53,2.02,1.33,2.66,2.38.64,1.05.96,2.38.96,3.98v6.16c0,1.07,0,2.12.02,3.16.01,1.04.05,2.09.1,3.16h-2.92ZM285.21,50.95c1.44,0,2.58-.3,3.42-.9.84-.6,1.26-1.41,1.26-2.42s-.41-1.81-1.24-2.4c-.83-.59-1.97-.88-3.44-.88s-2.63.29-3.48.88-1.28,1.39-1.28,2.4.43,1.82,1.3,2.42c.87.6,2.02.9,3.46.9Z"/>
      <path class="cls-1" d="M298.9,52.99v-19.24h3.12v5.2h-.88c.29-1.09.71-2,1.26-2.72.55-.72,1.16-1.29,1.84-1.72.68-.43,1.38-.73,2.1-.9.72-.17,1.4-.26,2.04-.26,2.16,0,3.91.69,5.26,2.08,1.35,1.39,2.02,3.47,2.02,6.24v11.32h-3.24v-10.84c0-2.05-.46-3.54-1.38-4.46s-2.09-1.38-3.5-1.38c-.99,0-1.89.23-2.7.68-.81.45-1.47,1.11-1.96,1.98-.49.87-.74,1.94-.74,3.22v10.8h-3.24Z"/>
      <path class="cls-1" d="M319.49,60.99v-2.72h11.48c.91,0,1.61-.22,2.12-.66.51-.44.76-1.06.76-1.86,0-.75-.25-1.33-.76-1.74-.51-.41-1.21-.62-2.12-.62h-6.32c-.99,0-1.75-.24-2.28-.72-.53-.48-.83-1.08-.9-1.8s.09-1.44.46-2.16l1.8-3.6,2.76.72-1.64,3.2c-.11.24-.18.5-.22.78-.04.28.03.51.22.7.19.19.49.28.92.28h5.64c1.65,0,2.98.42,3.98,1.26,1,.84,1.5,2.09,1.5,3.74,0,1.01-.23,1.91-.7,2.7-.47.79-1.12,1.4-1.96,1.84-.84.44-1.83.66-2.98.66h-11.76ZM328.29,47.43c-1.6,0-3.02-.3-4.26-.9s-2.21-1.43-2.92-2.48c-.71-1.05-1.06-2.25-1.06-3.58v-.36c0-1.33.35-2.51,1.06-3.52.71-1.01,1.68-1.81,2.92-2.38,1.24-.57,2.66-.86,4.26-.86s3.02.29,4.26.86c1.24.57,2.21,1.36,2.92,2.36.71,1,1.06,2.15,1.06,3.46v.44c0,1.33-.35,2.53-1.06,3.58-.71,1.05-1.68,1.88-2.92,2.48-1.24.6-2.66.9-4.26.9ZM328.29,44.91c1.49,0,2.71-.42,3.66-1.26.95-.84,1.42-1.9,1.42-3.18v-.32c0-1.23-.47-2.23-1.42-3-.95-.77-2.17-1.16-3.66-1.16s-2.71.39-3.66,1.18c-.95.79-1.42,1.81-1.42,3.06v.24c0,1.28.47,2.34,1.42,3.18.95.84,2.17,1.26,3.66,1.26ZM328.17,35.43l2.96-6.08h3.24l-3.28,6.08h-2.92Z"/>
      <path class="cls-1" d="M349.45,53.39c-1.89,0-3.57-.42-5.02-1.26-1.45-.84-2.59-2.01-3.4-3.5-.81-1.49-1.22-3.21-1.22-5.16v-.4c0-1.87.37-3.53,1.12-4.98.75-1.45,1.8-2.61,3.16-3.46,1.36-.85,2.93-1.28,4.72-1.28s3.41.45,4.72,1.36c1.31.91,2.27,2.19,2.9,3.84.63,1.65.81,3.59.54,5.8h-14.84v-2.64h13.12l-1.44,1.4c.19-1.47.09-2.71-.3-3.74-.39-1.03-.98-1.82-1.78-2.38-.8-.56-1.76-.84-2.88-.84-1.23,0-2.27.29-3.14.88-.87.59-1.53,1.39-2,2.42-.47,1.03-.7,2.23-.7,3.62v.4c0,1.33.27,2.53.8,3.58.53,1.05,1.29,1.88,2.28,2.48.99.6,2.16.9,3.52.9,1.01,0,1.91-.13,2.68-.38.77-.25,1.45-.63,2.04-1.14l1.84,2c-.75.8-1.7,1.41-2.86,1.84-1.16.43-2.45.64-3.86.64Z"/>
    </g>
  </g>
  <g id="Location">
    <g>
      <path class="cls-1" d="M89.14,86.99v-1.71h4.48c.56,0,1.03-.2,1.41-.59.38-.39.57-.87.57-1.43v-14.95l.78.78h-6.27v-1.71h7.36v15.74c0,1.2-.35,2.14-1.06,2.83-.71.69-1.69,1.04-2.94,1.04h-4.34Z"/>
      <path class="cls-1" d="M107.51,87.27c-1.27,0-2.4-.29-3.39-.88-.99-.59-1.76-1.4-2.32-2.44-.56-1.04-.84-2.24-.84-3.6v-.25c0-1.33.28-2.5.84-3.51.56-1.02,1.33-1.81,2.32-2.39.99-.58,2.12-.87,3.39-.87s2.37.29,3.36.85,1.76,1.36,2.32,2.38c.56,1.02.84,2.18.84,3.49v.31c0,1.36-.28,2.56-.84,3.6-.56,1.04-1.33,1.85-2.32,2.44-.99.59-2.11.88-3.36.88ZM107.51,85.67c.93,0,1.76-.23,2.48-.69.72-.46,1.28-1.08,1.68-1.88.4-.79.6-1.71.6-2.76v-.31c0-1.01-.2-1.89-.6-2.66s-.96-1.37-1.68-1.81c-.72-.44-1.54-.66-2.48-.66s-1.76.22-2.48.67c-.72.45-1.28,1.06-1.69,1.83-.41.77-.62,1.67-.62,2.67v.25c0,1.04.21,1.96.62,2.76.41.79.98,1.42,1.69,1.88.72.46,1.54.69,2.48.69Z"/>
      <path class="cls-1" d="M117.53,86.99v-20.44h1.71v10.64h-.48c.21-.75.5-1.37.88-1.86.38-.49.82-.89,1.3-1.19s.98-.51,1.48-.63c.5-.12.98-.18,1.43-.18,1.51,0,2.74.48,3.7,1.44.95.96,1.43,2.43,1.43,4.41v7.81h-1.79v-7.59c0-1.57-.36-2.7-1.06-3.39-.71-.69-1.61-1.04-2.69-1.04-.75,0-1.43.17-2.04.5-.62.34-1.12.83-1.5,1.48-.38.65-.57,1.48-.57,2.46v7.56h-1.79Z"/>
      <path class="cls-1" d="M137.3,87.27c-1.57,0-2.81-.36-3.74-1.08-.92-.72-1.39-1.67-1.39-2.84,0-.77.21-1.45.62-2.06.41-.61,1.02-1.09,1.82-1.44s1.76-.53,2.88-.53c1.55,0,2.75.35,3.6,1.04.85.69,1.27,1.61,1.27,2.74h-.34c0,1.31-.39,2.33-1.18,3.07-.78.74-1.97,1.11-3.56,1.11ZM141.42,86.99l-.03-4.87-.2-.53v-3.28c0-1.16-.29-2.01-.87-2.55-.58-.54-1.42-.81-2.52-.81-.73,0-1.48.14-2.25.42s-1.45.71-2.03,1.29l-.87-1.26c.63-.69,1.41-1.21,2.34-1.55.92-.34,1.88-.52,2.87-.52s1.89.18,2.66.55c.76.36,1.36.91,1.79,1.64.43.73.64,1.65.64,2.77v4.26c0,.75,0,1.49.01,2.23,0,.74.03,1.48.07,2.23h-1.62ZM137.64,85.9c1.12,0,1.99-.24,2.62-.71.63-.48.94-1.1.94-1.86s-.31-1.4-.94-1.86c-.62-.46-1.51-.69-2.65-.69s-2.01.23-2.66.69c-.65.46-.98,1.08-.98,1.86s.33,1.39.98,1.86c.65.48,1.55.71,2.69.71Z"/>
      <path class="cls-1" d="M147.24,86.99v-13.38h1.71v3.58h-.48c.21-.75.5-1.37.88-1.86.38-.49.82-.89,1.3-1.19s.98-.51,1.48-.63c.5-.12.98-.18,1.43-.18,1.51,0,2.74.48,3.7,1.44.95.96,1.43,2.43,1.43,4.41v7.81h-1.79v-7.59c0-1.57-.36-2.7-1.06-3.39-.71-.69-1.61-1.04-2.69-1.04-.75,0-1.43.17-2.04.5-.62.34-1.12.83-1.5,1.48-.38.65-.57,1.48-.57,2.46v7.56h-1.79Z"/>
      <path class="cls-1" d="M162.92,86.99v-13.38h1.71v3.58h-.48c.21-.75.5-1.37.88-1.86.38-.49.82-.89,1.3-1.19s.98-.51,1.48-.63c.5-.12.98-.18,1.43-.18,1.51,0,2.74.48,3.7,1.44.95.96,1.43,2.43,1.43,4.41v7.81h-1.79v-7.59c0-1.57-.36-2.7-1.06-3.39-.71-.69-1.61-1.04-2.69-1.04-.75,0-1.43.17-2.04.5-.62.34-1.12.83-1.5,1.48-.38.65-.57,1.48-.57,2.46v7.56h-1.79Z"/>
      <path class="cls-1" d="M184.34,87.27c-1.31,0-2.46-.29-3.47-.88-1.01-.59-1.79-1.4-2.35-2.44-.56-1.04-.84-2.24-.84-3.6v-.28c0-1.31.26-2.46.77-3.47.51-1.01,1.24-1.81,2.18-2.39.94-.59,2.02-.88,3.23-.88s2.32.31,3.22.92c.9.62,1.56,1.48,1.99,2.6s.55,2.43.36,3.92h-10.47v-1.48h9.52l-.78.78c.13-1.06.05-1.98-.25-2.76s-.76-1.37-1.37-1.79-1.34-.63-2.18-.63c-.92,0-1.7.22-2.37.66-.66.44-1.18,1.05-1.54,1.82-.36.78-.55,1.68-.55,2.7v.28c0,1.03.21,1.94.62,2.73.41.79.99,1.41,1.74,1.86.75.45,1.62.67,2.63.67.71,0,1.36-.09,1.95-.28.59-.19,1.09-.46,1.5-.81l1.01,1.15c-.5.5-1.15.9-1.93,1.18-.78.28-1.65.42-2.6.42Z"/>
      <path class="cls-1" d="M196.44,87.24c-.95,0-1.85-.15-2.7-.45-.85-.3-1.54-.7-2.06-1.2l.81-1.23c.49.43,1.09.78,1.81,1.05.72.27,1.43.41,2.14.41.92,0,1.66-.21,2.24-.64.58-.43.87-1,.87-1.71,0-.58-.18-1.03-.55-1.34-.36-.32-.83-.56-1.39-.73-.56-.17-1.15-.33-1.78-.49-.63-.16-1.22-.36-1.78-.62-.56-.25-1.02-.62-1.37-1.09-.35-.48-.53-1.12-.53-1.95,0-1.16.43-2.1,1.29-2.83.86-.73,2.01-1.09,3.44-1.09.82,0,1.6.13,2.32.38.73.25,1.35.58,1.88.99l-.81,1.26c-.47-.35-.99-.64-1.57-.85-.58-.21-1.2-.32-1.85-.32-.88,0-1.6.21-2.16.64-.56.43-.84.99-.84,1.68,0,.58.18,1.02.53,1.33.35.31.82.55,1.39.73.57.18,1.17.35,1.81.5.63.16,1.24.37,1.81.63.57.26,1.03.63,1.39,1.12.35.49.53,1.15.53,1.99,0,.75-.21,1.41-.62,1.99-.41.58-.98,1.03-1.72,1.36s-1.58.49-2.53.49Z"/>
      <path class="cls-1" d="M211.42,87.27c-1.23,0-2.32-.33-3.26-.98-.94-.65-1.65-1.55-2.11-2.69l.31-.36v3.75h-1.65v-20.44h1.79v10.7l-.34-.42c.47-1.06,1.16-1.91,2.09-2.55.92-.63,1.98-.95,3.18-.95s2.29.29,3.23.87c.94.58,1.68,1.38,2.23,2.39.54,1.02.81,2.19.81,3.51v.25c0,1.36-.27,2.56-.8,3.6s-1.27,1.85-2.21,2.44c-.94.59-2.03.88-3.26.88ZM211.19,85.67c.92,0,1.73-.22,2.44-.67.71-.45,1.26-1.07,1.67-1.86.4-.79.6-1.72.6-2.79v-.25c0-1.03-.2-1.93-.6-2.7-.4-.77-.96-1.38-1.67-1.82-.71-.44-1.52-.66-2.44-.66s-1.74.23-2.46.69c-.73.46-1.3,1.09-1.72,1.89-.42.8-.63,1.74-.63,2.8s.21,2,.63,2.81c.42.81.99,1.44,1.72,1.89.73.45,1.55.67,2.46.67Z"/>
      <path class="cls-1" d="M226.17,87.27c-.99,0-1.88-.19-2.66-.57-.78-.38-1.4-.98-1.85-1.79-.45-.81-.67-1.88-.67-3.21v-8.09h1.76v7.81c0,1.05.16,1.88.49,2.49s.77,1.05,1.33,1.32c.56.26,1.19.39,1.9.39s1.4-.16,2.02-.49c.62-.33,1.12-.82,1.5-1.47s.57-1.46.57-2.44v-7.62h1.74v13.38h-1.57v-3.58h.5c-.21.73-.5,1.34-.87,1.83-.37.5-.8.89-1.29,1.19s-.98.51-1.48.64c-.5.13-.98.2-1.43.2Z"/>
      <path class="cls-1" d="M236.73,86.99v-13.38h1.74v3.19l-.28-.03c.17-.86.44-1.52.83-1.97.38-.46.85-.77,1.4-.95.55-.18,1.15-.27,1.81-.27h1.15v1.76h-1.29c-1.1,0-1.97.28-2.6.84-.63.56-.95,1.46-.95,2.69v8.12h-1.79Z"/>
      <path class="cls-1" d="M244.29,92.59v-1.51h7.92c.73,0,1.3-.18,1.72-.55s.63-.86.63-1.5c0-.6-.21-1.06-.63-1.4-.42-.34-.99-.5-1.72-.5h-4.26c-.69,0-1.21-.16-1.57-.49-.35-.33-.55-.73-.59-1.22-.04-.48.07-.96.31-1.43l1.2-2.41,1.54.42-1.12,2.16c-.09.21-.15.42-.18.66-.03.23.03.43.18.6.15.17.41.25.78.25h3.92c1.16,0,2.08.29,2.77.87.69.58,1.04,1.41,1.04,2.49,0,.71-.16,1.33-.48,1.86s-.77.95-1.34,1.25c-.58.3-1.27.45-2.07.45h-8.06ZM250.42,83.01c-1.08,0-2.05-.21-2.9-.62-.85-.41-1.52-.98-2-1.71-.49-.73-.73-1.55-.73-2.46v-.25c0-.92.24-1.72.73-2.42.49-.7,1.15-1.25,2-1.64.85-.39,1.81-.59,2.9-.59s2.08.2,2.93.59c.85.39,1.51.93,1.99,1.61s.71,1.47.71,2.37v.34c0,.91-.24,1.74-.71,2.46-.48.73-1.14,1.3-1.99,1.71s-1.82.62-2.93.62ZM250.42,81.58c1.14,0,2.07-.32,2.8-.95.73-.63,1.09-1.44,1.09-2.41v-.25c0-.93-.36-1.69-1.09-2.28-.73-.59-1.66-.88-2.8-.88s-2.07.3-2.8.9c-.73.6-1.09,1.37-1.09,2.32v.2c0,.97.36,1.77,1.09,2.41.73.64,1.66.95,2.8.95ZM250.64,74.5l1.99-4.06h1.79l-2.16,4.06h-1.62Z"/>
    </g>
  </g>
</svg>