<?xml version="1.0" encoding="UTF-8"?>
<svg id="Layer_2" data-name="Layer 2" xmlns="http://www.w3.org/2000/svg" viewBox="0 0 250.51 127.56">
  <defs>
    <style>
      .cls-1 {
        fill: #0d322c;
      }

      .cls-2 {
        fill: #30ba78;
      }
    </style>
  </defs>
  <g id="Layer_1-2" data-name="Layer 1-2">
    <g>
      <g>
        <path class="cls-1" d="M10.11,82.13c-2.08,0-3.89-.39-5.44-1.16-1.55-.77-2.87-1.8-3.96-3.08l3.04-3.04c1.09,1.12,2.16,1.92,3.2,2.4s2.15.72,3.32.72c1.57,0,2.81-.37,3.7-1.1s1.34-1.69,1.34-2.86c0-.91-.25-1.65-.76-2.22s-1.17-1.04-2-1.4-1.74-.68-2.74-.96-1.99-.59-2.98-.94c-.99-.35-1.89-.8-2.72-1.36s-1.49-1.29-2-2.2c-.51-.91-.76-2.04-.76-3.4,0-1.76.4-3.27,1.2-4.54.8-1.27,1.94-2.25,3.42-2.94s3.19-1.04,5.14-1.04c1.81,0,3.45.32,4.9.96s2.65,1.49,3.58,2.56l-3.12,3.12c-.8-.83-1.63-1.45-2.48-1.86s-1.83-.62-2.92-.62c-1.47,0-2.64.35-3.52,1.06-.88.71-1.32,1.65-1.32,2.82,0,.85.25,1.55.76,2.08s1.18.95,2.02,1.26,1.76.59,2.76.84,2.01.55,3.02.9,1.93.8,2.76,1.36,1.49,1.31,2,2.24.76,2.12.76,3.56c0,1.79-.43,3.34-1.28,4.66s-2.05,2.35-3.58,3.08c-1.53.73-3.31,1.1-5.34,1.1h0Z"/>
        <path class="cls-1" d="M35.47,82.13c-3.28,0-5.91-.85-7.88-2.54-1.97-1.69-2.96-4.26-2.96-7.7v-18.32h4.92v17.92c0,2.03.53,3.55,1.6,4.56,1.07,1.01,2.51,1.52,4.32,1.52s3.26-.51,4.34-1.52,1.62-2.53,1.62-4.56v-17.92h4.92v18.32c0,2.27-.45,4.16-1.36,5.68s-2.17,2.66-3.8,3.42c-1.63.76-3.53,1.14-5.72,1.14Z"/>
        <path class="cls-1" d="M59.87,82.13c-2.08,0-3.89-.39-5.44-1.16-1.55-.77-2.87-1.8-3.96-3.08l3.04-3.04c1.09,1.12,2.16,1.92,3.2,2.4s2.15.72,3.32.72c1.57,0,2.81-.37,3.7-1.1s1.34-1.69,1.34-2.86c0-.91-.25-1.65-.76-2.22-.51-.57-1.17-1.04-2-1.4s-1.74-.68-2.74-.96-1.99-.59-2.98-.94c-.99-.35-1.89-.8-2.72-1.36s-1.49-1.29-2-2.2c-.51-.91-.76-2.04-.76-3.4,0-1.76.4-3.27,1.2-4.54s1.94-2.25,3.42-2.94,3.19-1.04,5.14-1.04c1.81,0,3.45.32,4.9.96,1.45.64,2.65,1.49,3.58,2.56l-3.12,3.12c-.8-.83-1.63-1.45-2.48-1.86s-1.83-.62-2.92-.62c-1.47,0-2.64.35-3.52,1.06-.88.71-1.32,1.65-1.32,2.82,0,.85.25,1.55.76,2.08s1.18.95,2.02,1.26,1.76.59,2.76.84,2.01.55,3.02.9c1.01.35,1.93.8,2.76,1.36s1.49,1.31,2,2.24.76,2.12.76,3.56c0,1.79-.43,3.34-1.28,4.66s-2.05,2.35-3.58,3.08-3.31,1.1-5.34,1.1h0Z"/>
        <path class="cls-1" d="M79.03,81.57c-1.36,0-2.47-.44-3.34-1.32s-1.3-2-1.3-3.36v-18.64c0-1.36.43-2.48,1.3-3.36s1.98-1.32,3.34-1.32h13.64v4.48h-12c-.4,0-.74.14-1.02.42s-.42.62-.42,1.02v16.16c0,.4.14.74.42,1.02s.62.42,1.02.42h12v4.48s-13.64,0-13.64,0ZM76.75,69.65v-4.28h15.08v4.28h-15.08Z"/>
        <path class="cls-1" d="M107.23,81.57v-28h8.52c2.77,0,5,.69,6.68,2.06s2.52,3.41,2.52,6.1c0,2.83-.84,4.89-2.52,6.2s-3.91,1.96-6.68,1.96h-7.28v-2.32h7.2c1.97,0,3.56-.45,4.76-1.36s1.8-2.39,1.8-4.44c0-1.89-.6-3.35-1.8-4.36-1.2-1.01-2.79-1.52-4.76-1.52h-6.88l1.12-1.04v26.72h-2.68ZM122.67,81.57l-8.4-12.84h3.04l8.48,12.84s-3.12,0-3.12,0Z"/>
        <path class="cls-1" d="M135.99,81.97c-2.24,0-4.02-.51-5.34-1.54s-1.98-2.38-1.98-4.06c0-1.09.29-2.07.88-2.94.59-.87,1.45-1.55,2.6-2.06,1.15-.51,2.52-.76,4.12-.76,2.21,0,3.93.49,5.14,1.48,1.21.99,1.82,2.29,1.82,3.92h-.48c0,1.87-.56,3.33-1.68,4.38-1.12,1.05-2.81,1.58-5.08,1.58h0ZM141.87,81.57l-.04-6.96-.28-.76v-4.68c0-1.65-.41-2.87-1.24-3.64s-2.03-1.16-3.6-1.16c-1.04,0-2.11.2-3.22.6s-2.07,1.01-2.9,1.84l-1.24-1.8c.91-.99,2.02-1.73,3.34-2.22,1.32-.49,2.69-.74,4.1-.74s2.71.26,3.8.78,1.95,1.3,2.56,2.34.92,2.36.92,3.96v6.08c0,1.07,0,2.13.02,3.18,0,1.05.05,2.11.1,3.18h-2.32ZM136.47,80.01c1.6,0,2.85-.34,3.74-1.02s1.34-1.57,1.34-2.66-.45-2.01-1.34-2.66-2.15-.98-3.78-.98-2.87.33-3.8.98-1.4,1.54-1.4,2.66.47,1.98,1.4,2.66,2.21,1.02,3.84,1.02Z"/>
        <path class="cls-1" d="M150.19,81.57v-19.12h2.44v5.12h-.68c.29-1.07.71-1.95,1.26-2.66.55-.71,1.17-1.27,1.86-1.7s1.4-.73,2.12-.9c.72-.17,1.4-.26,2.04-.26,2.16,0,3.92.69,5.28,2.06,1.36,1.37,2.04,3.47,2.04,6.3v11.16h-2.56v-10.84c0-2.24-.51-3.85-1.52-4.84-1.01-.99-2.29-1.48-3.84-1.48-1.07,0-2.04.24-2.92.72s-1.59,1.19-2.14,2.12-.82,2.11-.82,3.52v10.8h-2.56,0Z"/>
        <path class="cls-1" d="M180.99,81.97c-1.89,0-3.57-.41-5.02-1.24-1.45-.83-2.6-1.97-3.44-3.44s-1.26-3.15-1.26-5.04v-.52c0-1.89.42-3.57,1.26-5.02s1.99-2.59,3.44-3.42,3.13-1.24,5.02-1.24c1.39,0,2.64.24,3.76.72s2.08,1.17,2.88,2.08l-1.6,1.6c-.64-.64-1.38-1.14-2.22-1.5s-1.79-.54-2.86-.54c-1.36,0-2.59.31-3.68.92s-1.95,1.47-2.56,2.58-.92,2.38-.92,3.82v.52c0,1.47.31,2.75.94,3.84s1.48,1.95,2.56,2.58c1.08.63,2.31.94,3.7.94,1.04,0,1.99-.17,2.84-.5.85-.33,1.61-.85,2.28-1.54l1.56,1.6c-.8.88-1.77,1.57-2.9,2.06-1.13.49-2.39.74-3.78.74Z"/>
        <path class="cls-1" d="M192.07,81.57v-29.2h2.44v15.2h-.68c.29-1.07.71-1.95,1.26-2.66.55-.71,1.17-1.27,1.86-1.7s1.4-.73,2.12-.9c.72-.17,1.4-.26,2.04-.26,2.16,0,3.92.69,5.28,2.06,1.36,1.37,2.04,3.47,2.04,6.3v11.16h-2.56v-10.84c0-2.24-.51-3.85-1.52-4.84-1.01-.99-2.29-1.48-3.84-1.48-1.07,0-2.04.24-2.92.72s-1.59,1.19-2.14,2.12-.82,2.11-.82,3.52v10.8h-2.56,0Z"/>
        <path class="cls-1" d="M222.67,81.97c-1.87,0-3.52-.42-4.96-1.26-1.44-.84-2.56-2-3.36-3.48s-1.2-3.19-1.2-5.14v-.4c0-1.87.37-3.52,1.1-4.96.73-1.44,1.77-2.58,3.12-3.42s2.89-1.26,4.62-1.26,3.32.44,4.6,1.32,2.23,2.12,2.84,3.72.79,3.47.52,5.6h-14.96v-2.12h13.6l-1.12,1.12c.19-1.52.07-2.83-.36-3.94s-1.08-1.96-1.96-2.56-1.92-.9-3.12-.9c-1.31,0-2.43.31-3.38.94-.95.63-1.68,1.49-2.2,2.6s-.78,2.39-.78,3.86v.4c0,1.47.29,2.77.88,3.9.59,1.13,1.41,2.02,2.48,2.66,1.07.64,2.32.96,3.76.96,1.01,0,1.94-.13,2.78-.4s1.55-.65,2.14-1.16l1.44,1.64c-.72.72-1.64,1.28-2.76,1.68s-2.36.6-3.72.6Z"/>
        <path class="cls-1" d="M234.87,81.57v-19.12h2.48v4.56l-.4-.04c.24-1.23.63-2.17,1.18-2.82.55-.65,1.21-1.11,2-1.36s1.65-.38,2.58-.38h1.64v2.52h-1.84c-1.57,0-2.81.4-3.72,1.2-.91.8-1.36,2.08-1.36,3.84v11.6h-2.56Z"/>
      </g>
      <g>
        <path class="cls-1" d="M0,109.53v-.78h7.81v.78H0ZM2.69,121.96v-17.47c0-.88.28-1.59.85-2.14.57-.55,1.28-.83,2.14-.83h2.13v.76h-2.13c-.63,0-1.16.21-1.57.62-.41.41-.62.93-.62,1.57v17.5h-.81,0Z"/>
        <path class="cls-1" d="M15.09,122.24c-1.21,0-2.29-.29-3.23-.88s-1.68-1.4-2.21-2.42-.8-2.21-.8-3.56v-.22c0-1.31.27-2.46.8-3.47s1.27-1.8,2.21-2.37c.94-.57,2.02-.85,3.23-.85s2.29.28,3.22.84c.93.56,1.67,1.34,2.2,2.34s.8,2.14.8,3.43v.31c0,1.34-.27,2.53-.8,3.56s-1.26,1.83-2.2,2.42-2.01.88-3.22.88h0ZM15.09,121.48c1.06,0,2-.26,2.81-.78s1.45-1.24,1.9-2.16c.46-.92.69-1.97.69-3.16v-.31c0-1.16-.23-2.17-.69-3.04-.46-.87-1.09-1.55-1.9-2.04s-1.75-.74-2.81-.74-1.98.25-2.8.76c-.82.5-1.47,1.2-1.93,2.09-.47.89-.7,1.91-.7,3.07v.22c0,1.19.23,2.25.7,3.16s1.11,1.63,1.93,2.16c.82.52,1.75.78,2.8.78h0Z"/>
        <path class="cls-1" d="M25.23,121.96v-13.22h.78v2.69l-.17-.06c.22-.71.53-1.25.92-1.62s.85-.63,1.37-.78,1.08-.22,1.68-.22h1.2v.81h-1.23c-1.16,0-2.07.31-2.74.94-.67.63-1.01,1.65-1.01,3.07v8.4h-.81,0Z"/>
        <path class="cls-1" d="M45.05,122.24c-1.23,0-2.34-.22-3.32-.66s-1.78-1.05-2.39-1.83l.53-.59c.6.75,1.34,1.32,2.24,1.72s1.89.6,2.97.6c1.64,0,2.94-.43,3.91-1.29.96-.86,1.44-1.99,1.44-3.39,0-.9-.2-1.62-.59-2.17s-.91-.98-1.54-1.3-1.33-.58-2.09-.78-1.52-.41-2.28-.62c-.77-.21-1.47-.48-2.1-.83-.63-.34-1.15-.81-1.54-1.4-.39-.59-.59-1.36-.59-2.31,0-1.08.25-2.02.76-2.81.5-.79,1.21-1.41,2.13-1.85.91-.44,1.99-.66,3.22-.66,1.03,0,1.94.15,2.74.46.8.31,1.46.75,1.99,1.33l-.53.59c-.52-.54-1.13-.95-1.83-1.22-.7-.27-1.5-.41-2.39-.41-1.59,0-2.86.42-3.82,1.25s-1.44,1.91-1.44,3.23c0,.86.2,1.54.59,2.06.39.51.91.91,1.54,1.2.63.29,1.33.53,2.1.73.76.2,1.53.4,2.3.62.76.21,1.46.5,2.1.87.63.36,1.15.85,1.54,1.47s.59,1.44.59,2.46c0,1.14-.26,2.12-.78,2.95-.52.83-1.25,1.47-2.18,1.9-.93.44-2.02.66-3.25.66l-.03.02Z"/>
        <path class="cls-1" d="M52.7,121.96l7.87-19.6h.87l7.9,19.6h-.87l-7.56-18.9h.25l-7.62,18.9s-.84,0-.84,0ZM55.67,115.83l.34-.78h10.02l.34.78s-10.7,0-10.7,0Z"/>
        <path class="cls-1" d="M72.63,121.96v-19.6h5.32c1.19,0,2.24.21,3.15.64s1.62,1.05,2.13,1.88c.51.82.77,1.82.77,3s-.26,2.15-.77,2.98c-.51.83-1.22,1.46-2.13,1.89-.91.43-1.96.64-3.15.64h-4.93v-.76h4.96c1.51,0,2.76-.42,3.74-1.26.98-.84,1.47-2.01,1.47-3.5s-.49-2.66-1.47-3.49c-.98-.83-2.23-1.25-3.74-1.25h-4.9l.36-.36v19.18h-.81Z"/>
        <path class="cls-1" d="M92.99,113.76c-1.16,0-2.21-.26-3.15-.78s-1.69-1.26-2.24-2.2-.83-2.04-.83-3.29.27-2.34.83-3.28,1.3-1.66,2.24-2.18,1.99-.78,3.15-.78,2.2.26,3.14.78,1.68,1.25,2.24,2.18.84,2.03.84,3.28-.28,2.35-.84,3.29-1.31,1.68-2.24,2.2-1.98.78-3.14.78ZM92.99,113.17c1.03,0,1.96-.23,2.81-.7s1.53-1.13,2.04-1.99.77-1.86.77-3-.26-2.13-.77-2.98c-.51-.85-1.19-1.51-2.04-1.99s-1.79-.71-2.81-.71-1.97.24-2.83.71-1.54,1.14-2.06,1.99c-.51.85-.77,1.84-.77,2.98s.26,2.14.77,3c.51.86,1.2,1.52,2.06,1.99s1.8.7,2.83.7ZM91.17,110.54v-6.24h1.9c.65,0,1.18.16,1.6.49.41.33.62.78.62,1.36,0,.63-.21,1.12-.62,1.47s-.94.52-1.6.52h-1.62v-.5h1.6c.49,0,.88-.13,1.18-.38s.45-.61.45-1.08-.15-.78-.45-.99c-.3-.21-.69-.32-1.18-.32h-1.57l.28-.25v5.94h-.59v-.02ZM94.75,110.54l-1.79-2.74h.67l1.82,2.74h-.7Z"/>
        <path class="cls-1" d="M113.62,122.24c-1.53,0-2.75-.35-3.67-1.05s-1.37-1.62-1.37-2.76c0-.75.2-1.4.6-1.96s.98-1,1.75-1.32c.76-.32,1.67-.48,2.72-.48,1.57,0,2.76.34,3.58,1.02s1.23,1.57,1.23,2.67h-.08c0,1.16-.4,2.09-1.19,2.8-.79.71-1.98,1.06-3.57,1.06v.02ZM117.99,121.96l-.08-4.4-.06-.11v-4.14c0-1.42-.35-2.45-1.04-3.09s-1.64-.97-2.86-.97c-.78,0-1.57.14-2.37.41-.79.27-1.46.74-2,1.41l-.48-.59c.6-.71,1.33-1.22,2.21-1.54s1.75-.48,2.63-.48c.95,0,1.78.17,2.49.52s1.25.88,1.64,1.6.57,1.63.57,2.73v4.14c0,.75,0,1.49.03,2.24.02.75.04,1.5.06,2.27h-.76.02ZM113.73,121.54c1.34,0,2.37-.29,3.07-.87s1.05-1.32,1.05-2.21-.36-1.68-1.06-2.24c-.71-.56-1.74-.84-3.08-.84s-2.39.28-3.15.84-1.13,1.3-1.13,2.21.38,1.64,1.13,2.23c.76.59,1.81.88,3.18.88h-.01Z"/>
        <path class="cls-1" d="M123.42,127.56v-18.82h.78v3.95l-.11-.14c.45-1.23,1.17-2.22,2.16-2.97.99-.75,2.14-1.12,3.44-1.12,1.21,0,2.28.28,3.21.85.92.57,1.64,1.35,2.16,2.35.51,1,.77,2.15.77,3.46v.25c0,1.34-.26,2.53-.77,3.56s-1.23,1.83-2.16,2.42c-.92.59-1.99.88-3.21.88-1.31,0-2.46-.37-3.44-1.11s-1.7-1.72-2.13-2.95l.11-.14v9.52h-.81ZM129.64,121.48c1.06,0,2-.26,2.81-.78s1.44-1.24,1.89-2.16c.45-.92.67-1.97.67-3.16v-.25c0-1.16-.22-2.17-.67-3.05-.45-.88-1.08-1.57-1.89-2.07s-1.75-.76-2.81-.76-1.98.26-2.8.78-1.47,1.24-1.93,2.16c-.47.92-.7,1.97-.7,3.16s.23,2.25.7,3.18c.47.92,1.11,1.65,1.93,2.17s1.75.78,2.8.78Z"/>
        <path class="cls-1" d="M139.75,127.56v-18.82h.78v3.95l-.11-.14c.45-1.23,1.17-2.22,2.16-2.97s2.14-1.12,3.44-1.12c1.21,0,2.28.28,3.21.85.92.57,1.64,1.35,2.16,2.35.51,1,.77,2.15.77,3.46v.25c0,1.34-.26,2.53-.77,3.56s-1.23,1.83-2.16,2.42c-.92.59-1.99.88-3.21.88-1.31,0-2.46-.37-3.44-1.11s-1.7-1.72-2.13-2.95l.11-.14v9.52h-.81ZM145.97,121.48c1.06,0,2-.26,2.81-.78s1.44-1.24,1.89-2.16c.45-.92.67-1.97.67-3.16v-.25c0-1.16-.22-2.17-.67-3.05-.45-.88-1.08-1.57-1.89-2.07s-1.75-.76-2.81-.76-1.98.26-2.8.78-1.47,1.24-1.93,2.16c-.47.92-.7,1.97-.7,3.16s.23,2.25.7,3.18c.47.92,1.11,1.65,1.93,2.17.82.52,1.75.78,2.8.78Z"/>
        <path class="cls-1" d="M158.98,121.96c-.86,0-1.57-.28-2.13-.83s-.84-1.26-.84-2.11v-17.11l.36.36h-3.16v-.76h3.61v17.5c0,.63.21,1.16.62,1.57.41.41.93.62,1.57.62h1.04v.76h-1.07Z"/>
        <path class="cls-1" d="M163.63,121.96v-12.8l.36.36h-3.19v-.78h3.64v13.22h-.81ZM163.6,105.44v-2.6h.84v2.6h-.84Z"/>
        <path class="cls-1" d="M174.94,122.24c-1.29,0-2.43-.28-3.42-.85s-1.77-1.36-2.34-2.37c-.57-1.01-.85-2.17-.85-3.47v-.39c0-1.31.28-2.46.85-3.47s1.35-1.8,2.34-2.37c.99-.57,2.13-.85,3.42-.85.93,0,1.77.15,2.51.45.74.3,1.39.74,1.95,1.32l-.53.56c-.5-.49-1.08-.86-1.72-1.13s-1.39-.41-2.23-.41c-1.12,0-2.11.25-2.98.76s-1.55,1.2-2.04,2.09c-.49.89-.74,1.91-.74,3.07v.39c0,1.16.25,2.18.74,3.07s1.18,1.58,2.04,2.09c.87.5,1.86.76,2.98.76.84,0,1.58-.13,2.23-.39.64-.26,1.22-.64,1.72-1.15l.53.56c-.56.58-1.21,1.02-1.95,1.32-.74.3-1.57.45-2.51.45v-.04Z"/>
        <path class="cls-1" d="M186.81,122.24c-1.53,0-2.75-.35-3.67-1.05s-1.37-1.62-1.37-2.76c0-.75.2-1.4.6-1.96.4-.56.98-1,1.75-1.32.76-.32,1.67-.48,2.72-.48,1.57,0,2.76.34,3.58,1.02s1.23,1.57,1.23,2.67h-.08c0,1.16-.4,2.09-1.19,2.8-.79.71-1.98,1.06-3.57,1.06v.02ZM191.18,121.96l-.08-4.4-.06-.11v-4.14c0-1.42-.35-2.45-1.04-3.09-.69-.64-1.64-.97-2.86-.97-.78,0-1.57.14-2.37.41-.79.27-1.46.74-2,1.41l-.48-.59c.6-.71,1.33-1.22,2.21-1.54s1.75-.48,2.63-.48c.95,0,1.78.17,2.49.52s1.25.88,1.64,1.6.57,1.63.57,2.73v4.14c0,.75,0,1.49.03,2.24.02.75.04,1.5.06,2.27h-.76.02ZM186.92,121.54c1.34,0,2.37-.29,3.07-.87.7-.58,1.05-1.32,1.05-2.21s-.36-1.68-1.06-2.24c-.71-.56-1.74-.84-3.08-.84s-2.39.28-3.15.84-1.13,1.3-1.13,2.21.38,1.64,1.13,2.23c.76.59,1.81.88,3.18.88h-.01Z"/>
        <path class="cls-1" d="M194.49,109.53v-.78h7.5v.78h-7.5ZM200.12,121.96c-.41,0-.8-.07-1.16-.21s-.68-.34-.95-.6-.48-.57-.63-.94c-.15-.36-.22-.77-.22-1.22v-13.58h.78v13.61c0,.63.21,1.16.63,1.57.42.41.94.62,1.55.62h1.88v.76h-1.88Z"/>
        <path class="cls-1" d="M206.22,121.96v-12.8l.36.36h-3.19v-.78h3.64v13.22h-.81ZM206.19,105.44v-2.6h.84v2.6h-.84Z"/>
        <path class="cls-1" d="M217.17,122.24c-1.21,0-2.29-.29-3.23-.88s-1.68-1.4-2.21-2.42-.8-2.21-.8-3.56v-.22c0-1.31.27-2.46.8-3.47s1.27-1.8,2.21-2.37,2.02-.85,3.23-.85,2.29.28,3.22.84c.93.56,1.67,1.34,2.2,2.34s.8,2.14.8,3.43v.31c0,1.34-.27,2.53-.8,3.56s-1.26,1.83-2.2,2.42-2.01.88-3.22.88h0ZM217.17,121.48c1.06,0,2-.26,2.81-.78s1.45-1.24,1.9-2.16c.46-.92.69-1.97.69-3.16v-.31c0-1.16-.23-2.17-.69-3.04s-1.09-1.55-1.9-2.04-1.75-.74-2.81-.74-1.98.25-2.8.76c-.82.5-1.47,1.2-1.93,2.09-.47.89-.7,1.91-.7,3.07v.22c0,1.19.23,2.25.7,3.16s1.11,1.63,1.93,2.16c.82.52,1.75.78,2.8.78h0Z"/>
        <path class="cls-1" d="M227.3,121.96v-13.22h.76v3.47h-.22c.22-.69.53-1.27.91-1.75s.82-.86,1.3-1.16.98-.51,1.5-.64c.51-.13,1-.2,1.47-.2,1.49,0,2.72.47,3.68,1.4.96.93,1.44,2.43,1.44,4.48v7.62h-.81v-7.56c0-1.83-.42-3.14-1.26-3.95-.84-.8-1.88-1.21-3.14-1.21-.86,0-1.65.19-2.38.57-.73.38-1.32.95-1.76,1.71-.45.76-.67,1.7-.67,2.84v7.59h-.82Z"/>
        <path class="cls-1" d="M246.03,122.24c-.86,0-1.7-.14-2.52-.43s-1.47-.7-1.96-1.22l.45-.62c.45.47,1.04.84,1.79,1.12.75.28,1.49.42,2.24.42,1.08,0,1.96-.27,2.65-.8.68-.53,1.02-1.23,1.02-2.09,0-.69-.19-1.22-.56-1.6-.37-.37-.85-.66-1.44-.85-.59-.2-1.21-.37-1.86-.52-.65-.15-1.27-.34-1.86-.59-.59-.24-1.07-.59-1.44-1.04-.37-.45-.56-1.07-.56-1.88,0-1.1.41-1.99,1.22-2.67s1.86-1.02,3.15-1.02c.78,0,1.51.13,2.18.39s1.25.6,1.74,1.01l-.45.62c-.43-.37-.94-.68-1.53-.91s-1.24-.35-1.95-.35c-1.05,0-1.9.27-2.58.81-.67.54-1.01,1.23-1.01,2.07,0,.67.19,1.19.56,1.57.37.37.85.66,1.44.85s1.21.37,1.88.53c.66.16,1.29.36,1.88.6.59.24,1.07.59,1.44,1.05.37.46.56,1.1.56,1.92,0,.71-.19,1.33-.57,1.88-.38.54-.91.97-1.58,1.27-.67.31-1.45.46-2.32.46v.02Z"/>
      </g>
      <g id="Layer_1-3" data-name="Layer 1-3">
        <path class="cls-2" d="M88.17,16.48c-.5.33-1.16.33-1.65,0-.81-.54-.89-1.67-.24-2.32.58-.6,1.55-.6,2.13,0,.65.65.58,1.78-.24,2.32M90.54,13.19c.95,4.02-2.67,7.63-6.69,6.69-2.05-.48-3.67-2.11-4.15-4.15-.94-4.02,2.67-7.63,6.68-6.69,2.05.48,3.67,2.1,4.15,4.15M63.47,34.81c.46.66.84,1.3,1.06,1.93.15.45.35,1.05.79,1.29.03,0,.05.03.08.03.82.3,2.93.25,2.93.25h3.88c.33,0,3.24,0,3.17-.33-.35-1.56-2.15-1.84-3.52-2.65-1.26-.75-2.46-1.61-3.01-3.08-.28-.76-.11-2.51.37-3.15.36-.46.88-.77,1.44-.89.63-.13,1.27-.02,1.9.05.77.08,1.53.22,2.3.31,1.48.19,2.98.27,4.48.23,2.47-.07,4.94-.46,7.28-1.26,1.63-.55,3.24-1.29,4.63-2.32,1.58-1.17,1.16-1.06-.44-.9-1.92.2-3.85.23-5.78.11-1.79-.1-3.56-.31-5.19-1.15-1.28-.66-2.38-1.32-3.39-2.34-.15-.15-.25-.61.03-.89.27-.28.84-.12,1.01.03,1.77,1.48,4.41,2.69,7.13,2.83,1.48.07,2.91.1,4.39.04.74-.03,1.85-.03,2.59-.04.38,0,1.42.11,1.62-.3.06-.12.05-.25.05-.39-.22-5.91-.65-12.57-6.83-15.39-4.61-2.11-11.53-5.38-14.44-6.73-.68-.32-1.47.19-1.47.94,0,1.97.1,4.81.1,7.39-1.4-1.42-3.75-2.32-5.55-3.15-2.04-.94-4.14-1.73-6.28-2.4-4.31-1.34-8.77-2.16-13.26-2.6-5.09-.51-10.26-.26-15.28.77C22.02,2.76,13.91,6.73,7.75,12.53c-3.78,3.56-6.75,8.63-6.95,13.76-.29,7.27,1.75,11.18,5.5,15.21,5.97,6.42,18.83,7.31,24.03-.29,2.34-3.42,2.85-8.07,1.15-11.85-1.7-3.78-5.61-6.52-9.75-6.66-3.22-.11-6.64,1.53-7.87,4.5-.94,2.27-.41,5.07,1.31,6.84.67.69,1.57,1.25,2.56,1.03.58-.13,1.07-.57,1.15-1.16.13-.87-.63-1.43-1.1-2.1-.85-1.21-.67-3.02.38-4.04.89-.87,2.22-1.12,3.46-1.12,1.16,0,2.34.21,3.34.79,1.4.82,2.34,2.34,2.66,3.94.96,4.78-2.92,8.66-8.19,8.96-2.69.16-5.44-.55-7.54-2.24-5.32-4.28-6.63-13.04-.54-17.71,5.78-4.44,13.07-3.29,17.37-.99,3.44,1.84,6.01,4.86,7.95,8.2.98,1.68,1.81,3.43,2.58,5.21.74,1.71,1.44,3.44,2.92,4.69.98.83,2.2.8,3.48.8h7.35c1,0,.76-.67.32-1.11-.97-1-2.38-1.22-3.67-1.58-2.96-.82-2.66-4.74-1.84-4.74,2.65,0,2.73.08,5.05.05,3.35-.05,4.36-.24,6.98.73,1.4.52,2.75,1.89,3.62,3.14"/>
      </g>
    </g>
  </g>
</svg>