<?xml version="1.0" standalone="no"?>
<svg xmlns="http://www.w3.org/2000/svg" width="1080px" height="1080px" viewBox="0 0 1080 1080"><defs/><g><g><g><rect x="0" y="0" width="1080" height="1080" fill="rgb(12,50,44)"/><g><rect x="0" y="0" width="1080" height="1080" fill="rgb(12,50,44)"/><g><g><svg xmlns="http://www.w3.org/2000/svg" width="210.109375" height="37.65625" viewBox="0 0 210.179 37.666" x="434.9375" y="399.9375" preserveAspectRatio="xMidYMid meet"><path fill="#fff" d="M194.698 30.871a5.964 5.964 0 0 1-5.958-5.957V7.255a5.966 5.966 0 0 1 5.958-5.959h13.555c1.062 0 1.926.864 1.926 1.925a1.927 1.927 0 0 1-1.926 1.924h-13.555a2.11 2.11 0 0 0-2.107 2.11v6.95h13.294c1.006 0 1.824.819 1.824 1.825a1.826 1.826 0 0 1-1.824 1.824h-13.294v7.06c0 1.163.945 2.107 2.107 2.107h13.555c1.062 0 1.926.865 1.926 1.926a1.926 1.926 0 0 1-1.926 1.924zm-60.782.389c-3.909 0-6.92-.992-8.95-2.95-2.028-1.954-3.056-4.894-3.056-8.739V3.143c0-1.231 1-2.232 2.23-2.232a2.234 2.234 0 0 1 2.232 2.232v15.839c0 2.877.62 5.034 1.843 6.408 1.229 1.384 3.146 2.085 5.701 2.085 2.553 0 4.472-.701 5.701-2.085 1.222-1.375 1.841-3.531 1.841-6.408V3.143a2.235 2.235 0 0 1 2.233-2.232 2.234 2.234 0 0 1 2.232 2.232v16.428c0 3.843-1.03 6.783-3.059 8.739-2.03 1.958-5.039 2.95-8.948 2.95m33.526 0c-5.033 0-8.868-1.43-11.394-4.25-.731-.816-.685-2.075.106-2.865l.008-.009.008-.008a2.1 2.1 0 0 1 1.499-.616c.599 0 1.163.255 1.55.703a8.8 8.8 0 0 0 2.396 1.966c1.547.859 3.493 1.294 5.783 1.294 2.173 0 3.907-.383 5.154-1.14 1.284-.776 1.936-1.895 1.936-3.327 0-1.158-.59-2.103-1.754-2.805-1.132-.681-3.042-1.266-5.84-1.791-2.718-.507-4.909-1.141-6.513-1.885-1.586-.734-2.751-1.651-3.464-2.731-.713-1.072-1.074-2.403-1.074-3.956 0-1.639.46-3.153 1.367-4.498.909-1.348 2.242-2.435 3.963-3.229 1.73-.798 3.778-1.202 6.088-1.202 2.7 0 5.034.494 6.941 1.47a11.9 11.9 0 0 1 3.448 2.68c.77.861.698 2.194-.163 2.971a2.105 2.105 0 0 1-3.08-.28c-.572-.744-1.216-1.35-1.917-1.8-1.296-.833-3.039-1.255-5.183-1.255-2.116 0-3.787.432-4.966 1.284-1.199.867-1.808 1.999-1.808 3.362 0 1.279.596 2.306 1.773 3.052 1.143.727 3.122 1.337 6.049 1.863 2.656.477 4.792 1.089 6.35 1.816 1.54.717 2.677 1.621 3.377 2.686.697 1.061 1.05 2.399 1.05 3.977 0 1.696-.488 3.207-1.45 4.491-.97 1.291-2.348 2.295-4.093 2.984-1.762.695-3.829 1.048-6.147 1.048m-66.83.008c-5.035 0-8.868-1.431-11.395-4.251-.731-.815-.684-2.074.106-2.865l.012-.012c.402-.4.936-.62 1.504-.62.6 0 1.165.256 1.549.703a8.8 8.8 0 0 0 2.395 1.966c1.548.86 3.494 1.295 5.784 1.295 2.172 0 3.906-.383 5.155-1.14 1.284-.776 1.935-1.895 1.935-3.326 0-1.16-.591-2.103-1.754-2.805-1.133-.683-3.044-1.269-5.841-1.794-2.717-.506-4.908-1.141-6.513-1.883-1.585-.735-2.752-1.654-3.464-2.731-.712-1.073-1.073-2.404-1.073-3.956 0-1.64.46-3.152 1.366-4.497.909-1.35 2.243-2.436 3.964-3.23C96.07 1.325 98.118.92 100.43.92c2.7 0 5.036.495 6.94 1.47a11.9 11.9 0 0 1 3.447 2.68 2.106 2.106 0 0 1-1.571 3.511 2.1 2.1 0 0 1-1.67-.82 7.7 7.7 0 0 0-1.917-1.801c-1.297-.834-3.04-1.256-5.183-1.256-2.117 0-3.787.433-4.968 1.285-1.198.87-1.806 2.001-1.806 3.362 0 1.279.596 2.306 1.772 3.053 1.144.727 3.122 1.336 6.051 1.863 2.653.475 4.79 1.086 6.351 1.815 1.54.72 2.674 1.624 3.374 2.685.698 1.06 1.052 2.398 1.052 3.979 0 1.697-.488 3.207-1.452 4.489-.97 1.292-2.347 2.297-4.094 2.986-1.761.695-3.828 1.047-6.144 1.047M70.967 11.386a1.165 1.165 0 0 0-1.677 0 1.19 1.19 0 0 0 .186 1.83c.39.259.913.259 1.305 0a1.192 1.192 0 0 0 .186-1.83m-1.554-4.188c-3.283-.768-6.232 2.181-5.463 5.463a4.58 4.58 0 0 0 3.392 3.392c3.284.772 6.236-2.182 5.463-5.465a4.58 4.58 0 0 0-3.392-3.39M14.598 37.666c-3.895.001-7.78-1.576-10.141-4.111-2.913-3.13-4.671-6.274-4.436-12.271.148-3.779 2.246-7.929 5.613-11.099C10.489 5.607 16.99 2.294 23.937.853a41 41 0 0 1 8.245-.834c1.385 0 2.789.07 4.172.208 3.862.384 7.493 1.097 10.795 2.12a42 42 0 0 1 5.11 1.947q.339.154.703.315c1.327.588 2.828 1.254 3.769 2.212l.363.37-.001-.519c0-1.121-.022-2.279-.044-3.401-.018-.967-.036-1.88-.036-2.634 0-.393.329-.637.636-.637q.136 0 .261.059c.766.356 1.868.873 3.135 1.466 2.722 1.277 6.11 2.865 8.67 4.035 2.206 1.008 3.681 2.715 4.505 5.217.719 2.178.862 4.637.955 7.175.003.084.006.164-.018.211-.012.026-.094.137-.674.137a10 10 0 0 1-.431-.009l-.031.001-.517.004c-.541.003-1.155.006-1.606.024-.46.021-.92.032-1.406.032-.662 0-1.369-.02-2.161-.06-1.995-.098-4.127-.943-5.703-2.261-.138-.117-.394-.198-.62-.198a.66.66 0 0 0-.496.189c-.313.322-.224.822-.026 1.024.836.843 1.734 1.391 2.824 1.954 1.293.665 2.664.864 4.322.961.618.036 1.238.055 1.844.055.985 0 1.964-.049 2.908-.147l.233-.024c.208-.022.386-.04.526-.05q-.186.158-.552.43c-1.001.743-2.254 1.372-3.725 1.866-1.815.618-3.796.96-5.889 1.019q-.309.007-.619.007c-.994 0-2.006-.065-3.007-.194a37 37 0 0 1-.776-.11c-.361-.053-.736-.109-1.11-.148q-.13-.013-.26-.029a7 7 0 0 0-.793-.059c-.206 0-.391.018-.563.055a2.24 2.24 0 0 0-1.304.805c-.458.599-.582 2.118-.337 2.775.485 1.309 1.57 2.04 2.549 2.624.317.189.66.341.99.491.816.365 1.526.683 1.757 1.414-.304.079-1.216.136-2.226.136h-3.295c-.005 0-.113.002-.286.002-.956 0-1.698-.07-2.034-.191l-.011-.005-.019-.009c-.288-.155-.429-.579-.544-.92l-.005-.017c-.162-.479-.436-.983-.891-1.635-.894-1.275-2.038-2.262-3.06-2.64-1.477-.547-2.359-.647-3.563-.647-.346 0-.717.008-1.146.019-.324.006-.678.014-1.071.02-.304.003-.561.005-.788.005-.525 0-.875-.009-1.28-.019-.492-.011-1.05-.026-2.058-.026-.324 0-.564.348-.642.932-.146 1.077.291 2.858 2.09 3.353q.245.068.493.13c.875.225 1.779.456 2.412 1.104.207.211.266.396.24.455-.012.031-.103.089-.353.089h-6.219c-1.042 0-1.832-.043-2.494-.605-1.115-.94-1.66-2.204-2.237-3.54l-.093-.217c-.741-1.712-1.415-3.072-2.118-4.281-1.827-3.137-4.04-5.419-6.578-6.779-2.001-1.072-4.492-1.688-6.833-1.688-2.825 0-5.45.869-7.59 2.514-2.151 1.649-3.351 4.054-3.381 6.77-.034 3.034 1.429 6.113 3.819 8.036 1.519 1.221 3.538 1.895 5.688 1.895q.308 0 .618-.019c2.403-.14 4.516-1.169 5.793-2.827 1.046-1.357 1.433-3.044 1.089-4.749-.29-1.436-1.14-2.691-2.273-3.357-.765-.448-1.719-.677-2.837-.678h-.018c-1.294 0-2.289.327-2.957.973-.934.906-1.086 2.509-.338 3.575.099.143.215.279.326.41.323.383.601.715.535 1.155-.055.369-.368.677-.779.768a1.4 1.4 0 0 1-.313.036c-.651 0-1.218-.444-1.579-.817-1.339-1.38-1.76-3.583-1.023-5.359 1.016-2.454 3.744-3.552 5.996-3.552q.117 0 .233.003c3.275.112 6.403 2.248 7.782 5.316 1.34 2.982.977 6.704-.923 9.48-1.881 2.748-5.222 4.326-9.165 4.326m57.07-26.042a3.299 3.299 0 1 1-6.599 0 3.299 3.299 0 1 1 6.599 0"/></svg></g><g><text x="245.69" y="436.47" dominant-baseline="text-before-edge" font-size="118.8px" font-weight="800" font-style="normal" font-family="SUSE, system-ui, -apple-system, &quot;Segoe UI&quot;, Roboto, Helvetica, Arial, sans-serif" letter-spacing="-1.782px" fill="rgb(255,255,255)">Get started</text></g><g><rect x="389.296875" y="580.703125" width="301.390625" height="99.34375" rx="49.671875" ry="49.671875" fill="rgb(255,255,255)"/><path d="M9.89,0.37Q7.08,0.37 4.83,-0.41Q2.58,-1.2 1.06,-2.35L3.63,-6.44Q5.06,-5.52 6.65,-4.92Q8.23,-4.32 9.89,-4.32Q11.32,-4.32 12.19,-4.9Q13.06,-5.47 13.06,-6.39Q13.06,-7.31 12.26,-7.8Q11.45,-8.28 10.21,-8.6Q8.97,-8.92 7.54,-9.29Q6.12,-9.66 4.88,-10.37Q3.63,-11.09 2.83,-12.37Q2.02,-13.66 2.02,-15.78Q2.02,-18.95 4.44,-20.98Q6.85,-23 10.99,-23Q13.25,-23 15.3,-22.4Q17.34,-21.8 18.91,-20.79L16.28,-16.7Q13.66,-18.35 10.9,-18.35Q9.48,-18.35 8.67,-17.8Q7.87,-17.25 7.87,-16.33Q7.87,-15.41 8.67,-14.93Q9.48,-14.44 10.76,-14.1Q12.05,-13.75 13.5,-13.36Q14.95,-12.97 16.24,-12.24Q17.53,-11.5 18.35,-10.19Q19.18,-8.88 19.18,-6.76Q19.18,-4.69 17.99,-3.06Q16.79,-1.43 14.7,-0.53Q12.6,0.37 9.89,0.37ZM31.97,0.46Q28.2,0.46 25.74,-1.82Q23.28,-4.09 23.28,-8.6L23.28,-22.54L29.35,-22.54L29.35,-9.8Q29.35,-7.18 30.48,-6.14Q31.6,-5.11 33.35,-5.11Q35.24,-5.11 36.48,-6.3Q37.72,-7.5 37.72,-9.98L37.72,-22.54L43.79,-22.54L43.79,0L38.5,0L38.5,-2.48Q37.12,-0.69 35.26,-0.11Q33.4,0.46 31.97,0.46ZM56.53,0.37Q53.73,0.37 51.47,-0.41Q49.22,-1.2 47.7,-2.35L50.28,-6.44Q51.7,-5.52 53.29,-4.92Q54.88,-4.32 56.53,-4.32Q57.96,-4.32 58.83,-4.9Q59.71,-5.47 59.71,-6.39Q59.71,-7.31 58.9,-7.8Q58.1,-8.28 56.86,-8.6Q55.61,-8.92 54.19,-9.29Q52.76,-9.66 51.52,-10.37Q50.28,-11.09 49.47,-12.37Q48.67,-13.66 48.67,-15.78Q48.67,-18.95 51.08,-20.98Q53.5,-23 57.64,-23Q59.89,-23 61.94,-22.4Q63.99,-21.8 65.55,-20.79L62.93,-16.7Q60.31,-18.35 57.55,-18.35Q56.12,-18.35 55.32,-17.8Q54.51,-17.25 54.51,-16.33Q54.51,-15.41 55.32,-14.93Q56.12,-14.44 57.41,-14.1Q58.7,-13.75 60.15,-13.36Q61.59,-12.97 62.88,-12.24Q64.17,-11.5 65,-10.19Q65.83,-8.88 65.83,-6.76Q65.83,-4.69 64.63,-3.06Q63.43,-1.43 61.34,-0.53Q59.25,0.37 56.53,0.37ZM80.18,0.46Q76.73,0.46 74.15,-0.99Q71.58,-2.44 70.13,-5.04Q68.68,-7.64 68.68,-11.13L68.68,-11.59Q68.68,-14.77 70.04,-17.36Q71.39,-19.96 73.83,-21.48Q76.27,-23 79.58,-23Q83.03,-23 85.47,-21.32Q87.91,-19.64 89.03,-16.58Q90.16,-13.52 89.65,-9.38L74.8,-9.38Q75.03,-7.31 76.47,-6Q77.92,-4.69 80.45,-4.69Q82.16,-4.69 83.24,-5.2Q84.32,-5.7 85.24,-6.62L88.73,-3.04Q87.35,-1.29 85.15,-0.41Q82.94,0.46 80.18,0.46ZM79.58,-18.22Q77.51,-18.22 76.36,-16.9Q75.21,-15.59 74.84,-13.48L83.81,-13.48Q83.72,-15.78 82.55,-17Q81.37,-18.22 79.58,-18.22ZM93.75,0L93.75,-6.81L100.6,-6.81L100.6,0L93.75,0ZM116.33,0.46Q112.88,0.46 110.22,-1.01Q107.55,-2.48 106.01,-5.08Q104.47,-7.68 104.47,-11.04L104.47,-11.55Q104.47,-14.95 106.03,-17.53Q107.59,-20.1 110.26,-21.55Q112.93,-23 116.33,-23Q118.82,-23 121.05,-21.96Q123.28,-20.93 124.61,-19.14L120.89,-15.41Q120.06,-16.42 118.86,-16.93Q117.67,-17.43 116.33,-17.43Q113.9,-17.43 112.24,-15.85Q110.58,-14.26 110.58,-11.55L110.58,-11.04Q110.58,-8.33 112.29,-6.72Q113.99,-5.11 116.43,-5.11Q117.67,-5.11 118.89,-5.57Q120.11,-6.03 121.12,-7.08L124.75,-3.4Q123.37,-1.61 121.1,-0.57Q118.82,0.46 116.33,0.46ZM138.28,0.46Q134.92,0.46 132.25,-1.01Q129.58,-2.48 128.02,-5.08Q126.45,-7.68 126.45,-11.09L126.45,-11.55Q126.45,-14.9 128.02,-17.48Q129.58,-20.06 132.25,-21.53Q134.92,-23 138.28,-23Q141.59,-23 144.26,-21.53Q146.92,-20.06 148.47,-17.48Q150.01,-14.9 150.01,-11.55L150.01,-11.09Q150.01,-7.68 148.47,-5.08Q146.92,-2.48 144.26,-1.01Q141.59,0.46 138.28,0.46ZM138.28,-4.88Q140.76,-4.88 142.32,-6.62Q143.89,-8.37 143.89,-11.09L143.89,-11.55Q143.89,-14.21 142.32,-15.94Q140.76,-17.66 138.28,-17.66Q135.75,-17.66 134.16,-15.94Q132.57,-14.21 132.57,-11.55L132.57,-11.09Q132.57,-8.37 134.16,-6.62Q135.75,-4.88 138.28,-4.88ZM154.38,0L154.38,-22.54L160.26,-22.54L160.26,-20.06Q161.55,-21.8 163.28,-22.4Q165,-23 166.57,-23Q168.64,-23 170.27,-22.17Q171.9,-21.34 172.91,-19.69Q173.93,-21.02 175.24,-21.73Q176.55,-22.45 177.81,-22.72Q179.08,-23 180.09,-23Q183.72,-23 186.05,-20.65Q188.37,-18.31 188.37,-13.8L188.37,0L182.3,0L182.3,-12.88Q182.3,-15.27 181.26,-16.35Q180.23,-17.43 178.48,-17.43Q176.73,-17.43 175.58,-16.24Q174.43,-15.04 174.43,-12.93L174.43,0L168.31,0L168.31,-12.88Q168.31,-15.27 167.3,-16.35Q166.29,-17.43 164.59,-17.43Q162.79,-17.43 161.62,-16.24Q160.45,-15.04 160.45,-12.93L160.45,0L154.38,0Z" transform="translate(444.48,646.38)" fill="rgb(12,50,44)"/></g></g></g></g></g></g></svg>