<svg xmlns="http://www.w3.org/2000/svg" viewBox="0 0 40 40" width="40" height="40"><defs><style>.c1{fill:#30ba78}.c2{fill:#0c322c}</style></defs><g xmlns="http://www.w3.org/2000/svg" transform="matrix(4.016429,0,0,4.0164282,-1364.5623,-23.296089)"><path d="m 340.24219,12.275391 v 1.363281 c 0,0.63651 0.54391,1.142578 1.19336,1.142578 H 348 c 0.64945,0 1.19141,-0.506068 1.19141,-1.142578 v -1.363281 z m 0.5,0.498047 h 7.95117 v 0.865234 c 0,0.354125 -0.29755,0.644531 -0.69336,0.644531 h -6.56445 c -0.39581,0 -0.69336,-0.290406 -0.69336,-0.644531 z" class="c2"/></g><g xmlns="http://www.w3.org/2000/svg" transform="matrix(4.016429,0,0,4.0164282,-1364.2972,-23.112114)"><g transform="matrix(0.48903186,0.49129906,-0.48963936,0.49190656,184.77261,-158.06753)"><path d="m 334.25,0.66601562 c -0.54215,0 -0.99023,0.44613088 -0.99023,0.98828128 v 3.0839843 h 1.98046 V 1.6542969 c 0,-0.5421504 -0.44808,-0.98828128 -0.99023,-0.98828128 z m 0,0.71874998 c 0.15633,0 0.27148,0.113212 0.27148,0.2695313 v 2.3652343 h -0.54296 V 1.6542969 c 0,-0.1563193 0.11517,-0.2695313 0.27148,-0.2695313 z" class="c2"/></g><path d="m 343.66211,9.7382813 c -0.26833,2.166e-4 -1.0675,0.01126 -1.32227,0.011719 h -0.002 -0.002 c -0.6501,0.01161 -1.23655,0.572109 -1.16797,1.253906 l -0.002,-0.02539 v 1.25 h 0.5 v -1.261719 l -0.002,-0.01367 c -0.0357,-0.354873 0.32191,-0.698688 0.67969,-0.705078 0.27015,-5.46e-4 1.06484,-0.01151 1.31836,-0.01172 z m 1.49609,0 -0.004,0.4980467 c 0.45745,0.0028 1.16591,2.99e-4 1.74609,0 0.23216,0 0.40468,0.06428 0.52344,0.16211 0.11767,0.09693 0.19117,0.229272 0.20898,0.419921 0.0104,0.537498 0.003,0.860329 0.006,1.410157 l 0.49805,-0.002 c -0.003,-0.548678 0.005,-0.875336 -0.006,-1.431641 v -0.0078 -0.0078 c -0.0271,-0.309422 -0.16624,-0.582402 -0.38867,-0.765625 -0.22243,-0.1832232 -0.51695,-0.2753907 -0.8418,-0.2753907 h -0.002 c -0.58142,2.992e-4 -1.28781,0.00279 -1.74024,0 z" class="c1"/><path d="m 345.79102,7.6347656 -0.17774,0.1816406 c -0.88798,0.8950035 -1.87369,1.7386617 -2.71484,2.7148438 v 0.002 h -0.002 c -0.20853,0.244865 -0.282,0.539429 -0.23437,0.798828 0.0476,0.2594 0.204,0.477146 0.41406,0.621094 0.42013,0.287896 1.09263,0.251315 1.53125,-0.320312 l 0.0508,-0.06641 v -0.832031 c 0,-0.207423 0.0495,-0.319043 0.11524,-0.384766 0.0657,-0.06572 0.17538,-0.113281 0.38281,-0.113281 V 9.7382813 c -0.29053,0 -0.55307,0.076511 -0.73633,0.2597656 -0.18325,0.1832541 -0.25976,0.4457961 -0.25976,0.7363281 v 0.607422 c -0.29062,0.327288 -0.59471,0.343725 -0.80274,0.201172 -0.11086,-0.07597 -0.18419,-0.189 -0.20508,-0.302735 -0.0209,-0.113734 -0.001,-0.234723 0.125,-0.382812 0.75383,-0.8746481 1.65618,-1.6657241 2.50977,-2.5097657 0.18444,0.1902009 0.36828,0.3801106 0.55273,0.5703125 l -0.0137,-0.017578 c 0.0928,0.1142633 0.18591,0.1867151 0.22852,0.2382813 0.0313,0.037908 0.0233,0.032412 0.0195,0.039063 -0.0425,0.054844 -0.14031,0.1672878 -0.25781,0.2871094 -0.13268,0.1352838 -0.26676,0.2661843 -0.34766,0.3554687 l 0.36914,0.3339845 c 0.0551,-0.06083 0.19641,-0.1995595 0.33398,-0.3398439 0.13758,-0.1402844 0.2677,-0.269763 0.35352,-0.4023437 l 0.0156,-0.025391 0.01,-0.027344 c 0.0745,-0.2075866 -0.0159,-0.423568 -0.11133,-0.5390625 -0.0954,-0.1154945 -0.19175,-0.1915281 -0.22656,-0.234375 l -0.008,-0.00781 -0.008,-0.00781 C 346.45412,8.3195817 346.21189,8.069094 345.96875,7.8183594 Z" class="c2"/><path d="m 345.15625,9.7382813 c -0.29053,0 -0.55307,0.076511 -0.73633,0.2597656 -0.18325,0.1832541 -0.25976,0.4457961 -0.25976,0.7363281 v 1.494141 h 0.49804 v -1.494141 c 0,-0.207423 0.0495,-0.319043 0.11524,-0.384766 0.0657,-0.06572 0.17538,-0.113281 0.38281,-0.113281 h 1.74414 V 9.7382813 Z" class="c1"/></g></svg>
