<svg xmlns="http://www.w3.org/2000/svg" viewBox="0 0 40 40" width="40" height="40"><defs><style>.c1{fill:#30ba78}.c2{fill:#0c322c}</style></defs><path xmlns="http://www.w3.org/2000/svg" d="M 8,1 C 6.9298064,1 5.9374406,1.5731851 5.4023437,2.5 c -0.5350968,0.9268149 -0.5350968,2.0731851 0,3 C 5.9374406,6.4268149 6.9298064,7 8,7 h 2.083984 V 5 H 8 C 7.6411313,5 7.3142,4.8107895 7.1347656,4.5 c -0.1794343,-0.3107895 -0.1794343,-0.6892105 0,-1 C 7.3142,3.1892105 7.6411313,3 8,3 h 2.693359 V 1 Z" class="c1"/><path xmlns="http://www.w3.org/2000/svg" d="m 22,23 c 2.7,0 5.4,-0.690599 9,-3 v 10 c -3.6,2.309401 -5.975621,3 -9,3 z" fill="#efefef"/><path xmlns="http://www.w3.org/2000/svg" d="m 32,18.169922 -1.539063,0.988281 C 26.975942,21.393829 24.529482,22 22,22 h -1 v 12 h 1 c 3.176608,0 5.847037,-0.789768 9.539062,-3.158203 L 32,30.546875 Z m -2,3.419922 v 7.802734 c -2.771126,1.713779 -4.77048,2.327174 -7,2.462891 v -8.009766 c 2.134054,-0.135923 4.42229,-0.845141 7,-2.255859 z" class="c1"/><path xmlns="http://www.w3.org/2000/svg" d="m 8,12 v 22 h 2 V 12 Z m 22,0 v 22 h 2 V 12 Z" class="c2"/><path xmlns="http://www.w3.org/2000/svg" d="m 22.109375,5.1054687 -0.199219,1.9902344 c 2.42569,0.2443203 4.53639,0.9555448 5.96875,1.8847657 C 29.311267,9.9096896 30,10.969804 30,12 30,13.16145 29.101719,14.381839 27.298828,15.365234 25.495938,16.348629 22.890173,17 20,17 17.109827,17 14.504062,16.348629 12.701172,15.365234 10.898281,14.381839 10,13.16145 10,12 10,11.062672 10.559948,10.111931 11.75,9.2363281 L 10.564453,7.625 C 9.0429401,8.7444815 8,10.26306 8,12 8,14.152258 9.5638611,15.932916 11.742188,17.121094 13.920514,18.309272 16.815041,19 20,19 23.184959,19 26.079486,18.309272 28.257812,17.121094 30.436139,15.932916 32,14.152258 32,12 32,10.090968 30.750569,8.4599278 28.966797,7.3027344 27.183025,6.145541 24.798912,5.3763642 22.109375,5.1054687 Z" class="c2"/><path xmlns="http://www.w3.org/2000/svg" d="m 8,33 c 0,1.397821 0.6930294,2.692925 1.7871094,3.726562 1.0940796,1.033638 2.5981746,1.852587 4.4121096,2.423829 3.62787,1.142483 7.973692,1.142482 11.601562,0 1.813935,-0.571242 3.31803,-1.390191 4.41211,-2.423829 C 31.306971,35.692925 32,34.397821 32,33 h -2 c 0,0.745773 -0.355089,1.512846 -1.160156,2.273437 -0.805067,0.760592 -2.051148,1.468195 -3.640625,1.96875 -3.178954,1.001111 -7.219484,1.001111 -10.398438,0 -1.589476,-0.500555 -2.835558,-1.208158 -3.640625,-1.96875 C 10.355089,34.512846 10,33.745773 10,33 Z" class="c2"/><path xmlns="http://www.w3.org/2000/svg" d="M 14,-1 C 12.569233,-1 11.346812,-0.14135293 10.464844,0.97265625 9.5828751,2.0866654 8.9970617,3.5168825 9,5.0019531 c 0.00294,1.4874686 0.5676024,2.9008673 1.425781,4 C 11.313966,10.139519 12.558185,11 14,11 h 4 c 0.608993,0 1.409245,0.416791 2.023437,1.066406 C 20.63763,12.716022 21,13.576095 21,14 21,14.833333 20.775738,15.658659 20.417969,16.195312 20.0602,16.731966 19.666667,17 19,17 v 2 c 1.333333,0 2.4398,-0.731966 3.082031,-1.695313 C 22.724262,16.341341 23,15.166667 23,14 V 5.9238281 4 C 23,2.8333333 22.713918,1.7003855 22.070312,0.77734375 21.426707,-0.14569798 20.391559,-0.8262132 19.130859,-0.9921875 L 19.066406,-1 Z m 0,2 h 4.882812 C 19.61099,1.1003263 20.076383,1.4132225 20.429687,1.9199219 20.786082,2.4310539 21,3.1666667 21,4 V 5.9238281 10.324219 C 20.171186,9.5901397 19.176973,9 18,9 H 14 C 13.407449,9 12.620702,8.5639629 12.001953,7.7714844 11.404108,7.0057801 11.001909,5.9629487 11,4.9980469 10.998159,4.0677167 11.413977,2.9969844 12.033203,2.2148438 12.652429,1.4327031 13.430767,1 14,1 Z" class="c2"/></svg>
