<svg xmlns="http://www.w3.org/2000/svg" viewBox="0 0 40 40" width="40" height="40"><defs><style>.c1{fill:#30ba78}.c2{fill:#0c322c}</style></defs><polygon xmlns="http://www.w3.org/2000/svg" points="34 21 6 21 6 17 8 17 8 19 32 19 32 17 34 17 34 21" class="c2"/><path xmlns="http://www.w3.org/2000/svg" d="M30,17h-2v-2c0-4.41-3.59-8-8-8s-8,3.59-8,8v2h-2v-2c0-5.51,4.49-10,10-10s10,4.49,10,10v2Z" class="c2"/><polygon xmlns="http://www.w3.org/2000/svg" points="22.41 13 17.59 13 13.29 8.71 14.71 7.29 18.41 11 21.59 11 25.29 7.29 26.71 8.71 22.41 13" class="c2"/><polygon xmlns="http://www.w3.org/2000/svg" points="13.26 33.85 8.55 29.14 13.26 24.43 14.67 25.84 11.38 29.14 14.67 32.43 13.26 33.85" class="c1"/><polygon xmlns="http://www.w3.org/2000/svg" points="26.35 33.85 24.94 32.43 28.23 29.14 24.94 25.84 26.35 24.43 31.06 29.14 26.35 33.85" class="c1"/><rect xmlns="http://www.w3.org/2000/svg" x="12.95" y="28.64" width="13.04" height="2" transform="translate(-15.99 30.14) rotate(-57.52)" class="c1"/><rect xmlns="http://www.w3.org/2000/svg" x="18" y="4" width="4" height="2" class="c2"/><rect xmlns="http://www.w3.org/2000/svg" x="17" y="15" width="6" height="2" class="c1"/></svg>
