<svg xmlns="http://www.w3.org/2000/svg" viewBox="0 0 40 40" width="40" height="40"><defs><style>.c1{fill:#30ba78}.c2{fill:#0c322c}</style></defs><path xmlns="http://www.w3.org/2000/svg" d="M28,36l-.09-2c3.95,0,7.09-3.14,7.09-7v-7h2v7c0,4.96-4.04,9-9,9Z" class="c1"/><rect xmlns="http://www.w3.org/2000/svg" x="27" y="33" width="2" height="4" class="c1"/><rect xmlns="http://www.w3.org/2000/svg" x="14" y="20" width="2" height="7" class="c1"/><path xmlns="http://www.w3.org/2000/svg" d="M33,27h-2v-7.5c0-3.03-2.47-5.5-5.5-5.5s-5.5,2.47-5.5,5.5v7.5h-2v-7.5c0-4.14,3.36-7.5,7.5-7.5s7.5,3.36,7.5,7.5v7.5Z" class="c1"/><polygon xmlns="http://www.w3.org/2000/svg" points="11.34 23.75 2 15.45 2 6.59 5.59 3 9.41 3 12 5.59 14.59 3 18.41 3 22 6.59 22 10 20 10 20 7.41 17.59 5 15.41 5 12 8.41 8.59 5 6.41 5 4 7.41 4 14.55 12.66 22.25 11.34 23.75" class="c2"/></svg>
