<svg xmlns="http://www.w3.org/2000/svg" viewBox="0 0 400 400" width="400" height="400"><defs><style>.c1{fill:#30ba78}.c2{fill:#0c322c}</style></defs><path xmlns="http://www.w3.org/2000/svg" d="M200,347.87c-81.54,0-147.87-66.33-147.87-147.87v-12.05h14.92v12.05c0,73.31,59.65,132.96,132.96,132.96v14.92Z" class="c1"/><polygon xmlns="http://www.w3.org/2000/svg" points="83.63 222.54 59.59 198.5 35.55 222.54 25 211.99 59.59 177.41 94.17 211.99 83.63 222.54" class="c1"/><path xmlns="http://www.w3.org/2000/svg" d="M347.87,212.19h-14.92v-12.19c0-73.31-59.64-132.96-132.95-132.96v-14.92c81.53,0,147.87,66.33,147.87,147.87v12.19Z" class="c1"/><polygon xmlns="http://www.w3.org/2000/svg" points="340.41 222.73 305.83 188.15 316.37 177.6 340.41 201.64 364.45 177.6 375 188.15 340.41 222.73" class="c1"/><path xmlns="http://www.w3.org/2000/svg" d="M200,251.49c-28.4,0-51.5-23.1-51.5-51.49s23.1-51.5,51.5-51.5,51.49,23.1,51.49,51.5-23.1,51.49-51.49,51.49ZM200,163.42c-20.17,0-36.58,16.41-36.58,36.58s16.41,36.58,36.58,36.58,36.58-16.41,36.58-36.58-16.41-36.58-36.58-36.58Z" class="c1"/><path xmlns="http://www.w3.org/2000/svg" d="M226.89,298.32h-53.79v-17.57c-3.85-1.28-7.58-2.83-11.19-4.63l-12.42,12.42-38.03-38.03,12.42-12.42c-1.81-3.61-3.36-7.35-4.63-11.2h-17.57v-53.78h17.57c1.27-3.84,2.83-7.58,4.63-11.2l-12.42-12.42,38.03-38.03,12.42,12.42c3.61-1.81,7.35-3.36,11.19-4.64v-17.57h53.79v17.57c3.85,1.28,7.58,2.83,11.19,4.64l12.42-12.42,38.03,38.03-12.42,12.42c1.81,3.62,3.36,7.36,4.63,11.2h17.57v53.78h-17.57c-1.27,3.85-2.83,7.59-4.63,11.2l12.42,12.42-38.03,38.03-12.42-12.42c-3.61,1.81-7.35,3.35-11.19,4.63v17.57ZM188.02,283.4h23.95v-14l5.59-1.45c6.37-1.64,12.44-4.16,18.05-7.48l4.98-2.94,9.9,9.9,16.94-16.94-9.9-9.9,2.94-4.98c3.32-5.62,5.83-11.7,7.47-18.06l1.45-5.59h14v-23.95h-14l-1.45-5.59c-1.64-6.36-4.15-12.44-7.47-18.06l-2.94-4.98,9.9-9.9-16.94-16.94-9.9,9.9-4.98-2.94c-5.62-3.32-11.69-5.83-18.05-7.48l-5.59-1.45v-14h-23.95v14l-5.59,1.45c-6.37,1.64-12.44,4.16-18.05,7.48l-4.98,2.94-9.9-9.9-16.94,16.94,9.9,9.9-2.94,4.98c-3.32,5.63-5.83,11.7-7.47,18.06l-1.45,5.59h-14v23.95h14l1.45,5.59c1.64,6.37,4.15,12.44,7.47,18.06l2.94,4.98-9.9,9.9,16.94,16.94,9.9-9.9,4.98,2.94c5.62,3.32,11.69,5.83,18.05,7.48l5.59,1.45v14Z" class="c2"/></svg>
