<svg xmlns="http://www.w3.org/2000/svg" viewBox="0 0 40 40" width="40" height="40"><defs><style>.c1{fill:#30ba78}.c2{fill:#0c322c}</style></defs><path xmlns="http://www.w3.org/2000/svg" d="M 13.464844,17 6.1308594,28 H 20.535156 L 26.621094,18.871094 25.591797,17 Z m 1.070312,2 h 9.595703 l -4.666015,7 H 9.8691406 Z" class="c2"/><path xmlns="http://www.w3.org/2000/svg" d="m 22.832031,12.445313 -1.664062,1.109375 10,14.999999 1.664062,-1.109375 z" class="c2"/><path xmlns="http://www.w3.org/2000/svg" d="m 11.841797,12.458984 -1.683594,1.082032 9,14 1.683594,-1.082032 z" class="c2"/><path xmlns="http://www.w3.org/2000/svg" d="m 8,12 v 2 h 6 v -2 z m 13,0 v 2 h 6.464844 l 1.703125,2.554687 1.664062,-1.109374 L 28.535156,12 Z M 9,20 c -3.8541487,0 -7,3.145852 -7,7 0,3.854148 3.1458513,7 7,7 3.854148,0 7,-3.145852 7,-7 0,-3.854148 -3.145852,-7 -7,-7 z m 22,0 c -3.854148,0 -7,3.145852 -7,7 0,3.854148 3.145852,7 7,7 3.854148,0 7,-3.145852 7,-7 0,-3.854148 -3.145852,-7 -7,-7 z M 9,22 c 2.773268,0 5,2.226732 5,5 0,2.773268 -2.226732,5 -5,5 -2.7732683,0 -5,-2.226732 -5,-5 0,-2.773268 2.2267317,-5 5,-5 z m 22,0 c 2.773268,0 5,2.226732 5,5 0,2.773268 -2.226732,5 -5,5 -2.773268,0 -5,-2.226732 -5,-5 0,-2.773268 2.226732,-5 5,-5 z" class="c1"/></svg>
