<svg xmlns="http://www.w3.org/2000/svg" viewBox="0 0 361 361" width="361" height="361"><defs><style>.c1{fill:#30ba78}.c2{fill:#0c322c}</style></defs><path xmlns="http://www.w3.org/2000/svg" d="m 92.929687,46 v 22.029297 c -5.490215,1.782725 -10.784659,3.982166 -15.849609,6.570312 L 61.5,59.019531 14.019531,106.5 29.597656,122.07813 c -2.591114,5.06775 -4.791774,10.36309 -6.572265,15.85156 H 1 v 67.14062 h 22.029297 c 1.782725,5.49022 3.982166,10.78466 6.570312,15.84961 L 14.019531,236.5 61.5,283.98047 77.078125,268.40234 c 5.067759,2.59112 10.363097,4.79178 15.851562,6.57227 V 297 H 126.5 v -17 h -16.57031 v -17.95703 l -6.37891,-1.64453 c -8.416138,-2.16807 -16.363225,-5.49617 -23.664061,-9.81446 L 74.212891,247.22656 61.5,259.93945 38.060547,236.5 50.767578,223.79297 47.419922,218.11914 c -4.314072,-7.30919 -7.65173,-15.25938 -9.81836,-23.66992 l -1.644531,-6.37891 H 18 v -33.14062 h 17.957031 l 1.644531,-6.37891 c 2.168071,-8.41614 5.496165,-16.36323 9.814454,-23.66406 L 50.773437,119.21289 38.060547,106.5 61.5,83.060547 74.207031,95.767578 79.880859,92.419922 c 7.309191,-4.314072 15.259376,-7.65173 23.669921,-9.81836 l 6.37891,-1.644531 V 63 h 33.14062 v 17.957031 l 6.37891,1.644531 c 8.41614,2.168071 16.36323,5.496165 23.66406,9.814454 l 5.67383,3.357421 L 191.5,83.060547 214.93945,106.5 l -12.70703,12.70703 3.34766,5.67383 c 4.31407,7.30919 7.65173,15.25938 9.81836,23.66992 l 1.64453,6.37891 H 235 V 171.5 h 17 v -33.57031 h -22.0293 c -1.78272,-5.49022 -3.98216,-10.78466 -6.57031,-15.84961 L 238.98047,106.5 191.5,59.019531 175.92187,74.597656 c -5.06775,-2.591114 -10.36309,-4.791774 -15.85156,-6.572265 V 46 Z" class="c1"/><path xmlns="http://www.w3.org/2000/svg" d="m 126.5,112.85938 c -32.284318,0 -58.640625,26.3563 -58.640625,58.64062 0,32.28432 26.356307,58.64062 58.640625,58.64062 v -17 c -23.09568,0 -41.640625,-18.54494 -41.640625,-41.64062 0,-23.09568 18.544945,-41.64063 41.640625,-41.64063 23.09568,0 41.64063,18.54495 41.64062,41.64063 h 17 c 0,-32.28432 -26.3563,-58.64063 -58.64062,-58.64062 z" class="c1"/><path xmlns="http://www.w3.org/2000/svg" d="m 144.5,190 v 17 h 207 v -17 z" class="c2"/><path xmlns="http://www.w3.org/2000/svg" d="m 144.5,226 v 17 h 171 v -17 z" class="c2"/><path xmlns="http://www.w3.org/2000/svg" d="m 144.5,262 v 17 h 126 v -17 z" class="c2"/><path xmlns="http://www.w3.org/2000/svg" d="m 144.5,298 v 17 h 81 v -17 z" class="c2"/></svg>
