<svg xmlns="http://www.w3.org/2000/svg" viewBox="0 0 40 40" width="40" height="40"><defs><style>.c1{fill:#30ba78}.c2{fill:#0c322c}</style></defs><path xmlns="http://www.w3.org/2000/svg" d="M4,36.02V15.02l32.01-.05v21l-32.01.05ZM6,17.02v17l28.01-.04v-17l-28.01.04Z" class="c2"/><path xmlns="http://www.w3.org/2000/svg" d="M20,32H8v-13h12v13ZM10,30h8v-9h-8v9Z" class="c1"/><rect xmlns="http://www.w3.org/2000/svg" x="22" y="19" width="2" height="13" class="c1"/><rect xmlns="http://www.w3.org/2000/svg" x="26" y="19" width="2" height="13" class="c1"/><rect xmlns="http://www.w3.org/2000/svg" x="30" y="19" width="2" height="13" class="c1"/><polygon xmlns="http://www.w3.org/2000/svg" points="32.75 17.08 20 11.1 7.25 17.08 6.4 15.27 20 8.9 33.6 15.27 32.75 17.08" class="c2"/><rect xmlns="http://www.w3.org/2000/svg" x="19" y="5" width="2" height="4.65" class="c2"/><rect xmlns="http://www.w3.org/2000/svg" x="17" y="4" width="6" height="2" class="c2"/></svg>
