<svg xmlns="http://www.w3.org/2000/svg" viewBox="0 0 40 40" width="40" height="40"><defs><style>.c1{fill:#30ba78}.c2{fill:#0c322c}</style></defs><path xmlns="http://www.w3.org/2000/svg" d="M12,12H4V4h8v8ZM6,10h4v-4h-4v4Z" class="c1"/><path xmlns="http://www.w3.org/2000/svg" d="M12,24H4v-8h8v8ZM6,22h4v-4h-4v4Z" class="c2"/><path xmlns="http://www.w3.org/2000/svg" d="M12,36H4v-8h8v8ZM6,34h4v-4h-4v4Z" class="c1"/><path xmlns="http://www.w3.org/2000/svg" d="M24,12h-8V4h8v8ZM18,10h4v-4h-4v4Z" class="c2"/><path xmlns="http://www.w3.org/2000/svg" d="M24,24h-8v-8h8v8ZM18,22h4v-4h-4v4Z" class="c1"/><path xmlns="http://www.w3.org/2000/svg" d="M24,36h-8v-8h8v8ZM18,34h4v-4h-4v4Z" class="c2"/><path xmlns="http://www.w3.org/2000/svg" d="M36,12h-8V4h8v8ZM30,10h4v-4h-4v4Z" class="c1"/><path xmlns="http://www.w3.org/2000/svg" d="M36,24h-8v-8h8v8ZM30,22h4v-4h-4v4Z" class="c2"/><path xmlns="http://www.w3.org/2000/svg" d="M36,36h-8v-8h8v8ZM30,34h4v-4h-4v4Z" class="c1"/><rect xmlns="http://www.w3.org/2000/svg" x="9.76" y="13" width="8.49" height="2" transform="translate(-5.8 14) rotate(-45)" class="c2"/><rect xmlns="http://www.w3.org/2000/svg" x="13" y="9.76" width="2" height="8.49" transform="translate(-5.8 14) rotate(-45)" class="c1"/><rect xmlns="http://www.w3.org/2000/svg" x="13" y="21.76" width="2" height="8.49" transform="translate(-14.28 17.51) rotate(-45)" class="c2"/><rect xmlns="http://www.w3.org/2000/svg" x="9.76" y="25" width="8.49" height="2" transform="translate(-14.28 17.51) rotate(-45)" class="c1"/><rect xmlns="http://www.w3.org/2000/svg" x="21.76" y="25" width="8.48" height="2" transform="translate(-10.77 26) rotate(-45)" class="c2"/><rect xmlns="http://www.w3.org/2000/svg" x="25" y="21.76" width="2" height="8.48" transform="translate(-10.77 26) rotate(-45)" class="c1"/><rect xmlns="http://www.w3.org/2000/svg" x="25" y="9.76" width="2" height="8.48" transform="translate(-2.29 22.48) rotate(-45)" class="c2"/><rect xmlns="http://www.w3.org/2000/svg" x="21.76" y="13" width="8.48" height="2" transform="translate(-2.28 22.48) rotate(-45)" class="c1"/></svg>
