<svg xmlns="http://www.w3.org/2000/svg" viewBox="0 0 40 40" width="40" height="40"><defs><style>.c1{fill:#30ba78}.c2{fill:#0c322c}</style></defs><path xmlns="http://www.w3.org/2000/svg" d="M 27.349534,10.519048 C 22.078316,6.4811307 14.496141,7.4767304 10.450961,12.739609 c -4.0451803,5.262879 -3.0460706,12.832008 2.225148,16.869925 5.271218,4.037918 12.853392,3.042318 16.898572,-2.22056 4.04518,-5.262879 3.046071,-12.832009 -2.225147,-16.869926 z m -1.218818,1.585712 c 4.413541,3.38091 5.242462,9.662461 1.856266,14.067986 -3.386197,4.405525 -9.678514,5.231986 -14.092055,1.851076 C 9.4813854,24.642913 8.6524639,18.361361 12.038661,13.955836 15.424857,9.5503111 21.717175,8.72385 26.130716,12.10476 Z" class="c1"/><path xmlns="http://www.w3.org/2000/svg" d="M 5.8847278,6.6699219 C 5.2182067,6.6865578 4.5024974,6.8843253 4.0487904,7.4746094 3.6812884,7.9527385 3.6065815,8.5558282 3.6757435,9.0859375 c 0.069162,0.5301093 0.2632326,1.0443445 0.5390625,1.5937505 0.5516598,1.098809 1.4556271,2.338863 2.6582031,3.724609 2.405152,2.771492 6.0079819,6.091654 10.2890629,9.371094 4.281078,3.27944 8.424605,5.894218 11.728516,7.496093 1.651955,0.800938 3.087564,1.352151 4.292968,1.59961 0.602703,0.123729 1.149701,0.177822 1.679688,0.107422 0.529987,-0.0704 1.091483,-0.299214 1.458984,-0.777344 0.472932,-0.615296 0.461387,-1.389448 0.283203,-2.064453 -0.178184,-0.675006 -0.525435,-1.361444 -1.007812,-2.119141 -0.880989,-1.383818 -2.248066,-2.998653 -3.969336,-4.754687 -0.193839,0.705393 -0.451503,1.399002 -0.779297,2.070507 1.347168,1.42958 2.404044,2.726271 3.061133,3.758399 0.41501,0.65188 0.668911,1.205061 0.761719,1.556641 0.04718,0.178714 0.05174,0.275581 0.05059,0.321289 0.03195,-0.01056 0.03422,-0.01379 0.01387,0.0127 -0.02147,0.02793 -0.01499,0.03152 -0.01387,-0.0127 -0.02131,0.007 -0.0455,0.01609 -0.122852,0.02637 -0.193342,0.02568 -0.550897,0.01102 -1.013672,-0.08398 C 32.66035,30.722102 31.325563,30.229945 29.763635,29.472656 26.639781,27.958075 22.571951,25.399533 18.378869,22.1875 14.185784,18.975468 10.656607,15.71392 8.3827747,13.09375 7.2458589,11.783665 6.4250621,10.626037 6.0019154,9.7832031 5.790342,9.3617863 5.6832491,9.0203854 5.6581654,8.828125 c -0.00998,-0.076518 -0.00767,-0.1018161 -0.00664,-0.1242187 -0.043439,0.012506 -0.038413,0.017577 -0.016797,-0.010547 0.020428,-0.026577 0.018352,-0.02334 0.016797,0.010547 0.040746,-0.011731 0.1238574,-0.029988 0.2839844,-0.033984 0.3308391,-0.00826 0.8850406,0.074257 1.5703125,0.2773437 1.18653,0.3516384 2.7851404,1.0608774 4.6007814,2.0345704 C 12.67457,10.488888 13.28233,10.058267 13.918517,9.6871094 11.667506,8.4214412 9.6865596,7.507139 8.074181,7.0292969 7.2661353,6.7898256 6.5512491,6.653286 5.8847278,6.6699219 Z" class="c2"/></svg>
