<svg xmlns="http://www.w3.org/2000/svg" viewBox="0 0 100 100" width="100" height="100"><defs><style>.c1{fill:#30ba78}.c2{fill:#0c322c}</style></defs><path xmlns="http://www.w3.org/2000/svg" d="M 9.9941405,5 V 21.25 L 19.99414,28.750488 V 40 h 5 V 42.5 70 H 9.9941405 v 10 h -5 V 95 H 35.005859 V 90 H 9.9941405 v -5 h 25.0117185 5 v -5 h -5 -20.011718 v -5 h 9.999999 5 15 v -5 h -15 V 42.5 40 h 12.5 2.5 v -5 h -2.5 -17.5 v -5 h 25 v -5 h -25 -1.666015 L 14.994141,18.75 V 10 h 4.999999 v 7.5 h 15 V 10 h 5 v 7.5 h 10 v -5 h -5 V 5 h -15 v 7.5 h -5 V 5 Z" class="c2"/><path xmlns="http://www.w3.org/2000/svg" d="M 84.99414,1.2578125 81.537109,2.6894531 C 65.966133,9.139163 57.739606,18.493768 53.8125,29.966797 49.885393,41.439824 50.003371,54.791858 50.017578,70.001953 v 0.753906 l 5.2583,7.923829 -5.281738,5.285156 V 95 h 45 V 83.964844 L 88.529296,77.5 l 6.332032,-6.332031 0.111328,-0.841797 c 0.929827,-7.062734 -1.522667,-14.431156 -5.21875,-20.722656 -1.48289,-2.524187 -3.196509,-4.809775 -4.996094,-6.904297 L 95.033203,45.914062 94.810546,26.464844 84.99414,16.476562 Z m -5,7.8242185 v 9.441407 l 9.839844,10.011718 0.121094,10.550782 -17.460938,-5.462891 v 5.34375 l 1.28125,0.716797 c 3.718802,2.075625 8.361306,6.824495 11.667969,12.453125 3.162414,5.383085 5.044099,11.513937 4.582031,16.796875 L 83.958984,75 H 72.492187 58.953125 l -0.01807,0.01807 L 58.835937,75 55.033203,69.267578 c -0.01189,-14.875207 0.04711,-27.56549 3.509765,-37.68164 3.205163,-9.36387 9.419303,-16.687683 21.451172,-22.503907 z M 74.99414,25 v 5 h 5 V 25 Z M 61.02539,80 h 22.933594 l 6.035156,6.035156 V 90 h -35 v -3.964844 z" class="c1"/></svg>
