<svg xmlns="http://www.w3.org/2000/svg" viewBox="0 0 40 40" width="40" height="40"><defs><style>.c1{fill:#30ba78}.c2{fill:#0c322c}</style></defs><path xmlns="http://www.w3.org/2000/svg" d="M 35,34 V 6" fill="#efefef"/><path xmlns="http://www.w3.org/2000/svg" d="m 34,6 v 18 h 2 V 6 Z M 13.775391,6 12.445313,9.950014 11.40625,10.379617 7.671875,8.5270759 4.5292969,11.672314 6.3808594,15.402667 5.9472656,16.450431 2,17.780061 v 4.439878 l 3.9472656,1.32963 0.4335938,1.047766 -1.8515625,3.730352 3.1425781,3.145238 3.734375,-1.852541 1.039063,0.429602 L 13.775391,34 h 4.449218 l 1.330078,-3.950014 1.039063,-0.429602 3.734375,1.852541 3.142578,-3.145238 -1.851562,-3.730352 0.433593,-1.047766 L 30,22.219939 V 17.780061 L 26.052734,16.450431 25.619141,15.402667 27.470703,11.672314 24.328125,8.5270759 20.59375,10.379617 19.554687,9.950014 18.224609,6 Z m 1.439453,1.9905582 h 1.570312 l 1.16211,3.4484868 2.722656,1.129408 3.257812,-1.617329 1.115235,1.115802 -1.617188,3.261872 1.125,2.715634 L 28,19.206887 v 1.586226 l -3.449219,1.162455 -1.125,2.715635 1.617188,3.261871 -1.115235,1.115802 -3.257812,-1.615385 -2.722656,1.127465 -1.16211,3.448486 H 15.214844 L 14.052734,28.560956 11.330078,27.433491 8.0722656,29.048876 6.9570312,27.933074 8.5742188,24.671203 7.4492187,21.955568 4,20.793113 v -1.586226 l 3.4492187,-1.162455 1.1250001,-2.715634 -1.6171876,-3.261872 1.1152344,-1.115802 3.2578124,1.617329 2.722656,-1.129408 z" class="c2"/><path xmlns="http://www.w3.org/2000/svg" d="M 34,27.990234 V 34 h 2 v -6.009766 z" class="c2"/><path xmlns="http://www.w3.org/2000/svg" d="m 16,14 c -3.295861,0 -5.988281,2.69242 -5.988281,5.988281 0,3.295861 2.69242,5.990235 5.988281,5.990235 3.295861,0 5.988281,-2.694374 5.988281,-5.990235 C 21.988281,16.69242 19.295861,14 16,14 Z m 0,2 c 2.214981,0 3.988281,1.7733 3.988281,3.988281 0,2.214981 -1.7733,3.990235 -3.988281,3.990235 -2.214981,0 -3.988281,-1.775254 -3.988281,-3.990235 C 12.011719,17.7733 13.785019,16 16,16 Z" class="c1"/><path xmlns="http://www.w3.org/2000/svg" d="m 32,24 v 6 h 6 v -6 z m 2,2 h 2 v 2 h -2 z" class="c1"/></svg>
