<svg xmlns="http://www.w3.org/2000/svg" viewBox="0 0 1920 1080" width="1920" height="1080"><defs><style>.c1{fill:#30ba78}.c2{fill:#0c322c}</style></defs><rect xmlns="http://www.w3.org/2000/svg" width="1920" height="50" class="c1"/><rect xmlns="http://www.w3.org/2000/svg" y="270" width="1920" height="40" class="c2"/><rect xmlns="http://www.w3.org/2000/svg" y="90" width="1920" height="30" class="c2"/><rect xmlns="http://www.w3.org/2000/svg" y="120" width="1920" height="40" class="c2"/><rect xmlns="http://www.w3.org/2000/svg" y="50" width="1920" height="20" class="c2"/><rect xmlns="http://www.w3.org/2000/svg" y="160" width="1920" height="10" class="c2"/><rect xmlns="http://www.w3.org/2000/svg" y="180" width="1920" height="30" class="c2"/><rect xmlns="http://www.w3.org/2000/svg" y="210" width="1920" height="60" class="c1"/><rect xmlns="http://www.w3.org/2000/svg" y="310" width="1920" height="10" class="c2"/><rect xmlns="http://www.w3.org/2000/svg" y="330" width="1920" height="20" class="c1"/><rect xmlns="http://www.w3.org/2000/svg" y="930" width="1920" height="30" class="c2"/><rect xmlns="http://www.w3.org/2000/svg" y="350" width="1920" height="70" class="c2"/><rect xmlns="http://www.w3.org/2000/svg" y="420" width="1920" height="20" class="c1"/><rect xmlns="http://www.w3.org/2000/svg" y="440" width="1920" height="30" class="c2"/><rect xmlns="http://www.w3.org/2000/svg" y="500" width="1920" height="70" class="c2"/><rect xmlns="http://www.w3.org/2000/svg" y="960" width="1920" height="40" class="c2"/><rect xmlns="http://www.w3.org/2000/svg" y="570" width="1920" height="30" class="c1"/><rect xmlns="http://www.w3.org/2000/svg" y="600" width="1920" height="30" class="c2"/><rect xmlns="http://www.w3.org/2000/svg" y="630" width="1920" height="20" class="c2"/><rect xmlns="http://www.w3.org/2000/svg" y="670" width="1920" height="30" class="c1"/><rect xmlns="http://www.w3.org/2000/svg" y="720" width="1920" height="20" class="c2"/><rect xmlns="http://www.w3.org/2000/svg" y="700" width="1920" height="20" class="c2"/><rect xmlns="http://www.w3.org/2000/svg" y="740" width="1920" height="70" class="c2"/><rect xmlns="http://www.w3.org/2000/svg" y="840" width="1920" height="30" class="c2"/><rect xmlns="http://www.w3.org/2000/svg" y="870" width="1920" height="60" class="c1"/><rect xmlns="http://www.w3.org/2000/svg" y="1000" width="1920" height="10" class="c1"/><rect xmlns="http://www.w3.org/2000/svg" y="1020" width="1920" height="20" class="c2"/><rect xmlns="http://www.w3.org/2000/svg" y="1040" width="1920" height="40" class="c2"/></svg>
