<svg xmlns="http://www.w3.org/2000/svg" viewBox="0 0 40 40" width="40" height="40"><defs><style>.c1{fill:#30ba78}.c2{fill:#0c322c}</style></defs><rect xmlns="http://www.w3.org/2000/svg" x="19" y="6.21" width="2" height="28.79" class="c2"/><path xmlns="http://www.w3.org/2000/svg" d="M17,35H4v-2h11v-14c0-.55-.45-1-1-1h-8v-2h8c1.65,0,3,1.35,3,3v16Z" class="c2"/><polygon xmlns="http://www.w3.org/2000/svg" points="9.92 22.81 4.14 17.02 9.92 11.24 11.34 12.65 6.97 17.02 11.34 21.39 9.92 22.81" class="c1"/><polygon xmlns="http://www.w3.org/2000/svg" points="24.36 11.45 19.99 7.07 15.62 11.45 14.21 10.03 19.99 4.25 25.78 10.03 24.36 11.45" class="c1"/><path xmlns="http://www.w3.org/2000/svg" d="M36,35h-13v-9c0-1.65,1.35-3,3-3h8.05v2h-8.05c-.55,0-1,.45-1,1v7h11v2Z" class="c2"/><polygon xmlns="http://www.w3.org/2000/svg" points="31.12 29.91 29.71 28.49 34.08 24.12 29.71 19.75 31.12 18.34 36.91 24.12 31.12 29.91" class="c1"/></svg>
