<svg xmlns="http://www.w3.org/2000/svg" viewBox="0 0 40 40" width="40" height="40"><defs><style>.c1{fill:#30ba78}.c2{fill:#0c322c}</style></defs><polygon xmlns="http://www.w3.org/2000/svg" points="21 29 4 29 4 7 18 7 18 9 6 9 6 27 21 27 21 29" class="c2"/><polygon xmlns="http://www.w3.org/2000/svg" points="38 29 33 29 33 27 36 27 36 23 38 23 38 29" class="c2"/><rect xmlns="http://www.w3.org/2000/svg" x="9" y="11" width="7" height="2" class="c2"/><rect xmlns="http://www.w3.org/2000/svg" x="9" y="15" width="7" height="2" class="c2"/><rect xmlns="http://www.w3.org/2000/svg" x="9" y="19" width="7" height="2" class="c2"/><rect xmlns="http://www.w3.org/2000/svg" x="9" y="23" width="7" height="2" class="c2"/><path xmlns="http://www.w3.org/2000/svg" d="M27,23c-4.69,0-8.5-3.81-8.5-8.5s3.81-8.5,8.5-8.5,8.5,3.81,8.5,8.5-3.81,8.5-8.5,8.5ZM27,8c-3.58,0-6.5,2.92-6.5,6.5s2.92,6.5,6.5,6.5,6.5-2.92,6.5-6.5-2.92-6.5-6.5-6.5Z" class="c1"/><polygon xmlns="http://www.w3.org/2000/svg" points="34 30.87 30 28.2 26 30.87 26 24 28 24 28 27.13 30 25.8 32 27.13 32 19 34 19 34 30.87" class="c1"/><polygon xmlns="http://www.w3.org/2000/svg" points="20 35.87 20 19 22 19 22 32.13 23.93 30.85 28.45 33.1 27.55 34.89 24.07 33.15 20 35.87" class="c1"/><path xmlns="http://www.w3.org/2000/svg" d="M27,23c-4.69,0-8.5-3.81-8.5-8.5s3.81-8.5,8.5-8.5,8.5,3.81,8.5,8.5-3.81,8.5-8.5,8.5ZM27,8c-3.58,0-6.5,2.92-6.5,6.5s2.92,6.5,6.5,6.5,6.5-2.92,6.5-6.5-2.92-6.5-6.5-6.5Z" class="c1"/></svg>
