<svg xmlns="http://www.w3.org/2000/svg" viewBox="0 0 400 400" width="400" height="400"><defs><style>.c1{fill:#30ba78}.c2{fill:#0c322c}</style></defs><!-- Generator: Adobe Illustrator 29.5.1, SVG Export Plug-In . SVG Version: 2.1.0 Build 141)  --><path xmlns="http://www.w3.org/2000/svg" d="M265,143.4h-22.5c0-29.1-23.7-52.8-52.8-52.8s-52.8,23.7-52.8,52.8h-22.5c0-41.5,33.7-75.3,75.3-75.3s75.3,33.7,75.3,75.3Z" class="c1"/><path xmlns="http://www.w3.org/2000/svg" d="M333.1,143.5h-22.5v-17.1h-20.3l-2.2-8.4c-2.4-9.2-6-18-10.8-26.2l-4.4-7.5,14.4-14.4-24.1-24.1-14.4,14.4-7.5-4.4c-8.1-4.8-17-8.4-26.2-10.8l-8.4-2.2v-20.3h-34v20.3l-8.4,2.2c-9.2,2.4-18,6-26.2,10.8l-7.5,4.4-14.4-14.4-24.1,24.1,14.4,14.4-4.4,7.5c-4.8,8.1-8.4,17-10.8,26.1l-2.2,8.4h-20.3v17h-22.5v-39.4h25.7c1.8-5.4,4-10.7,6.5-15.9l-18.2-18.2L116.3,14.1l18.2,18.2c5.1-2.5,10.3-4.7,15.8-6.5V0h79v25.7c5.4,1.8,10.7,4,15.8,6.5l18.2-18.2,55.8,55.8-18.2,18.2c2.5,5.1,4.7,10.3,6.5,15.8h25.6v39.6h.1Z" class="c2"/><path xmlns="http://www.w3.org/2000/svg" d="M242.3,400H102.4l21.4-83.5c-5.1-2.8-23.3-13.4-41.1-31.2-27.7-27.9-41.8-59.7-41.8-94.6s1.2-26.1,3.7-38.2l1.8-9.1h286.6l1.1,10.2c1.2,11.4,1.8,34.1,1.8,47l21.3,35.4c2.3,4,2.4,8.7.2,12.6-2.3,4-6.4,6.4-11,6.4h-20.9v39.4c-.2,16.3-9.5,43.6-43.6,43.6h-29.5l-10.1,61.7v.2ZM131.6,377.2h91.4l10.1-61.7h48.8c18.7,0,20.8-14.7,20.9-21v-62.1h25.7l-15.3-25.5v-5.7c0-10.3-.3-24.4-.9-35H65.3c-1.1,7.8-1.7,16.1-1.7,24.5,0,28.6,11.8,55,35.1,78.5,18,18.1,36.4,27.6,36.6,27.7l14.9,7.5-18.7,72.8h0Z" class="c2"/></svg>
