<svg xmlns="http://www.w3.org/2000/svg" viewBox="0 0 40 40" width="40" height="40"><defs><style>.c1{fill:#30ba78}.c2{fill:#0c322c}</style></defs><path xmlns="http://www.w3.org/2000/svg" d="m 12,19.902344 c -1.645012,0 -3,1.354987 -3,3 0,1.645012 1.354988,3 3,3 1.645012,0 3,-1.354988 3,-3 0,-1.645013 -1.354988,-3 -3,-3 z m 0,2 c 0.564127,0 1,0.435873 1,1 0,0.564126 -0.435873,1 -1,1 -0.564127,0 -1,-0.435874 -1,-1 0,-0.564127 0.435873,-1 1,-1 z" class="c1"/><path xmlns="http://www.w3.org/2000/svg" d="m 26,19.902344 c -1.645012,0 -3,1.354987 -3,3 0,1.645012 1.354988,3 3,3 1.645012,0 3,-1.354988 3,-3 0,-1.645013 -1.354988,-3 -3,-3 z m 0,2 c 0.564127,0 1,0.435873 1,1 0,0.564126 -0.435873,1 -1,1 -0.564127,0 -1,-0.435874 -1,-1 0,-0.564127 0.435873,-1 1,-1 z" class="c1"/><path xmlns="http://www.w3.org/2000/svg" d="m 19,2.1875 c -3.068394,0 -6.127281,0.3061265 -8.513672,0.9589844 C 9.2931325,3.4729133 8.2640636,3.878161 7.4550781,4.4472656 6.6460927,5.0163703 6,5.8591704 6,6.8808594 V 26 c 0,1.166667 0.3072665,2.221329 1.0429687,2.957031 C 7.778671,29.692734 8.8333333,30 10,30 h 18 c 1.166667,0 2.221329,-0.307266 2.957031,-1.042969 C 31.692734,28.221329 32,27.166667 32,26 V 6.8808594 C 32,5.8591704 31.353907,5.0163703 30.544922,4.4472656 29.735936,3.8781609 28.706868,3.4729133 27.513672,3.1464844 25.127281,2.4936265 22.068394,2.1875 19,2.1875 Z m 0,2 c 2.931606,0 5.872719,0.3104406 7.986328,0.8886719 1.056804,0.2891156 1.902736,0.6536003 2.40625,1.0078125 C 29.896093,6.4381965 30,6.6714592 30,6.8808594 V 26 c 0,0.833333 -0.192734,1.278671 -0.457031,1.542969 C 29.278671,27.807266 28.833333,28 28,28 H 10 C 9.1666667,28 8.721329,27.807266 8.4570313,27.542969 8.1927335,27.278671 8,26.833333 8,26 V 6.8808594 C 8,6.6714593 8.1039073,6.4381965 8.6074219,6.0839844 9.1109364,5.7297722 9.9568675,5.3652875 11.013672,5.0761719 13.127281,4.4979406 16.068394,4.1875 19,4.1875 Z" class="c1"/><path xmlns="http://www.w3.org/2000/svg" d="M 11.505859,8 C 10.688694,8 10,8.6886941 10,9.5058594 V 16.494141 C 10,17.311306 10.688694,18 11.505859,18 H 26.494141 C 27.311306,18 28,17.311306 28,16.494141 V 9.5058594 C 28,8.6886941 27.311306,8 26.494141,8 Z M 12,10 h 14 v 6 H 12 Z" class="c2"/><path xmlns="http://www.w3.org/2000/svg" d="M 10.579492 30 L 4.5853516 36 L 7.4125 36 L 9.4101562 34 L 28.816406 34 L 30.743164 36 L 33.520117 36 L 27.739063 30 L 24.961523 30 L 26.888672 32 L 11.408203 32 L 13.40625 30 L 10.579492 30 z " class="c2"/><path xmlns="http://www.w3.org/2000/svg" d="m 17,23 h 4" fill="#efefef"/><path xmlns="http://www.w3.org/2000/svg" d="m 17,22 v 2 h 4 v -2 z" class="c1"/></svg>
