<svg xmlns="http://www.w3.org/2000/svg" viewBox="0 0 40 40" width="40" height="40"><defs><style>.c1{fill:#30ba78}.c2{fill:#0c322c}</style></defs><path xmlns="http://www.w3.org/2000/svg" d="m 20,3 v 8 h 2 V 3 Z" class="c2"/><path xmlns="http://www.w3.org/2000/svg" d="m 5,10 v 2 h 31 v -2 z" class="c2"/><path xmlns="http://www.w3.org/2000/svg" d="M 9.4863281,2 4,9.6796875 V 36 H 37 V 9.6796875 L 31.513672,2 Z M 10.513672,4 H 30.486328 L 35,10.320313 V 34 H 6 V 10.322266 Z" class="c2"/><path xmlns="http://www.w3.org/2000/svg" d="m 16,16 c -1.644703,0 -3,1.355297 -3,3 0,1.644703 1.355297,3 3,3 h 10 c 1.644703,0 3,-1.355297 3,-3 0,-1.644703 -1.355297,-3 -3,-3 z m 0,2 h 10 c 0.571297,0 1,0.428703 1,1 0,0.571297 -0.428703,1 -1,1 H 16 c -0.571297,0 -1,-0.428703 -1,-1 0,-0.571297 0.428703,-1 1,-1 z" class="c1"/></svg>
