<svg xmlns="http://www.w3.org/2000/svg" viewBox="0 0 40 40" width="40" height="40"><defs><style>.c1{fill:#30ba78}.c2{fill:#0c322c}</style></defs><path xmlns="http://www.w3.org/2000/svg" d="M20 26c-7.98 0-14-2.79-14-6.5S12.02 13 20 13s14 2.79 14 6.5S27.98 26 20 26m0-11c-6.87 0-12 2.38-12 4.5S13.13 24 20 24s12-2.38 12-4.5S26.87 15 20 15m5.48 21.85L20 33.5l-5.48 3.35-1.04-1.7 6-3.68h1.04l6 3.68z" class="c2"/><path xmlns="http://www.w3.org/2000/svg" d="M11 35h18v2H11z" class="c2"/><path xmlns="http://www.w3.org/2000/svg" d="M19 11.84h2V20h-2z" class="c1"/><path xmlns="http://www.w3.org/2000/svg" d="M20 13c-1.65 0-3-1.35-3-3s1.35-3 3-3 3 1.35 3 3-1.35 3-3 3m0-4c-.55 0-1 .45-1 1s.45 1 1 1 1-.45 1-1-.45-1-1-1" class="c1"/><path xmlns="http://www.w3.org/2000/svg" d="M27 10h-2c0-2.76-2.24-5-5-5s-5 2.24-5 5h-2c0-3.86 3.14-7 7-7s7 3.14 7 7m-1.8 10.6L20 13.67l-5.2 6.93-1.6-1.2 6-8h1.6l6 8z" class="c1"/><path xmlns="http://www.w3.org/2000/svg" d="M20 33.32c-7.46 0-14-6.28-14-10.08h2c0 2.34 5.19 8.08 12 8.08s12-5.73 12-8.08h2c0 3.8-6.54 10.08-14 10.08" class="c2"/></svg>
