<svg xmlns="http://www.w3.org/2000/svg" viewBox="0 0 40 40" width="40" height="40"><defs><style>.c1{fill:#30ba78}.c2{fill:#0c322c}</style></defs><path xmlns="http://www.w3.org/2000/svg" d="M20,26c-3.31,0-6-2.69-6-6s2.69-6,6-6h1v2h-1c-2.21,0-4,1.79-4,4s1.79,4,4,4,4-1.79,4-4v-1h2v1c0,3.31-2.69,6-6,6Z" class="c2"/><path xmlns="http://www.w3.org/2000/svg" d="M20,30c-5.51,0-10-4.49-10-10,0-5.18,3.95-9.45,9-9.95V3h2v9h-1c-4.41,0-8,3.59-8,8s3.59,8,8,8,8-3.59,8-8v-1h9v2h-7.05c-.5,5.05-4.77,9-9.95,9Z" class="c2"/><rect xmlns="http://www.w3.org/2000/svg" x="19" y="29.34" width="2" height="7.66" class="c2"/><rect xmlns="http://www.w3.org/2000/svg" x="3" y="19" width="7.66" height="2" class="c2"/><polygon xmlns="http://www.w3.org/2000/svg" points="20.71 20.71 19.29 19.29 28 10.59 28 7.59 32.29 3.29 33.71 4.71 30 8.41 30 11.41 20.71 20.71" class="c1"/><polygon xmlns="http://www.w3.org/2000/svg" points="32.41 12 29 12 29 10 31.59 10 35.29 6.29 36.71 7.71 32.41 12" class="c1"/><path xmlns="http://www.w3.org/2000/svg" d="M20,26c-3.31,0-6-2.69-6-6s2.69-6,6-6h1v2h-1c-2.21,0-4,1.79-4,4s1.79,4,4,4,4-1.79,4-4v-1h2v1c0,3.31-2.69,6-6,6Z" class="c2"/><path xmlns="http://www.w3.org/2000/svg" d="M20,34c-7.72,0-14-6.28-14-14s6.28-14,14-14v2c-6.62,0-12,5.38-12,12s5.38,12,12,12,12-5.38,12-12h2c0,7.72-6.28,14-14,14Z" class="c2"/><path xmlns="http://www.w3.org/2000/svg" d="M21,12c-.81-.01-1.56,0-2,.06V3h2v9Z" class="c1"/><path xmlns="http://www.w3.org/2000/svg" d="M28,19c.01.81,0,1.56-.06,2h9.06v-2h-9Z" class="c1"/><path xmlns="http://www.w3.org/2000/svg" d="M12.07,21.03H3v-2.06h9.07s-.07.31-.07,1.03.07,1.03.07,1.03Z" class="c1"/><path xmlns="http://www.w3.org/2000/svg" d="M21.03,27.94v9.07h-2.06v-9.07s.31.07,1.03.07,1.03-.07,1.03-.07Z" class="c1"/></svg>
