<svg xmlns="http://www.w3.org/2000/svg" viewBox="0 0 40 40" width="40" height="40"><defs><style>.c1{fill:#30ba78}.c2{fill:#0c322c}</style></defs><path xmlns="http://www.w3.org/2000/svg" d="m 4,8 v 6 H 6 V 8 Z" class="c1"/><path xmlns="http://www.w3.org/2000/svg" d="m 11,8 c -1.6447028,0 -3,1.3552972 -3,3 0,1.644703 1.3552972,3 3,3 1.644703,0 3,-1.355297 3,-3 0,-1.6447028 -1.355297,-3 -3,-3 z m 0,2 c 0.571297,0 1,0.428703 1,1 0,0.571297 -0.428703,1 -1,1 -0.571297,0 -1,-0.428703 -1,-1 0,-0.571297 0.428703,-1 1,-1 z" class="c1"/><path xmlns="http://www.w3.org/2000/svg" d="m 16,8 v 6 h 2 V 8 Z" class="c1"/><path xmlns="http://www.w3.org/2000/svg" d="m 23,8 c -1.644703,0 -3,1.3552972 -3,3 0,1.644703 1.355297,3 3,3 1.644703,0 3,-1.355297 3,-3 0,-1.6447028 -1.355297,-3 -3,-3 z m 0,2 c 0.571297,0 1,0.428703 1,1 0,0.571297 -0.428703,1 -1,1 -0.571297,0 -1,-0.428703 -1,-1 0,-0.571297 0.428703,-1 1,-1 z" class="c1"/><path xmlns="http://www.w3.org/2000/svg" d="m 32,16 v 6 h 2 v -6 z" class="c1"/><path xmlns="http://www.w3.org/2000/svg" d="m 23,16 c -1.644703,0 -3,1.355297 -3,3 0,1.644703 1.355297,3 3,3 1.644703,0 3,-1.355297 3,-3 0,-1.644703 -1.355297,-3 -3,-3 z m 0,2 c 0.571297,0 1,0.428703 1,1 0,0.571297 -0.428703,1 -1,1 -0.571297,0 -1,-0.428703 -1,-1 0,-0.571297 0.428703,-1 1,-1 z" class="c1"/><path xmlns="http://www.w3.org/2000/svg" d="m 28,16 v 6 h 2 v -6 z" class="c1"/><path xmlns="http://www.w3.org/2000/svg" d="m -15,16 c -1.644703,0 -3,1.355297 -3,3 0,1.644703 1.355297,3 3,3 1.644703,0 3,-1.355297 3,-3 0,-1.644703 -1.355297,-3 -3,-3 z m 0,2 c 0.571297,0 1,0.428703 1,1 0,0.571297 -0.428703,1 -1,1 -0.571297,0 -1,-0.428703 -1,-1 0,-0.571297 0.428703,-1 1,-1 z" transform="scale(-1,1)" class="c1"/><path xmlns="http://www.w3.org/2000/svg" d="m 8,16 v 6 h 2 v -6 z" class="c1"/><path xmlns="http://www.w3.org/2000/svg" d="m 4,16 v 6 h 2 v -6 z" class="c1"/><path xmlns="http://www.w3.org/2000/svg" d="m -7,24 c -1.6447028,0 -3,1.355297 -3,3 0,1.644703 1.3552972,3 3,3 1.6447028,0 3,-1.355297 3,-3 0,-1.644703 -1.3552972,-3 -3,-3 z m 0,2 c 0.5712972,0 1,0.428703 1,1 0,0.571297 -0.4287028,1 -1,1 -0.5712972,0 -1,-0.428703 -1,-1 0,-0.571297 0.4287028,-1 1,-1 z" transform="scale(-1,1)" class="c1"/><path xmlns="http://www.w3.org/2000/svg" d="m 20,24 v 6 h 2 v -6 z" class="c1"/><path xmlns="http://www.w3.org/2000/svg" d="m 15,24 c -1.644703,0 -3,1.355297 -3,3 0,1.644703 1.355297,3 3,3 1.644703,0 3,-1.355297 3,-3 0,-1.644703 -1.355297,-3 -3,-3 z m 0,2 c 0.571297,0 1,0.428703 1,1 0,0.571297 -0.428703,1 -1,1 -0.571297,0 -1,-0.428703 -1,-1 0,-0.571297 0.428703,-1 1,-1 z" class="c1"/><path xmlns="http://www.w3.org/2000/svg" d="m 32,24 v 6 h 2 v -6 z" class="c1"/><path xmlns="http://www.w3.org/2000/svg" d="m 31,8 c -1.644703,0 -3,1.3552972 -3,3 0,1.644703 1.355297,3 3,3 1.644703,0 3,-1.355297 3,-3 0,-1.6447028 -1.355297,-3 -3,-3 z m 0,2 c 0.571297,0 1,0.428703 1,1 0,0.571297 -0.428703,1 -1,1 -0.571297,0 -1,-0.428703 -1,-1 0,-0.571297 0.428703,-1 1,-1 z" class="c1"/><path xmlns="http://www.w3.org/2000/svg" d="M 0,4 V 40 H 38 V 4 Z M 2,6 H 36 V 38 H 2 Z" class="c2"/><path xmlns="http://www.w3.org/2000/svg" d="m -27,24 c -1.644703,0 -3,1.355297 -3,3 0,1.644703 1.355297,3 3,3 1.644703,0 3,-1.355297 3,-3 0,-1.644703 -1.355297,-3 -3,-3 z m 0,2 c 0.571297,0 1,0.428703 1,1 0,0.571297 -0.428703,1 -1,1 -0.571297,0 -1,-0.428703 -1,-1 0,-0.571297 0.428703,-1 1,-1 z" transform="scale(-1,1)" class="c1"/></svg>
