<svg xmlns="http://www.w3.org/2000/svg" viewBox="0 0 40 40" width="40" height="40"><defs><style>.c1{fill:#30ba78}.c2{fill:#0c322c}</style></defs><path xmlns="http://www.w3.org/2000/svg" d="M 4.6660156,24 0,27.5 V 30 a 1,1 0 0 0 1,1 1,1 0 0 0 1,-1 V 28.5 L 5.3339844,26 H 34.666016 L 38,28.5 V 30 a 1,1 0 0 0 1,1 1,1 0 0 0 1,-1 V 27.5 L 35.333984,24 Z" class="c2"/><path xmlns="http://www.w3.org/2000/svg" d="M 4,4 V 26 H 36 V 4 Z M 6,6 H 34 V 24 H 6 Z" class="c2"/><path xmlns="http://www.w3.org/2000/svg" d="m 8,8 v 2 h 6 V 8 Z" class="c1"/><path xmlns="http://www.w3.org/2000/svg" d="m 8,12 v 2 h 2 v -2 z" class="c1"/><path xmlns="http://www.w3.org/2000/svg" d="m 8,16 v 2 h 4 v -2 z" class="c1"/><path xmlns="http://www.w3.org/2000/svg" d="m 0,28 v 6 H 40 V 28 H 22.585937 l -1,1 h -4.171875 l -1,-1 z m 2,2 h 13.585938 l 0.999999,1 h 5.828125 l 1,-1 H 38 v 2 H 2 Z" class="c2"/><path xmlns="http://www.w3.org/2000/svg" d="m 16,8 v 2 h 6 V 8 Z" class="c1"/><path xmlns="http://www.w3.org/2000/svg" d="m 12,12 v 2 h 6 v -2 z" class="c1"/><path xmlns="http://www.w3.org/2000/svg" d="m 26,20 v 2 h 6 v -2 z" class="c1"/></svg>
