<svg xmlns="http://www.w3.org/2000/svg" viewBox="0 0 400 400" width="400" height="400"><defs><style>.c1{fill:#30ba78}.c2{fill:#0c322c}</style></defs><path xmlns="http://www.w3.org/2000/svg" d="M320.03,25.17h31.5v350H48.47V25.17h93.99v19.73h-74.26v310.54h263.6V44.9h-11.77v-19.73Z" class="c2"/><rect xmlns="http://www.w3.org/2000/svg" x="99.7" y="247.57" width="200.59" height="19.73" class="c2"/><rect xmlns="http://www.w3.org/2000/svg" x="99.7" y="290.06" width="200.59" height="19.73" class="c2"/><polygon xmlns="http://www.w3.org/2000/svg" points="300.3 152.11 260.84 125.81 221.38 152.11 221.38 84.36 241.11 84.36 241.11 115.25 260.84 102.09 280.57 115.25 280.57 25.17 300.3 25.17 300.3 152.11" class="c1"/><polygon xmlns="http://www.w3.org/2000/svg" points="162.19 201.44 162.19 25.17 181.92 25.17 181.92 164.58 200.94 151.89 245.52 174.18 236.69 191.83 202.35 174.67 162.19 201.44" class="c1"/></svg>
