<svg xmlns="http://www.w3.org/2000/svg" viewBox="0 0 40 40" width="40" height="40"><defs><style>.c1{fill:#30ba78}.c2{fill:#0c322c}</style></defs><path xmlns="http://www.w3.org/2000/svg" d="M 10,3.9980469 C 7.8002175,3.9978535 5.9980469,5.8003233 5.9980469,8 v 25.998047 c 0,6.64e-4 -4e-7,0.0013 0,0.002 0.00109,2.198772 1.8029405,4 4.0019531,4 h 20 4.001953 L 34,4 h -4 z m 0,2 L 30,6 h 2 l 0.002,24 H 9.9980469 c -0.7431205,0 -1.4018735,0.261813 -2,0.619141 V 8 C 7.9980469,6.8737287 8.8738345,5.9979479 10,5.9980469 Z M 9.9980469,32 H 32.001953 v 4 H 30 10 c -1.1256081,0 -2.000923,-0.874687 -2.0019531,-2 -6e-7,-6.63e-4 0,-0.0013 0,-0.002 C 7.9990771,32.873708 8.8734129,32 9.9980469,32 Z" class="c2"/><path xmlns="http://www.w3.org/2000/svg" d="M 12,10 V 21 H 30 V 10 Z m 2,2 h 14 v 7 H 14 Z m 4,12 v 2 h 6 v -2 z" class="c1"/></svg>
