<svg xmlns="http://www.w3.org/2000/svg" viewBox="0 0 40 40" width="40" height="40"><defs><style>.c1{fill:#30ba78}.c2{fill:#0c322c}</style></defs><polygon xmlns="http://www.w3.org/2000/svg" points="29 36 6.92 36 11.93 29.74 10 20 10 10.59 17.59 3 26 3 26 5 18.41 5 12 11.41 12 19.9 14.07 30.26 11.08 34 29 34 29 36" class="c2"/><polygon xmlns="http://www.w3.org/2000/svg" points="23.95 35.32 22.05 34.68 25 25.84 25 16.28 22.14 11.51 23.86 10.49 27 15.72 27 26.16 23.95 35.32" class="c2"/><path xmlns="http://www.w3.org/2000/svg" d="M23.33,12h-3.64l-3.25-2.17,1.11-1.66,2.75,1.83h2.36l2.33-1.75V3h7v2.5l-8.67,6.5ZM27,5v1.75l2.33-1.75h-2.33Z" class="c2"/><rect xmlns="http://www.w3.org/2000/svg" x="20" y="6" width="2" height="2" class="c1"/><polygon xmlns="http://www.w3.org/2000/svg" points="20.78 31 16 31 16 23 18 23 18 29 19.22 29 20 25.88 20 16 22 16 21.97 26.24 20.78 31" class="c1"/></svg>
