<svg xmlns="http://www.w3.org/2000/svg" viewBox="0 0 40 40" width="40" height="40"><defs><style>.c1{fill:#30ba78}.c2{fill:#0c322c}</style></defs><path xmlns="http://www.w3.org/2000/svg" d="m 26.435547,14.115234 -1.414063,1.414063 8.898438,8.898437 c 0.403968,0.403968 0.403968,1.012047 0,1.416016 -0.403969,0.403969 -1.010095,0.403968 -1.414063,0 l -8.898437,-8.900391 -1.414063,1.414063 8.898438,8.90039 c 1.16298,1.162981 3.079206,1.16298 4.242187,0 1.16298,-1.16298 1.162981,-3.08116 0,-4.24414 z" class="c2"/><path xmlns="http://www.w3.org/2000/svg" d="m 22.691406,5.421875 c -2.626678,3.6982128 -5.396862,7.0479 -9.101562,9.132813 l 0.980469,1.74414 c 4.128178,-2.323235 7.073025,-5.948926 9.751953,-9.720703 z m 5.675781,5.113281 c -3.652314,2.251018 -7.025408,5.291017 -9.753906,9.75586 l 1.707031,1.042968 c 2.558132,-4.186059 5.658875,-6.976291 9.097657,-9.095703 z" class="c2"/><path xmlns="http://www.w3.org/2000/svg" d="m 13.683594,17.673828 c -1.636985,0 -2.972656,1.362644 -2.972656,3 v 8 c 0,1.637356 1.335671,3 2.972656,3 h 0.05469 c 1.636985,0 2.972656,-1.362644 2.972656,-3 v -8 c 0,-1.637356 -1.335671,-3 -2.972656,-3 z m 0,2 h 0.05469 c 0.548682,0 0.972657,0.421356 0.972657,1 v 8 c 0,0.578644 -0.423975,1 -0.972657,1 h -0.05469 c -0.548682,0 -0.972657,-0.421356 -0.972656,-1 v -8 c 0,-0.578644 0.423974,-1 0.972656,-1 z" transform="rotate(-45)" class="c2"/><path xmlns="http://www.w3.org/2000/svg" d="m -2.3164063,17.673828 c -1.6369845,0 -2.9726562,1.362644 -2.9726562,3 v 8 c 0,1.637356 1.3356717,3 2.9726562,3 h 0.054687 c 1.63698457,0 2.9726563,-1.362644 2.9726563,-3 v -8 c 0,-1.637356 -1.33567173,-3 -2.9726563,-3 z m 0,2 h 0.054687 c 0.5486818,0 0.9726563,0.421356 0.9726563,1 v 8 c 0,0.578644 -0.4239745,1 -0.9726563,1 h -0.054687 c -0.5486817,0 -0.9726562,-0.421356 -0.9726562,-1 v -8 c 0,-0.578644 0.4239745,-1 0.9726562,-1 z" transform="rotate(-45)" class="c2"/><path xmlns="http://www.w3.org/2000/svg" d="m 7,32 c -1.6369846,0 -2.9726562,1.362644 -2.9726563,3 v 1 h 2 V 35 C 6.0273437,34.421356 6.4513182,34 7,34 H 25.027344 C 25.576025,34 26,34.421356 26,35 v 1 h 2 v -1 c 0,-1.637356 -1.335672,-3 -2.972656,-3 z" class="c2"/><path xmlns="http://www.w3.org/2000/svg" d="m 7,26 4,4" fill="#efefef"/><path xmlns="http://www.w3.org/2000/svg" d="m 7.7070312,25.292969 -1.4140625,1.414062 4.0000003,4 1.414062,-1.414062 z" class="c1"/><path xmlns="http://www.w3.org/2000/svg" d="m 14,24 v 5" fill="#efefef"/><path xmlns="http://www.w3.org/2000/svg" d="m 13,24 v 5 h 2 v -5 z" class="c1"/><path xmlns="http://www.w3.org/2000/svg" d="m 21,26 -4,4" fill="#efefef"/><path xmlns="http://www.w3.org/2000/svg" d="m 20.292969,25.292969 -4,4 1.414062,1.414062 4,-4 z" class="c1"/><path xmlns="http://www.w3.org/2000/svg" d="m 2,36 v 2 h 28 v -2 z" class="c1"/></svg>
