<svg xmlns="http://www.w3.org/2000/svg" viewBox="0 0 40 40" width="40" height="40"><defs><style>.c1{fill:#30ba78}.c2{fill:#0c322c}</style></defs><polygon xmlns="http://www.w3.org/2000/svg" points="24.41 33 19.38 33 18.38 31 15.62 31 14.62 33 8.82 33 3.9 23.08 8.35 13 11 13 11 15 9.65 15 6.1 23.03 10.06 31 13.38 31 14.38 29 19.62 29 20.62 31 23.37 31 25.48 28 29.59 28 32.59 25 34 25 34 22 32.5 22 29.5 18 25.62 18 23.4 15.11 22 15.11 22 13.11 24.38 13.11 26.6 16 30.5 16 33.5 20 36 20 36 27 33.41 27 30.41 30 26.52 30 24.41 33" class="c2"/><rect xmlns="http://www.w3.org/2000/svg" x="2" y="22" width="3" height="2" class="c2"/><rect xmlns="http://www.w3.org/2000/svg" x="10" y="34" width="4" height="2" class="c1"/><rect xmlns="http://www.w3.org/2000/svg" x="12" y="17" width="9" height="2" class="c2"/><rect xmlns="http://www.w3.org/2000/svg" x="20" y="34" width="4" height="2" class="c1"/><path xmlns="http://www.w3.org/2000/svg" d="M16.5,15.07c-3.03,0-5.5-2.47-5.5-5.5s2.47-5.5,5.5-5.5,5.5,2.47,5.5,5.5-2.47,5.5-5.5,5.5ZM16.5,6.07c-1.93,0-3.5,1.57-3.5,3.5s1.57,3.5,3.5,3.5,3.5-1.57,3.5-3.5-1.57-3.5-3.5-3.5Z" class="c1"/><polygon xmlns="http://www.w3.org/2000/svg" points="27.02 17.43 25.21 16.57 27.37 12 32 12 32 14 28.63 14 27.02 17.43" class="c2"/></svg>
