<svg xmlns="http://www.w3.org/2000/svg" viewBox="0 0 40 40" width="40" height="40"><defs><style>.c1{fill:#30ba78}.c2{fill:#0c322c}</style></defs><path xmlns="http://www.w3.org/2000/svg" d="M 8,9 V 30.908203 C 8,33.711974 10.288026,36 13.091797,36 H 28.908203 C 31.711974,36 34,33.711974 34,30.908203 V 9 H 32 V 30.908203 C 32,32.638569 30.638569,34 28.908203,34 H 13.091797 C 11.361431,34 10,32.638569 10,30.908203 V 9 Z" class="c2"/><path xmlns="http://www.w3.org/2000/svg" d="M 12 2 C 10.833336 2 9.6922159 2.3456675 8.96875 3.25 C 8.4034633 3.9566086 8.1327402 4.8680747 8.0402344 6 L 8 6 L 8 7 L 8 8 L 8 10.535156 L 12 13.201172 L 15 11.201172 L 18 13.201172 L 21 11.201172 L 24 13.201172 L 27 11.201172 L 30 13.201172 L 34 10.535156 L 34 7.0410156 C 34.009511 6.8088948 34.007496 6.5842328 34 6.3632812 L 34 6 L 33.982422 6 C 33.900714 4.9881701 33.618752 4.1105498 33.085938 3.4121094 C 32.377755 2.4837889 31.230649 2 30 2 L 12 2 z M 12 4 L 30 4 C 30.769345 4 31.17748 4.2073468 31.496094 4.625 C 31.683796 4.871049 31.704084 5.5057061 31.792969 6 L 10.212891 6 C 10.312687 5.4463315 10.36534 4.7073873 10.53125 4.5 C 10.807781 4.1543362 11.16667 4 12 4 z M 10 8 L 32 8 L 32 9.4648438 L 30 10.798828 L 27 8.7988281 L 24 10.798828 L 21 8.7988281 L 18 10.798828 L 15 8.7988281 L 12 10.798828 L 10 9.4648438 L 10 8 z M 13.9375 16 C 12.880995 16 12 16.880995 12 17.9375 L 12 26.0625 C 12 27.119005 12.880995 28 13.9375 28 L 28.0625 28 C 29.119005 28 30 27.119005 30 26.0625 L 30 17.9375 C 30 16.880995 29.119005 16 28.0625 16 L 13.9375 16 z M 14 18 L 28 18 L 28 26 L 14 26 L 14 18 z " class="c1"/></svg>
