<svg xmlns="http://www.w3.org/2000/svg" viewBox="0 0 40 40" width="40" height="40"><defs><style>.c1{fill:#30ba78}.c2{fill:#0c322c}</style></defs><polygon xmlns="http://www.w3.org/2000/svg" points="36 15 5 15 5 13 34 13 34 7 6 7 6 11 4 11 4 5 36 5 36 15" class="c2"/><polygon xmlns="http://www.w3.org/2000/svg" points="36 36 4 36 4 13 35 13 35 15 6 15 6 34 34 34 34 25 29 25 29 30 32 30 32 32 27 32 27 23 36 23 36 36" class="c2"/><rect xmlns="http://www.w3.org/2000/svg" x="8" y="9" width="4" height="2" class="c1"/><rect xmlns="http://www.w3.org/2000/svg" x="14" y="9" width="4" height="2" class="c1"/><polygon xmlns="http://www.w3.org/2000/svg" points="9.71 28.71 8.29 27.29 11.59 24 8.29 20.71 9.71 19.29 14.41 24 9.71 28.71" class="c1"/><rect xmlns="http://www.w3.org/2000/svg" x="15" y="26" width="10" height="2" class="c1"/><path xmlns="http://www.w3.org/2000/svg" d="M30,24h-2v-4c0-1.65,1.35-3,3-3h1c1.65,0,3,1.35,3,3h-2c0-.55-.45-1-1-1h-1c-.55,0-1,.45-1,1v4Z" class="c2"/></svg>
