<svg xmlns="http://www.w3.org/2000/svg" viewBox="0 0 40 40" width="40" height="40"><defs><style>.c1{fill:#30ba78}.c2{fill:#0c322c}</style></defs><polygon xmlns="http://www.w3.org/2000/svg" points="28.03 22.98 22 22.98 22 20.98 27.21 20.98 35.4 12.79 36.81 14.2 28.03 22.98" class="c1"/><polygon xmlns="http://www.w3.org/2000/svg" points="5.94 19.98 3.94 19.98 3.94 4.01 28.03 4.01 31.31 7.29 29.9 8.71 27.21 6.01 5.94 6.01 5.94 19.98" class="c1"/><path xmlns="http://www.w3.org/2000/svg" d="M19,37.41l-13.41-13.41L22.62,6.96h13.41v13.41l-17.04,17.04ZM8.41,24l10.59,10.59,15.04-15.04v-10.59h-10.59l-15.04,15.04Z" class="c2"/><path xmlns="http://www.w3.org/2000/svg" d="M29.5,16c-1.38,0-2.5-1.12-2.5-2.5s1.12-2.5,2.5-2.5,2.5,1.12,2.5,2.5-1.12,2.5-2.5,2.5ZM29.5,13c-.28,0-.5.22-.5.5s.22.5.5.5.5-.22.5-.5-.22-.5-.5-.5Z" class="c1"/></svg>
