<svg xmlns="http://www.w3.org/2000/svg" viewBox="0 0 40 40" width="40" height="40"><defs><style>.c1{fill:#30ba78}.c2{fill:#0c322c}</style></defs><polygon xmlns="http://www.w3.org/2000/svg" points="21 28 19 28 19 18 15 18 15 16 21 16 21 28" class="c1"/><rect xmlns="http://www.w3.org/2000/svg" x="15" y="27" width="10" height="2" class="c1"/><rect xmlns="http://www.w3.org/2000/svg" x="19" y="11" width="2" height="3" class="c1"/><path xmlns="http://www.w3.org/2000/svg" d="M20,35c-8.27,0-15-6.73-15-15s6.73-15,15-15,15,6.73,15,15-6.73,15-15,15ZM20,7c-7.17,0-13,5.83-13,13s5.83,13,13,13,13-5.83,13-13-5.83-13-13-13Z" class="c2"/></svg>
