<svg xmlns="http://www.w3.org/2000/svg" viewBox="0 0 40 40" width="40" height="40"><defs><style>.c1{fill:#30ba78}.c2{fill:#0c322c}</style></defs><path xmlns="http://www.w3.org/2000/svg" d="M13,16h-2v-6c0-2.76,2.24-5,5-5h9c2.76,0,5,2.24,5,5v3h-2v-3c0-1.65-1.35-3-3-3h-9c-1.65,0-3,1.35-3,3v6Z" class="c1"/><path xmlns="http://www.w3.org/2000/svg" d="M34,34H14.67l2.08-7.27c-1.03-.47-1.75-1.52-1.75-2.73v-1c0-1.65,1.35-3,3-3h4c1.65,0,3,1.35,3,3v1c0,1.22-.73,2.27-1.78,2.74l.75,3.02-1.94.48-1.31-5.24h1.28c.55,0,1-.45,1-1v-1c0-.55-.45-1-1-1h-4c-.55,0-1,.45-1,1v1c0,.55.45,1,1,1h1.33l-2,7h14.67v-15H8v17h-2V15h28v19Z" class="c2"/></svg>
