<svg xmlns="http://www.w3.org/2000/svg" viewBox="0 0 40 40" width="40" height="40"><defs><style>.c1{fill:#30ba78}.c2{fill:#0c322c}</style></defs><polygon xmlns="http://www.w3.org/2000/svg" points="12 36 10 36 10 22.62 6 24.62 6 36 4 36 4 23.38 12 19.38 12 36" class="c2"/><polygon xmlns="http://www.w3.org/2000/svg" points="18 36 16 36 16 22.62 12 24.62 12 36 10 36 10 23.38 18 19.38 18 36" class="c2"/><polygon xmlns="http://www.w3.org/2000/svg" points="24 36 22 36 22 22.62 18 24.62 18 36 16 36 16 23.38 24 19.38 24 36" class="c2"/><path xmlns="http://www.w3.org/2000/svg" d="M36,36h-14v-13h14v13ZM24,34h10v-9h-10v9Z" class="c2"/><polygon xmlns="http://www.w3.org/2000/svg" points="33.01 24.16 31.15 13 28.8 13 26.98 21.22 25.02 20.78 27.2 11 32.85 11 34.99 23.84 33.01 24.16" class="c2"/><polygon xmlns="http://www.w3.org/2000/svg" points="21 9.2 18 7.2 15 9.2 11.44 6.83 12.55 5.17 15 6.8 18 4.8 21 6.8 24 4.8 27 6.8 30 4.8 33.55 7.17 32.45 8.83 30 7.2 27 9.2 24 7.2 21 9.2" class="c1"/><polygon xmlns="http://www.w3.org/2000/svg" points="9 14.2 5.45 11.83 6.55 10.17 9 11.8 12 9.8 15 11.8 18 9.8 21 11.8 23.45 10.17 24.55 11.83 21 14.2 18 12.2 15 14.2 12 12.2 9 14.2" class="c1"/></svg>
