<svg xmlns="http://www.w3.org/2000/svg" viewBox="0 0 40 40" width="40" height="40"><defs><style>.c1{fill:#30ba78}.c2{fill:#0c322c}</style></defs><path xmlns="http://www.w3.org/2000/svg" d="m 16,2 v 6 h 8 V 2 Z m 2,2 h 4 V 6 H 18 Z M 17.927734,10 4,19.470703 V 23 H 6 V 20.529297 L 18.542969,12 h 2.914062 L 34,20.529297 V 23 h 2 V 19.470703 L 22.072266,10 Z" class="c1"/><path xmlns="http://www.w3.org/2000/svg" d="M 20 8 L 20 14 C 20 14.358869 19.810789 14.6858 19.5 14.865234 C 19.189211 15.044669 18.810789 15.044669 18.5 14.865234 C 18.189211 14.6858 18 14.358869 18 14 L 16 14 C 16 15.070194 16.573185 16.062559 17.5 16.597656 C 18.426815 17.132753 19.573185 17.132753 20.5 16.597656 C 21.426815 16.062559 22 15.070194 22 14 L 22 8 L 20 8 z M 4 20 L 4 38 L 36 38 L 36 20 L 4 20 z M 6 22 L 34 22 L 34 36 L 6 36 L 6 22 z M 10 24 L 10 34 L 12 34 L 12 24 L 10 24 z M 16 24 L 16 34 L 18 34 L 18 24 L 16 24 z M 22 24 L 22 34 L 24 34 L 24 24 L 22 24 z M 28 24 L 28 34 L 30 34 L 30 24 L 28 24 z " class="c2"/></svg>
