<svg xmlns="http://www.w3.org/2000/svg" viewBox="0 0 40 40" width="40" height="40"><defs><style>.c1{fill:#30ba78}.c2{fill:#0c322c}</style></defs><path xmlns="http://www.w3.org/2000/svg" d="M20.32,33h-.64c-1.61,0-3.15-.7-4.21-1.92l-3.1-3.56c-.89-1.02-1.38-2.33-1.38-3.69v-4.83c0-4.96,4.04-9,9-9s9,4.04,9,9v4.83c0,1.36-.49,2.67-1.38,3.69l-3.1,3.57c-1.06,1.21-2.58,1.91-4.19,1.91ZM20,12c-3.86,0-7,3.14-7,7v4.83c0,.87.32,1.72.89,2.38l3.1,3.56c.68.78,1.66,1.23,2.7,1.23h.64c1.03,0,2.01-.45,2.68-1.22l3.1-3.57c.57-.66.89-1.5.89-2.38v-4.83c0-3.86-3.14-7-7-7Z" class="c2"/><rect xmlns="http://www.w3.org/2000/svg" x="14" y="29" width="2" height="8" class="c2"/><rect xmlns="http://www.w3.org/2000/svg" x="24" y="29" width="2" height="8" class="c2"/><rect xmlns="http://www.w3.org/2000/svg" x="15" y="18" width="2" height="7" class="c1"/><rect xmlns="http://www.w3.org/2000/svg" x="19" y="15" width="2" height="10" class="c1"/><rect xmlns="http://www.w3.org/2000/svg" x="23" y="18" width="2" height="7" class="c1"/><path xmlns="http://www.w3.org/2000/svg" d="M29.19,33.44l-1.41-1.41,3.54-3.54-1.52-1.52.42-.67c.67-1.09,1.17-2.28,1.46-3.52l.18-.77h2.15v-4h-2.15l-.18-.77c-.29-1.24-.79-2.43-1.46-3.52l-.42-.67,1.52-1.52-2.83-2.83-1.52,1.52-.67-.42c-1.09-.68-2.28-1.17-3.52-1.46l-.77-.18v-2.15h-4v2.15l-.77.18c-1.24.29-2.43.79-3.52,1.46l-.67.42-1.52-1.52-2.83,2.83,1.52,1.52-.42.67c-.67,1.09-1.17,2.28-1.46,3.52l-.18.77h-2.15v4h2.15l.18.77c.29,1.24.78,2.43,1.46,3.52l.42.67-1.52,1.52,3.54,3.54-1.41,1.41-4.95-4.95,1.84-1.84c-.46-.85-.83-1.73-1.1-2.65h-2.59v-8h2.59c.27-.92.64-1.8,1.1-2.65l-1.84-1.84,5.66-5.66,1.84,1.84c.84-.46,1.73-.83,2.65-1.1v-2.59h8v2.59c.92.27,1.8.64,2.65,1.1l1.84-1.84,5.66,5.66-1.84,1.84c.46.85.83,1.73,1.1,2.65h2.59v8h-2.59c-.27.92-.64,1.8-1.1,2.65l1.84,1.84-4.95,4.95Z" class="c1"/></svg>
