<svg xmlns="http://www.w3.org/2000/svg" viewBox="0 0 40 40" width="40" height="40"><defs><style>.c1{fill:#30ba78}.c2{fill:#0c322c}</style></defs><path xmlns="http://www.w3.org/2000/svg" d="M 30 6 L 30 8 C 31.430666 8 32.749511 8.7610073 33.464844 10 C 34.180177 11.238993 34.180177 12.761007 33.464844 14 C 32.749511 15.238993 31.430666 16 30 16 L 28 16 L 28 20 L 30 20 L 30 18 C 32.14199 18 34.124318 16.855018 35.195312 15 C 36.266309 13.144982 36.266309 10.855018 35.195312 9 C 34.124318 7.1449819 32.14199 6 30 6 z M 30.007812 18 L 30.007812 20 C 30.155573 20 30.574926 20.005695 30.980469 20.015625 C 31.386011 20.025525 31.850816 20.050244 31.871094 20.052734 C 35.340143 20.478376 38 23.400214 38 27 L 38 31.939453 L 34 31.939453 L 34 33.939453 L 40 33.939453 L 40 27 C 40 22.408242 36.566671 18.614544 32.115234 18.068359 C 31.81041 18.030959 31.451008 18.025935 31.029297 18.015625 C 30.607586 18.005304 30.196281 18 30.007812 18 z " class="c1"/><g xmlns="http://www.w3.org/2000/svg" transform="translate(0,2)"/><path xmlns="http://www.w3.org/2000/svg" d="m 21,18 c -6.076703,0 -11,4.923297 -11,11 v 8 H 32 V 29 C 32,22.923297 27.076703,18 21,18 Z m 0,2 c 5.003297,0 9,3.996703 9,9 v 6 H 12 v -6 c 0,-5.003297 3.996703,-9 9,-9 z M 21,2 c -4.406433,0 -8,3.5935666 -8,8 0,4.406433 3.593567,8 8,8 4.406433,0 8,-3.593567 8,-8 0,-4.4064334 -3.593567,-8 -8,-8 z m 0,2 c 3.325553,0 6,2.6744469 6,6 0,3.325553 -2.674447,6 -6,6 -3.325553,0 -6,-2.674447 -6,-6 0,-3.3255531 2.674447,-6 6,-6 z" class="c2"/><path xmlns="http://www.w3.org/2000/svg" d="M 12 6 C 9.8580096 6 7.8756827 7.1449819 6.8046875 9 C 5.7336923 10.855018 5.7336923 13.144982 6.8046875 15 C 7.8756827 16.855018 9.8580096 18 12 18 L 12 20 L 14 20 L 14 16 L 12 16 C 10.569334 16 9.250489 15.238993 8.5351562 14 C 7.8198235 12.761007 7.8198235 11.238993 8.5351562 10 C 9.250489 8.7610073 10.569334 8 12 8 L 12 6 z M 11.992188 18 C 11.803719 18 11.392414 18.005295 10.970703 18.015625 C 10.548992 18.025945 10.18959 18.030959 9.8847656 18.068359 C 5.4333291 18.614543 2 22.408242 2 27 L 2 33.939453 L 8 33.939453 L 8 31.939453 L 4 31.939453 L 4 27 C 4 23.400214 6.659857 20.478382 10.128906 20.052734 C 10.149186 20.050234 10.613989 20.025545 11.019531 20.015625 C 11.425074 20.005705 11.844426 20 11.992188 20 L 11.992188 18 z " class="c1"/></svg>
