<svg xmlns="http://www.w3.org/2000/svg" viewBox="0 0 40 40" width="40" height="40"><defs><style>.c1{fill:#30ba78}.c2{fill:#0c322c}</style></defs><rect xmlns="http://www.w3.org/2000/svg" x="8.07" y="26.75" width="6.36" height="2" transform="translate(-16.33 16.08) rotate(-45)" class="c1"/><rect xmlns="http://www.w3.org/2000/svg" x="6.29" y="23.27" width="4.95" height="2" transform="translate(-14.59 13.31) rotate(-45)" class="c1"/><rect xmlns="http://www.w3.org/2000/svg" x="16.38" y="31.5" width="4.24" height="2" transform="translate(-17.56 22.6) rotate(-45)" class="c1"/><rect xmlns="http://www.w3.org/2000/svg" x="11.08" y="29.77" width="6.36" height="2" transform="translate(-17.58 19.1) rotate(-45)" class="c1"/><path xmlns="http://www.w3.org/2000/svg" d="M16,21.41l-4.41-4.41,5-5h5l6.37-6.37,9.51,8.32-6.46,6.46-2.41-2.41h-9.17l-3.41,3.41ZM14.41,17l1.59,1.59,2.59-2.59h10.83l1.59,1.59,3.54-3.54-6.49-5.68-5.63,5.63h-5l-3,3Z" class="c1"/><polygon xmlns="http://www.w3.org/2000/svg" points="21.29 34.71 10.13 23.54 9.13 20.54 3.58 15 13 5.59 15.41 8 20 8 20 10 14.59 10 13 8.41 6.41 15 10.87 19.46 11.87 22.46 22.71 33.29 21.29 34.71" class="c2"/><rect xmlns="http://www.w3.org/2000/svg" x="22.5" y="25.96" width="2" height="7.07" transform="translate(-13.98 25.26) rotate(-45)" class="c2"/><rect xmlns="http://www.w3.org/2000/svg" x="26" y="22.76" width="2" height="8.49" transform="translate(-11.18 27) rotate(-45)" class="c2"/><rect xmlns="http://www.w3.org/2000/svg" x="28.5" y="19.96" width="2" height="7.07" transform="translate(-7.98 27.74) rotate(-45)" class="c2"/></svg>
