<svg xmlns="http://www.w3.org/2000/svg" viewBox="0 0 361 361" width="361" height="361"><defs><style>.c1{fill:#30ba78}.c2{fill:#0c322c}</style></defs><path xmlns="http://www.w3.org/2000/svg" d="m 156.41602,114.88867 -16.49219,4.12305 35.5,141.98828 h 148.82226 l 35.5,-141.98828 -16.49218,-4.12305 L 310.97266,244 H 188.69727 Z" class="c2"/><path xmlns="http://www.w3.org/2000/svg" d="m 241.33008,81.5 v 112.96094 h 17 V 81.5 Z" class="c1"/><path xmlns="http://www.w3.org/2000/svg" d="m 221.96094,154.56055 -12.02149,12.01953 39.89063,39.90234 39.90039,-39.90234 -12.02149,-12.01953 -27.8789,27.8789 z" class="c1"/><path xmlns="http://www.w3.org/2000/svg" d="m 182.06055,280 v 17 h 45.17968 v -17 z" class="c2"/><path xmlns="http://www.w3.org/2000/svg" d="m 272.42969,280 v 17 h 45.17968 v -17 z" class="c2"/><path xmlns="http://www.w3.org/2000/svg" d="M 0.6796875,111.5625 3.7558594,257.58203 38.162109,237.50586 60.931641,276.53516 114.64453,245.19922 91.875,206.16797 126.2793,186.0918 Z M 18.320312,141.79883 92.759766,185.96875 68.625,200.05273 91.394531,239.08203 67.048828,253.28516 44.277344,214.25391 20.142578,228.33789 Z" class="c1"/></svg>
