<svg xmlns="http://www.w3.org/2000/svg" viewBox="0 0 40 40" width="40" height="40"><defs><style>.c1{fill:#30ba78}.c2{fill:#0c322c}</style></defs><polygon xmlns="http://www.w3.org/2000/svg" points="38 33 22 33 22 31 36 31 36 10 38 10 38 33" class="c1"/><polygon xmlns="http://www.w3.org/2000/svg" points="18 33 2 33 2 10 4 10 4 31 18 31 18 33" class="c1"/><polygon xmlns="http://www.w3.org/2000/svg" points="34 29 19 29 19 27 32 27 32 8 22.41 8 21.71 8.71 20.29 7.29 21.59 6 34 6 34 29" class="c2"/><polygon xmlns="http://www.w3.org/2000/svg" points="19.19 29 6 29 6 6 16.41 6 20.71 10.29 19.29 11.71 15.59 8 8 8 8 27 19.19 27 19.19 29" class="c2"/><rect xmlns="http://www.w3.org/2000/svg" x="10" y="11" width="6" height="2" class="c2"/><rect xmlns="http://www.w3.org/2000/svg" x="10" y="15" width="9" height="2" class="c2"/><rect xmlns="http://www.w3.org/2000/svg" x="10" y="19" width="9" height="2" class="c2"/><rect xmlns="http://www.w3.org/2000/svg" x="10" y="23" width="9" height="2" class="c2"/><rect xmlns="http://www.w3.org/2000/svg" x="24" y="11" width="6" height="2" class="c2"/><rect xmlns="http://www.w3.org/2000/svg" x="21" y="15" width="9" height="2" class="c2"/><rect xmlns="http://www.w3.org/2000/svg" x="21" y="19" width="9" height="2" class="c2"/><rect xmlns="http://www.w3.org/2000/svg" x="21" y="23" width="9" height="2" class="c2"/></svg>
