<svg xmlns="http://www.w3.org/2000/svg" viewBox="0 0 300 300" width="300" height="300"><defs><style>.c1{fill:#30ba78}.c2{fill:#0c322c}</style></defs><polygon xmlns="http://www.w3.org/2000/svg" points="133.7 221.05 133.7 67.4 148.6 67.4 148.6 224.45 133.7 221.05" class="c2"/><rect xmlns="http://www.w3.org/2000/svg" x="137.4" y="153.7" width="36.7" height="15" class="c2"/><path xmlns="http://www.w3.org/2000/svg" d="M195.8,185.2c-13.2,0-24-10.7-24-24s10.7-24,24-24,24,10.7,24,24-10.7,24-24,24ZM195.8,152.2c-5,0-8.9,4.1-8.9,8.9s4.1,8.9,8.9,8.9,8.9-4.1,8.9-8.9-4.1-8.9-8.9-8.9Z" class="c1"/><path xmlns="http://www.w3.org/2000/svg" d="M141.9,75.7c-13.2,0-24-10.7-24-24s10.7-24,24-24,24,10.7,24,24-10.7,24-24,24ZM141.9,42.8c-5,0-8.9,4.1-8.9,8.9s4.1,8.9,8.9,8.9,8.9-4.1,8.9-8.9-4.1-8.9-8.9-8.9Z" class="c1"/><polygon xmlns="http://www.w3.org/2000/svg" points="203.4 128.2 141.2 128.2 141.2 113.2 188.4 113.2 188.4 93 203.4 93 203.4 128.2" class="c2"/><path xmlns="http://www.w3.org/2000/svg" d="M195.8,98.2c-13.2,0-24-10.7-24-24s10.7-24,24-24,24,10.7,24,24-10.7,24-24,24ZM195.8,65.3c-5,0-8.9,4.1-8.9,8.9s4.1,8.9,8.9,8.9,8.9-4.1,8.9-8.9-4.1-8.9-8.9-8.9Z" class="c1"/><rect xmlns="http://www.w3.org/2000/svg" x="102.2" y="113.2" width="37.5" height="15" class="c2"/><path xmlns="http://www.w3.org/2000/svg" d="M85.7,144.7c-13.2,0-24-10.7-24-24s10.7-24,24-24,24,10.7,24,24-10.7,24-24,24ZM85.7,111.7c-5,0-8.9,4.1-8.9,8.9s4.1,8.9,8.9,8.9,8.9-4.1,8.9-8.9-4.1-8.9-8.9-8.9Z" class="c1"/><path xmlns="http://www.w3.org/2000/svg" d="M212.2,299.34h-123.6v-15h108.6v-28.08h-63.54v-35.27l8.16.72c2.93.26,5.95.39,8.98.39,56.89,0,103.17-46.28,103.17-103.17S207.69,15.77,150.8,15.77,47.63,62.05,47.63,118.93c0,36.9,19.91,71.23,51.97,89.58l3.77,2.16v45.73h-15v-37.13c-34.49-21.5-55.74-59.55-55.74-100.34C32.63,53.78,85.64.77,150.8.77s118.17,53.01,118.17,118.16-53.01,118.17-118.17,118.17c-.71,0-1.43,0-2.14-.02v4.18h63.54v58.08Z" class="c2"/></svg>
