<svg xmlns="http://www.w3.org/2000/svg" viewBox="0 0 40 40" width="40" height="40"><defs><style>.c1{fill:#30ba78}.c2{fill:#0c322c}</style></defs><path xmlns="http://www.w3.org/2000/svg" d="m 36.134766,23.367187 c -0.709124,-0.278698 -1.52893,-0.289533 -2.28125,0.0332 L 27.794922,26 H 27 21 v 2 h 6 1.205078 l 6.4375,-2.761719 c 0.531875,-0.228168 1.069866,0.0056 1.261719,0.46875 l 0.06445,0.15625 c 0.191854,0.463148 -0.02381,1.001458 -0.572266,1.228516 l -6.8125,2.820312 L 27.931641,30 H 14.679688 L 7.4179687,35.185547 8.5820313,36.814453 15.320313,32 h 12.748046 l 1.042969,-0.142578 7.048828,-2.917969 c 1.499032,-0.620598 2.2769,-2.343507 1.65625,-3.841797 l -0.06445,-0.15625 c -0.310326,-0.749148 -0.908064,-1.29552 -1.617187,-1.574219 z" class="c2"/><path xmlns="http://www.w3.org/2000/svg" d="M 12.679688,22 5.4179687,27.185547 6.5820312,28.814453 13.320313,24 H 24 c 0.571297,0 1,0.428703 1,1 0,0.571297 -0.428703,1 -1,1 h -4 v 2 h 4 c 1.644703,0 3,-1.355297 3,-3 0,-1.644703 -1.355297,-3 -3,-3 z" class="c2"/><path xmlns="http://www.w3.org/2000/svg" d="m 16.865234,1.9921875 c -1.537627,0 -3.076755,0.5826148 -4.24414,1.75 -2.33477,2.3347704 -2.33477,6.1515573 0,8.4863285 l 7.779297,7.777343 7.777343,-7.777343 c 2.33477,-2.3347712 2.33477,-6.1515581 0,-8.4863285 -2.126509,-2.1265083 -5.431661,-2.215889 -7.777343,-0.46875 -1.057978,-0.7880157 -2.271842,-1.28125 -3.535157,-1.28125 z m 0,1.9863281 c 1.021596,0 2.042889,0.3924982 2.828125,1.1777344 L 20.400391,5.8632812 21.107422,5.15625 c 1.570473,-1.570473 4.085777,-1.5704728 5.65625,0 1.570472,1.5704728 1.570472,4.0877299 0,5.658203 l -6.363281,6.363281 -6.365235,-6.363281 c -1.570472,-1.5704731 -1.570472,-4.0877302 0,-5.658203 0.785237,-0.7852364 1.808483,-1.1777344 2.830078,-1.1777344 z" class="c1"/></svg>
