<svg xmlns="http://www.w3.org/2000/svg" viewBox="0 0 40 40" width="40" height="40"><defs><style>.c1{fill:#30ba78}.c2{fill:#0c322c}</style></defs><path xmlns="http://www.w3.org/2000/svg" d="M 22.964844,0.44335938 18.916016,5.5019531 15,1.5859375 12.292969,4.2929687 c -1.504906,1.5049063 -1.504906,3.9091563 0,5.4140626 l 1.878906,1.8789067 c 0.795717,0.795717 0.795717,2.032407 0,2.828125 -0.795719,0.795718 -2.032408,0.795718 -2.828125,0 L 6.4003906,9.4707031 5.7441406,10.585938 c -0.4486972,0.763582 -0.8012487,1.592412 -1.0371094,2.472656 -0.9231274,3.445159 0.063889,7.126388 2.5859375,9.648437 l 14.3925783,14.392578 12.068359,-12.066406 0.03906,-0.05273 c 1.006492,-1.311686 2.356809,-3.06555 2.595703,-5.404297 0.238894,-2.338747 -0.732599,-5.091974 -3.802735,-8.162109 l 0.04492,0.04687 z m 0.07031,3.11328122 8.113281,9.2480474 0.02344,0.02344 c 2.808576,2.808576 3.396702,4.879276 3.226562,6.544922 -0.168603,1.650609 -1.180918,3.067993 -2.166015,4.353515 L 21.685547,34.271484 8.7070313,21.292969 C 6.6879924,19.27393 5.9015998,16.336205 6.640625,13.578125 6.7103473,13.317918 6.8527954,13.094427 6.9472656,12.845703 l 2.9824219,2.982422 c 1.5547045,1.554706 4.1015445,1.554705 5.6562505,0 1.554704,-1.554705 1.554704,-4.101545 0,-5.65625 L 13.707031,8.2929688 c -0.83824,-0.8382398 -0.83824,-1.7476978 0,-2.5859376 L 15,4.4140625 19.082031,8.4980469 Z" class="c1"/><path xmlns="http://www.w3.org/2000/svg" d="M 21.925781,13.306641 17.464844,20 h -6.796875 l 11.333984,11.912109 8.705078,-9.205078 c 1.14584,-1.14584 1.741597,-2.489857 1.703125,-3.824219 -0.03847,-1.334361 -0.688144,-2.574862 -1.703125,-3.589843 L 30,14.585938 26.083984,18.501953 Z m 0.146485,3.386718 3.845703,4.804688 3.976562,-3.978516 c 0.29974,0.479317 0.504226,0.95682 0.517578,1.419922 0.0209,0.725013 -0.26498,1.499356 -1.11914,2.353516 l -0.0098,0.0098 -7.285156,7.703125 L 15.332031,22 h 3.203125 z" class="c2"/></svg>
