<svg xmlns="http://www.w3.org/2000/svg" viewBox="0 0 361 361" width="361" height="361"><defs><style>.c1{fill:#30ba78}.c2{fill:#0c322c}</style></defs><path xmlns="http://www.w3.org/2000/svg" d="M 135.5,64 C 106.0551,64 82,88.055097 82,117.5 V 136 H 81.5 C 52.055097,136 28,160.0551 28,189.5 V 252 H 81.5 V 235 H 45 V 189.5 C 45,169.2449 61.244903,153 81.5,153 H 99 V 117.5 C 99,97.244903 115.2449,81 135.5,81 h 99 c 20.2551,0 36.5,16.244903 36.5,36.5 V 171 h 8.5 c 20.2551,0 36.5,16.2449 36.5,36.5 V 235 h -36.5 v 17 H 333 v -44.5 c 0,-26.54638 -19.57336,-48.64726 -45,-52.75391 V 117.5 C 288,88.055097 263.9449,64 234.5,64 Z" class="c2"/><path xmlns="http://www.w3.org/2000/svg" d="m 100,235 v 71 h 71 v -71 z m 17,17 h 37 v 37 h -37 z" class="c1"/><path xmlns="http://www.w3.org/2000/svg" d="M 135.5,190 C 120.9651,190 109,201.9651 109,216.5 V 252 h 44.5 V 235 H 126 v -18.5 c 0,-5.3451 4.1549,-9.5 9.5,-9.5 5.3451,0 9.5,4.1549 9.5,9.5 h 17 C 162,201.9651 150.0349,190 135.5,190 Z" class="c1"/><path xmlns="http://www.w3.org/2000/svg" d="m 190,235 v 71 h 71 v -71 z m 17,17 h 37 v 37 h -37 z" class="c1"/><path xmlns="http://www.w3.org/2000/svg" d="M 225.5,190 C 210.9651,190 199,201.9651 199,216.5 V 252 h 53 V 216.5 C 252,201.9651 240.0349,190 225.5,190 Z m 0,17 c 5.3451,0 9.5,4.1549 9.5,9.5 V 235 h -19 v -18.5 c 0,-5.3451 4.1549,-9.5 9.5,-9.5 z" class="c1"/></svg>
