<svg xmlns="http://www.w3.org/2000/svg" viewBox="0 0 40 40" width="40" height="40"><defs><style>.c1{fill:#30ba78}.c2{fill:#0c322c}</style></defs><path xmlns="http://www.w3.org/2000/svg" d="m 24,18 v 19 h 2 V 18 Z" class="c1"/><path xmlns="http://www.w3.org/2000/svg" d="M 25 10 C 23.35499 10 22 11.35499 22 13 C 22 14.295061 22.840026 15.409862 24 15.825781 L 24 17 L 13.825781 17 C 13.409862 15.840026 12.295061 15 11 15 C 9.3549904 15 8 16.35499 8 18 C 8 19.64501 9.3549904 21 11 21 C 12.295061 21 13.409862 20.159974 13.825781 19 L 24 19 L 24 22 L 24 23 L 20.825781 23 C 20.409862 21.840026 19.295061 21 18 21 C 16.35499 21 15 22.35499 15 24 C 15 25.64501 16.35499 27 18 27 C 19.295061 27 20.409862 26.159974 20.825781 25 L 24 25 L 24 37 L 26 37 L 26 25 L 26 24 L 28.174219 24 C 28.590138 25.159974 29.704939 26 31 26 C 32.64501 26 34 24.64501 34 23 C 34 21.35499 32.64501 20 31 20 C 29.704939 20 28.590138 20.840026 28.174219 22 L 26 22 L 26 15.825781 C 27.159974 15.409862 28 14.295061 28 13 C 28 11.35499 26.64501 10 25 10 z M 25 12 C 25.564129 12 26 12.435871 26 13 C 26 13.564129 25.564129 14 25 14 C 24.435871 14 24 13.564129 24 13 C 24 12.435871 24.435871 12 25 12 z M 11 17 C 11.564129 17 12 17.435871 12 18 C 12 18.564129 11.564129 19 11 19 C 10.435871 19 10 18.564129 10 18 C 10 17.435871 10.435871 17 11 17 z M 31 22 C 31.564129 22 32 22.435871 32 23 C 32 23.564129 31.564129 24 31 24 C 30.435871 24 30 23.564129 30 23 C 30 22.435871 30.435871 22 31 22 z M 18 23 C 18.564129 23 19 23.435871 19 24 C 19 24.564129 18.564129 25 18 25 C 17.435871 25 17 24.564129 17 24 C 17 23.435871 17.435871 23 18 23 z " class="c1"/><path xmlns="http://www.w3.org/2000/svg" d="m 31,30.998047 c 3.213353,0 6.186292,-1.717156 7.792969,-4.5 1.606678,-2.782847 1.606678,-6.215201 0,-8.998047 C 37.666721,15.549282 35.850738,14.167127 33.769531,13.488281 35.097211,12.382779 36,10.796052 36,8.9511719 36,5.6457484 33.377244,2.9042969 30.048828,2.9042969 26.720412,2.9042969 24,5.6227559 24,8.9511719 h 2 C 26,6.7036361 27.801292,4.9042969 30.048828,4.9042969 32.296364,4.9042969 34,6.6806435 34,8.9511719 34,11.164219 32.05613,13 29.808594,13 v 2 C 29.875826,15 29.933166,14.963112 30,14.960938 V 15 h 1 c 2.502027,0 4.809532,1.333179 6.060547,3.5 1.251015,2.16682 1.251016,4.831225 0,6.998047 -1.251015,2.16682 -3.55852,3.5 -6.060547,3.5 L 30.777817,29 H 28 v 8 h 2 v -6 h 0.777817 z M 21,3 C 19.662544,3 18.446536,3.6434787 17.541016,4.5527344 17.029843,5.0660158 16.648448,5.6911641 16.375,6.3632812 15.481613,5.5341123 14.307253,5.0000001 13,5 c -2.749578,1e-7 -5,2.250422 -5,5 -2.8565214,0 -5.4994736,1.526179 -6.9277344,4 -1.42826065,2.473821 -1.42826065,5.526179 0,8 C 2.5005264,24.473821 5.1434786,26 8,26 8,27.784725 8.954383,29.437716 10.5,30.330078 11.383908,30.840402 12.235959,31 13,31 h 7 2 V 29 H 20 13 C 12.451701,29 12.104704,28.946782 11.5,28.597656 10.570409,28.060957 10,27.073399 10,26 V 24 H 8 C 5.8548032,24 3.8772859,22.857795 2.8046875,21 1.732089,19.142205 1.732089,16.857795 2.8046875,15 3.8772859,13.142205 5.8548032,12 8,12 h 2 v -2 c 0,-1.6686978 1.331302,-2.9999999 3,-3 1.668698,1e-7 3,1.3313022 3,3 h 2 V 8 c 1e-6,-0.6501261 0.364508,-1.4382278 0.958984,-2.0351563 C 19.553461,5.3679153 20.337456,5 21,5 h 2.121094 V 3 Z" class="c2"/></svg>
