<svg xmlns="http://www.w3.org/2000/svg" viewBox="0 0 300 300" width="300" height="300"><defs><style>.c1{fill:#30ba78}.c2{fill:#0c322c}</style></defs><!-- Generator: Adobe Illustrator 29.1.0, SVG Export Plug-In . SVG Version: 2.1.0 Build 142)  --><path xmlns="http://www.w3.org/2000/svg" d="M128.6,300H29.4v-30.8L1.6,240.7V111.3c0-12,9.8-21.8,21.8-21.8s21.8,9.8,21.8,21.8v39l83.4,84.2v65.5ZM44.4,285h69.2v-44.3l-68.4-69v20.8l41.3,42.1v30.1h-15v-24l-41.3-42.1v-87.3c0-4.2-3.5-6.8-6.8-6.8s-6.8,3.5-6.8,6.8v123.2l27.8,28.6v21.8Z" class="c2"/><path xmlns="http://www.w3.org/2000/svg" d="M269.9,300h-99.2v-65.3l84.2-84.3v-39c0-12,9.8-21.8,21.8-21.8s21.8,9.8,21.8,21.8v129.4l-28.6,28.6v30.7ZM185.7,285h69.2v-21.9l28.6-28.6v-123.2c0-3.3-2.6-6.8-6.8-6.8s-6.8,2.6-6.8,6.8v87.3l-42.1,42.9v23.2h-15v-29.4l42.1-42.8v-20.1l-69.2,68.4v44.3Z" class="c2"/><path xmlns="http://www.w3.org/2000/svg" d="M149.6,234.7l-91.7-90.9V27.9h63.8L149.6,0l27.9,27.9h63.8v115.9l-91.7,90.9ZM73,137.5l76.7,76,76.7-76V42.9h-55l-21.7-21.7-21.7,21.7h-55v94.6Z" class="c1"/><polygon xmlns="http://www.w3.org/2000/svg" points="149.6 200.8 149.6 179 201.5 127.9 201.5 52.7 216.5 52.7 216.5 134.6 149.6 200.8" class="c2"/></svg>
