<svg xmlns="http://www.w3.org/2000/svg" viewBox="0 0 40 40" width="40" height="40"><defs><style>.c1{fill:#30ba78}.c2{fill:#0c322c}</style></defs><path xmlns="http://www.w3.org/2000/svg" d="m 21.007812,30.869141 c -0.181957,1.382105 -0.63648,2.862229 -1.714843,3.871093 -1.078363,1.008864 -2.853905,1.703113 -6.16211,1.267578 L 12.640625,35.943359 10.585938,38 H 8 v 2 h 3.414063 l 2.027343,-2.027344 c 3.333691,0.310618 5.741823,-0.389743 7.21875,-1.771484 1.572898,-1.471527 2.119032,-3.452418 2.332031,-5.070313 z" class="c1"/><path xmlns="http://www.w3.org/2000/svg" d="M 15.617188,0 C 13.631058,0 12,1.6310567 12,3.6171875 V 14.400391 h 2 V 3.6171875 C 14,2.7044623 14.704463,2 15.617188,2 H 30.382812 C 31.295537,2 32,2.7044623 32,3.6171875 V 28.382812 C 32,29.295536 31.295536,30 30.382812,30 H 14.363281 v 2 H 30.382812 C 32.368943,32 34,30.368943 34,28.382812 V 3.6171875 C 34,1.6310567 32.368942,0 30.382812,0 Z" class="c2"/><path xmlns="http://www.w3.org/2000/svg" d="M 18,4 V 6 H 28 V 4 Z" class="c2"/><path xmlns="http://www.w3.org/2000/svg" d="M 8,11 V 26.585937 L 1.6152344,32.970703 8.0371094,39.976562 9.5117188,38.625 4.3847656,33.029297 10,27.414062 V 13.216797 c 0.53641,0.09975 1.248401,0.149356 1.466797,0.320312 C 11.834037,13.824579 12,14.184995 12,15 v 5.492187 l 0.390625,0.300782 c 1.096428,0.841319 2.12285,3.223821 2.236328,5.498047 0.05674,1.137112 -0.09431,2.2366 -0.441406,3.078125 -0.347097,0.841525 -0.846182,1.407895 -1.568359,1.707031 l 0.765625,1.847656 c 1.277822,-0.529291 2.153737,-1.588848 2.65039,-2.792969 0.496654,-1.20412 0.658105,-2.57142 0.589844,-3.939453 C 16.49716,23.668481 15.622372,21.149083 14,19.619141 V 15 C 14,13.815005 13.609472,12.675421 12.699219,11.962891 11.788966,11.25036 10.560353,11 9,11 Z" class="c1"/></svg>
