<svg xmlns="http://www.w3.org/2000/svg" viewBox="0 0 40 40" width="40" height="40"><defs><style>.c1{fill:#30ba78}.c2{fill:#0c322c}</style></defs><path xmlns="http://www.w3.org/2000/svg" d="m 6.0371094,17.837891 c 5e-7,1.445609 0.87831,2.719102 2.1835937,3.716796 1.3052837,0.997695 3.0883659,1.796518 5.2636719,2.388672 l 0.525391,-1.929687 C 12.012011,21.46985 10.442175,20.736214 9.4355469,19.966797 8.4289186,19.19738 8.0371096,18.468968 8.0371094,17.837891 Z m 29.9257816,0 c 0,0.669051 -0.447576,1.455507 -1.585938,2.267578 -1.138361,0.81207 -2.902169,1.566673 -5.126953,2.095703 -2.799388,0.665664 -6.054313,0.919933 -9.191406,0.746094 l -0.111328,1.996093 c 3.318749,0.183907 6.739942,-0.0774 9.765625,-0.796875 2.404629,-0.571794 4.381262,-1.38331 5.826171,-2.414062 1.44491,-1.030752 2.423829,-2.361934 2.423829,-3.894531 z" class="c1"/><path xmlns="http://www.w3.org/2000/svg" d="m 17.837891,-29.162109 c -4.243074,0 -8.0876436,0.697455 -10.9609379,1.880859 -1.4366471,0.591702 -2.6358355,1.30171 -3.5234375,2.166016 C 2.4659137,-24.250929 1.875,-23.17891 1.875,-22 h 2 c 0,-0.522818 0.2463615,-1.071403 0.8730469,-1.681641 0.6266854,-0.610237 1.6195922,-1.228461 2.890625,-1.751953 2.5420651,-1.046983 6.1787321,-1.728515 10.1992191,-1.728515 4.020486,0 7.657153,0.681532 10.199218,1.728515 1.271033,0.523492 2.261987,1.141716 2.888672,1.751953 0.626686,0.610238 0.875,1.158823 0.875,1.681641 h 2 c 0,-1.17891 -0.590913,-2.250929 -1.478515,-3.115234 -0.887602,-0.864306 -2.086791,-1.574314 -3.523438,-2.166016 -2.873294,-1.183404 -6.717864,-1.880859 -10.960937,-1.880859 z" transform="rotate(90)" class="c1"/><path xmlns="http://www.w3.org/2000/svg" d="M 23.792969,18.322266 0.41601563,26.390625 7.0585937,29.78125 1.6699219,35.171875 5.9121094,39.414062 11.294922,34.03125 14.472656,40.388672 Z M 20.205078,21.677734 14.320313,35.611328 11.841797,30.654297 5.9121094,36.585937 4.4980469,35.171875 10.419922,29.25 5.515625,26.746094 Z" class="c2"/><path xmlns="http://www.w3.org/2000/svg" d="m 22,1.875 c -8.804,2e-7 -15.9628913,7.15889 -15.9628906,15.962891 2e-7,2.627225 0.6361784,5.112418 1.7636718,7.300781 L 9.5800781,24.222656 C 8.5942814,22.309314 8.0371096,20.142567 8.0371094,17.837891 8.0371088,10.11477 14.27688,3.8750002 22,3.875 c 7.723121,0 13.962891,6.23977 13.962891,13.962891 -10e-7,7.72312 -6.239771,13.96289 -13.962891,13.96289 -1.828379,0 -3.57041,-0.351449 -5.167969,-0.988281 l -0.740234,1.857422 c 1.828073,0.728722 3.823936,1.130859 5.908203,1.130859 8.804,0 15.96289,-7.15889 15.962891,-15.96289 C 37.962891,9.0338899 30.804001,1.875 22,1.875 Z" class="c2"/></svg>
