<svg xmlns="http://www.w3.org/2000/svg" viewBox="0 0 40 40" width="40" height="40"><defs><style>.c1{fill:#30ba78}.c2{fill:#0c322c}</style></defs><polygon xmlns="http://www.w3.org/2000/svg" points="36 36 4 36 4 12 34 12 34 8 6 8 6 10 4 10 4 6 36 6 36 14 6 14 6 34 36 34 36 36" class="c2"/><rect xmlns="http://www.w3.org/2000/svg" x="9" y="17" width="6" height="2" class="c1"/><rect xmlns="http://www.w3.org/2000/svg" x="9" y="21" width="6" height="2" class="c1"/><rect xmlns="http://www.w3.org/2000/svg" x="9" y="25" width="6" height="2" class="c1"/><rect xmlns="http://www.w3.org/2000/svg" x="9" y="29" width="6" height="2" class="c1"/><rect xmlns="http://www.w3.org/2000/svg" x="18" y="17" width="6" height="2" class="c1"/><rect xmlns="http://www.w3.org/2000/svg" x="18" y="21" width="6" height="2" class="c1"/><rect xmlns="http://www.w3.org/2000/svg" x="18" y="25" width="6" height="2" class="c1"/><rect xmlns="http://www.w3.org/2000/svg" x="18" y="29" width="6" height="2" class="c1"/><rect xmlns="http://www.w3.org/2000/svg" x="27" y="17" width="6" height="2" class="c1"/><rect xmlns="http://www.w3.org/2000/svg" x="27" y="21" width="6" height="2" class="c1"/><rect xmlns="http://www.w3.org/2000/svg" x="27" y="25" width="6" height="2" class="c1"/><rect xmlns="http://www.w3.org/2000/svg" x="9" y="4" width="2" height="3.19" class="c2"/><rect xmlns="http://www.w3.org/2000/svg" x="29" y="4" width="2" height="3" class="c2"/></svg>
