<svg xmlns="http://www.w3.org/2000/svg" viewBox="0 0 40 40" width="40" height="40"><defs><style>.c1{fill:#30ba78}.c2{fill:#0c322c}</style></defs><polygon xmlns="http://www.w3.org/2000/svg" points="12 29 10 29 10 15.43 15.49 12.14 16.51 13.86 12 16.57 12 29" class="c2"/><polygon xmlns="http://www.w3.org/2000/svg" points="30 29 28 29 28 16.57 23.49 13.86 24.51 12.14 30 15.43 30 29" class="c2"/><path xmlns="http://www.w3.org/2000/svg" d="M25,11h-10v-2.28l3.43-5.72h3.13l3.43,5.72v2.28ZM17.17,9h5.67l-2.4-4h-.87l-2.4,4Z" class="c1"/><path xmlns="http://www.w3.org/2000/svg" d="M22,27h-4c-1.65,0-3-1.35-3-3v-3h10v3c0,1.65-1.35,3-3,3ZM17,23v1c0,.55.45,1,1,1h4c.55,0,1-.45,1-1v-1h-6Z" class="c1"/><path xmlns="http://www.w3.org/2000/svg" d="M25,23h-10v-14h10v14ZM17,21h6v-10h-6v10Z" class="c1"/><rect xmlns="http://www.w3.org/2000/svg" x="19" y="13" width="2" height="16" class="c2"/><rect xmlns="http://www.w3.org/2000/svg" x="32" y="18" width="2" height="14.49" class="c1"/><rect xmlns="http://www.w3.org/2000/svg" x="6" y="18" width="2" height="14.49" class="c1"/><rect xmlns="http://www.w3.org/2000/svg" x="19" y="31" width="2" height="3" class="c2"/><rect xmlns="http://www.w3.org/2000/svg" x="10" y="34" width="20" height="2" class="c2"/></svg>
