<svg xmlns="http://www.w3.org/2000/svg" viewBox="0 0 105.83333 105.83333" width="105.83333" height="105.83333"><defs><style>.c1{fill:#30ba78}.c2{fill:#0c322c}</style></defs><path xmlns="http://www.w3.org/2000/svg" d="M 0 5.3903687 L 0 31.847668 L 0 95.277389 L 105.83385 95.277389 L 105.83385 31.847668 L 105.83385 5.3903687 L 0 5.3903687 z M 5.2911499 10.681519 L 100.54115 10.681519 L 100.54115 26.556519 L 5.2911499 26.556519 L 5.2911499 10.681519 z M 5.2911499 31.847668 L 100.54115 31.847668 L 100.54115 89.986239 L 5.2911499 89.986239 L 5.2911499 31.847668 z M 52.91615 42.699202 L 52.91615 47.992419 L 95.230363 47.992419 L 95.230363 42.699202 L 52.91615 42.699202 z M 52.91615 58.27913 L 52.91615 63.572347 L 95.230363 63.572347 L 95.230363 58.27913 L 52.91615 58.27913 z M 52.91615 74.474524 L 52.91615 79.767741 L 95.230363 79.767741 L 95.230363 74.474524 L 52.91615 74.474524 z " class="c2"/><path xmlns="http://www.w3.org/2000/svg" d="M 68.791665,18.451648 H 79.355149" fill="#efefef"/><path xmlns="http://www.w3.org/2000/svg" d="M 84.666666,18.387714 H 95.23015" fill="#efefef"/><path xmlns="http://www.w3.org/2000/svg" d="M 52.916667,45.345856 H 95.23015" fill="#efefef"/><path xmlns="http://www.w3.org/2000/svg" d="M 52.916667,60.925655 H 95.23015" fill="#efefef"/><path xmlns="http://www.w3.org/2000/svg" d="M 52.916667,77.121311 H 95.23015" fill="#efefef"/><path xmlns="http://www.w3.org/2000/svg" d="M 87.333227,39.18969 V 51.261264" fill="#efefef"/><path xmlns="http://www.w3.org/2000/svg" d="M 60.792868,54.889868 V 66.961442" fill="#efefef"/><path xmlns="http://www.w3.org/2000/svg" d="M 82.165387,71.085524 V 83.157098" fill="#efefef"/><path xmlns="http://www.w3.org/2000/svg" d="m 29.172375,52.765094 c -1.07513,0 -2.118937,0.191119 -3.14958,0.618026 -1.030643,0.426906 -1.904597,1.029822 -2.664829,1.790053 -0.760231,0.760232 -1.363147,1.634186 -1.790053,2.664829 -0.426907,1.030643 -0.61868,2.075103 -0.61868,3.150233 0,1.07513 0.191773,2.118937 0.61868,3.14958 0.426906,1.030643 1.029822,1.904597 1.790053,2.664828 0.760232,0.760232 1.634186,1.363148 2.664829,1.790054 1.030643,0.426906 2.07445,0.618679 3.14958,0.618679 1.075129,0 2.11959,-0.191773 3.150233,-0.618679 1.030643,-0.426906 1.904597,-1.029822 2.664828,-1.790054 0.760232,-0.760231 1.363148,-1.634185 1.790054,-2.664828 0.426906,-1.030643 0.618026,-2.07445 0.618026,-3.14958 0,-1.07513 -0.19112,-2.11959 -0.618026,-3.150233 -0.426906,-1.030643 -1.029822,-1.904597 -1.790054,-2.664829 -0.760231,-0.760231 -1.634185,-1.363147 -2.664828,-1.790053 -1.030643,-0.426907 -2.075104,-0.618026 -3.150233,-0.618026 z m 0,5.291764 c 0.32573,0 0.861407,0.105758 1.12499,0.214938 0.263583,0.109179 0.717618,0.413178 0.947944,0.643505 0.230327,0.230326 0.534325,0.684361 0.643505,0.947944 0.10918,0.263583 0.214937,0.799259 0.214937,1.12499 0,0.325731 -0.105757,0.861407 -0.214937,1.12499 -0.10918,0.263583 -0.413178,0.716965 -0.643505,0.947291 -0.230326,0.230327 -0.684361,0.534325 -0.947944,0.643505 -0.263583,0.109179 -0.79926,0.21559 -1.12499,0.21559 -0.325731,0 -0.861408,-0.106411 -1.12499,-0.21559 -0.263583,-0.10918 -0.716965,-0.413179 -0.947292,-0.643505 -0.230326,-0.230326 -0.534325,-0.683708 -0.643504,-0.947291 -0.10918,-0.263583 -0.215591,-0.79926 -0.215591,-1.12499 0,-0.325731 0.106411,-0.861407 0.215591,-1.12499 0.109179,-0.263583 0.413178,-0.717618 0.643504,-0.947944 0.230327,-0.230327 0.683709,-0.534326 0.947292,-0.643505 0.263582,-0.10918 0.799259,-0.214937 1.12499,-0.214938 z m -4.098156,-15.687717 -2.332032,3.095703 -3.835937,-0.541016 -5.798828,5.796875 0.541016,3.837891 -3.095704,2.330078 v 8.199219 l 3.095704,2.330078 -0.541016,3.83789 5.798828,5.796875 3.835937,-0.541015 2.332032,3.095703 h 8.197265 l 2.332032,-3.095703 3.835937,0.541015 5.796875,-5.796875 -0.539062,-3.83789 3.09375,-2.330078 v -8.199219 l -3.09375,-2.330078 0.539062,-3.837891 -5.796875,-5.796875 -3.835937,0.541016 -2.332032,-3.095703 z m 2.638672,5.291015 h 2.919921 l 2.619141,3.478516 4.3125,-0.607422 2.064453,2.064453 -0.607422,4.3125 L 42.5,59.527344 v 2.919922 l -3.478516,2.621093 0.607422,4.310547 -2.064453,2.066406 -4.3125,-0.607421 -2.619141,3.478515 h -2.919921 l -2.619141,-3.478515 -4.3125,0.607421 -2.064453,-2.066406 0.607422,-4.310547 -3.478516,-2.621093 v -2.919922 l 3.478516,-2.619141 -0.607422,-4.3125 2.064453,-2.064453 4.3125,0.607422 z m 51.80664,23.425781 V 83.15625 h 5.291016 V 71.085937 Z M 58.146484,54.890625 v 12.070312 h 5.292969 V 54.890625 Z M 84.6875,39.189453 v 12.072266 h 5.291016 V 39.189453 Z m -0.02148,-23.447265 v 5.291015 h 10.564453 v -5.291015 z m -15.875,0.06445 v 5.291015 h 10.564453 v -5.291015 z" class="c1"/></svg>
