<svg xmlns="http://www.w3.org/2000/svg" viewBox="0 0 40 40" width="40" height="40"><defs><style>.c1{fill:#30ba78}.c2{fill:#0c322c}</style></defs><path xmlns="http://www.w3.org/2000/svg" d="m 4,2 v 31.445312 l 8,7.181641 V 8.9960938 L 5.578125,2 Z m 2,3.4179687 4,4.3574219 V 36.144531 L 6,32.554687 Z" class="c2"/><path xmlns="http://www.w3.org/2000/svg" d="m 24,25 v 8 h 2 v -8 z" class="c2"/><path xmlns="http://www.w3.org/2000/svg" d="M 4,2 V 33 H 6 V 4 h 18 v 7 h 2 V 2 Z m 20,23 v 7 H 13 v 2 h 13 v -9 z" class="c2"/><path xmlns="http://www.w3.org/2000/svg" d="m 58.484375,58.515625 v 2 h 19 v -2 z" class="c1"/><path xmlns="http://www.w3.org/2000/svg" d="m 72.707031,52.322266 -1.414062,1.414062 5.777343,5.779297 -5.777343,5.777344 1.414062,1.414062 7.19336,-7.191406 z" class="c1"/><g xmlns="http://www.w3.org/2000/svg" transform="translate(0,-2)"><path d="M 92.707031,25.292969 91.292969,26.707031 99,34.414062 V 40 h 2 v -6.414063 z" class="c1"/><path d="M 99.292969,17.292969 91,25.585937 V 33 h -8 v 2 h 10 v -8.585938 l 7.70703,-7.707031 z" class="c1"/><path d="m 96,12.585938 -4.707031,4.707031 1.414062,1.414062 L 96,15.414063 103.58594,23 H 110 v -2 h -5.58594 z" class="c1"/><path d="m 102,12 c -2.197294,0 -4,1.802706 -4,4 0,2.197294 1.802706,4 4,4 2.19729,0 4,-1.802706 4,-4 0,-2.197294 -1.80271,-4 -4,-4 z m 0,2 c 1.11641,0 2,0.883586 2,2 0,1.116414 -0.88359,2 -2,2 -1.11641,0 -2,-0.883586 -2,-2 0,-1.116414 0.88359,-2 2,-2 z" class="c1"/></g><path xmlns="http://www.w3.org/2000/svg" d="M 27.933594,7.6289062 V 15.066406 H 15 v 2 H 29.933594 V 12.771484 L 35.642578,19 29.933594,25.228516 V 20.933594 H 15 v 2 h 12.933594 v 7.4375 L 38.357422,19 Z" class="c1"/></svg>
