<svg xmlns="http://www.w3.org/2000/svg" viewBox="0 0 100 100" width="100" height="100"><defs><style>.c1{fill:#30ba78}.c2{fill:#0c322c}</style></defs><path xmlns="http://www.w3.org/2000/svg" d="m 62.496094,54.974609 -13.228516,0.199219 -10.326172,-0.0625 -0.0332,5.292969 10.382813,0.0625 13.285156,-0.201172 z" class="c2"/><path xmlns="http://www.w3.org/2000/svg" d="M 15,15 V 85 H 85 V 15 Z m 5,5 59.707031,0.291015 L 80,80 H 20 Z" class="c1"/><path xmlns="http://www.w3.org/2000/svg" d="M 5 5 L 5 24.533203 L 9.9824219 24.533203 L 9.9824219 10.001953 L 10 10.001953 L 10 9.96875 L 25 10 L 25 5 L 5 5 z M 30 5 L 30 10 L 40 10 L 39.962891 5 L 30 5 z M 44.964844 5 L 45 10 L 55 10 L 54.990234 5 L 44.964844 5 z M 59.962891 5 L 60 10 L 70 10 L 69.988281 5 L 62.462891 5 L 59.962891 5 z M 75 5 L 75 10 L 90 9.9667969 L 90 10 L 90 25 L 95 25.005859 L 95 5.0039062 L 75 5 z M 49.763672 26.490234 L 29.361328 68.818359 L 34.128906 71.117188 L 49.833984 38.53125 L 66.056641 71.208984 L 70.796875 68.855469 L 49.763672 26.490234 z M 90 30 L 90 40 L 95 40.005859 L 95 30.005859 L 90 30 z M 5 30.162109 L 5 40.1875 L 9.9824219 40.1875 L 9.9824219 30.162109 L 5 30.162109 z M 5 45 L 5 55.025391 L 10 55.025391 L 10 45 L 5 45 z M 90 45 L 90 55 L 95 55.005859 L 95 45.005859 L 90 45 z M 5 60 L 5 62.5 L 5 67.525391 L 5 70.025391 L 10 70.025391 L 10 67.525391 L 10 62.5 L 10 60 L 5 60 z M 90 60 L 90 70 L 95 70.005859 L 95 60.005859 L 90 60 z M 5 75 L 5 95 L 25 95 L 25.021484 90 L 10.332031 90 L 10 90 L 10 75 L 5 75 z M 90 75 L 90 90 L 75 90 L 74.978516 95 L 95 95 L 95 75.005859 L 90 75 z M 30.021484 90 L 30 95 L 32.609375 95 L 37.634766 95 L 39.998047 95 L 40.019531 90 L 37.65625 90 L 32.630859 90 L 30.021484 90 z M 45.021484 90 L 45 95 L 47.636719 95 L 52.662109 95 L 55.027344 95 L 55.048828 90 L 52.683594 90 L 47.658203 90 L 45.021484 90 z M 60.021484 90 L 60 95 L 70 95 L 70.021484 90 L 60.021484 90 z " class="c2"/></svg>
