<svg xmlns="http://www.w3.org/2000/svg" viewBox="0 0 40 40" width="40" height="40"><defs><style>.c1{fill:#30ba78}.c2{fill:#0c322c}</style></defs><path xmlns="http://www.w3.org/2000/svg" d="M 20.204359,19.893605 C 15.832187,16.538719 9.5380964,17.367352 6.1832109,21.739524 -1.7717091,32.106577 14.095354,44.28181 22.050278,33.914752 25.405163,29.54258 24.57653,23.24849 20.204359,19.893605 Z m -1.217523,1.586706 c 3.514652,2.696888 4.173623,7.702266 1.476735,11.216918 C 14.090287,41.003055 1.3966384,31.262866 7.7699176,22.957046 10.466805,19.442394 15.472184,18.783424 18.986836,21.480311 Z" class="c1"/><path xmlns="http://www.w3.org/2000/svg" d="m 2.6075827,16.716797 c -0.5742268,0.01436 -1.2235618,0.187533 -1.63867175,0.728516 -0.3362384,0.438193 -0.4001851,0.985935 -0.3398438,1.449218 0.0603411,0.463284 0.2265193,0.899459 0.45703125,1.359375 0.4610239,0.919832 1.204075,1.938785 2.189453,3.076172 1.970756,2.274774 4.9117742,4.988517 8.4062506,7.669922 3.494474,2.681405 6.876652,4.819916 9.583984,6.134766 1.353666,0.657424 2.531251,1.113067 3.539062,1.320312 0.503907,0.103623 0.966573,0.149513 1.429688,0.08789 0.463115,-0.06162 0.976262,-0.264931 1.3125,-0.703125 0.432699,-0.563905 0.416572,-1.261595 0.263672,-1.841797 -0.1529,-0.580202 -0.446689,-1.153435 -0.845703,-1.78125 -0.715994,-1.126554 -1.809909,-2.425275 -3.182031,-3.83418 -0.185079,0.704761 -0.451385,1.394637 -0.796485,2.057813 1.009178,1.087045 1.793596,2.065986 2.291016,2.848633 0.331776,0.522021 0.529872,0.961534 0.597656,1.21875 0.0067,0.02536 0.01211,0.03869 0.0166,0.04687 0.0053,-3.96e-4 0.01545,4.35e-4 0.02051,0 -0.0016,-0.0163 -0.0059,0.0267 -0.02051,0 -0.138718,0.01034 -0.361137,0.0079 -0.684571,-0.05859 C 24.479652,36.346483 23.402407,35.949608 22.138833,35.335937 19.611685,34.108601 16.307047,32.027959 12.900552,29.414063 9.4940558,26.800167 6.6268639,24.144862 4.7872702,22.021484 3.8674733,20.959796 3.2060216,20.02145 2.8732077,19.357422 2.7235282,19.058783 2.6621743,18.845149 2.6362936,18.708203 c -0.00427,0.0035 -0.00517,0.0073 0.02207,0.0066 0.2379779,-0.0059 0.674124,0.05844 1.2207031,0.220703 0.8974514,0.266417 2.1066095,0.794321 3.4833985,1.520703 C 7.9156986,19.949091 8.5153074,19.511264 9.1507468,19.149023 7.3502977,18.140703 5.759696,17.407139 4.4474264,17.017578 3.7779162,16.818827 3.1818095,16.70244 2.6075827,16.716797 Z m 0.027344,1.986328 c 0.013188,-0.0016 0.00577,0.0014 0.00137,0.0049 -2.406e-4,-0.0013 -0.00113,-0.0036 -0.00137,-0.0049 z" class="c2"/><path xmlns="http://www.w3.org/2000/svg" d="m 33,26 v 6 h 2 v -6 z" class="c2"/><path xmlns="http://www.w3.org/2000/svg" d="m 31,28 v 2 h 6 v -2 z" class="c2"/><path xmlns="http://www.w3.org/2000/svg" d="m 13,8 v 6 h 2 V 8 Z" class="c1"/><path xmlns="http://www.w3.org/2000/svg" d="m 11,10 v 2 h 6 v -2 z" class="c1"/><path xmlns="http://www.w3.org/2000/svg" d="m 27,12 c -2.749579,0 -5,2.250421 -5,5 0,2.749579 2.250421,5 5,5 2.749579,0 5,-2.250421 5,-5 0,-2.749579 -2.250421,-5 -5,-5 z m 0,2 c 1.668699,0 3,1.331301 3,3 0,1.668699 -1.331301,3 -3,3 -1.668699,0 -3,-1.331301 -3,-3 0,-1.668699 1.331301,-3 3,-3 z" class="c2"/><path xmlns="http://www.w3.org/2000/svg" d="m 33,3 c -1.64501,0 -3,1.3549904 -3,3 0,1.6450096 1.35499,3 3,3 1.64501,0 3,-1.3549904 3,-3 0,-1.6450096 -1.35499,-3 -3,-3 z m 0,2 c 0.564129,0 1,0.4358706 1,1 0,0.5641294 -0.435871,1 -1,1 -0.564129,0 -1,-0.4358706 -1,-1 0,-0.5641294 0.435871,-1 1,-1 z" class="c1"/></svg>
