<svg xmlns="http://www.w3.org/2000/svg" viewBox="0 0 40 40" width="40" height="40"><defs><style>.c1{fill:#30ba78}.c2{fill:#0c322c}</style></defs><path xmlns="http://www.w3.org/2000/svg" d="M 13.615234,4 18.857422,9.2421875 6.1308594,21.970703 7.5449219,23.384766 21.685547,9.2421875 18.443359,6 H 32 V 19.556641 L 28.757812,16.314453 14.615234,30.455078 16.029297,31.869141 28.757812,19.142578 34,24.384766 V 4 Z" class="c2"/><path xmlns="http://www.w3.org/2000/svg" d="M 6 8 L 6 10 L 8.5859375 10 L 2.2929688 16.292969 L 3.7070312 17.707031 L 10 11.414062 L 10 14 L 12 14 L 12 8 L 6 8 z M 24 8 L 24 10 L 26.585938 10 L 7.2929688 29.292969 L 8.7070312 30.707031 L 28 11.414062 L 28 14 L 30 14 L 30 8 L 24 8 z M 26 26 L 26 28 L 28.585938 28 L 22.292969 34.292969 L 23.707031 35.707031 L 30 29.414062 L 30 32 L 32 32 L 32 26 L 26 26 z " class="c1"/></svg>
