<svg xmlns="http://www.w3.org/2000/svg" viewBox="0 0 40 40" width="40" height="40"><defs><style>.c1{fill:#30ba78}.c2{fill:#0c322c}</style></defs><path xmlns="http://www.w3.org/2000/svg" d="M30,25H10v-10h20v10ZM12,23h16v-6H12v6Z" class="c2"/><rect xmlns="http://www.w3.org/2000/svg" x="24" y="19" width="2" height="2" class="c1"/><rect xmlns="http://www.w3.org/2000/svg" x="18" y="19" width="5" height="2" class="c2"/><path xmlns="http://www.w3.org/2000/svg" d="M30,37H10v-10h20v10ZM12,35h16v-6H12v6Z" class="c2"/><rect xmlns="http://www.w3.org/2000/svg" x="24" y="31" width="2" height="2" class="c1"/><rect xmlns="http://www.w3.org/2000/svg" x="18" y="31" width="5" height="2" class="c2"/><rect xmlns="http://www.w3.org/2000/svg" x="24" y="24" width="2" height="3.79" class="c2"/><rect xmlns="http://www.w3.org/2000/svg" x="24" y="12" width="2" height="4" class="c2"/><rect xmlns="http://www.w3.org/2000/svg" x="23" y="11" width="4" height="2" class="c2"/><path xmlns="http://www.w3.org/2000/svg" d="M37,22h-4.96v-2h2.96v-3c0-2.21-1.79-4-4-4h-1v-5c0-2.21-1.79-4-4-4h-11c-2.21,0-4,1.79-4,4v3h-2c-2.21,0-4,1.79-4,4v5h3v2H3v-7c0-3.31,2.69-6,6-6v-1c0-3.31,2.69-6,6-6h11c3.31,0,6,2.69,6,6v3.08c2.83.48,5,2.95,5,5.92v5Z" class="c1"/></svg>
