<svg xmlns="http://www.w3.org/2000/svg" viewBox="0 0 40 40" width="40" height="40"><defs><style>.c1{fill:#30ba78}.c2{fill:#0c322c}</style></defs><g xmlns="http://www.w3.org/2000/svg" transform="matrix(3.2919013,0,0,3.2948616,-1141.6193,-122.40575)"><path d="m 350.44141,41.398437 c -0.37962,10e-7 -0.70259,0.153412 -0.91016,0.386719 -0.20757,0.233307 -0.30469,0.532962 -0.30469,0.828125 0,0.295164 0.0971,0.594818 0.30469,0.828125 0.20757,0.233307 0.53054,0.386719 0.91016,0.386719 h 4.2539 c 0.37962,0 0.70259,-0.153412 0.91016,-0.386719 0.20757,-0.233307 0.30469,-0.532962 0.30469,-0.828125 0,-0.295163 -0.0971,-0.594818 -0.30469,-0.828125 -0.20757,-0.233307 -0.53054,-0.386718 -0.91016,-0.386719 h -1.21679 v 0.607422 h 1.21679 c 0.22794,0 0.35888,0.07546 0.45508,0.183594 0.0962,0.108134 0.15234,0.263737 0.15234,0.423828 0,0.160092 -0.0561,0.315695 -0.15234,0.423828 -0.0962,0.108134 -0.22714,0.183594 -0.45508,0.183594 h -4.2539 c -0.22794,0 -0.36083,-0.07546 -0.45704,-0.183594 -0.0962,-0.108133 -0.15039,-0.263737 -0.15039,-0.423828 0,-0.16009 0.0542,-0.315694 0.15039,-0.423828 0.0962,-0.108134 0.2291,-0.183593 0.45704,-0.183594 h 1.21484 v -0.607422 z" class="c1"/><path d="m 351.34961,39.578125 c -0.37902,0 -0.70113,0.153358 -0.9082,0.386719 -0.20707,0.23336 -0.30469,0.53314 -0.30469,0.828125 0,0.294984 0.0976,0.592811 0.30469,0.826172 0.20707,0.23336 0.52918,0.386718 0.9082,0.386718 v -0.607422 c -0.22693,0 -0.35918,-0.07356 -0.45508,-0.18164 -0.0959,-0.10808 -0.15039,-0.263559 -0.15039,-0.423828 0,-0.16027 0.0545,-0.317701 0.15039,-0.425782 0.0959,-0.10808 0.22815,-0.18164 0.45508,-0.18164 h 2.73828 c 0.22793,0 0.35887,0.07546 0.45508,0.183594 0.0962,0.108133 0.15234,0.263737 0.15234,0.423828 0,0.160091 -0.0561,0.315694 -0.15234,0.423828 -0.0962,0.108133 -0.22715,0.18164 -0.45508,0.18164 v 0.607422 c 0.37962,0 0.70259,-0.151458 0.91016,-0.384765 0.20757,-0.233307 0.30468,-0.532962 0.30468,-0.828125 0,-0.295163 -0.0971,-0.594818 -0.30468,-0.828125 -0.20757,-0.233307 -0.53054,-0.386719 -0.91016,-0.386719 z" class="c1"/><path d="m 352.26367,37.150391 v 0.302734 c 0,0.329476 -0.21603,0.620399 -0.5039,0.988281 -0.28788,0.367882 -0.63706,0.811875 -0.6543,1.431641 l -0.01,0.3125 h 3.29492 v -0.302735 c 0,-0.151751 0.009,-0.416092 -0.0976,-0.683593 -0.0717,-0.17898 -0.32647,-0.257436 -0.54492,-0.355469 -0.0232,-0.338436 -0.10638,-0.695649 -0.27735,-1.005859 -0.19254,-0.349375 -0.46988,-0.6875 -0.90234,-0.6875 z m 0.41406,0.71875 c 0.079,0.05011 0.16185,0.0805 0.26172,0.261718 0.14199,0.257631 0.23633,0.607506 0.23633,0.839844 v 0.304688 h 0.30274 c 0.20265,0 0.2052,0.03851 0.25,0.15039 0.0149,0.03727 0.01,0.101648 0.0176,0.152344 h -1.88281 c 0.0883,-0.25573 0.17271,-0.505164 0.375,-0.763672 0.19787,-0.252865 0.31817,-0.60458 0.43945,-0.945312 z" class="c1"/><path d="m 350.31641,43.220703 2.03711,5.765625 h 1.04882 l 1.69727,-5.765625 z m 0.85742,0.607422 h 3.11328 l -1.33789,4.552734 h -0.16602 z" class="c2"/></g></svg>
