<svg xmlns="http://www.w3.org/2000/svg" viewBox="0 0 40 40" width="40" height="40"><defs><style>.c1{fill:#30ba78}.c2{fill:#0c322c}</style></defs><path xmlns="http://www.w3.org/2000/svg" d="m 12,26 v 2 h 2.431641 l 3.199218,12 h 4.738282 L 25.568359,28 H 28 V 26 H 24.03125 L 20.832031,38 H 19.167969 L 15.96875,26 Z" class="c2"/><path xmlns="http://www.w3.org/2000/svg" d="m 10,22 v 2 h 20 v -2 z" class="c2"/><path xmlns="http://www.w3.org/2000/svg" d="M 26.910156,5.3300781 20,15.697266 V 20 h 7.46875 l 5.832031,-7 z M 27.089844,8.6679688 30.699219,13 26.53125,18 H 22 v -1.697266 z" class="c1"/><path xmlns="http://www.w3.org/2000/svg" d="M 14,0.01953125 V 6.1015625 L 7.6621094,14.076172 13.585938,20 H 18 V 15.320313 L 23,8.3203125 V 8 C 23,5.4986977 21.838691,3.4615179 20.28125,2.1074219 18.723809,0.75332583 16.787099,0.01953125 15,0.01953125 Z m 2,2.20507815 c 1.006282,0.206393 2.075452,0.6139591 2.96875,1.390625 1.134672,0.9865252 1.900192,2.378709 1.976562,4.140625 L 16,14.679688 V 18 H 14.414063 L 10.337891,13.923828 16,6.7988281 Z" class="c1"/><path xmlns="http://www.w3.org/2000/svg" d="m 18,26 v 2 h 4 v -2 z" class="c2"/></svg>
