<svg xmlns="http://www.w3.org/2000/svg" viewBox="0 0 40 40" width="40" height="40"><defs><style>.c1{fill:#30ba78}.c2{fill:#0c322c}</style></defs><rect xmlns="http://www.w3.org/2000/svg" x="11" y="7" width="2" height="4" class="c1"/><rect xmlns="http://www.w3.org/2000/svg" x="14.99" y="7" width="2" height="4" class="c1"/><path xmlns="http://www.w3.org/2000/svg" d="M32,36h-15c-2.21,0-4-1.79-4-4v-3h2v3c0,1.1.9,2,2,2h15c1.1,0,2-.9,2-2s-.9-2-2-2h-2c-2.21,0-4-1.79-4-4s1.79-4,4-4h2c1.1,0,2-.9,2-2s-.9-2-2-2h-2v-5h2v3c2.21,0,4,1.79,4,4s-1.79,4-4,4h-2c-1.1,0-2,.9-2,2s.9,2,2,2h2c2.21,0,4,1.79,4,4s-1.79,4-4,4Z" class="c2"/><path xmlns="http://www.w3.org/2000/svg" d="M31,14c-2.21,0-4-1.79-4-4s1.79-4,4-4,4,1.79,4,4-1.79,4-4,4ZM31,8c-1.1,0-2,.9-2,2s.9,2,2,2,2-.9,2-2-.9-2-2-2Z" class="c1"/><rect xmlns="http://www.w3.org/2000/svg" x="8" y="24" width="12" height="2" class="c1"/><path xmlns="http://www.w3.org/2000/svg" d="M11,22h-3.72l-2.28-6.84v-3.16c0-2.21,1.79-4,4-4v2c-1.1,0-2,.9-2,2v2.84l1.72,5.16h2.28v2Z" class="c2"/><path xmlns="http://www.w3.org/2000/svg" d="M20.72,22h-3.72v-2h2.28l1.72-5.16v-2.84c0-1.1-.9-2-2-2v-2c2.21,0,4,1.79,4,4v3.16l-2.28,6.84Z" class="c2"/><rect xmlns="http://www.w3.org/2000/svg" x="11" y="28" width="6" height="2" class="c2"/></svg>
