<svg xmlns="http://www.w3.org/2000/svg" viewBox="0 0 40 40" width="40" height="40"><defs><style>.c1{fill:#30ba78}.c2{fill:#0c322c}</style></defs><path xmlns="http://www.w3.org/2000/svg" d="m19.96 36.42-16-16.08V9.94L9.91 4h6.18l2.44 2.44-1.42 1.41L15.26 6h-4.52l-4.78 4.77v8.75l14.01 14.06 14.07-14.07v-8.8L30.2 6h-5.46l-1.71 1.71-1.42-1.42L23.91 4h7.24l4.89 6v10.34z" class="c2"/><path xmlns="http://www.w3.org/2000/svg" d="M19.99 18.01c-2.21 0-4-1.79-4-4s1.79-4 4-4 4 1.79 4 4-1.79 4-4 4m0-6c-1.1 0-2 .9-2 2s.9 2 2 2 2-.9 2-2-.9-2-2-2" class="c1"/><path xmlns="http://www.w3.org/2000/svg" d="M20.99 27.01h-4.98v-2h2.98v-8h2z" class="c1"/><path xmlns="http://www.w3.org/2000/svg" d="M16.01 21.01h3.98v2h-3.98z" class="c1"/></svg>
