<svg xmlns="http://www.w3.org/2000/svg" viewBox="0 0 10.583333 10.583333" width="10.583333" height="10.583333"><defs><style>.c1{fill:#30ba78}.c2{fill:#0c322c}</style></defs><path xmlns="http://www.w3.org/2000/svg" d="m 3.9667969,3.4472656 v 0.265625 3.0761719 L 3.2832031,8.3730469 1.3261719,10.048828 4.3828125,10.044922 7.0507812,8.2011719 7.3964844,6.1601562 V 4.3769531 4.1132812 H 6.8671875 V 4.3769531 6.1152344 L 6.5664062,7.8925781 4.2167969,9.515625 2.7597656,9.5175781 3.7207031,8.6953125 4.4960937,6.8984375 V 3.7128906 3.4472656 Z" class="c2"/><path xmlns="http://www.w3.org/2000/svg" d="M 5.9686279 0.1462443 L 5.7949951 0.34364827 L 5.2870158 0.91777344 L 5.2870158 1.5192871 L 5.2870158 1.5880168 L 4.8730876 1.5880168 L 3.9646159 2.6267131 L 3.9646159 3.7088175 L 5.6306641 3.7088175 L 7.4041992 4.8942749 L 7.4041992 2.6230957 L 6.4533529 1.5880168 L 5.8146322 1.5880168 L 5.8146322 1.5192871 L 5.8146322 1.1172445 L 6.1892863 0.69556478 L 6.3649862 0.49816081 L 5.9686279 0.1462443 z M 5.113383 2.1171834 L 6.2208089 2.1171834 L 6.8750326 2.8303182 L 6.8750326 3.9020874 L 5.790861 3.1796509 L 4.4942993 3.1796509 L 4.4942993 2.8261841 L 5.113383 2.1171834 z " class="c1"/></svg>
