<svg xmlns="http://www.w3.org/2000/svg" viewBox="0 0 40 40" width="40" height="40"><defs><style>.c1{fill:#30ba78}.c2{fill:#0c322c}</style></defs><rect xmlns="http://www.w3.org/2000/svg" x="16.99" y="33" width="16.02" height="2" class="c1"/><path xmlns="http://www.w3.org/2000/svg" d="M11.41,35h-6.4v-6.41L27.9,5.68c1.15-1.15,3.04-1.17,4.21-.04l2.29,2.21c.59.57.91,1.33.92,2.14,0,.81-.31,1.58-.89,2.15l-23.02,22.85ZM7.01,33h3.58l22.43-22.27c.19-.19.3-.45.29-.72,0-.27-.11-.52-.3-.71l-2.29-2.21c-.39-.38-1.02-.37-1.4.01L7.01,29.41v3.59Z" class="c2"/><polygon xmlns="http://www.w3.org/2000/svg" points="14 32.01 12 32.01 12 30 10 30 10 28 8 28 8 26 12 26 12 28 14 28 14 32.01" class="c2"/><rect xmlns="http://www.w3.org/2000/svg" x="28.12" y="7.41" width="2" height="7.41" transform="translate(.67 23.85) rotate(-45)" class="c2"/><rect xmlns="http://www.w3.org/2000/svg" x="7.46" y="19.04" width="25.23" height="2" transform="translate(-8.29 20.07) rotate(-45)" class="c2"/><rect xmlns="http://www.w3.org/2000/svg" x="5.01" y="31" width="2" height="4" class="c1"/><rect xmlns="http://www.w3.org/2000/svg" x="6" y="32" width="2" height="4" transform="translate(41 27) rotate(90)" class="c1"/><path xmlns="http://www.w3.org/2000/svg" d="M31.58,12.16l1.41,1.41,1.44-1.43c.58-.57.89-1.34.89-2.15,0-.81-.33-1.57-.92-2.14l-2.29-2.21c-1.17-1.13-3.06-1.12-4.21.04l-1.4,1.4,1.41,1.41,1.4-1.4c.38-.38,1.01-.39,1.4-.01l2.29,2.21c.19.19.3.44.3.71,0,.27-.1.53-.29.72l-1.44,1.43Z" class="c1"/></svg>
