<svg xmlns="http://www.w3.org/2000/svg" viewBox="0 0 10.583333 10.583333" width="10.583333" height="10.583333"><defs><style>.c1{fill:#30ba78}.c2{fill:#0c322c}</style></defs><path xmlns="http://www.w3.org/2000/svg" d="M 5.2477417 0.0041341146 A 0.26460981 0.26460981 0 0 0 5.1640259 0.033072917 L 2.7812256 1.3554728 A 0.26458335 0.26458335 0 0 0 2.7683065 1.3663249 A 0.26458335 0.26458335 0 0 0 2.7486694 1.3797607 A 0.26458335 0.26458335 0 0 0 2.7398844 1.388029 A 0.26458335 0.26458335 0 0 0 2.7264486 1.4019816 A 0.26458335 0.26458335 0 0 0 2.6985433 1.4298869 A 0.26458335 0.26458335 0 0 0 2.6871745 1.4505575 A 0.26458335 0.26458335 0 0 0 2.6799398 1.4588257 A 0.26458335 0.26458335 0 0 0 2.6747721 1.4748454 A 0.26458335 0.26458335 0 0 0 2.6587524 1.5079183 A 0.26458335 0.26458335 0 0 0 2.653068 1.5404744 A 0.26458335 0.26458335 0 0 0 2.6489339 1.5709635 A 0.26458335 0.26458335 0 0 0 2.6463501 1.5880168 L 2.6463501 4.4979167 A 0.26458335 0.26458335 0 0 0 2.9098999 4.7614665 A 0.26458335 0.26458335 0 0 0 3.1760335 4.4979167 L 3.1760335 2.0376017 L 5.0276001 3.0664795 L 5.0276001 5.8203166 A 0.26458335 0.26458335 0 0 0 5.0301839 5.8373698 A 0.26458335 0.26458335 0 0 0 5.0348348 5.8688924 A 0.26458335 0.26458335 0 0 0 5.0394857 5.8988647 A 0.26458335 0.26458335 0 0 0 5.0555054 5.933488 A 0.26458335 0.26458335 0 0 0 5.060673 5.9489909 A 0.26458335 0.26458335 0 0 0 5.0684245 5.9582926 A 0.26458335 0.26458335 0 0 0 5.0818604 5.9805135 A 0.26458335 0.26458335 0 0 0 5.1009806 5.9996338 A 0.26458335 0.26458335 0 0 0 5.1175171 6.0161702 A 0.26458335 0.26458335 0 0 0 5.1304362 6.0296061 A 0.26458335 0.26458335 0 0 0 5.1536906 6.0440755 A 0.26458335 0.26458335 0 0 0 5.1640259 6.0528605 L 7.4083333 7.2987793 L 7.4083333 9.6045817 L 5.4198242 8.5002563 A 0.26458335 0.26458335 0 0 0 5.060673 8.6036092 A 0.26458335 0.26458335 0 0 0 5.1640259 8.9627604 L 7.5447591 10.28516 A 0.26460981 0.26460981 0 0 0 7.5643962 10.291878 A 0.26458335 0.26458335 0 0 0 7.6124552 10.308931 A 0.26460981 0.26460981 0 0 0 7.650179 10.314616 A 0.26458335 0.26458335 0 0 0 7.6739502 10.318233 A 0.26458335 0.26458335 0 0 0 7.6966878 10.314616 A 0.26460981 0.26460981 0 0 0 7.7344116 10.308415 A 0.26458335 0.26458335 0 0 0 7.7804036 10.292395 A 0.26460981 0.26460981 0 0 0 7.8005575 10.28516 L 10.086723 9.0165039 A 0.26458335 0.26458335 0 0 0 10.318233 8.757605 L 10.318233 8.7415853 A 0.26458335 0.26458335 0 0 0 10.318233 8.7271159 L 10.318233 5.8477051 A 0.26458335 0.26458335 0 0 0 10.318233 5.8415039 A 0.26458335 0.26458335 0 0 0 10.297046 5.7159302 A 0.26458335 0.26458335 0 0 0 10.293945 5.7102458 A 0.26458335 0.26458335 0 0 0 10.28516 5.6916423 A 0.26458335 0.26458335 0 0 0 10.284127 5.690092 A 0.26458335 0.26458335 0 0 0 10.217981 5.6130941 A 0.26458335 0.26458335 0 0 0 10.217464 5.6125773 A 0.26458335 0.26458335 0 0 0 10.183358 5.5898397 L 7.9375 4.3434041 L 7.9375 1.5947347 A 0.26458335 0.26458335 0 0 0 7.9318156 1.532723 A 0.26458335 0.26458335 0 0 0 7.9297485 1.5244548 A 0.26458335 0.26458335 0 0 0 7.9297485 1.5234212 A 0.26458335 0.26458335 0 0 0 7.9297485 1.5229045 A 0.26458335 0.26458335 0 0 0 7.9261312 1.5105021 A 0.26458335 0.26458335 0 0 0 7.9204468 1.4939657 A 0.26458335 0.26458335 0 0 0 7.9152791 1.480013 A 0.26458335 0.26458335 0 0 0 7.9049438 1.4598592 A 0.26458335 0.26458335 0 0 0 7.8873739 1.4319539 A 0.26458335 0.26458335 0 0 0 7.8842733 1.4283366 A 0.26458335 0.26458335 0 0 0 7.8749715 1.416451 A 0.26458335 0.26458335 0 0 0 7.8568848 1.396814 A 0.26458335 0.26458335 0 0 0 7.8506836 1.3911296 A 0.26458335 0.26458335 0 0 0 7.838798 1.381311 A 0.26458335 0.26458335 0 0 0 7.8377645 1.3802775 A 0.26458335 0.26458335 0 0 0 7.836731 1.3797607 A 0.26458335 0.26458335 0 0 0 7.8289795 1.3735596 A 0.26458335 0.26458335 0 0 0 7.8005575 1.3554728 L 5.4198242 0.033072917 A 0.26460981 0.26460981 0 0 0 5.2477417 0.0041341146 z M 5.2911499 0.5663737 L 7.1282471 1.5869832 L 5.2911499 2.6075928 L 3.455603 1.5869832 L 5.2911499 0.5663737 z M 7.4083333 2.0365682 L 7.4083333 4.3434041 L 5.5567668 5.3717651 L 5.5567668 3.0664795 L 7.4083333 2.0365682 z M 7.6739502 4.8007406 L 9.5094971 5.8213501 L 7.6739502 6.8419596 L 5.836853 5.8213501 L 7.6739502 4.8007406 z M 9.7890666 6.2714518 L 9.7890666 8.5762207 L 7.9375 9.6056152 L 7.9375 7.2987793 L 9.7890666 6.2714518 z " class="c1"/><path xmlns="http://www.w3.org/2000/svg" d="M 2.8654582 4.2379842 A 0.26460981 0.26460981 0 0 0 2.7812256 4.2674398 L 0.40049235 5.5898397 A 0.26458335 0.26458335 0 0 0 0.39170736 5.5970744 A 0.26458335 0.26458335 0 0 0 0.3679362 5.6120605 A 0.26458335 0.26458335 0 0 0 0.3607015 5.6192952 A 0.26458335 0.26458335 0 0 0 0.32607829 5.6534017 A 0.26458335 0.26458335 0 0 0 0.32142741 5.6580526 A 0.26458335 0.26458335 0 0 0 0.30437419 5.6849243 A 0.26458335 0.26458335 0 0 0 0.29868978 5.6916423 A 0.26458335 0.26458335 0 0 0 0.29455566 5.7045614 A 0.26458335 0.26458335 0 0 0 0.27026774 5.7779419 A 0.26458335 0.26458335 0 0 0 0.26716715 5.7980957 A 0.26458335 0.26458335 0 0 0 0.2635498 5.8203166 L 0.2635498 8.7302165 A 0.26458335 0.26458335 0 0 0 0.32039388 8.8929972 A 0.26458335 0.26458335 0 0 0 0.33227946 8.9048828 A 0.26458335 0.26458335 0 0 0 0.39119059 8.955009 A 0.26458335 0.26458335 0 0 0 0.40049235 8.9627604 L 2.7812256 10.28516 A 0.26460981 0.26460981 0 0 0 2.8080973 10.294979 A 0.26458335 0.26458335 0 0 0 2.8453044 10.307898 A 0.26460981 0.26460981 0 0 0 2.8902629 10.315133 A 0.26458335 0.26458335 0 0 0 2.9098999 10.318233 A 0.26458335 0.26458335 0 0 0 2.9305705 10.315133 A 0.26460981 0.26460981 0 0 0 2.9729451 10.308931 A 0.26458335 0.26458335 0 0 0 3.0189372 10.292395 A 0.26460981 0.26460981 0 0 0 3.039091 10.28516 L 5.4198242 8.9627604 A 0.26458335 0.26458335 0 0 0 5.5536662 8.69611 A 0.26458335 0.26458335 0 0 0 5.5567668 8.6775065 L 5.5567668 5.8301351 A 0.26458335 0.26458335 0 0 0 5.5236938 5.6916423 A 0.26458335 0.26458335 0 0 0 5.5195597 5.6864746 A 0.26458335 0.26458335 0 0 0 5.5087077 5.6704549 A 0.26458335 0.26458335 0 0 0 5.5025065 5.6616699 A 0.26458335 0.26458335 0 0 0 5.4611654 5.6182617 A 0.26458335 0.26458335 0 0 0 5.4523804 5.611027 A 0.26458335 0.26458335 0 0 0 5.4477295 5.6074097 A 0.26458335 0.26458335 0 0 0 5.4430786 5.6048258 A 0.26458335 0.26458335 0 0 0 5.4198242 5.5898397 L 3.039091 4.2674398 A 0.26460981 0.26460981 0 0 0 2.8654582 4.2379842 z M 2.9098999 4.8007406 L 4.7469971 5.8213501 L 2.9098999 6.8419596 L 1.0748698 5.8213501 L 2.9098999 4.8007406 z M 0.79271647 6.2704183 L 2.6463501 7.2998128 L 2.6463501 9.6056152 L 0.79271647 8.5751872 L 0.79271647 6.2704183 z M 5.0276001 6.2704183 L 5.0276001 8.5762207 L 3.1760335 9.6040649 L 3.1760335 7.2987793 L 5.0276001 6.2704183 z " class="c2"/></svg>
