<svg xmlns="http://www.w3.org/2000/svg" viewBox="0 0 400 400" width="400" height="400"><defs><style>.c1{fill:#30ba78}.c2{fill:#0c322c}</style></defs><!-- Generator: Adobe Illustrator 29.5.1, SVG Export Plug-In . SVG Version: 2.1.0 Build 141)  --><rect xmlns="http://www.w3.org/2000/svg" x="188.6" y="5.8" width="22.8" height="377" class="c2"/><rect xmlns="http://www.w3.org/2000/svg" x="289.4" y="183" width="55" height="22.8" class="c2"/><path xmlns="http://www.w3.org/2000/svg" d="M300.8,42.2v22.8h-37.3c-1.3,0-2.3,1-2.3,2.3v64.8h-22.8v-64.8c0-13.9,11.2-25.1,25.1-25.1,0,0,37.3,0,37.3,0Z" class="c2"/><path xmlns="http://www.w3.org/2000/svg" d="M328.5,91.6c-21.6,0-39.1-17.6-39.1-39.1s17.6-39.1,39.1-39.1,39.1,17.6,39.1,39.1-17.6,39.1-39.1,39.1ZM328.5,36.2c-9,0-16.4,7.3-16.4,16.4s7.3,16.4,16.4,16.4,16.4-7.3,16.4-16.4-7.3-16.4-16.4-16.4Z" class="c1"/><path xmlns="http://www.w3.org/2000/svg" d="M300.8,355.9v-22.8h-37.3c-1.3,0-2.3-1-2.3-2.3v-64.8h-22.8v64.8c0,13.9,11.2,25.1,25.1,25.1h37.3Z" class="c2"/><path xmlns="http://www.w3.org/2000/svg" d="M328.5,306.5c-21.6,0-39.1,17.6-39.1,39.1s17.6,39.1,39.1,39.1,39.1-17.6,39.1-39.1-17.6-39.1-39.1-39.1ZM328.5,362c-9,0-16.4-7.3-16.4-16.4s7.3-16.4,16.4-16.4,16.4,7.3,16.4,16.4-7.3,16.4-16.4,16.4Z" class="c1"/><path xmlns="http://www.w3.org/2000/svg" d="M360.9,233.5c-21.6,0-39.1-17.6-39.1-39.1s17.6-39.1,39.1-39.1,39.1,17.6,39.1,39.1-17.6,39.1-39.1,39.1ZM360.9,178c-9,0-16.4,7.3-16.4,16.4s7.3,16.4,16.4,16.4,16.4-7.3,16.4-16.4-7.3-16.4-16.4-16.4Z" class="c1"/><path xmlns="http://www.w3.org/2000/svg" d="M264.9,132.1h-75.2v133.9h75.2c14,0,25.3-11.3,25.3-25.3v-83.4c0-14-11.3-25.3-25.3-25.3h0ZM267.3,240.8c0,1.3-1.1,2.4-2.4,2.4h-65.9v-88.3h65.9c1.3,0,2.4,1.1,2.4,2.4v83.4h0Z" class="c1"/><rect xmlns="http://www.w3.org/2000/svg" x="21.4" y="132.6" width="178.6" height="22.8" class="c2"/><rect xmlns="http://www.w3.org/2000/svg" x="18.6" y="244.7" width="181.4" height="22.8" class="c2"/><path xmlns="http://www.w3.org/2000/svg" d="M211.4,400h-14.6C88.6,398.6,0,308.9,0,200S89.7,0,200,0h11.4v399.8h-.1ZM188.6,23.3C96.2,29.2,23,106.2,23,200s73.5,170.8,165.6,176.8V23.3Z" class="c2"/><path xmlns="http://www.w3.org/2000/svg" d="M200,400h-3.1c-40-2-74.8-41.5-93.1-105.8-8.2-28.6-12.5-61.2-12.5-94.1s4.3-65,12.3-93.7C122.2,40.8,159.2.2,200,.2v22.8c-29.7,0-58.9,35.1-74.4,89.6-7.5,26.6-11.4,56.9-11.4,87.4s4,61.2,11.6,87.8c15.3,53.6,43,87.8,72.3,89.2h1.9v22.9Z" class="c2"/><rect xmlns="http://www.w3.org/2000/svg" x="188.6" y="11.5" width="22.8" height="377" class="c2"/></svg>
