<svg xmlns="http://www.w3.org/2000/svg" viewBox="0 0 40 40" width="40" height="40"><defs><style>.c1{fill:#30ba78}.c2{fill:#0c322c}</style></defs><rect xmlns="http://www.w3.org/2000/svg" x="18" y="8" width="4" height="2" class="c1"/><rect xmlns="http://www.w3.org/2000/svg" x="18" y="12" width="4" height="2" class="c1"/><rect xmlns="http://www.w3.org/2000/svg" x="18" y="16" width="2" height="12" class="c2"/><polygon xmlns="http://www.w3.org/2000/svg" points="33 36 7 36 7 31 9 31 9 34 31 34 31 31 33 31 33 36" class="c1"/><rect xmlns="http://www.w3.org/2000/svg" x="19" y="31" width="2" height="4" class="c1"/><path xmlns="http://www.w3.org/2000/svg" d="M12,32H4V4h8v28ZM6,30h4V6h-4v24Z" class="c2"/><path xmlns="http://www.w3.org/2000/svg" d="M36,32h-8V4h8v28ZM30,30h4V6h-4v24Z" class="c2"/><path xmlns="http://www.w3.org/2000/svg" d="M26,32h-12V4h12v28ZM16,30h8V6h-8v24Z" class="c2"/></svg>
