<svg xmlns="http://www.w3.org/2000/svg" viewBox="0 0 40 40" width="40" height="40"><defs><style>.c1{fill:#30ba78}.c2{fill:#0c322c}</style></defs><path xmlns="http://www.w3.org/2000/svg" d="M19,34h-1v-12H6v-1c0-7.17,5.83-13,13-13s13,5.83,13,13-5.83,13-13,13ZM8.04,20h11.96v11.96c5.6-.51,10-5.23,10-10.96,0-6.07-4.93-11-11-11-5.73,0-10.45,4.4-10.96,10Z" class="c2"/><path xmlns="http://www.w3.org/2000/svg" d="M16.01,38h-1c-7.17,0-13-5.83-13-13v-1h14v14ZM4.06,26c.48,5.27,4.69,9.48,9.96,9.96v-9.96H4.06Z" class="c1"/><polygon xmlns="http://www.w3.org/2000/svg" points="22.82 16.57 21.18 15.43 28.48 5 38 5 38 7 29.52 7 22.82 16.57" class="c1"/><rect xmlns="http://www.w3.org/2000/svg" x="30" y="9" width="8" height="2" class="c1"/><rect xmlns="http://www.w3.org/2000/svg" x="33" y="13" width="5" height="2" class="c1"/></svg>
