<svg xmlns="http://www.w3.org/2000/svg" viewBox="0 0 400 400" width="400" height="400"><defs><style>.c1{fill:#30ba78}.c2{fill:#0c322c}</style></defs><!-- Generator: Adobe Illustrator 29.5.1, SVG Export Plug-In . SVG Version: 2.1.0 Build 141)  --><rect xmlns="http://www.w3.org/2000/svg" x="112" y="208.7" width="22.9" height="44.2" class="c2"/><rect xmlns="http://www.w3.org/2000/svg" x="162.2" y="167.3" width="22.9" height="85.5" class="c2"/><rect xmlns="http://www.w3.org/2000/svg" x="212.4" y="128.6" width="22.9" height="124.2" class="c2"/><rect xmlns="http://www.w3.org/2000/svg" x="262.7" y="56.7" width="22.9" height="196.1" class="c2"/><polygon xmlns="http://www.w3.org/2000/svg" points="222.4 77.5 274.2 25.8 325.8 77.5 309.7 93.7 274.2 58.2 238.6 93.7 222.4 77.5" class="c1"/><path xmlns="http://www.w3.org/2000/svg" d="M150.8,399.9v-32.4l-.8-.2c-11.4-3.3-22.6-7.9-33.1-13.6l-.7-.4-22.8,22.8-69.4-69.4,22.8-22.8-.4-.7c-5.6-10.2-10.1-21.4-13.6-33.1l-.2-.8H0v-98.2h32.4l.2-.8c3.5-11.7,8.1-22.9,13.6-33.1l.4-.7-22.8-22.8L93.4,24.1l22.8,22.8.7-.4c10.2-5.6,21.4-10.1,33.1-13.6l.8-.2V0h60.9v23.2h-37.7v27.2l-8.8,2c-16.1,3.8-31,10-44.6,18.5l-7.7,4.8-19.3-19.3-37,37,19.3,19.3-4.8,7.7c-8.4,13.5-14.6,28.5-18.5,44.6l-2,8.8h-27.2v52.5h27.2l2,8.8c3.6,15.8,9.8,30.7,18.5,44.6l4.8,7.7-19.3,19.3,37,37,19.3-19.3,7.7,4.8c13.5,8.4,28.5,14.6,44.6,18.5l8.8,2v27.2h52.5v-27.2l8.8-2c16.1-3.8,31-10,44.6-18.5l7.7-4.8,19.3,19.3,37-37-19.3-19.3,4.8-7.7c8.5-13.8,14.8-28.8,18.5-44.6l2-8.8h27.2v-62.8h22.8v85.7h-32.4l-.2.8c-3.5,11.7-8.1,22.9-13.6,33.1l-.4.7,22.8,22.8-69.4,69.4-22.8-22.8-.7.4c-10.2,5.6-21.4,10.1-33.1,13.6l-.8.2v32.4h-98.3Z" class="c2"/><rect xmlns="http://www.w3.org/2000/svg" x="112" y="270.7" width="173.5" height="22.9" class="c1"/></svg>
