<svg xmlns="http://www.w3.org/2000/svg" viewBox="0 0 400 400" width="400" height="400"><defs><style>.c1{fill:#30ba78}.c2{fill:#0c322c}</style></defs><path xmlns="http://www.w3.org/2000/svg" d="m 83.330078,34.869141 v 90.841799 h 16 V 50.869141 H 253.86914 v 25.980468 h 16 V 34.869141 Z" class="c1"/><path xmlns="http://www.w3.org/2000/svg" d="m 119.31055,69.580078 v 57.708982 h 16 V 85.580078 h 155.50976 v 77.269532 h 16 V 69.580078 Z" class="c1"/><path xmlns="http://www.w3.org/2000/svg" d="m 47.369141,119.59961 v 37.41992 167.2207 H 156.64062 v -16 H 63.369141 v -151.2207 -21.41992 h 81.558589 l 24.35938,29.41992 H 323.75 v 20.4707 h 16 v -36.4707 H 176.8125 l -24.35938,-29.41992 z" class="c2"/><path xmlns="http://www.w3.org/2000/svg" d="m 265.0293,230.92969 c -25.63619,0 -46.58985,20.95365 -46.58985,46.58984 0,25.63619 20.95366,46.58984 46.58985,46.58984 25.63619,0 46.58984,-20.95365 46.58984,-46.58984 0,-25.63619 -20.95365,-46.58984 -46.58984,-46.58984 z m 0,16 c 16.98914,0 30.58984,13.60069 30.58984,30.58984 0,16.98915 -13.6007,30.58984 -30.58984,30.58984 -16.98915,0 -30.58985,-13.60069 -30.58985,-30.58984 0,-16.98915 13.6007,-30.58984 30.58985,-30.58984 z" class="c1"/><path xmlns="http://www.w3.org/2000/svg" d="m 240,189.91992 v 16 c -2.71507,0.94793 -5.34718,2.03559 -7.91406,3.27344 l -11.30664,-11.30664 -35.39258,35.39258 11.30664,11.30664 c -1.23735,2.56597 -2.32315,5.19984 -3.27149,7.91406 h -16.00195 v 50.05078 h 16.00195 c 0.94774,2.71434 2.03204,5.34783 3.26954,7.91406 l -11.30469,11.30469 35.39258,35.39453 11.30664,-11.30664 c 2.56583,1.23726 5.2,2.32126 7.91406,3.26953 v 16.00391 h 50.05078 v -16.00195 c 2.71403,-0.94762 5.34615,-2.03417 7.91211,-3.27149 l 11.30664,11.30664 35.39453,-35.39453 -11.30664,-11.30664 c 1.23696,-2.56531 2.32143,-5.19863 3.26953,-7.91211 h 16.00391 V 252.5 h -16.00195 c -0.94787,-2.71484 -2.03375,-5.34738 -3.27149,-7.91406 l 11.30664,-11.30664 -35.39453,-35.39258 -11.30664,11.30664 c -2.56546,-1.23705 -5.19847,-2.32333 -7.91211,-3.27149 v -16.00195 z m 16,16 h 18.05078 v 11.93555 l 5.99805,1.55078 c 5.50507,1.42266 10.67446,3.58025 15.44726,6.39453 l 5.33789,3.14844 8.43555,-8.43555 12.76758,12.76563 -8.43945,8.43945 3.15429,5.33984 c 2.80884,4.75478 4.9694,9.93628 6.39258,15.44336 l 1.55078,5.99805 h 11.93555 v 18.05078 h -11.93555 l -1.55078,5.99805 c -1.42266,5.50507 -3.5822,10.67446 -6.39648,15.44726 l -3.14649,5.33789 8.43555,8.43555 -12.76758,12.76563 -8.4375,-8.4375 -5.3418,3.15429 c -4.75477,2.80884 -9.93432,4.9694 -15.4414,6.39258 l -5.99805,1.55078 v 11.93555 H 256 v -11.93555 l -5.99805,-1.55078 c -5.50507,-1.42266 -10.67641,-3.5822 -15.44922,-6.39648 l -5.33789,-3.14649 -8.43554,8.43555 -12.76563,-12.76563 8.43945,-8.43945 -3.15429,-5.3418 c -2.80884,-4.75477 -4.9694,-9.93432 -6.39258,-15.4414 l -1.55078,-5.99805 H 193.41992 V 268.5 h 11.93555 l 1.55078,-5.99805 c 1.42266,-5.50507 3.58025,-10.67641 6.39453,-15.44922 l 3.14844,-5.33789 -8.43555,-8.43554 12.76563,-12.76563 8.43945,8.43945 5.33984,-3.15429 c 4.75478,-2.80884 9.93628,-4.9694 15.44336,-6.39258 L 256,217.85547 Z" class="c2"/></svg>
