<svg xmlns="http://www.w3.org/2000/svg" viewBox="0 0 40 40" width="40" height="40"><defs><style>.c1{fill:#30ba78}.c2{fill:#0c322c}</style></defs><path xmlns="http://www.w3.org/2000/svg" d="M 19 6 L 19 13.585938 L 15.707031 10.292969 L 14.292969 11.707031 L 20 17.414062 L 25.707031 11.707031 L 24.292969 10.292969 L 21 13.585938 L 21 6 L 19 6 z M 11.707031 14.292969 L 10.292969 15.707031 L 13.585938 19 L 6 19 L 6 21 L 13.585938 21 L 10.292969 24.292969 L 11.707031 25.707031 L 17.414062 20 L 11.707031 14.292969 z M 28.292969 14.292969 L 22.585938 20 L 28.292969 25.707031 L 29.707031 24.292969 L 26.414062 21 L 34 21 L 34 19 L 26.414062 19 L 29.707031 15.707031 L 28.292969 14.292969 z M 20 22.585938 L 14.292969 28.292969 L 15.707031 29.707031 L 19 26.414062 L 19 34 L 21 34 L 21 26.414062 L 24.292969 29.707031 L 25.707031 28.292969 L 20 22.585938 z " class="c2"/><path xmlns="http://www.w3.org/2000/svg" d="m 20,1.8847656 c -9.931212,0 -18,8.1015938 -18,18.0625004 0,9.960906 8.068788,18.060546 18,18.060546 9.931212,0 18,-8.09964 18,-18.060546 C 38,9.9863594 29.931212,1.8847656 20,1.8847656 Z m 0,2 c 8.846469,0 16,7.1786254 16,16.0625004 0,8.883874 -7.153531,16.060546 -16,16.060546 -8.846469,0 -16,-7.176672 -16,-16.060546 C 4,11.063391 11.153531,3.8847656 20,3.8847656 Z" class="c1"/></svg>
