<svg xmlns="http://www.w3.org/2000/svg" viewBox="0 0 40 40" width="40" height="40"><defs><style>.c1{fill:#30ba78}.c2{fill:#0c322c}</style></defs><polygon xmlns="http://www.w3.org/2000/svg" points="26 36 14 36 14 34 24 34 24 32 18.15 32 15.8 17.09 17.77 16.78 19.85 30 26 30 26 36" class="c2"/><path xmlns="http://www.w3.org/2000/svg" d="M14,32v-3.78c-3.1-2.02-5-5.5-5-9.22,0-6.07,4.93-11,11-11s11,4.93,11,11c0,3.49-1.6,6.7-4.4,8.8l-.27.2h-5.42l.88-11.14,1.99.16-.71,8.98h2.57c2.13-1.72,3.34-4.25,3.34-7,0-4.96-4.04-9-9-9s-9,4.04-9,9c0,3.2,1.72,6.19,4.5,7.8l.5.29v4.92s-2,0-2,0Z" class="c1"/><rect xmlns="http://www.w3.org/2000/svg" x="19" y="3" width="2" height="3" class="c2"/><rect xmlns="http://www.w3.org/2000/svg" x="33.04" y="18.95" width="3" height="2" class="c2"/><rect xmlns="http://www.w3.org/2000/svg" x="4.04" y="18.95" width="3" height="2" class="c2"/><rect xmlns="http://www.w3.org/2000/svg" x="30.13" y="28.36" width="2" height="5.39" transform="translate(-12.84 31.11) rotate(-45)" class="c1"/><rect xmlns="http://www.w3.org/2000/svg" x="7.94" y="6.17" width="2" height="5.38" transform="translate(-3.65 8.92) rotate(-45)" class="c1"/><rect xmlns="http://www.w3.org/2000/svg" x="28.45" y="7.88" width="5.33" height="2" transform="translate(2.83 24.6) rotate(-45)" class="c1"/><rect xmlns="http://www.w3.org/2000/svg" x="6.2" y="30.07" width="5.44" height="2" transform="translate(-19.36 15.41) rotate(-45)" class="c1"/></svg>
