<svg xmlns="http://www.w3.org/2000/svg" viewBox="0 0 400 400" width="400" height="400"><defs><style>.c1{fill:#30ba78}.c2{fill:#0c322c}</style></defs><rect xmlns="http://www.w3.org/2000/svg" x="318.85" y="0" width="16.27" height="15.98" class="c1"/><rect xmlns="http://www.w3.org/2000/svg" x="318.85" y="320.32" width="16.27" height="15.98" class="c1"/><rect xmlns="http://www.w3.org/2000/svg" x="318.85" y="63.7" width="16.27" height="15.98" fill="#efefef"/><rect xmlns="http://www.w3.org/2000/svg" x="318.85" y="384.02" width="16.27" height="15.98" fill="#efefef"/><rect xmlns="http://www.w3.org/2000/svg" x="318.85" y="191.1" width="16.27" height="15.98" class="c1"/><rect xmlns="http://www.w3.org/2000/svg" x="318.85" y="256.62" width="16.27" height="15.98" class="c1"/><rect xmlns="http://www.w3.org/2000/svg" x="318.85" y="129.95" width="16.27" height="15.98" class="c1"/><rect xmlns="http://www.w3.org/2000/svg" x="1.38" y="0" width="16.27" height="15.98" class="c1"/><rect xmlns="http://www.w3.org/2000/svg" x="1.38" y="320.32" width="16.27" height="15.98" class="c1"/><rect xmlns="http://www.w3.org/2000/svg" x="1.38" y="63.7" width="16.27" height="15.98" class="c2"/><rect xmlns="http://www.w3.org/2000/svg" x="1.38" y="384.02" width="16.27" height="15.98" class="c2"/><rect xmlns="http://www.w3.org/2000/svg" x="1.38" y="191.1" width="16.27" height="15.98" fill="#efefef"/><rect xmlns="http://www.w3.org/2000/svg" x="1.38" y="256.62" width="16.27" height="15.98" class="c1"/><rect xmlns="http://www.w3.org/2000/svg" x="1.38" y="129.95" width="16.27" height="15.98" class="c1"/><rect xmlns="http://www.w3.org/2000/svg" x="255.36" y="0" width="16.27" height="15.98" class="c2"/><rect xmlns="http://www.w3.org/2000/svg" x="255.36" y="320.32" width="16.27" height="15.98" class="c2"/><rect xmlns="http://www.w3.org/2000/svg" x="255.36" y="63.7" width="16.27" height="15.98" class="c1"/><rect xmlns="http://www.w3.org/2000/svg" x="255.36" y="384.02" width="16.27" height="15.98" class="c1"/><rect xmlns="http://www.w3.org/2000/svg" x="255.36" y="191.1" width="16.27" height="15.98" class="c1"/><rect xmlns="http://www.w3.org/2000/svg" x="255.36" y="256.62" width="16.27" height="15.98" class="c2"/><rect xmlns="http://www.w3.org/2000/svg" x="255.36" y="129.95" width="16.27" height="15.98" class="c1"/><rect xmlns="http://www.w3.org/2000/svg" x="191.87" y="0" width="16.27" height="15.98" class="c1"/><rect xmlns="http://www.w3.org/2000/svg" x="191.87" y="320.32" width="16.27" height="15.98" class="c1"/><rect xmlns="http://www.w3.org/2000/svg" x="191.87" y="63.7" width="16.27" height="15.98" class="c2"/><rect xmlns="http://www.w3.org/2000/svg" x="191.87" y="384.02" width="16.27" height="15.98" class="c2"/><rect xmlns="http://www.w3.org/2000/svg" x="191.87" y="191.1" width="16.27" height="15.98" class="c1"/><rect xmlns="http://www.w3.org/2000/svg" x="191.87" y="256.62" width="16.27" height="15.98" class="c1"/><rect xmlns="http://www.w3.org/2000/svg" x="191.86" y="129.95" width="16.27" height="15.98" class="c1"/><rect xmlns="http://www.w3.org/2000/svg" x="128.37" y="0" width="16.27" height="15.98" class="c1"/><rect xmlns="http://www.w3.org/2000/svg" x="128.37" y="320.32" width="16.27" height="15.98" class="c1"/><rect xmlns="http://www.w3.org/2000/svg" x="128.37" y="63.7" width="16.27" height="15.98" class="c1"/><rect xmlns="http://www.w3.org/2000/svg" x="128.37" y="384.02" width="16.27" height="15.98" class="c1"/><rect xmlns="http://www.w3.org/2000/svg" x="128.37" y="191.1" width="16.27" height="15.98" class="c1"/><rect xmlns="http://www.w3.org/2000/svg" x="128.37" y="256.62" width="16.27" height="15.98" class="c1"/><rect xmlns="http://www.w3.org/2000/svg" x="128.37" y="129.95" width="16.27" height="15.98" class="c1"/><rect xmlns="http://www.w3.org/2000/svg" x="64.88" y="0" width="16.27" height="15.98" class="c1"/><rect xmlns="http://www.w3.org/2000/svg" x="64.88" y="320.32" width="16.27" height="15.98" class="c1"/><rect xmlns="http://www.w3.org/2000/svg" x="64.88" y="63.7" width="16.27" height="15.98" class="c1"/><rect xmlns="http://www.w3.org/2000/svg" x="64.88" y="384.02" width="16.27" height="15.98" class="c1"/><rect xmlns="http://www.w3.org/2000/svg" x="64.88" y="191.1" width="16.27" height="15.98" class="c1"/><rect xmlns="http://www.w3.org/2000/svg" x="64.88" y="256.62" width="16.27" height="15.98" class="c1"/><rect xmlns="http://www.w3.org/2000/svg" x="64.88" y="129.95" width="16.27" height="15.98" fill="#efefef"/><rect xmlns="http://www.w3.org/2000/svg" x="382.35" y="0" width="16.27" height="15.98" class="c1"/><rect xmlns="http://www.w3.org/2000/svg" x="382.35" y="320.32" width="16.27" height="15.98" class="c1"/><rect xmlns="http://www.w3.org/2000/svg" x="382.35" y="63.7" width="16.27" height="15.98" class="c1"/><rect xmlns="http://www.w3.org/2000/svg" x="382.35" y="384.02" width="16.27" height="15.98" class="c1"/><rect xmlns="http://www.w3.org/2000/svg" x="382.35" y="191.1" width="16.27" height="15.98" class="c1"/><rect xmlns="http://www.w3.org/2000/svg" x="382.35" y="256.62" width="16.27" height="15.98" class="c1"/><rect xmlns="http://www.w3.org/2000/svg" x="382.35" y="129.95" width="16.27" height="15.98" fill="#efefef"/></svg>
