<svg xmlns="http://www.w3.org/2000/svg" viewBox="0 0 40 40" width="40" height="40"><defs><style>.c1{fill:#30ba78}.c2{fill:#0c322c}</style></defs><path xmlns="http://www.w3.org/2000/svg" d="M 33,12.585938 30.585937,15 H 26 v 9.414062 l 7,7 7,-7 V 15 H 35.414062 Z M 33,15.414063 34.585937,17 H 38 v 6.585937 l -5,5 -5,-5 V 17 h 3.414062 z" class="c1"/><path xmlns="http://www.w3.org/2000/svg" d="m 36.056641,18.796875 -3.324219,3.337891 -1.291016,-1.291016 -1.414062,1.414062 2.708984,2.707032 4.736328,-4.757813 z" class="c2"/><path xmlns="http://www.w3.org/2000/svg" d="m 7,32 c -2.1972944,0 -4,1.802706 -4,4 0,2.197294 1.8027056,4 4,4 2.1972944,0 4,-1.802706 4,-4 0,-2.197294 -1.8027056,-4 -4,-4 z m 0,2 c 1.1164141,0 2,0.883586 2,2 0,1.116414 -0.8835859,2 -2,2 -1.1164141,0 -2,-0.883586 -2,-2 0,-1.116414 0.8835859,-2 2,-2 z" class="c2"/><path xmlns="http://www.w3.org/2000/svg" d="m 20,32 c -2.197294,0 -4,1.802706 -4,4 0,2.197294 1.802706,4 4,4 2.197294,0 4,-1.802706 4,-4 0,-2.197294 -1.802706,-4 -4,-4 z m 0,2 c 1.116414,0 2,0.883586 2,2 0,1.116414 -0.883586,2 -2,2 -1.116414,0 -2,-0.883586 -2,-2 0,-1.116414 0.883586,-2 2,-2 z" class="c2"/><path xmlns="http://www.w3.org/2000/svg" d="m 33,32 c -2.197294,0 -4,1.802706 -4,4 0,2.197294 1.802706,4 4,4 2.197294,0 4,-1.802706 4,-4 0,-2.197294 -1.802706,-4 -4,-4 z m 0,2 c 1.116414,0 2,0.883586 2,2 0,1.116414 -0.883586,2 -2,2 -1.116414,0 -2,-0.883586 -2,-2 0,-1.116414 0.883586,-2 2,-2 z" class="c2"/><path xmlns="http://www.w3.org/2000/svg" d="m 10,35 v 2 h 7 v -2 z" class="c2"/><path xmlns="http://www.w3.org/2000/svg" d="m 23,35 v 2 h 7 v -2 z" class="c2"/><path xmlns="http://www.w3.org/2000/svg" d="M 20,0.5859375 17.585937,3 H 13 v 9.414063 l 7,6.999999 7,-6.999999 V 3 H 22.414062 Z M 20,3.4140625 21.585937,5 H 25 v 6.585938 l -5,4.999999 -5,-4.999999 V 5 h 3.414062 z" class="c1"/><path xmlns="http://www.w3.org/2000/svg" d="m 23.056641,6.796875 -3.324219,3.337891 -1.291016,-1.291016 -1.414062,1.414063 2.708984,2.707031 4.736328,-4.7578127 z" class="c2"/><path xmlns="http://www.w3.org/2000/svg" d="M 7,12.585938 4.5859375,15 H 0 v 9.414062 l 7,7 7,-7 V 15 H 9.4140625 Z M 7,15.414063 8.5859375,17 H 12 v 6.585937 l -5,5 -5,-5 V 17 h 3.4140625 z" class="c1"/><path xmlns="http://www.w3.org/2000/svg" d="M 10.056641,18.796875 6.7324219,22.134766 5.4414062,20.84375 4.0273437,22.257812 6.7363281,24.964844 11.472656,20.207031 Z" class="c2"/></svg>
