<svg xmlns="http://www.w3.org/2000/svg" viewBox="0 0 40 40" width="40" height="40"><defs><style>.c1{fill:#30ba78}.c2{fill:#0c322c}</style></defs><path xmlns="http://www.w3.org/2000/svg" d="M7,36.87v-14.87H3v-12h4v-6h30v22.87l-6-4v9.13H14.3l-7.3,4.87ZM9,22v11.13l4.7-3.13h15.3v-8h-7v-2h7v-8H9v8h7v2h-7ZM31,20.47l4,2.67V6H9v4h22v10.46ZM5,20h2v-8h-2v8Z" class="c2"/><polygon xmlns="http://www.w3.org/2000/svg" points="24.26 25.68 19.59 21 24.26 16.32 25.68 17.74 22.41 21 25.68 24.26 24.26 25.68" class="c1"/><polygon xmlns="http://www.w3.org/2000/svg" points="13.68 25.68 12.26 24.26 15.53 21 12.26 17.74 13.68 16.32 18.36 21 13.68 25.68" class="c1"/></svg>
