<svg xmlns="http://www.w3.org/2000/svg" viewBox="0 0 40 40" width="40" height="40"><defs><style>.c1{fill:#30ba78}.c2{fill:#0c322c}</style></defs><path xmlns="http://www.w3.org/2000/svg" d="m 28,14 v 6 h 7.833984 V 18 H 30 v -2 h 3.964844 v -2 z" class="c2"/><path xmlns="http://www.w3.org/2000/svg" d="m 24,10 v 10 h 2 v -8 h 4.525391 c 2.301096,2.447223 4.964782,7.489271 5.332031,12 h -2.984375 v 2 H 38 V 25 C 38,19.306119 34.681975,13.267912 31.707031,10.292969 L 31.414062,10 Z M 0,22 v 4 H 5 V 24 H 2 v -2 z m 12.873047,2 v 2 h 12.253906 v -2 z" class="c1"/><path xmlns="http://www.w3.org/2000/svg" d="M 0,8 V 20 H 22 V 19 18 8 Z m 2,2 h 18 v 8 H 2 Z" class="c2"/><path xmlns="http://www.w3.org/2000/svg" d="m 29,21 c -2.749582,0 -5,2.250418 -5,5 0,2.749582 2.250418,5 5,5 2.749582,0 5,-2.250418 5,-5 0,-2.749582 -2.250418,-5 -5,-5 z m 0,2 c 1.668697,0 3,1.331303 3,3 0,1.668697 -1.331303,3 -3,3 -1.668697,0 -3,-1.331303 -3,-3 0,-1.668697 1.331303,-3 3,-3 z" class="c2"/><path xmlns="http://www.w3.org/2000/svg" d="m 9,21 c -2.7495823,0 -5,2.250418 -5,5 0,2.749582 2.2504177,5 5,5 2.749582,0 5,-2.250418 5,-5 0,-2.749582 -2.250418,-5 -5,-5 z m 0,2 c 1.668697,0 3,1.331303 3,3 0,1.668697 -1.331303,3 -3,3 -1.6686967,0 -3,-1.331303 -3,-3 0,-1.668697 1.3313033,-3 3,-3 z" class="c2"/></svg>
