<svg xmlns="http://www.w3.org/2000/svg" viewBox="0 0 40 40" width="40" height="40"><defs><style>.c1{fill:#30ba78}.c2{fill:#0c322c}</style></defs><path xmlns="http://www.w3.org/2000/svg" d="M21,21h-6c-1.65,0-3-1.35-3-3v-3h2v3c0,.55.45,1,1,1h6c.55,0,1-.45,1-1v-3h2v3c0,1.65-1.35,3-3,3Z" class="c1"/><path xmlns="http://www.w3.org/2000/svg" d="M14,11.36h-2v-5.36c0-1.65,1.35-3,3-3h6c1.65,0,3,1.35,3,3v5.36h-2v-5.36c0-.55-.45-1-1-1h-6c-.55,0-1,.45-1,1v5.36Z" class="c1"/><path xmlns="http://www.w3.org/2000/svg" d="M24.81,36H3.86l3.26-25h22.85l-5.16,25ZM6.14,34h17.05l4.33-21H8.88l-2.74,21Z" class="c2"/><polygon xmlns="http://www.w3.org/2000/svg" points="35.14 36 25 36 29.2 30.4 30.8 31.6 29 34 32.86 34 30.12 13 27 13 27 11 31.88 11 35.14 36" class="c2"/></svg>
