<svg xmlns="http://www.w3.org/2000/svg" viewBox="0 0 40 40" width="40" height="40"><defs><style>.c1{fill:#30ba78}.c2{fill:#0c322c}</style></defs><rect xmlns="http://www.w3.org/2000/svg" x="31" y="13" width="2" height="2" class="c1"/><rect xmlns="http://www.w3.org/2000/svg" x="19" y="13" width="2" height="2" class="c1"/><rect xmlns="http://www.w3.org/2000/svg" x="24" y="10" width="4" height="2" class="c1"/><rect xmlns="http://www.w3.org/2000/svg" x="7" y="13" width="2" height="2" class="c1"/><rect xmlns="http://www.w3.org/2000/svg" x="12" y="10" width="4" height="2" class="c1"/><path xmlns="http://www.w3.org/2000/svg" d="M37,36h-10V8h10v28ZM29,34h6V10h-6v24Z" class="c2"/><rect xmlns="http://www.w3.org/2000/svg" x="31" y="17" width="2" height="6" class="c2"/><path xmlns="http://www.w3.org/2000/svg" d="M25,36h-10V8h10v28ZM17,34h6V10h-6v24Z" class="c2"/><rect xmlns="http://www.w3.org/2000/svg" x="19" y="17" width="2" height="6" class="c2"/><path xmlns="http://www.w3.org/2000/svg" d="M13,36H3V8h10v28ZM5,34h6V10h-6v24Z" class="c2"/><rect xmlns="http://www.w3.org/2000/svg" x="7" y="17" width="2" height="6" class="c2"/><rect xmlns="http://www.w3.org/2000/svg" x="5" y="5" width="2" height="4" class="c2"/><rect xmlns="http://www.w3.org/2000/svg" x="17" y="5" width="2" height="4" class="c2"/><rect xmlns="http://www.w3.org/2000/svg" x="29" y="5" width="2" height="4" class="c2"/></svg>
