<svg xmlns="http://www.w3.org/2000/svg" viewBox="0 0 40 40" width="40" height="40"><defs><style>.c1{fill:#30ba78}.c2{fill:#0c322c}</style></defs><path xmlns="http://www.w3.org/2000/svg" d="M21,37H6c-1.65,0-3-1.35-3-3V6c0-1.65,1.35-3,3-3h18v2H6c-.55,0-1,.45-1,1v28c0,.55.45,1,1,1h15c.55,0,1-.45,1-1v-4h2v4c0,1.65-1.35,3-3,3Z" class="c2"/><path xmlns="http://www.w3.org/2000/svg" d="M33.72,32.7l-1.44-1.39,1.31-1.35-1.43-1.67.36-.62c.54-.91.92-1.86,1.17-2.91l.18-.77h2.12v-4h-2.1l-.2-.74c-.27-.99-.66-1.94-1.18-2.81l-.36-.61,1.48-1.78-2.69-2.69-1.72,1.53-.63-.37c-.89-.52-1.85-.92-2.85-1.18l-.75-.19v-2.17h-4.03v2.17l-.75.19c-1,.26-1.96.65-2.85,1.18l-.63.37-1.72-1.53-2.69,2.69,1.48,1.78-.36.61c-.52.88-.92,1.82-1.18,2.81l-.2.74h-2.1v4h2.12l.18.77c.25,1.04.64,1.99,1.17,2.91l.38.64-1.47,1.6,1.32,1.32-1.41,1.41-2.68-2.68,1.78-1.94c-.34-.65-.61-1.33-.83-2.03h-2.57v-8h2.59c.22-.67.5-1.32.82-1.95l-1.76-2.11,5.31-5.31,2.05,1.83c.63-.33,1.29-.6,1.97-.82v-2.64h8.03v2.64c.68.22,1.34.49,1.97.82l2.05-1.83,5.31,5.31-1.76,2.11c.32.63.6,1.28.82,1.95h2.59v8h-2.57c-.22.72-.5,1.4-.84,2.06l1.7,1.98-2.58,2.65Z" class="c1"/><rect xmlns="http://www.w3.org/2000/svg" x="22" y="14" width="2" height="3" class="c1"/><rect xmlns="http://www.w3.org/2000/svg" x="15" y="21" width="3" height="2" class="c1"/><rect xmlns="http://www.w3.org/2000/svg" x="28" y="21" width="3" height="2" class="c1"/><rect xmlns="http://www.w3.org/2000/svg" x="26.1" y="16.4" width="3" height="2" transform="translate(-4.22 24.61) rotate(-45)" class="c1"/><rect xmlns="http://www.w3.org/2000/svg" x="17.4" y="15.9" width="2" height="3" transform="translate(-6.92 18.11) rotate(-45.01)" class="c1"/><path xmlns="http://www.w3.org/2000/svg" d="M17.35,29.07l-.71-.71c-3.51-3.51-3.51-9.21,0-12.72,3.51-3.51,9.21-3.51,12.72,0,3.51,3.51,3.51,9.21,0,12.72l-.71.71-2.82-2.82,1.41-1.41,1.36,1.36c2.05-2.74,1.83-6.64-.66-9.13-2.73-2.73-7.16-2.73-9.89,0-2.49,2.49-2.71,6.39-.66,9.13l6.89-6.89,1.41,1.41-8.36,8.36Z" class="c1"/><path xmlns="http://www.w3.org/2000/svg" d="M17.35,29.07l8.36-8.36-1.41-1.41-8.32,8.32c.3.39.79.9,1.37,1.45Z" class="c2"/></svg>
