<svg xmlns="http://www.w3.org/2000/svg" viewBox="0 0 40 40" width="40" height="40"><defs><style>.c1{fill:#30ba78}.c2{fill:#0c322c}</style></defs><path xmlns="http://www.w3.org/2000/svg" d="m 6,7 v 2 h 8 V 7 Z m 10,0 v 2 h 8 V 7 Z M 6,11 v 2 h 8 v -2 z m 10,0 v 2 h 8 v -2 z" class="c1"/><path xmlns="http://www.w3.org/2000/svg" d="m 2,12 v 5 0.212891 L 6.3496094,27 H 32.554687 L 38.269531,17.855469 35.414062,15 H 4 v -3 z m 2.09375,5 H 34.585937 L 35.730469,18.144531 31.445312,25 H 7.6503906 Z" class="c2"/><path xmlns="http://www.w3.org/2000/svg" d="m 28,7 v 10 h 8.28125 l -2.5,-10 z m 2,2 h 2.21875 l 1.5,6 H 30 Z" class="c2"/><path xmlns="http://www.w3.org/2000/svg" d="M 8,28.294922 5,30.714844 2.6269531,28.800781 1.3730469,30.357422 5,33.285156 l 3,-2.419922 3,2.419922 3,-2.419922 3,2.419922 3,-2.419922 3,2.419922 3,-2.419922 3,2.419922 3,-2.419922 3,2.419922 3.626953,-2.927734 L 37.373047,28.800781 35,30.714844 l -3,-2.419922 -3,2.419922 -3,-2.419922 -3,2.419922 -3,-2.419922 -3,2.419922 -3,-2.419922 -3,2.419922 z" class="c1"/><path xmlns="http://www.w3.org/2000/svg" d="m 28,4 v 4 h 2 V 4 Z" class="c2"/><path xmlns="http://www.w3.org/2000/svg" d="m 14,20 v 2 h 4 v -2 z" class="c1"/><path xmlns="http://www.w3.org/2000/svg" d="m 8,20 v 2 h 4 v -2 z" class="c1"/></svg>
