<svg xmlns="http://www.w3.org/2000/svg" viewBox="0 0 40 40" width="40" height="40"><defs><style>.c1{fill:#30ba78}.c2{fill:#0c322c}</style></defs><path xmlns="http://www.w3.org/2000/svg" d="M 4 4 L 4 18 L 8 18 L 8 16 L 6 16 L 6 6 L 16 6 L 16 8 L 18 8 L 18 4 L 4 4 z M 32 22 L 32 24 L 34 24 L 34 34 L 24 34 L 24 32 L 22 32 L 22 36 L 36 36 L 36 22 L 32 22 z " class="c1"/><path xmlns="http://www.w3.org/2000/svg" d="M 22 4 L 22 10 L 16 10 L 16 16 L 10 16 L 10 22 L 4 22 L 4 36 L 18 36 L 18 30 L 24 30 L 24 24 L 30 24 L 30 18 L 36 18 L 36 4 L 22 4 z M 24 6 L 34 6 L 34 16 L 24 16 L 24 6 z M 18 12 L 22 12 L 22 18 L 28 18 L 28 22 L 18 22 L 18 12 z M 12 18 L 16 18 L 16 24 L 22 24 L 22 28 L 12 28 L 12 18 z M 6 24 L 10 24 L 10 30 L 16 30 L 16 34 L 6 34 L 6 24 z " class="c2"/></svg>
