<svg xmlns="http://www.w3.org/2000/svg" viewBox="0 0 40 40" width="40" height="40"><defs><style>.c1{fill:#30ba78}.c2{fill:#0c322c}</style></defs><path xmlns="http://www.w3.org/2000/svg" d="M 19 2 C 14.497278 2 10.422322 2.56175 7.3886719 3.5097656 C 5.8718469 3.9837734 4.613748 4.548341 3.6640625 5.25 C 2.714377 5.951659 2 6.877292 2 8 L 2 16 L 2 24 L 2 32 C 2 33.122708 2.714377 34.048341 3.6640625 34.75 C 4.613748 35.451659 5.8718469 36.016227 7.3886719 36.490234 C 10.422322 37.43825 14.497278 38 19 38 C 23.502722 38 27.577678 37.43825 30.611328 36.490234 C 32.128153 36.016227 33.386253 35.451659 34.335938 34.75 C 35.285623 34.048341 36 33.122708 36 32 L 36 24 L 36 16 L 36 8 C 36 6.877292 35.285624 5.951659 34.335938 5.25 C 33.386253 4.548341 32.128153 3.9837734 30.611328 3.5097656 C 27.577678 2.56175 23.502722 2 19 2 z M 19 4 C 23.333834 4 27.258414 4.5582934 30.015625 5.4199219 C 31.394231 5.8507361 32.478836 6.3626974 33.148438 6.8574219 C 33.818041 7.3521464 34 7.7419962 34 8 C 34 8.2580038 33.81804 8.6478536 33.148438 9.1425781 C 32.478835 9.6373026 31.394231 10.149264 30.015625 10.580078 C 27.603065 11.334004 24.296708 11.855773 20.604492 11.974414 C 20.077033 11.991363 19.541729 12 19 12 C 14.666166 12 10.741586 11.441707 7.984375 10.580078 C 6.6057695 10.149264 5.5211651 9.6373026 4.8515625 9.1425781 C 4.1819599 8.6478536 4 8.2580039 4 8 C 4 7.7419962 4.1819599 7.3521464 4.8515625 6.8574219 C 5.5211651 6.3626974 6.6057695 5.8507361 7.984375 5.4199219 C 10.741586 4.5582934 14.666166 4 19 4 z M 4 10.982813 C 4.9034757 11.577933 6.0437448 12.069945 7.3886719 12.490234 C 10.422322 13.43825 14.497278 14 19 14 C 23.502722 14 27.577678 13.43825 30.611328 12.490234 C 31.956255 12.069945 33.096525 11.577933 34 10.982813 L 34 16 C 34 16.258004 33.81804 16.647854 33.148438 17.142578 C 32.478836 17.637303 31.394231 18.149264 30.015625 18.580078 C 27.258414 19.441707 23.333834 20 19 20 C 14.666166 20 10.741586 19.441707 7.984375 18.580078 C 6.6057695 18.149264 5.5211651 17.637303 4.8515625 17.142578 C 4.1819599 16.647854 4 16.258004 4 16 L 4 10.982813 z M 4 18.982813 C 4.9034757 19.577933 6.0437448 20.069945 7.3886719 20.490234 C 10.422322 21.43825 14.497278 22 19 22 C 19.56284 22 20.118913 21.991235 20.667188 21.974023 C 24.505107 21.85354 27.956884 21.319748 30.611328 20.490234 C 31.956255 20.069945 33.096525 19.577933 34 18.982813 L 34 24 C 34 24.258004 33.81804 24.647854 33.148438 25.142578 C 32.478836 25.637303 31.394231 26.149264 30.015625 26.580078 C 27.258414 27.441707 23.333834 28 19 28 C 14.666166 28 10.741586 27.441707 7.984375 26.580078 C 6.6057695 26.149264 5.5211651 25.637303 4.8515625 25.142578 C 4.1819599 24.647854 4 24.258004 4 24 L 4 18.982813 z M 4 26.982813 C 4.9034757 27.577933 6.0437448 28.069945 7.3886719 28.490234 C 10.422322 29.43825 14.497278 30 19 30 C 19.56284 30 20.118913 29.991235 20.667188 29.974023 C 24.505107 29.85354 27.956884 29.319748 30.611328 28.490234 C 31.956255 28.069945 33.096525 27.577933 34 26.982813 L 34 32 C 34 32.258004 33.81804 32.647854 33.148438 33.142578 C 32.478836 33.637303 31.394231 34.149264 30.015625 34.580078 C 27.258414 35.441707 23.333834 36 19 36 C 14.666166 36 10.741586 35.441707 7.984375 34.580078 C 6.6057695 34.149264 5.5211651 33.637303 4.8515625 33.142578 C 4.1819599 32.647854 4 32.258004 4 32 L 4 26.982813 z " class="c2"/><path xmlns="http://www.w3.org/2000/svg" d="m 8,30.669922 v 2 c 1.7163662,0.486089 3.714229,0.862211 5.923828,1.08789 C 15.201488,33.888308 16.565558,34 18,34 V 32 C 16.669524,32 15.375525,31.895103 14.126953,31.767578 11.978752,31.54817 10.042934,31.187687 8.4511719,30.730469 h -0.00195 C 8.4566014,30.732577 8.1987921,30.669922 8,30.669922 Z M 7.9746094,22.90625 v 2 c 1.71672,0.486316 3.7135356,0.86214 5.9238286,1.087891 1.277659,0.130495 2.64173,0.242187 4.076171,0.242187 v -2 c -1.330476,0 -2.624474,-0.102944 -3.873046,-0.230469 -2.148202,-0.219408 -4.08402,-0.581844 -5.6757817,-1.039062 0.00738,0.0021 -0.2523798,-0.06055 -0.4511719,-0.06055 z M 31.276995,31.904119 A 1.2769948,1.2769948 0 0 1 30,33.181114 1.2769948,1.2769948 0 0 1 28.723005,31.904119 1.2769948,1.2769948 0 0 1 30,30.627125 a 1.2769948,1.2769948 0 0 1 1.276995,1.276994 z m 0,-7.894351 A 1.2769948,1.2769948 0 0 1 30,25.286762 1.2769948,1.2769948 0 0 1 28.723005,24.009768 1.2769948,1.2769948 0 0 1 30,22.732773 a 1.2769948,1.2769948 0 0 1 1.276995,1.276995 z m 0,-8.009768 A 1.2769948,1.2769948 0 0 1 30,17.276995 1.2769948,1.2769948 0 0 1 28.723005,16 1.2769948,1.2769948 0 0 1 30,14.723005 1.2769948,1.2769948 0 0 1 31.276995,16 Z M 8,14.660156 v 2 c 1.7163662,0.48609 3.714229,0.862211 5.923828,1.087891 1.27766,0.130495 2.64173,0.242187 4.076172,0.242187 v -2 c -1.330476,0 -2.624475,-0.104897 -3.873047,-0.232421 C 11.978752,15.538404 10.042934,15.177921 8.4511719,14.720703 8.4558305,14.722041 8.1985397,14.660156 8,14.660156 Z" class="c1"/></svg>
