<svg xmlns="http://www.w3.org/2000/svg" viewBox="0 0 40 40" width="40" height="40"><defs><style>.c1{fill:#30ba78}.c2{fill:#0c322c}</style></defs><polygon xmlns="http://www.w3.org/2000/svg" points="20 36 5 36 5 4 31 4 31 20 29 20 29 6 7 6 7 34 20 34 20 36" class="c2"/><polygon xmlns="http://www.w3.org/2000/svg" points="27 16 9 16 9 8 27 8 27 12 25 12 25 10 11 10 11 14 27 14 27 16" class="c2"/><rect xmlns="http://www.w3.org/2000/svg" x="9" y="18" width="4" height="2" class="c2"/><rect xmlns="http://www.w3.org/2000/svg" x="16" y="18" width="4" height="2" class="c2"/><rect xmlns="http://www.w3.org/2000/svg" x="23" y="18" width="4" height="2" class="c2"/><rect xmlns="http://www.w3.org/2000/svg" x="9" y="22" width="4" height="2" class="c2"/><rect xmlns="http://www.w3.org/2000/svg" x="16" y="22" width="4" height="2" class="c2"/><rect xmlns="http://www.w3.org/2000/svg" x="9" y="26" width="4" height="2" class="c2"/><rect xmlns="http://www.w3.org/2000/svg" x="16" y="26" width="4" height="2" class="c2"/><rect xmlns="http://www.w3.org/2000/svg" x="9" y="30" width="4" height="2" class="c2"/><rect xmlns="http://www.w3.org/2000/svg" x="16" y="30" width="4" height="2" class="c2"/><path xmlns="http://www.w3.org/2000/svg" d="M25,27c-1.1,0-2-.9-2-2s.9-2,2-2,2,.9,2,2-.9,2-2,2ZM25,25h0s0,0,0,0Z" class="c1"/><path xmlns="http://www.w3.org/2000/svg" d="M32.09,34.09c-1.1,0-2-.9-2-2s.9-2,2-2,2,.9,2,2-.9,2-2,2ZM32.09,32.09h0s0,0,0,0Z" class="c1"/><rect xmlns="http://www.w3.org/2000/svg" x="22.14" y="27.5" width="12.73" height="2" transform="translate(-11.81 28.5) rotate(-45)" class="c1"/></svg>
