<svg xmlns="http://www.w3.org/2000/svg" viewBox="0 0 40 40" width="40" height="40"><defs><style>.c1{fill:#30ba78}.c2{fill:#0c322c}</style></defs><path xmlns="http://www.w3.org/2000/svg" d="M37,23h-9.96v-2h7.96v-3.04c0-2.18-1.78-3.96-3.96-3.96h-1l-.04-1v-5c0-2.21-1.79-4-4-4h-11c-2.21,0-4,1.79-4,4v4h-2.04c-2.18,0-3.96,1.78-3.96,3.96v5.04h8v2H3v-7.04c0-3.29,2.67-5.96,5.96-5.96h.04v-2c0-3.31,2.69-6,6-6h11c3.31,0,6,2.69,6,6v4.08c2.85.47,5,2.93,5,5.88v5.04Z" class="c2"/><rect xmlns="http://www.w3.org/2000/svg" x="19" y="15" width="2" height="19" class="c1"/><polygon xmlns="http://www.w3.org/2000/svg" points="17 28 8 28 8 26 15 26 15 17 17 17 17 28" class="c1"/><polygon xmlns="http://www.w3.org/2000/svg" points="32 31 23 31 23 17 25 17 25 29 32 29 32 31" class="c1"/><rect xmlns="http://www.w3.org/2000/svg" x="4" y="26" width="2" height="2" class="c2"/><rect xmlns="http://www.w3.org/2000/svg" x="19" y="36" width="2" height="2" class="c2"/><rect xmlns="http://www.w3.org/2000/svg" x="34" y="29" width="2" height="2" class="c2"/></svg>
