<svg xmlns="http://www.w3.org/2000/svg" viewBox="0 0 40 40" width="40" height="40"><defs><style>.c1{fill:#30ba78}.c2{fill:#0c322c}</style></defs><polygon xmlns="http://www.w3.org/2000/svg" points="36 15 5 15 5 13 34 13 34 7 6 7 6 11 4 11 4 5 36 5 36 15" class="c2"/><path xmlns="http://www.w3.org/2000/svg" d="M36,36H4V13h32v23ZM6,34h28V15H6v19Z" class="c2"/><rect xmlns="http://www.w3.org/2000/svg" x="8" y="9" width="4" height="2" class="c1"/><rect xmlns="http://www.w3.org/2000/svg" x="14" y="9" width="4" height="2" class="c1"/><polygon xmlns="http://www.w3.org/2000/svg" points="13.29 28.71 8.59 24 13.29 19.29 14.71 20.71 11.41 24 14.71 27.29 13.29 28.71" class="c1"/><polygon xmlns="http://www.w3.org/2000/svg" points="26.38 28.71 24.97 27.29 28.26 24 24.97 20.71 26.38 19.29 31.09 24 26.38 28.71" class="c1"/><rect xmlns="http://www.w3.org/2000/svg" x="12.98" y="23.5" width="13.04" height="2" transform="translate(-11.64 27.79) rotate(-57.52)" class="c1"/></svg>
