<svg xmlns="http://www.w3.org/2000/svg" viewBox="0 0 40 40" width="40" height="40"><defs><style>.c1{fill:#30ba78}.c2{fill:#0c322c}</style></defs><rect xmlns="http://www.w3.org/2000/svg" x="5.75" y="21.9" width="5.03" height="2" transform="translate(-9.19 5.92) rotate(-25.95)" class="c1"/><polygon xmlns="http://www.w3.org/2000/svg" points="13.93 35.37 12.07 34.63 18.22 19.25 21.83 17.65 27.94 34.66 26.06 35.34 20.67 20.35 19.78 20.75 13.93 35.37" class="c2"/><path xmlns="http://www.w3.org/2000/svg" d="M10.45,24.32l-2.74-6.86,14.56-6.24,1.97-3.93,6.11-3.66,7.07,11.78-7.27,3.64-5.03-1.01-14.66,6.28ZM10.29,18.53l1.26,3.14,13.34-5.72,4.97.99,4.73-2.36-4.93-8.22-3.89,2.34-2.03,4.07-13.44,5.76Z" class="c2"/><polygon xmlns="http://www.w3.org/2000/svg" points="4 22.55 4 16 6 16 6 19.45 8.99 18.09 9.81 19.91 4 22.55" class="c2"/><rect xmlns="http://www.w3.org/2000/svg" x="3" y="15" width="4" height="2" class="c1"/><rect xmlns="http://www.w3.org/2000/svg" x="23.02" y="11.8" width="2" height="5.46" transform="translate(-3.9 11.57) rotate(-25.12)" class="c2"/><rect xmlns="http://www.w3.org/2000/svg" x="8" y="34" width="24" height="2" class="c1"/></svg>
