<svg xmlns="http://www.w3.org/2000/svg" viewBox="0 0 400 400" width="400" height="400"><defs><style>.c1{fill:#30ba78}.c2{fill:#0c322c}</style></defs><path xmlns="http://www.w3.org/2000/svg" d="M351.89,195.1c.04-.34,0-.67-.01-1.01,0-.41,0-.82-.06-1.22-.07-.37-.21-.71-.33-1.07-.1-.3-.14-.62-.28-.92-.03-.06-.07-.1-.1-.16-.15-.31-.37-.58-.57-.87-.24-.35-.46-.71-.75-1.01-.05-.06-.08-.13-.14-.19l-57.64-57.64s-.04-.02-.06-.03c-.81-.8-1.8-1.37-2.87-1.76-.11-.04-.21-.1-.33-.13-.74-.23-1.51-.38-2.31-.38H113.54c-.1,0-.2.04-.31.04-.38.01-.75.08-1.13.14-.25.05-.51.08-.75.15-.4.11-.77.28-1.14.46-.2.1-.41.17-.61.28-.36.21-.68.47-1,.74-.18.15-.38.27-.54.43-.02.02-.05.04-.08.06l-57.64,57.64c-.06.06-.08.13-.14.19-.29.31-.51.66-.75,1.01-.2.29-.41.56-.57.86-.03.06-.08.1-.1.16-.14.3-.18.61-.28.92-.12.36-.26.7-.32,1.06-.07.41-.06.82-.06,1.23,0,.33-.05.66-.01,1,.06.52.22,1.02.38,1.51.07.21.07.42.16.62,0,.02.02.03.03.05.24.57.58,1.09.96,1.6.08.11.13.26.22.37,0,0,0,.01,0,.02l144.1,172.91s.04.02.05.04c.16.19.4.33.58.5.4.38.8.74,1.27,1.03.12.07.19.19.31.26.12.07.25.09.37.15.16.08.32.13.48.19.01,0,.02,0,.04.01.24.1.46.21.71.28.73.22,1.47.35,2.22.35,0,0,0,0,0,0,0,0,0,0,0,0s0,0,0,0c0,0,0,0,0,0,.74,0,1.49-.14,2.22-.35.25-.07.47-.19.71-.28.01,0,.02,0,.03-.01.17-.07.32-.12.48-.19.12-.06.25-.08.37-.15.12-.07.2-.18.31-.26.47-.29.87-.65,1.27-1.03.18-.18.42-.31.58-.5.02-.02.04-.02.05-.04l144.1-172.91s0-.01,0-.02c.09-.11.14-.25.22-.37.37-.51.72-1.03.96-1.6,0-.02.02-.03.03-.05.08-.2.09-.42.16-.63.16-.5.32-.99.38-1.51ZM200,147.7l38.65,38.65h-77.31l38.65-38.65ZM200,342.27l-46.73-140.18h93.45l-46.73,140.18ZM288.61,149.86l36.5,36.5h-54.74l18.25-36.5ZM273.73,144.45l-18.25,36.5-36.5-36.5h54.74ZM181.01,144.45l-36.5,36.5-18.25-36.5h54.74ZM111.39,149.86l18.25,36.5h-54.74l36.5-36.5ZM72.69,202.09h64l42.66,127.99-106.66-127.99ZM220.64,330.08l42.66-127.99h64l-106.66,127.99Z" class="c2"/><rect xmlns="http://www.w3.org/2000/svg" x="245.77" y="67.55" width="47.17" height="15.73" transform="translate(69.39 270.99) rotate(-60.01)" class="c1"/><rect xmlns="http://www.w3.org/2000/svg" x="192.9" y="25" width="15.73" height="70.84" class="c1"/><rect xmlns="http://www.w3.org/2000/svg" x="124.33" y="51.94" width="15.73" height="47.05" transform="translate(-20.02 76.21) rotate(-30)" class="c1"/></svg>
