<svg xmlns="http://www.w3.org/2000/svg" viewBox="0 0 40 40" width="40" height="40"><defs><style>.c1{fill:#30ba78}.c2{fill:#0c322c}</style></defs><polygon xmlns="http://www.w3.org/2000/svg" points="35 15 29 15 29 13 33 13 33 4 35 4 35 15" class="c1"/><rect xmlns="http://www.w3.org/2000/svg" x="29" y="18" width="6" height="2" class="c2"/><rect xmlns="http://www.w3.org/2000/svg" x="5" y="18" width="6" height="2" class="c2"/><polygon xmlns="http://www.w3.org/2000/svg" points="35 34 33 34 33 25 29 25 29 23 35 23 35 34" class="c1"/><polygon xmlns="http://www.w3.org/2000/svg" points="11 15 5 15 5 4 7 4 7 13 11 13 11 15" class="c1"/><polygon xmlns="http://www.w3.org/2000/svg" points="7 34 5 34 5 23 11 23 11 25 7 25 7 34" class="c1"/><polygon xmlns="http://www.w3.org/2000/svg" points="14.29 36.71 9.59 32 13.29 28.29 14.71 29.71 12.41 32 15.71 35.29 14.29 36.71" class="c1"/><polygon xmlns="http://www.w3.org/2000/svg" points="25.71 36.71 24.29 35.29 27.59 32 25.29 29.71 26.71 28.29 30.41 32 25.71 36.71" class="c1"/><path xmlns="http://www.w3.org/2000/svg" d="M19,24h-9v-12.16c0-3.77,3.07-6.84,6.84-6.84h2.16v19ZM12,22h5V7h-.16c-2.67,0-4.84,2.17-4.84,4.84v10.16Z" class="c2"/><path xmlns="http://www.w3.org/2000/svg" d="M30,24h-9V5h2.16c3.77,0,6.84,3.07,6.84,6.84v12.16ZM23,22h5v-10.16c0-2.67-2.17-4.84-4.84-4.84h-.16v15Z" class="c2"/><path xmlns="http://www.w3.org/2000/svg" d="M21,32h-2c-4.96,0-9-4.04-9-9v-1h20v1c0,4.96-4.04,9-9,9ZM12.07,24c.49,3.39,3.41,6,6.93,6h2c3.52,0,6.44-2.61,6.93-6h-15.86Z" class="c2"/></svg>
