<svg xmlns="http://www.w3.org/2000/svg" viewBox="0 0 40 40" width="40" height="40"><defs><style>.c1{fill:#30ba78}.c2{fill:#0c322c}</style></defs><path xmlns="http://www.w3.org/2000/svg" d="m 19,23 c -4.406436,0 -8,3.593564 -8,8 0,4.406436 3.593564,8 8,8 4.406436,0 8,-3.593564 8,-8 0,-4.406436 -3.593564,-8 -8,-8 z m 0,2 c 3.32555,0 6,2.67445 6,6 0,3.32555 -2.67445,6 -6,6 -3.32555,0 -6,-2.67445 -6,-6 0,-3.32555 2.67445,-6 6,-6 z M 2.7070313,6.2929687 1.2929687,7.7070312 15.585938,22 h 6.828124 L 36.707031,7.7070312 35.292969,6.2929687 21.585937,20 h -5.171875 z" class="c2"/><path xmlns="http://www.w3.org/2000/svg" d="M 7.7070312 3.2929688 L 6.2929688 4.7070312 L 21.585938 20 L 23 18.585938 L 20.414062 16 L 31.707031 4.7070312 L 30.292969 3.2929688 L 19 14.585938 L 7.7070312 3.2929688 z M 19 27 C 16.802708 27 15 28.802708 15 31 C 15 33.197292 16.802708 35 19 35 C 21.197292 35 23 33.197292 23 31 C 23 28.802708 21.197292 27 19 27 z M 19 29 C 20.116417 29 21 29.883583 21 31 C 21 32.116417 20.116417 33 19 33 C 17.883583 33 17 32.116417 17 31 C 17 29.883583 17.883583 29 19 29 z " class="c1"/></svg>
