<svg xmlns="http://www.w3.org/2000/svg" viewBox="0 0 40 40" width="40" height="40"><defs><style>.c1{fill:#30ba78}.c2{fill:#0c322c}</style></defs><polygon xmlns="http://www.w3.org/2000/svg" points="29 21 26.84 21 23.84 20 16.16 20 13.16 21 11 21 11 19 12.84 19 15.84 18 24.16 18 27.16 19 29 19 29 21" class="c1"/><path xmlns="http://www.w3.org/2000/svg" d="M19,32h-2v-5c0-1.65-1.35-3-3-3h-3v-2h3c2.76,0,5,2.24,5,5v5Z" class="c2"/><path xmlns="http://www.w3.org/2000/svg" d="M23,32h-2v-5c0-2.76,2.24-5,5-5h3v2h-3c-1.65,0-3,1.35-3,3v5Z" class="c2"/><rect xmlns="http://www.w3.org/2000/svg" x="19" y="21" width="2" height="2" class="c1"/><path xmlns="http://www.w3.org/2000/svg" d="M20,37c-9.37,0-17-7.63-17-17S10.63,3,20,3s17,7.63,17,17-7.63,17-17,17ZM20,5c-8.27,0-15,6.73-15,15s6.73,15,15,15,15-6.73,15-15-6.73-15-15-15Z" class="c2"/><path xmlns="http://www.w3.org/2000/svg" d="M20,33c-7.17,0-13-5.83-13-13s5.83-13,13-13,13,5.83,13,13-5.83,13-13,13ZM20,9c-6.07,0-11,4.93-11,11s4.93,11,11,11,11-4.93,11-11-4.93-11-11-11Z" class="c2"/></svg>
