<svg xmlns="http://www.w3.org/2000/svg" viewBox="0 0 40 40" width="40" height="40"><defs><style>.c1{fill:#30ba78}.c2{fill:#0c322c}</style></defs><path xmlns="http://www.w3.org/2000/svg" d="M27,36h-14v-2.47l6.62-5.53h.36c6.07,0,11-4.93,11-11s-4.93-11-11-11-11,4.93-11,11c0,3.54,1.72,6.88,4.6,8.95l-1.17,1.62c-3.4-2.44-5.43-6.39-5.43-10.57,0-7.17,5.83-13,13-13s13,5.83,13,13-5.63,12.8-12.63,12.99l-4.79,4.01h11.44v2Z" class="c2"/><path xmlns="http://www.w3.org/2000/svg" d="M7.6,30.89c-.2,0-.39-.01-.59-.04-1.27-.17-2.42-.86-3.15-1.9-.74-1.05-1-2.37-.73-3.62.28-1.25,1.07-2.34,2.18-2.98l.28-.16,1,1.73-.28.16c-.64.37-1.07.96-1.23,1.68-.16.72-.01,1.44.41,2.04.42.6,1.05.98,1.78,1.07.72.09,1.43-.11,1.99-.58L34.33,7.26l1.29,1.53L10.55,29.82c-.83.69-1.88,1.07-2.95,1.07Z" class="c1"/><polygon xmlns="http://www.w3.org/2000/svg" points="37 12 35 12 35 8 31 8 31 6 37 6 37 12" class="c1"/></svg>
