<svg xmlns="http://www.w3.org/2000/svg" viewBox="0 0 40 40" width="40" height="40"><defs><style>.c1{fill:#30ba78}.c2{fill:#0c322c}</style></defs><path xmlns="http://www.w3.org/2000/svg" d="m 27.707031,2.046875 c -2.43739,-0.3208885 -4.797483,1.0412137 -5.738281,3.3125 -0.940798,2.2712863 -0.235554,4.903798 1.714844,6.400391 l 1.21875,-1.585938 C 23.662432,9.2224101 23.21832,7.5689082 23.816406,6.125 24.414493,4.6810918 25.897761,3.8253008 27.447266,4.0292969 28.99677,4.233293 30.20616,5.4426831 30.410156,6.9921875 L 32.392578,6.7324219 C 32.07169,4.2950315 30.144422,2.3677635 27.707031,2.046875 Z" class="c1"/><path xmlns="http://www.w3.org/2000/svg" d="M 6.4609375,29 4,32.746094 V 37 H 39.996094 V 32.634766 L 37.529297,29 H 24.382812 v 2 h 12.087891 l 1.525391,2.248047 V 35 H 6 V 33.345703 L 7.5390625,31 h 9.3105465 v -2 z" class="c2"/><path xmlns="http://www.w3.org/2000/svg" d="m 28,6 v 2 h 4 v 9.162109 l 3,9 v 3.228516 h 2 v -3.552734 l -3,-9 V 6 Z" class="c2"/><path xmlns="http://www.w3.org/2000/svg" d="M 7.0605469,6 6,22.96875 V 30 H 8 V 23.03125 L 8.9394531,8 H 16 v 0.6972656 l -2,3.0000004 v 7.464843 L 16.279297,26 h 2.414062 L 20.726562,20.552734 20,16.253906 v -2.533203 l 9,-3 V 6 h -2 v 1 1 1.2792969 l -9,3.0000001 v 4.142578 l 0.666016,3.935547 -1.140625,3.05664 L 16,18.837891 V 12.302734 L 18,9.3027344 V 6 Z" class="c2"/><path xmlns="http://www.w3.org/2000/svg" d="m 21,29 v 2" class="c1"/><path xmlns="http://www.w3.org/2000/svg" d="m 20,29 v 2 h 2 v -2 z" class="c1"/><path xmlns="http://www.w3.org/2000/svg" d="m 27,7 v 4.929688 l -1,6.999999 V 22 h 2 v -2.929688 l 1,-6.999999 V 7 Z" class="c2"/></svg>
