<svg xmlns="http://www.w3.org/2000/svg" viewBox="0 0 40 40" width="40" height="40"><defs><style>.c1{fill:#30ba78}.c2{fill:#0c322c}</style></defs><path xmlns="http://www.w3.org/2000/svg" d="m 5.9042969,36 v 2 h 8.0000001 v -2 z" class="c1"/><path xmlns="http://www.w3.org/2000/svg" d="m 6,4 v 2 h 8 V 4 Z" class="c1"/><path xmlns="http://www.w3.org/2000/svg" d="m 30,18 v 1 c 0,0.833333 0.385834,1.549896 0.917969,2.082031 C 31.450104,21.614166 32.166667,22 33,22 h 4 V 20 H 33 C 32.833333,20 32.549896,19.885834 32.332031,19.667969 32.114166,19.450104 32,19.166667 32,19 v -1 z" class="c1"/><path xmlns="http://www.w3.org/2000/svg" d="M 2,11 V 23.414062 L 4.5859375,26 H 16 V 24 H 5.4140625 L 4,22.585937 V 13 h 0.4335937 l 3,5 H 33.464844 L 36.712891,22.873047 35.585937,24 H 26 v 2 H 36.414062 L 39.287109,23.126953 34.535156,16 H 8.5664063 L 5.5664062,11 Z" class="c2"/><path xmlns="http://www.w3.org/2000/svg" d="M 26.207031,23.390625 16.507812,36 H 14.427734 L 18,26.175781 V 24 h -2 v 1.824219 L 11.572266,38 h 5.919921 L 27.792969,24.609375 Z" class="c2"/><path xmlns="http://www.w3.org/2000/svg" d="M 11.523438,4 16,15.193359 V 18 H 28 L 17.5,4 Z m 2.953125,2 H 16.5 L 24,16 h -6 v -1.193359 z" class="c2"/><path xmlns="http://www.w3.org/2000/svg" d="m 22,20 v 2 h 2 v -2 z" class="c1"/><path xmlns="http://www.w3.org/2000/svg" d="m 18,20 v 2 h 2 v -2 z" class="c1"/><path xmlns="http://www.w3.org/2000/svg" d="m 14,20 v 2 h 2 v -2 z" class="c1"/><path xmlns="http://www.w3.org/2000/svg" d="m 6,30 v 2 h 6 v -2 z" class="c1"/><path xmlns="http://www.w3.org/2000/svg" d="m 26,19.945312 v 2 h 2 v -2 z" class="c1"/><path xmlns="http://www.w3.org/2000/svg" d="m 8,10 v 2 h 4 v -2 z" class="c1"/></svg>
