<svg xmlns="http://www.w3.org/2000/svg" viewBox="0 0 40 40" width="40" height="40"><defs><style>.c1{fill:#30ba78}.c2{fill:#0c322c}</style></defs><path xmlns="http://www.w3.org/2000/svg" d="M 0,4 V 34 H 38 V 4 Z M 2,6 H 36 V 32 H 2 Z" class="c2"/><path xmlns="http://www.w3.org/2000/svg" transform="scale(-1,1)" d="m -27,24 c -1.644703,0 -3,1.355297 -3,3 0,1.644703 1.355297,3 3,3 1.644703,0 3,-1.355297 3,-3 0,-1.644703 -1.355297,-3 -3,-3 z m 0,2 c 0.571297,0 1,0.428703 1,1 0,0.571297 -0.428703,1 -1,1 -0.571297,0 -1,-0.428703 -1,-1 0,-0.571297 0.428703,-1 1,-1 z M -31,8 c 1.644703,0 3,1.3552972 3,3 0,1.644703 -1.355297,3 -3,3 -1.644703,0 -3,-1.355297 -3,-3 0,-1.6447028 1.355297,-3 3,-3 z m 0,2 c -0.571297,0 -1,0.428703 -1,1 0,0.571297 0.428703,1 1,1 0.571297,0 1,-0.428703 1,-1 0,-0.571297 -0.428703,-1 -1,-1 z m -1,14 v 6 h -2 v -6 z m 17,0 c 1.644703,0 3,1.355297 3,3 0,1.644703 -1.355297,3 -3,3 -1.644703,0 -3,-1.355297 -3,-3 0,-1.644703 1.355297,-3 3,-3 z m 0,2 c -0.571297,0 -1,0.428703 -1,1 0,0.571297 0.428703,1 1,1 0.571297,0 1,-0.428703 1,-1 0,-0.571297 -0.428703,-1 -1,-1 z m -5,-2 v 6 h -2 v -6 z m 13,0 c -1.6447028,0 -3,1.355297 -3,3 0,1.644703 1.3552972,3 3,3 1.6447028,0 3,-1.355297 3,-3 0,-1.644703 -1.3552972,-3 -3,-3 z m 0,2 c 0.5712972,0 1,0.428703 1,1 0,0.571297 -0.4287028,1 -1,1 -0.5712972,0 -1,-0.428703 -1,-1 0,-0.571297 0.4287028,-1 1,-1 z m 3,-10 v 6 h -2 v -6 z m -4,0 v 6 h -2 v -6 z m -7,0 c -1.644703,0 -3,1.355297 -3,3 0,1.644703 1.355297,3 3,3 1.644703,0 3,-1.355297 3,-3 0,-1.644703 -1.355297,-3 -3,-3 z m 0,2 c 0.571297,0 1,0.428703 1,1 0,0.571297 -0.428703,1 -1,1 -0.571297,0 -1,-0.428703 -1,-1 0,-0.571297 0.428703,-1 1,-1 z m -13,-2 v 6 h -2 v -6 z m 5,0 c 1.644703,0 3,1.355297 3,3 0,1.644703 -1.355297,3 -3,3 -1.644703,0 -3,-1.355297 -3,-3 0,-1.644703 1.355297,-3 3,-3 z m 0,2 c -0.571297,0 -1,0.428703 -1,1 0,0.571297 0.428703,1 1,1 0.571297,0 1,-0.428703 1,-1 0,-0.571297 -0.428703,-1 -1,-1 z m -9,-2 v 6 h -2 v -6 z m 9,-8 c 1.644703,0 3,1.3552972 3,3 0,1.644703 -1.355297,3 -3,3 -1.644703,0 -3,-1.355297 -3,-3 0,-1.6447028 1.355297,-3 3,-3 z m 0,2 c -0.571297,0 -1,0.428703 -1,1 0,0.571297 0.428703,1 1,1 0.571297,0 1,-0.428703 1,-1 0,-0.571297 -0.428703,-1 -1,-1 z m 7,-2 v 6 h -2 V 8 Z m 5,0 c 1.6447028,0 3,1.3552972 3,3 0,1.644703 -1.3552972,3 -3,3 -1.644703,0 -3,-1.355297 -3,-3 0,-1.6447028 1.355297,-3 3,-3 z m 0,2 c -0.571297,0 -1,0.428703 -1,1 0,0.571297 0.428703,1 1,1 0.571297,0 1,-0.428703 1,-1 0,-0.571297 -0.428703,-1 -1,-1 z m 7,-2 v 6 H -6 V 8 Z" class="c1"/></svg>
