<svg xmlns="http://www.w3.org/2000/svg" viewBox="0 0 40 40" width="40" height="40"><defs><style>.c1{fill:#30ba78}.c2{fill:#0c322c}</style></defs><path xmlns="http://www.w3.org/2000/svg" d="m 20,12 v 28 h 2 V 12 Z" class="c2"/><path xmlns="http://www.w3.org/2000/svg" d="m 27.417969,31.185547 -7,5 1.164062,1.628906 7,-5 z" class="c2"/><path xmlns="http://www.w3.org/2000/svg" d="m 14.582031,31.185547 -1.164062,1.628906 7,5 1.164062,-1.628906 z" class="c2"/><path xmlns="http://www.w3.org/2000/svg" d="m 27.417969,17.185547 -7,5 1.164062,1.628906 7,-5 z" class="c2"/><path xmlns="http://www.w3.org/2000/svg" d="m 14.582031,17.185547 -1.164062,1.628906 7,5 1.164062,-1.628906 z" class="c2"/><path xmlns="http://www.w3.org/2000/svg" d="m 37,22 c -1.465305,0 -2.825962,-0.09272 -4.238281,0.177734 -1.412319,0.270456 -2.836234,0.951467 -4.220703,2.335938 l -0.002,0.002 -0.002,0.002 c -1.361796,1.378058 -2.044943,2.800199 -2.328125,4.216797 C 25.925803,30.150973 26,31.526921 26,33 v 1 h 1 c 1.462269,0 2.840851,0.09775 4.271484,-0.164063 1.430634,-0.261813 2.879977,-0.93271 4.269532,-2.322265 1.389555,-1.389555 2.056088,-2.834821 2.310546,-4.259766 C 38.106021,25.828962 38,24.459233 38,23 v -1 z m -1.03125,2.037109 c 0.01216,1.029611 0.05759,2.061492 -0.08594,2.865235 -0.195479,1.094669 -0.611847,2.053254 -1.755859,3.197265 -1.144011,1.144012 -2.112199,1.567742 -3.214844,1.769532 -0.808127,0.147891 -1.839417,0.105587 -2.867187,0.0957 -0.0022,-1.017644 -0.03504,-2.037325 0.125,-2.837891 0.218115,-1.091106 0.659378,-2.0586 1.785156,-3.199219 l 0.002,-0.002 c 7.58e-4,-7.67e-4 0.0012,-0.0012 0.002,-0.002 1.147028,-1.145628 2.099217,-1.574717 3.177735,-1.78125 0.791694,-0.151607 1.813033,-0.113053 2.832031,-0.105469 z" class="c1"/><path xmlns="http://www.w3.org/2000/svg" d="m 4,22 v 1 c 0,1.448258 -0.098167,2.815011 0.1640625,4.236328 0.2622297,1.421318 0.9339815,2.861716 2.3222656,4.25 1.3870125,1.387013 2.8256913,2.066145 4.2499999,2.335938 C 12.160637,34.092059 13.534695,34 15,34 h 1 v -1 c 0,-1.465306 0.09206,-2.839363 -0.177734,-4.263672 -0.269794,-1.424308 -0.948924,-2.862987 -2.335938,-4.25 C 12.098045,23.098044 10.657646,22.426292 9.2363281,22.164062 7.8150106,21.901833 6.4482576,22 5,22 Z m 2.0351562,2.035156 c 1.017483,-0.0099 2.0381456,-0.05185 2.8378907,0.0957 1.0914645,0.201373 2.0539371,0.624249 3.1992191,1.769532 1.146554,1.146554 1.577682,2.111725 1.785156,3.207031 0.152197,0.80349 0.113124,1.830782 0.105469,2.855469 -1.024687,0.0077 -2.051979,0.04673 -2.855469,-0.105469 C 10.012116,31.649949 9.0469441,31.21882 7.9003906,30.072266 6.7551078,28.926983 6.332232,27.964512 6.1308594,26.873047 5.9833083,26.073302 6.025302,25.052639 6.0351562,24.035156 Z" class="c1"/><path xmlns="http://www.w3.org/2000/svg" d="m 35,10 c -1.945979,0 -4.648632,-0.2654306 -6.974609,2.060547 -1.107315,1.107315 -1.692078,2.15821 -1.90625,3.275391 C 25.904968,16.453118 26,17.534357 26,19 v 1.007812 L 27.007812,20 c 1.922732,-0.01632 4.603757,0.30495 6.931641,-2.025391 C 36.265432,15.648631 36,12.94598 36,11 v -1 z m -1.027344,2.027344 c 0.02254,1.634918 3.73e-4,3.085564 -1.447265,4.533203 -1.443765,1.445288 -2.866613,1.441058 -4.5,1.416015 -0.0079,-0.849954 -0.04086,-1.755073 0.05664,-2.263671 0.141585,-0.738542 0.423287,-1.304146 1.357422,-2.238282 1.447638,-1.447638 2.898285,-1.469807 4.533203,-1.447265 z" class="c1"/><path xmlns="http://www.w3.org/2000/svg" d="m 6,10 v 1 c 0,1.945979 -0.2654314,4.648632 2.0605469,6.974609 1.1073142,1.107315 2.1591311,1.691473 3.2773441,1.910157 1.118212,0.218683 2.203231,0.13301 3.685547,0.15039 l 1.023437,0.01172 -0.01172,-1.023438 c -0.01743,-1.486275 0.05939,-2.576108 -0.164062,-3.691406 -0.22345,-1.115298 -0.803701,-2.160215 -1.890625,-3.265625 l -0.002,-0.002 -0.0039,-0.0039 C 11.646725,9.73266 8.9287207,10 7,10 Z m 2.0273438,2.027344 c 1.6280245,-0.02206 3.0851892,0.002 4.5292972,1.443359 0.916224,0.932377 1.203443,1.504853 1.353515,2.253906 0.102889,0.513546 0.08247,1.424062 0.08594,2.275391 -0.851832,-7.2e-4 -1.764778,0.02173 -2.275391,-0.07813 C 10.974296,17.775904 10.408744,17.494682 9.4746094,16.560547 8.026971,15.112909 8.0048024,13.662262 8.0273438,12.027344 Z" class="c1"/><path xmlns="http://www.w3.org/2000/svg" d="m 21,0.75 -0.599609,0.4492187 c -0.913299,0.6849743 -1.803433,1.3465868 -2.488282,2.3085938 -0.684236,0.9611467 -1.093018,2.2077328 -1.09375,3.8066406 -0.02588,3.2148599 1.464622,5.4452019 3.734375,6.5800779 L 21,14.117188 21.447266,13.894531 c 2.287172,-1.143586 3.734376,-3.416197 3.734375,-6.5761716 0,-1.6009716 -0.408901,-2.8485403 -1.09375,-3.8105469 -0.68485,-0.9620066 -1.574984,-1.6236193 -2.488282,-2.3085938 z m 0,2.59375 c 0.554849,0.4422094 1.138857,0.8745361 1.458984,1.3242187 0.451556,0.6342996 0.722657,1.3643172 0.722657,2.6503907 0,2.3181212 -0.82798,3.5330736 -2.185547,4.3945316 C 19.630105,10.857259 18.79793,9.6853195 18.818359,7.3261719 v -0.00391 -0.00391 c 0,-1.2860744 0.271101,-2.016091 0.722657,-2.6503907 C 19.861143,4.218286 20.445151,3.785959 21,3.34375 Z" class="c1"/></svg>
