<svg xmlns="http://www.w3.org/2000/svg" viewBox="0 0 40 40" width="40" height="40"><defs><style>.c1{fill:#30ba78}.c2{fill:#0c322c}</style></defs><path xmlns="http://www.w3.org/2000/svg" d="m 26,16 c -4.406436,0 -8,3.593564 -8,8 0,4.406436 3.593564,8 8,8 4.406436,0 8,-3.593564 8,-8 0,-4.406436 -3.593564,-8 -8,-8 z m 0,2 c 3.32555,0 6,2.67445 6,6 0,3.32555 -2.67445,6 -6,6 -3.32555,0 -6,-2.67445 -6,-6 0,-3.32555 2.67445,-6 6,-6 z" class="c2"/><path xmlns="http://www.w3.org/2000/svg" d="M 31.585937,8 28,11.585938 26.701172,10.287109 24.492187,8.1425781 22.296875,10.289063 18,14.585938 l -3,-3 L 8.5859375,18 H 6 v 2 H 9.4140625 L 15,14.414063 l 3,2.999999 5.703125,-5.703124 0.792969,-0.775391 0.802734,0.777344 L 28,14.414063 32.414062,10 H 34 V 8 Z" class="c1"/><path xmlns="http://www.w3.org/2000/svg" d="m 31.707031,28.292969 -1.414062,1.414062 6,6 1.414062,-1.414062 z" class="c2"/><path xmlns="http://www.w3.org/2000/svg" d="M 2,4 V 36 H 30 V 34 H 4 V 6 h 32 v 22 h 2 V 4 Z" class="c2"/><path xmlns="http://www.w3.org/2000/svg" d="m 6,30 v 2 h 4 v -2 z" class="c1"/><path xmlns="http://www.w3.org/2000/svg" d="m 12,30 v 2 h 4 v -2 z" class="c1"/><path xmlns="http://www.w3.org/2000/svg" d="m 6,22 v 2 h 10 v -2 z" class="c1"/><path xmlns="http://www.w3.org/2000/svg" d="m 26,20 c -2.197297,0 -4,1.802703 -4,4 h 2 c 0,-1.116411 0.883589,-2 2,-2 z" class="c1"/><path xmlns="http://www.w3.org/2000/svg" d="m 6,26 v 2 h 10 v -2 z" class="c1"/></svg>
