<svg xmlns="http://www.w3.org/2000/svg" viewBox="0 0 40 40" width="40" height="40"><defs><style>.c1{fill:#30ba78}.c2{fill:#0c322c}</style></defs><path xmlns="http://www.w3.org/2000/svg" d="m 32,12 v 6.419922 l -6,7.21875 V 30 H 16 v -4.404297 l -6,-6.21875 V 13 H 8 v 7.183594 l 6,6.220703 V 32 h 14 v -5.638672 l 6,-7.220703 V 12 Z" class="c2"/><path xmlns="http://www.w3.org/2000/svg" d="m 14,34 v 3.414062 L 16.585937,40 h 8.828125 L 28,37.414062 V 34 Z m 2,2 h 10 v 0.585937 L 24.585937,38 H 17.414062 L 16,36.585937 Z" class="c1"/><path xmlns="http://www.w3.org/2000/svg" d="m 15.585938,12 -4,4 4,4 H 18 v 8 h 2 v -8 h 4 v -2 h -4 v -6 z m 0.828124,2 H 18 v 4 h -1.585938 l -1.999999,-2 z" class="c1"/><path xmlns="http://www.w3.org/2000/svg" d="m 22,12 v 6 h -4 v 2 h 4 v 8 h 2 v -8 h 2.414062 l 4,-4 -4,-4 z m 2,2 h 1.585937 l 2,2 -2,2 H 24 Z" class="c1"/><path xmlns="http://www.w3.org/2000/svg" d="M 21,0 C 13.832143,0 8,5.8321429 8,13 h 2 C 10,6.9130231 14.913023,2 21,2 27.086977,2 32,6.9130231 32,13 h 2 C 34,5.8321429 28.167857,0 21,0 Z" class="c2"/></svg>
