<svg xmlns="http://www.w3.org/2000/svg" viewBox="0 0 40 40" width="40" height="40"><defs><style>.c1{fill:#30ba78}.c2{fill:#0c322c}</style></defs><rect xmlns="http://www.w3.org/2000/svg" x="27" y="11" width="2" height="2" class="c2"/><rect xmlns="http://www.w3.org/2000/svg" x="15" y="11" width="10" height="2" class="c2"/><rect xmlns="http://www.w3.org/2000/svg" x="27" y="4" width="2" height="4" class="c2"/><rect xmlns="http://www.w3.org/2000/svg" x="19" y="15" width="2" height="19" class="c1"/><polygon xmlns="http://www.w3.org/2000/svg" points="17 28 8 28 8 26 15 26 15 17 6 17 6 7 34 7 34 17 27 17 27 15 32 15 32 9 8 9 8 15 17 15 17 28" class="c2"/><polygon xmlns="http://www.w3.org/2000/svg" points="32 31 23 31 23 15 25 15 25 29 32 29 32 31" class="c1"/><rect xmlns="http://www.w3.org/2000/svg" x="4.04" y="26" width="2" height="2" class="c2"/><rect xmlns="http://www.w3.org/2000/svg" x="19" y="36" width="2" height="2" class="c2"/><rect xmlns="http://www.w3.org/2000/svg" x="34" y="29" width="2" height="2" class="c2"/><rect xmlns="http://www.w3.org/2000/svg" x="15" y="15" width="2" height="13" class="c1"/><rect xmlns="http://www.w3.org/2000/svg" x="11.21" y="22.81" width="2" height="8.37" transform="translate(39.21 14.79) rotate(90)" class="c1"/></svg>
