<svg xmlns="http://www.w3.org/2000/svg" viewBox="0 0 40 40" width="40" height="40"><defs><style>.c1{fill:#30ba78}.c2{fill:#0c322c}</style></defs><path xmlns="http://www.w3.org/2000/svg" d="M 9.0859375 4 L 4 7.7753906 L 4 8 L 4 10.013672 L 4 18 L 4 26 L 4 34 L 36 34 L 36 24 L 36 16 L 36 8.3617187 L 36.005859 7.7421875 L 30.298828 4 L 9.0859375 4 z M 9.7460938 6 L 29.701172 6 L 32.752539 8 L 7.0515625 8 L 9.7460938 6 z M 6 10.013672 L 34 10.013672 L 34 16 L 6 16 L 6 10.013672 z M 6 18 L 34 18 L 34 24 L 6 24 L 6 18 z M 6 26 L 34 26 L 34 32 L 6 32 L 6 26 z " class="c1"/><path xmlns="http://www.w3.org/2000/svg" d="m 0,21.9976 v 4 L 2,26 v -4 z" class="c2"/><path xmlns="http://www.w3.org/2000/svg" d="m 6.1e-5,-0.014061 v 3.98672 H 1.99303 V 1.98672 H 2.00006 V 1.97344 l 2.000001,-7.81e-4 v -2 z" class="c2"/><path xmlns="http://www.w3.org/2000/svg" d="M -0.006969,38.000781 6.1e-5,34.01328 H 1.99303 L 1.986,36 h 0.00703 v 0.01328 h 2 v 2 z" class="c2"/><path xmlns="http://www.w3.org/2000/svg" d="m -0.006969,27.998381 v 4 l 2,0.0024 v -4 z" class="c2"/><path xmlns="http://www.w3.org/2000/svg" d="m 5.98287,36.01328 0.01406,2 h 4 l -0.0039,-2 z" class="c2"/><path xmlns="http://www.w3.org/2000/svg" d="m 11.97897,36.01328 0.01406,2 h 4 l -0.0039,-2 z" class="c2"/><path xmlns="http://www.w3.org/2000/svg" d="m 17.97897,36.01328 0.01406,2 h 4 l -0.0039,-2 z" class="c2"/><path xmlns="http://www.w3.org/2000/svg" d="m 23.97897,36.01328 0.01406,2 h 4 l -0.0039,-2 z" class="c2"/><path xmlns="http://www.w3.org/2000/svg" d="m 39.992999,38.000781 -0.007,-3.987501 H 37.993 L 38,36 h -0.007 v 0.01328 h -2 v 2 z" class="c2"/><path xmlns="http://www.w3.org/2000/svg" d="m 29.97897,36.01328 0.01406,2 h 4 l -0.0039,-2 z" class="c2"/><path xmlns="http://www.w3.org/2000/svg" d="m 0,5.9976 v 4 L 2,10 V 6 Z" class="c2"/><path xmlns="http://www.w3.org/2000/svg" d="m 39.992999,-7.81e-4 -0.007,3.987501 H 37.993 L 38,2 H 37.993 V 1.98672 h -2 v -2 z" class="c2"/><path xmlns="http://www.w3.org/2000/svg" d="m 38,21.9976 v 4 L 40,26 v -4 z" class="c2"/><path xmlns="http://www.w3.org/2000/svg" d="m 38.000001,27.985101 v 4 l 2,0.0024 v -4 z" class="c2"/><path xmlns="http://www.w3.org/2000/svg" d="m 38,6.01088 v 4 l 2,0.0024 v -4 z" class="c2"/><path xmlns="http://www.w3.org/2000/svg" d="m 5.98287,-0.01328 0.01406,2 h 4 l -0.0039,-2 z" class="c2"/><path xmlns="http://www.w3.org/2000/svg" d="m 11.97897,-0.01328 0.01406,2 h 4 l -0.0039,-2 z" class="c2"/><path xmlns="http://www.w3.org/2000/svg" d="m 17.97897,-0.01328 0.01406,2 h 4 l -0.0039,-2 z" class="c2"/><path xmlns="http://www.w3.org/2000/svg" d="m 23.97897,-0.01328 0.01406,2 h 4 l -0.0039,-2 z" class="c2"/><path xmlns="http://www.w3.org/2000/svg" d="m 29.97897,-0.01328 0.01406,2 h 4 l -0.0039,-2 z" class="c2"/><path xmlns="http://www.w3.org/2000/svg" d="m 29,12.013278 v 2" class="c2"/><path xmlns="http://www.w3.org/2000/svg" d="m 28,12.013672 v 2 h 2 v -2 z" class="c2"/><path xmlns="http://www.w3.org/2000/svg" d="m 22,13.013278 h 4" class="c2"/><path xmlns="http://www.w3.org/2000/svg" d="m 22,12.013672 v 2 h 4 v -2 z" class="c1"/><path xmlns="http://www.w3.org/2000/svg" d="m 29,20 v 2" class="c2"/><path xmlns="http://www.w3.org/2000/svg" d="m 28,20 v 2 h 2 v -2 z" class="c2"/><path xmlns="http://www.w3.org/2000/svg" d="m 22,21 h 4" class="c2"/><path xmlns="http://www.w3.org/2000/svg" d="m 22,20 v 2 h 4 v -2 z" class="c1"/><path xmlns="http://www.w3.org/2000/svg" d="m 0,11.9976 v 4 L 2,16 v -4 z" class="c2"/><path xmlns="http://www.w3.org/2000/svg" d="m 38,11.9976 v 4 L 40,16 v -4 z" class="c2"/><path xmlns="http://www.w3.org/2000/svg" d="m 29,28 v 2" class="c2"/><path xmlns="http://www.w3.org/2000/svg" d="m 28,28 v 2 h 2 v -2 z" class="c2"/><path xmlns="http://www.w3.org/2000/svg" d="m 22,29 h 4" class="c2"/><path xmlns="http://www.w3.org/2000/svg" d="m 22,28 v 2 h 4 v -2 z" class="c1"/><path xmlns="http://www.w3.org/2000/svg" d="m 0,18 v 2.101139 l 2,0.0013 V 18.0013 Z" class="c2"/><path xmlns="http://www.w3.org/2000/svg" d="m 38,18 v 2.101139 l 2,0.0013 V 18.0013 Z" class="c2"/></svg>
