<svg xmlns="http://www.w3.org/2000/svg" viewBox="0 0 40 40" width="40" height="40"><defs><style>.c1{fill:#30ba78}.c2{fill:#0c322c}</style></defs><path xmlns="http://www.w3.org/2000/svg" d="M 2.5859375,8 8,13.414063 V 33.380859 L 10.675781,36 H 27.404297 L 30,33.449219 V 8 Z m 4.828125,2 H 28 V 32.611328 L 26.585937,34 H 11.492188 L 10,32.539062 V 12.585938 Z" class="c2"/><path xmlns="http://www.w3.org/2000/svg" d="m 25.853516,8 v 2 h 5.292968 C 32.744955,10 34,11.255045 34,12.853516 v 9.292968 h 2 V 12.853516 C 36,10.18164 33.81836,8 31.146484,8 Z" class="c2"/><path xmlns="http://www.w3.org/2000/svg" d="m 24,14 v 2 h 2 v -2 z m -4,4 v 2 h 6 v -2 z m 4,4 v 2 h 2 v -2 z m -4,4 v 2 h 6 v -2 z m 4,4 v 2 h 2.001953 v -2 z" class="c1"/></svg>
