<svg xmlns="http://www.w3.org/2000/svg" viewBox="0 0 40 40" width="40" height="40"><defs><style>.c1{fill:#30ba78}.c2{fill:#0c322c}</style></defs><path xmlns="http://www.w3.org/2000/svg" d="M29 16h-2c0-3.86-3.14-7-7-7s-7 3.14-7 7h-2c0-4.96 4.04-9 9-9s9 4.04 9 9M9 18h22v2H9zm18 10h9v2h-9zM5 28h8v2H5z" class="c2"/><path xmlns="http://www.w3.org/2000/svg" d="M18 3h4v2h-4z" class="c1"/><path xmlns="http://www.w3.org/2000/svg" d="M11 19h2v7h-2zm16 0h2v7h-2zm-4 0h2v5h-2zm-4 0h2v5h-2zm-4 0h2v5h-2zm-4 10h2v7h-2zm-4 0h2v7H7zm20 0h2v7h-2zm4 0h2v7h-2z" class="c2"/><path xmlns="http://www.w3.org/2000/svg" d="M25 36h-2v-7.22l-3-.75-3 .75V36h-2v-8.78l5-1.25 5 1.25z" class="c1"/></svg>
