<svg xmlns="http://www.w3.org/2000/svg" viewBox="0 0 400 400" width="400" height="400"><defs><style>.c1{fill:#30ba78}.c2{fill:#0c322c}</style></defs><!-- Generator: Adobe Illustrator 29.5.1, SVG Export Plug-In . SVG Version: 2.1.0 Build 141)  --><path xmlns="http://www.w3.org/2000/svg" d="M275.1,176.1l-97,55.9v12.9c0,61,32.8,117.9,85.7,148.5l11.2,6.5,11.2-6.5c52.9-30.5,85.7-87.4,85.7-148.5v-12.9l-97-55.9h.2ZM275.1,202.3l74.2,42.9c0,52.8-28.5,102.1-74.2,128.5-45.8-26.5-74.2-75.7-74.2-128.5l74.2-42.9h0Z" class="c2"/><polygon xmlns="http://www.w3.org/2000/svg" points="329.4 267.6 263.1 334 220.7 291.8 236.8 275.6 263.1 301.9 313.3 251.5 329.4 267.6" class="c1"/><polygon xmlns="http://www.w3.org/2000/svg" points="290.8 0 290.8 49.1 268.1 49.1 268.1 22.9 92.6 22.9 92.6 97.7 69.9 97.7 69.9 0 290.8 0" class="c1"/><polygon xmlns="http://www.w3.org/2000/svg" points="333.8 49.1 333.8 131.9 311.1 131.9 311.1 71.9 134.4 71.9 134.4 97.7 111.7 97.7 111.7 49.1 333.8 49.1" class="c1"/><polygon xmlns="http://www.w3.org/2000/svg" points="371.9 131.9 371.9 177.3 349.3 177.3 349.3 154.6 170.8 154.6 142.4 120.4 50.8 120.4 50.8 316.9 158.1 316.9 158.1 339.7 28.1 339.7 28.1 97.7 153.2 97.7 181.6 131.9 371.9 131.9" class="c2"/></svg>
