<svg xmlns="http://www.w3.org/2000/svg" viewBox="0 0 400 400" width="400" height="400"><defs><style>.c1{fill:#30ba78}.c2{fill:#0c322c}</style></defs><path xmlns="http://www.w3.org/2000/svg" d="M 135.5293,47.539062 64.128906,118.93945 78.271484,133.08203 149.67187,61.681641 Z" class="c1"/><path xmlns="http://www.w3.org/2000/svg" d="m 228.62891,47.539062 -71.40039,71.400388 14.14257,14.14258 71.40039,-71.400389 z" class="c1"/><path xmlns="http://www.w3.org/2000/svg" d="m 321.72852,47.539062 -71.4004,71.400388 14.14258,14.14258 71.40039,-71.400389 z" class="c1"/><path xmlns="http://www.w3.org/2000/svg" d="M 39.400391,45.210937 V 355.31055 H 360.59961 V 45.210937 Z m 20,20 H 340.59961 V 335.31055 H 59.400391 Z" class="c2"/><path xmlns="http://www.w3.org/2000/svg" d="M 39.400391,44.609375 V 136.00977 H 360.59961 V 44.609375 Z m 20,20 H 340.59961 V 116.00977 H 59.400391 Z" class="c2"/><path xmlns="http://www.w3.org/2000/svg" d="m 153.69922,172.2207 v 126.88867 h 13.02539 L 262,240.60352 v -11.5586 L 166.85937,172.2207 Z m 20,27.38086 59.23828,35.38086 -59.23828,36.375 z" class="c1"/></svg>
