<?xml version="1.0" encoding="UTF-8"?>
<svg id="Layer_1" data-name="Layer 1" xmlns="http://www.w3.org/2000/svg" viewBox="0 0 422.7 68.8">
  <g id="Layer_1-2" data-name="Layer 1-2">
    <path d="M66.89,13.09c-.38.25-.89.25-1.27,0-.62-.41-.68-1.28-.18-1.78.45-.46,1.18-.46,1.63,0,.5.5.44,1.36-.18,1.78M68.7,10.57c.72,3.08-2.04,5.84-5.12,5.12-1.57-.37-2.81-1.61-3.18-3.18-.72-3.07,2.04-5.84,5.12-5.12,1.57.37,2.81,1.61,3.18,3.17M47.99,27.12c.35.51.64.99.81,1.48.11.35.26.8.61.99.02,0,.04.02.06.03.63.23,2.24.19,2.24.19h2.97c.25,0,2.48,0,2.43-.25-.27-1.19-1.65-1.41-2.7-2.03-.97-.58-1.88-1.23-2.3-2.36-.22-.58-.09-1.92.29-2.41.27-.35.67-.59,1.11-.68.48-.1.97-.01,1.45.03.59.06,1.17.17,1.76.24,1.14.15,2.28.21,3.43.18,1.89-.05,3.78-.35,5.57-.96,1.25-.42,2.48-.99,3.54-1.78,1.21-.9.89-.81-.33-.69-1.47.15-2.95.17-4.42.09-1.37-.08-2.73-.24-3.97-.88-.98-.5-1.82-1.01-2.59-1.79-.12-.12-.19-.46.02-.68.21-.21.64-.09.78.02,1.35,1.13,3.37,2.06,5.46,2.16,1.13.06,2.23.08,3.36.03.56-.03,1.42-.02,1.98-.03.29,0,1.09.08,1.24-.23.05-.09.04-.19.04-.3-.17-4.52-.5-9.62-5.23-11.78-3.53-1.61-8.82-4.11-11.05-5.15-.52-.25-1.12.14-1.12.72,0,1.51.08,3.68.08,5.65-1.07-1.09-2.87-1.78-4.25-2.41-1.56-.72-3.17-1.32-4.81-1.83-3.3-1.02-6.72-1.65-10.15-1.99-3.89-.39-7.86-.2-11.69.59-6.32,1.31-12.53,4.35-17.24,8.79C2.44,12.8.17,16.68.02,20.61c-.22,5.57,1.34,8.56,4.21,11.64,4.57,4.91,14.41,5.6,18.39-.23,1.79-2.62,2.18-6.18.88-9.07-1.3-2.9-4.29-4.99-7.46-5.1-2.46-.08-5.08,1.17-6.02,3.45-.72,1.74-.31,3.88,1,5.23.51.53,1.2.96,1.96.79.44-.1.82-.43.88-.89.1-.67-.48-1.1-.84-1.61-.65-.92-.52-2.31.29-3.09.68-.66,1.7-.86,2.65-.86.89,0,1.79.16,2.56.61,1.08.63,1.79,1.79,2.04,3.01.74,3.66-2.23,6.63-6.26,6.86-2.06.12-4.16-.42-5.77-1.71-4.07-3.28-5.07-9.98-.41-13.56,4.42-3.4,10-2.52,13.29-.76,2.63,1.41,4.6,3.72,6.08,6.28.75,1.28,1.38,2.63,1.97,3.99.57,1.31,1.1,2.63,2.23,3.59.75.64,1.68.61,2.67.61h5.63c.76,0,.58-.51.25-.85-.75-.76-1.82-.93-2.81-1.21-2.27-.62-2.04-3.63-1.41-3.63,2.03,0,2.09.06,3.87.04,2.56-.04,3.34-.18,5.34.56,1.07.4,2.1,1.44,2.77,2.4"/>
  </g>
  <g>
    <path d="M89.59,29.76c-2.08,0-3.89-.39-5.44-1.16s-2.87-1.8-3.96-3.08l3.04-3.04c1.09,1.12,2.16,1.92,3.2,2.4,1.04.48,2.15.72,3.32.72,1.57,0,2.81-.37,3.7-1.1s1.34-1.69,1.34-2.86c0-.91-.25-1.65-.76-2.22s-1.17-1.04-2-1.4c-.83-.36-1.74-.68-2.74-.96-1-.28-1.99-.59-2.98-.94-.99-.35-1.89-.8-2.72-1.36-.83-.56-1.49-1.29-2-2.2s-.76-2.04-.76-3.4c0-1.76.4-3.27,1.2-4.54.8-1.27,1.94-2.25,3.42-2.94,1.48-.69,3.19-1.04,5.14-1.04,1.81,0,3.45.32,4.9.96,1.45.64,2.65,1.49,3.58,2.56l-3.12,3.12c-.8-.83-1.63-1.45-2.48-1.86-.85-.41-1.83-.62-2.92-.62-1.47,0-2.64.35-3.52,1.06s-1.32,1.65-1.32,2.82c0,.85.25,1.55.76,2.08.51.53,1.18.95,2.02,1.26s1.76.59,2.76.84,2.01.55,3.02.9c1.01.35,1.93.8,2.76,1.36.83.56,1.49,1.31,2,2.24s.76,2.12.76,3.56c0,1.79-.43,3.34-1.28,4.66s-2.05,2.35-3.58,3.08-3.31,1.1-5.34,1.1h0Z"/>
    <path d="M114.95,29.76c-3.28,0-5.91-.85-7.88-2.54-1.97-1.69-2.96-4.26-2.96-7.7V1.2h4.92v17.92c0,2.03.53,3.55,1.6,4.56s2.51,1.52,4.32,1.52,3.26-.51,4.34-1.52c1.08-1.01,1.62-2.53,1.62-4.56V1.2h4.92v18.32c0,2.27-.45,4.16-1.36,5.68s-2.17,2.66-3.8,3.42c-1.63.76-3.53,1.14-5.72,1.14Z"/>
    <path d="M139.35,29.76c-2.08,0-3.89-.39-5.44-1.16s-2.87-1.8-3.96-3.08l3.04-3.04c1.09,1.12,2.16,1.92,3.2,2.4s2.15.72,3.32.72c1.57,0,2.81-.37,3.7-1.1s1.34-1.69,1.34-2.86c0-.91-.25-1.65-.76-2.22s-1.17-1.04-2-1.4c-.83-.36-1.74-.68-2.74-.96-1-.28-1.99-.59-2.98-.94-.99-.35-1.89-.8-2.72-1.36-.83-.56-1.49-1.29-2-2.2s-.76-2.04-.76-3.4c0-1.76.4-3.27,1.2-4.54s1.94-2.25,3.42-2.94,3.19-1.04,5.14-1.04c1.81,0,3.45.32,4.9.96s2.65,1.49,3.58,2.56l-3.12,3.12c-.8-.83-1.63-1.45-2.48-1.86-.85-.41-1.83-.62-2.92-.62-1.47,0-2.64.35-3.52,1.06s-1.32,1.65-1.32,2.82c0,.85.25,1.55.76,2.08.51.53,1.18.95,2.02,1.26.84.31,1.76.59,2.76.84s2.01.55,3.02.9c1.01.35,1.93.8,2.76,1.36.83.56,1.49,1.31,2,2.24s.76,2.12.76,3.56c0,1.79-.43,3.34-1.28,4.66s-2.05,2.35-3.58,3.08-3.31,1.1-5.34,1.1h0Z"/>
    <path d="M158.5,29.2c-1.36,0-2.47-.44-3.34-1.32-.87-.88-1.3-2-1.3-3.36V5.88c0-1.36.43-2.48,1.3-3.36.87-.88,1.98-1.32,3.34-1.32h13.64v4.48h-12c-.4,0-.74.14-1.02.42s-.42.62-.42,1.02v16.16c0,.4.14.74.42,1.02s.62.42,1.02.42h12v4.48h-13.64ZM156.22,17.28v-4.28h15.08v4.28h-15.08Z"/>
    <path d="M199.22,29.8c-1.97,0-3.83-.35-5.56-1.04s-3.25-1.67-4.56-2.94-2.32-2.77-3.04-4.52c-.72-1.75-1.08-3.67-1.08-5.78v-.64c0-2.11.36-4.03,1.08-5.78s1.73-3.25,3.04-4.52,2.83-2.25,4.56-2.94,3.59-1.04,5.56-1.04c1.73,0,3.34.26,4.82.78,1.48.52,2.81,1.26,3.98,2.22l-2.16,2.56c-1.84-1.49-4.05-2.24-6.64-2.24-1.52,0-2.93.27-4.24.8-1.31.53-2.45,1.29-3.44,2.26s-1.75,2.13-2.28,3.46-.8,2.81-.8,4.44v.64c0,1.63.27,3.11.8,4.44s1.29,2.49,2.28,3.46c.99.97,2.13,1.73,3.44,2.26s2.72.8,4.24.8c2.64,0,4.88-.79,6.72-2.36l2.16,2.6c-1.15.96-2.48,1.71-4,2.26s-3.15.82-4.88.82Z"/>
    <path d="M217.58,29.2c-1.55,0-2.8-.45-3.76-1.34s-1.44-2.09-1.44-3.58V1.32l1.44,1.44h-4.96V0h6.76v24.32c0,.61.2,1.12.6,1.52s.91.6,1.52.6h1.84v2.76h-2Z"/>
    <path d="M231.14,29.6c-1.84,0-3.48-.42-4.92-1.26s-2.57-2.01-3.4-3.5c-.83-1.49-1.24-3.21-1.24-5.16v-.36c0-1.92.41-3.61,1.24-5.08s1.96-2.61,3.4-3.44c1.44-.83,3.08-1.24,4.92-1.24s3.48.41,4.92,1.24,2.57,1.97,3.4,3.42c.83,1.45,1.24,3.13,1.24,5.02v.44c0,1.95-.41,3.67-1.24,5.16s-1.96,2.66-3.4,3.5c-1.44.84-3.08,1.26-4.92,1.26ZM231.14,26.72c1.25,0,2.36-.3,3.32-.9s1.71-1.43,2.24-2.48.8-2.27.8-3.66v-.44c0-1.33-.27-2.51-.8-3.52s-1.28-1.81-2.24-2.4-2.07-.88-3.32-.88-2.32.29-3.28.88-1.71,1.4-2.26,2.44c-.55,1.04-.82,2.23-.82,3.56v.36c0,1.39.27,2.61.82,3.66s1.3,1.88,2.26,2.48c.96.6,2.05.9,3.28.9Z"/>
    <path d="M252.58,29.6c-1.41,0-2.68-.28-3.8-.84-1.12-.56-2.01-1.42-2.66-2.58-.65-1.16-.98-2.66-.98-4.5v-11.72h3.24v11.16c0,1.36.21,2.45.62,3.26.41.81.99,1.39,1.72,1.74s1.57.52,2.5.52,1.84-.21,2.64-.64,1.45-1.07,1.94-1.94.74-1.94.74-3.22v-10.88h3.2v19.24h-2.84v-5.2h.92c-.29,1.09-.71,2-1.24,2.72s-1.15,1.29-1.84,1.72-1.4.73-2.12.9-1.4.26-2.04.26h0Z"/>
    <path d="M275.5,29.6c-1.73,0-3.29-.42-4.66-1.26s-2.45-2-3.22-3.48-1.16-3.21-1.16-5.18v-.36c0-1.92.39-3.61,1.18-5.08.79-1.47,1.86-2.61,3.22-3.44,1.36-.83,2.91-1.24,4.64-1.24s3.11.41,4.38,1.24c1.27.83,2.25,1.95,2.94,3.36l-.64.76V0h3.24v29.2h-2.92v-5.2l.56.64c-.69,1.55-1.69,2.76-3,3.64s-2.83,1.32-4.56,1.32h0ZM275.94,26.72c1.25,0,2.37-.29,3.34-.88.97-.59,1.73-1.42,2.28-2.5s.82-2.33.82-3.74-.27-2.69-.82-3.76c-.55-1.07-1.31-1.9-2.28-2.5s-2.09-.9-3.34-.9-2.27.29-3.22.86-1.69,1.37-2.22,2.4-.8,2.23-.8,3.62v.36c0,1.41.27,2.65.8,3.7.53,1.05,1.27,1.87,2.22,2.46.95.59,2.02.88,3.22.88Z"/>
    <path d="M305.42,29.2c-1.28,0-2.34-.42-3.18-1.26s-1.26-1.9-1.26-3.18V5.64c0-1.28.42-2.34,1.26-3.18s1.9-1.26,3.18-1.26h12.92v3.12h-11.84c-.61,0-1.13.21-1.54.62s-.62.91-.62,1.5v17.52c0,.59.21,1.09.62,1.5s.93.62,1.54.62h11.84v3.12h-12.92ZM302.7,16.68v-3h14.8v3h-14.8Z"/>
    <path d="M328.62,29.2c-1.55,0-2.8-.45-3.76-1.34s-1.44-2.09-1.44-3.58V1.32l1.44,1.44h-4.96V0h6.76v24.32c0,.61.2,1.12.6,1.52s.91.6,1.52.6h1.84v2.76h-2Z"/>
    <path d="M342.26,29.6c-1.89,0-3.57-.42-5.02-1.26s-2.59-2.01-3.4-3.5-1.22-3.21-1.22-5.16v-.4c0-1.87.37-3.53,1.12-4.98.75-1.45,1.8-2.61,3.16-3.46,1.36-.85,2.93-1.28,4.72-1.28s3.41.45,4.72,1.36c1.31.91,2.27,2.19,2.9,3.84s.81,3.59.54,5.8h-14.84v-2.64h13.12l-1.44,1.4c.19-1.47.09-2.71-.3-3.74s-.98-1.82-1.78-2.38c-.8-.56-1.76-.84-2.88-.84-1.23,0-2.27.29-3.14.88-.87.59-1.53,1.39-2,2.42s-.7,2.23-.7,3.62v.4c0,1.33.27,2.53.8,3.58s1.29,1.88,2.28,2.48,2.16.9,3.52.9c1.01,0,1.91-.13,2.68-.38s1.45-.63,2.04-1.14l1.84,2c-.75.8-1.7,1.41-2.86,1.84s-2.45.64-3.86.64Z"/>
    <path d="M359.26,29.2l-7.64-19.24h3.36l6.6,17.08h-1.24l6.6-17.08h3.36l-7.64,19.24h-3.4,0Z"/>
    <path d="M379.42,29.6c-2.27,0-4.07-.52-5.4-1.56s-2-2.41-2-4.12c0-1.09.3-2.09.9-3s1.48-1.63,2.64-2.16,2.57-.8,4.22-.8c2.21,0,3.93.5,5.16,1.5s1.84,2.33,1.84,3.98h-.64c0,1.97-.56,3.49-1.68,4.56-1.12,1.07-2.8,1.6-5.04,1.6ZM385.1,29.2v-7.28l-.4-1.08v-4.08c0-1.44-.37-2.51-1.12-3.22s-1.87-1.06-3.36-1.06c-.99,0-2.03.2-3.12.6s-2.07.99-2.92,1.76l-1.52-2.28c.93-.96,2.08-1.7,3.44-2.22,1.36-.52,2.77-.78,4.24-.78s2.81.27,3.94.8,2.02,1.33,2.66,2.38.96,2.38.96,3.98v6.16c0,1.07,0,2.12.02,3.16.01,1.04.05,2.09.1,3.16h-2.92ZM380.02,27.16c1.44,0,2.58-.3,3.42-.9.84-.6,1.26-1.41,1.26-2.42s-.41-1.81-1.24-2.4-1.97-.88-3.44-.88-2.63.29-3.48.88c-.85.59-1.28,1.39-1.28,2.4s.43,1.82,1.3,2.42,2.02.9,3.46.9Z"/>
    <path d="M391.22,12.76v-2.8h11.76v2.8h-11.76ZM400.02,29.2c-.64,0-1.28-.09-1.92-.28s-1.21-.48-1.72-.88-.91-.93-1.2-1.58-.44-1.45-.44-2.38V5.2h3.2v19.08c0,.61.21,1.13.62,1.54s.91.62,1.5.62h2.92v2.76h-2.96Z"/>
    <path d="M415.06,29.6c-1.89,0-3.57-.42-5.02-1.26s-2.59-2.01-3.4-3.5-1.22-3.21-1.22-5.16v-.4c0-1.87.37-3.53,1.12-4.98.75-1.45,1.8-2.61,3.16-3.46,1.36-.85,2.93-1.28,4.72-1.28s3.41.45,4.72,1.36c1.31.91,2.27,2.19,2.9,3.84s.81,3.59.54,5.8h-14.84v-2.64h13.12l-1.44,1.4c.19-1.47.09-2.71-.3-3.74s-.98-1.82-1.78-2.38c-.8-.56-1.76-.84-2.88-.84-1.23,0-2.27.29-3.14.88-.87.59-1.53,1.39-2,2.42s-.7,2.23-.7,3.62v.4c0,1.33.27,2.53.8,3.58s1.29,1.88,2.28,2.48,2.16.9,3.52.9c1.01,0,1.91-.13,2.68-.38s1.45-.63,2.04-1.14l1.84,2c-.75.8-1.7,1.41-2.86,1.84s-2.45.64-3.86.64Z"/>
    <path d="M81.49,63.2v-19.6h5.82c1.29,0,2.41.23,3.36.69s1.69,1.12,2.23,1.97c.53.86.8,1.89.8,3.11s-.27,2.25-.8,3.11c-.53.86-1.27,1.52-2.23,1.97s-2.07.69-3.36.69h-4.93v-1.6h5.01c1.33,0,2.4-.37,3.23-1.12s1.25-1.76,1.25-3.05-.42-2.27-1.25-3.01-1.91-1.11-3.23-1.11h-4.82l.78-.76v18.7h-1.88.02Z"/>
    <path d="M100.5,63.48c-1.57,0-2.81-.36-3.74-1.08s-1.39-1.67-1.39-2.84c0-.76.21-1.45.62-2.06s1.02-1.09,1.82-1.44,1.76-.53,2.88-.53c1.55,0,2.75.35,3.6,1.04.85.69,1.27,1.61,1.27,2.74h-.34c0,1.31-.39,2.33-1.18,3.07s-1.97,1.11-3.56,1.11h.02ZM104.62,63.2l-.03-4.87-.2-.53v-3.28c0-1.16-.29-2.01-.87-2.55s-1.42-.81-2.52-.81c-.73,0-1.48.14-2.25.42s-1.45.71-2.03,1.29l-.87-1.26c.63-.69,1.41-1.21,2.34-1.55.92-.34,1.88-.52,2.87-.52s1.89.18,2.66.55c.77.36,1.36.91,1.79,1.64s.64,1.65.64,2.77v4.26c0,.75,0,1.49.01,2.23,0,.74.03,1.48.07,2.23h-1.62v-.02ZM100.84,62.11c1.12,0,1.99-.24,2.62-.71.63-.48.94-1.1.94-1.86s-.31-1.4-.94-1.86c-.63-.46-1.51-.69-2.65-.69s-2.01.23-2.66.69-.98,1.08-.98,1.86.33,1.39.98,1.86c.65.48,1.55.71,2.69.71Z"/>
    <path d="M110.44,63.2v-13.38h1.74v3.19l-.28-.03c.17-.86.44-1.52.83-1.97.38-.46.85-.77,1.4-.95s1.15-.27,1.81-.27h1.15v1.76h-1.29c-1.1,0-1.97.28-2.6.84s-.95,1.46-.95,2.69v8.12h-1.81Z"/>
    <path d="M118.23,51.38v-1.57h7.98v1.57h-7.98ZM124.22,63.2c-.45,0-.88-.07-1.3-.2-.42-.13-.79-.34-1.12-.62-.33-.28-.58-.63-.77-1.05-.19-.42-.28-.93-.28-1.53v-13.33h1.76v13.44c0,.5.17.92.5,1.25.34.33.74.49,1.2.49h1.99v1.54h-1.99.01Z"/>
    <path d="M129.34,63.2v-13.38h1.71v3.58h-.48c.21-.75.5-1.37.88-1.86s.82-.89,1.3-1.19c.49-.3.98-.51,1.48-.63.5-.12.98-.18,1.43-.18,1.51,0,2.74.48,3.7,1.44.95.96,1.43,2.43,1.43,4.41v7.81h-1.79v-7.59c0-1.57-.35-2.7-1.06-3.39-.71-.69-1.61-1.04-2.69-1.04-.75,0-1.43.17-2.04.5-.62.34-1.12.83-1.5,1.48-.38.65-.57,1.47-.57,2.46v7.56h-1.79v.02Z"/>
    <path d="M150.76,63.48c-1.31,0-2.46-.29-3.47-.88s-1.79-1.4-2.35-2.44-.84-2.24-.84-3.6v-.28c0-1.31.26-2.46.77-3.47.51-1.01,1.24-1.81,2.18-2.39.94-.59,2.02-.88,3.23-.88s2.32.31,3.22.92,1.56,1.48,1.99,2.6c.43,1.12.55,2.43.36,3.92h-10.47v-1.48h9.52l-.78.78c.13-1.06.05-1.98-.25-2.76-.3-.77-.76-1.37-1.37-1.79-.62-.42-1.34-.63-2.18-.63-.91,0-1.7.22-2.37.66-.66.44-1.18,1.05-1.54,1.82s-.55,1.68-.55,2.7v.28c0,1.03.21,1.94.62,2.73.41.79.99,1.41,1.74,1.86s1.62.67,2.63.67c.71,0,1.36-.09,1.95-.28s1.09-.46,1.5-.81l1.01,1.15c-.5.5-1.15.9-1.93,1.18s-1.65.42-2.6.42h-.02Z"/>
    <path d="M159.3,63.2v-13.38h1.74v3.19l-.28-.03c.17-.86.44-1.52.83-1.97.38-.46.85-.77,1.4-.95.55-.18,1.15-.27,1.81-.27h1.15v1.76h-1.29c-1.1,0-1.97.28-2.6.84s-.95,1.46-.95,2.69v8.12h-1.81Z"/>
    <path d="M175.12,63.2v-19.6h5.82c1.29,0,2.41.23,3.36.69s1.69,1.12,2.23,1.97c.53.86.8,1.89.8,3.11s-.27,2.25-.8,3.11-1.27,1.52-2.23,1.97-2.07.69-3.36.69h-4.93v-1.6h5.01c1.33,0,2.4-.37,3.23-1.12s1.25-1.76,1.25-3.05-.42-2.27-1.25-3.01c-.83-.74-1.91-1.11-3.23-1.11h-4.82l.78-.76v18.7h-1.88.02Z"/>
    <path d="M190.19,63.2v-13.38h1.74v3.19l-.28-.03c.17-.86.44-1.52.83-1.97.38-.46.85-.77,1.4-.95.55-.18,1.15-.27,1.81-.27h1.15v1.76h-1.29c-1.1,0-1.97.28-2.6.84s-.95,1.46-.95,2.69v8.12h-1.81Z"/>
    <path d="M204.52,63.48c-1.27,0-2.4-.29-3.39-.88s-1.76-1.4-2.32-2.44c-.56-1.04-.84-2.24-.84-3.6v-.25c0-1.33.28-2.5.84-3.51.56-1.02,1.33-1.82,2.32-2.39.99-.58,2.12-.87,3.39-.87s2.37.28,3.36.85,1.76,1.36,2.32,2.38c.56,1.02.84,2.18.84,3.49v.31c0,1.36-.28,2.56-.84,3.6s-1.33,1.85-2.32,2.44-2.11.88-3.36.88h0ZM204.52,61.88c.93,0,1.76-.23,2.48-.69s1.28-1.08,1.68-1.88c.4-.79.6-1.71.6-2.76v-.31c0-1.01-.2-1.89-.6-2.66-.4-.76-.96-1.37-1.68-1.81-.72-.44-1.54-.66-2.48-.66s-1.76.22-2.48.67-1.28,1.06-1.69,1.83c-.41.78-.62,1.67-.62,2.67v.25c0,1.05.21,1.96.62,2.76.41.79.98,1.42,1.69,1.88s1.54.69,2.48.69v.02Z"/>
    <path d="M213.09,68.8v-1.51h7.92c.73,0,1.3-.18,1.72-.55.42-.36.63-.86.63-1.5,0-.6-.21-1.06-.63-1.4s-.99-.5-1.72-.5h-4.26c-.69,0-1.21-.16-1.57-.49-.36-.33-.55-.73-.59-1.22s.07-.96.31-1.43l1.2-2.41,1.54.42-1.12,2.16c-.09.21-.15.42-.18.66-.03.23.03.43.18.6s.41.25.78.25h3.92c1.16,0,2.08.29,2.77.87s1.04,1.41,1.04,2.49c0,.71-.16,1.33-.48,1.86-.32.53-.77.95-1.34,1.25-.58.3-1.27.45-2.07.45h-8.06.01ZM219.22,59.22c-1.08,0-2.05-.21-2.9-.62-.85-.41-1.52-.98-2-1.71-.49-.73-.73-1.55-.73-2.46v-.25c0-.91.24-1.72.73-2.42.49-.7,1.15-1.25,2-1.64s1.82-.59,2.9-.59,2.08.2,2.93.59c.85.39,1.51.93,1.99,1.61.48.68.71,1.47.71,2.37v.34c0,.92-.24,1.74-.71,2.46-.48.73-1.14,1.3-1.99,1.71s-1.83.62-2.93.62h0ZM219.22,57.8c1.14,0,2.07-.32,2.8-.95s1.09-1.44,1.09-2.41v-.25c0-.93-.36-1.69-1.09-2.28s-1.66-.88-2.8-.88-2.07.3-2.8.9c-.73.6-1.09,1.37-1.09,2.32v.2c0,.97.36,1.77,1.09,2.41.73.63,1.66.95,2.8.95h0ZM219.45,50.71l1.99-4.06h1.79l-2.16,4.06h-1.62Z"/>
    <path d="M228.24,63.2v-13.38h1.74v3.19l-.28-.03c.17-.86.44-1.52.83-1.97.38-.46.85-.77,1.4-.95.55-.18,1.15-.27,1.81-.27h1.15v1.76h-1.29c-1.1,0-1.97.28-2.6.84s-.95,1.46-.95,2.69v8.12h-1.81Z"/>
    <path d="M241.12,63.48c-1.57,0-2.81-.36-3.74-1.08-.92-.72-1.39-1.67-1.39-2.84,0-.76.21-1.45.62-2.06.41-.61,1.02-1.09,1.82-1.44s1.76-.53,2.88-.53c1.55,0,2.75.35,3.6,1.04.85.69,1.27,1.61,1.27,2.74h-.34c0,1.31-.39,2.33-1.18,3.07-.78.74-1.97,1.11-3.56,1.11h.02ZM245.24,63.2l-.03-4.87-.2-.53v-3.28c0-1.16-.29-2.01-.87-2.55s-1.42-.81-2.52-.81c-.73,0-1.48.14-2.25.42s-1.45.71-2.03,1.29l-.87-1.26c.63-.69,1.41-1.21,2.34-1.55.92-.34,1.88-.52,2.87-.52s1.89.18,2.66.55,1.36.91,1.79,1.64.64,1.65.64,2.77v4.26c0,.75,0,1.49,0,2.23,0,.74.03,1.48.07,2.23h-1.62v-.02ZM241.46,62.11c1.12,0,1.99-.24,2.62-.71.62-.48.94-1.1.94-1.86s-.31-1.4-.94-1.86-1.51-.69-2.65-.69-2.01.23-2.66.69c-.65.46-.98,1.08-.98,1.86s.33,1.39.98,1.86c.65.48,1.55.71,2.69.71Z"/>
    <path d="M251.06,63.2v-13.38h1.71v3.44l-.42-.03c.28-.93.68-1.67,1.2-2.2s1.11-.92,1.75-1.15c.64-.23,1.27-.35,1.89-.35,1.18,0,2.17.31,2.98.92.81.62,1.36,1.57,1.64,2.86h-.64c.32-.97.76-1.73,1.33-2.28.57-.55,1.19-.94,1.86-1.16s1.31-.34,1.9-.34c1.47,0,2.66.47,3.56,1.41s1.34,2.4,1.34,4.38v7.87h-1.74v-7.67c0-1.55-.33-2.66-.98-3.33s-1.51-1.01-2.58-1.01-2,.37-2.74,1.11c-.75.74-1.12,1.81-1.12,3.21v7.7h-1.76v-7.67c0-1.55-.32-2.66-.97-3.33-.64-.67-1.5-1.01-2.56-1.01s-2.03.37-2.77,1.11c-.75.74-1.12,1.81-1.12,3.21v7.7h-1.76Z"/>
  </g>
</svg>