<?xml version="1.0" standalone="no"?>
<svg xmlns="http://www.w3.org/2000/svg" width="1920px" height="1080px" viewBox="0 0 1920 1080"><defs/><g><g><g><rect x="0" y="0" width="1920" height="1080" fill="rgb(255,255,255)"/><g><rect x="0" y="0" width="687.359375" height="1080" fill="rgb(48,186,120)"/><g><g><g><text x="62" y="345.41" dominant-baseline="text-before-edge" font-size="173.069px" font-weight="200" font-style="normal" font-family="SUSE, ui-sans-serif, system-ui, sans-serif" letter-spacing="-4.32672px" fill="rgb(12,50,44)">→</text><text x="62" y="515" dominant-baseline="text-before-edge" font-size="173.069px" font-weight="200" font-style="normal" font-family="SUSE, ui-sans-serif, system-ui, sans-serif" letter-spacing="-4.32672px" fill="rgb(12,50,44)">heading</text></g></g></g></g><g><g><g><g><g><g><text x="783.36" y="258.05" dominant-baseline="text-before-edge" font-size="87.2411px" font-weight="400" font-style="normal" font-family="SUSE, ui-sans-serif, system-ui, sans-serif" letter-spacing="-0.436206px" fill="rgb(12,50,44)">Subheading</text></g></g><g><g><path d="M5.29,0L5.29,-40.71L18.67,-40.71Q24.49,-40.71 27.77,-37.95Q31.06,-35.19 31.06,-30.59Q31.06,-27.28 29.34,-24.63Q27.63,-21.98 24.19,-21Q28.09,-20.07 30.27,-17.39Q32.45,-14.71 32.45,-11.17Q32.45,-6.11 29.05,-3.05Q25.65,0 19.08,0L5.29,0ZM18.32,-37.4L9.13,-37.4L9.13,-22.51L18.73,-22.51Q22.8,-22.51 24.98,-24.66Q27.16,-26.81 27.16,-30.19Q27.16,-33.44 24.81,-35.42Q22.45,-37.4 18.32,-37.4ZM19.19,-19.31L9.13,-19.31L9.13,-3.32L18.55,-3.32Q23.5,-3.32 25.97,-5.55Q28.44,-7.79 28.44,-11.46Q28.44,-14.83 25.91,-17.07Q23.38,-19.31 19.19,-19.31ZM51.7,0.58Q47.75,0.58 44.67,-1.25Q41.58,-3.08 39.84,-6.31Q38.1,-9.54 38.1,-13.78L38.1,-14.31Q38.1,-18.44 39.84,-21.61Q41.58,-24.78 44.67,-26.58Q47.75,-28.38 51.7,-28.38Q55.6,-28.38 58.68,-26.58Q61.77,-24.78 63.51,-21.64Q65.26,-18.5 65.26,-14.42L65.26,-13.78Q65.26,-9.54 63.51,-6.31Q61.77,-3.08 58.68,-1.25Q55.6,0.58 51.7,0.58ZM51.7,-2.73Q54.61,-2.73 56.82,-4.16Q59.03,-5.58 60.28,-8.06Q61.53,-10.53 61.53,-13.78L61.53,-14.42Q61.53,-17.56 60.28,-19.95Q59.03,-22.33 56.82,-23.7Q54.61,-25.07 51.7,-25.07Q48.8,-25.07 46.56,-23.67Q44.32,-22.28 43.04,-19.86Q41.76,-17.45 41.76,-14.31L41.76,-13.78Q41.76,-10.53 43.04,-8.06Q44.32,-5.58 46.56,-4.16Q48.8,-2.73 51.7,-2.73ZM83.64,0.58Q79.8,0.58 76.86,-1.22Q73.92,-3.02 72.26,-6.28Q70.61,-9.54 70.61,-13.78L70.61,-14.31Q70.61,-18.44 72.29,-21.61Q73.98,-24.78 76.92,-26.58Q79.85,-28.38 83.64,-28.38Q87.01,-28.38 89.65,-26.78Q92.3,-25.18 93.87,-22.45L93.87,-42.46L97.59,-42.46L97.59,0L94.22,0L94.22,-5.7Q92.59,-2.79 89.86,-1.11Q87.12,0.58 83.64,0.58ZM84.1,-2.73Q86.95,-2.73 89.22,-4.13Q91.49,-5.53 92.8,-8.03Q94.1,-10.53 94.1,-13.9Q94.1,-17.22 92.8,-19.72Q91.49,-22.22 89.22,-23.64Q86.95,-25.07 84.1,-25.07Q81.25,-25.07 79.04,-23.7Q76.83,-22.33 75.58,-19.92Q74.33,-17.51 74.33,-14.31L74.33,-13.78Q74.33,-10.47 75.58,-7.97Q76.83,-5.47 79.04,-4.1Q81.25,-2.73 84.1,-2.73ZM103.35,11.63L103.35,8.43L108.64,8.43Q110.1,8.43 110.94,7.42Q111.78,6.4 112.31,5.06L114.46,0.23L102.94,-27.8L107.02,-27.8L116.44,-4.3L125.57,-27.8L129.64,-27.8L116.09,5.18Q115.45,6.75 114.55,8.23Q113.65,9.71 112.19,10.67Q110.74,11.63 108.47,11.63L103.35,11.63ZM154.77,0L154.77,-37.16L142.14,-37.16L142.14,-40.71L171.34,-40.71L171.34,-37.16L158.66,-37.16L158.66,0L154.77,0ZM183.21,0.58Q179.13,0.58 175.99,-1.25Q172.85,-3.08 171.11,-6.31Q169.36,-9.54 169.36,-13.78L169.36,-14.37Q169.36,-18.44 170.99,-21.58Q172.62,-24.72 175.5,-26.55Q178.38,-28.38 182.22,-28.38Q186.11,-28.38 188.91,-26.46Q191.7,-24.54 193.01,-21.05Q194.31,-17.56 193.79,-12.91L173.03,-12.91Q173.14,-10.06 174.45,-7.76Q175.76,-5.47 178.03,-4.16Q180.3,-2.85 183.32,-2.85Q187.92,-2.85 190.53,-5.12L192.63,-2.73Q191.06,-1.16 188.59,-0.29Q186.11,0.58 183.21,0.58ZM182.22,-25.13Q178.38,-25.13 175.97,-22.62Q173.55,-20.12 173.09,-15.99L190.3,-15.99Q190.36,-20.18 188.12,-22.65Q185.88,-25.13 182.22,-25.13ZM196.76,0L206.82,-13.84L197.05,-27.8L201.41,-27.8L209.26,-16.17L217.17,-27.8L221.42,-27.8L211.7,-13.84L221.71,0L217.23,0L209.2,-11.46L201.12,0L196.76,0ZM236.25,0Q234.39,0 232.76,-0.76Q231.13,-1.51 230.08,-3.05Q229.04,-4.59 229.04,-7.04L229.04,-24.54L223.86,-24.54L223.86,-27.8L229.04,-27.8L229.04,-34.72L232.7,-34.72L232.7,-27.8L240.44,-27.8L240.44,-24.54L232.7,-24.54L232.7,-6.8Q232.7,-5.23 233.75,-4.22Q234.79,-3.2 236.31,-3.2L240.44,-3.2L240.44,0L236.25,0Z" transform="translate(783.36,476.31)" fill="rgb(12,50,44)"/></g><g><g><path d="M11.98,0.52Q9.07,0.52 6.4,-0.41Q3.72,-1.34 2.09,-2.91L3.78,-5.47Q5.29,-4.07 7.5,-3.26Q9.71,-2.44 11.98,-2.44Q14.83,-2.44 16.63,-3.78Q18.44,-5.12 18.44,-7.33Q18.44,-9.13 17.33,-10.12Q16.23,-11.11 14.45,-11.63Q12.68,-12.16 10.73,-12.65Q8.78,-13.14 7.04,-13.93Q5.29,-14.71 4.19,-16.17Q3.08,-17.62 3.08,-20.24Q3.08,-23.85 5.76,-26.11Q8.43,-28.38 12.91,-28.38Q15.47,-28.38 17.71,-27.6Q19.95,-26.81 21.64,-25.53L19.95,-22.92Q18.5,-24.08 16.69,-24.72Q14.89,-25.36 12.85,-25.36Q10.06,-25.36 8.35,-24.02Q6.63,-22.68 6.63,-20.53Q6.63,-18.73 7.74,-17.77Q8.84,-16.81 10.61,-16.26Q12.39,-15.7 14.37,-15.21Q16.34,-14.71 18.12,-13.9Q19.89,-13.09 21,-11.57Q22.1,-10.06 22.1,-7.44Q22.1,-3.95 19.28,-1.72Q16.46,0.52 11.98,0.52ZM39.49,0.58Q36.41,0.58 33.97,-0.61Q31.52,-1.8 30.13,-4.33Q28.73,-6.86 28.73,-10.99L28.73,-27.8L32.4,-27.8L32.4,-11.57Q32.4,-6.69 34.61,-4.77Q36.82,-2.85 40.13,-2.85Q42.4,-2.85 44.32,-3.87Q46.24,-4.89 47.43,-6.89Q48.62,-8.9 48.62,-11.98L48.62,-27.8L52.23,-27.8L52.23,0L48.85,0L48.85,-4.59Q47.17,-1.69 44.49,-0.55Q41.82,0.58 39.49,0.58ZM61.42,11.63L61.42,-27.8L64.91,-27.8L64.91,-22.22Q66.54,-25.07 69.24,-26.72Q71.94,-28.38 75.38,-28.38Q79.16,-28.38 82.09,-26.58Q85.03,-24.78 86.72,-21.61Q88.4,-18.44 88.4,-14.31L88.4,-13.78Q88.4,-9.54 86.75,-6.28Q85.09,-3.02 82.15,-1.22Q79.21,0.58 75.38,0.58Q72.06,0.58 69.39,-0.99Q66.71,-2.56 65.14,-5.29L65.14,11.63L61.42,11.63ZM74.91,-2.73Q77.76,-2.73 79.97,-4.1Q82.18,-5.47 83.43,-7.97Q84.68,-10.47 84.68,-13.78L84.68,-14.31Q84.68,-17.51 83.43,-19.92Q82.18,-22.33 79.97,-23.7Q77.76,-25.07 74.91,-25.07Q72.06,-25.07 69.79,-23.64Q67.52,-22.22 66.22,-19.72Q64.91,-17.22 64.91,-13.9Q64.91,-10.53 66.22,-8.03Q67.52,-5.53 69.79,-4.13Q72.06,-2.73 74.91,-2.73ZM95.67,11.63L95.67,-27.8L99.16,-27.8L99.16,-22.22Q100.79,-25.07 103.5,-26.72Q106.2,-28.38 109.63,-28.38Q113.41,-28.38 116.35,-26.58Q119.29,-24.78 120.97,-21.61Q122.66,-18.44 122.66,-14.31L122.66,-13.78Q122.66,-9.54 121,-6.28Q119.35,-3.02 116.41,-1.22Q113.47,0.58 109.63,0.58Q106.32,0.58 103.64,-0.99Q100.97,-2.56 99.4,-5.29L99.4,11.63L95.67,11.63ZM109.17,-2.73Q112.02,-2.73 114.23,-4.1Q116.44,-5.47 117.69,-7.97Q118.94,-10.47 118.94,-13.78L118.94,-14.31Q118.94,-17.51 117.69,-19.92Q116.44,-22.33 114.23,-23.7Q112.02,-25.07 109.17,-25.07Q106.32,-25.07 104.05,-23.64Q101.78,-22.22 100.47,-19.72Q99.16,-17.22 99.16,-13.9Q99.16,-10.53 100.47,-8.03Q101.78,-5.53 104.05,-4.13Q106.32,-2.73 109.17,-2.73ZM141.62,0.58Q137.67,0.58 134.58,-1.25Q131.5,-3.08 129.76,-6.31Q128.01,-9.54 128.01,-13.78L128.01,-14.31Q128.01,-18.44 129.76,-21.61Q131.5,-24.78 134.58,-26.58Q137.67,-28.38 141.62,-28.38Q145.52,-28.38 148.6,-26.58Q151.68,-24.78 153.43,-21.64Q155.17,-18.5 155.17,-14.42L155.17,-13.78Q155.17,-9.54 153.43,-6.31Q151.68,-3.08 148.6,-1.25Q145.52,0.58 141.62,0.58ZM141.62,-2.73Q144.53,-2.73 146.74,-4.16Q148.95,-5.58 150.2,-8.06Q151.45,-10.53 151.45,-13.78L151.45,-14.42Q151.45,-17.56 150.2,-19.95Q148.95,-22.33 146.74,-23.7Q144.53,-25.07 141.62,-25.07Q138.71,-25.07 136.47,-23.67Q134.23,-22.28 132.96,-19.86Q131.68,-17.45 131.68,-14.31L131.68,-13.78Q131.68,-10.53 132.96,-8.06Q134.23,-5.58 136.47,-4.16Q138.71,-2.73 141.62,-2.73ZM162.44,0L162.44,-27.8L166.05,-27.8L166.05,-23.26Q167.1,-25.94 169.16,-26.9Q171.23,-27.86 173.84,-27.86L176.23,-27.86L176.23,-24.19L173.55,-24.19Q170.12,-24.19 168.14,-22.42Q166.17,-20.65 166.17,-16.87L166.17,0L162.44,0ZM190.94,0Q189.08,0 187.45,-0.76Q185.82,-1.51 184.78,-3.05Q183.73,-4.59 183.73,-7.04L183.73,-24.54L178.55,-24.54L178.55,-27.8L183.73,-27.8L183.73,-34.72L187.39,-34.72L187.39,-27.8L195.13,-27.8L195.13,-24.54L187.39,-24.54L187.39,-6.8Q187.39,-5.23 188.44,-4.22Q189.49,-3.2 191,-3.2L195.13,-3.2L195.13,0L190.94,0ZM208.97,0.52Q206.06,0.52 203.39,-0.41Q200.71,-1.34 199.08,-2.91L200.77,-5.47Q202.28,-4.07 204.49,-3.26Q206.7,-2.44 208.97,-2.44Q211.82,-2.44 213.62,-3.78Q215.43,-5.12 215.43,-7.33Q215.43,-9.13 214.32,-10.12Q213.22,-11.11 211.44,-11.63Q209.67,-12.16 207.72,-12.65Q205.77,-13.14 204.03,-13.93Q202.28,-14.71 201.18,-16.17Q200.07,-17.62 200.07,-20.24Q200.07,-23.85 202.75,-26.11Q205.42,-28.38 209.9,-28.38Q212.46,-28.38 214.7,-27.6Q216.94,-26.81 218.63,-25.53L216.94,-22.92Q215.49,-24.08 213.68,-24.72Q211.88,-25.36 209.84,-25.36Q207.05,-25.36 205.34,-24.02Q203.62,-22.68 203.62,-20.53Q203.62,-18.73 204.73,-17.77Q205.83,-16.81 207.6,-16.26Q209.38,-15.7 211.36,-15.21Q213.33,-14.71 215.11,-13.9Q216.88,-13.09 217.99,-11.57Q219.09,-10.06 219.09,-7.44Q219.09,-3.95 216.27,-1.72Q213.45,0.52 208.97,0.52ZM253.99,0.58Q250.56,0.58 247.79,-1.08Q245.03,-2.73 243.46,-5.7L243.46,0L240.03,0L240.03,-42.46L243.75,-42.46L243.75,-22.45Q245.32,-25.18 247.97,-26.78Q250.61,-28.38 253.99,-28.38Q257.77,-28.38 260.71,-26.58Q263.64,-24.78 265.33,-21.61Q267.02,-18.44 267.02,-14.31L267.02,-13.78Q267.02,-9.54 265.36,-6.28Q263.7,-3.02 260.76,-1.22Q257.83,0.58 253.99,0.58ZM253.52,-2.73Q256.37,-2.73 258.58,-4.1Q260.79,-5.47 262.04,-7.97Q263.29,-10.47 263.29,-13.78L263.29,-14.31Q263.29,-17.51 262.04,-19.92Q260.79,-22.33 258.58,-23.7Q256.37,-25.07 253.52,-25.07Q250.67,-25.07 248.4,-23.64Q246.14,-22.22 244.83,-19.72Q243.52,-17.22 243.52,-13.9Q243.52,-10.53 244.83,-8.03Q246.14,-5.53 248.4,-4.13Q250.67,-2.73 253.52,-2.73ZM284.64,0.58Q281.56,0.58 279.11,-0.61Q276.67,-1.8 275.27,-4.33Q273.88,-6.86 273.88,-10.99L273.88,-27.8L277.54,-27.8L277.54,-11.57Q277.54,-6.69 279.75,-4.77Q281.96,-2.85 285.28,-2.85Q287.55,-2.85 289.47,-3.87Q291.39,-4.89 292.58,-6.89Q293.77,-8.9 293.77,-11.98L293.77,-27.8L297.38,-27.8L297.38,0L294,0L294,-4.59Q292.32,-1.69 289.64,-0.55Q286.96,0.58 284.64,0.58ZM313.6,0Q310.4,0 308.46,-1.86Q306.51,-3.72 306.51,-6.8L306.51,-39.26L301.16,-39.26L301.16,-42.46L310.23,-42.46L310.23,-6.75Q310.23,-5.23 311.25,-4.22Q312.26,-3.2 313.78,-3.2L316.28,-3.2L316.28,0L313.6,0ZM328.72,0Q325.53,0 323.58,-1.86Q321.63,-3.72 321.63,-6.8L321.63,-39.26L316.28,-39.26L316.28,-42.46L325.35,-42.46L325.35,-6.75Q325.35,-5.23 326.37,-4.22Q327.39,-3.2 328.9,-3.2L331.4,-3.2L331.4,0L328.72,0ZM348.21,0.58Q344.14,0.58 341,-1.25Q337.86,-3.08 336.11,-6.31Q334.37,-9.54 334.37,-13.78L334.37,-14.37Q334.37,-18.44 335.99,-21.58Q337.62,-24.72 340.5,-26.55Q343.38,-28.38 347.22,-28.38Q351.12,-28.38 353.91,-26.46Q356.7,-24.54 358.01,-21.05Q359.32,-17.56 358.79,-12.91L338.03,-12.91Q338.15,-10.06 339.45,-7.76Q340.76,-5.47 343.03,-4.16Q345.3,-2.85 348.32,-2.85Q352.92,-2.85 355.54,-5.12L357.63,-2.73Q356.06,-1.16 353.59,-0.29Q351.12,0.58 348.21,0.58ZM347.22,-25.13Q343.38,-25.13 340.97,-22.62Q338.55,-20.12 338.09,-15.99L355.3,-15.99Q355.36,-20.18 353.12,-22.65Q350.88,-25.13 347.22,-25.13ZM374.55,0Q372.69,0 371.07,-0.76Q369.44,-1.51 368.39,-3.05Q367.34,-4.59 367.34,-7.04L367.34,-24.54L362.17,-24.54L362.17,-27.8L367.34,-27.8L367.34,-34.72L371.01,-34.72L371.01,-27.8L378.74,-27.8L378.74,-24.54L371.01,-24.54L371.01,-6.8Q371.01,-5.23 372.05,-4.22Q373.1,-3.2 374.61,-3.2L378.74,-3.2L378.74,0L374.55,0ZM392.58,0.52Q389.68,0.52 387,-0.41Q384.33,-1.34 382.7,-2.91L384.38,-5.47Q385.9,-4.07 388.11,-3.26Q390.32,-2.44 392.58,-2.44Q395.43,-2.44 397.24,-3.78Q399.04,-5.12 399.04,-7.33Q399.04,-9.13 397.94,-10.12Q396.83,-11.11 395.06,-11.63Q393.28,-12.16 391.33,-12.65Q389.39,-13.14 387.64,-13.93Q385.9,-14.71 384.79,-16.17Q383.69,-17.62 383.69,-20.24Q383.69,-23.85 386.36,-26.11Q389.04,-28.38 393.52,-28.38Q396.07,-28.38 398.31,-27.6Q400.55,-26.81 402.24,-25.53L400.55,-22.92Q399.1,-24.08 397.3,-24.72Q395.49,-25.36 393.46,-25.36Q390.67,-25.36 388.95,-24.02Q387.23,-22.68 387.23,-20.53Q387.23,-18.73 388.34,-17.77Q389.44,-16.81 391.22,-16.26Q392.99,-15.7 394.97,-15.21Q396.95,-14.71 398.72,-13.9Q400.49,-13.09 401.6,-11.57Q402.7,-10.06 402.7,-7.44Q402.7,-3.95 399.88,-1.72Q397.06,0.52 392.58,0.52Z" transform="translate(847.33,595.53)" fill="rgb(12,50,44)"/><path d="M2.04,-18.84L2.04,-21.87L40.77,-21.87L24.83,-37.8L29.37,-37.8L46.82,-20.24L29.37,-2.97L25.01,-2.97L41,-18.84L2.04,-18.84Z" transform="translate(780.44,595.65)" fill="rgb(12,50,44)"/></g><g><path d="M11.63,0Q8.43,0 6.48,-1.86Q4.54,-3.72 4.54,-6.8L4.54,-39.26L-0.81,-39.26L-0.81,-42.46L8.26,-42.46L8.26,-6.75Q8.26,-5.23 9.28,-4.22Q10.29,-3.2 11.81,-3.2L14.31,-3.2L14.31,0L11.63,0ZM21.4,0L21.4,-24.54L15.82,-24.54L15.82,-27.8L25.07,-27.8L25.07,0L21.4,0ZM21.17,-34.2L21.17,-40.48L25.3,-40.48L25.3,-34.2L21.17,-34.2ZM34.31,0L34.31,-42.46L38.04,-42.46L38.04,-13.61L52.05,-27.8L56.65,-27.8L45.83,-16.75L57.75,0L53.16,0L43.21,-14.07L38.04,-8.78L38.04,0L34.31,0ZM73.4,0.58Q69.33,0.58 66.19,-1.25Q63.05,-3.08 61.3,-6.31Q59.56,-9.54 59.56,-13.78L59.56,-14.37Q59.56,-18.44 61.19,-21.58Q62.81,-24.72 65.69,-26.55Q68.57,-28.38 72.41,-28.38Q76.31,-28.38 79.1,-26.46Q81.89,-24.54 83.2,-21.05Q84.51,-17.56 83.98,-12.91L63.22,-12.91Q63.34,-10.06 64.65,-7.76Q65.95,-5.47 68.22,-4.16Q70.49,-2.85 73.52,-2.85Q78.11,-2.85 80.73,-5.12L82.82,-2.73Q81.25,-1.16 78.78,-0.29Q76.31,0.58 73.4,0.58ZM72.41,-25.13Q68.57,-25.13 66.16,-22.62Q63.74,-20.12 63.28,-15.99L80.49,-15.99Q80.55,-20.18 78.31,-22.65Q76.07,-25.13 72.41,-25.13ZM113.18,0Q111.32,0 109.69,-0.76Q108.06,-1.51 107.02,-3.05Q105.97,-4.59 105.97,-7.04L105.97,-24.54L100.79,-24.54L100.79,-27.8L105.97,-27.8L105.97,-34.72L109.63,-34.72L109.63,-27.8L117.37,-27.8L117.37,-24.54L109.63,-24.54L109.63,-6.8Q109.63,-5.23 110.68,-4.22Q111.73,-3.2 113.24,-3.2L117.37,-3.2L117.37,0L113.18,0ZM123.82,0L123.82,-42.46L127.37,-42.46L127.37,-22.86Q128.48,-24.95 130.13,-26.14Q131.79,-27.34 133.6,-27.86Q135.4,-28.38 136.97,-28.38Q141.68,-28.38 144.65,-25.39Q147.61,-22.39 147.61,-16.23L147.61,0L143.89,0L143.89,-15.76Q143.89,-20.65 141.68,-22.8Q139.47,-24.95 136.1,-24.95Q133.77,-24.95 131.82,-23.9Q129.87,-22.86 128.71,-20.82Q127.55,-18.79 127.55,-15.7L127.55,0L123.82,0ZM168.32,0.58Q164.25,0.58 161.11,-1.25Q157.96,-3.08 156.22,-6.31Q154.47,-9.54 154.47,-13.78L154.47,-14.37Q154.47,-18.44 156.1,-21.58Q157.73,-24.72 160.61,-26.55Q163.49,-28.38 167.33,-28.38Q171.23,-28.38 174.02,-26.46Q176.81,-24.54 178.12,-21.05Q179.43,-17.56 178.9,-12.91L158.14,-12.91Q158.26,-10.06 159.56,-7.76Q160.87,-5.47 163.14,-4.16Q165.41,-2.85 168.43,-2.85Q173.03,-2.85 175.65,-5.12L177.74,-2.73Q176.17,-1.16 173.7,-0.29Q171.23,0.58 168.32,0.58ZM167.33,-25.13Q163.49,-25.13 161.08,-22.62Q158.66,-20.12 158.2,-15.99L175.41,-15.99Q175.47,-20.18 173.23,-22.65Q170.99,-25.13 167.33,-25.13ZM193.38,0.52Q190.48,0.52 187.8,-0.41Q185.13,-1.34 183.5,-2.91L185.18,-5.47Q186.7,-4.07 188.91,-3.26Q191.12,-2.44 193.38,-2.44Q196.23,-2.44 198.04,-3.78Q199.84,-5.12 199.84,-7.33Q199.84,-9.13 198.74,-10.12Q197.63,-11.11 195.86,-11.63Q194.08,-12.16 192.13,-12.65Q190.19,-13.14 188.44,-13.93Q186.7,-14.71 185.59,-16.17Q184.49,-17.62 184.49,-20.24Q184.49,-23.85 187.16,-26.11Q189.84,-28.38 194.31,-28.38Q196.87,-28.38 199.11,-27.6Q201.35,-26.81 203.04,-25.53L201.35,-22.92Q199.9,-24.08 198.1,-24.72Q196.29,-25.36 194.26,-25.36Q191.47,-25.36 189.75,-24.02Q188.03,-22.68 188.03,-20.53Q188.03,-18.73 189.14,-17.77Q190.24,-16.81 192.02,-16.26Q193.79,-15.7 195.77,-15.21Q197.75,-14.71 199.52,-13.9Q201.29,-13.09 202.4,-11.57Q203.5,-10.06 203.5,-7.44Q203.5,-3.95 200.68,-1.72Q197.86,0.52 193.38,0.52ZM222.41,0.58Q218.34,0.58 215.19,-1.25Q212.05,-3.08 210.31,-6.31Q208.56,-9.54 208.56,-13.78L208.56,-14.37Q208.56,-18.44 210.19,-21.58Q211.82,-24.72 214.7,-26.55Q217.58,-28.38 221.42,-28.38Q225.31,-28.38 228.11,-26.46Q230.9,-24.54 232.21,-21.05Q233.52,-17.56 232.99,-12.91L212.23,-12.91Q212.34,-10.06 213.65,-7.76Q214.96,-5.47 217.23,-4.16Q219.5,-2.85 222.52,-2.85Q227.12,-2.85 229.73,-5.12L231.83,-2.73Q230.26,-1.16 227.79,-0.29Q225.31,0.58 222.41,0.58ZM221.42,-25.13Q217.58,-25.13 215.17,-22.62Q212.75,-20.12 212.29,-15.99L229.5,-15.99Q229.56,-20.18 227.32,-22.65Q225.08,-25.13 221.42,-25.13Z" transform="translate(847.33,703.11)" fill="rgb(12,50,44)"/><path d="M2.04,-18.84L2.04,-21.87L40.77,-21.87L24.83,-37.8L29.37,-37.8L46.82,-20.24L29.37,-2.97L25.01,-2.97L41,-18.84L2.04,-18.84Z" transform="translate(780.44,703.23)" fill="rgb(12,50,44)"/></g></g><g><path d="M19.43,0.58Q16.75,0.58 14.51,-0.44Q12.27,-1.45 10.59,-3.26L10.59,0L3.61,0L3.61,-42.46L11.34,-42.46L11.34,-25.94Q12.91,-27.45 14.95,-28.27Q16.98,-29.08 19.37,-29.08Q23.21,-29.08 26.26,-27.25Q29.31,-25.42 31.12,-22.13Q32.92,-18.84 32.92,-14.54L32.92,-13.96Q32.92,-9.6 31.15,-6.31Q29.37,-3.02 26.35,-1.22Q23.32,0.58 19.43,0.58ZM18.2,-6.17Q21.05,-6.17 23.12,-8.23Q25.18,-10.29 25.18,-13.96L25.18,-14.54Q25.18,-18.2 23.12,-20.27Q21.05,-22.33 18.2,-22.33Q15.06,-22.33 12.94,-20.18Q10.82,-18.03 10.82,-14.25Q10.82,-10.41 12.94,-8.29Q15.06,-6.17 18.2,-6.17ZM51.76,0.58Q47.52,0.58 44.14,-1.28Q40.77,-3.14 38.79,-6.43Q36.82,-9.71 36.82,-14.02L36.82,-14.6Q36.82,-18.84 38.79,-22.1Q40.77,-25.36 44.14,-27.22Q47.52,-29.08 51.76,-29.08Q55.95,-29.08 59.32,-27.22Q62.7,-25.36 64.65,-22.1Q66.59,-18.84 66.59,-14.6L66.59,-14.02Q66.59,-9.71 64.65,-6.43Q62.7,-3.14 59.32,-1.28Q55.95,0.58 51.76,0.58ZM51.76,-6.17Q54.9,-6.17 56.88,-8.38Q58.86,-10.59 58.86,-14.02L58.86,-14.6Q58.86,-17.97 56.88,-20.15Q54.9,-22.33 51.76,-22.33Q48.56,-22.33 46.56,-20.15Q44.55,-17.97 44.55,-14.6L44.55,-14.02Q44.55,-10.59 46.56,-8.38Q48.56,-6.17 51.76,-6.17ZM81.02,0Q76.95,0 74.53,-2.18Q72.12,-4.36 72.12,-8.2L72.12,-35.94L67.64,-35.94L67.64,-42.46L79.85,-42.46L79.85,-8.03Q79.85,-7.39 80.32,-6.89Q80.79,-6.4 81.48,-6.4L84.62,-6.4L84.62,0L81.02,0ZM100.97,0.58Q97.13,0.58 94.07,-1.22Q91.02,-3.02 89.25,-6.31Q87.47,-9.6 87.47,-13.96L87.47,-14.54Q87.47,-18.84 89.28,-22.13Q91.08,-25.42 94.13,-27.25Q97.19,-29.08 101.03,-29.08Q103.41,-29.08 105.45,-28.27Q107.48,-27.45 109.05,-25.94L109.05,-42.46L116.79,-42.46L116.79,0L109.87,0L109.87,-3.32Q106.38,0.58 100.97,0.58ZM102.25,-6.17Q105.33,-6.17 107.45,-8.29Q109.57,-10.41 109.57,-14.25Q109.57,-18.03 107.45,-20.18Q105.33,-22.33 102.25,-22.33Q99.34,-22.33 97.27,-20.27Q95.21,-18.2 95.21,-14.54L95.21,-13.96Q95.21,-10.29 97.27,-8.23Q99.34,-6.17 102.25,-6.17Z" transform="translate(783.36,810.69)" fill="rgb(48,186,120)"/><path d="M12.91,0.58Q8.08,0.58 5.23,-1.69Q2.38,-3.95 2.38,-7.62Q2.38,-10.06 3.78,-11.92Q5.18,-13.78 7.65,-14.86Q10.12,-15.94 13.32,-15.94Q15.88,-15.94 17.83,-15.33Q19.77,-14.71 21.11,-13.61L21.11,-17.91Q21.11,-21.69 19.19,-23.35Q17.27,-25.01 14.02,-25.01Q11.69,-25.01 9.28,-24.17Q6.86,-23.32 5.23,-21.46L3.43,-24.08Q5.29,-26.23 8.2,-27.31Q11.11,-28.38 14.19,-28.38Q18.96,-28.38 21.87,-25.82Q24.78,-23.26 24.78,-18.09L24.78,-9.25Q24.78,-4.59 24.95,0L21.64,0L21.58,-3.02Q19.08,0.58 12.91,0.58ZM13.78,-2.27Q17.33,-2.27 19.22,-3.78Q21.11,-5.29 21.11,-7.62Q21.11,-10 19.19,-11.46Q17.27,-12.91 13.73,-12.91Q10.24,-12.91 8.2,-11.46Q6.17,-10 6.17,-7.62Q6.17,-5.29 8.2,-3.78Q10.24,-2.27 13.78,-2.27ZM33.68,0L33.68,-27.8L37.22,-27.8L37.22,-22.86Q38.33,-24.95 39.99,-26.14Q41.64,-27.34 43.45,-27.86Q45.25,-28.38 46.82,-28.38Q51.53,-28.38 54.5,-25.39Q57.46,-22.39 57.46,-16.23L57.46,0L53.74,0L53.74,-15.76Q53.74,-20.65 51.53,-22.8Q49.32,-24.95 45.95,-24.95Q43.62,-24.95 41.67,-23.9Q39.72,-22.86 38.56,-20.82Q37.4,-18.79 37.4,-15.7L37.4,0L33.68,0ZM77.35,0.58Q73.52,0.58 70.58,-1.22Q67.64,-3.02 65.98,-6.28Q64.33,-9.54 64.33,-13.78L64.33,-14.31Q64.33,-18.44 66.01,-21.61Q67.7,-24.78 70.64,-26.58Q73.57,-28.38 77.35,-28.38Q80.73,-28.38 83.37,-26.78Q86.02,-25.18 87.59,-22.45L87.59,-42.46L91.31,-42.46L91.31,0L87.94,0L87.94,-5.7Q86.31,-2.79 83.58,-1.11Q80.84,0.58 77.35,0.58ZM77.82,-2.73Q80.67,-2.73 82.94,-4.13Q85.21,-5.53 86.51,-8.03Q87.82,-10.53 87.82,-13.9Q87.82,-17.22 86.51,-19.72Q85.21,-22.22 82.94,-23.64Q80.67,-25.07 77.82,-25.07Q74.97,-25.07 72.76,-23.7Q70.55,-22.33 69.3,-19.92Q68.05,-17.51 68.05,-14.31L68.05,-13.78Q68.05,-10.47 69.3,-7.97Q70.55,-5.47 72.76,-4.1Q74.97,-2.73 77.82,-2.73Z" transform="translate(917.61,810.69)" fill="rgb(12,50,44)"/><path d="M9.31,0Q6.34,0 5,-1.72Q3.66,-3.43 4.42,-6.4L8.9,-24.66L3.43,-24.66L4.19,-27.74L13.2,-27.74L7.91,-6.28Q7.56,-4.77 8.2,-3.9Q8.84,-3.02 10.35,-3.02L12.16,-3.02L11.4,0L9.31,0ZM11.05,-34.2L12.56,-40.42L16.46,-40.42L14.95,-34.2L11.05,-34.2ZM24.78,0Q21.64,0 20.09,-2.04Q18.55,-4.07 19.31,-7.15L23.61,-24.66L18.96,-24.66L19.72,-27.74L24.37,-27.74L26.11,-34.66L29.55,-34.66L27.86,-27.74L34.95,-27.74L34.2,-24.66L27.1,-24.66L22.68,-6.69Q22.28,-5.12 23.06,-4.07Q23.85,-3.02 25.42,-3.02L28.91,-3.02L28.15,0L24.78,0ZM45.42,0.58Q42.98,0.58 40.65,-0.58Q38.33,-1.74 36.84,-4.22Q35.36,-6.69 35.36,-10.7Q35.36,-15.76 37.31,-19.75Q39.26,-23.73 42.52,-26.03Q45.77,-28.32 49.73,-28.32Q52.98,-28.32 55.25,-26.55Q57.52,-24.78 58.34,-21.52L59.91,-27.74L63.4,-27.74L58.1,-6.28Q57.75,-4.71 58.39,-3.87Q59.03,-3.02 60.55,-3.02L62.35,-3.02L61.59,0L59.79,0Q57.23,0 55.95,-1.22Q54.67,-2.44 54.73,-4.54Q53.16,-2.21 50.66,-0.81Q48.16,0.58 45.42,0.58ZM46.35,-2.56Q48.85,-2.56 50.83,-3.81Q52.81,-5.06 54.18,-7.12Q55.54,-9.19 56.24,-11.63Q56.94,-14.07 56.94,-16.4Q56.94,-20.53 55.11,-22.86Q53.28,-25.18 49.96,-25.18Q46.82,-25.18 44.32,-23.32Q41.82,-21.46 40.33,-18.35Q38.85,-15.24 38.85,-11.4Q38.85,-8.2 39.96,-6.25Q41.06,-4.3 42.78,-3.43Q44.49,-2.56 46.35,-2.56ZM73.4,0Q70.43,0 68.95,-1.86Q67.47,-3.72 68.22,-6.75L76.19,-39.43L70.84,-39.43L71.6,-42.46L80.49,-42.46L71.71,-6.69Q71.25,-5 72,-4.01Q72.76,-3.02 74.45,-3.02L76.83,-3.02L76.07,0L73.4,0ZM88.7,0Q85.73,0 84.39,-1.72Q83.05,-3.43 83.81,-6.4L88.29,-24.66L82.82,-24.66L83.58,-27.74L92.59,-27.74L87.3,-6.28Q86.95,-4.77 87.59,-3.9Q88.23,-3.02 89.74,-3.02L91.54,-3.02L90.79,0L88.7,0ZM90.44,-34.2L91.95,-40.42L95.85,-40.42L94.34,-34.2L90.44,-34.2ZM107.66,0.58Q104.92,0.58 102.51,-0.58Q100.09,-1.74 98.58,-4.27Q97.07,-6.8 97.07,-11.05Q97.07,-15.94 99.05,-19.86Q101.03,-23.79 104.46,-26.06Q107.89,-28.32 112.13,-28.32Q115.04,-28.32 117.25,-27.19Q119.46,-26.06 120.63,-24.19L118.07,-22.04Q117.02,-23.5 115.51,-24.28Q113.99,-25.07 112.02,-25.07Q108.76,-25.07 106.14,-23.26Q103.53,-21.46 102.04,-18.38Q100.56,-15.3 100.56,-11.4Q100.56,-8.2 101.66,-6.28Q102.77,-4.36 104.49,-3.52Q106.2,-2.68 108.06,-2.68Q111.9,-2.68 115.51,-5.76L117.31,-3.2Q115.22,-1.4 112.77,-0.41Q110.33,0.58 107.66,0.58Z" transform="translate(1027.39,810.69)" fill="rgb(12,50,44)"/></g></g></g><g><g><rect x="784.859375" y="880.65625" width="215.953125" height="101.796875" rx="997.5" fill="none" stroke="rgb(12,50,44)" stroke-width="3"/><text x="839.28" y="903.5" dominant-baseline="text-before-edge" font-size="44.1052px" font-weight="300" font-style="normal" font-family="SUSE, ui-sans-serif, system-ui, sans-serif" letter-spacing="0.220526px" fill="rgb(12,50,44)">→ cta</text></g></g></g></g><g><svg xmlns="http://www.w3.org/2000/svg" width="468.390625" height="108" viewBox="0 0 210.6 38.09" x="1355.609375" y="96" preserveAspectRatio="xMidYMid meet"><path d="M208.462 27.027h-13.555a1.9 1.9 0 0 1-1.896-1.896v-6.848h13.084a2.036 2.036 0 1 0 0-4.073H193.01V7.471c0-1.046.85-1.897 1.896-1.897h13.555a2.137 2.137 0 1 0 0-4.273h-13.555a6.177 6.177 0 0 0-6.17 6.17v17.66a6.177 6.177 0 0 0 6.17 6.17h13.555a2.136 2.136 0 1 0 0-4.274m-39.86-12.76c-2.866-.516-4.86-1.124-5.974-1.834q-1.675-1.063-1.675-2.873 0-1.944 1.719-3.19 1.72-1.244 4.844-1.245 3.167-.001 5.069 1.222 1.023.659 1.863 1.752a2.32 2.32 0 1 0 3.567-2.962 12 12 0 0 0-3.507-2.727Q171.588.917 167.47.917q-3.531 0-6.177 1.221-2.649 1.222-4.051 3.303a8.1 8.1 0 0 0-1.403 4.617q-.001 2.399 1.109 4.072 1.108 1.676 3.553 2.806 2.442 1.132 6.56 1.901 4.12.77 5.77 1.765 1.654.996 1.653 2.623.001 2.04-1.834 3.147-1.831 1.11-5.045 1.11-3.394 0-5.68-1.269a8.6 8.6 0 0 1-2.34-1.92c-.867-1.007-2.425-1.03-3.364-.09l-.008.01c-.86.857-.926 2.25-.115 3.154q3.874 4.323 11.552 4.322 3.53 0 6.224-1.064 2.691-1.062 4.184-3.053 1.495-1.992 1.495-4.618 0-2.442-1.086-4.094-1.086-1.651-3.463-2.76-2.375-1.109-6.403-1.834m-66.832.01q-4.299-.772-5.973-1.834-1.675-1.063-1.674-2.875 0-1.945 1.719-3.189t4.843-1.245q3.165 0 5.068 1.222 1.026.66 1.865 1.752a2.319 2.319 0 1 0 3.566-2.961 12 12 0 0 0-3.507-2.728q-2.92-1.493-7.038-1.493-3.53 0-6.176 1.221-2.649 1.222-4.051 3.305a8.1 8.1 0 0 0-1.403 4.615q-.001 2.4 1.109 4.072 1.11 1.677 3.552 2.807 2.444 1.132 6.562 1.901 4.117.77 5.77 1.765 1.651.995 1.652 2.624 0 2.037-1.832 3.145-1.835 1.11-5.046 1.11-3.396 0-5.681-1.269a8.6 8.6 0 0 1-2.337-1.919c-.868-1.008-2.427-1.03-3.368-.09l-.007.008c-.86.858-.926 2.251-.115 3.155q3.873 4.323 11.553 4.322 3.53 0 6.222-1.063t4.186-3.055q1.493-1.99 1.493-4.616 0-2.443-1.086-4.095t-3.463-2.76q-2.374-1.11-6.403-1.833M146.343 3.36v16.428q0 5.882-3.122 8.892-3.123 3.01-9.095 3.01-5.976 0-9.098-3.01-3.121-3.01-3.121-8.892V3.36a2.444 2.444 0 0 1 4.887 0V19.2q0 4.254 1.787 6.267t5.545 2.014q3.755 0 5.542-2.014 1.788-2.012 1.788-6.268V3.36a2.443 2.443 0 0 1 4.887 0M71.408 13.461a1.24 1.24 0 0 1-1.353 0 1.232 1.232 0 0 1-.192-1.896 1.206 1.206 0 0 1 1.737 0c.535.533.47 1.455-.192 1.896m1.936-2.687c.772 3.284-2.18 6.237-5.464 5.465a4.58 4.58 0 0 1-3.392-3.39c-.77-3.282 2.18-6.233 5.464-5.464a4.58 4.58 0 0 1 3.392 3.39m-22.112 17.66c.375.54.687 1.06.862 1.581.124.37.283.858.648 1.054q.029.017.06.027c.67.244 2.393.203 2.393.203h3.169c.27.004 2.652-.003 2.592-.269-.287-1.273-1.76-1.5-2.88-2.167-1.033-.616-2.013-1.314-2.457-2.515-.232-.62-.095-2.05.304-2.57a2.04 2.04 0 0 1 1.18-.729c.512-.109 1.042-.015 1.553.037.63.064 1.252.178 1.88.256 1.212.158 2.436.221 3.658.188 2.017-.056 4.039-.377 5.95-1.029 1.336-.448 2.65-1.054 3.786-1.897 1.29-.959.95-.869-.357-.735-1.566.16-3.146.184-4.717.091-1.466-.085-2.912-.258-4.238-.939-1.044-.539-1.941-1.079-2.77-1.914-.123-.126-.2-.494.027-.729.22-.228.686-.096.829.026 1.444 1.207 3.598 2.201 5.828 2.31 1.206.06 2.379.081 3.586.03.603-.029 1.513-.025 2.118-.03.312-.005 1.163.085 1.322-.246.048-.096.044-.207.04-.315-.177-4.826-.534-10.269-5.584-12.576C66.246 3.856 60.597 1.187 58.21.08c-.553-.263-1.2.153-1.2.77 0 1.611.082 3.927.083 6.035-1.143-1.164-3.068-1.899-4.535-2.573a43 43 0 0 0-5.136-1.957C43.9 1.265 40.253.592 36.587.228a41.5 41.5 0 0 0-12.483.63C17.36 2.256 10.73 5.5 5.699 10.242 2.609 13.152.186 17.29.022 21.488c-.234 5.943 1.43 9.134 4.49 12.423 4.88 5.242 15.384 5.976 19.638-.24 1.914-2.798 2.329-6.593.94-9.686-1.39-3.09-4.582-5.325-7.967-5.439-2.627-.087-5.426 1.25-6.433 3.678-.768 1.855-.331 4.147 1.068 5.587.545.562 1.283 1.022 2.089.842.475-.106.872-.463.944-.945.106-.71-.516-1.172-.9-1.718-.69-.985-.55-2.464.315-3.3.73-.708 1.81-.917 2.827-.914.946.002 1.913.171 2.729.648 1.147.675 1.909 1.911 2.173 3.217.787 3.903-2.386 7.074-6.688 7.323-2.201.13-4.441-.448-6.16-1.83-4.35-3.5-5.416-10.655-.443-14.474 4.72-3.625 10.68-2.69 14.195-.807 2.812 1.507 4.908 3.973 6.496 6.7.797 1.37 1.476 2.803 2.106 4.258.606 1.4 1.173 2.81 2.386 3.834.803.68 1.794.656 2.846.656h6.005c.816 0 .617-.544.265-.904-.796-.814-1.94-.998-3-1.289-2.42-.666-2.173-3.87-1.503-3.87 2.164 0 2.232.064 4.128.04 2.736-.038 3.564-.197 5.704.594 1.144.424 2.243 1.542 2.96 2.564"/></svg></g></g></g></g></g></svg>