<svg xmlns="http://www.w3.org/2000/svg" width="1123" height="794" viewBox="0 0 1123 794" xmlns:c2pa="http://c2pa.org/manifest"><metadata><c2pa:manifest>AAAHSmp1bWIAAAAeanVtZGMycGEAEQAQgAAAqgA4m3EDYzJwYQAAAAckanVtYgAAAEdqdW1kYzJtYQARABCAAACqADibcQN1cm46dXVpZDowZDBhMzdjMS1iMWZjLTQ3ZDMtOGM2MC05OGE1Zjg4MDdkY2IAAAACb2p1bWIAAAApanVtZGMyYXMAEQAQgAAAqgA4m3EDYzJwYS5hc3NlcnRpb25zAAAAAO5qdW1iAAAAKWp1bWRjYm9yABEAEIAAAKoAOJtxA2MycGEuYWN0aW9ucy52MgAAAAC9Y2JvcqFnYWN0aW9uc4GkZmFjdGlvbmxjMnBhLmNyZWF0ZWRxZGlnaXRhbFNvdXJjZVR5cGV4Pmh0dHA6Ly9jdi5pcHRjLm9yZy9uZXdzY29kZXMvZGlnaXRhbHNvdXJjZXR5cGUvZGlnaXRhbENyZWF0aW9ubXNvZnR3YXJlQWdlbnSiZG5hbWVlTG9sbHlndmVyc2lvbmcxLjE2OS4wZHdoZW50MjAyNi0wOS0wM1QwMzo1NjozMVoAAACranVtYgAAAChqdW1kY2JvcgARABCAAACqADibcQNjMnBhLmhhc2guZGF0YQAAAAB7Y2JvcqVqZXhjbHVzaW9uc4GiZXN0YXJ0GJhmbGVuZ3RoGQm4ZG5hbWVuanVtYmYgbWFuaWZlc3RjYWxnZnNoYTI1NmRoYXNoWCC8VCqIeSXnp821uq/0/CX8O54y49EX6Wo/6aS+6z/dqGNwYWRIAAAAAAAAAAAAAAClanVtYgAAACxqdW1kY2JvcgARABCAAACqADibcQN0b29scy5sb2xseS5leHBvcnQAAAAAcWNib3KmZ3N1cmZhY2VlYnVpbGRmZW5naW5lbW5vZGUgdjI0LjIwLjBib3NmZGFyd2luZmZvcm1hdGNzdmdkdG9vbGtjZXJ0aWZpY2F0ZWRkYXRleBgyMDI2LTA5LTAzVDAzOjU2OjMxLjE1MVoAAAIGanVtYgAAACdqdW1kYzJjbAARABCAAACqADibcQNjMnBhLmNsYWltLnYyAAAAAddjYm9ypmhkYzp0aXRsZWtjZXJ0aWZpY2F0ZWppbnN0YW5jZUlEeC11cm46dXVpZDo2YzRiNmMwMC0yZjllLTRlYTctOTM5Ni1hYTFiZjZmYzE5YjF0Y2xhaW1fZ2VuZXJhdG9yX2luZm+iZG5hbWVlTG9sbHlndmVyc2lvbmcxLjE2OS4wcmNyZWF0ZWRfYXNzZXJ0aW9uc4OiY3VybHgqc2VsZiNqdW1iZj1jMnBhLmFzc2VydGlvbnMvYzJwYS5hY3Rpb25zLnYyZGhhc2hYIPqiJaMW809/T0F96Boc3cjiuk71eZBAuZH/DOnGlgOfomN1cmx4KXNlbGYjanVtYmY9YzJwYS5hc3NlcnRpb25zL2MycGEuaGFzaC5kYXRhZGhhc2hYIHXlXo6JPT9HtrwRbTZjVKvGidAPYCKcQAJVY6+m6zDsomN1cmx4LXNlbGYjanVtYmY9YzJwYS5hc3NlcnRpb25zL3Rvb2xzLmxvbGx5LmV4cG9ydGRoYXNoWCA2YvEwlYgm9cqoVCgobpDIgXxfkzhwOgQQeTEhU5xRKmlzaWduYXR1cmV4GXNlbGYjanVtYmY9YzJwYS5zaWduYXR1cmVjYWxnZnNoYTI1NgAAAmBqdW1iAAAAKGp1bWRjMmNzABEAEIAAAKoAOJtxA2MycGEuc2lnbmF0dXJlAAAAAjBjYm9y0oRZAd+iASYYIYFZAdYwggHSMIIBeaADAgECAglhguECb6mCsa0wCgYIKoZIzj0EAwIwNTEOMAwGA1UECgwFTG9sbHkxIzAhBgNVBAMMGkxvbGx5IE9uLURldmljZSBDcmVkZW50aWFsMB4XDTI2MDkwMzAzNTUzMVoXDTI3MDkwMzAzNTYzMVowNTEOMAwGA1UECgwFTG9sbHkxIzAhBgNVBAMMGkxvbGx5IE9uLURldmljZSBDcmVkZW50aWFsMFkwEwYHKoZIzj0CAQYIKoZIzj0DAQcDQgAEBQCQKkPw1zWHHq8a0+GhR+YUdP8Jq98DiP24cIbp+jZx9iLT2gemewCK8ij3puanWwBPl08j209o3ujeXXUFUqNyMHAwCQYDVR0TBAIwADAOBgNVHQ8BAf8EBAMCB4AwEwYDVR0lBAwwCgYIKwYBBQUHAwQwHQYDVR0OBBYEFOyigJ3nbnz8CG9Q0i8Vno91NFxdMB8GA1UdIwQYMBaAFOyigJ3nbnz8CG9Q0i8Vno91NFxdMAoGCCqGSM49BAMCA0cAMEQCIGMZp5/zOVfP2sc4QjvWu7yYS9QmuAoCRGbKuiOmjFZ9AiBJVRB6rKR+EDKlFLiUNagezdiTFe+1rPMPhynVTiDTmaD2WEBdyb/hEs8FbllU25fGl+Eqz4isKL3DqQ5p+sls+HrFUM2lijekcWANq9+GfZJmqfvpCgt7juBh8ikdjclJRT4w</c2pa:manifest></metadata><path fill="#fff" d="M0 0h1123v794H0z"/><svg xmlns="http://www.w3.org/2000/svg" width="1123" height="794" aria-hidden="true" class="ct-frame" color="#1d1d1d" viewBox="0 0 1000 707"><path fill="none" stroke="#1d1d1d" stroke-width="5" d="M26 26h948v655H26z" style="fill:none;stroke:#1d1d1d;stroke-width:5px"/><path fill="none" stroke="#999" stroke-width="1.5" d="M40 40h920v627H40z" style="fill:none;stroke:#999;stroke-width:1.5px"/><g fill="#1d1d1d" style="fill:#1d1d1d"><path d="m0-8 8 8-8 8-8-8Z" style="fill:#1d1d1d" transform="translate(40 40)"/><path d="m0-8 8 8-8 8-8-8Z" style="fill:#1d1d1d" transform="translate(960 40)"/><path d="m0-8 8 8-8 8-8-8Z" style="fill:#1d1d1d" transform="translate(40 667)"/><path d="m0-8 8 8-8 8-8-8Z" style="fill:#1d1d1d" transform="translate(960 667)"/></g></svg><path fill="#838383" d="M405.69 81.88V67.73h1.93l7.77 11.75-.86.15v-11.9h2.1v14.15h-1.9L407 70.21l.79-.14v11.81zm24.89.26q-1.49 0-2.75-.53-1.27-.52-2.2-1.49t-1.44-2.31-.51-2.96v-.17q0-1.6.51-2.93.51-1.32 1.44-2.28t2.2-1.48 2.75-.52 2.75.52 2.19 1.48 1.44 2.28q.51 1.33.51 2.93v.17q0 1.62-.51 2.96t-1.44 2.31-2.19 1.49-2.75.53m0-2.05q1.39 0 2.45-.64 1.07-.65 1.68-1.82.61-1.18.61-2.78v-.17q0-1.57-.61-2.73-.61-1.15-1.68-1.79t-2.45-.64-2.45.64-1.69 1.79-.61 2.73v.17q0 1.6.61 2.78t1.69 1.82 2.45.64m13.93 1.79V67.73h4.8q1.47 0 2.56.49t1.69 1.46.6 2.39q0 1.46-.6 2.43t-1.69 1.45-2.56.47h-3.84v-1.78h3.75q1.25 0 2.02-.63t.77-1.91q0-1.21-.77-1.9t-2.02-.68h-3.49l.88-.81v13.17zm7.65 0-3.77-6.37h2.3l3.9 6.37zm11.57 0V68.63h2.12v13.25zm-4.15-12.23v-1.92h10.45v1.92zm26.15 12.23V67.73h2.11v14.15zm-9.31 0V67.73h2.11v14.15zm1.12-6.34v-1.91h8.99v1.91zm20.8 6.34-4.07-14.15h2.15l3.39 12.44h-.8l3.83-12.44h2.33l3.81 12.43h-.8l3.4-12.43h2.14l-4.08 14.15h-2.15l-3.79-12.54h.6l-3.78 12.54zm23.39-.66V68.39h2.12v12.83zm-2.42-11.57v-1.92h6.98v1.92zm0 12.23v-1.92h6.98v1.92zm13.91 0V67.73h1.93l7.77 11.75-.86.15v-11.9h2.1v14.15h-1.9l-7.73-11.67.79-.14v11.81zm18.74 0V67.73h4.94q1.49 0 2.75.5 1.27.49 2.22 1.42.94.92 1.46 2.17.53 1.26.53 2.78v.23q0 1.55-.53 2.85-.53 1.29-1.48 2.23t-2.22 1.46-2.73.51zm2.1-1.09-.87-.88h3.55q1.43 0 2.56-.64 1.13-.65 1.77-1.8t.64-2.64v-.23q0-1.47-.64-2.57-.63-1.09-1.75-1.71t-2.58-.62h-3.55l.87-.88zm27.44.43V68.39h2.12v12.83zm-2.42-11.57v-1.92h6.99v1.92zm0 12.23v-1.92h6.99v1.92zm13.92 0V67.73h1.93l7.76 11.75-.85.15v-11.9h2.1v14.15h-1.9l-7.74-11.67.8-.14v11.81zm22.38.26q-1.53 0-2.67-.56-1.15-.56-1.95-1.5l1.31-1.32q.79.83 1.61 1.22.83.38 1.78.38 1.31 0 2.05-.64.75-.63.75-1.64 0-.75-.39-1.21-.39-.47-1.03-.75t-1.41-.51q-.77-.21-1.53-.47-.77-.26-1.41-.67t-1.03-1.09q-.39-.67-.39-1.71 0-1.29.6-2.23t1.69-1.45 2.53-.52q1.32 0 2.38.45t1.75 1.23l-1.35 1.34q-.6-.62-1.27-.93t-1.51-.31q-1.24 0-1.98.61-.75.61-.75 1.61 0 .71.4 1.14.39.43 1.03.68t1.42.45 1.55.45q.78.26 1.42.68.64.41 1.04 1.11.39.7.39 1.8 0 1.32-.63 2.3-.64.98-1.77 1.52t-2.63.54m14.4-.26V68.63h2.12v13.25zm-4.14-12.23v-1.92h10.45v1.92zm18.41 11.57V68.39h2.12v12.83zm-2.43-11.57v-1.92h6.99v1.92zm0 12.23v-1.92h6.99v1.92zm16.67 0V68.63h2.12v13.25zm-4.15-12.23v-1.92h10.45v1.92zm22.1 12.49q-1.63 0-2.84-.57t-1.87-1.71-.67-2.82v-9.31h2.1v9.15q0 1.63.9 2.47.89.84 2.38.84 1.5 0 2.4-.84t.89-2.47v-9.15h2.1v9.31q0 1.68-.67 2.82t-1.87 1.71-2.85.57m15.8-.26V68.63h2.12v13.25zm-4.14-12.23v-1.92h10.44v1.92zm18.88 12.23q-1 0-1.65-.65-.65-.66-.65-1.65v-9.55q0-.99.65-1.65t1.65-.65h6.7v1.92h-6.02q-.39 0-.65.26-.26.27-.26.64v8.51q0 .37.26.64.26.26.65.26h6.02v1.92zm-1.27-6.18v-1.84h7.55v1.84z"/><path fill="#1d1d1d" d="M263.34 170.57q-4.22 0-7.91-1.46-3.68-1.47-6.46-4.14t-4.33-6.34-1.56-8.1v-.75q0-4.42 1.56-8.09 1.56-3.68 4.33-6.35t6.46-4.13 7.91-1.47q3.91 0 7.15 1.22t5.81 3.49l-4.4 5.18q-1.72-1.54-3.87-2.35t-4.69-.82q-3.8 0-6.79 1.69-3 1.68-4.7 4.68t-1.71 6.95v.75q0 3.95 1.71 6.95 1.7 3 4.7 4.69 2.99 1.68 6.79 1.68 2.61 0 4.81-.85 2.19-.86 3.95-2.53l4.42 5.18q-2.61 2.32-5.96 3.62t-7.22 1.3m29.17-.2q-4.1 0-7.21-1.77t-4.87-4.93q-1.75-3.17-1.75-7.36v-.57q0-3.93 1.62-7.04 1.63-3.12 4.58-4.96t6.84-1.84q4.13 0 7.05 2.01t4.26 5.63q1.35 3.64.71 8.6h-20.39v-4.59h16.94l-2.86 2.33q.42-2.77-.22-4.73-.65-1.96-2.06-2.99t-3.4-1.03q-2.18 0-3.67 1.12t-2.24 3.05-.76 4.44v1.34q0 2.18.91 3.93.92 1.75 2.66 2.76t4.17 1.01q2.1 0 3.54-.57 1.45-.57 2.59-1.7l3.67 3.86q-1.66 1.98-4.25 2.99t-5.86 1.01m17.34-.56v-27.35h6.26v7.92l-.82-.03q.2-3.14 1.31-4.9 1.12-1.77 2.92-2.48t3.95-.71h2.21v6.41h-2.75q-3.16 0-4.88 1.44t-1.72 4.26v15.44zm31.29 0q-1.48 0-2.97-.36t-2.74-1.27q-1.23-.9-1.98-2.46t-.75-3.95v-25.99h6.46v26.49q0 .87.61 1.46.6.59 1.45.59h4.32v5.49zm-13.05-21.84v-5.51h17.45v5.51zm25.76 21.84v-24.74l2.9 2.9h-7.85v-5.51h11.43v27.35zm-.31-32.81v-7.43h7.19V137zm34.64 32.81v-24.74l2.9 2.9h-25.44v-5.51h29.03v27.35zm-17.83 0v-32.99q0-3.72 2.36-5.86t6.26-2.14h4.81v5.41h-4.89q-.87 0-1.46.59-.6.59-.6 1.46v33.53zM387.9 137v-7.43h7.13V137zm27.09 33.37q-4.11 0-7.33-1.77t-5.07-4.93-1.85-7.24v-.63q0-4.13 1.87-7.26t5.09-4.88 7.29-1.76q3.05 0 5.67 1.2t4.26 3.34l-3.95 3.97q-1.12-1.3-2.65-1.93-1.54-.63-3.3-.63-2.21 0-3.98.97-1.77.98-2.79 2.76-1.03 1.79-1.03 4.22v.63q0 2.44 1.05 4.22 1.04 1.79 2.83 2.78 1.79 1 4 1 1.68 0 3.24-.59 1.55-.58 2.83-1.9l3.87 3.89q-1.64 2.1-4.32 3.32t-5.73 1.22m31.53-.56-.07-8.35-.74-2.35v-6.56q0-2.7-1.51-3.84-1.52-1.14-3.89-1.14-2.05 0-4.27.79t-3.84 2.27l-2.92-4.37q1.83-2.02 4.92-3.19t6.51-1.17q3.4 0 5.95 1.18t4 3.45 1.45 5.65v8.84q0 2.22.04 4.41t.13 4.38zm-7.92.56q-4.6 0-7.38-2.27t-2.79-5.86q0-2.46 1.37-4.34 1.36-1.88 3.86-2.97t5.84-1.09q5 0 7.52 2.18t2.52 5.79h-1.65q0 4.07-2.37 6.32-2.36 2.24-6.92 2.24m1.79-4.74q2.48 0 3.92-1.01 1.43-1.01 1.43-2.64 0-1.59-1.44-2.59-1.45-1-3.94-1-2.45 0-3.93 1t-1.48 2.6 1.5 2.62 3.94 1.02m29.33 4.18q-1.47 0-2.97-.36t-2.73-1.27-1.99-2.46-.75-3.95v-25.99h6.47v26.49q0 .87.6 1.46t1.45.59h4.33v5.49zm-13.05-21.84v-5.51h17.46v5.51zm34.84 22.4q-4.1 0-7.22-1.77t-4.87-4.93-1.75-7.36v-.57q0-3.93 1.63-7.04 1.62-3.12 4.58-4.96t6.84-1.84q4.13 0 7.04 2.01t4.27 5.63q1.34 3.64.71 8.6h-20.4v-4.59h16.94l-2.85 2.33q.42-2.77-.23-4.73-.64-1.96-2.05-2.99-1.42-1.03-3.4-1.03-2.18 0-3.67 1.12t-2.25 3.05-.75 4.44v1.34q0 2.18.91 3.93t2.65 2.76 4.18 1.01q2.09 0 3.54-.57 1.44-.57 2.59-1.7l3.66 3.86q-1.65 1.98-4.24 2.99t-5.86 1.01m42.41 0q-4.01 0-7.21-1.79t-5.04-4.95-1.84-7.3v-.53q0-4.09 1.84-7.22t5.04-4.9 7.21-1.78 7.18 1.77q3.16 1.76 5.01 4.89t1.84 7.2v.57q0 4.13-1.84 7.3-1.85 3.16-5.01 4.95-3.17 1.79-7.18 1.79m0-5.7q2.24 0 3.94-1.06 1.7-1.07 2.65-2.96.96-1.89.96-4.32v-.57q0-2.4-.96-4.23-.95-1.83-2.65-2.88t-3.94-1.04q-2.22 0-3.93 1.05-1.71 1.06-2.69 2.9-.99 1.85-.99 4.24v.53q0 2.43.99 4.32.98 1.89 2.69 2.96 1.71 1.06 3.93 1.06m21.78 5.14v-32.99q0-3.72 2.36-5.86t6.26-2.14h4.63v5.41h-4.71q-.87 0-1.46.59-.6.59-.6 1.46v33.53zm-4.71-21.84v-5.51h17.96v5.51zm53.29 22.6q-4.22 0-7.9-1.46-3.69-1.47-6.47-4.14t-4.33-6.34-1.55-8.1v-.75q0-4.42 1.55-8.09 1.56-3.68 4.33-6.35t6.47-4.13q3.68-1.47 7.9-1.47 3.92 0 7.16 1.22t5.8 3.49l-4.4 5.18q-1.72-1.54-3.87-2.35t-4.69-.82q-3.79 0-6.79 1.69-3 1.68-4.7 4.68t-1.7 6.95v.75q0 3.95 1.7 6.95t4.7 4.69 6.79 1.68q2.62 0 4.81-.85 2.19-.86 3.95-2.53l4.42 5.18q-2.61 2.32-5.96 3.62-3.34 1.3-7.22 1.3m29.42-.2q-4.01 0-7.21-1.79t-5.04-4.95-1.84-7.3v-.53q0-4.09 1.84-7.22t5.04-4.9 7.21-1.78 7.17 1.77q3.17 1.76 5.01 4.89 1.85 3.12 1.85 7.2v.57q0 4.13-1.85 7.3-1.84 3.16-5.01 4.95t-7.17 1.79m0-5.7q2.23 0 3.93-1.06 1.7-1.07 2.66-2.96.95-1.89.95-4.32v-.57q0-2.4-.95-4.23-.96-1.83-2.66-2.88t-3.93-1.04-3.93 1.05q-1.71 1.06-2.7 2.9-.98 1.85-.98 4.24v.53q0 2.43.98 4.32.99 1.89 2.7 2.96 1.7 1.06 3.93 1.06m20.07 5.14v-27.35h6.2v7.46l-1.72-.04q.78-3.18 2.39-4.9 1.61-1.71 3.56-2.39t3.76-.69q3.41 0 5.8 1.8 2.39 1.81 3.28 5.45h-2.5q1.04-2.95 2.89-4.52t3.87-2.15 3.61-.58q4.44 0 7.24 2.85t2.8 8.46v16.6h-6.41v-15.66q0-3.33-1.44-4.84t-3.84-1.5q-2.45 0-4.06 1.66t-1.6 4.67v15.67h-6.47v-15.66q0-3.33-1.42-4.84t-3.78-1.5q-2.45 0-4.1 1.66t-1.64 4.67v15.67zm48.62 11.23v-38.58h6.07v6.64l-1.27-1.45q1.55-2.66 4.16-4.2 2.62-1.55 5.82-1.55 3.69 0 6.61 1.76 2.92 1.75 4.63 4.89 1.7 3.15 1.7 7.28v.54q0 4.21-1.68 7.36-1.69 3.14-4.59 4.89t-6.63 1.75q-3.08 0-5.6-1.43-2.51-1.44-4.09-3.9l1.35-1.53v17.53zm13.79-16.36q2.08 0 3.78-1.01t2.69-2.88.98-4.42v-.54q0-2.56-.98-4.4-.99-1.83-2.69-2.83-1.7-.99-3.78-.99-2.18 0-3.95 1.03t-2.77 2.94-1 4.58q0 2.63 1 4.55 1 1.91 2.77 2.94t3.95 1.03m28.14 5.13q-3.71 0-5.93-2.02-2.23-2.01-2.23-5.56v-30.82l2.9 2.9h-7.43v-5.49h11.01v33.53q0 .87.6 1.46.59.59 1.46.59h2.88v5.41zm20.02.56q-4.1 0-7.22-1.77-3.11-1.77-4.86-4.93-1.75-3.17-1.75-7.36v-.57q0-3.93 1.62-7.04 1.63-3.12 4.58-4.96t6.84-1.84q4.13 0 7.05 2.01t4.26 5.63q1.35 3.64.71 8.6h-20.39v-4.59h16.94l-2.86 2.33q.42-2.77-.22-4.73-.65-1.96-2.06-2.99t-3.4-1.03q-2.18 0-3.67 1.12t-2.24 3.05-.76 4.44v1.34q0 2.18.91 3.93t2.65 2.76 4.18 1.01q2.09 0 3.54-.57t2.59-1.7l3.67 3.86q-1.66 1.98-4.25 2.99t-5.86 1.01m27.46-.56q-1.48 0-2.97-.36t-2.74-1.27q-1.23-.9-1.98-2.46t-.75-3.95v-25.99h6.46v26.49q0 .87.61 1.46.6.59 1.45.59h4.32v5.49zm-13.05-21.84v-5.51h17.45v5.51zm25.76 21.84v-24.74l2.9 2.9h-7.85v-5.51h11.43v27.35zM804.2 137v-7.43h7.19V137zm26.92 33.37q-4.01 0-7.21-1.79-3.19-1.79-5.04-4.95-1.84-3.17-1.84-7.3v-.53q0-4.09 1.84-7.22 1.85-3.13 5.04-4.9 3.2-1.78 7.21-1.78t7.18 1.77q3.17 1.76 5.01 4.89t1.84 7.2v.57q0 4.13-1.84 7.3t-5.01 4.95-7.18 1.79m0-5.7q2.24 0 3.94-1.06 1.7-1.07 2.65-2.96.96-1.89.96-4.32v-.57q0-2.4-.96-4.23-.95-1.83-2.65-2.88t-3.94-1.04q-2.22 0-3.93 1.05-1.71 1.06-2.69 2.9-.99 1.85-.99 4.24v.53q0 2.43.99 4.32.98 1.89 2.69 2.96 1.71 1.06 3.93 1.06m20.07 5.14v-27.35h6.25v7.53h-1.74q.6-2.48 1.73-4.05t2.57-2.45 2.94-1.23 2.75-.36q4.61 0 7.41 3.01t2.79 8.62v16.28h-6.48v-15.24q0-3.58-1.53-5.17-1.52-1.59-4-1.59-1.74 0-3.15.79t-2.23 2.32-.83 3.79v15.1z"/><path fill="#838383" d="M472.46 226.03v-14.15h1.83v14.15zm-4.5-13.27v-1.67h10.86v1.67zm12.6 13.27v-15.58h1.66v8.09h-.47q.24-.88.67-1.46.44-.57.99-.91t1.12-.48 1.08-.14q1.73 0 2.81 1.12 1.07 1.11 1.07 3.33v6.03h-1.72v-5.78q0-1.65-.73-2.38t-1.87-.73q-.79 0-1.44.35-.66.36-1.05 1.05t-.39 1.74v5.75zm12.62 0v-9.54l.77.77h-2.76v-1.49h3.72v10.26zm-.09-12.52v-2.48h1.92v2.48zm7.87 12.72q-1.13 0-2.13-.35-.99-.35-1.62-.91l.77-1.2q.59.48 1.38.78.8.31 1.6.31.96 0 1.55-.44.59-.43.59-1.14 0-.62-.4-.94t-1.02-.51l-1.33-.36q-.7-.17-1.33-.47-.62-.3-1.02-.86-.4-.55-.4-1.5 0-1.37 1.02-2.23t2.72-.86q.97 0 1.83.29t1.5.76l-.78 1.18q-.54-.39-1.19-.63t-1.38-.23q-.92 0-1.5.44-.57.44-.57 1.13 0 .6.4.92t1.04.52l1.35.37q.71.19 1.34.49.64.31 1.04.87t.41 1.53q0 .89-.5 1.58-.5.68-1.37 1.07-.86.39-2 .39m11.89-.2v-9.54l.77.77h-2.76v-1.49h3.72v10.26zm-.09-12.52v-2.48h1.92v2.48zm7.88 12.72q-1.14 0-2.13-.35-1-.35-1.62-.91l.77-1.2q.58.48 1.38.78t1.6.31q.95 0 1.54-.44.59-.43.59-1.14 0-.62-.39-.94-.4-.32-1.03-.51l-1.33-.36q-.7-.17-1.33-.47-.62-.3-1.02-.86-.4-.55-.4-1.5 0-1.37 1.02-2.23t2.72-.86q.97 0 1.83.29t1.5.76l-.78 1.18q-.53-.39-1.19-.63t-1.38-.23q-.92 0-1.5.44-.57.44-.57 1.13 0 .6.4.92t1.04.52l1.35.37q.71.19 1.35.49.63.31 1.04.87.4.56.4 1.53 0 .89-.5 1.58-.49.68-1.36 1.07t-2 .39m14.56-.2q-.53 0-1.04-.15-.5-.14-.91-.47-.4-.32-.64-.85-.24-.52-.24-1.27v-10.06h1.71v10.18q0 .49.33.82t.8.32h1.56v1.48zm-4.7-8.77v-1.49h6.27v1.49zm12.69 8.98q-1.47 0-2.63-.67-1.16-.68-1.82-1.87t-.67-2.75v-.19q0-1.53.67-2.7.66-1.18 1.82-1.84t2.63-.67 2.62.66 1.81 1.83.66 2.69v.22q0 1.56-.66 2.75t-1.81 1.87q-1.15.67-2.62.67m0-1.54q.99 0 1.75-.47.76-.48 1.19-1.33t.43-1.95v-.22q0-1.08-.43-1.89-.43-.82-1.19-1.28t-1.75-.47-1.75.47-1.2 1.3-.44 1.9v.19q0 1.1.44 1.95.43.85 1.2 1.33.76.47 1.75.47m17.15 1.54q-1.52 0-2.71-.66-1.19-.67-1.87-1.85-.68-1.17-.68-2.71v-.26q0-1.54.69-2.71.68-1.18 1.87-1.84 1.18-.66 2.7-.66 1.12 0 2.06.41t1.56 1.17l-1.06 1.07q-.48-.52-1.13-.78-.64-.27-1.43-.27-1.02 0-1.82.45t-1.26 1.27q-.46.81-.46 1.89v.26q0 1.09.47 1.9t1.27 1.27 1.82.46q.77 0 1.42-.25.64-.26 1.17-.79l1.04 1.06q-.63.74-1.58 1.16t-2.07.41m10.02 0q-1.51 0-2.67-.67-1.17-.67-1.82-1.87-.65-1.19-.65-2.75v-.21q0-1.5.6-2.66t1.69-1.84 2.51-.69q1.48 0 2.52.73 1.05.72 1.55 2.04.5 1.31.29 3.1h-7.92v-1.41h6.98l-.75.75q.15-1.15-.16-1.98t-.96-1.28-1.55-.45q-.96 0-1.65.47t-1.07 1.29q-.37.82-.37 1.93v.38q0 .96.43 1.77.42.81 1.21 1.29t1.86.48q.81 0 1.44-.19t1.1-.62l.98 1.07q-.6.64-1.53.98-.92.34-2.06.34m6.49-.21v-10.26h1.67v2.62l-.24-.02q.15-1.04.58-1.62.44-.57 1.09-.8.64-.23 1.41-.23h.87v1.71h-1q-1.25 0-1.95.61-.7.62-.7 1.91v6.08zm10.9 0q-.53 0-1.03-.15-.51-.14-.92-.47-.4-.32-.64-.85-.24-.52-.24-1.27v-10.06h1.71v10.18q0 .49.33.82t.81.32h1.55v1.48zm-4.69-8.77v-1.49h6.26v1.49zm9.38 8.77v-9.54l.77.77h-2.76v-1.49h3.71v10.26zm-.09-12.52v-2.48h1.92v2.48zm5.78 12.52v-12.85q0-1.25.8-1.99.79-.74 2.08-.74h1.7v1.47h-1.72q-.49 0-.81.32t-.32.81v12.98zm-1.89-8.77v-1.49h6.47v1.49zm7.33 13.04v-1.48h2.04q.45 0 .72-.31.26-.3.44-.72l1.44-3.18 3.3-8.84h1.91l-4.91 12.08q-.18.43-.42.87t-.56.79q-.34.35-.83.57t-1.17.22zm4.2-3.54-4.49-10.99h1.91l3.6 9.18zm15.36-.73q-.53 0-1.04-.15-.5-.14-.91-.47-.4-.32-.64-.85-.24-.52-.24-1.27v-10.06h1.71v10.18q0 .49.33.82t.8.32h1.56v1.48zm-4.7-8.77v-1.49h6.27v1.49zm8.59 8.77v-15.58h1.65v8.09h-.46q.24-.88.67-1.46.43-.57.98-.91t1.13-.48 1.08-.14q1.73 0 2.81 1.12 1.07 1.11 1.07 3.33v6.03h-1.72v-5.78q0-1.65-.73-2.38-.74-.73-1.87-.73-.79 0-1.45.35-.65.36-1.04 1.05-.4.7-.4 1.74v5.75zm18.2 0-.05-3.24-.19-.58v-2.75q0-1.26-.65-1.8-.65-.55-1.76-.55-.83 0-1.7.31-.86.31-1.48.95l-.81-1.22q.68-.79 1.79-1.19 1.11-.41 2.28-.41 1.22 0 2.13.43t1.41 1.27.5 2.12v3.29l.02 1.7.04 1.67zm-3.14.21q-1.75 0-2.81-.85-1.05-.85-1.05-2.22 0-.9.53-1.6t1.46-1.12 2.08-.42q1.86 0 2.85.84.99.83.99 2.17h-.32q0 1.52-.98 2.36t-2.75.84m.45-1.3q1.17 0 1.82-.49t.65-1.28-.65-1.27-1.84-.48q-1.18 0-1.86.48t-.68 1.27q0 .77.69 1.27t1.87.5m10.62 1.09q-.53 0-1.04-.15-.5-.14-.91-.47-.4-.32-.64-.85-.24-.52-.24-1.27v-10.06h1.71v10.18q0 .49.33.82t.8.32h1.56v1.48zm-4.69-8.77v-1.49h6.26v1.49z"/><path fill="#1d1d1d" d="m386.11 314.23 19.55-53.45h11.53l19.51 53.45h-9.62l-16.31-46.31h1.34l-16.4 46.31zm8.58-13.12 3.05-7.92h27.5l3.1 7.92zm47.22 13.12v-37.19h8.5v10.23h-2.36q.81-3.37 2.34-5.51 1.54-2.13 3.5-3.33 1.96-1.19 4-1.67t3.74-.48q6.27 0 10.07 4.09t3.8 11.73v22.13h-8.82V293.5q0-4.86-2.07-7.03t-5.44-2.16q-2.37 0-4.29 1.07-1.91 1.08-3.03 3.16-1.13 2.08-1.13 5.16v20.53zm64.91 0-.1-11.35-1-3.2v-8.92q0-3.68-2.06-5.22-2.05-1.55-5.29-1.55-2.78 0-5.79 1.07t-5.23 3.09l-3.97-5.95q2.48-2.74 6.69-4.33t8.85-1.59q4.62 0 8.1 1.6t5.44 4.69 1.96 7.68v12.03q0 3.02.06 5.99t.17 5.96zm-10.76.76q-6.26 0-10.05-3.08t-3.79-7.98q0-3.34 1.86-5.9t5.25-4.04 7.95-1.49q6.8 0 10.23 2.98t3.43 7.87h-2.26q0 5.53-3.21 8.59t-9.41 3.05m2.43-6.45q3.37 0 5.32-1.37t1.96-3.59q0-2.17-1.97-3.52-1.96-1.36-5.35-1.36-3.33 0-5.35 1.36-2.01 1.35-2.01 3.53t2.04 3.56 5.36 1.39m48.37-3.07-.97-12.65 25.54-32.04h10.88zm-5.6 8.76v-53.45h9.36v53.45zm30.96 0-16.05-28 6.68-6.9 20.59 34.9zm30.55.76q-5.45 0-9.8-2.43t-6.85-6.74-2.5-9.92v-.72q0-5.56 2.5-9.82t6.85-6.67 9.8-2.41q5.46 0 9.77 2.4t6.81 6.65 2.5 9.79v.78q0 5.61-2.5 9.92t-6.81 6.74-9.77 2.43m0-7.75q3.05 0 5.36-1.45 2.31-1.44 3.61-4.01t1.3-5.88v-.78q0-3.26-1.3-5.75t-3.61-3.91-5.36-1.43q-3.02 0-5.34 1.44-2.33 1.43-3.66 3.94-1.34 2.51-1.34 5.77v.72q0 3.31 1.34 5.88 1.33 2.57 3.66 4.01 2.32 1.45 5.34 1.45m35.4 6.99-14.33-37.19H633l11.49 31.42h-3.39l11.46-31.42h9.17l-14.26 37.19zm50.02 0-.1-11.35-1.01-3.2v-8.92q0-3.68-2.05-5.22-2.06-1.55-5.29-1.55-2.79 0-5.8 1.07t-5.22 3.09l-3.98-5.95q2.49-2.74 6.69-4.33t8.86-1.59q4.62 0 8.09 1.6t5.44 4.69 1.97 7.68v12.03q0 3.02.05 5.99t.18 5.96zm-10.77.76q-6.26 0-10.05-3.08-3.78-3.09-3.78-7.98 0-3.34 1.85-5.9 1.86-2.56 5.25-4.04 3.4-1.49 7.95-1.49 6.8 0 10.23 2.98t3.43 7.87h-2.25q0 5.53-3.22 8.59-3.21 3.05-9.41 3.05m2.43-6.45q3.38 0 5.33-1.37t1.95-3.59q0-2.17-1.96-3.52-1.97-1.36-5.36-1.36-3.33 0-5.34 1.36-2.01 1.35-2.01 3.53t2.03 3.56 5.36 1.39m42.43 6.45q-5.59 0-9.97-2.41-4.37-2.41-6.89-6.7t-2.52-9.85v-.85q0-5.62 2.55-9.88t6.92-6.64 9.91-2.38q4.15 0 7.71 1.63t5.8 4.54l-5.38 5.4q-1.52-1.77-3.6-2.63t-4.49-.86q-3 0-5.41 1.33-2.4 1.32-3.8 3.75t-1.4 5.74v.85q0 3.32 1.43 5.75 1.42 2.42 3.85 3.78t5.44 1.35q2.29 0 4.4-.8 2.12-.79 3.85-2.58l5.27 5.29q-2.23 2.86-5.88 4.52t-7.79 1.65m-4.59-43.61-9.57-12.24h8.58l8.3 9.62h-5.06l8.17-9.62h8.52l-9.59 12.24z"/><path fill="#999" d="M269.52 344.41h583.95v1.78H269.52z"/><path fill="#838383" d="M436.58 387.39v-15.58h1.66v8.09h-.46q.23-.88.67-1.46.43-.57.98-.91t1.13-.48 1.07-.14q1.74 0 2.81 1.12 1.08 1.11 1.08 3.33v6.03h-1.73v-5.78q0-1.65-.73-2.38t-1.87-.73q-.79 0-1.44.35-.66.36-1.05 1.05t-.39 1.74v5.75zm18.2 0-.04-3.24-.19-.58v-2.75q0-1.26-.65-1.8-.66-.55-1.77-.55-.83 0-1.69.31-.87.31-1.48.95l-.82-1.22q.69-.79 1.8-1.19 1.11-.41 2.28-.41 1.22 0 2.12.43t1.41 1.27.5 2.12v3.29l.02 1.7.05 1.67zm-3.14.21q-1.75 0-2.8-.85-1.06-.85-1.06-2.22 0-.9.54-1.6.53-.7 1.46-1.12t2.08-.42q1.85 0 2.85.84.99.83.99 2.17h-.32q0 1.52-.98 2.36t-2.76.84m.45-1.3q1.18 0 1.83-.49t.65-1.28-.65-1.27-1.85-.48q-1.17 0-1.86.48-.68.48-.68 1.27 0 .77.7 1.27.69.5 1.86.5m10.1 1.29q-1.13 0-2.13-.35-.99-.35-1.62-.91l.77-1.2q.59.48 1.38.78.8.31 1.6.31.96 0 1.55-.44.59-.43.59-1.14 0-.62-.4-.94t-1.02-.51l-1.33-.36q-.7-.17-1.33-.47t-1.03-.86-.39-1.5q0-1.37 1.02-2.23 1.01-.86 2.72-.86.96 0 1.82.29t1.51.76l-.78 1.18q-.54-.39-1.19-.63t-1.38-.23q-.92 0-1.5.44t-.58 1.13q0 .6.41.92t1.04.52l1.35.37q.71.19 1.34.49.64.31 1.04.87t.41 1.53q0 .89-.5 1.58-.5.68-1.37 1.07t-2 .39m14.13 0q-1.14 0-2.13-.35-1-.35-1.62-.91l.77-1.2q.58.48 1.38.78t1.6.31q.95 0 1.54-.44.6-.43.6-1.14 0-.62-.4-.94t-1.03-.51l-1.33-.36q-.7-.17-1.32-.47t-1.03-.86-.4-1.5q0-1.37 1.02-2.23t2.72-.86q.97 0 1.83.29t1.51.76l-.78 1.18q-.54-.39-1.2-.63t-1.38-.23q-.92 0-1.49.44-.58.44-.58 1.13 0 .6.4.92t1.04.52l1.35.37q.71.19 1.35.49.63.31 1.04.87.4.56.4 1.53 0 .89-.5 1.58-.49.68-1.36 1.07t-2 .39m10.12.01q-1.13 0-2.03-.44t-1.41-1.38-.51-2.41v-6.24h1.71v5.94q0 1.1.34 1.75.33.64.92.92t1.33.28q.77 0 1.41-.34t1.03-1.03.39-1.71v-5.81h1.7v10.26h-1.53v-2.77h.52q-.23.86-.66 1.45-.44.58-.99.91-.56.34-1.13.48-.58.14-1.09.14m12.66 0q-1.52 0-2.71-.66-1.18-.67-1.87-1.85-.68-1.17-.68-2.71v-.26q0-1.54.69-2.71.68-1.18 1.87-1.84t2.7-.66q1.13 0 2.06.41t1.56 1.17l-1.06 1.07q-.48-.52-1.13-.78-.64-.27-1.43-.27-1.01 0-1.81.45t-1.26 1.27q-.47.81-.47 1.89v.26q0 1.09.47 1.9t1.27 1.27 1.82.46q.77 0 1.42-.25.65-.26 1.17-.79l1.04 1.06q-.63.74-1.58 1.16-.94.41-2.07.41m10.14 0q-1.53 0-2.71-.66-1.19-.67-1.87-1.85-.69-1.17-.69-2.71v-.26q0-1.54.69-2.71.69-1.18 1.88-1.84 1.18-.66 2.7-.66 1.12 0 2.05.41.94.41 1.57 1.17l-1.06 1.07q-.49-.52-1.13-.78-.65-.27-1.43-.27-1.02 0-1.82.45t-1.26 1.27-.46 1.89v.26q0 1.09.46 1.9t1.27 1.27 1.82.46q.77 0 1.42-.25.65-.26 1.17-.79l1.05 1.06q-.63.74-1.58 1.16t-2.07.41m10.02 0q-1.51 0-2.68-.67-1.16-.67-1.81-1.87-.65-1.19-.65-2.75v-.21q0-1.5.6-2.66.59-1.16 1.68-1.84t2.52-.69q1.47 0 2.52.73 1.04.72 1.54 2.04.51 1.31.29 3.1h-7.91v-1.41h6.97l-.74.75q.15-1.15-.16-1.98t-.96-1.28-1.55-.45q-.96 0-1.65.47-.7.47-1.07 1.29t-.37 1.93v.38q0 .96.42 1.77.43.81 1.22 1.29t1.86.48q.81 0 1.44-.19t1.09-.62l.99 1.07q-.6.64-1.53.98t-2.06.34m9.33-.01q-1.13 0-2.13-.35-.99-.35-1.62-.91l.77-1.2q.59.48 1.38.78.8.31 1.6.31.96 0 1.55-.44.59-.43.59-1.14 0-.62-.4-.94t-1.02-.51l-1.33-.36q-.7-.17-1.33-.47t-1.02-.86-.4-1.5q0-1.37 1.02-2.23t2.72-.86q.97 0 1.83.29.85.28 1.5.76l-.78 1.18q-.54-.39-1.19-.63t-1.38-.23q-.92 0-1.5.44-.57.44-.57 1.13 0 .6.4.92t1.04.52l1.35.37q.71.19 1.34.49.64.31 1.04.87t.41 1.53q0 .89-.5 1.58-.5.68-1.37 1.07-.86.39-2 .39m9.12 0q-1.14 0-2.14-.35-.99-.35-1.62-.91l.77-1.2q.59.48 1.38.78.8.31 1.61.31.95 0 1.54-.44.59-.43.59-1.14 0-.62-.4-.94t-1.02-.51l-1.33-.36q-.7-.17-1.33-.47-.62-.3-1.02-.86-.4-.55-.4-1.5 0-1.37 1.02-2.23t2.72-.86q.97 0 1.83.29t1.5.76l-.78 1.18q-.53-.39-1.19-.63t-1.38-.23q-.92 0-1.5.44-.57.44-.57 1.13 0 .6.4.92t1.04.52l1.35.37q.71.19 1.34.49.64.31 1.04.87t.41 1.53q0 .89-.5 1.58-.5.68-1.36 1.07t-2 .39m7.01-.2v-12.85q0-1.25.8-1.99t2.08-.74h1.7v1.47h-1.72q-.49 0-.81.32t-.32.81v12.98zm-1.89-8.77v-1.49h6.47v1.49zm12.25 8.98q-1.12 0-2.02-.44t-1.42-1.38-.51-2.41v-6.24h1.71v5.94q0 1.1.34 1.75.33.64.92.92t1.33.28q.77 0 1.41-.34t1.03-1.03.39-1.71v-5.81h1.7v10.26h-1.53v-2.77h.52q-.23.86-.66 1.45-.44.58-.99.91-.56.34-1.13.48-.58.14-1.09.14m10.84-.21q-1.24 0-2.01-.71t-.76-1.91v-12.25l.77.78h-2.66v-1.49h3.62v12.98q0 .49.32.81t.81.33h.97v1.46zm5.74 0q-1.24 0-2.01-.71t-.76-1.91v-12.25l.77.78H567v-1.49h3.62v12.98q0 .49.32.81t.81.33h.97v1.46zm1.39 4.27v-1.48h2.05q.45 0 .71-.31.27-.3.45-.72l1.44-3.18 3.3-8.84h1.91l-4.92 12.08q-.18.43-.41.87t-.57.79-.82.57-1.18.22zm4.21-3.54-4.49-10.99h1.9l3.61 9.18zm16.64-.52q-1.52 0-2.71-.66-1.18-.67-1.87-1.85-.68-1.17-.68-2.71v-.26q0-1.54.69-2.71.68-1.18 1.87-1.84t2.7-.66q1.13 0 2.06.41t1.57 1.17l-1.07 1.07q-.48-.52-1.13-.78-.64-.27-1.43-.27-1.01 0-1.81.45t-1.26 1.27-.46 1.89v.26q0 1.09.46 1.9t1.27 1.27 1.82.46q.77 0 1.42-.25.65-.26 1.17-.79l1.04 1.06q-.63.74-1.58 1.16-.94.41-2.07.41m9.99 0q-1.47 0-2.63-.67-1.16-.68-1.82-1.87t-.66-2.75v-.19q0-1.53.66-2.7t1.82-1.84 2.63-.67 2.62.66 1.81 1.83.66 2.69v.22q0 1.56-.66 2.75t-1.81 1.87-2.62.67m0-1.54q1 0 1.76-.47.75-.48 1.18-1.33t.43-1.95v-.22q0-1.08-.43-1.89-.43-.82-1.18-1.28-.76-.47-1.76-.47-.98 0-1.75.47-.76.47-1.2 1.3t-.44 1.9v.19q0 1.1.44 1.95t1.2 1.33 1.75.47m7.61 1.33v-10.26h1.65v2.69l-.44-.02q.32-1.12.92-1.74t1.35-.88q.73-.27 1.43-.27 1.33 0 2.25.7t1.25 2.14h-.64q.37-1.11 1.04-1.72.66-.62 1.43-.87t1.42-.25q1.69 0 2.73 1.08t1.04 3.29v6.11h-1.69v-5.88q0-1.6-.68-2.31-.68-.7-1.8-.7-1.14 0-1.91.77t-.77 2.22v5.9h-1.71v-5.88q0-1.6-.68-2.31-.67-.7-1.78-.7-1.14 0-1.92.77t-.78 2.22v5.9zm18.48 4.27v-14.53h1.62v2.71l-.32-.37q.56-1.17 1.61-1.86t2.37-.7q1.4 0 2.49.66t1.71 1.84.62 2.71v.2q0 1.57-.62 2.76-.61 1.19-1.7 1.86-1.08.66-2.49.66-1.3 0-2.32-.66-1.03-.67-1.58-1.79l.34-.39v6.9zm5.04-5.58q.96 0 1.72-.47t1.19-1.32.43-1.97v-.2q0-1.11-.43-1.93t-1.19-1.28-1.72-.46q-.97 0-1.75.48-.78.47-1.22 1.32-.45.86-.45 2.01t.45 2.01 1.22 1.33q.78.48 1.75.48m10.33 1.31q-1.23 0-2-.71-.76-.71-.76-1.91v-12.25l.77.78h-2.66v-1.49h3.61v12.98q0 .49.33.81.32.33.81.33h.97v1.46zm7.27.21q-1.52 0-2.68-.67t-1.81-1.87-.65-2.75v-.21q0-1.5.59-2.66.6-1.16 1.69-1.84t2.52-.69q1.47 0 2.51.73 1.05.72 1.55 2.04.5 1.31.29 3.1h-7.92v-1.41h6.98l-.75.75q.15-1.15-.16-1.98t-.96-1.28-1.54-.45q-.96 0-1.66.47-.69.47-1.06 1.29t-.38 1.93v.38q0 .96.43 1.77t1.22 1.29q.78.48 1.85.48.81 0 1.44-.19t1.1-.62l.98 1.07q-.6.64-1.52.98-.93.34-2.06.34m9.89-.21q-.52 0-1.03-.15t-.91-.47-.65-.85-.24-1.27v-10.06h1.72v10.18q0 .49.33.82.32.32.8.32h1.56v1.48zm-4.69-8.77v-1.49h6.27v1.49zm12.72 8.98q-1.51 0-2.68-.67-1.16-.67-1.81-1.87-.65-1.19-.65-2.75v-.21q0-1.5.6-2.66.59-1.16 1.68-1.84t2.52-.69q1.47 0 2.52.73 1.04.72 1.54 2.04.51 1.31.29 3.1h-7.91v-1.41h6.97l-.74.75q.15-1.15-.16-1.98t-.96-1.28-1.55-.45q-.96 0-1.65.47-.7.47-1.07 1.29t-.37 1.93v.38q0 .96.42 1.77.43.81 1.22 1.29t1.85.48q.82 0 1.44-.19.63-.19 1.1-.62l.99 1.07q-.6.64-1.53.98t-2.06.34m10.63 0q-1.4 0-2.49-.66-1.1-.67-1.72-1.86t-.62-2.76v-.2q0-1.54.63-2.71.63-1.18 1.73-1.84 1.09-.66 2.48-.66 1.32 0 2.33.67 1.01.66 1.55 1.79l-.33.4v-7.96h1.73v15.58h-1.57v-2.78l.32.34q-.57 1.24-1.62 1.95-1.05.7-2.42.7m.24-1.52q.99 0 1.77-.48.77-.47 1.21-1.33.45-.86.45-2.01t-.45-2.01-1.21-1.32q-.78-.48-1.77-.48-.96 0-1.72.46t-1.19 1.28-.43 1.93v.2q0 1.13.43 1.97t1.19 1.32 1.72.47"/><path fill="#1d1d1d" d="M381.47 442.05q-2.69 0-5.03-.93t-4.11-2.63-2.76-4.04-.99-5.17v-.54q0-2.82.99-5.16t2.76-4.05 4.11-2.63 5.03-.93q2.43 0 4.46.74t3.63 2.11l-2.37 2.82q-1.15-.97-2.6-1.5-1.44-.52-3.12-.52-2.58 0-4.64 1.15t-3.24 3.21-1.18 4.76v.54q0 2.72 1.18 4.77t3.24 3.2 4.64 1.15q1.72 0 3.19-.54 1.46-.54 2.63-1.59l2.39 2.81q-1.62 1.41-3.71 2.19t-4.5.78m18.48-.1q-2.52 0-4.52-1.14-2-1.15-3.15-3.16t-1.15-4.65v-.33q0-2.59 1.15-4.59 1.15-1.99 3.15-3.12 2-1.12 4.52-1.12t4.5 1.12 3.13 3.1 1.15 4.57v.37q0 2.63-1.15 4.65-1.15 2.01-3.13 3.16-1.98 1.14-4.5 1.14m0-3.12q1.55 0 2.74-.74 1.18-.75 1.85-2.06.66-1.32.66-3.03v-.37q0-1.68-.66-2.95-.67-1.27-1.85-1.99-1.19-.73-2.74-.73-1.54 0-2.73.73-1.19.74-1.88 2.02-.68 1.29-.68 2.96v.33q0 1.71.68 3.03t1.88 2.06 2.73.74m12.73 2.76V424.2h3.39v4.74h-.95q.39-1.53 1.12-2.52t1.65-1.56 1.89-.79 1.79-.23q2.93 0 4.73 1.9t1.8 5.56v10.29h-3.52v-9.74q0-2.54-1.11-3.66-1.1-1.13-2.85-1.13-1.22 0-2.23.55-1 .56-1.59 1.63-.6 1.08-.6 2.67v9.68zm26.32 0q-.92 0-1.82-.24-.91-.24-1.65-.8t-1.17-1.5q-.45-.94-.45-2.34v-16.79h3.52v17.05q0 .69.46 1.15.47.47 1.15.47h2.69v3zm-8.13-14.37v-3.02h10.86v3.02zm25.02 14.37-.06-5.4-.4-1.24v-4.42q0-1.92-1.03-2.74t-2.73-.83q-1.36 0-2.79.52-1.44.51-2.48 1.52l-1.62-2.42q1.16-1.31 3.09-2.03 1.92-.71 4-.71 2.11 0 3.69.73 1.59.74 2.47 2.18.89 1.43.89 3.59v5.6q0 1.43.03 2.84l.07 2.81zm-5.18.36q-2.94 0-4.72-1.45-1.78-1.44-1.78-3.74 0-1.54.88-2.74.89-1.19 2.47-1.89t3.62-.7q3.16 0 4.8 1.4 1.65 1.4 1.65 3.68h-.8q0 2.58-1.58 4.01-1.59 1.43-4.54 1.43m.95-2.62q1.78 0 2.79-.73 1.01-.74 1.01-1.92t-1.01-1.9-2.81-.72q-1.78 0-2.83.72-1.04.72-1.04 1.9 0 1.16 1.06 1.91 1.06.74 2.83.74m13.39 2.26v-15.95l1.58 1.58h-4.84v-3.02h6.79v17.39zm-.17-21.04v-4.47h3.92v4.47zm8.78 21.04V424.2h3.39v4.74h-.94q.39-1.53 1.11-2.52t1.65-1.56 1.9-.79q.96-.23 1.78-.23 2.94 0 4.74 1.9t1.8 5.56v10.29h-3.53v-9.74q0-2.54-1.1-3.66-1.11-1.13-2.86-1.13-1.22 0-2.22.55-1 .56-1.6 1.63-.59 1.08-.59 2.67v9.68zm27.94.36q-2.59 0-4.56-1.13-1.98-1.13-3.09-3.15t-1.11-4.68v-.36q0-2.51 1.03-4.49 1.02-1.98 2.88-3.14 1.87-1.16 4.31-1.16 2.56 0 4.38 1.25t2.66 3.52q.86 2.27.47 5.36h-13.19v-2.65h11.3l-1.55 1.37q.27-1.85-.2-3.18t-1.47-2.04q-1-.7-2.39-.7-1.51 0-2.57.75-1.06.76-1.61 2.06-.56 1.31-.56 3.05v.75q0 1.51.65 2.75.65 1.25 1.88 1.97 1.22.73 2.89.73 1.36 0 2.35-.34t1.75-1.07l2 2.13q-1.03 1.18-2.64 1.79t-3.61.61m10.91-.36V424.2h3.4v4.74l-.46-.03q.19-1.88.91-2.93.72-1.04 1.84-1.46 1.12-.43 2.46-.43h1.44v3.49h-1.72q-2.07 0-3.21.98t-1.14 2.97v10.06zm20.5 0v-21.06q0-1.77 1.15-2.93t2.94-1.17h11.7v3.41h-10.45q-.68 0-1.14.47-.47.46-.47 1.15v20.13zm1.93-10.08v-3.37h13.04v3.37zm23.47 10.44q-1.91 0-3.44-.76-1.52-.77-2.39-2.34t-.88-4.01V424.2h3.51v10q0 1.68.51 2.67t1.41 1.42 2.03.44q1.2 0 2.17-.53.97-.52 1.56-1.57.58-1.06.58-2.64v-9.79h3.5v17.39h-3.1v-4.74h1.04q-.38 1.52-1.12 2.51-.74 1-1.67 1.57-.94.56-1.91.79t-1.8.23m13.64-.36V424.2h3.4v4.74h-.95q.39-1.53 1.12-2.52.72-.99 1.65-1.56.92-.56 1.89-.79t1.78-.23q2.94 0 4.74 1.9t1.8 5.56v10.29h-3.53v-9.74q0-2.54-1.1-3.66-1.11-1.13-2.86-1.13-1.22 0-2.22.55-1 .56-1.6 1.63-.59 1.08-.59 2.67v9.68zm27.39.36q-2.36 0-4.21-1.12-1.86-1.12-2.92-3.13t-1.06-4.68v-.34q0-2.62 1.07-4.61 1.08-2 2.94-3.12 1.86-1.11 4.2-1.11 2.12 0 3.76 1.02 1.65 1.02 2.59 2.75l-.7.83v-13.08h3.53v26.23h-3.18v-4.55l.65.71q-.98 1.98-2.7 3.09t-3.97 1.11m.53-3.11q1.55 0 2.77-.73 1.21-.72 1.9-2.06t.69-3.15-.69-3.15-1.9-2.06q-1.22-.73-2.77-.73-1.47 0-2.66.7-1.18.71-1.86 1.98-.68 1.28-.68 3.04v.34q0 1.77.68 3.08t1.86 2.02q1.19.72 2.66.72m24.17 2.75-.06-5.4-.4-1.24v-4.42q0-1.92-1.03-2.74t-2.73-.83q-1.35 0-2.79.52-1.43.51-2.48 1.52l-1.61-2.42q1.15-1.31 3.08-2.03 1.92-.71 4-.71 2.12 0 3.7.73 1.58.74 2.46 2.18.89 1.43.89 3.59v5.6q0 1.43.03 2.84t.08 2.81zm-5.17.36q-2.95 0-4.73-1.45-1.78-1.44-1.78-3.74 0-1.54.88-2.74.89-1.19 2.47-1.89t3.62-.7q3.16 0 4.81 1.4t1.64 3.68h-.8q0 2.58-1.58 4.01-1.59 1.43-4.53 1.43m.94-2.62q1.79 0 2.79-.73 1.01-.74 1.01-1.92t-1.01-1.9-2.81-.72q-1.78 0-2.82.72-1.05.72-1.05 1.9 0 1.16 1.06 1.91 1.06.74 2.83.74m12.19 2.26V424.2h3.37v4.65l-.92-.03q.52-1.96 1.54-3.03 1.03-1.07 2.27-1.51 1.25-.44 2.41-.44 2.21 0 3.75 1.16t2.1 3.55h-1.33q.64-1.88 1.8-2.9 1.15-1.03 2.44-1.42 1.3-.39 2.36-.39 2.83 0 4.61 1.81 1.77 1.82 1.77 5.49v10.45h-3.48v-9.96q0-2.42-1.03-3.49t-2.74-1.08q-1.75 0-2.91 1.18t-1.16 3.37v9.98h-3.51v-9.96q0-2.42-1.03-3.49-1.02-1.08-2.71-1.08-1.74 0-2.93 1.18-1.18 1.18-1.18 3.37v9.98zm38.69.36q-2.59 0-4.57-1.13-1.97-1.13-3.08-3.15t-1.11-4.68v-.36q0-2.51 1.02-4.49 1.03-1.98 2.89-3.14t4.31-1.16q2.56 0 4.37 1.25 1.82 1.25 2.67 3.52t.47 5.36h-13.19v-2.65h11.29l-1.54 1.37q.26-1.85-.21-3.18t-1.46-2.04q-1-.7-2.39-.7-1.51 0-2.57.75-1.06.76-1.62 2.06-.55 1.31-.55 3.05v.75q0 1.51.65 2.75.65 1.25 1.87 1.97 1.22.73 2.9.73 1.35 0 2.35-.34.99-.35 1.75-1.07l2 2.13q-1.03 1.18-2.64 1.79t-3.61.61m10.9-.36V424.2h3.4v4.74h-.95q.39-1.53 1.12-2.52.72-.99 1.65-1.56.92-.56 1.89-.79t1.78-.23q2.94 0 4.74 1.9t1.8 5.56v10.29h-3.53v-9.74q0-2.54-1.1-3.66-1.11-1.13-2.86-1.13-1.22 0-2.22.55-1 .56-1.6 1.63-.59 1.08-.59 2.67v9.68zm26.32 0q-.91 0-1.82-.24-.9-.24-1.64-.8t-1.18-1.5-.44-2.34v-16.79h3.51v17.05q0 .69.47 1.15.47.47 1.14.47h2.7v3zm-8.12-14.37v-3.02h10.86v3.02zm25.01 14.37-.06-5.4-.39-1.24v-4.42q0-1.92-1.04-2.74-1.03-.83-2.72-.83-1.36 0-2.79.52-1.44.51-2.48 1.52l-1.62-2.42q1.16-1.31 3.08-2.03t4.01-.71q2.11 0 3.69.73 1.58.74 2.47 2.18.88 1.43.88 3.59v5.6q0 1.43.03 2.84l.08 2.81zm-5.17.36q-2.95 0-4.73-1.45-1.78-1.44-1.78-3.74 0-1.54.89-2.74.89-1.19 2.46-1.89 1.58-.7 3.63-.7 3.16 0 4.8 1.4t1.64 3.68h-.8q0 2.58-1.58 4.01t-4.53 1.43m.95-2.62q1.78 0 2.79-.73 1.01-.74 1.01-1.92t-1.01-1.9-2.82-.72q-1.77 0-2.82.72t-1.05 1.9q0 1.16 1.07 1.91 1.06.74 2.83.74m17.09 2.26q-2.22 0-3.58-1.24-1.36-1.25-1.36-3.4v-20.17l1.58 1.58h-4.61v-3h6.56v21.66q0 .68.46 1.15t1.15.46h1.74v2.96zm10.29.32q-2.01 0-3.71-.6t-2.8-1.52l1.54-2.41q1.02.77 2.33 1.27 1.3.5 2.64.5 1.44 0 2.33-.64.89-.63.89-1.67 0-.94-.65-1.42-.66-.48-1.69-.78-1.03-.29-2.18-.59t-2.19-.82-1.68-1.47q-.66-.96-.66-2.58 0-2.37 1.77-3.86t4.76-1.48q1.67 0 3.17.47t2.64 1.28l-1.56 2.4q-.93-.66-2.02-1.04t-2.27-.38q-1.4 0-2.26.65-.86.64-.86 1.66 0 .9.66 1.4.67.49 1.72.78t2.22.61 2.23.86q1.05.54 1.71 1.5.67.96.67 2.61 0 1.55-.87 2.73-.87 1.19-2.39 1.86t-3.49.68"/><path fill="#838383" d="M179.69 662.05h314.44v1.56H179.69z"/><path fill="#1d1d1d" d="M268.24 697.05V683.7q0-.55-.33-.89t-.87-.34h-3.29v-1.93h3.81q1.21 0 1.98.77.77.76.77 1.96v13.78zm-4.54.78v-1.93h11.11v1.93zm20.07.25q-1.87 0-3.29-.62-1.41-.62-2.2-1.74t-.79-2.61q0-1.39.7-2.44.69-1.05 1.95-1.63t2.92-.58v.71q-1.49 0-2.6-.57-1.1-.56-1.72-1.54t-.61-2.24q0-1.37.7-2.38.7-1.02 1.97-1.59 1.27-.56 2.97-.56t2.97.56q1.26.57 1.96 1.58.71 1.01.71 2.38 0 1.25-.61 2.24t-1.72 1.55q-1.1.57-2.61.57v-.71q1.68 0 2.93.58t1.94 1.62.7 2.44q0 1.5-.8 2.62-.79 1.12-2.19 1.74t-3.28.62m0-1.83q1.22 0 2.14-.41.93-.42 1.46-1.17.52-.76.52-1.76 0-.99-.52-1.71-.53-.73-1.45-1.13t-2.14-.4-2.15.4-1.46 1.13-.53 1.71q0 1 .53 1.76.52.75 1.45 1.17t2.15.41m.01-8.24q1.63 0 2.6-.81t.97-2.12q0-1.33-.97-2.14-.98-.81-2.61-.81t-2.6.81-.98 2.14q0 1.31.98 2.12t2.61.81m13.73 9.82v-1.93h3.8q.72 0 1.19-.48.48-.48.48-1.19v-12.66l.88.9h-5.51v-1.93h6.75v13.51q0 1.8-1.03 2.79t-2.93.99zm15.68.25q-1.31 0-2.35-.52-1.04-.51-1.64-1.59t-.59-2.79v-7.23h1.98v6.88q0 1.27.39 2.02t1.07 1.07 1.54.32q.9 0 1.64-.39.74-.4 1.19-1.19.45-.8.45-1.98v-6.73h1.97v11.88h-1.78v-3.21h.6q-.26 1-.76 1.68-.51.67-1.15 1.06t-1.31.55-1.25.17m9.37-.25v-11.88h1.91v3.21h-.53q.27-1.02.77-1.69t1.14-1.06 1.31-.55 1.24-.16q2.01 0 3.26 1.29 1.24 1.29 1.24 3.86v6.98h-2v-6.69q0-1.91-.84-2.76-.85-.85-2.17-.85-.91 0-1.67.42-.75.41-1.21 1.21-.46.81-.46 2.01v6.66zm19.04.25q-1.75 0-3.1-.78-1.34-.78-2.1-2.16-.75-1.39-.75-3.19v-.25q0-1.73.69-3.07.69-1.35 1.95-2.14t2.92-.79q1.7 0 2.91.84t1.79 2.36.34 3.59h-9.17v-1.63h8.08l-.86.87q.17-1.34-.19-2.3t-1.11-1.48-1.79-.52q-1.11 0-1.92.54-.8.55-1.23 1.5-.44.95-.44 2.23v.45q0 1.11.5 2.05.49.94 1.41 1.49.91.56 2.15.56.94 0 1.66-.22.73-.23 1.28-.72l1.13 1.24q-.69.74-1.76 1.13-1.08.4-2.39.4m13.1-.25v-1.56l6.36-6.43q.91-.91 1.39-1.64.49-.74.69-1.39t.2-1.27q0-1.53-.9-2.4-.89-.86-2.42-.86-1.2 0-2.23.65t-1.82 1.84l-1.38-1.31q.94-1.49 2.37-2.33t3.12-.84q1.64 0 2.85.64t1.88 1.77.67 2.65q0 .82-.26 1.71-.26.88-.9 1.86-.63.97-1.78 2.14l-5.37 5.41-.12-.54h9.11v1.9zm20.55.25q-1.96 0-3.37-1.06t-2.17-3.05-.75-4.77.75-4.79 2.17-3.06 3.37-1.06q1.97 0 3.38 1.06t2.16 3.06.76 4.79-.76 4.77q-.75 1.99-2.16 3.05t-3.38 1.06m0-1.91q1.32 0 2.26-.82t1.44-2.37.49-3.78-.49-3.8q-.5-1.56-1.44-2.38t-2.26-.82-2.26.82-1.44 2.38-.49 3.8q0 2.22.49 3.78t1.44 2.37 2.26.82m9.1 1.66v-1.56l6.36-6.43q.9-.91 1.39-1.64.48-.74.68-1.39t.2-1.27q0-1.53-.89-2.4-.9-.86-2.43-.86-1.2 0-2.23.65t-1.82 1.84l-1.38-1.31q.94-1.49 2.38-2.33 1.43-.84 3.12-.84 1.64 0 2.85.64t1.88 1.77.66 2.65q0 .82-.26 1.71-.25.88-.89 1.86-.63.97-1.79 2.14l-5.37 5.41-.11-.54h9.11v1.9zm20.7.25q-1.85 0-3.22-.72t-2.11-2.04-.74-3.1q0-1.16.44-2.27.43-1.12 1.17-2.2l5.05-7.21h2.53l-5.5 7.49-.81.03q.78-.75 1.7-1.09.93-.34 1.91-.34 1.65 0 2.92.73 1.27.74 1.98 2.02.72 1.28.72 2.95 0 1.73-.76 3.02-.77 1.29-2.13 2.01t-3.15.72m-.03-1.84q1.16 0 2.05-.5.89-.49 1.39-1.37t.5-2.03-.49-2.05q-.5-.88-1.37-1.39t-2.02-.5q-1.19 0-2.09.5-.9.51-1.4 1.38-.49.88-.49 2.06 0 1.76 1.07 2.83 1.08 1.07 2.85 1.07"/><path fill="#838383" d="M313.75 726.08v-11.79h3.97q1.24 0 2.29.41 1.04.41 1.82 1.18.79.76 1.22 1.8t.43 2.3v.2q0 1.3-.44 2.38-.43 1.08-1.22 1.87-.78.79-1.83 1.22t-2.27.43zm1.43-.75-.6-.6h3.04q1.26 0 2.26-.58t1.57-1.61.57-2.36v-.2q0-1.3-.57-2.27t-1.56-1.52-2.27-.55h-3.04l.6-.61zm11.28.75 4.48-11.79h1.73l4.49 11.79h-1.48l-3.98-10.68h.24l-4.01 10.68zm1.85-3.21.48-1.24h6.06l.49 1.24zm13.81 3.21v-11.17h1.45v11.17zm-3.55-10.48v-1.31h8.57v1.31zm14.26 10.48q-.82 0-1.34-.53-.53-.54-.53-1.34v-8.05q0-.81.53-1.34.52-.53 1.34-.53h5.43v1.31h-4.99q-.38 0-.64.26-.25.26-.25.64v7.37q0 .37.25.63.26.26.64.26h4.99v1.32zm-1.15-5.28v-1.26h6.23v1.26zm277.2-58.75h314.44v1.56H628.88z"/><path fill="#1d1d1d" d="M707.26 697.83v-17.29h2.82l5.46 11.35h-.96l5.45-11.35h2.83v17.29h-2.06v-16.07l.7.01-5.61 11.93h-1.66l-5.6-11.93.69-.01v16.07zm26.61 0-.05-3.76-.22-.66v-3.19q0-1.46-.76-2.09-.75-.63-2.04-.63-.96 0-1.96.36t-1.72 1.1l-.94-1.41q.79-.91 2.08-1.38 1.28-.47 2.64-.47 1.41 0 2.46.49 1.05.5 1.63 1.47.58.98.58 2.46v3.81q0 .98.03 1.96l.05 1.94zm-3.63.25q-2.03 0-3.25-.99t-1.23-2.57q0-1.04.62-1.85t1.69-1.3 2.41-.48q2.15 0 3.3.96t1.15 2.52h-.37q0 1.76-1.14 2.73-1.13.98-3.18.98m.51-1.51q1.36 0 2.12-.57.75-.57.75-1.48t-.75-1.47-2.14-.56q-1.36 0-2.15.56t-.79 1.47q0 .89.8 1.47.81.58 2.16.58m6.93 6.2v-1.71h2.36q.52 0 .83-.36.31-.35.51-.84l1.67-3.67 3.83-10.24h2.2l-5.69 13.99q-.2.5-.47 1-.27.51-.66.92-.39.4-.96.66-.56.25-1.35.25zm4.86-4.09-5.2-12.73h2.21l4.17 10.63zm15.66-.85-.05-3.76-.22-.66v-3.19q0-1.46-.75-2.09-.76-.63-2.04-.63-.96 0-1.96.36-1.01.36-1.72 1.1l-.94-1.41q.79-.91 2.07-1.38 1.29-.47 2.65-.47 1.41 0 2.46.49 1.05.5 1.63 1.47.58.98.58 2.46v3.81l.02 1.96.05 1.94zm-3.63.25q-2.02 0-3.25-.99-1.22-.99-1.22-2.57 0-1.04.62-1.85.61-.82 1.69-1.3 1.07-.48 2.41-.48 2.15 0 3.3.96t1.15 2.52h-.38q0 1.76-1.13 2.73-1.14.98-3.19.98m.52-1.51q1.36 0 2.11-.57.76-.57.76-1.48t-.76-1.47-2.13-.56-2.15.56-.79 1.47q0 .89.8 1.47t2.16.58m17.14 1.26q-1.2 0-1.97-.78-.78-.78-.78-1.97v-14.54h2.11v13.98q0 .56.38.94t.93.37h6.9v2zm10 0v-11.05l.89.9h-3.19v-1.73h4.3v11.88zm-.1-14.49v-2.88h2.22v2.88zm5.82 14.49v-11.88h1.92v3.21h-.54q.28-1.02.78-1.69t1.14-1.06 1.3-.55 1.25-.16q2.01 0 3.25 1.29t1.25 3.86v6.98h-2v-6.69q0-1.91-.85-2.76-.84-.85-2.16-.85-.91 0-1.67.42-.76.41-1.21 1.21-.46.81-.46 2.01v6.66zm18.68.25q-1.62 0-2.89-.78-1.26-.77-1.98-2.14t-.72-3.2v-.23q0-1.78.73-3.14t2-2.13 2.87-.76q1.53 0 2.7.77t1.8 2.07l-.38.47v-9.22h1.99v18.04h-1.81v-3.22l.36.4q-.65 1.43-1.87 2.25-1.21.82-2.8.82m.28-1.77q1.15 0 2.05-.55t1.4-1.54q.52-1 .52-2.33t-.52-2.32-1.4-1.54q-.9-.55-2.05-.55-1.12 0-1.99.53-.88.53-1.38 1.48t-.5 2.24v.23q0 1.31.5 2.28.5.98 1.38 1.53.87.54 1.99.54m18.47 6.46v-7.99l.4.46q-.66 1.3-1.83 2.07t-2.7.77q-1.61 0-2.88-.78-1.27-.77-1.98-2.14-.72-1.38-.72-3.2v-.23q0-1.78.73-3.14t1.99-2.13 2.87-.76q1.57 0 2.77.81 1.21.81 1.84 2.17l-.36.42v-3.15h1.87v16.82zm-3.85-6.46q1.16 0 2.05-.55.9-.55 1.41-1.54.51-1 .51-2.33t-.51-2.32-1.41-1.54-2.05-.55q-1.11 0-1.99.53t-1.38 1.48-.49 2.24v.23q0 1.31.49 2.28.5.98 1.38 1.53.88.54 1.99.54m12.7 1.52-4.73-11.88h2.08l4.1 10.54h-.79l4.08-10.54h2.08l-4.71 11.88zm9.89 0v-11.05l.89.9h-3.19v-1.73h4.3v11.88zm-.1-14.49v-2.88h2.22v2.88zm9.11 14.72q-1.31 0-2.46-.41t-1.88-1.05l.89-1.38q.68.55 1.6.9t1.85.35q1.11 0 1.79-.5.69-.5.69-1.32 0-.72-.46-1.09t-1.19-.59-1.54-.42-1.54-.55-1.18-.99q-.47-.64-.47-1.74 0-1.59 1.18-2.58 1.19-.99 3.15-.99 1.13 0 2.12.33t1.75.88l-.91 1.37q-.62-.46-1.38-.73t-1.6-.27q-1.06 0-1.73.51t-.67 1.31q0 .69.47 1.07t1.2.59 1.56.43 1.56.58 1.21 1 .47 1.77q0 1.03-.58 1.83-.57.79-1.58 1.24t-2.32.45m11.35-.23q-.61 0-1.19-.17-.59-.17-1.06-.55-.47-.37-.75-.98-.27-.6-.27-1.47v-11.65h1.98v11.79q0 .57.38.94t.93.37h1.81v1.72zm-5.43-10.15v-1.73h7.26v1.73z"/><path fill="#838383" d="M672.52 726.08v-11.79h3.65q1.19 0 2.07.42t1.38 1.21.49 1.92q0 1.11-.49 1.9-.5.8-1.38 1.22t-2.07.41h-2.98v-1.21h3.05q1.1 0 1.78-.63t.68-1.69-.68-1.68q-.68-.63-1.78-.63h-2.89l.6-.56v11.11zm11.92 0v-11.79h3.8q1.2 0 2.09.4t1.38 1.18.49 1.95q0 1.2-.49 1.99-.5.78-1.38 1.16-.89.38-2.09.38h-3.13v-1.23h3.07q1.14 0 1.84-.55.7-.56.7-1.73 0-1.11-.7-1.71t-1.84-.6h-2.9l.6-.56v11.11zm6.44 0-3.34-5.36h1.6l3.41 5.36zm11.03.2q-1.23 0-2.28-.43-1.04-.44-1.81-1.25t-1.19-1.93-.42-2.46v-.14q0-1.33.42-2.43t1.19-1.9 1.81-1.22q1.05-.44 2.28-.44t2.28.44q1.04.43 1.81 1.22.76.8 1.18 1.9t.42 2.43v.14q0 1.35-.42 2.46-.42 1.12-1.18 1.93-.77.81-1.81 1.25-1.05.43-2.28.43m0-1.4q1.24 0 2.19-.58.94-.58 1.49-1.63.54-1.04.54-2.46v-.14q0-1.39-.54-2.41-.55-1.03-1.49-1.6-.95-.57-2.19-.57-1.23 0-2.18.57t-1.5 1.6-.55 2.41v.14q0 1.42.55 2.46.54 1.05 1.5 1.63.95.58 2.18.58m15.56 1.45q-1.72 0-3.05-.76-1.32-.77-2.07-2.13t-.75-3.12v-.25q0-1.79.76-3.15t2.11-2.12 3.11-.76q1.11 0 2.06.36t1.71 1.03l-.98 1.03q-.58-.55-1.29-.8t-1.49-.25q-1.32 0-2.34.6-1.02.59-1.6 1.64t-.58 2.42v.25q0 1.37.57 2.42t1.57 1.64 2.29.59q.91 0 1.64-.34t1.22-.94.72-1.39.13-1.67l.63.44h-3.71v-1.2h4.51q.15 1.39-.15 2.57-.29 1.17-.98 2.05t-1.71 1.36-2.33.48m9.59-.25v-11.79h3.79q1.21 0 2.09.4.89.4 1.38 1.18.5.79.5 1.95 0 1.2-.5 1.99-.49.78-1.38 1.16t-2.09.38h-3.13v-1.23h3.08q1.14 0 1.84-.55.7-.56.7-1.73 0-1.11-.7-1.71t-1.84-.6h-2.91l.61-.56v11.11zm6.44 0-3.34-5.36h1.6l3.41 5.36zm4.81 0 4.48-11.79h1.73l4.49 11.79h-1.49l-3.97-10.68h.23l-4 10.68zm1.85-3.21.48-1.24h6.05l.49 1.24zm12.84 3.21v-11.79h1.92l3.73 7.74h-.66l3.72-7.74h1.93v11.79h-1.41v-10.96l.48.01-3.82 8.13h-1.14l-3.82-8.13.48-.01v10.96zm15.94 0v-11.79h1.92l3.72 7.74h-.65l3.72-7.74h1.92v11.79h-1.4v-10.96l.47.01-3.82 8.13h-1.13l-3.82-8.13.47-.01v10.96zm17.71 0q-.82 0-1.35-.53-.53-.54-.53-1.34v-8.05q0-.81.53-1.34t1.35-.53h5.43v1.31h-4.99q-.39 0-.64.26-.26.26-.26.64v7.37q0 .37.26.63.25.26.64.26h4.99v1.32zm-1.16-5.28v-1.26h6.23v1.26zm17.59 5.28v-11.79h3.98q1.23 0 2.28.41t1.83 1.18 1.21 1.8q.44 1.04.44 2.3v.2q0 1.3-.44 2.38t-1.22 1.87-1.83 1.22-2.27.43zm1.44-.75-.6-.6h3.04q1.26 0 2.26-.58t1.56-1.61.57-2.36v-.2q0-1.3-.56-2.27t-1.56-1.52-2.27-.55h-3.04l.6-.61zm13.87.29v-10.87h1.45v10.87zm-2.07-10.02v-1.31h5.61v1.31zm0 10.48v-1.32h5.61v1.32zm10.09 0v-11.79h3.8q1.2 0 2.09.4t1.38 1.18.49 1.95q0 1.2-.49 1.99-.5.78-1.38 1.16-.89.38-2.09.38h-3.13v-1.23h3.07q1.14 0 1.84-.55.7-.56.7-1.73 0-1.11-.7-1.71t-1.84-.6h-2.9l.6-.56v11.11zm6.44 0-3.34-5.36h1.6l3.41 5.36zm7.87 0q-.82 0-1.35-.53-.52-.54-.52-1.34v-8.05q0-.81.52-1.34.53-.53 1.35-.53h5.43v1.31h-4.99q-.38 0-.64.26-.25.26-.25.64v7.37q0 .37.25.63.26.26.64.26h4.99v1.32zm-1.15-5.28v-1.26h6.23v1.26zm16.45 5.48q-1.25 0-2.34-.43-1.1-.43-1.92-1.22-.82-.8-1.28-1.89t-.47-2.41v-.29q0-1.32.47-2.41t1.28-1.89q.82-.79 1.92-1.22 1.09-.44 2.34-.44 1.1 0 2.03.33.94.33 1.67.93l-.91 1.09q-.56-.45-1.27-.7t-1.52-.24q-1.28 0-2.32.57t-1.62 1.6q-.59 1.03-.59 2.38v.29q0 1.35.59 2.38t1.62 1.6 2.32.57q.83 0 1.54-.25t1.29-.74l.91 1.09q-.73.62-1.69.96t-2.05.34m10.32-.2v-11.17h1.45v11.17zm-3.55-10.48v-1.31h8.57v1.31zm17.02 10.68q-1.23 0-2.28-.43-1.04-.44-1.81-1.25t-1.19-1.93-.42-2.46v-.14q0-1.33.42-2.43t1.19-1.9 1.81-1.22q1.05-.44 2.28-.44t2.28.44q1.04.43 1.81 1.22.76.8 1.18 1.9t.42 2.43v.14q0 1.35-.42 2.46-.42 1.12-1.18 1.93-.77.81-1.81 1.25-1.05.43-2.28.43m0-1.4q1.24 0 2.19-.58.94-.58 1.49-1.63.54-1.04.54-2.46v-.14q0-1.39-.54-2.41-.55-1.03-1.49-1.6-.95-.57-2.19-.57-1.23 0-2.18.57t-1.5 1.6-.55 2.41v.14q0 1.42.55 2.46.54 1.05 1.5 1.63.95.58 2.18.58m10.35 1.2v-11.79h3.79q1.2 0 2.09.4t1.38 1.18.49 1.95q0 1.2-.49 1.99-.5.78-1.38 1.16-.89.38-2.09.38h-3.13v-1.23h3.07q1.15 0 1.85-.55.7-.56.7-1.73 0-1.11-.7-1.71t-1.85-.6h-2.9l.6-.56v11.11zm6.43 0-3.34-5.36h1.6l3.41 5.36z"/></svg>