<svg xmlns="http://www.w3.org/2000/svg" id="chart-svg" width="1080" height="1080" data-lolly-anno="donut #f3f5f8 #0e1217 bottom circle inside bottom inside center auto" style="width:100%;height:auto;display:block" viewBox="0 0 1080 1080"><defs><style>#chart-svg [data-canvas-input]{cursor:pointer}</style></defs><path id="chart-bg" fill="none" d="M0 0h1080v1080H0z" pointer-events="all"/><path fill="#008657" d="M540 72a468 468 0 0 1 320.37 809.16L680.97 690.1A205.92 205.92 0 0 0 540 334.08Z"/><path fill="#fff" d="M821.32 472.57q-3.57 0-6.46-1.3-2.88-1.3-4.87-3.8l3.98-3.98q1.07 1.63 3.01 2.6t4.23.97q2.2 0 3.78-.81t2.47-2.3.89-3.42q0-2.04-.89-3.46-.89-1.43-2.55-2.22t-4-.79q-.92 0-1.89.12-.97.13-1.73.39l2.6-3.37q1.07-.41 2.27-.69t2.32-.28q2.75 0 4.97 1.33 2.22 1.32 3.52 3.7t1.3 5.58q0 3.47-1.63 6.12t-4.54 4.13-6.78 1.48m-4.03-18v-3.47l9.53-11.12 7.04-.15-9.94 11.42zm-5.51-12.96v-5.25h22.08v3.47l-5.05 1.78zm38.5 30.96q-3.67 0-6.37-1.33-2.7-1.32-4.21-3.69t-1.5-5.38q0-2.4.94-4.42.94-2.01 2.75-3.44t4.31-2.04l-.15 1.63q-2.04-.56-3.44-1.83-1.4-1.28-2.12-3.01-.71-1.73-.71-3.62 0-2.86 1.35-5.03 1.35-2.16 3.75-3.39 2.39-1.22 5.4-1.22 3.06 0 5.44 1.22 2.37 1.23 3.72 3.39t1.35 5.03q0 1.89-.71 3.62-.72 1.73-2.09 3.01-1.38 1.27-3.47 1.83l-.16-1.63q2.55.61 4.34 2.04 1.78 1.43 2.73 3.44.94 2.02.94 4.42 0 3.01-1.48 5.38t-4.21 3.69-6.4 1.33m0-5.3q1.89 0 3.34-.77 1.46-.76 2.3-2.09t.84-3.01q0-1.73-.84-3.03t-2.3-2.07q-1.45-.76-3.34-.76-1.88 0-3.34.76-1.45.77-2.29 2.07t-.84 3.03q0 1.68.84 3.01t2.29 2.09q1.46.77 3.34.77m0-16.32q2.25 0 3.68-1.43 1.42-1.43 1.42-3.67t-1.42-3.65-3.68-1.4q-2.19 0-3.64 1.4t-1.46 3.65q0 2.24 1.46 3.67 1.45 1.43 3.64 1.43m16.53 21.11 22.9-35.7h5.56l-22.9 35.7zm21.67.51q-1.99 0-3.64-.97t-2.63-2.6-.97-3.67.97-3.65 2.6-2.57 3.67-.97 3.7.97 2.63 2.57q.97 1.61.97 3.65t-.97 3.67-2.6 2.6-3.73.97m0-4.33q1.28 0 2.07-.82t.79-2.09q0-1.23-.82-2.04t-2.04-.82-1.99.82q-.76.81-.76 2.04 0 1.27.76 2.09.77.82 1.99.82m-14.94-17.96q-1.99 0-3.65-.97-1.65-.96-2.62-2.6-.97-1.63-.97-3.67t.97-3.65 2.6-2.57 3.67-.97 3.7.97 2.62 2.57q.97 1.61.97 3.65t-.97 3.67-2.6 2.6-3.72.97m0-4.33q1.28 0 2.04-.82t.76-2.09-.79-2.06-2.01-.79-1.99.79-.76 2.06.76 2.09q.77.82 1.99.82M762.77 364.9v-4.89h7.19q1.43 0 2.56-.57 1.13-.58 1.79-1.67.65-1.08.65-2.61t-.65-2.61-1.79-1.66-2.56-.58h-7.19v-4.88h7.82q2.93 0 5.28 1.19 2.34 1.2 3.7 3.37 1.37 2.18 1.37 5.17 0 2.97-1.37 5.16-1.36 2.19-3.7 3.38-2.35 1.2-5.28 1.2zm-4.39 11.46v-30.93h5.99v30.93zm35.55.46q-2.79 0-4.98-1.2-2.18-1.2-3.41-3.31-1.22-2.11-1.22-4.87v-12.33h5.78v12.19q0 1.32.45 2.26t1.32 1.44 2.07.5q1.8 0 2.81-1.1 1-1.1 1-3.1v-12.19h5.78v12.33q0 2.79-1.22 4.91-1.22 2.11-3.38 3.29t-5 1.18m25.97-.02q-2.3 0-4.15-.96t-2.95-2.63-1.19-3.76v-7.54q.08-2.09 1.21-3.73t2.97-2.58 4.11-.93q2.95 0 5.28 1.46t3.67 3.97q1.35 2.5 1.35 5.67 0 3.13-1.35 5.63-1.34 2.5-3.67 3.95t-5.28 1.45m-11.81-.44v-31.81h5.78v15.78l-.98 5.14.93 5.18v5.71zm10.82-4.88q1.58 0 2.79-.74 1.21-.73 1.91-2.02.69-1.3.69-2.99 0-1.68-.69-2.98-.7-1.29-1.91-2.03-1.22-.73-2.8-.73t-2.81.73-1.9 2.03-.67 2.98q0 1.7.68 3 .67 1.29 1.9 2.02t2.81.73m15.05 4.88v-31.81h5.78v31.81zm10.89 0v-21.25h5.78v21.25zm2.89-24.66q-1.4 0-2.32-.95t-.92-2.35.92-2.35 2.32-.95q1.44 0 2.34.95.91.95.91 2.35t-.91 2.35-2.34.95m18.03 25.12q-3.22 0-5.82-1.45t-4.1-3.98q-1.5-2.52-1.5-5.64 0-3.17 1.5-5.68 1.51-2.51 4.11-3.97 2.61-1.45 5.84-1.45 2.49 0 4.6.9 2.11.91 3.67 2.64l-3.72 3.76q-.84-.96-1.99-1.44-1.15-.47-2.56-.47-1.61 0-2.87.72-1.25.73-1.96 1.99-.71 1.27-.71 2.97 0 1.68.71 2.96.71 1.29 1.97 2.02t2.86.73q1.44 0 2.6-.5t2-1.48l3.73 3.76q-1.59 1.76-3.71 2.69t-4.65.92m30.23 0q-3.23 0-5.83-1.45t-4.09-3.98q-1.5-2.52-1.5-5.64 0-3.17 1.5-5.68t4.11-3.97 5.84-1.45q2.49 0 4.6.9 2.11.91 3.67 2.64l-3.73 3.76q-.83-.96-1.98-1.44-1.15-.47-2.56-.47-1.62 0-2.87.72-1.25.73-1.96 1.99-.71 1.27-.71 2.97 0 1.68.71 2.96.71 1.29 1.97 2.02 1.25.73 2.86.73 1.44 0 2.6-.5t2-1.48l3.73 3.76q-1.6 1.76-3.71 2.69-2.12.92-4.65.92m11.61-.46v-31.81h5.79v31.81zm26.05.46q-1.57 0-2.59-1.06t-1.02-2.59q0-1.57 1.02-2.62 1.02-1.04 2.59-1.04 1.58 0 2.59 1.04 1.01 1.05 1.01 2.62 0 1.53-1.01 2.59t-2.59 1.06m11.22 0q-1.57 0-2.59-1.06t-1.02-2.59q0-1.57 1.02-2.62 1.02-1.04 2.59-1.04 1.58 0 2.59 1.04 1.01 1.05 1.01 2.62 0 1.53-1.01 2.59t-2.59 1.06m-22.44 0q-1.57 0-2.59-1.06t-1.02-2.59q0-1.57 1.02-2.62 1.02-1.04 2.59-1.04 1.58 0 2.59 1.04 1.01 1.05 1.01 2.62 0 1.53-1.01 2.59t-2.59 1.06"/><path fill="#2453ff" d="M860.37 881.16a468 468 0 0 1-755.5-168.88l243.67-96.48a205.92 205.92 0 0 0 332.42 74.3Z"/><path fill="#fff" d="M439.44 925.45q-3.57 0-6.46-1.3-2.88-1.3-4.87-3.8l3.98-3.98q1.07 1.63 3.01 2.6t4.23.97q2.2 0 3.78-.81t2.47-2.3.89-3.42q0-2.04-.89-3.46-.89-1.43-2.55-2.22t-4-.79q-.92 0-1.89.12-.97.13-1.73.39l2.6-3.37q1.07-.41 2.27-.69t2.32-.28q2.75 0 4.97 1.33 2.22 1.32 3.52 3.7t1.3 5.58q0 3.47-1.63 6.12t-4.54 4.13-6.78 1.48m-4.03-18v-3.47l9.53-11.12 7.04-.15-9.94 11.42zm-5.51-12.96v-5.25h22.08v3.47l-5.05 1.78zm33 30.45v-35.7h5.76v35.7zm-7.14-30.45v-5.25h12.39v5.25zm19.33 30.45 22.89-35.7h5.56l-22.9 35.7zm21.67.51q-1.99 0-3.65-.97-1.65-.97-2.62-2.6t-.97-3.67.97-3.65 2.6-2.57 3.67-.97 3.7.97 2.62 2.57q.97 1.61.97 3.65t-.97 3.67-2.6 2.6-3.72.97m0-4.33q1.28 0 2.07-.82t.79-2.09q0-1.23-.82-2.04t-2.04-.82q-1.22 0-1.99.82-.76.81-.76 2.04 0 1.27.76 2.09.77.82 1.99.82m-14.94-17.96q-1.99 0-3.65-.97-1.66-.96-2.63-2.6-.97-1.63-.97-3.67t.97-3.65 2.61-2.57 3.67-.97 3.69.97 2.63 2.57q.97 1.61.97 3.65t-.97 3.67-2.6 2.6-3.72.97m0-4.33q1.27 0 2.04-.82.76-.81.76-2.09t-.79-2.06-2.01-.79q-1.23 0-1.99.79-.77.79-.77 2.06 0 1.28.77 2.09.76.82 1.99.82m-123.96-69.59v-5.33h7.9q2.99 0 5.24-1.25t3.5-3.55 1.24-5.38q0-3.06-1.27-5.32t-3.51-3.52-5.2-1.25h-8.01v-5.33h8.11q3.43 0 6.35 1.15t5.09 3.23 3.38 4.9 1.2 6.18q0 3.34-1.2 6.17-1.21 2.83-3.36 4.92-2.16 2.08-5.07 3.23t-6.31 1.15zm-4.08 0v-30.93h5.99v30.93zm41.13.44q-2.91 0-5.22-1.45-2.32-1.45-3.66-3.95-1.33-2.5-1.33-5.63 0-3.17 1.33-5.67 1.34-2.51 3.66-3.97 2.31-1.46 5.22-1.46 2.28 0 4.09.93 1.8.94 2.9 2.58t1.17 3.73v7.65q-.08 2.09-1.16 3.73t-2.9 2.58q-1.82.93-4.1.93m1.07-5.32q2.42 0 3.91-1.62 1.48-1.61 1.48-4.13 0-1.69-.67-2.98t-1.88-2.03-2.82-.73q-1.59 0-2.8.73-1.21.74-1.91 2.03-.7 1.3-.7 2.98 0 1.69.7 2.99.69 1.29 1.91 2.02 1.21.74 2.78.74m5.1 4.88v-5.71l.92-5.18-.92-5.14v-5.22h5.73v21.25zm13.93 0v-30.07h5.79v30.07zm-4.95-16.19v-5.06h15.69v5.06zm27.31 16.63q-2.91 0-5.22-1.45-2.32-1.45-3.66-3.95-1.33-2.5-1.33-5.63 0-3.17 1.33-5.67 1.34-2.51 3.66-3.97 2.31-1.46 5.22-1.46 2.28 0 4.09.93 1.8.94 2.9 2.58t1.17 3.73v7.65q-.08 2.09-1.16 3.73t-2.9 2.58q-1.82.93-4.1.93m1.07-5.32q2.42 0 3.91-1.62 1.48-1.61 1.48-4.13 0-1.69-.67-2.98t-1.88-2.03-2.82-.73q-1.59 0-2.8.73-1.21.74-1.91 2.03-.7 1.3-.7 2.98 0 1.69.7 2.99.69 1.29 1.91 2.02 1.21.74 2.78.74m5.1 4.88v-5.71l.92-5.18-.92-5.14v-5.22h5.73v21.25zm29.42.46q-3.22 0-5.82-1.45t-4.1-3.98-1.5-5.64q0-3.17 1.51-5.68 1.5-2.51 4.1-3.97 2.61-1.45 5.85-1.45 2.48 0 4.59.9 2.11.91 3.68 2.64l-3.73 3.76q-.84-.96-1.99-1.44-1.15-.47-2.55-.47-1.62 0-2.88.72-1.25.73-1.96 1.99-.71 1.27-.71 2.97 0 1.68.71 2.96.71 1.29 1.97 2.02t2.87.73q1.44 0 2.6-.5t1.99-1.48l3.73 3.76q-1.59 1.76-3.71 2.69t-4.65.92m21.31 0q-3.32 0-5.94-1.43-2.61-1.43-4.11-3.95t-1.51-5.71q0-3.16 1.48-5.67t4.02-3.96 5.69-1.45q3.05 0 5.4 1.37t3.69 3.76 1.34 5.47q0 .56-.06 1.16-.07.59-.22 1.33l-17.89.03v-4.29l15.2-.03-2.35 1.77q-.07-1.89-.67-3.17-.59-1.27-1.71-1.94t-2.76-.67q-1.71 0-2.98.76-1.26.76-1.95 2.14t-.69 3.31.73 3.36q.74 1.42 2.09 2.19 1.35.76 3.17.76 1.6 0 2.93-.56 1.33-.55 2.3-1.65l3.39 3.41q-1.56 1.81-3.78 2.74-2.23.92-4.81.92m27.93-.46v-12.18q0-1.9-1.19-3.09-1.19-1.2-3.04-1.2-1.26 0-2.23.54t-1.51 1.51-.55 2.24l-2.25-1.16q0-2.48 1.08-4.35 1.09-1.88 3-2.94t4.33-1.06q2.35 0 4.19 1.16 1.84 1.17 2.9 3.05t1.05 4.02v13.46zm-14.3 0v-21.25h5.78v21.25zm27.59 0v-30.07h5.78v30.07zm-4.95-16.19v-5.06h15.68v5.06zm34.12 16.65q-1.58 0-2.59-1.06-1.02-1.06-1.02-2.59 0-1.57 1.02-2.62 1.01-1.04 2.59-1.04t2.58 1.04q1.02 1.05 1.02 2.62 0 1.53-1.02 2.59-1.01 1.06-2.58 1.06m11.22 0q-1.58 0-2.59-1.06-1.02-1.06-1.02-2.59 0-1.57 1.02-2.62 1.01-1.04 2.59-1.04t2.58 1.04q1.02 1.05 1.02 2.62 0 1.53-1.02 2.59-1.01 1.06-2.58 1.06m-22.44 0q-1.58 0-2.59-1.06-1.02-1.06-1.02-2.59 0-1.57 1.02-2.62 1.01-1.04 2.59-1.04t2.58 1.04q1.02 1.05 1.02 2.62 0 1.53-1.02 2.59-1.01 1.06-2.58 1.06"/><path fill="#fe7c3f" d="M104.86 712.28a468 468 0 0 1 114.77-513.44l179.4 191.05a205.9 205.9 0 0 0-50.49 225.91Z"/><path fill="#0c322c" d="M179.46 522.59v-35.7h5.76v35.7zm-7.14-30.45v-5.25h12.39v5.25zm23.76 30.45 10.46-14.64 2.09-1.27q-.51 1.12-1.3 1.99t-2.07 1.32-3.26.46q-3.06 0-5.61-1.45t-4.08-4.06-1.53-6.01q0-3.47 1.71-6.33t4.56-4.54q2.86-1.68 6.38-1.68 3.57 0 6.42 1.66t4.52 4.43q1.65 2.78 1.65 6.25 0 4.9-3.41 9.9l-9.75 13.97zm7.35-16.73q1.93 0 3.46-.92 1.53-.91 2.4-2.49.87-1.59.87-3.52 0-2.04-.87-3.62-.87-1.59-2.4-2.5-1.53-.92-3.46-.92-1.94 0-3.47.92-1.53.91-2.42 2.5-.9 1.58-.9 3.62 0 1.99.9 3.54.89 1.56 2.44 2.47 1.56.92 3.45.92m16.88 16.73 22.9-35.7h5.55l-22.89 35.7zm21.67.51q-1.99 0-3.64-.97t-2.63-2.6-.97-3.67.97-3.65 2.6-2.57 3.67-.97 3.7.97 2.63 2.57q.97 1.61.97 3.65t-.97 3.67-2.61 2.6-3.72.97m0-4.33q1.28 0 2.07-.82t.79-2.09q0-1.23-.82-2.04t-2.04-.82q-1.22 0-1.99.82-.76.81-.76 2.04 0 1.27.76 2.09.77.82 1.99.82m-14.94-17.96q-1.99 0-3.65-.97-1.65-.96-2.62-2.6-.97-1.63-.97-3.67t.97-3.65 2.6-2.57 3.67-.97 3.7.97 2.62 2.57.97 3.65-.97 3.67q-.97 1.64-2.6 2.6t-3.72.97m0-4.33q1.27 0 2.04-.82.76-.81.76-2.09t-.79-2.06-2.01-.79-1.99.79-.77 2.06q0 1.28.77 2.09.77.82 1.99.82m-112.89-69.59v-30.93h5.99v30.93zm4.39 0v-5.29h17.13v5.29zm0-13.23v-5.12h15.6v5.12zm0-12.41v-5.29h16.9v5.29zm30.18 26.08q-2.95 0-5.28-1.45t-3.67-3.95-1.35-5.64q0-3.18 1.35-5.67 1.34-2.5 3.66-3.96t5.29-1.46q2.3 0 4.13.93t2.96 2.58 1.2 3.73v7.54q-.07 2.09-1.18 3.76-1.12 1.67-2.96 2.63-1.85.96-4.15.96m.99-5.32q1.63 0 2.83-.74 1.2-.73 1.88-2.02t.68-2.99-.68-2.99-1.88-2.01q-1.2-.74-2.8-.74t-2.81.74-1.91 2.03-.7 2.97.69 2.98 1.92 2.03q1.22.74 2.78.74m10.82 4.88h-5.73v-5.71l.93-5.18-.98-5.14v-15.78h5.78zm14.01 9.42q-3.42 0-6.01-1.21t-4.12-3.41l3.65-3.64q1.21 1.46 2.74 2.21 1.53.76 3.68.76 2.67 0 4.23-1.36t1.56-3.76v-5.32l.98-4.67-.93-4.68v-5.59h5.73v20.17q0 3.17-1.47 5.52t-4.07 3.66-5.97 1.32m-.27-9.97q-2.87 0-5.15-1.39t-3.59-3.81-1.3-5.4q0-3 1.3-5.38 1.31-2.38 3.59-3.77t5.15-1.39q2.36 0 4.18.92t2.88 2.54 1.14 3.78v6.66q-.08 2.13-1.16 3.76-1.08 1.64-2.9 2.56t-4.14.92m1.13-5.27q1.58 0 2.76-.68t1.82-1.88.64-2.75-.64-2.76q-.65-1.19-1.82-1.87t-2.75-.68-2.77.68-1.85 1.88-.66 2.75q0 1.51.66 2.72t1.84 1.9 2.77.69m25.87 6.28q-3.32 0-5.94-1.43-2.61-1.43-4.12-3.95-1.5-2.53-1.5-5.71 0-3.16 1.48-5.67t4.02-3.96 5.68-1.45q3.06 0 5.41 1.37t3.69 3.76 1.34 5.47q0 .56-.06 1.16-.07.59-.22 1.33l-17.89.03v-4.29l15.2-.03-2.35 1.77q-.07-1.89-.67-3.17-.6-1.27-1.71-1.94-1.12-.67-2.76-.67-1.71 0-2.98.76-1.26.76-1.95 2.14t-.69 3.31.73 3.36 2.09 2.19q1.35.76 3.16.76 1.61 0 2.94-.56 1.33-.55 2.3-1.65l3.39 3.41q-1.56 1.81-3.79 2.74-2.22.92-4.8.92m29.54.04q-1.82 0-3.55-.48t-3.18-1.36q-1.46-.87-2.52-2.09l3.44-3.48q1.09 1.22 2.53 1.86 1.45.63 3.21.63 1.4 0 2.14-.41.73-.42.73-1.2 0-.88-.78-1.35-.77-.47-1.99-.82l-2.58-.75q-1.35-.4-2.58-1.09t-1.99-1.91-.77-3.14q0-2.04 1-3.53t2.83-2.32 4.36-.83q2.63 0 4.77.92t3.52 2.76l-3.45 3.47q-.97-1.16-2.19-1.7-1.22-.53-2.59-.53-1.3 0-1.98.39t-.68 1.1q0 .79.77 1.23t2 .77 2.56.75q1.35.42 2.57 1.16 1.22.75 1.99 1.98t.77 3.2q0 3.11-2.25 4.94t-6.11 1.83m12.22-.5v-21.25h5.79v21.25zm2.9-24.66q-1.4 0-2.32-.95-.93-.95-.93-2.35t.93-2.35q.92-.95 2.32-.95 1.44 0 2.34.95t.9 2.35-.9 2.35-2.34.95m11.12 24.66v-30.07h5.78v30.07zm-4.95-16.19v-5.06h15.68v5.06zm28.59 16.65q-3.32 0-5.94-1.43-2.61-1.43-4.12-3.95-1.5-2.53-1.5-5.71 0-3.16 1.48-5.67t4.02-3.96q2.55-1.45 5.68-1.45 3.06 0 5.41 1.37t3.69 3.76 1.34 5.47q0 .56-.06 1.16-.07.59-.22 1.33l-17.89.03v-4.29l15.2-.03-2.35 1.77q-.07-1.89-.67-3.17-.6-1.27-1.71-1.94-1.12-.67-2.76-.67-1.72 0-2.98.76-1.27.76-1.95 2.14-.69 1.38-.69 3.31t.73 3.36 2.09 2.19 3.16.76q1.61 0 2.94-.56 1.33-.55 2.3-1.65l3.39 3.41q-1.56 1.81-3.79 2.74-2.22.92-4.8.92m20.96.04q-1.82 0-3.55-.48t-3.18-1.36-2.52-2.09l3.45-3.48q1.08 1.22 2.53 1.86 1.44.63 3.2.63 1.4 0 2.14-.41.73-.42.73-1.2 0-.88-.78-1.35-.77-.47-1.99-.82l-2.58-.75q-1.35-.4-2.58-1.09t-1.99-1.91-.77-3.14q0-2.04 1-3.53t2.83-2.32 4.36-.83q2.63 0 4.77.92t3.52 2.76l-3.45 3.47q-.97-1.16-2.19-1.7-1.22-.53-2.59-.53-1.3 0-1.98.39t-.68 1.1q0 .79.77 1.23t2 .77 2.56.75q1.35.42 2.57 1.16 1.22.75 1.99 1.98t.77 3.2q0 3.11-2.25 4.94t-6.11 1.83"/><path fill="#00bda7" d="M219.63 198.84A468 468 0 0 1 540 72v262.08a206 206 0 0 0-140.96 55.81Z"/><path fill="#0c322c" d="M384.8 282.8v-35.7h5.76v35.7zm-7.14-30.45v-5.25h12.39v5.25zm18.2 26.98 13.16-13.97q1.63-1.74 2.65-3.11 1.02-1.38 1.48-2.6t.46-2.5q0-2.4-1.55-3.75-1.56-1.35-3.96-1.35-2.55 0-4.49 1.27-1.93 1.28-3.46 3.98l-4.08-3.37q2.09-3.62 5.15-5.48t7.09-1.86q3.31 0 5.81 1.33 2.5 1.32 3.88 3.69t1.37 5.49q0 2.24-.53 4-.54 1.76-1.81 3.52-1.28 1.76-3.52 4.1l-10.1 10.46zm0 3.47v-3.47l5.05-1.78h19.18v5.25zm28.72 0 22.9-35.7h5.55l-22.89 35.7zm21.67.51q-1.99 0-3.65-.97-1.65-.97-2.62-2.6t-.97-3.67.97-3.65 2.6-2.57 3.67-.97 3.7.97 2.62 2.57q.97 1.61.97 3.65t-.97 3.67-2.6 2.6-3.72.97m0-4.33q1.28 0 2.07-.82t.79-2.09q0-1.23-.82-2.04t-2.04-.82-1.99.82q-.76.81-.76 2.04 0 1.27.76 2.09.77.82 1.99.82m-14.94-17.96q-1.99 0-3.65-.97-1.66-.96-2.62-2.6-.97-1.63-.97-3.67t.97-3.65q.96-1.6 2.6-2.57 1.63-.97 3.67-.97t3.7.97 2.62 2.57q.97 1.61.97 3.65t-.97 3.67-2.6 2.6-3.72.97m0-4.33q1.27 0 2.04-.82.76-.81.76-2.09t-.79-2.06-2.01-.79q-1.23 0-1.99.79-.77.79-.77 2.06 0 1.28.77 2.09.76.82 1.99.82M300.04 187.1l12.48-30.93h4.89l12.38 30.93h-6.38l-9.58-25.37h2.18l-9.7 25.37zm6.62-5.77v-5.02h16.62v5.02zm26.53 5.77v-21.25h5.79v21.25zm2.9-24.66q-1.4 0-2.33-.95-.92-.95-.92-2.35t.92-2.35 2.33-.95q1.44 0 2.34.95t.9 2.35-.9 2.35-2.34.95m7.99 24.66v-21.25h5.79v21.25zm5.79-11.74-2.26-1.51q.42-3.89 2.31-6.16t5.44-2.28q1.56 0 2.79.52 1.22.51 2.21 1.63l-3.58 4.16q-.51-.55-1.19-.81-.68-.25-1.56-.25-1.85 0-3.01 1.15t-1.15 3.55m11.42 3.14v-5.24h15.24v5.24zm30.13 18.02q-3.43 0-6.01-1.21-2.59-1.21-4.13-3.41l3.66-3.64q1.21 1.46 2.73 2.21 1.53.76 3.69.76 2.67 0 4.23-1.36t1.56-3.76v-5.32l.98-4.67-.93-4.68v-5.59h5.73v20.17q0 3.17-1.47 5.52-1.48 2.35-4.07 3.66-2.6 1.32-5.97 1.32m-.27-9.97q-2.87 0-5.15-1.39t-3.59-3.81-1.3-5.4q0-3 1.3-5.38 1.31-2.38 3.59-3.77t5.15-1.39q2.35 0 4.18.92t2.88 2.54 1.14 3.78v6.66q-.08 2.13-1.16 3.76-1.08 1.64-2.9 2.56t-4.14.92m1.12-5.27q1.59 0 2.76-.68 1.18-.68 1.82-1.88t.65-2.75-.65-2.76q-.64-1.19-1.81-1.87t-2.76-.68q-1.57 0-2.76.68-1.2.68-1.86 1.88t-.66 2.75q0 1.51.66 2.72t1.85 1.9 2.76.69m24.59 6.26q-2.91 0-5.22-1.45-2.32-1.45-3.65-3.95-1.34-2.5-1.34-5.63 0-3.17 1.34-5.67 1.33-2.51 3.65-3.97t5.22-1.46q2.29 0 4.09.93t2.9 2.58q1.09 1.64 1.17 3.73v7.65q-.08 2.09-1.16 3.73t-2.89 2.58-4.11.93m1.08-5.32q2.42 0 3.9-1.62 1.49-1.61 1.49-4.13 0-1.69-.67-2.98-.68-1.29-1.89-2.03t-2.82-.73q-1.59 0-2.8.73-1.21.74-1.91 2.03-.69 1.3-.69 2.98 0 1.69.69 2.99.69 1.29 1.91 2.02 1.21.74 2.79.74m5.09 4.88v-5.71l.92-5.18-.92-5.14v-5.22h5.73v21.25zm22.63.44q-2.3 0-4.15-.93t-2.95-2.58-1.2-3.73v-7.54q.09-2.09 1.21-3.76t2.97-2.63 4.12-.96q2.94 0 5.28 1.46 2.33 1.46 3.67 3.97 1.34 2.5 1.34 5.67 0 3.13-1.34 5.63t-3.67 3.95-5.28 1.45m-11.82 8.47v-30.16h5.79v5.58l-.98 5.18.92 5.14v14.26zm10.81-13.79q1.59 0 2.81-.74 1.21-.73 1.9-2.03.7-1.29.7-2.98t-.7-2.98-1.9-2.03q-1.21-.73-2.79-.73-1.59 0-2.81.73-1.23.73-1.91 2.02-.67 1.3-.67 2.99t.67 2.99q.67 1.29 1.89 2.02 1.23.74 2.81.74m26.88 5.32q-2.3 0-4.15-.93t-2.95-2.58-1.2-3.73v-7.54q.09-2.09 1.21-3.76 1.13-1.67 2.97-2.63t4.12-.96q2.95 0 5.28 1.46t3.67 3.97 1.34 5.67q0 3.13-1.34 5.63t-3.67 3.95-5.28 1.45m-11.82 8.47v-30.16h5.79v5.58l-.98 5.18.93 5.14v14.26zm10.81-13.79q1.6 0 2.81-.74 1.21-.73 1.9-2.03.7-1.29.7-2.98t-.7-2.98-1.9-2.03q-1.21-.73-2.79-.73-1.59 0-2.81.73-1.23.73-1.91 2.02-.67 1.3-.67 2.99t.67 2.99q.67 1.29 1.9 2.02 1.22.74 2.8.74m25.24 5.34q-3.32 0-5.93-1.43-2.62-1.43-4.12-3.95-1.51-2.53-1.51-5.71 0-3.16 1.48-5.67t4.03-3.96 5.68-1.45q3.06 0 5.4 1.37t3.69 3.76q1.35 2.4 1.35 5.47 0 .56-.07 1.16t-.22 1.33l-17.89.03v-4.29l15.21-.03-2.36 1.77q-.06-1.89-.66-3.17-.6-1.27-1.72-1.94t-2.75-.67q-1.72 0-2.99.76-1.26.76-1.95 2.14t-.69 3.31.74 3.36q.73 1.42 2.08 2.19 1.35.76 3.17.76 1.6 0 2.94-.56 1.33-.55 2.29-1.65l3.39 3.41q-1.56 1.81-3.78 2.74-2.22.92-4.81.92m22.61-.02q-2.95 0-5.28-1.45t-3.68-3.95q-1.34-2.5-1.34-5.64 0-3.18 1.34-5.67 1.34-2.5 3.67-3.96t5.29-1.46q2.3 0 4.13.93t2.96 2.58 1.2 3.73v7.54q-.08 2.09-1.19 3.76t-2.96 2.63-4.14.96m.99-5.32q1.62 0 2.82-.74 1.21-.73 1.89-2.02t.68-2.99-.68-2.99-1.88-2.01q-1.21-.74-2.81-.74t-2.8.74-1.91 2.03-.7 2.97.69 2.98 1.91 2.03 2.79.74m10.82 4.88h-5.73v-5.71l.92-5.18-.98-5.14v-15.78h5.79z"/></svg>