<svg xmlns="http://www.w3.org/2000/svg" width="1600" height="1000" viewBox="0 0 1600 1000" xmlns:c2pa="http://c2pa.org/manifest"><metadata><c2pa:manifest>AAAHPmp1bWIAAAAeanVtZGMycGEAEQAQgAAAqgA4m3EDYzJwYQAAAAcYanVtYgAAAEdqdW1kYzJtYQARABCAAACqADibcQN1cm46dXVpZDpkNzk5ZWY3NS00MWM4LTQ0MGMtOWJkYS01ZWNiOTkzN2NjNjcAAAACaGp1bWIAAAApanVtZGMyYXMAEQAQgAAAqgA4m3EDYzJwYS5hc3NlcnRpb25zAAAAAO5qdW1iAAAAKWp1bWRjYm9yABEAEIAAAKoAOJtxA2MycGEuYWN0aW9ucy52MgAAAAC9Y2JvcqFnYWN0aW9uc4GkZmFjdGlvbmxjMnBhLmNyZWF0ZWRxZGlnaXRhbFNvdXJjZVR5cGV4Pmh0dHA6Ly9jdi5pcHRjLm9yZy9uZXdzY29kZXMvZGlnaXRhbHNvdXJjZXR5cGUvZGlnaXRhbENyZWF0aW9ubXNvZnR3YXJlQWdlbnSiZG5hbWVlTG9sbHlndmVyc2lvbmcxLjE1NS4wZHdoZW50MjAyNi0wOC0yOVQwMDo1MDoxMloAAACranVtYgAAAChqdW1kY2JvcgARABCAAACqADibcQNjMnBhLmhhc2guZGF0YQAAAAB7Y2JvcqVqZXhjbHVzaW9uc4GiZXN0YXJ0GJpmbGVuZ3RoGQmoZG5hbWVuanVtYmYgbWFuaWZlc3RjYWxnZnNoYTI1NmRoYXNoWCAQ1kkzd6EXmxUXTPtHWdx6CIOuPt2cVtJdStd0LQ8fMGNwYWRIAAAAAAAAAAAAAACeanVtYgAAACxqdW1kY2JvcgARABCAAACqADibcQN0b29scy5sb2xseS5leHBvcnQAAAAAamNib3KmZ3N1cmZhY2VlYnVpbGRmZW5naW5lbW5vZGUgdjI0LjIwLjBib3NlbGludXhmZm9ybWF0Y3N2Z2R0b29sZWZyYW1lZGRhdGV4GDIwMjYtMDgtMjlUMDA6NTA6MTIuNzMxWgAAAgBqdW1iAAAAJ2p1bWRjMmNsABEAEIAAAKoAOJtxA2MycGEuY2xhaW0udjIAAAAB0WNib3KmaGRjOnRpdGxlZWZyYW1lamluc3RhbmNlSUR4LXVybjp1dWlkOjYyNWUxYzMxLTY4OGItNDFjYy1iMTBjLTViNDc0YTBjNGRmYXRjbGFpbV9nZW5lcmF0b3JfaW5mb6JkbmFtZWVMb2xseWd2ZXJzaW9uZzEuMTU1LjByY3JlYXRlZF9hc3NlcnRpb25zg6JjdXJseCpzZWxmI2p1bWJmPWMycGEuYXNzZXJ0aW9ucy9jMnBhLmFjdGlvbnMudjJkaGFzaFggKgmLWcVjLZ4MI29s4ZH70W74xs3VljMT7IFPro49OAKiY3VybHgpc2VsZiNqdW1iZj1jMnBhLmFzc2VydGlvbnMvYzJwYS5oYXNoLmRhdGFkaGFzaFggyOS6LcLxVLTj459oLh+vponnuh3QgNfzFIDyRXeZGbKiY3VybHgtc2VsZiNqdW1iZj1jMnBhLmFzc2VydGlvbnMvdG9vbHMubG9sbHkuZXhwb3J0ZGhhc2hYIAUTUUKnaQZ+UU2swVrpF2iPDMypMtt/6rX18R5/7uTlaXNpZ25hdHVyZXgZc2VsZiNqdW1iZj1jMnBhLnNpZ25hdHVyZWNhbGdmc2hhMjU2AAACYWp1bWIAAAAoanVtZGMyY3MAEQAQgAAAqgA4m3EDYzJwYS5zaWduYXR1cmUAAAACMWNib3LShFkB4KIBJhghgVkB1zCCAdMwggF5oAMCAQICCWnqQrnrY6TRODAKBggqhkjOPQQDAjA1MQ4wDAYDVQQKDAVMb2xseTEjMCEGA1UEAwwaTG9sbHkgT24tRGV2aWNlIENyZWRlbnRpYWwwHhcNMjYwODI5MDA0OTEyWhcNMjcwODI5MDA1MDEyWjA1MQ4wDAYDVQQKDAVMb2xseTEjMCEGA1UEAwwaTG9sbHkgT24tRGV2aWNlIENyZWRlbnRpYWwwWTATBgcqhkjOPQIBBggqhkjOPQMBBwNCAAR1NSUQHX4w3TXc10tN6Jkde7z+JX3SFmOWEQfSTtfjDa2uhxbmE6lsKdxKSgLGQh5MPC5lDoYPcPHSn1BWi0p9o3IwcDAJBgNVHRMEAjAAMA4GA1UdDwEB/wQEAwIHgDATBgNVHSUEDDAKBggrBgEFBQcDBDAdBgNVHQ4EFgQUzelYihyupo0dnjT3mymKcxArOQ4wHwYDVR0jBBgwFoAUzelYihyupo0dnjT3mymKcxArOQ4wCgYIKoZIzj0EAwIDSAAwRQIgCs+8RYUHTIkHAPQ5afrDwvNzXCD7NP2+SNh0cMQGcvsCIQCfijFc0+THcrwgnpttpHG1+FhRKN/6ymiwfxfFvaK4RqD2WED7r3lZd/kG3d7ZaI2kCvDYvRLaWFPP4PPoiSKfDhBYRwIhut3/gJI2k4MEebxsBn2pUi0PPeXQXJlYt/VtIm6S</c2pa:manifest></metadata><defs><radialGradient id="svggrad-2" cx="1472" cy="960" r="1360" gradientTransform="matrix(1 0 0 .63 0 360)" gradientUnits="userSpaceOnUse"><stop offset="0%" stop-color="#f6c99f"/><stop offset="58%" stop-opacity="0"/></radialGradient><radialGradient id="svggrad-3" cx="192" cy="60" r="1440" gradientTransform="matrix(1 0 0 .56 0 26.67)" gradientUnits="userSpaceOnUse"><stop offset="0%" stop-color="#e8836b"/><stop offset="62%" stop-opacity="0"/></radialGradient><linearGradient id="svggrad-1" x1="150" x2="1450" y1="-150" y2="1150" gradientUnits="userSpaceOnUse"><stop offset="0%" stop-color="#f6c99f"/><stop offset="100%" stop-color="#e8836b"/></linearGradient><clipPath id="fcovclip-5" clipPathUnits="userSpaceOnUse"><rect width="264.28" height="572.61" x="667.86" y="226.69" fill="#fff" rx="34" ry="34"/></clipPath><filter id="shadow-4" width="479.78" height="814.11" x="560.11" y="115.04" filterUnits="userSpaceOnUse"><feGaussianBlur in="SourceGraphic" stdDeviation="29.25"/></filter></defs><path fill="url(#svggrad-1)" d="M0 0h1600v1000H0z"/><path fill="url(#svggrad-2)" d="M0 0h1600v1000H0z"/><path fill="url(#svggrad-3)" d="M0 0h1600v1000H0z"/><rect width="288.28" height="622.61" x="655.86" y="210.79" fill="rgba(15,23,42,0.306)" filter="url(#shadow-4)" rx="46" ry="46"/><rect width="288.28" height="622.61" x="655.86" y="188.69" fill="#1d1d1d" rx="46" ry="46"/><path fill="#fff" d="M770.17 217.69v-7q0-.61.39-1 .39-.4 1-.4h4.01v1.34h-3.49q-.19 0-.32.13-.12.12-.12.31v6.62zm.75-3.25v-1.32h4.37v1.32zm6.43 3.25v-5.29l.62.62h-1.67v-1.17h2.44v5.84zm-.06-7.01v-1.59h1.53v1.59zm5.88 7.13q-.88 0-1.54-.38-.67-.38-1.04-1.05-.38-.68-.38-1.58v-.12q0-.84.35-1.5.35-.67.98-1.06t1.46-.39q.88 0 1.51.42.62.43.91 1.21.28.78.15 1.84h-4.36v-.98h3.62l-.61.49q.09-.59-.05-1.01t-.44-.64-.72-.22q-.47 0-.79.24t-.48.65-.16.95v.29q0 .47.2.84.19.37.56.59t.89.21q.45 0 .76-.12t.55-.36l.79.82q-.36.43-.91.64t-1.25.22m5.62-.12q-.79 0-1.27-.43-.47-.43-.47-1.19v-6.59l.61.62h-1.58v-1.17h2.35v7.17q0 .18.13.31.12.12.31.12h.62v1.16zm4.28.12q-.79 0-1.41-.37-.63-.38-.99-1.05t-.36-1.57v-.12q0-.88.37-1.55.36-.67.99-1.05.63-.37 1.41-.37.67 0 1.2.3.53.31.85.84l-.28.33v-4.27h1.39v8.76h-1.25v-1.48l.27.29q-.34.62-.91.96-.56.35-1.28.35m.22-1.22q.48 0 .85-.22t.59-.63.21-.97-.21-.98q-.22-.4-.59-.62-.37-.23-.85-.23-.45 0-.81.22-.36.21-.57.6-.21.4-.21.94v.12q0 .54.21.94t.57.62.81.21m7.68 1.1v-5.84h1.34v1.6h-.37q.12-.53.37-.86.24-.34.55-.53.3-.18.63-.26.32-.07.58-.07.99 0 1.58.64t.6 1.84v3.48h-1.38v-3.26q0-.76-.33-1.1t-.86-.34q-.37 0-.67.17t-.48.49q-.17.33-.17.81v3.23zm9.69.12q-.85 0-1.54-.38-.68-.38-1.07-1.06-.4-.68-.4-1.56v-.11q0-.88.4-1.55.39-.67 1.07-1.05.69-.37 1.54-.37t1.54.37q.68.38 1.07 1.05t.39 1.54v.12q0 .88-.39 1.56t-1.07 1.06-1.54.38m0-1.22q.48 0 .85-.23.36-.22.56-.63.21-.4.21-.92v-.12q0-.52-.21-.91t-.56-.61q-.37-.23-.85-.23-.47 0-.84.23-.36.23-.57.62t-.21.91v.11q0 .52.21.92t.57.63.84.23m6.6 1.1q-.32 0-.63-.08-.32-.07-.59-.27-.26-.19-.42-.52-.16-.34-.16-.85v-5.55h1.38v5.66q0 .18.13.31t.31.13h.92v1.17zm-2.79-4.67v-1.17h3.73v1.17zm7.63 4.79q-.88 0-1.55-.38-.66-.38-1.04-1.05-.37-.68-.37-1.58v-.12q0-.84.35-1.5.34-.67.98-1.06t1.46-.39q.88 0 1.5.42.63.43.91 1.21t.16 1.84h-4.36v-.98h3.62l-.61.49q.09-.59-.05-1.01t-.44-.64-.73-.22q-.46 0-.78.24t-.48.65-.16.95v.29q0 .47.19.84.2.37.57.59t.89.21q.45 0 .76-.12t.55-.36l.79.82q-.36.43-.91.64t-1.25.22m5.63-.02q-.69 0-1.27-.2t-.96-.51l.59-.94q.36.25.78.42t.86.16q.43 0 .7-.18t.26-.48q0-.28-.21-.42-.22-.14-.55-.23l-.72-.19q-.37-.1-.71-.28t-.55-.5q-.21-.33-.21-.88 0-.81.61-1.32.6-.51 1.65-.51.57 0 1.09.15.51.16.91.43l-.6.93q-.32-.21-.68-.33t-.74-.12q-.42 0-.67.18t-.25.47q0 .27.22.42t.56.23l.73.2q.38.11.72.29.35.19.57.52t.21.88q0 .53-.3.94t-.83.64-1.21.23" opacity=".82"/><rect width="74" height="20" x="763" y="220.69" fill="#101319" rx="10" ry="10"/><rect width="264.28" height="572.61" x="667.86" y="226.69" fill="#fff" rx="34" ry="34"/><g clip-path="url(#fcovclip-5)"><svg xmlns="http://www.w3.org/2000/svg" width="264.28" height="572.61" x="667.86" y="226.69" preserveAspectRatio="xMidYMid slice" viewBox="0 0 1600 900"><svg xmlns="http://www.w3.org/2000/svg" width="1600" height="900" class="mg-svg" color="#030711" preserveAspectRatio="none" viewBox="0 0 1600 900"><defs><radialGradient id="iusyyv1-mg-g1" cx="224" cy="180" r="855" gradientUnits="userSpaceOnUse"><stop offset="0" stop-color="#ff9a8b" style="stop-color:#ff9a8b"/><stop offset=".5" stop-color="#ff9a8b" stop-opacity=".55" style="stop-color:#ff9a8b;stop-opacity:.55"/><stop offset="1" stop-color="#ff9a8b" stop-opacity="0" style="stop-color:#ff9a8b;stop-opacity:0"/></radialGradient><radialGradient id="iusyyv1-mg-g2" cx="1360" cy="162" r="855" gradientUnits="userSpaceOnUse"><stop offset="0" stop-color="#f2a65a" style="stop-color:#f2a65a"/><stop offset=".5" stop-color="#f2a65a" stop-opacity=".55" style="stop-color:#f2a65a;stop-opacity:.55"/><stop offset="1" stop-color="#f2a65a" stop-opacity="0" style="stop-color:#f2a65a;stop-opacity:0"/></radialGradient><radialGradient id="iusyyv1-mg-g3" cx="1280" cy="738" r="855" gradientUnits="userSpaceOnUse"><stop offset="0" stop-color="#ffd3bd" style="stop-color:#ffd3bd"/><stop offset=".5" stop-color="#ffd3bd" stop-opacity=".55" style="stop-color:#ffd3bd;stop-opacity:.55"/><stop offset="1" stop-color="#ffd3bd" stop-opacity="0" style="stop-color:#ffd3bd;stop-opacity:0"/></radialGradient><filter id="iusyyv1-mg-f" width="150%" height="150%" x="-25%" y="-25%" color-interpolation-filters="sRGB"><feGaussianBlur in="SourceGraphic" result="mgb" stdDeviation="30"/><feTurbulence baseFrequency=".66" numOctaves="2" result="mgn0" seed="7" stitchTiles="stitch" type="fractalNoise"/><feColorMatrix in="mgn0" result="mgn1" type="saturate" values="0"/><feComponentTransfer in="mgn1" result="mgn2"><feFuncA slope=".17" type="linear"/></feComponentTransfer><feBlend in="mgn2" in2="mgb" mode="soft-light"/></filter></defs><g filter="url(#iusyyv1-mg-f)"><path fill="#ff9a8b" d="M-400-500h2400v1900H-400z" style="fill:#ff9a8b"/><g class="mg-blob mg-blob-2" style="mix-blend-mode:screen"><path fill="url(#iusyyv1-mg-g2)" d="M-400-500h2400v1900H-400z" style="fill:url(#iusyyv1-mg-g2)"/></g><g class="mg-blob mg-blob-3" style="mix-blend-mode:screen"><path fill="url(#iusyyv1-mg-g3)" d="M-400-500h2400v1900H-400z" style="fill:url(#iusyyv1-mg-g3)"/></g><g class="mg-blob mg-blob-1" style="mix-blend-mode:screen"><path fill="url(#iusyyv1-mg-g1)" d="M-400-500h2400v1900H-400z" style="fill:url(#iusyyv1-mg-g1)"/></g></g></svg></svg></g><rect width="3" height="56.03" x="652.86" y="325.66" fill="#dcdbdc" rx="1.5" ry="1.5"/><rect width="3" height="93.39" x="944.14" y="350.56" fill="#dcdbdc" rx="1.5" ry="1.5"/></svg>