<svg xmlns="http://www.w3.org/2000/svg" width="1280" height="720" viewBox="0 0 1280 720"><defs><clipPath id="fcovclip-1" clipPathUnits="userSpaceOnUse"><rect width="754.44" height="39" x="262.78" y="56" fill="#fff" rx="19.5" ry="19.5"/></clipPath></defs><path fill="#fff" d="M0 0h1280v720H0z"/><rect width="754.44" height="39" x="262.78" y="56" fill="#fcfcfc" rx="19.5" ry="19.5"/><rect width="753.44" height="38" x="263.28" y="56.5" fill="none" stroke="#cbd5e2" rx="19" ry="19"/><g clip-path="url(#fcovclip-1)"><path fill="#f1f5f9" d="M263.78 57h44.77v37h-44.77z"/><path fill="#cbd5e2" fill-opacity=".6" d="M307.55 57h1v37h-1z"/><path fill="#030711" d="M282.07 80v-9.86h2.5V80zm-3.04-7.77v-2.16h8.58v2.16zm9.7 7.77v-9.67h2.44V80zm-1.51-4.82v-2.03h5.46v2.03z"/><path fill="#0e1217" d="M308.55 57h59.09v37h-59.09z"/><path fill="#cbd5e2" fill-opacity=".6" d="M366.64 57h1v37h-1z"/><path fill="#f3f5f8" d="M327.87 80.38v-9.29h1.84v9.29zm-3.02-7.85v-1.64h7.89v1.64zm10.47 7.99q-1.02 0-1.82-.44t-1.27-1.21-.46-1.75.46-1.74 1.23-1.22q.78-.44 1.74-.44.94 0 1.66.42t1.14 1.15.41 1.68l-.02.36q-.02.18-.07.4l-5.49.01v-1.31l4.67-.01-.73.54q-.02-.58-.2-.97t-.53-.59-.84-.21q-.53 0-.92.23-.38.24-.6.66t-.21 1.01q0 .6.23 1.03.22.44.64.68.41.23.97.23.49 0 .9-.17t.71-.51l1.04 1.05q-.48.55-1.17.84t-1.47.28m8.09-.14-1.72-2.64-.36-.27-2.54-3.61h2.1l1.57 2.4.34.25 2.69 3.87zm-4.75 0 2.65-3.72 1.02 1.19-1.68 2.53zm4.2-2.93-1.03-1.18 1.56-2.41h1.98zm4.28 2.93v-9.23h1.78v9.23zm-1.52-4.97v-1.55h4.82v1.55z"/><path fill="#cbd5e2" fill-opacity=".6" d="M434.84 57h1v37h-1z"/><path fill="#4e5e74" d="M386.5 80.52q-.87 0-1.52-.33-.66-.33-1.09-.9l1.25-1.18q.24.34.58.52t.76.18.74-.17.49-.52q.17-.33.17-.81v-6.42h1.85v6.3q0 1.01-.4 1.76-.4.74-1.13 1.16t-1.7.41m7.68 0q-1.15 0-1.97-.39-.81-.39-1.47-1.18l1.21-1.21q.43.55.98.85.55.31 1.34.31.73 0 1.15-.29t.42-.78q0-.43-.25-.7-.24-.27-.64-.46-.4-.18-.87-.34-.48-.16-.96-.36-.48-.21-.88-.51t-.64-.79q-.24-.47-.24-1.2 0-.86.42-1.47t1.15-.93 1.65-.32q.97 0 1.75.36t1.28.94l-1.22 1.21q-.41-.45-.85-.67t-1-.22q-.63 0-.99.25-.36.24-.36.7 0 .39.24.63.24.25.64.42t.88.34q.48.16.96.37.47.2.87.53.4.32.64.82.25.51.25 1.26 0 1.32-.94 2.07-.93.76-2.55.76m9.46.01q-1.05 0-1.94-.38-.9-.38-1.57-1.05t-1.05-1.56-.38-1.92.38-1.91q.37-.89 1.04-1.56t1.56-1.04 1.93-.37 1.93.37 1.57 1.04 1.04 1.56q.38.9.38 1.92 0 1.03-.38 1.92-.37.89-1.04 1.56t-1.55 1.04-1.92.38m-.03-1.71q.91 0 1.59-.4t1.06-1.13.38-1.67q0-.7-.22-1.28-.21-.59-.62-1.01-.4-.43-.96-.65t-1.23-.23q-.9 0-1.58.4t-1.06 1.11-.38 1.66q0 .71.22 1.3.21.59.61 1.01t.96.66 1.23.23m6.38 1.56v-9.49h1.28l.56 1.84v7.65zm6.56 0-5.63-7.29.35-2.2 5.64 7.29zm0 0-.52-1.78v-7.71h1.84v9.49z"/><path fill="#cbd5e2" fill-opacity=".6" d="M504.2 57h1v37h-1z"/><path fill="#4e5e74" d="m455.76 76.72-3.68-5.83h2.12l2.85 4.68h-1.21l2.85-4.68h2.08l-3.7 5.83zm-.24 3.66v-4.64h1.83v4.64zm4.41 0 3.83-9.49h1.5l3.8 9.49h-1.95l-2.94-7.78h.66l-2.97 7.78zm2.04-1.77v-1.54h5.09v1.54zm8.21 1.77v-9.49h1.3l3.84 6.16h-.74l3.84-6.16h1.3v9.49h-1.83v-6.34l.36.1-2.68 4.3h-1.24l-2.67-4.3.36-.1v6.34zm11.48 0v-9.49h1.84v9.49zm1.35 0v-1.64h4.83v1.64z"/><path fill="#cbd5e2" fill-opacity=".6" d="M569.28 57h1v37h-1z"/><path fill="#4e5e74" d="M522.17 80.38v-9.49h1.84v9.49zm5.96 0v-9.49h1.83v9.49zm-4.79-4.08v-1.63h5.3v1.63zm11.49 4.22q-1.02 0-1.82-.44t-1.26-1.21q-.47-.77-.47-1.75 0-.97.46-1.74.45-.77 1.23-1.22.79-.44 1.75-.44.94 0 1.66.42t1.13 1.15.41 1.68l-.02.36q-.02.18-.07.4l-5.49.01v-1.31l4.67-.01-.72.54q-.02-.58-.21-.97-.18-.39-.52-.59-.35-.21-.85-.21-.53 0-.91.23-.39.24-.6.66t-.21 1.01.22 1.03.64.68q.41.23.97.23.49 0 .9-.17t.71-.51l1.04 1.05q-.48.55-1.16.84-.69.28-1.48.28m4.18-.14v-9.76h1.78v9.76zm3.34 0v-6.52h1.77v6.52zm4.25 0v-3.85q0-.57-.35-.89-.36-.31-.88-.31-.36 0-.64.14t-.44.41-.17.65l-.69-.33q0-.76.33-1.31.34-.55.9-.86t1.28-.31q.68 0 1.24.31.55.3.87.85.33.55.33 1.31v4.19zm4.25 0v-3.85q0-.57-.35-.89-.36-.31-.88-.31-.35 0-.63.14t-.45.41-.16.65l-1.02-.24q.05-.79.42-1.36.36-.57.96-.89.59-.32 1.32-.32t1.31.31.92.87.34 1.36v4.12z"/><path fill="#cbd5e2" fill-opacity=".6" d="M647.84 57h1v37h-1z"/><path fill="#4e5e74" d="M588.6 80.38v-1.5h2.47q.67 0 1.04-.4t.37-.96q0-.38-.17-.69-.16-.31-.48-.49-.32-.19-.76-.19h-2.47v-1.47h2.27q.56 0 .91-.29t.34-.86-.34-.86q-.35-.28-.91-.28h-2.27v-1.5h2.49q.94 0 1.58.35t.96.9.32 1.22q0 .81-.49 1.4t-1.44.87l.09-.59q1.05.29 1.63.98t.57 1.64q0 .75-.37 1.37-.37.61-1.08.98t-1.72.37zm-1.35 0v-9.49h1.82v9.49zm11.05.14q-.89 0-1.6-.45t-1.12-1.21q-.41-.77-.41-1.73 0-.97.41-1.74t1.12-1.22 1.6-.45q.7 0 1.26.29.55.29.89.79t.36 1.15v2.34q-.03.65-.36 1.15t-.89.79-1.26.29m.33-1.64q.75 0 1.2-.49.46-.5.46-1.27 0-.52-.21-.92-.21-.39-.58-.62t-.86-.22-.86.22q-.37.23-.59.63-.21.39-.21.91t.21.91.59.63q.37.22.85.22m1.57 1.5v-1.75l.28-1.59-.28-1.58v-1.6h1.75v6.52zm5.56.15q-.56 0-1.09-.14t-.97-.42q-.45-.27-.77-.64l1.05-1.07q.34.38.78.57t.98.19q.43 0 .66-.12.22-.13.22-.37 0-.27-.24-.41-.23-.15-.61-.26l-.79-.23q-.41-.12-.79-.33t-.61-.59q-.24-.37-.24-.96 0-.62.31-1.08.3-.46.87-.71.56-.26 1.34-.26.8 0 1.46.28t1.08.85l-1.06 1.06q-.3-.35-.67-.52-.38-.16-.8-.16-.4 0-.6.12-.21.12-.21.34 0 .24.23.37.24.14.62.24l.78.23q.42.13.79.36t.61.6.24.99q0 .95-.69 1.51t-1.88.56m6.87-.01q-1.02 0-1.82-.44t-1.27-1.21-.46-1.75.46-1.74 1.23-1.22q.78-.44 1.74-.44.94 0 1.66.42t1.14 1.15q.41.74.41 1.68l-.02.36q-.02.18-.07.4l-5.49.01v-1.31l4.67-.01-.73.54q-.02-.58-.2-.97t-.53-.59-.84-.21q-.53 0-.92.23t-.6.66-.21 1.01q0 .6.23 1.03.22.44.64.68.41.23.97.23.49 0 .9-.17t.71-.51l1.03 1.05q-.47.55-1.16.84t-1.47.28m7.23 0q-.97 0-1.75-.44-.77-.44-1.23-1.19-.45-.74-.45-1.66 0-1.26.88-2.54l2.63-3.8h2.09l-2.87 4.02-.68.2q.16-.32.37-.55.21-.22.55-.35.33-.12.84-.12.85 0 1.54.39.69.4 1.11 1.1.42.69.42 1.61t-.46 1.68-1.24 1.21-1.75.44m0-1.65q.47 0 .84-.22t.59-.61.21-.87-.21-.87q-.22-.38-.59-.6t-.84-.21q-.46 0-.83.22t-.58.6-.21.86.21.87.58.61.83.22m4.17-1.83 3.25-6.15h2.03l-3.32 6.15zm0 1.07v-1.07l.68-.53h6.81v1.6zm4.49 2.27v-6.04h1.8v6.04z"/><path fill="#cbd5e2" fill-opacity=".6" d="M706.19 57h1v37h-1z"/><path fill="#4e5e74" d="M669.55 80.52q-1.12 0-1.99-.49-.88-.5-1.38-1.36t-.5-1.96v-5.82h1.84v5.87q0 .63.27 1.09t.73.72q.46.24 1.03.24.59 0 1.03-.24.45-.25.71-.71t.26-1.08v-5.89h1.84v5.83q0 1.1-.49 1.96t-1.36 1.35-1.99.49m7-4.11v-1.42h2.2q.68 0 1.05-.35t.37-.95q0-.56-.37-.93-.36-.37-1.04-.37h-2.21v-1.5h2.37q.92 0 1.61.36t1.09.98q.38.62.38 1.43 0 .83-.39 1.45-.38.62-1.09.96-.7.34-1.63.34zm-1.35 3.97v-9.49h1.84v9.49zm5.19 0-3.14-4.1 1.69-.53 3.68 4.63zm3.27 0v-9.49h1.84v9.49zm1.35 0v-1.64h4.83v1.64z"/><path fill="#cbd5e2" fill-opacity=".6" d="M767.66 57h1v37h-1z"/><path fill="#4e5e74" d="M726.05 80.52q-.87 0-1.52-.33-.66-.33-1.09-.9l1.25-1.18q.24.34.58.52t.76.18.74-.17q.31-.18.49-.52.17-.33.17-.81v-6.42h1.85v6.3q0 1.01-.4 1.76-.4.74-1.13 1.16t-1.7.41m7.44-.14-3.08-9.49h1.81l2.29 7.31h-.62l2.24-7.31h1.37l2.23 7.31h-.61l2.29-7.31h1.81l-3.09 9.49h-1.37l-2.25-7.29h.6l-2.25 7.29zm13 0v-9.29h1.84v9.29zm-3.02-7.85v-1.64h7.89v1.64z"/><path fill="#cbd5e2" fill-opacity=".6" d="M831.91 57h1v37h-1z"/><path fill="#4e5e74" d="M785.63 80.38v-9.49h1.84v9.49zm5.96 0v-9.49h1.83v9.49zm-4.79-4.08v-1.63h5.3v1.63zm11.1 4.22q-.89 0-1.6-.45t-1.13-1.21q-.41-.77-.41-1.73 0-.97.41-1.74t1.13-1.22 1.6-.45q.7 0 1.25.29.56.29.89.79.34.5.36 1.15v2.34q-.02.65-.35 1.15t-.89.79-1.26.29m.33-1.64q.74 0 1.2-.49.45-.5.45-1.27 0-.52-.2-.92-.21-.39-.58-.62t-.87-.22q-.49 0-.86.22-.37.23-.58.63-.22.39-.22.91t.22.91.58.63q.37.22.86.22m1.56 1.5v-1.75l.28-1.59-.28-1.58v-1.6h1.76v6.52zm5.57.15q-.56 0-1.09-.14t-.98-.42q-.45-.27-.77-.64l1.06-1.07q.33.38.77.57.45.19.99.19.43 0 .65-.12.23-.13.23-.37 0-.27-.24-.41-.24-.15-.61-.26-.38-.1-.79-.23-.42-.12-.8-.33-.37-.21-.61-.59-.23-.37-.23-.96 0-.62.3-1.08.31-.46.87-.71.57-.26 1.34-.26.81 0 1.46.28.66.28 1.08.85l-1.05 1.06q-.3-.35-.68-.52-.37-.16-.79-.16-.4 0-.61.12t-.21.34q0 .24.24.37.24.14.61.24.38.1.79.23t.79.36.61.6.23.99q0 .95-.69 1.51t-1.87.56m8.13-.15v-3.74q0-.58-.37-.95-.36-.36-.93-.36-.38 0-.68.16-.3.17-.47.47t-.16.68l-.69-.35q0-.76.32-1.34.33-.57.9-.9t1.32-.33q.74 0 1.32.33.57.32.89.89.32.56.32 1.31v4.13zm-4.39 0v-9.76h1.78v9.76z"/><path fill="#cbd5e2" fill-opacity=".6" d="M936.06 57h1v37h-1z"/><path fill="#4e5e74" d="M851.13 80.38v-1.64h2.42q.92 0 1.61-.38t1.08-1.09q.38-.7.38-1.65 0-.94-.39-1.63-.39-.7-1.08-1.08t-1.6-.38h-2.45v-1.64h2.48q1.06 0 1.95.35.9.35 1.57.99.66.64 1.03 1.51.37.86.37 1.89t-.37 1.9-1.03 1.51-1.55.99-1.94.35zm-1.25 0v-9.49h1.84v9.49zm13.01.14q-1.02 0-1.82-.44t-1.26-1.21-.46-1.75.45-1.74 1.23-1.22q.79-.44 1.75-.44.94 0 1.66.42t1.13 1.15.41 1.68l-.02.36q-.02.18-.07.4l-5.48.01v-1.31l4.66-.01-.72.54q-.02-.58-.21-.97-.18-.39-.52-.59-.35-.21-.85-.21-.53 0-.91.23-.39.24-.6.66t-.21 1.01.22 1.03.64.68q.42.23.97.23.5 0 .9-.17t.71-.51l1.04 1.05q-.48.55-1.16.84t-1.48.28m4.45-2.78v-1.61h4.68v1.61zm6.25 2.64v-6.52h1.77v6.52zm.89-7.57q-.43 0-.72-.29t-.28-.72q0-.43.28-.72t.72-.29.71.29.28.72-.28.72-.71.29m5.2 7.71q-.9 0-1.62-.45-.71-.45-1.12-1.21-.42-.77-.42-1.73 0-.98.42-1.74.41-.77 1.12-1.22t1.62-.45q.71 0 1.27.29t.91.79.37 1.15v2.31q-.03.64-.37 1.15t-.9.81-1.28.3m.31-1.64q.5 0 .86-.22.37-.23.58-.62.21-.4.21-.92t-.21-.92q-.21-.39-.57-.62-.37-.22-.86-.22-.5 0-.87.22-.37.23-.58.63-.22.39-.22.91t.22.91.58.63q.38.22.86.22m3.32 1.5h-1.76v-1.75l.28-1.59-.3-1.58v-4.84h1.78zm4.68.14q-1.02 0-1.82-.44t-1.27-1.21-.46-1.75.46-1.74 1.23-1.22q.78-.44 1.74-.44.94 0 1.66.42t1.14 1.15q.41.74.41 1.68l-.02.36q-.02.18-.07.4l-5.49.01v-1.31l4.67-.01-.73.54q-.02-.58-.2-.97t-.53-.59-.84-.21q-.53 0-.92.23t-.6.66-.21 1.01q0 .6.23 1.03.22.44.64.68.41.23.97.23.49 0 .9-.17t.71-.51l1.04 1.05q-.48.55-1.17.84t-1.47.28m8.57-.14v-3.74q0-.58-.37-.95-.36-.36-.93-.36-.39 0-.68.16-.3.17-.47.47t-.16.68l-.7-.35q0-.76.34-1.34.33-.57.92-.9.58-.33 1.32-.33.72 0 1.29.36t.89.94q.32.57.32 1.23v4.13zm-4.39 0v-6.52h1.78v6.52zm8.47 0v-9.23h1.77v9.23zm-1.52-4.97v-1.55h4.81v1.55zm5.82 4.97v-6.52h1.77v6.52zm.88-7.57q-.43 0-.71-.29t-.28-.72.28-.72.71-.29.72.29.28.72-.28.72-.72.29m3.32 7.57v-7.23q0-.77.34-1.37t.96-.95 1.45-.35q.64 0 1.1.21t.83.6l-1.13 1.13q-.14-.15-.32-.24t-.44-.08q-.48 0-.75.27-.26.26-.26.74v7.27zm-1.5-4.97v-1.55h5.2v1.55zm8.2 5.02-2.73-6.57h1.93l1.8 5.02h-.65l1.88-5.02H920l-2.9 6.57zm-1.81 2.68 1.99-4.19 1.08 1.51-1.19 2.68zm40-2.73v-9.49h1.28l.56 1.84v7.65zm6.56 0-5.63-7.29.35-2.2 5.64 7.29zm0 0-.52-1.78v-7.71h1.84v9.49zm6.13.14q-.99 0-1.78-.45t-1.25-1.23-.46-1.73.46-1.72 1.25-1.22 1.77-.45 1.78.44q.79.45 1.26 1.22t.46 1.73q0 .95-.46 1.73t-1.25 1.23-1.78.45m-.01-1.65q.5 0 .88-.22.38-.23.6-.63t.21-.91-.22-.9-.59-.62q-.38-.22-.88-.22-.48 0-.87.23-.38.22-.59.61t-.21.9.21.91.59.63q.39.22.87.22m6.56 1.51-2.87-6.52h1.93l2.08 5.37h-.97l2.08-5.37h1.88l-2.87 6.52zm7.87.14q-1.02 0-1.82-.44-.81-.44-1.27-1.21t-.46-1.75.45-1.74 1.24-1.22q.78-.44 1.74-.44.94 0 1.66.42t1.13 1.15.41 1.68l-.02.36-.06.4-5.49.01v-1.31l4.66-.01-.72.54q-.02-.58-.2-.97t-.53-.59-.84-.21q-.53 0-.92.23t-.6.66-.21 1.01q0 .6.22 1.03.23.44.64.68.42.23.98.23.49 0 .9-.17t.7-.51l1.04 1.05q-.48.55-1.16.84t-1.47.28m4.18-.14v-9.76h1.77v9.76zm4.29 0v-9.23h1.78v9.23zm-1.52-4.97v-1.55h4.82v1.55zm7.87 5.02-2.73-6.57h1.93l1.8 5.02h-.65l1.88-5.02h1.93l-2.9 6.57zm-1.81 2.68 1.99-4.19 1.08 1.51-1.19 2.68z"/></g><rect width="112" height="32" x="616.61" y="111" fill="#fcfcfc" rx="8" ry="8"/><rect width="111" height="31" x="617.11" y="111.5" fill="none" stroke="#cbd5e2" rx="7.5" ry="7.5"/><path fill="#4e5e74" d="M554.71 131.63v-8.43h1.18v8.43zm-2.94-7.6v-1.08h7.06v1.08zm6.93 7.6v-5.94h1.13v5.94zm1.13-3.38-.42-.2q0-1.13.52-1.8.53-.68 1.51-.68.45 0 .81.16t.68.51l-.74.77q-.19-.21-.42-.3t-.52-.08q-.62 0-1.02.4t-.4 1.22m6.23 3.51q-.83 0-1.49-.41-.65-.41-1.04-1.11-.38-.7-.38-1.57t.38-1.57 1.04-1.12q.66-.41 1.48-.41.68 0 1.21.28t.86.78q.32.49.35 1.14v1.78q-.03.65-.35 1.14-.32.5-.85.78-.54.29-1.21.29m.18-1.07q.84 0 1.35-.56t.51-1.47q0-.6-.23-1.06-.24-.45-.66-.71t-.98-.26-.99.26-.68.72-.25 1.05.25 1.05.68.72 1 .26m1.79.94v-1.59l.21-1.46-.21-1.43v-1.46h1.13v5.94zm6.97 0v-3.46q0-.68-.42-1.11t-1.1-.44q-.45 0-.81.2-.35.2-.54.55t-.2.8l-.47-.26q0-.68.3-1.21.31-.52.84-.83t1.21-.3q.67 0 1.2.33.52.34.82.88.29.55.29 1.17v3.68zm-4.2 0v-5.94h1.13v5.94zm8.73.13q-.49 0-.94-.14-.44-.13-.82-.37t-.65-.58l.73-.72q.32.39.75.59t.96.19q.52 0 .81-.18.28-.18.28-.51t-.23-.51-.59-.3l-.77-.23q-.4-.11-.77-.3-.36-.19-.59-.52t-.23-.86.26-.93.73-.61 1.13-.21q.69 0 1.24.24.54.25.9.74l-.72.72q-.26-.33-.63-.5-.36-.18-.83-.18-.48 0-.74.17t-.26.47.23.46.59.28l.77.23q.4.11.76.31.37.2.6.54t.23.89q0 .84-.59 1.33-.6.49-1.61.49m4.3-.13v-6.83q0-.65.29-1.15t.8-.78q.51-.29 1.18-.29.51 0 .88.18.38.18.69.5l-.73.74q-.17-.18-.37-.27t-.48-.09q-.54 0-.83.3-.3.31-.3.87v6.82zm-1.46-4.92v-1.02h4.48v1.02zm7.98 5.05q-.87 0-1.57-.42-.7-.41-1.11-1.12t-.42-1.57q0-.87.42-1.56.41-.7 1.11-1.11t1.57-.41 1.57.41 1.11 1.1.42 1.57-.42 1.57q-.41.71-1.11 1.12t-1.57.42m0-1.09q.56 0 1-.26t.69-.72.25-1.05-.26-1.02q-.25-.45-.68-.71t-1-.26q-.56 0-1 .26t-.69.71-.25 1.03.25 1.04.69.72 1 .26m4.36.96v-5.94h1.13v5.94zm1.13-3.38-.42-.2q0-1.13.52-1.8.53-.68 1.52-.68.44 0 .8.16t.68.51l-.74.77q-.19-.21-.41-.3-.23-.08-.53-.08-.62 0-1.02.4t-.4 1.22m3.91 3.38v-5.94h1.13v5.94zm4.02 0v-3.59q0-.66-.41-1.04t-1.02-.38q-.41 0-.74.17t-.53.49-.19.76l-.47-.23q0-.68.3-1.18t.81-.78 1.14-.28 1.14.27q.5.28.8.78.29.5.29 1.19v3.82zm4.01 0v-3.59q0-.66-.41-1.04t-1.01-.38q-.4 0-.74.17t-.53.49q-.2.32-.2.76l-.64-.23q.04-.69.37-1.18.33-.5.85-.78.53-.28 1.16-.28.64 0 1.16.27.51.28.81.78t.31 1.19v3.82z"/><path fill="#4e5e74" fill-opacity=".85" d="M48.74 176.75v-7.77h1.73v7.77zm3.89 0v-7.77h1.21l.52 1.56v6.21zm5.36 0-4.58-5.86.43-1.91 4.57 5.87zm0 0-.47-1.55v-6.22h1.73v7.77zm4.74-2.83v-1.34h1.67q.32 0 .58-.13t.42-.38.15-.62-.15-.61q-.16-.25-.42-.38t-.58-.13h-1.67v-1.35h1.92q.74 0 1.34.3.59.3.94.86.34.55.34 1.31t-.34 1.32-.94.85q-.6.3-1.34.3zm-1.33 2.83v-7.77h1.74v7.77zm10.7.12q-.95 0-1.68-.41t-1.15-1.13q-.41-.71-.41-1.63v-4.72h1.73v4.81q0 .47.2.81t.54.52.77.18q.44 0 .77-.18t.52-.52q.2-.34.2-.8v-4.82h1.73v4.73q0 .92-.41 1.63t-1.13 1.12-1.68.41m7.11-.12v-7.66h1.74v7.66zm-2.42-6.25v-1.52h6.59v1.52z"/><rect width="592" height="388.25" x="48" y="193" fill="#fcfcfc" rx="12" ry="12"/><rect width="591" height="387.25" x="48.5" y="193.5" fill="none" stroke="#cbd5e2" rx="11.5" ry="11.5"/><path fill="#4e5e74" fill-opacity=".85" d="M662.45 176.88q-.87 0-1.62-.31-.75-.3-1.3-.85-.56-.55-.87-1.28-.31-.74-.31-1.58 0-.86.3-1.58.31-.73.87-1.28.55-.54 1.29-.85t1.62-.3 1.61.3q.75.31 1.3.85.56.55.87 1.28t.3 1.59q0 .84-.3 1.58-.31.73-.86 1.27-.56.55-1.3.86t-1.6.3m-.02-1.57q.7 0 1.22-.31t.8-.86.29-1.28q0-.55-.16-.99-.17-.45-.47-.77-.31-.33-.74-.5-.42-.17-.94-.17-.7 0-1.22.3-.51.3-.8.85-.29.54-.29 1.28 0 .55.16 1 .17.45.47.78.31.32.73.49.43.18.95.18m8.97 1.56q-.96 0-1.69-.41t-1.14-1.13-.42-1.63v-4.72h1.74v4.81q0 .47.2.81t.54.52q.35.18.77.18t.77-.18q.33-.18.52-.52t.19-.8v-4.82h1.74v4.73q0 .92-.41 1.63t-1.13 1.12-1.68.41m7.11-.12v-7.66h1.73v7.66zm-2.43-6.25v-1.52h6.59v1.52zm9.54 3.42v-1.34h1.67q.33 0 .58-.13.26-.13.42-.38.15-.26.15-.62t-.15-.61-.42-.38q-.25-.13-.58-.13h-1.67v-1.35h1.92q.74 0 1.34.3.59.3.94.86.34.55.34 1.31t-.34 1.32-.94.85q-.6.3-1.34.3zm-1.32 2.83v-7.77h1.73v7.77zm10.69.12q-.95 0-1.68-.41t-1.15-1.13-.41-1.63v-4.72h1.73v4.81q0 .47.2.81t.55.52.76.18q.44 0 .77-.18t.53-.52.19-.8v-4.82h1.74v4.73q0 .92-.41 1.63t-1.14 1.12-1.68.41m7.11-.12v-7.66h1.74v7.66zm-2.42-6.25v-1.52h6.59v1.52z"/><rect width="574" height="388.25" x="658" y="193" fill="#f1f5f9" rx="12" ry="12"/><rect width="573" height="387.25" x="658.5" y="193.5" fill="none" stroke="#cbd5e2" rx="11.5" ry="11.5"/><text x="48" y="598.25" fill="#4e5e74" dominant-baseline="text-before-edge" font-family="&quot;SUSE Mono&quot;, ui-monospace, monospace" font-size="12.5" font-weight="400">0 chars · 0 words · 0 lines · 0 B</text><g opacity=".4"><rect width="95.55" height="50.5" x="1160.45" y="645.5" fill="#0e1217" rx="14" ry="14"/><path fill="#f3f5f8" d="M1196.49 675.66q-1.19 0-2.2-.41t-1.77-1.16-1.17-1.74-.42-2.15.42-2.16q.41-.99 1.17-1.73.75-.73 1.76-1.15t2.19-.41q1.26 0 2.25.4.98.41 1.72 1.11l-1.58 1.59q-.41-.45-1.01-.7-.59-.26-1.38-.26-.69 0-1.26.23t-.99.67-.65 1.05-.22 1.36.22 1.36q.23.61.65 1.05.41.44.99.67.57.24 1.26.24.82 0 1.42-.25t1.03-.71l1.59 1.59q-.76.71-1.74 1.11t-2.28.4m8.45 0q-1.13 0-2.04-.5-.9-.5-1.42-1.37-.53-.87-.53-1.95t.52-1.93 1.43-1.36 2.03-.5q1.14 0 2.04.49.9.5 1.43 1.36t.52 1.94-.52 1.95-1.42 1.37-2.04.5m-.01-2.08q.5 0 .87-.22.38-.21.58-.61.21-.39.21-.9t-.21-.9-.58-.6-.87-.22q-.48 0-.85.22-.38.22-.59.61t-.21.9.21.89q.21.4.59.61.37.22.85.22m9.34 2.07q-.74 0-1.36-.28-.61-.29-1-.79-.38-.5-.44-1.15v-3.07q.06-.65.45-1.17t1-.83q.61-.3 1.35-.3 1.04 0 1.84.5.8.49 1.26 1.35t.46 1.95-.46 1.95-1.26 1.35-1.84.49m-4.2 2.93v-10.37h2.3v1.87l-.39 1.78.35 1.77v4.95zm3.78-5q.49 0 .86-.22t.58-.61.21-.9-.21-.89-.58-.61-.85-.22-.85.22-.57.61q-.21.38-.21.89t.2.9.58.61.84.22m7.19 1.96-2.99-7.33h2.47l1.9 5.81h-.9l1.95-5.81h2.46l-3.12 7.33zm-1.87 3.04 2.19-4.73 1.45 1.69-1.29 3.04z"/></g></svg>