<svg xmlns="http://www.w3.org/2000/svg" width="1280" height="720" viewBox="0 0 1280 720"><defs><clipPath id="fcovclip-1" clipPathUnits="userSpaceOnUse"><rect width="741.77" height="39" x="269.11" y="56" fill="#fff" rx="19.5" ry="19.5"/></clipPath></defs><path fill="#fff" d="M0 0h1280v720H0z"/><rect width="741.77" height="39" x="269.11" y="56" fill="#fcfcfc" rx="19.5" ry="19.5"/><rect width="740.77" height="38" x="269.61" y="56.5" fill="none" stroke="#cbd5e2" rx="19" ry="19"/><g clip-path="url(#fcovclip-1)"><path fill="#f1f5f9" d="M270.11 57h43.17v37h-43.17z"/><path fill="#cbd5e2" fill-opacity=".6" d="M312.28 57h1v37h-1z"/><text x="285.11" y="66" fill="#030711" dominant-baseline="text-before-edge" font-family="SUSE, system-ui, sans-serif" font-size="14" font-weight="800" letter-spacing="-.28">Tt</text><path fill="#0e1217" d="M313.28 57h57.77v37h-57.77z"/><path fill="#cbd5e2" fill-opacity=".6" d="M370.05 57h1v37h-1z"/><text x="329.28" y="66.38" fill="#f3f5f8" dominant-baseline="text-before-edge" font-family="SUSE, system-ui, sans-serif" font-size="13.5" font-weight="600">Text</text><path fill="#cbd5e2" fill-opacity=".6" d="M436.41 57h1v37h-1z"/><text x="387.05" y="66.38" fill="#4e5e74" dominant-baseline="text-before-edge" font-family="SUSE, system-ui, sans-serif" font-size="13.5" font-weight="600">JSON</text><path fill="#cbd5e2" fill-opacity=".6" d="M504.25 57h1v37h-1z"/><text x="453.41" y="66.38" fill="#4e5e74" dominant-baseline="text-before-edge" font-family="SUSE, system-ui, sans-serif" font-size="13.5" font-weight="600">YAML</text><path fill="#cbd5e2" fill-opacity=".6" d="M569.59 57h1v37h-1z"/><text x="521.25" y="66.38" fill="#4e5e74" dominant-baseline="text-before-edge" font-family="SUSE, system-ui, sans-serif" font-size="13.5" font-weight="600">Helm</text><path fill="#cbd5e2" fill-opacity=".6" d="M647.19 57h1v37h-1z"/><text x="586.59" y="66.38" fill="#4e5e74" dominant-baseline="text-before-edge" font-family="SUSE, system-ui, sans-serif" font-size="13.5" font-weight="600">Base64</text><path fill="#cbd5e2" fill-opacity=".6" d="M705.08 57h1v37h-1z"/><text x="664.19" y="66.38" fill="#4e5e74" dominant-baseline="text-before-edge" font-family="SUSE, system-ui, sans-serif" font-size="13.5" font-weight="600">URL</text><path fill="#cbd5e2" fill-opacity=".6" d="M764.78 57h1v37h-1z"/><text x="722.08" y="66.38" fill="#4e5e74" dominant-baseline="text-before-edge" font-family="SUSE, system-ui, sans-serif" font-size="13.5" font-weight="600">JWT</text><path fill="#cbd5e2" fill-opacity=".6" d="M828.17 57h1v37h-1z"/><text x="781.78" y="66.38" fill="#4e5e74" dominant-baseline="text-before-edge" font-family="SUSE, system-ui, sans-serif" font-size="13.5" font-weight="600">Hash</text><path fill="#cbd5e2" fill-opacity=".6" d="M930.47 57h1v37h-1z"/><text x="845.17" y="66.38" fill="#4e5e74" dominant-baseline="text-before-edge" font-family="SUSE, system-ui, sans-serif" font-size="13.5" font-weight="600">De-identify</text><text x="947.47" y="66.38" fill="#4e5e74" dominant-baseline="text-before-edge" font-family="SUSE, system-ui, sans-serif" font-size="13.5" font-weight="600">Novelty</text></g><rect width="110" height="32" x="615.75" y="111" fill="#fcfcfc" rx="8" ry="8"/><rect width="109" height="31" x="616.25" y="111.5" fill="none" stroke="#cbd5e2" rx="7.5" ry="7.5"/><text x="554.25" y="118.63" fill="#4e5e74" dominant-baseline="text-before-edge" font-family="SUSE, system-ui, sans-serif" font-size="12.5" font-weight="400">Transform</text><text x="48" y="165.75" fill="#4e5e74" fill-opacity=".85" dominant-baseline="text-before-edge" font-family="SUSE, system-ui, sans-serif" font-size="11" font-weight="700" letter-spacing=".66">INPUT</text><rect width="592" height="388.25" x="48" y="193" fill="#fcfcfc" rx="12" ry="12"/><rect width="591" height="387.25" x="48.5" y="193.5" fill="none" stroke="#cbd5e2" rx="11.5" ry="11.5"/><text x="658" y="165.75" fill="#4e5e74" fill-opacity=".85" dominant-baseline="text-before-edge" font-family="SUSE, system-ui, sans-serif" font-size="11" font-weight="700" letter-spacing=".66">OUTPUT</text><rect width="574" height="388.25" x="658" y="193" fill="#f1f5f9" rx="12" ry="12"/><rect width="573" height="387.25" x="658.5" y="193.5" fill="none" stroke="#cbd5e2" rx="11.5" ry="11.5"/><text x="48" y="598.25" fill="#4e5e74" dominant-baseline="text-before-edge" font-family="&quot;SUSE Mono&quot;, ui-monospace, monospace" font-size="12.5" font-weight="400">0 chars · 0 words · 0 lines · 0 B</text><g opacity=".4"><rect width="94.92" height="50.5" x="1161.08" y="645.5" fill="#0e1217" rx="14" ry="14"/><text x="1191.08" y="660.5" fill="#f3f5f8" dominant-baseline="text-before-edge" font-family="SUSE, system-ui, sans-serif" font-size="15" font-weight="700">Copy</text></g></svg>