<svg xmlns="http://www.w3.org/2000/svg" width="1200" height="400" viewBox="0 0 1200 400"><svg xmlns="http://www.w3.org/2000/svg" width="1200" height="400" aria-label="Wordmark" viewBox="-15.68 -134.88 816.16 155.68"><path fill="#0e1217" d="M40 0 3.44-112.48h21.52l27.08 86.6h-7.28l26.52-86.6h16.2L114-25.88h-7.24l27.08-86.6h21.44L118.72 0h-16.24L75.84-86.44h7.04L56.24 0zm153.68 1.68q-11.64 0-21.02-5.36T157.8-18.24t-5.48-20.56 5.46-20.4 14.84-14.4 21.02-5.36q11.76 0 21.12 5.3t14.84 14.4 5.48 20.46-5.46 20.56T214.8-3.68t-21.12 5.36m-.04-19.6q5.92 0 10.44-2.64t7.02-7.38 2.5-10.82-2.58-10.7-7.02-7.26-10.36-2.64q-5.76 0-10.28 2.66t-7.04 7.28-2.52 10.7q0 6.04 2.52 10.78t7.04 7.38 10.28 2.64M248.4 0v-77.28h21.04V0zm21.04-42.68-8.2-5.52q1.52-14.12 8.4-22.4t19.76-8.28q5.68 0 10.14 1.88t8.06 5.96l-13.04 15.12q-1.84-2-4.3-2.94-2.47-.94-5.7-.94-6.72 0-10.92 4.19t-4.2 12.93M345.52 1.6q-10.72 0-19.19-5.28-8.48-5.27-13.36-14.36-4.89-9.08-4.89-20.51 0-11.54 4.88-20.62 4.88-9.07 13.34-14.39 8.45-5.32 19.22-5.32 8.36 0 15.02 3.4t10.76 9.36 4.38 13.56v27.44q-.28 7.6-4.32 13.66T360.6-1.9t-15.08 3.5m3.6-19.36q5.92 0 10.29-2.66t6.84-7.36 2.47-10.86q0-6.21-2.47-10.87-2.46-4.67-6.84-7.34t-10.19-2.67-10.21 2.68-6.94 7.39-2.55 10.81q0 6.12 2.51 10.84t6.97 7.38 10.12 2.66M388.48 0h-20.84v-20.76L371-39.6l-3.56-18.68v-57.4h21.04zm18.48 0v-77.28H428V0zm50.4 0v-45.6q0-6.76-4.2-10.52t-10.4-3.76q-4.24 0-7.56 1.7t-5.26 4.88-1.94 7.7l-8.2-4q0-9 3.94-15.52t10.66-10.14 15.12-3.62q8.12 0 14.66 3.6t10.38 10.1 3.84 15.54V0zm50.4 0v-45.6q0-6.76-4.2-10.52t-10.4-3.76q-4.12 0-7.5 1.7t-5.32 4.88-1.94 7.7l-12.04-2.84q.6-9.36 4.94-16.14t11.4-10.54 15.7-3.76q8.6 0 15.46 3.64t10.9 10.32 4.04 16.04V0zM578 1.6q-10.56 0-18.98-5.28t-13.28-14.36-4.86-20.48q0-11.52 4.86-20.62t13.28-14.42T578-78.88q8.32 0 14.88 3.4t10.54 9.36 4.26 13.56v27.84q-.28 7.6-4.2 13.56T592.94-1.8 578 1.6m3.92-19.36q8.8 0 14.2-5.86t5.4-15.02q0-6.16-2.44-10.86t-6.84-7.36-10.28-2.66q-5.76 0-10.16 2.66t-6.94 7.38-2.54 10.84 2.52 10.84 6.94 7.38 10.14 2.66M600.44 0v-20.76l3.36-18.84-3.36-18.68v-19h20.84V0zm39.32 0v-77.28h21.04V0zm21.04-42.68-8.2-5.52q1.52-14.12 8.4-22.4t19.76-8.28q5.68 0 10.14 1.88t8.06 5.96l-13.04 15.12q-1.84-2-4.3-2.94-2.47-.94-5.7-.94-6.72 0-10.92 4.19t-4.2 12.93M755.6 0l-29.84-39.76 29.68-37.52h24.16l-34.88 42.2.8-10.12L781.2 0zm-49.28 0v-115.68h21.04V0z"/></svg></svg>