<svg xmlns="http://www.w3.org/2000/svg" width="1200" height="400" viewBox="0 0 1200 400"><svg xmlns="http://www.w3.org/2000/svg" width="1200" height="400" aria-label="Bold&amp;Co" viewBox="-10.98 -153.36 747.78 177.12"><path fill="#111" d="M39.78 0v-25.92h23.58q6.84 0 10.98-3.69t4.14-10.17q0-4.32-1.89-7.47t-5.22-4.77-8.01-1.62H39.78v-24.84h21.96q5.76 0 9.54-2.88t3.78-9-3.78-9-9.54-2.88H39.78v-25.92h32.04q11.7 0 20.43 4.41t13.59 12.06 4.86 17.55q0 13.68-9.72 22.32t-28.44 9.9l-.36-12.42q20.34 1.26 31.14 11.16t10.8 25.38q0 11.16-5.58 19.71T92.97-4.77 69.66 0zM10.62 0v-128.16H45.9V0zm159.1 2.16q-14.58 0-26.01-6.03t-18-16.65-6.57-23.94 6.48-23.76 17.91-16.47 26.01-6.03 25.92 6.03 17.91 16.47 6.57 23.76-6.48 23.94-17.82 16.65-25.92 6.03m-.18-30.96q4.5 0 7.83-1.89t5.13-5.4 1.8-8.19-1.89-8.19-5.13-5.4-7.74-1.89q-4.32 0-7.65 1.98t-5.22 5.49-1.89 8.19q0 4.5 1.89 8.01t5.22 5.4 7.65 1.89M228.92 0v-131.76h35.28V0zm88.54 1.8q-13.14 0-22.95-5.94t-15.3-16.29-5.49-23.85 5.49-23.94 15.3-16.29 22.95-5.85q7.92 0 14.94 2.61t11.97 7.29 6.21 10.8v48.96q-1.26 6.12-6.21 11.25T332.4-1.26 317.46 1.8m6.48-30.96q4.5 0 7.74-1.89t5.13-5.31 1.89-7.92-1.8-7.83-5.13-5.31-7.65-1.98-7.65 1.98-5.31 5.4-1.98 7.74 1.89 7.74 5.31 5.4 7.56 1.98M372 0h-34.38v-23.76l4.86-21.6-5.76-21.42v-64.98H372zm94.66 0-56.88-62.82q-6.84-7.74-9.63-14.58t-2.79-14.94q0-9.9 5.13-18.54t14.22-14.04 21.15-5.4q9.72 0 17.01 2.61t12.33 6.48 7.38 7.65l-22.5 22.5q-3.24-4.5-6.48-6.03t-6.84-1.53q-3.96 0-6.39 2.25t-2.43 5.31q0 1.98.99 4.14t2.97 4.5L507.34 0zm-40.32 2.16q-12.96 0-22.59-5.31t-14.94-14.31-5.31-19.98q0-12.24 6.3-21.87t19.44-15.57l14.4 23.76q-4.14 1.26-6.03 4.32t-1.89 6.48q0 2.7 1.26 5.22t3.78 4.14 6.12 1.62q3.06 0 5.94-1.53t5.76-5.67l24.3 23.22q-2.52 3.24-7.83 6.84T442.36-.36t-16.02 2.52m137.86 0q-14.76 0-27.45-4.95t-22.23-13.95-14.85-21.15-5.31-26.37q0-14.4 5.31-26.46t14.76-20.88 22.05-13.77 27.36-4.95q14.94 0 27.36 4.68t21.6 12.96l-23.94 24.12q-4.32-4.68-10.53-7.38t-14.49-2.7q-7.2 0-13.23 2.34t-10.35 6.84-6.75 10.89-2.43 14.31q0 8.1 2.43 14.49t6.75 10.89 10.35 6.93 13.23 2.43q8.1 0 14.49-2.52t11.07-7.38l24.12 24.12q-9.54 8.28-21.42 12.87t-27.9 4.59m100.78 0q-14.58 0-26.01-6.03t-18-16.65-6.57-23.94 6.48-23.76 17.91-16.47 26.01-6.03 25.92 6.03 17.91 16.47 6.57 23.76-6.48 23.94T690.9-3.87t-25.92 6.03m-.18-30.96q4.5 0 7.83-1.89t5.13-5.4 1.8-8.19-1.89-8.19-5.13-5.4-7.74-1.89q-4.32 0-7.65 1.98t-5.22 5.49-1.89 8.19q0 4.5 1.89 8.01t5.22 5.4 7.65 1.89"/></svg></svg>