<svg xmlns="http://www.w3.org/2000/svg" width="1200" height="400" viewBox="0 0 1200 400"><svg xmlns="http://www.w3.org/2000/svg" width="1200" height="400" aria-label="lolly.tools" viewBox="-7.08 -100.8 551.92 139.2"><path fill="#fff" d="M7.32 0v-86.4h13.2V0zm58.24 1.2q-8.4 0-15.24-4.02T39.46-13.68t-4.02-15.24 4.02-15.12 10.86-10.74 15.24-4.02q8.52 0 15.36 3.96T91.78-44.1t4.02 15.18-4.02 15.24T80.92-2.82 65.56 1.2m0-12.72q4.92 0 8.7-2.22t5.88-6.18 2.1-9-2.16-8.88-5.88-6.06-8.64-2.22q-4.8 0-8.58 2.22T51.1-37.8 49-28.92t2.1 9 5.88 6.18 8.58 2.22M110.72 0v-86.4h13.2V0zm31.84 0v-86.4h13.2V0zM193 .6l-24.6-58.2h14.52l16.8 42.72h-4.2l17.76-42.72h14.64L201.16.6zM175.84 24l17.88-36.84L201.16.6 190.48 24zm66.64-22.8q-3.84 0-6.3-2.58t-2.46-6.3q0-3.84 2.46-6.36t6.3-2.52 6.3 2.52 2.46 6.36q0 3.72-2.46 6.3t-6.3 2.58m33.4-1.2v-81.6h13.2V0zm-13.8-45.6v-12h40.8v12zM341.2 1.2q-8.4 0-15.24-4.02T315.1-13.68t-4.02-15.24 4.02-15.12 10.86-10.74 15.24-4.02q8.52 0 15.36 3.96t10.86 10.74 4.02 15.18-4.02 15.24-10.86 10.86T341.2 1.2m0-12.72q4.92 0 8.7-2.22t5.88-6.18 2.1-9-2.16-8.88-5.88-6.06-8.64-2.22q-4.8 0-8.58 2.22t-5.88 6.06-2.1 8.88 2.1 9 5.88 6.18 8.58 2.22M412.76 1.2q-8.4 0-15.24-4.02t-10.86-10.86-4.02-15.24 4.02-15.12 10.86-10.74 15.24-4.02q8.52 0 15.36 3.96t10.86 10.74T443-28.92t-4.02 15.24-10.86 10.86-15.36 4.02m0-12.72q4.92 0 8.7-2.22t5.88-6.18 2.1-9-2.16-8.88-5.88-6.06-8.64-2.22q-4.8 0-8.58 2.22t-5.88 6.06-2.1 8.88 2.1 9 5.88 6.18 8.58 2.22M457.92 0v-86.4h13.2V0zm50.68 1.2q-4.8 0-9.24-1.26t-8.16-3.6-6.48-5.7l8.4-8.4q3 3.48 6.9 5.22t8.82 1.74q4.44 0 6.72-1.32t2.28-3.84q0-2.64-2.16-4.08t-5.58-2.46-7.2-2.1-7.2-2.94-5.58-5.1-2.16-8.4q0-5.52 2.58-9.48t7.32-6.12 11.34-2.16q6.96 0 12.3 2.46t8.94 7.38l-8.4 8.4q-2.52-3.12-5.76-4.68t-7.44-1.56q-3.96 0-6.12 1.2t-2.16 3.48q0 2.4 2.16 3.72t5.58 2.28 7.2 2.1 7.2 3.12 5.58 5.28 2.16 8.58q0 8.4-5.88 13.32T508.6 1.2"/></svg></svg>