<svg xmlns="http://www.w3.org/2000/svg" width="1200" height="400" viewBox="0 0 1200 400"><svg xmlns="http://www.w3.org/2000/svg" width="1200" height="400" aria-label="ATELIER" viewBox="-9.8 -111.44 697 128.24"><path fill="#1a1a2e" d="m7 0 38.5-94.64h4.2L87.92 0h-4.9L46.48-90.72h2.1L11.76 0zm16.1-31.22v-4.06h48.86v4.06zM145.52 0v-91.98H150V0zm-35.98-90.58v-4.06h76.44v4.06zM230.7 0v-94.64h4.48V0zm2.52 0v-4.06h58.38V0zm0-46.62v-3.92h54.18v3.92zm0-43.96v-4.06h57.54v4.06zM337.02 0v-94.64h4.48V0zm2.52 0v-4.06h54.88V0zm99.6 0v-94.64h4.48V0zm56.2 0v-94.64h4.48V0zm2.52 0v-4.06h58.38V0zm0-46.62v-3.92h54.18v3.92zm0-43.96v-4.06h57.54v4.06zM603.9-44.52v-4.06h31.08q11.62 0 17.64-5.81t6.02-15.19q0-9.52-6.02-15.26t-17.64-5.74H603.9v-4.06h30.38q9.38 0 15.82 3.15t9.8 8.82 3.36 13.09-3.36 13.09-9.8 8.82-15.82 3.15zM601.66 0v-94.64h4.48V0zm62.72 0-37.94-46.48 4.9-.84L670.4 0z"/></svg></svg>