<svg xmlns="http://www.w3.org/2000/svg" width="1200" height="400" viewBox="0 0 1200 400"><svg xmlns="http://www.w3.org/2000/svg" width="1200" height="400" aria-label="Aurora" viewBox="-16 -131.68 536 152.48"><path fill="#0c322c" d="m3.12 0 45.4-112.48h17.76L111.32 0h-23.2L53.28-92.24h7.92L25.92 0zM27.2-21v-18.24h60.44V-21zM153.72 1.68q-10.15 0-18.1-4.36-7.94-4.36-12.4-12.04t-4.46-17.72v-44.84h21.04v44.32q0 4.81 1.64 8.22 1.63 3.41 4.79 5.23t7.53 1.83q6.56 0 10.2-4t3.64-11.28v-44.32h21.04v44.84q0 10.16-4.44 17.84T171.89-2.62t-18.17 4.3M205.2 0v-77.28h21.04V0zm21.04-42.68-8.2-5.52q1.52-14.12 8.4-22.4t19.76-8.28q5.68 0 10.14 1.88t8.06 5.96l-13.04 15.12q-1.84-2-4.3-2.94-2.47-.94-5.7-.94-6.72 0-10.92 4.19t-4.2 12.93M306 1.68q-11.64 0-21.02-5.36t-14.86-14.56-5.48-20.56 5.46-20.4 14.84-14.4 21.02-5.36q11.76 0 21.12 5.3t14.84 14.4 5.48 20.46-5.46 20.56-14.82 14.56T306 1.68m-.04-19.6q5.92 0 10.44-2.64t7.02-7.38 2.5-10.82-2.58-10.7-7.02-7.26-10.36-2.64q-5.76 0-10.28 2.66t-7.04 7.28-2.52 10.7q0 6.04 2.52 10.78t7.04 7.38 10.28 2.64M360.72 0v-77.28h21.04V0zm21.04-42.68-8.2-5.52q1.52-14.12 8.4-22.4t19.76-8.28q5.68 0 10.14 1.88t8.06 5.96l-13.04 15.12q-1.84-2-4.3-2.94-2.47-.94-5.7-.94-6.72 0-10.92 4.19t-4.2 12.93M457.52 1.6q-10.56 0-18.98-5.28t-13.28-14.36-4.86-20.48q0-11.52 4.86-20.62t13.28-14.42 18.98-5.32q8.32 0 14.88 3.4t10.54 9.36 4.26 13.56v27.84q-.28 7.6-4.2 13.56T472.46-1.8t-14.94 3.4m3.92-19.36q8.8 0 14.2-5.86t5.4-15.02q0-6.16-2.44-10.86t-6.84-7.36-10.28-2.66q-5.76 0-10.16 2.66t-6.94 7.38-2.54 10.84 2.52 10.84 6.94 7.38 10.14 2.66M479.96 0v-20.76l3.36-18.84-3.36-18.68v-19h20.84V0z"/></svg></svg>